<svg id="svg4771" xmlns="http://www.w3.org/2000/svg" viewBox="0 0 511.89 564.98"><defs><style>.cls-1{fill:#1d1d1b;}.cls-1,.cls-2{fill-rule:evenodd;}.cls-2{fill:#009ed4;}</style></defs><g id="layer1"><g id="g110"><path id="path112" class="cls-1" d="M148.24,293.58a94.17,94.17,0,1,0,94.16-94.16,94.16,94.16,0,0,0-94.16,94.16" transform="translate(-13 -11.09)"/></g><g id="g114"><path id="path116" class="cls-2" d="M13,410.32a51.71,51.71,0,1,0,51.71-51.71A51.71,51.71,0,0,0,13,410.32" transform="translate(-13 -11.09)"/></g><g id="g118"><path id="path120" class="cls-2" d="M242.4,481.9v94.17c156,0,282.49-126.48,282.49-282.5S398.41,11.09,242.4,11.09A282.48,282.48,0,0,0,42.65,93.83l66.59,66.58A187.71,187.71,0,0,1,242.4,105.25c104,0,188.33,84.32,188.33,188.32S346.42,481.9,242.4,481.9" transform="translate(-13 -11.09)"/></g></g></svg>