<?xml version="1.0" encoding="utf-8"?>
<!-- Generator: Adobe Illustrator 21.1.0, SVG Export Plug-In . SVG Version: 6.00 Build 0)  -->
<svg version="1.1" id="Слой_1" xmlns="http://www.w3.org/2000/svg" xmlns:xlink="http://www.w3.org/1999/xlink" x="0px" y="0px"
	 viewBox="0 0 2381.2 1596" enable-background="new 0 0 2381.2 1596" xml:space="preserve">
<g>
	<rect y="0.8" fill="#E9F7FF" width="2381.4" height="1595.3"/>
	<g>
		<path fill="#AFD0F1" d="M2381.2,109.5V1596h-1663c-50.7-179.5-109.5-562.2,335.5-500.6c5.1,0.7,10.1,1.4,15,2
			c13.4,1.8,26.6,3.5,39.4,5c14.5,1.7,28.5,3.3,42.2,4.8c17.7,1.9,34.8,3.5,51.3,4.8c16,1.3,31.5,2.4,46.4,3.3
			c1.1,0.1,2.2,0.1,3.3,0.2c4.8,0.3,9.5,0.5,14.1,0.7c21.2,1,41.2,1.6,60,1.8c5.5,0,10.9,0.1,16.2,0c7.4,0,14.6-0.1,21.7-0.3h0
			c3.9-0.1,7.7-0.2,11.5-0.3c73.3-2.6,127.2-12.7,167.4-27.6c0,0,0.1,0,0.1-0.1c8.9-3.3,17-6.8,24.6-10.6h0c1.1-0.6,2.3-1.1,3.4-1.7
			c0,0,0,0,0,0c42.4-21.8,65.3-50.2,80.4-80c1.7-3.4,3.3-6.8,4.9-10.2c4.2-9.4,7.8-18.8,11.1-28.2c0.6-1.8,1.3-3.7,1.9-5.5
			c0.4-1,0.7-2.1,1.1-3.1c2.7-7.8,5.2-15.5,7.8-23.1c0.6-1.7,1.2-3.4,1.8-5.1c0.4-1.1,0.8-2.2,1.2-3.4c2.7-7.3,5.6-14.3,8.6-21.1
			c1.2-2.7,2.5-5.5,3.8-8.1c11.9-24.4,26.6-45.5,45.2-61.8v0c9.2-8.1,19.3-15,30.4-20.6c5.1-2.6,10.5-4.8,16-6.8
			c12.9-4.6,27-7.5,42.6-8.7c4.2-0.3,8.6-0.5,13-0.5c17.6-0.2,36.9,1.8,58.1,6.3h0c18.7,3.9,38.9,9.8,60.6,17.7
			c0.3,0.1,0.7,0.2,1,0.4c15.9,5.5,31.3,3.1,46.3-5.6h0c2.2-1.3,4.4-2.7,6.6-4.2h0c8.9-6.3,17.7-14.7,26.3-25
			c1.5-1.8,3.1-3.7,4.6-5.7c21.1-27,41.5-64.9,61.4-109.1c0,0,0,0,0,0c7.5-16.7,14.9-34.4,22.3-52.7c0,0,0,0,0,0
			c9.1-22.6,18.1-46.2,27-70.4c0.6-1.7,1.2-3.4,1.8-5c5.1-13.8,10.1-27.8,15.2-41.8c0.2-0.6,0.4-1.1,0.6-1.7
			c16.4-45.9,32.6-92.4,48.6-136.6c2-5.6,4.1-11.1,6.1-16.7v0c1.8-4.9,3.6-9.8,5.4-14.6c2.4-6.5,4.8-12.9,7.3-19.3
			C2286.2,184,2332.5,92,2381.2,109.5"/>
		<path fill="#B9D3EF" d="M1206.4,1593.2c3.7,0,6.9,1.3,9.9,2.8h-129.2c-5-5.5-9-11.4-11.7-17.8c-61.7-142.9-282.8-38.4-267.6-132.1
			c3.3-20.1,0.1-36-5.7-49c4.4,3.5,8.7,7,13.2,10.5c1.5,1.5,7.3,4.4,7.3,4.4c27.6,51.1,72.7,74.5,125,78.9
			c65.4,5.8,132.3,4.4,189,40.9c21.8,14.6,36.4,40.9,62.5,51.1C1196.3,1590.2,1207.9,1587.3,1206.4,1593.2"/>
		<path fill="#B9D3EF" d="M2132.9,1552.8c-51.8,15.3-111.8,29.9-176.4,43.2h-160.9c9.8-4.7,18.6-12.1,26-23.3
			c4.4-5.8,17.4-14.6,27.6-20.5c43.6-23.4,93.1-8.8,141-13.1c1.4-1.5,2.9-4.4,5.8-5.8c43.6-10.2,85.8-19,123.6-45.3
			c21.8-14.6,66.9,4.4,81.4-21.9c7.3-14.6-21.8-29.2-40.7-33.6c-14.5-2.9-17.4-24.8-8.7-30.7c7.7-6.1,15.8-11,24.1-15
			C2258.9,1426.4,2308.1,1501.1,2132.9,1552.8"/>
		<path fill="#9FC2EE" d="M2200.9,1466.1c-14.5,26.3-59.6,7.3-81.4,21.9c-37.8,26.3-80,35.1-123.6,45.3c-2.9,1.5-4.4,4.4-5.8,5.8
			c-48,4.4-97.4-10.2-141,13.1c-10.2,5.8-23.3,14.6-27.6,20.5c-7.3,11.2-16.2,18.6-26,23.3H1653c-63.7-5.6-126.6-3.3-189.5,0h-247.2
			c-3-1.5-6.2-2.8-9.9-2.8c1.5-5.8-10.2-2.9-7.3-10.2c-26.2-10.2-40.7-36.5-62.5-51.1c-56.7-36.5-123.6-35.1-189-40.9
			c-52.3-4.4-97.4-27.8-125-78.9c0,0-5.8-2.9-7.3-4.4c-4.5-3.5-8.8-7-13.2-10.5c-21.3-47.4-77.9-54.9,15.8-83
			c42.7-12.8,134.8-23.4,228.1-25.1c4.7-0.1,9.4-0.2,14.1-0.2c48.9-0.4,97.5,1.7,138.7,7.4c14,1.9,27.2,4.2,39.2,7
			c4.3,1,8.5,2,12.5,3.1c24.4,6.7,43.1,15.6,53.3,27.1c2.1,2.4,3.9,4.9,5.2,7.5c0.6,1.2,1.2,2.4,1.6,3.6v0c0.5,1.4,0.9,2.8,1.2,4.3
			c0.1,0.6,0.2,1.2,0.3,1.9c0.7,5.7-0.2,11.9-2.9,18.5c-0.7,1.8-1.6,3.6-2.6,5.5c-0.6,1.1-1.3,2.3-2,3.4c-1.9,3.1-4.2,6.3-6.9,9.6
			c-0.7,0.8-1.4,1.7-2.1,2.5l0,0c-4.1,4.8-9.1,9.9-14.9,15.1c-9,8.2-14.8,15.8-17.5,23c-7,18.1,5,33,30.3,44.8c0,0,0,0,0,0
			c144.4,67.6,723.6,36.8,713-67.8c-0.4-3.6-0.4-7,0-10.1c0.1-1.3,0.3-2.6,0.6-3.8c0.5-2.4,1.3-4.7,2.2-6.8c1.3-2.8,2.9-5.4,4.9-7.7
			c7.1-8.3,18.5-13.4,32.6-15.7c3-0.5,6.1-0.9,9.3-1.1c26.8-2.1,60.8,4,92.9,15.6c9.1,3.3,18,7,26.6,11.1c-8.3,4-16.3,8.9-24.1,15
			c-8.7,5.8-5.8,27.8,8.7,30.7C2179.1,1436.8,2208.2,1451.4,2200.9,1466.1"/>
	</g>
	<g>
		<defs>
			<path id="SVGID_1_" d="M1291.1,526.4c-4.5,0-9.3,2.1-14,7.3c-15.4,17.3,2.6,68.2,1.9,82.7c-0.7,14.4-21.8-2.3-18.5,19.3
				c3.3,21.6,1.9,62.3,29.9,90.7c28,28.3,113.1,2.3,111.2-28.2c-1.9-30.5-21-11.5-36.5-25.5c-15.5-14,7.2-24-4-36.3
				c-11.2-12.4-18.8-3.5-18.8-3.5s2.2-3.5,2.4-12.8c0.2-9.4-7.9-19.9-22.1-24.3s-6.7-41.2-9.2-49.3
				C1310.6,537.4,1301.5,526.4,1291.1,526.4C1291.1,526.4,1291.1,526.4,1291.1,526.4"/>
		</defs>
		<clipPath id="SVGID_2_">
			<use xlink:href="#SVGID_1_"  overflow="visible"/>
		</clipPath>
		
			<linearGradient id="SVGID_3_" gradientUnits="userSpaceOnUse" x1="7.128741e-02" y1="1595.9609" x2="1.0945" y2="1595.9609" gradientTransform="matrix(157.8879 247.5902 -247.5902 157.8879 396367.25 -251510.6094)">
			<stop  offset="0" style="stop-color:#B6F2F0"/>
			<stop  offset="0.1298" style="stop-color:#B6F2F0"/>
			<stop  offset="0.259" style="stop-color:#90DBD9"/>
			<stop  offset="0.4025" style="stop-color:#6DC6C4"/>
			<stop  offset="0.5483" style="stop-color:#52B5B4"/>
			<stop  offset="0.6956" style="stop-color:#3EA9A8"/>
			<stop  offset="0.8451" style="stop-color:#33A2A1"/>
			<stop  offset="1" style="stop-color:#2FA09F"/>
		</linearGradient>
		<polygon clip-path="url(#SVGID_2_)" fill="url(#SVGID_3_)" points="1154.1,592.4 1299.4,821.3 1506.5,688.7 1361.2,459.7 		"/>
	</g>
	<g>
		<defs>
			<rect id="SVGID_4_" y="0.8" width="2381.4" height="1595.3"/>
		</defs>
		<clipPath id="SVGID_5_">
			<use xlink:href="#SVGID_4_"  overflow="visible"/>
		</clipPath>
		<g opacity="0.38" clip-path="url(#SVGID_5_)">
			<g>
				<defs>
					<rect id="SVGID_6_" x="1223.3" y="489.6" width="215.7" height="286.3"/>
				</defs>
				<clipPath id="SVGID_7_">
					<use xlink:href="#SVGID_6_"  overflow="visible"/>
				</clipPath>
				<g clip-path="url(#SVGID_7_)">
					<defs>
						<rect id="SVGID_8_" x="1223.3" y="489.6" width="215.7" height="286.3"/>
					</defs>
					<clipPath id="SVGID_9_">
						<use xlink:href="#SVGID_8_"  overflow="visible"/>
					</clipPath>
					<g clip-path="url(#SVGID_9_)">
						
							<image overflow="visible" width="212" height="280" xlink:href="E8ADC8A0.png"  transform="matrix(1.0177 0 0 1.0226 1223.2529 489.5569)">
						</image>
					</g>
				</g>
			</g>
		</g>
	</g>
	<g>
		<defs>
			<path id="SVGID_10_" d="M1291.5,527.1c-5.1,0-10.1,1.8-14.4,6.6c-15.4,17.3,2.6,68.2,1.9,82.7c-0.7,14.4-21.8-2.3-18.5,19.3
				c3.3,21.6,1.9,62.3,29.9,90.7c28,28.3,113.1,2.3,111.2-28.2c-1.9-30.5-21-11.5-36.5-25.5c-15.5-14,7.2-24-4-36.3
				c-11.2-12.4-18.8-3.5-18.8-3.5s2.2-3.5,2.4-12.8c0.2-9.4-7.9-19.9-22.1-24.3s-0.2-39.4-2.5-50
				C1318.7,539.8,1304.9,527.1,1291.5,527.1C1291.5,527.1,1291.5,527.1,1291.5,527.1"/>
		</defs>
		<clipPath id="SVGID_11_">
			<use xlink:href="#SVGID_10_"  overflow="visible"/>
		</clipPath>
		<path clip-path="url(#SVGID_11_)" fill="#2D65AF" d="M1376.2,704.3c-12.5,1.6-22.3-9.3-29.7-17.8c-7.3-8.3-14.1-17.1-20.3-26.2
			c-12.8-18.7-23.3-39-31.4-60.2c-4.6-12-8.5-24.3-11.5-36.8c-0.1-0.4-0.8-0.3-0.7,0.2c5.6,22.7,13.7,44.7,24.3,65.5
			c10.3,20.2,22.8,39.2,37.6,56.4c7.9,9.1,18.3,21.4,31.7,19.7C1376.6,705,1376.6,704.3,1376.2,704.3"/>
		<path clip-path="url(#SVGID_11_)" fill="#2D65AF" d="M1291.9,634.8c4.6,3.5,9,7.3,13.3,11.2c1,0.9,2,1.9,2.9,2.8
			c0.7,0.7,1.5,1.7,2.5,2.1c1,0.4,2.1,0,3-0.2c1.5-0.3,3-0.6,4.5-0.9c0.4-0.1,0.3-0.8-0.2-0.7c-1.3,0.2-2.5,0.5-3.8,0.7
			c-0.7,0.1-1.5,0.4-2.3,0.4c-1,0.1-1.6-0.4-2.3-1.1c-1.9-1.8-3.7-3.7-5.7-5.4c-3.7-3.4-7.6-6.7-11.7-9.7
			C1291.9,633.9,1291.6,634.5,1291.9,634.8"/>
		<path clip-path="url(#SVGID_11_)" fill="#2D65AF" d="M1329.7,664.9c-0.3-2.5,0.3-5,0.4-7.5c0.1-2.7,0.2-5.4,0-8.1
			c-0.2-5.2-0.9-10.3-2.1-15.4c-0.1-0.4-0.8-0.3-0.7,0.2c1.2,5.2,1.9,10.4,2.1,15.7c0.1,2.5,0.1,5-0.1,7.6c-0.1,2.5-0.7,5-0.4,7.5
			C1329.1,665.4,1329.8,665.4,1329.7,664.9"/>
		<path clip-path="url(#SVGID_11_)" fill="#2D65AF" d="M1313.6,670.4c4.7,1.6,9.2,3.7,13.4,6.2c1.8,1.1,3.6,2.6,5.6,3.4
			c2.2,0.9,4.7-0.2,6.9,0.7c0.4,0.2,0.6-0.5,0.2-0.7c-2.4-0.9-4.9,0.3-7.2-0.9c-2.1-1-3.9-2.5-5.9-3.7c-4.1-2.3-8.4-4.3-12.8-5.8
			C1313.3,669.6,1313.2,670.2,1313.6,670.4"/>
		<path clip-path="url(#SVGID_11_)" fill="#2D65AF" d="M1353,687.6c-1.4-8.6-4.6-16.8-7.9-24.8c-0.2-0.4-0.8-0.2-0.7,0.2
			c3.2,8.1,6.4,16.2,7.9,24.8C1352.4,688.3,1353.1,688.1,1353,687.6"/>
		<path clip-path="url(#SVGID_11_)" fill="#2D65AF" d="M1333.2,703.4c3.5,0.5,6.8,1.3,10.1,2.4c3.2,1.1,6.4,2.2,9.7,2.2
			c0.4,0,0.4-0.7,0-0.7c-3.5,0.1-6.7-1.2-9.9-2.3c-3.2-1-6.5-1.8-9.8-2.3C1332.9,702.7,1332.8,703.3,1333.2,703.4"/>
		<path clip-path="url(#SVGID_11_)" fill="#2D65AF" d="M1304.1,615.2c0.9-0.7,1.1-1.8,1.3-2.9c0.3-1.6,0.4-3.2,0.6-4.8
			c0.3-3.4,0.2-6.9,0-10.3c0-0.4-0.7-0.4-0.7,0c0.2,3,0.3,5.9,0.1,8.9c-0.1,1.5-0.2,2.9-0.4,4.4c-0.1,1.1-0.1,3.3-1.2,4
			C1303.3,614.9,1303.7,615.5,1304.1,615.2"/>
	</g>
	<g>
		<defs>
			<rect id="SVGID_12_" y="0.8" width="2381.4" height="1595.3"/>
		</defs>
		<clipPath id="SVGID_13_">
			<use xlink:href="#SVGID_12_"  overflow="visible"/>
		</clipPath>
		<path clip-path="url(#SVGID_13_)" fill="#80DBDA" d="M1280.7,495.3c-2.1-4-2-17.5-6.9-18.7c-3.8-1-5.1,3.9-5.6,6.8
			C1263.6,498.3,1287.6,509.5,1280.7,495.3"/>
	</g>
	<g>
		<defs>
			<path id="SVGID_14_" d="M2225.7,374.7c6.1,13,3.5,81.5-16.8,96.6c-20.3,15.1-27.4,36.6-21.7,51.4c5.7,14.9,11.1,19.2,11.1,19.2
				s-17.1-9.9-28,16.3c-10.9,26.2,31,29.1,14.2,60.4c-16.8,31.3-50.4,71.5-53.1,126.2c41.9,1.1,112.7-27.7,141.4-89
				c28.7-61.3,65-119.6,58-156.1c-3.8-20.1-12.9-17.3-21.8-14.6c-7.3,2.2-14.5,4.5-18.7-5.7c-9.4-22.7-9.5-114.4-43.8-133.2
				c-7.1-3.9-12.4-5.5-16.4-5.5C2215.1,340.6,2220.8,364.4,2225.7,374.7"/>
		</defs>
		<clipPath id="SVGID_15_">
			<use xlink:href="#SVGID_14_"  overflow="visible"/>
		</clipPath>
		
			<linearGradient id="SVGID_16_" gradientUnits="userSpaceOnUse" x1="-6.858206e-03" y1="1595.9418" x2="1.0162" y2="1595.9418" gradientTransform="matrix(-151.9598 682.3311 -682.3311 -151.9598 1091279 242686.1406)">
			<stop  offset="0" style="stop-color:#B6F2F0"/>
			<stop  offset="0.1941" style="stop-color:#B6F2F0"/>
			<stop  offset="0.3137" style="stop-color:#90DBD9"/>
			<stop  offset="0.4466" style="stop-color:#6DC6C4"/>
			<stop  offset="0.5817" style="stop-color:#52B5B4"/>
			<stop  offset="0.7181" style="stop-color:#3EA9A8"/>
			<stop  offset="0.8565" style="stop-color:#33A2A1"/>
			<stop  offset="1" style="stop-color:#2FA09F"/>
		</linearGradient>
		<polygon clip-path="url(#SVGID_15_)" fill="url(#SVGID_16_)" points="2141.1,296.6 2045.8,726.7 2328,789.8 2423.3,359.8 		"/>
	</g>
	<g>
		<defs>
			<rect id="SVGID_17_" y="0.8" width="2381.4" height="1595.3"/>
		</defs>
		<clipPath id="SVGID_18_">
			<use xlink:href="#SVGID_17_"  overflow="visible"/>
		</clipPath>
		<g opacity="0.1" clip-path="url(#SVGID_18_)">
			<g>
				<defs>
					<rect id="SVGID_19_" x="2094.4" y="303.4" width="274.8" height="478.6"/>
				</defs>
				<clipPath id="SVGID_20_">
					<use xlink:href="#SVGID_19_"  overflow="visible"/>
				</clipPath>
				<g clip-path="url(#SVGID_20_)">
					<defs>
						<rect id="SVGID_21_" x="2094.4" y="303.4" width="274.8" height="478.6"/>
					</defs>
					<clipPath id="SVGID_22_">
						<use xlink:href="#SVGID_21_"  overflow="visible"/>
					</clipPath>
					<g clip-path="url(#SVGID_22_)">
						
							<image overflow="visible" width="270" height="468" xlink:href="E8ADC8BB.png"  transform="matrix(1.0177 0 0 1.0226 2094.3882 303.4421)">
						</image>
					</g>
				</g>
			</g>
		</g>
	</g>
	<g>
		<defs>
			<path id="SVGID_23_" d="M2225.7,374.7c6.1,13,3.5,81.5-16.8,96.6c-20.3,15.1-27.4,36.6-21.7,51.4c5.7,14.9,11.1,19.2,11.1,19.2
				s-17.1-9.9-28,16.3c-10.9,26.2,31,29.1,14.2,60.4c-16.8,31.3-60.6,86.4-46.4,136.3c14.3,49.9,106-37.9,134.7-99.2
				c28.7-61.3,65-119.6,58-156.1c-3.8-20.1-12.9-17.3-21.8-14.6c-7.3,2.2-14.5,4.5-18.7-5.7c-9.4-22.7-9.5-114.4-43.8-133.2
				c-7.1-3.9-12.4-5.5-16.4-5.5C2215.1,340.6,2220.8,364.4,2225.7,374.7"/>
		</defs>
		<clipPath id="SVGID_24_">
			<use xlink:href="#SVGID_23_"  overflow="visible"/>
		</clipPath>
		<path clip-path="url(#SVGID_24_)" fill="#2D65AF" d="M2151.4,725.5c3.5-0.8,6.9-3.4,9.7-5.6c5.5-4.2,10.5-9.1,15.2-14.1
			c14.9-16,27.1-34.4,37.1-53.8c12.6-24.3,21.8-50.4,28.7-76.8c7-26.9,11.5-54.6,13.7-82.3c2.3-28.4,2.2-57-0.1-85.4
			c-0.3-3.5-0.6-7-1-10.5c-0.1-0.8-1.3-0.8-1.2,0c2.8,28,3.5,56.2,1.9,84.3c-1.6,27.9-5.4,55.7-11.8,82.9
			c-6.2,26.5-14.8,52.6-26.3,77.3c-9.8,20.9-22,40.8-37,58.2c-5,5.8-10.3,11.4-16.1,16.4c-3.4,2.9-7.2,6.1-11.4,7.9
			c-0.5,0.2-1.1,0.4-1.6,0.5C2150.3,724.5,2150.7,725.7,2151.4,725.5"/>
		<path clip-path="url(#SVGID_24_)" fill="#2D65AF" d="M2279,515.6c-4.9,7.5-9.4,15.2-13.6,23.2c-2.1,3.9-3.8,8-5.9,11.8
			c-0.7,1.2-1.4,1.9-2.7,2.1c-1.1,0.2-2.2,0.4-3.3,0.5c-2.3,0.4-4.7,0.7-7,1.1c-0.7,0.1-0.4,1.3,0.3,1.1c2.4-0.4,4.8-0.8,7.3-1.1
			c2-0.3,4.2-0.3,5.6-1.9c1.4-1.5,2.1-3.8,3-5.6c1-2.1,2.1-4.2,3.2-6.2c4.4-8.4,9.1-16.5,14.3-24.4
			C2280.5,515.5,2279.4,515,2279,515.6"/>
		<path clip-path="url(#SVGID_24_)" fill="#2D65AF" d="M2237.7,585.7c-0.9-4.1-3.3-7.9-4.9-11.7c-1.7-4-3.2-8.2-4.5-12.3
			c-2.6-8.5-4.5-17.2-5.5-26.1c-0.1-0.7-1.3-0.8-1.2,0c1,8.8,2.8,17.5,5.4,25.9c1.3,4.2,2.8,8.3,4.4,12.3c0.8,1.9,1.6,3.8,2.5,5.7
			c1,2.1,2,4.2,2.5,6.4C2236.7,586.7,2237.9,586.4,2237.7,585.7"/>
		<path clip-path="url(#SVGID_24_)" fill="#2D65AF" d="M2264.8,584.6c-6.6,5.2-12.7,11.2-18.1,17.7c-1.3,1.6-2.6,3.2-3.8,4.8
			c-1.3,1.7-2.6,3.6-4.4,4.7c-3,1.8-6.6,1.6-9.3,4.1c-0.6,0.5,0.3,1.3,0.8,0.8c2.7-2.5,6.8-2.2,9.7-4.3c1.5-1.1,2.6-2.6,3.7-4
			c1.4-1.8,2.7-3.6,4.2-5.3c5.4-6.5,11.5-12.4,18.1-17.7C2266.2,585,2265.3,584.2,2264.8,584.6"/>
		<path clip-path="url(#SVGID_24_)" fill="#2D65AF" d="M2211.2,639.5c-2.6-14.5-2-29.4-1.4-44c0-0.8-1.1-0.8-1.2,0
			c-0.6,14.8-1.1,29.7,1.5,44.4C2210.2,640.6,2211.4,640.2,2211.2,639.5"/>
		<path clip-path="url(#SVGID_24_)" fill="#2D65AF" d="M2234.9,658.2c-5.6,1.5-11,3.6-16.2,6.1c-5.1,2.5-10.2,5.3-16,5.9
			c-0.7,0.1-0.8,1.3,0,1.2c5.5-0.6,10.4-3.1,15.3-5.5c5.5-2.7,11.2-4.9,17.1-6.6C2236,659.2,2235.7,658,2234.9,658.2"/>
		<path clip-path="url(#SVGID_24_)" fill="#2D65AF" d="M2249.8,490.8c-2.1-0.6-3.3-3.9-4.2-5.7c-1.2-2.3-2.3-4.6-3.2-7
			c-1.9-4.6-3.5-9.3-4.8-14.2c-0.2-0.7-1.3-0.4-1.1,0.3c1.4,5.3,3.2,10.5,5.4,15.6c1.1,2.5,2.2,4.9,3.5,7.3c1,1.8,2,4.2,4.2,4.8
			C2250.2,492.1,2250.5,491,2249.8,490.8"/>
	</g>
	<g>
		<defs>
			<rect id="SVGID_25_" y="0.8" width="2381.4" height="1595.3"/>
		</defs>
		<clipPath id="SVGID_26_">
			<use xlink:href="#SVGID_25_"  overflow="visible"/>
		</clipPath>
		<path clip-path="url(#SVGID_26_)" fill="#80DBDA" d="M2317.6,463.7c2.4-6.8,0.1-29.3,7.2-31.6c5.5-1.8,8.3,6.3,9.6,11.1
			C2343.8,468,2309.7,488,2317.6,463.7"/>
		<path clip-path="url(#SVGID_26_)" fill="#80DBDA" d="M2231.4,324.2c-1.6-5.9-13.8-18.5-10.3-24.7c2.8-4.7,8.4-1.4,11.5,0.7
			C2250.6,309.7,2237.7,344.7,2231.4,324.2"/>
		<path clip-path="url(#SVGID_26_)" fill="#4676B7" d="M1362.4,1361c0,13.6-91,24.7-203.2,24.7c-112.2,0-203.2-11-203.2-24.7
			c0-13.6,91-24.7,203.2-24.7C1271.5,1336.3,1362.4,1347.4,1362.4,1361"/>
		<path clip-path="url(#SVGID_26_)" fill="#4676B7" d="M2224.7,1359.3c0,16.7-210.7,30.3-470.7,30.3c-259.9,0-470.7-13.6-470.7-30.3
			c0-16.7,210.7-30.3,470.7-30.3C2014,1329,2224.7,1342.6,2224.7,1359.3"/>
		<path clip-path="url(#SVGID_26_)" fill="#75AFE8" d="M1745.7,1345.1c92,9.9,186.9,6,275.1-20.1c-4.1-3.6-9.6-5.9-14.1-5.5
			c-13.9,1.1-442.1,6.4-442.1,6.4v15.2C1624,1332.7,1685.3,1338.4,1745.7,1345.1"/>
		<path clip-path="url(#SVGID_26_)" fill="#102538" d="M2020.8,1325.1c-88.2,26.1-183.2,30-275.1,20.1c-60.4-6.7-121.7-12.4-181-4
			l10.9,21.2c0,0,402.9,10.5,440.9,3C2042.2,1360.2,2029.5,1332.6,2020.8,1325.1"/>
		<path clip-path="url(#SVGID_26_)" fill="#5093D7" d="M1862.3,1305.4c6.7-70.4-22.7-143.2,5.3-209.3h-153.7v229.8
			c0,0,62.7,2.4,122.3,3.2C1845.5,1322.2,1854.3,1314.4,1862.3,1305.4"/>
		<path clip-path="url(#SVGID_26_)" fill="#6197F1" d="M1921.4,1317.7c-99.7-20.2-24.7-221.6-24.7-221.6h-29.2
			c-27.9,66.1,1.5,138.9-5.3,209.3c-8,9-16.8,16.8-26.2,23.8C1908.4,1330.1,1976.1,1328.7,1921.4,1317.7"/>
		<path clip-path="url(#SVGID_26_)" fill="#3784D1" d="M2182.9,1125.7c-34.2,1.8-806.5,12.4-806.5,12.4s-43-572.6,0-622.5
			c39.4-45.8,696.6-39.4,824.1-15.4c11.5,2.2,15.8,13.1,17.9,15.4C2243.8,543.2,2241.3,1122.7,2182.9,1125.7"/>
		<path clip-path="url(#SVGID_26_)" fill="#9BC6EE" d="M2176.4,1118.5c-33.5,7.2-812.3,7.2-812.3,7.2s-43-572.6,0-622.5
			c43-49.9,816.8-27.5,842,0C2231.4,530.7,2209.9,1111.3,2176.4,1118.5"/>
		<path clip-path="url(#SVGID_26_)" fill="#4676B7" d="M2156.4,1087.6c-28.7,13.8-743.6,0-743.6,0s-38-505.6,0-549.7
			c38-44.1,721.2-24.3,743.6,0C2178.7,562.2,2185.1,1073.8,2156.4,1087.6"/>
		<path clip-path="url(#SVGID_26_)" fill="#F2F2F2" d="M2156.6,1087.7c-28.5,13.6-736.7,0-736.7,0s-37.6-499.8,0-543.4
			c37.6-43.6,714.6-24,736.7,0C2178.7,568.3,2185.1,1074,2156.6,1087.7"/>
		<path clip-path="url(#SVGID_26_)" fill="#D6E7F7" d="M2110.3,1068.3c-15.5,20.5-661.2,9.3-661.2,9.3s-19.6-449.3-15.2-454.9
			c4.4-5.5,693.7-29.6,693.7-29.6S2125.8,1047.8,2110.3,1068.3"/>
		<path clip-path="url(#SVGID_26_)" fill="#3B57B5" d="M2111.4,552.9c-17.1-2.8-665.5-0.5-673.3,14.5c-7.7,15-4.2,49.8-4.2,49.8
			l694.3-24C2128.2,593.1,2128.5,555.6,2111.4,552.9"/>
		<path clip-path="url(#SVGID_26_)" fill="#AAACBE" d="M1519.2,690.2c0.1,3.8-2.8,7-6.4,7.1c-3.7,0.1-6.8-2.9-6.9-6.7
			c-0.1-3.8,2.8-7,6.4-7.1C1516,683.4,1519,686.4,1519.2,690.2"/>
		<path clip-path="url(#SVGID_26_)" fill="#AAACBE" d="M1519.9,714.5c0.1,3.8-2.8,6.9-6.4,7c-3.7,0.1-6.7-2.9-6.9-6.6
			c-0.1-3.8,2.8-6.9,6.4-7C1516.7,707.8,1519.8,710.7,1519.9,714.5"/>
		<path clip-path="url(#SVGID_26_)" fill="#AAACBE" d="M1521.3,758.8c0.1,3.7-2.7,6.8-6.4,6.9c-3.6,0.1-6.7-2.9-6.8-6.6
			c-0.1-3.7,2.7-6.8,6.4-6.9C1518.1,752.1,1521.2,755.1,1521.3,758.8"/>
		<path clip-path="url(#SVGID_26_)" fill="#AAACBE" d="M1522,782.3c0.1,3.7-2.7,6.8-6.4,6.9c-3.6,0.1-6.7-2.8-6.8-6.6
			c-0.1-3.7,2.7-6.8,6.4-6.9C1518.8,775.6,1521.9,778.6,1522,782.3"/>
		<path clip-path="url(#SVGID_26_)" fill="#AAACBE" d="M1522.7,805.6c0.1,3.7-2.7,6.7-6.4,6.8c-3.6,0.1-6.7-2.8-6.8-6.5
			c-0.1-3.7,2.7-6.7,6.4-6.8C1519.6,799,1522.6,801.9,1522.7,805.6"/>
		<path clip-path="url(#SVGID_26_)" fill="#AAACBE" d="M1523.4,828.8c0.1,3.7-2.7,6.7-6.3,6.8c-3.6,0.1-6.6-2.8-6.8-6.5
			c-0.1-3.7,2.7-6.7,6.3-6.8C1520.3,822.2,1523.3,825.1,1523.4,828.8"/>
		<path clip-path="url(#SVGID_26_)" fill="#AAACBE" d="M1524.1,851.9c0.1,3.6-2.7,6.7-6.3,6.7c-3.6,0.1-6.6-2.8-6.7-6.5
			c-0.1-3.6,2.7-6.7,6.3-6.7C1521,845.3,1524,848.2,1524.1,851.9"/>
		<path clip-path="url(#SVGID_26_)" fill="#AAACBE" d="M1524.8,874.8c0.1,3.6-2.7,6.6-6.3,6.7c-3.6,0.1-6.6-2.8-6.7-6.4
			c-0.1-3.6,2.7-6.6,6.3-6.7C1521.7,868.3,1524.7,871.2,1524.8,874.8"/>
		<path clip-path="url(#SVGID_26_)" fill="#AAACBE" d="M1525.5,897.6c0.1,3.6-2.7,6.6-6.3,6.6c-3.6,0.1-6.6-2.8-6.7-6.4
			c-0.1-3.6,2.7-6.6,6.3-6.6C1522.4,891.1,1525.4,894,1525.5,897.6"/>
		<path clip-path="url(#SVGID_26_)" fill="#AAACBE" d="M1526.2,920.2c0.1,3.6-2.7,6.5-6.3,6.6c-3.6,0.1-6.6-2.8-6.7-6.4
			c-0.1-3.6,2.7-6.5,6.3-6.6C1523.1,913.8,1526.1,916.7,1526.2,920.2"/>
		<polygon clip-path="url(#SVGID_26_)" fill="#B4BDED" points="1574.1,919.5 1540.5,920 1540.7,923.8 1574.2,923.3 		"/>
		<polygon clip-path="url(#SVGID_26_)" fill="#B4BDED" points="1573.5,896.1 1539.9,896.7 1540,900.5 1573.6,899.9 		"/>
		<polygon clip-path="url(#SVGID_26_)" fill="#B4BDED" points="1572.9,872.6 1539.2,873.2 1539.3,877 1573,876.4 		"/>
		<polygon clip-path="url(#SVGID_26_)" fill="#B4BDED" points="1572.3,848.9 1538.5,849.5 1538.6,853.4 1572.4,852.7 		"/>
		<polygon clip-path="url(#SVGID_26_)" fill="#B4BDED" points="1571.7,825 1537.8,825.8 1537.9,829.7 1571.8,828.9 		"/>
		<polygon clip-path="url(#SVGID_26_)" fill="#B4BDED" points="1571.2,801.1 1537.1,801.8 1537.2,805.8 1571.3,805 		"/>
		<polygon clip-path="url(#SVGID_26_)" fill="#B4BDED" points="1570.6,776.9 1536.4,777.8 1536.5,781.7 1570.7,780.9 		"/>
		<path clip-path="url(#SVGID_26_)" fill="#AECFF1" d="M1826.6,661.3c-2.5,2.4-229.9,10-232.7,7.2c-2.8-2.8-7.4-39-0.9-41.4
			c6.5-2.4,230.9-10.5,233.9-7.9C1830,622,1829,658.9,1826.6,661.3"/>
		<polygon clip-path="url(#SVGID_26_)" fill="#B4BDED" points="1570,752.7 1535.7,753.5 1535.8,757.5 1570.1,756.6 		"/>
		<polygon clip-path="url(#SVGID_26_)" fill="#B4BDED" points="1568.9,710 1534.5,711 1534.6,715 1569,714.1 		"/>
		<polygon clip-path="url(#SVGID_26_)" fill="#B4BDED" points="1568.4,687 1533.8,688.1 1534,692.1 1568.5,691.1 		"/>
		<path clip-path="url(#SVGID_26_)" fill="#B4BDED" d="M1580.5,645.4c-4.1-2.4-43.8,0.2-47.8,1.6c-4,1.3-2.7,4.7,0.2,5.6
			c2.8,0.9,45.6-1.8,47.8-1.5C1582.9,651.4,1584.6,647.8,1580.5,645.4"/>
		<path clip-path="url(#SVGID_26_)" fill="#FFFFFF" d="M1824.3,951.5l-224.4,3l-5.8-271.1c0,0,228.1-15.2,232.3-7
			C1830.7,684.6,1824.3,951.5,1824.3,951.5"/>
		<path clip-path="url(#SVGID_26_)" fill="#B4BDED" d="M1806.5,737.5c-3.6,4-201.4,5.3-201.4,5.3l-0.2-10.4c0,0,196.3-8.8,201.7-5.5
			C1812,730.3,1810.1,733.5,1806.5,737.5"/>
		<path clip-path="url(#SVGID_26_)" fill="#FFFFFF" d="M1748.1,598.1c-8.1,1.9-216.2,10.9-224.2,7.9c-8-3-7.3-15.5-0.6-18.5
			c6.8-3,218.6-13.3,224.7-8.2C1754.2,584.5,1756.2,596.1,1748.1,598.1"/>
		<path clip-path="url(#SVGID_26_)" fill="#B5CAF6" d="M1514.4,606c-4.9,2-14.8,1.8-16.3,0.4c-1.5-1.4-5.1-13.8,0.1-16.8
			c5.2-3,11.7-2.9,15-0.8C1516.5,591,1519.3,603.9,1514.4,606"/>
		<path clip-path="url(#SVGID_26_)" fill="#FFFFFF" d="M2034.1,583.6c0,0-34.2,2.4-38.3,1.4c-4.2-1-3.2-5.9,0.2-7.3
			c3.4-1.4,36.5-1.4,38.3-1.4C2036.2,576.3,2040.5,581.3,2034.1,583.6"/>
		<path clip-path="url(#SVGID_26_)" fill="#FFFFFF" d="M1987.4,585.3c-2.6,1.3-36.4,3-38.1,1.3c-1.7-1.6-1.5-6.6,0.2-7.2
			c1.7-0.7,36.8-2.8,38.1-1.4C1988.9,579.5,1990,583.9,1987.4,585.3"/>
		<path clip-path="url(#SVGID_26_)" fill="#FF8B37" d="M2068.7,576.5c0.9,5.9-6.3,11.8-11.7,12c-5.5,0.2-11.3-4.9-11.4-10.7
			c0-5.8,9.6-10.7,13.1-10.7C2062.2,567.2,2067.7,570.7,2068.7,576.5"/>
		<path clip-path="url(#SVGID_26_)" fill="#FF8B37" d="M1522.6,647.5c1.3,9.9-9,20-16.9,20.3c-7.9,0.3-16.3-8.3-16.4-18.1
			c-0.1-9.7,13.8-18,18.9-18.1C1513.3,631.6,1521.3,637.6,1522.6,647.5"/>
		<path clip-path="url(#SVGID_26_)" fill="#F9B282" d="M1632.6,646.3c1.1,8-7.3,16.1-13.6,16.4c-6.4,0.3-13.2-6.7-13.2-14.6
			c-0.1-7.8,11.1-14.6,15.3-14.6C1625.1,633.5,1631.6,638.3,1632.6,646.3"/>
		<path clip-path="url(#SVGID_26_)" fill="#87B6DD" d="M2106.4,595.2l-137.2,4.7c0,0-18,365.6-9.4,371.1
			c8.6,5.5,119.8,13.4,130.8-1.6C2101.6,954.5,2106.4,595.2,2106.4,595.2"/>
		<path clip-path="url(#SVGID_26_)" fill="#3B57B5" d="M1632.7,707.3c0.1,8.5-6.5,15.6-14.8,15.8c-8.3,0.2-15.2-6.5-15.4-15
			c-0.2-8.5,6.4-15.6,14.8-15.9C1625.7,692,1632.6,698.7,1632.7,707.3"/>
		<path clip-path="url(#SVGID_26_)" fill="#AECFF1" d="M1903,700.4c-2.4,3.3-57.6,6.1-61.3,1.8c-3.7-4.4-1.8-78.5,0.8-81.8
			c2.5-3.3,59.5-6.2,62-2.1C1906.8,622.5,1905.3,697.1,1903,700.4"/>
		<path clip-path="url(#SVGID_26_)" fill="#AECFF1" d="M1901.3,796.6c-3.5,3-59.4,3.7-60.6,1.4c-1.2-2.3,0.8-79.8,0.8-79.8
			s60.6-3.9,61.2-1.7C1903.3,718.8,1904.8,793.7,1901.3,796.6"/>
		<path clip-path="url(#SVGID_26_)" fill="#AECFF1" d="M1899.7,890.6c-4.3,3.8-57.9,4.1-59.9,1c-2-3.1-1.7-75.7,0.8-77.9
			c2.4-2.2,58.1-5.5,60.5-1.3C1903.3,816.5,1904,886.8,1899.7,890.6"/>
		<path clip-path="url(#SVGID_26_)" fill="#80DCDB" d="M1859.1,647.2c0.4-0.7,0.8-1.3,1.4-1.8c0.6-0.5,1.4-0.7,2.1-0.4
			c0.4,0.2,0.7,0.5,1,0.8c3.8,4.3,11.7,11.1,10.5,13.7c-1.2,2.6-7.8-0.2-11.7-0.4c-2.3-0.1-9.3,0.7-10.7-0.9
			C1853.7,654.4,1856.8,651,1859.1,647.2"/>
		<path clip-path="url(#SVGID_26_)" fill="#A3E7E6" d="M1868.9,651.2c26.3-11,23.7,10.3,9.8,10.6
			C1864.8,662.1,1868.9,652.8,1868.9,651.2"/>
		<path clip-path="url(#SVGID_26_)" fill="#2FA09F" d="M1861.4,672.6c0.3,1,0.5,2.2-0.3,2.8c12.4-0.8,22.9,5.3,17.8-12.1
			C1872.5,666.2,1855.9,660.1,1861.4,672.6"/>
		<path clip-path="url(#SVGID_26_)" fill="#80DCDB" d="M1860.7,745.8c0.4-0.7,0.8-1.3,1.4-1.8c0.6-0.5,1.4-0.7,2.1-0.4
			c0.4,0.2,0.7,0.5,1,0.8c3.8,4.3,11.7,11.1,10.5,13.7c-1.2,2.6-7.8-0.2-11.7-0.4c-2.3-0.1-9.3,0.7-10.7-0.9
			C1855.4,753,1858.4,749.6,1860.7,745.8"/>
		<path clip-path="url(#SVGID_26_)" fill="#A3E7E6" d="M1870.6,749.8c26.3-11,23.7,10.3,9.8,10.6
			C1866.5,760.7,1870.6,751.5,1870.6,749.8"/>
		<path clip-path="url(#SVGID_26_)" fill="#2FA09F" d="M1863.1,771.2c0.3,1,0.5,2.2-0.3,2.8c12.4-0.8,22.9,5.3,17.8-12.1
			C1874.1,764.8,1857.6,758.7,1863.1,771.2"/>
		<path clip-path="url(#SVGID_26_)" fill="#80DCDB" d="M1859.4,835.2c0.4-0.7,0.8-1.3,1.4-1.8c0.6-0.5,1.4-0.7,2.1-0.4
			c0.4,0.2,0.7,0.5,1,0.8c3.8,4.3,11.7,11.1,10.5,13.7c-1.2,2.6-7.8-0.2-11.7-0.4c-2.3-0.1-9.3,0.7-10.7-0.9
			C1854.1,842.4,1857.1,839,1859.4,835.2"/>
		<path clip-path="url(#SVGID_26_)" fill="#A3E7E6" d="M1869.3,839.2c26.3-11,23.7,10.3,9.8,10.6
			C1865.2,850.1,1869.3,840.8,1869.3,839.2"/>
		<path clip-path="url(#SVGID_26_)" fill="#2FA09F" d="M1861.8,860.6c0.3,1,0.5,2.2-0.3,2.8c12.4-0.8,22.9,5.3,17.8-12.1
			C1872.9,854.1,1856.3,848.1,1861.8,860.6"/>
		<path clip-path="url(#SVGID_26_)" fill="#AADAFF" d="M2012.7,849.5c0.6-0.9,1.1-1.9,2-2.6c0.9-0.7,2.1-1,3-0.6
			c0.6,0.3,1,0.7,1.4,1.2c5.4,6.2,16.8,15.8,15,19.5c-1.8,3.7-11.2-0.3-16.8-0.5c-3.3-0.1-13.3,1.1-15.4-1.3
			C2005.1,859.8,2009.5,854.9,2012.7,849.5"/>
		<path clip-path="url(#SVGID_26_)" fill="#C5DCEF" d="M2026.9,855.3c37.7-15.7,34,14.8,14.1,15.2
			C2021,870.8,2026.9,857.6,2026.9,855.3"/>
		<path clip-path="url(#SVGID_26_)" fill="#AFD0F1" d="M2016.2,885.9c0.4,1.4,0.7,3.1-0.4,4.1c17.8-1.2,32.8,7.7,25.5-17.3
			C2032,876.7,2008.3,868,2016.2,885.9"/>
		<path clip-path="url(#SVGID_26_)" fill="#F2F2F2" d="M1982.2,619.8c0,0-5.9,4.9,0.7,4.5c6.6-0.3,94.3,3.1,95,0
			c0.7-3.1-4.8-1.7-7.3-2.9C2068.2,620.1,1985.6,617.5,1982.2,619.8"/>
		<path clip-path="url(#SVGID_26_)" fill="#F2F2F2" d="M1981.6,651.1c0,0-4.6,6.1,0.5,5.6c5.1-0.4,73.8,3.9,74.4,0
			c0.5-3.9-3.8-2.1-5.7-3.7C2049,651.5,1984.4,648.2,1981.6,651.1"/>
		<path clip-path="url(#SVGID_26_)" fill="#F2F2F2" d="M1982.2,681.9c0,0-5.9,4.9,0.7,4.5c6.6-0.3,94.3,3.1,95,0
			c0.7-3.1-4.8-1.7-7.3-2.9C2068.2,682.3,1985.6,679.6,1982.2,681.9"/>
		<path clip-path="url(#SVGID_26_)" fill="#F2F2F2" d="M1981.1,712.8c0,0-3.3,3.5,0.4,3.3c3.7-0.3,53.4,2.3,53.8,0
			c0.4-2.3-2.7-1.2-4.1-2.1C2029.9,713,1983.1,711.1,1981.1,712.8"/>
		<path clip-path="url(#SVGID_26_)" fill="#F2F2F2" d="M1981.1,744c0,0-3.3,4.7,0.4,4.4c3.7-0.3,53.4,3,53.8,0
			c0.4-3-2.7-1.6-4.1-2.8C2029.9,744.4,1983.1,741.8,1981.1,744"/>
		<path clip-path="url(#SVGID_26_)" fill="#F2F2F2" d="M1982.2,775.1c0,0-5.9,4.9,0.7,4.5c6.6-0.3,94.3,3.1,95,0
			c0.7-3.1-4.8-1.7-7.3-2.9C2068.2,775.5,1985.6,772.8,1982.2,775.1"/>
		<path clip-path="url(#SVGID_26_)" fill="#F2F2F2" d="M1981.1,806c0,0-3.3,3.6,0.4,3.4c3.7-0.3,53.4,2.3,53.8,0
			c0.4-2.3-2.7-1.3-4.1-2.2C2029.9,806.2,1983.1,804.3,1981.1,806"/>
		<g opacity="0.8" clip-path="url(#SVGID_26_)">
			<g>
				<defs>
					<rect id="SVGID_27_" x="1735.7" y="696.8" width="134.7" height="427.9"/>
				</defs>
				<clipPath id="SVGID_28_">
					<use xlink:href="#SVGID_27_"  overflow="visible"/>
				</clipPath>
				<g clip-path="url(#SVGID_28_)">
					<defs>
						<rect id="SVGID_29_" x="1735.7" y="696.8" width="134.7" height="427.9"/>
					</defs>
					<clipPath id="SVGID_30_">
						<use xlink:href="#SVGID_29_"  overflow="visible"/>
					</clipPath>
					<path clip-path="url(#SVGID_30_)" fill="#3D5F93" d="M1812.1,696.8c0,0-59,71.6-5.6,176.4c53.5,104.8,63.8,250.9,63.8,250.9
						l-106.2,0.6c0,0-39.9-379.2-25.3-397.8C1753.5,708.4,1812.1,696.8,1812.1,696.8"/>
				</g>
			</g>
		</g>
		<g opacity="0.1" clip-path="url(#SVGID_26_)">
			<g>
				<defs>
					<rect id="SVGID_31_" x="1698.5" y="659.3" width="208.6" height="503.1"/>
				</defs>
				<clipPath id="SVGID_32_">
					<use xlink:href="#SVGID_31_"  overflow="visible"/>
				</clipPath>
				<g clip-path="url(#SVGID_32_)">
					<defs>
						<rect id="SVGID_33_" x="1698.5" y="659.3" width="208.6" height="503.1"/>
					</defs>
					<clipPath id="SVGID_34_">
						<use xlink:href="#SVGID_33_"  overflow="visible"/>
					</clipPath>
					<g clip-path="url(#SVGID_34_)">
						
							<image overflow="visible" width="205" height="492" xlink:href="E8ADC8BC.png"  transform="matrix(1.0177 0 0 1.0226 1698.5101 659.3099)">
						</image>
					</g>
				</g>
			</g>
		</g>
		<g opacity="0.8" clip-path="url(#SVGID_26_)">
			<g>
				<defs>
					<rect id="SVGID_35_" x="1753.5" y="1124.4" width="99" height="204.7"/>
				</defs>
				<clipPath id="SVGID_36_">
					<use xlink:href="#SVGID_35_"  overflow="visible"/>
				</clipPath>
				<g clip-path="url(#SVGID_36_)">
					<defs>
						<rect id="SVGID_37_" x="1753.5" y="1124.4" width="99" height="204.7"/>
					</defs>
					<clipPath id="SVGID_38_">
						<use xlink:href="#SVGID_37_"  overflow="visible"/>
					</clipPath>
					<path clip-path="url(#SVGID_38_)" fill="#3D5F93" d="M1826.4,1329c0,0,39.9-79.2,20.9-204.6l-68.8-0.1l-25.1,203L1826.4,1329z"
						/>
				</g>
			</g>
		</g>
		<g opacity="0.1" clip-path="url(#SVGID_26_)">
			<g>
				<defs>
					<rect id="SVGID_39_" x="1840" y="1086.8" width="173" height="279.2"/>
				</defs>
				<clipPath id="SVGID_40_">
					<use xlink:href="#SVGID_39_"  overflow="visible"/>
				</clipPath>
				<g clip-path="url(#SVGID_40_)">
					<defs>
						<rect id="SVGID_41_" x="1840" y="1086.8" width="173" height="279.2"/>
					</defs>
					<clipPath id="SVGID_42_">
						<use xlink:href="#SVGID_41_"  overflow="visible"/>
					</clipPath>
					<g clip-path="url(#SVGID_42_)">
						
							<image overflow="visible" width="170" height="273" xlink:href="E8ADC8BD.png"  transform="matrix(1.0177 0 0 1.0226 1839.9679 1086.7604)">
						</image>
					</g>
				</g>
			</g>
		</g>
		<path clip-path="url(#SVGID_26_)" fill="#9BC6EE" d="M1305.5,808.6c-8.7-33.6,0-64.3,16-90.6c12.2-19.6,38.8-22.8,62.5-28.5
			c-102.1,3.8-102.7,85.4-67.1,230.1c16.1,65.6,12.2,175.3,3,276.6c13.9-32.6,20.7-68.4,26.3-104.2
			C1359.3,994.2,1327.3,905.1,1305.5,808.6"/>
		<path clip-path="url(#SVGID_26_)" fill="#DCFFFE" d="M1809.4,692.2c-25.3-14.5-313.6-4.2-420.6-2.8c-1.6,0-3.3,0.1-4.9,0.1
			c-23.7,5.7-50.3,8.8-62.5,28.5c-16,26.3-24.7,57-16,90.6c21.8,96.4,53.8,185.5,40.7,283.4c-5.6,35.8-12.5,71.5-26.3,104.2
			c-4.8,53-11.1,103.6-16.8,144.5c29,0.8,58.2,0.2,86.8-1.8c104.7-8.8,200.6-45.3,295.2-90.6c32-14.6,65.4-27.8,87.2-58.4
			c14.4-22.9,27-45.8,37.8-69.2c-11.1-118.8-32.4-237.7-39.7-299.1C1751.9,668.2,1834.7,706.7,1809.4,692.2"/>
		<path clip-path="url(#SVGID_26_)" fill="#DCFFFE" d="M1772.2,1190c-21.8,30.7-55.3,43.8-87.2,58.4
			c-94.5,45.3-190.5,81.8-295.1,90.6c-28.5,2-57.8,2.6-86.8,1.8c-7.8,56-14.3,93.6-14.3,93.6s238.1-0.5,421.7,26.4
			c110.2,16.1,116.3-161.9,99.6-340C1799.2,1144.1,1786.6,1167,1772.2,1190"/>
		<path clip-path="url(#SVGID_26_)" fill="#AFB5BA" d="M1365.3,1019.2c0,0-12,11.1,0,11.9c12,0.8,61.7-0.6,67.4-1.8
			c5.7-1.3,15.8-7.6,5.1-8.3C1427,1020.4,1365.3,1019.2,1365.3,1019.2"/>
		<path clip-path="url(#SVGID_26_)" fill="#AFB5BA" d="M1366.3,995.6c0,0-5.8,3.8,6.2,4.6c12,0.8,358.5-3.3,364.2-4.6
			s6-9.5-4.7-10.1C1721.3,984.9,1366.3,995.6,1366.3,995.6"/>
		<path clip-path="url(#SVGID_26_)" fill="#AFB5BA" d="M1389.3,895.4c0,0-12,9.4,0,10.1c12,0.7,334.1-8.2,339.8-9.3
			c5.7-1.1,15.8-6.5,5.1-7C1723.4,888.7,1389.3,895.4,1389.3,895.4"/>
		<path clip-path="url(#SVGID_26_)" fill="#AFB5BA" d="M1362.7,924.9c0,0-1.3,7.2,0,10.1c1.3,2.9,360.7-8.6,366.4-9.7
			c5.7-1.1,15.8-6.5,5.1-7C1723.4,917.7,1362.7,924.9,1362.7,924.9"/>
		<path clip-path="url(#SVGID_26_)" fill="#AFB5BA" d="M1362.7,956.2c0,0-1.3,7.2,0,10.1c1.3,2.9,360.7-8.6,366.4-9.7
			c5.7-1.1,15.8-6.5,5.1-7C1723.4,949,1362.7,956.2,1362.7,956.2"/>
		<path clip-path="url(#SVGID_26_)" fill="#AFB5BA" d="M1344.5,834.9c0,0-12,7.5,0,8c12,0.5,368.6-7.1,374.2-8
			c5.7-0.9,15.8-5.1,5.1-5.5C1713,828.9,1344.5,834.9,1344.5,834.9"/>
		<path clip-path="url(#SVGID_26_)" fill="#AFB5BA" d="M1346.4,862.6c0,0-12,7.5,0,8c12,0.5,137.2-3.1,142.9-4
			c5.7-0.9,15.8-5.1,5.1-5.5C1483.6,860.6,1346.4,862.6,1346.4,862.6"/>
		<path clip-path="url(#SVGID_26_)" fill="#AFB5BA" d="M1407.4,781.8c0,0-1.4,11.1,0,11.9c1.4,0.8,27.1-0.2,27.8-1.5
			c0.7-1.3,1.9-7.6,0.6-8.3C1434.5,783.4,1407.4,781.8,1407.4,781.8"/>
		<path clip-path="url(#SVGID_26_)" fill="#75AFE8" d="M1414.5,746c0,0-17.4,11.1,0,11.9c17.4,0.8,89.3-1.3,97.6-2.6
			c8.2-1.3,22.9-7.6,7.3-8.3C1503.8,746.5,1414.5,746,1414.5,746"/>
		<path clip-path="url(#SVGID_26_)" fill="#9ACAEF" d="M1655.9,1390.1c0.1,0,0.2,0,0.4,0c-1.8-3.6-3.5-6.9-5.1-9.8
			c-5.3-9.5-80.9-11.9-169.6-10.9c-131.6,1.5-292,10.6-293.9,15.7c-0.8,2.1-0.9,4.9-0.2,8.6
			C1343.6,1381.6,1499.7,1387.3,1655.9,1390.1"/>
		<path clip-path="url(#SVGID_26_)" fill="#619CD1" d="M1655.9,1390.1c-156.1-2.9-312.2-8.5-468.3,3.5c0.3,1.8,0.9,3.8,1.6,6
			c1,3.1,2.5,6.6,4.5,10.6c42.6,24.9,99.1,17.1,148.2,20.8c110.5,7.3,222.5,8.8,333-1.5c1.4-0.1,2.8-0.3,4.2-0.5
			c-10.1-12.9-17-27.4-22.7-39C1656.1,1390.1,1656,1390.1,1655.9,1390.1"/>
		<path clip-path="url(#SVGID_26_)" fill="#4676B7" d="M1678.9,1429.1c-1.4,0.2-2.8,0.3-4.2,0.5c-110.5,10.2-222.5,8.8-333,1.5
			c-49.2-3.7-105.6,4.1-148.2-20.8c5.3,10.8,14,24.9,27.4,43.2c29.1,39.6,424.7,27,513.6,7.7
			C1708.7,1458.5,1691.4,1445,1678.9,1429.1"/>
		<g opacity="0.2" clip-path="url(#SVGID_26_)">
			<g>
				<defs>
					<rect id="SVGID_43_" x="1150" y="1207.4" width="621.8" height="185.1"/>
				</defs>
				<clipPath id="SVGID_44_">
					<use xlink:href="#SVGID_43_"  overflow="visible"/>
				</clipPath>
				<g clip-path="url(#SVGID_44_)">
					<defs>
						<rect id="SVGID_45_" x="1150" y="1207.4" width="621.8" height="185.1"/>
					</defs>
					<clipPath id="SVGID_46_">
						<use xlink:href="#SVGID_45_"  overflow="visible"/>
					</clipPath>
					<g clip-path="url(#SVGID_46_)">
						<defs>
							<rect id="SVGID_47_" x="1150" y="1207.4" width="621.8" height="185.1"/>
						</defs>
						<clipPath id="SVGID_48_">
							<use xlink:href="#SVGID_47_"  overflow="visible"/>
						</clipPath>
						<g clip-path="url(#SVGID_48_)">
							
								<image overflow="visible" width="611" height="181" xlink:href="E8ADC8BE.png"  transform="matrix(1.0177 0 0 1.0226 1149.98 1207.4281)">
							</image>
						</g>
					</g>
				</g>
			</g>
		</g>
		<path clip-path="url(#SVGID_26_)" fill="#9BC6EE" d="M1362.9,1110.1c0,0-5.4-34.4,21.1-32.5c26.4,1.9,305.6,0.7,323.5-6.3
			c18-7.1,38,0.8,38.7,30.9c0.7,30.1,21.6,244.6-32.4,244.4c-54-0.2-372,21.4-364.4-20.1C1357.2,1285,1365.9,1123.3,1362.9,1110.1"
			/>
	</g>
	<g>
		<defs>
			<path id="SVGID_49_" d="M1133.8,1051.7c-26.3,26.4-93.5,257.4-93.5,257.4h6.1c0,0,97.5-134.9,109.4-228.5c5.8-45,7-59.5,3.7-59.5
				C1156.1,1021.1,1147.4,1038,1133.8,1051.7"/>
		</defs>
		<clipPath id="SVGID_50_">
			<use xlink:href="#SVGID_49_"  overflow="visible"/>
		</clipPath>
		
			<linearGradient id="SVGID_51_" gradientUnits="userSpaceOnUse" x1="0.1519" y1="1596.2227" x2="1.1696" y2="1596.2227" gradientTransform="matrix(118.9576 0 0 118.9576 1022.1429 -188717.6875)">
			<stop  offset="0" style="stop-color:#FFC7D0"/>
			<stop  offset="1" style="stop-color:#E65E75"/>
		</linearGradient>
		<rect x="1040.2" y="1021.1" clip-path="url(#SVGID_50_)" fill="url(#SVGID_51_)" width="122.5" height="288"/>
	</g>
	<g>
		<defs>
			<path id="SVGID_52_" d="M1189.2,1051.7c0,0,53.5,253,50.6,269.5c-3.1,17.9,6,33.5,9.9-3.7c3.9-37.2,15.9-214.4-13.2-253.3
				c-12.3-16.5-22.7-21.2-30.6-21.2C1195.3,1043,1189.2,1051.7,1189.2,1051.7"/>
		</defs>
		<clipPath id="SVGID_53_">
			<use xlink:href="#SVGID_52_"  overflow="visible"/>
		</clipPath>
		
			<linearGradient id="SVGID_54_" gradientUnits="userSpaceOnUse" x1="3.558734e-02" y1="1596.2723" x2="1.0574" y2="1596.2723" gradientTransform="matrix(109.9307 -60.1495 60.1495 109.9307 -94839.8359 -174251.9375)">
			<stop  offset="0" style="stop-color:#FFC7D0"/>
			<stop  offset="1" style="stop-color:#E65E75"/>
		</linearGradient>
		<polygon clip-path="url(#SVGID_53_)" fill="url(#SVGID_54_)" points="1206.8,1387 1396.2,1282.9 1248,1010.6 1058.6,1114.8 		"/>
	</g>
	<g>
		<defs>
			<rect id="SVGID_55_" y="0.8" width="2381.4" height="1595.3"/>
		</defs>
		<clipPath id="SVGID_56_">
			<use xlink:href="#SVGID_55_"  overflow="visible"/>
		</clipPath>
		<path clip-path="url(#SVGID_56_)" fill="#102535" d="M1064.1,979.6c-1.5-29.2-49.4-20.5-75.6-38c-13.1-10.2-10.2-32.1,0-42.4
			c7.8-9.3,18.1-14.4,29.3-17.7c-56.6,6.6-109.3,14.4-103.7,58.4c4.1,42,118.9-7.8,106.9,79.7c-5.9,42.9,36.3,38.1,79.6,17.9
			C1079.8,1029,1064.7,1012.1,1064.1,979.6"/>
		<path clip-path="url(#SVGID_56_)" fill="#152B3F" d="M1186.1,961.2c-1.3-4.3-2.1-7.8-2.4-10.7c-33.4,15.2-66.7,27.2-92.4-11.1
			c-10.2-16.1-5.8-36.5,7.3-46.8c23.3-20.5,58.2-36.5,52.3-73.1c2.9,0,2.9-4.4,5.8-4.4c1.1-14.4-0.3-27.9-5.5-40
			c-7.3,8.5-11.3,19.7-4.2,38.2c3.6,54.7-65.3,60.7-129.1,68.1c-11.2,3.3-21.5,8.4-29.3,17.7c-10.2,10.2-13.1,32.1,0,42.4
			c26.2,17.5,74.2,8.8,75.6,38c0.6,32.5,15.7,49.5,36.5,58C1145.6,1016.6,1191.6,979.1,1186.1,961.2"/>
		<path clip-path="url(#SVGID_56_)" fill="#102538" d="M1236.5,888.8c15.3-69.9-46.2-99.5-22.6-125.6c23.7-26.1,26.9-31.3,15-43
			c-11.9-11.7-47.6-8.3-48.6,19.3c-0.6,16.3-18.4,23.3-29.1,35.7c5.2,12.1,6.6,25.6,5.5,40c-2.9,0-2.9,4.4-5.8,4.4
			c5.8,36.5-29.1,52.6-52.3,73c-13.1,10.2-17.4,30.7-7.3,46.8c25.8,38.4,59,26.4,92.4,11.1C1180.3,921.2,1222.5,952.5,1236.5,888.8"
			/>
	</g>
	<g>
		<defs>
			<path id="SVGID_57_" d="M1269.6,885.2c-3.9,1-2.9,5.6-2.9,8.4c6.2-0.5,9.4-4.1,14.4,1.3c5.6,1.9,12.9-0.5,17.9-3.6
				c3.8-2.7-2.2-7.7-4.4-9.4c-2.2-1.4-4.6-1.9-7.1-1.9C1281.5,879.9,1275.1,883.1,1269.6,885.2"/>
		</defs>
		<clipPath id="SVGID_58_">
			<use xlink:href="#SVGID_57_"  overflow="visible"/>
		</clipPath>
		
			<linearGradient id="SVGID_59_" gradientUnits="userSpaceOnUse" x1="-0.2639" y1="1595.9048" x2="0.7561" y2="1595.9048" gradientTransform="matrix(-105.8873 -42.8439 52.0021 -98.0562 -81699.6172 157379.4375)">
			<stop  offset="0" style="stop-color:#FFC7D0"/>
			<stop  offset="1" style="stop-color:#E65E75"/>
		</linearGradient>
		<polygon clip-path="url(#SVGID_58_)" fill="url(#SVGID_59_)" points="1310.1,882.9 1272.2,867.5 1258.4,893.8 1296.2,909.2 		"/>
	</g>
	<g>
		<defs>
			<rect id="SVGID_60_" y="0.8" width="2381.4" height="1595.3"/>
		</defs>
		<clipPath id="SVGID_61_">
			<use xlink:href="#SVGID_60_"  overflow="visible"/>
		</clipPath>
		<path clip-path="url(#SVGID_61_)" fill="#FFD261" d="M1273.8,881.9c-3.2-3.9-41,6.6-54.2-7.8c-0.5-0.5-0.9-1.1-1.4-1.6
			c-1.1,16.1,10.1,26,24.2,30.7c14.7-3.1,26.6-9.9,26.6-9.9S1277,885.7,1273.8,881.9"/>
		<path clip-path="url(#SVGID_61_)" fill="#FFA730" d="M1218.3,872.4c-19.6-24.1-7.2-70.5-10.8-75.4c-3.8-5-5.6-10.1-23,5.9
			c-17.3,15.9-12.3,29.2-10.6,38.8c1.8,10.1,3.2,22.6,26.2,50.3c11.3,13.6,28.2,14.1,42.5,11.1
			C1228.3,898.5,1217.2,888.5,1218.3,872.4"/>
		<path clip-path="url(#SVGID_61_)" fill="#D35470" d="M1186.8,939.9c-22.5,0.7-48.7,6.7-53.7,10.3c-5.3,3.9-29.9,59.6-45.2,113.5
			C1152.4,1050.9,1179,997,1186.8,939.9"/>
		<g opacity="0.2" clip-path="url(#SVGID_61_)">
			<g>
				<defs>
					<rect id="SVGID_62_" x="1045.2" y="897.6" width="184.2" height="208.6"/>
				</defs>
				<clipPath id="SVGID_63_">
					<use xlink:href="#SVGID_62_"  overflow="visible"/>
				</clipPath>
				<g clip-path="url(#SVGID_63_)">
					<defs>
						<rect id="SVGID_64_" x="1045.2" y="897.6" width="184.2" height="208.6"/>
					</defs>
					<clipPath id="SVGID_65_">
						<use xlink:href="#SVGID_64_"  overflow="visible"/>
					</clipPath>
					<g clip-path="url(#SVGID_65_)">
						
							<image overflow="visible" width="181" height="204" xlink:href="E8ADC8BF.png"  transform="matrix(1.0177 0 0 1.0226 1045.1587 897.5778)">
						</image>
					</g>
				</g>
			</g>
		</g>
		<path clip-path="url(#SVGID_61_)" fill="#E65E75" d="M1245.3,1095.7c-2.8-27.8-2.6-55-4.7-82c-10.6-36.4-20-63.5-20-63.5
			c-2.8-8.4-17.3-10.8-33.9-10.3c-7.8,57.1-34.4,111-98.9,123.8c-9.6,33.5-38.3,38.4-31,87.7c7.3,49.3,64.3,32.3,90.3,58.3
			c25.9,26,87.4,1.8,111-8.1c10.6-4.4,13.7-21.9,12.3-45.8C1254.6,1140.2,1246.4,1118.3,1245.3,1095.7"/>
		<g opacity="0.2" clip-path="url(#SVGID_61_)">
			<g>
				<defs>
					<rect id="SVGID_66_" x="1013.6" y="897.6" width="299.2" height="366.1"/>
				</defs>
				<clipPath id="SVGID_67_">
					<use xlink:href="#SVGID_66_"  overflow="visible"/>
				</clipPath>
				<g clip-path="url(#SVGID_67_)">
					<defs>
						<rect id="SVGID_68_" x="1013.6" y="897.6" width="299.2" height="366.1"/>
					</defs>
					<clipPath id="SVGID_69_">
						<use xlink:href="#SVGID_68_"  overflow="visible"/>
					</clipPath>
					<g clip-path="url(#SVGID_69_)">
						<defs>
							<rect id="SVGID_70_" x="1013.6" y="897.6" width="299.2" height="366.1"/>
						</defs>
						<clipPath id="SVGID_71_">
							<use xlink:href="#SVGID_70_"  overflow="visible"/>
						</clipPath>
						<g clip-path="url(#SVGID_71_)">
							
								<image overflow="visible" width="294" height="358" xlink:href="E8ADC8BA.png"  transform="matrix(1.0177 0 0 1.0226 1013.6106 897.5778)">
							</image>
						</g>
					</g>
				</g>
			</g>
		</g>
		<path clip-path="url(#SVGID_61_)" fill="#F97391" d="M1270.5,1155.8c-2.3-40-17-97.9-29.9-142.1c2.1,27,2,54.2,4.7,82
			C1246.4,1118.3,1254.6,1140.2,1270.5,1155.8"/>
		<path clip-path="url(#SVGID_61_)" fill="#F9BB32" d="M1147.9,840c-6.9-19.5,0.7-37.2,8.4-54.6c-25.8,13.6-17.3,38.7-14.6,105.7
			c2,48.8-27,64.7-29.1,77.1c-1.6,9.2,9.3,14.7,21.7,16C1174.6,946.1,1163.3,887.7,1147.9,840"/>
		<path clip-path="url(#SVGID_61_)" fill="#FFD261" d="M1230.2,962.2c-4.4-24.6-13.7-44.4-17-75.6c-3.3-31.1,16.5-20,9.9-54.9
			c-6.7-34.9-17.2-45.1-24.3-49.3c-7.1-4.2-6.5-8.3-24.4-3.6c-7.4,1.9-13.3,4.1-18.1,6.6c-7.8,17.3-15.3,35-8.4,54.6
			c15.3,47.6,26.7,106-13.5,144.2c7.5,0.8,15.5,0.1,21.7-2.2c16.6-6.1,25.8-20.1,39.9-11.3C1210.3,979.7,1234.6,986.8,1230.2,962.2"
			/>
		<g opacity="0.2" clip-path="url(#SVGID_61_)">
			<g>
				<defs>
					<rect id="SVGID_72_" x="1092" y="734" width="181.1" height="293.5"/>
				</defs>
				<clipPath id="SVGID_73_">
					<use xlink:href="#SVGID_72_"  overflow="visible"/>
				</clipPath>
				<g clip-path="url(#SVGID_73_)">
					<defs>
						<rect id="SVGID_74_" x="1092" y="734" width="181.1" height="293.5"/>
					</defs>
					<clipPath id="SVGID_75_">
						<use xlink:href="#SVGID_74_"  overflow="visible"/>
					</clipPath>
					<g clip-path="url(#SVGID_75_)">
						
							<image overflow="visible" width="178" height="287" xlink:href="E8ADC8D1.png"  transform="matrix(1.0177 0 0 1.0226 1091.972 733.9604)">
						</image>
					</g>
				</g>
			</g>
		</g>
		<path clip-path="url(#SVGID_61_)" fill="#FFA730" d="M1186.8,851.9c0,0,7.3,13.2,14.9,10.8c7.6-2.4,9.1-3.3,11.3-1.4
			c2.2,1.9,4.7,2.1,4.9,1.7c-1.5,1.2-5.3,0.5-6.6-0.7c-1.3-1.2-5.1,0.1-6.1,0.9c-1,0.8-7.9,13.1-14.1,7.5
			C1184.9,865,1181.8,852.4,1186.8,851.9"/>
		<path clip-path="url(#SVGID_61_)" fill="#FFA730" d="M1198.4,798.8c0.8-0.6,4.7-3.1,4.6-10.8c-0.1-7.6-2.7-7.7-3.3-7.9
			c-0.5-0.1-5.2,12.5-4.2,15.7C1196.7,799.1,1197.6,799.4,1198.4,798.8"/>
	</g>
	<g>
		<defs>
			<path id="SVGID_76_" d="M1198,751.3c-0.7,0-1.1,0.3-1.2,1c-0.5,3.9-5.3,13.4-19.3,33.8c-0.5,2.8,5,10.1,18.2,9.9
				c0.4-8,12.8-33.8,12.8-33.8C1208.6,757.7,1201,751.3,1198,751.3L1198,751.3"/>
		</defs>
		<clipPath id="SVGID_77_">
			<use xlink:href="#SVGID_76_"  overflow="visible"/>
		</clipPath>
		
			<linearGradient id="SVGID_78_" gradientUnits="userSpaceOnUse" x1="-0.1283" y1="1595.4388" x2="0.895" y2="1595.4388" gradientTransform="matrix(23.5929 -41.5754 -41.5754 -23.5929 67508.4375 38441.7266)">
			<stop  offset="0" style="stop-color:#FFC7D0"/>
			<stop  offset="1" style="stop-color:#E65E75"/>
		</linearGradient>
		<polygon clip-path="url(#SVGID_77_)" fill="url(#SVGID_78_)" points="1157.8,785.2 1184.7,737.6 1227.8,762.2 1200.9,809.7 		"/>
	</g>
	<g>
		<defs>
			<path id="SVGID_79_" d="M1187.3,742.9c0.3,15,16.6,37.4,31,34.3c16.1-9.4,4.1-47.7,4.1-47.7c-0.5-1.2-2.7-2.3-6.3-2.3
				C1209.9,727.2,1199.7,730.6,1187.3,742.9"/>
		</defs>
		<clipPath id="SVGID_80_">
			<use xlink:href="#SVGID_79_"  overflow="visible"/>
		</clipPath>
		
			<linearGradient id="SVGID_81_" gradientUnits="userSpaceOnUse" x1="0.399" y1="1596.4255" x2="1.4219" y2="1596.4255" gradientTransform="matrix(3.2759 46.3141 46.3141 -3.2759 -72728.4375 5951.1279)">
			<stop  offset="0" style="stop-color:#FFC7D0"/>
			<stop  offset="1" style="stop-color:#E65E75"/>
		</linearGradient>
		<polygon clip-path="url(#SVGID_80_)" fill="url(#SVGID_81_)" points="1234.2,723.9 1238.2,780 1187.6,783.6 1183.6,727.5 		"/>
	</g>
	<g>
		<defs>
			<rect id="SVGID_82_" y="0.8" width="2381.4" height="1595.3"/>
		</defs>
		<clipPath id="SVGID_83_">
			<use xlink:href="#SVGID_82_"  overflow="visible"/>
		</clipPath>
		<path clip-path="url(#SVGID_83_)" fill="#3F514E" d="M1221.9,863.8L1362.4,982c0,0,5.4-0.3,10.3-4.8c4.9-4.5,4.2-10.7,4.2-10.7
			l-141.5-113.6c0,0-4.3-4.4-8.4,0.2C1222.9,857.7,1218.4,860.8,1221.9,863.8"/>
		<path clip-path="url(#SVGID_83_)" fill="#D9FBF5" d="M1233.3,854.3c0,0-11.2-9.4-13.1-10.9c-1.9-1.5-3.8,1-3.8,1l-4.5,5.6
			c0,0-0.3,1.3,0.9,2.3c1.2,1,15.4,10.4,15.4,10.4S1235.8,856.4,1233.3,854.3"/>
		<path clip-path="url(#SVGID_83_)" fill="#0D253A" d="M1431.1,1026.9c0,0-11.5-2.1-20.3-6.4c-8.9-4.3-48.4-38.5-48.4-38.5
			l14.5-15.5c0,0,41.2,34.4,45,39.3c3.8,5,10.8,19.5,10.8,19.5L1431.1,1026.9z"/>
		<path clip-path="url(#SVGID_83_)" fill="#0D253A" d="M1244.2,859.7c0,0,4.2-14.2,26.1,3.7c21.9,17.9,90.7,75.5,90.7,75.5
			s3.4,4.3,0,5.5c-3.4,1.2-96.4-74.4-97.4-74.4s-3.2-3.4-5.8,0.6c-2.6,4-4.4,3.5-8.2,0.3C1245.8,867.7,1239.3,863.3,1244.2,859.7"/>
		<path clip-path="url(#SVGID_83_)" fill="#0D253A" d="M1432,1027.7c-0.7-0.6,0.3-2.4,1.5-1.7c1.2,0.8,4.8,5.2,3.9,5.1
			C1436.6,1031,1432.7,1028.2,1432,1027.7"/>
	</g>
	<g>
		<defs>
			<path id="SVGID_84_" d="M1285.8,916.5c-2.6,5.1-5.4,4.9-9,4.7c-1.4-0.1-3-0.1-4.8,0.1c0.5,3,0.6,8.2,4.6,8.4
				c8.2,1.3,18.7,4.6,25.2-2.4c1.8-2.4,6.6-9.3,2.3-11.3c-2.9-1.1-6.3-1.9-9.7-1.9C1291.2,914.2,1288.2,914.9,1285.8,916.5"/>
		</defs>
		<clipPath id="SVGID_85_">
			<use xlink:href="#SVGID_84_"  overflow="visible"/>
		</clipPath>
		
			<linearGradient id="SVGID_86_" gradientUnits="userSpaceOnUse" x1="-4.975031e-02" y1="1596.2567" x2="0.9719" y2="1596.2567" gradientTransform="matrix(-94.3718 71.642 71.642 94.3718 -113041.9375 -149737.625)">
			<stop  offset="0" style="stop-color:#FFC7D0"/>
			<stop  offset="1" style="stop-color:#E65E75"/>
		</linearGradient>
		<polygon clip-path="url(#SVGID_85_)" fill="url(#SVGID_86_)" points="1318,927.1 1285.3,952 1262.4,921.6 1295.1,896.7 		"/>
	</g>
	<g>
		<defs>
			<rect id="SVGID_87_" y="0.8" width="2381.4" height="1595.3"/>
		</defs>
		<clipPath id="SVGID_88_">
			<use xlink:href="#SVGID_87_"  overflow="visible"/>
		</clipPath>
		<path clip-path="url(#SVGID_88_)" fill="#FFE19F" d="M1190.1,895.6c29.8,6.5,58.4,18.8,87.9,27.6c0,0,0.3-1.9-2.1-3.5
			c-2.4-1.6-61.7-26.1-82.7-30.3c3.5-38.3-9.8-76.6-17.2-90c-1-1.7-2-3.2-3.1-4.4C1184.3,827.1,1191.5,862.1,1190.1,895.6"/>
		<path clip-path="url(#SVGID_88_)" fill="#FFD261" d="M1190.1,895.6c1.4-33.5-5.8-68.4-17.3-100.5c-7.3-8-17.2-4.2-24.6,4
			c-3.2,3.5-5,9-5.8,15.3c1.5,32.5,12.1,65.3,37.6,85.6c28.3,23.3,64.7,23.7,98.9,29.5l-0.9-6.4
			C1248.5,914.3,1219.8,902.1,1190.1,895.6"/>
		<path clip-path="url(#SVGID_88_)" fill="#FFA730" d="M1179.9,899.9c-25.5-20.3-36.2-53-37.6-85.6c-1.3,10.5,0,23.5,2,34
			c3.1,16.8,6.5,31.2,27.6,54.3c21.1,23,105.8,32,107.5,30.8c1.7-1.2-0.5-3.9-0.5-3.9C1244.6,923.6,1208.3,923.2,1179.9,899.9"/>
		<path clip-path="url(#SVGID_88_)" fill="#FFA730" d="M1187.6,801.3c0,0,5-8.3,3-14.5c-2-6.2-7-12.8-8.9-11.3c-2,1.5-6.4,4.5-6,9
			C1175.9,789,1186.6,805,1187.6,801.3"/>
		<path clip-path="url(#SVGID_88_)" fill="#102538" d="M1224,728.1c0,0-14.6,11.2-13.8,24.2c0.8,13.1-25,16.2-28.9,12.3
			c-3.9-3.9-2.3-27.8,6-33C1195.6,726.4,1222.5,725.4,1224,728.1"/>
		<path clip-path="url(#SVGID_88_)" fill="#163047" d="M1029.3,1350.3c0,0-1.7-22.3,0-31.7c1.7-9.4,10.9-13.6,10.9-13.6
			s8,4.6,10.3,4.2c2.3-0.4,13.1,9.4-0.1,11.3c5.9,2,35.9,31,26.5,31.1c-9.4,0.1-37.8-11.3-39.5-19.9c-2.9,19.2-2.5,17.8-2.9,19.2
			C1034.3,1352.4,1033.3,1354.6,1029.3,1350.3"/>
		<path clip-path="url(#SVGID_88_)" fill="#163047" d="M1238.7,1359.2c0,0-5.5-29.3-3.1-31.5c2.4-2.2,4.5-11.5,4.5-11.5
			s10-3,12.2-1.9c18.6,9-0.1,12.6-0.1,12.6s38,26.1,34.1,29c-3.9,2.9-38.7-7.5-41.2-15.9l-1,19.4
			C1244.1,1359.3,1243.1,1363.1,1238.7,1359.2"/>
		<path clip-path="url(#SVGID_88_)" fill="#102538" d="M1214.2,723.3c0,0-10.7,16.3,0,24.4c10.7,8.1-3.3,23.9-3.3,23.9
			s12.4-9,8.7-21.4c-3.7-12.5-5.8-18-0.2-22.7C1225,722.7,1215.2,721.4,1214.2,723.3"/>
		<path clip-path="url(#SVGID_88_)" fill="#BC5B74" d="M1080.1,1121.7c0,0,73.6,102.5,187.3,41.1c2.2-5.5-1-5-5.4-4.6
			c-62.8,52.9-159.9,1.1-178.7-36.5C1081.2,1117.4,1080.1,1120.9,1080.1,1121.7"/>
		<path clip-path="url(#SVGID_88_)" fill="#BC5B74" d="M1090.2,1150.5c-1.1,2.6-1.7,5.4-1.5,8.2c0,0.5,0.1,1,0.2,1.5
			c0.7-0.1,1.2-0.7,1.5-1.3c1-1.7,1.5-3.6,1.9-5.5c0.5-2.4,2.3-7.1,1.5-9.4C1092.2,1145.7,1091.1,1148.3,1090.2,1150.5"/>
		<path clip-path="url(#SVGID_88_)" fill="#BC5B74" d="M1109.5,1168.2c0,1.3,0.1,2.5,0.2,3.8c0.1,1.8,0.3,3.6,0.9,5.3
			c0.2,0.5,0.6,1.1,1.1,0.8c0.2-0.1,0.3-0.3,0.4-0.5c0.6-1.4,0.7-3,0.7-4.5c0.1-4.3-0.1-8.6-0.6-12.8c-0.1-0.9-0.2-1.7-0.6-2.5
			C1110,1158.1,1109.5,1166.6,1109.5,1168.2"/>
		<path clip-path="url(#SVGID_88_)" fill="#BC5B74" d="M1238,1191.1c0.2,1.2,0.5,2.5,0.8,3.7c0.4,1.8,0.9,3.5,1.8,5.1
			c0.3,0.5,0.8,1,1.2,0.6c0.2-0.1,0.2-0.3,0.3-0.6c0.3-1.5,0.2-3.1,0-4.6c-0.6-4.3-1.4-8.5-2.6-12.6c-0.2-0.8-0.5-1.7-1-2.4
			C1236.9,1181,1237.8,1189.5,1238,1191.1"/>
		<path clip-path="url(#SVGID_88_)" fill="#BC5B74" d="M1255.4,1186.1c-0.2,1.6-0.3,3.3-0.4,5c-0.1,2.4-0.2,4.8,0.1,7.1
			c0.1,0.7,0.5,1.5,1,1.2c0.2-0.1,0.3-0.4,0.4-0.6c0.8-1.8,1.1-3.8,1.4-5.9c0.8-5.6,1.2-11.3,1.3-16.9c0-1.1,0-2.3-0.3-3.4
			C1257.4,1172.9,1255.6,1184,1255.4,1186.1"/>
		<path clip-path="url(#SVGID_88_)" fill="#BC5B74" d="M1134,1187.1c0.1,0.9,0.6,2,1.5,2c0.1,0,0.3,0,0.4-0.1
			c0.2-0.2,0.2-0.4,0.3-0.7c0.2-2.4,0.4-4.9,0.4-7.3c0-1.3,0.8-5.7-0.4-6.6c-1.3,1.3-1.9,4.3-2.2,6.1
			C1133.7,1182.7,1133.7,1184.9,1134,1187.1"/>
		<path clip-path="url(#SVGID_88_)" fill="#BC5B74" d="M1218,1200.9c0.3,0.9,1,1.9,1.9,1.7c0.1,0,0.3-0.1,0.4-0.2
			c0.2-0.2,0.1-0.5,0.1-0.7c-0.3-2.4-0.6-4.8-1-7.2c-0.2-1.3-0.3-5.8-1.6-6.4c-1,1.5-1,4.6-1,6.4
			C1216.9,1196.6,1217.3,1198.8,1218,1200.9"/>
		<path clip-path="url(#SVGID_88_)" fill="#BC5B74" d="M1150.1,1189c-0.1,3,0.6,6.2,2.5,8.6c1.3-3,1.6-6.4,0.8-9.6
			c-0.5-2.2-1.5-4.2-1.9-6.4C1150.6,1183.8,1150.2,1186.7,1150.1,1189"/>
		<path clip-path="url(#SVGID_88_)" fill="#BC5B74" d="M1171.2,1191.9c-0.1,3,0.6,6.2,2.5,8.6c1.3-3,1.6-6.4,0.8-9.6
			c-0.5-2.2-1.5-4.2-1.9-6.4C1171.7,1186.7,1171.3,1189.5,1171.2,1191.9"/>
		<path clip-path="url(#SVGID_88_)" fill="#BC5B74" d="M1194.8,1195.4c-0.1,3,0.6,6.2,2.5,8.6c1.3-3,1.6-6.4,0.8-9.6
			c-0.5-2.2-1.5-4.2-1.9-6.4C1195.2,1190.2,1194.8,1193,1194.8,1195.4"/>
		<path clip-path="url(#SVGID_88_)" fill="#FFFFFF" d="M1194.7,804.7c2,0,2-3.1,0-3.1C1192.7,801.6,1192.7,804.7,1194.7,804.7"/>
		<path clip-path="url(#SVGID_88_)" fill="#FFFFFF" d="M1198,813.6c2,0,2-3.1,0-3.1C1196,810.5,1196,813.6,1198,813.6"/>
		<path clip-path="url(#SVGID_88_)" fill="#FFFFFF" d="M1202,823.3c2,0,2-3.1,0-3.1C1200,820.2,1200,823.3,1202,823.3"/>
		<path clip-path="url(#SVGID_88_)" fill="#4676B7" d="M1894.1,1379.8c0,0,43.5,15.9,77.2,14.3c33.7-1.6,86.7,9.8,78.3-3
			c-8.4-12.8-63.8-22-128.6-19.4C1914.8,1372,1889.8,1376.6,1894.1,1379.8"/>
		<path clip-path="url(#SVGID_88_)" fill="#AA7D0B" d="M2031,1229.4c-7.3-30.7-13.1-61.4-21.8-92c-4.1-13.6-6.9-28.5-13.1-42.4
			c-0.7,62.5,2.2,183.1,2.2,183.1h37.3C2036.1,1261.9,2035.4,1245.6,2031,1229.4"/>
		<path clip-path="url(#SVGID_88_)" fill="#F9BE13" d="M2040,1058.4c-4.7-4.9-36.8-4-41.8,0c-1.3,1-1.9,15.5-2.1,36.6
			c6.3,13.8,9.1,28.7,13.1,42.4c8.7,30.7,14.5,61.4,21.8,92c4.4,16.2,5.1,32.5,4.5,48.7h4.5C2040,1278.1,2044.7,1063.3,2040,1058.4"
			/>
		<path clip-path="url(#SVGID_88_)" fill="#1A1383" d="M2052.3,1053.6c-4.5,1.8-56.1-0.1-60.7-0.7c-4.6-0.6-8.6-13.8-5.2-17.2
			c3.4-3.4,62.5-8.7,67.3-4.4C2058.5,1035.6,2056.8,1051.8,2052.3,1053.6"/>
		<path clip-path="url(#SVGID_88_)" fill="#1A1383" d="M2027.1,1161.5L2027.1,1161.5c3.8,0,8.5-4.7,8.5-8.5l-1.6-101.5
			c0-3.8-3.1-6.9-6.9-6.9c-3.8,0-6.9,3.1-6.9,6.9l-4.4,101C2015.9,1156.3,2023.3,1161.5,2027.1,1161.5"/>
		<path clip-path="url(#SVGID_88_)" fill="#75AFE8" d="M2093.9,1040.7c-5.1,0-5.1-0.3-9.9,5.6c4.8,1.1,9.7,1.8,14.5,2.3
			C2097.7,1043.9,2096.3,1040.7,2093.9,1040.7"/>
		<path clip-path="url(#SVGID_88_)" fill="#E65E75" d="M2084,1046.3c-2.9,3.6-7.7,9.6-16.6,19.4c-0.2,0.2-0.3,0.4-0.5,0.6
			c10.7-1.4,21.6-2,32.4-1.3c0.1-5.8-0.1-11.8-0.9-16.4C2093.7,1048.1,2088.8,1047.4,2084,1046.3"/>
		<path clip-path="url(#SVGID_88_)" fill="#224884" d="M2067,1066.3c-3.4,4.1-6.7,11.6-9.8,21.4c13.7-0.2,27.2-0.9,40,2.7
			c1-4.2,1.5-6.8,1.5-7.3c0-1.8,0.6-9.7,0.7-18.2C2088.6,1064.3,2077.7,1064.9,2067,1066.3"/>
		<path clip-path="url(#SVGID_88_)" fill="#5991CE" d="M2084.3,1088.1c-8.9-0.9-18-0.5-27.2-0.4c-17.9,56.2-30,188.2-28.8,193.4
			c0.9,3.8,3,6,5.5,7.1c14.8-50.8,28.2-101.8,37.8-156.7C2074.3,1117.4,2076.4,1100.2,2084.3,1088.1"/>
		<path clip-path="url(#SVGID_88_)" fill="#215D9E" d="M2071.7,1131.5c-9.6,54.9-23,105.9-37.8,156.7c3,1.2,6.7,0.8,9.9-0.7
			c5.3-2.5,45.1-160.8,53.4-197c-4.2-1.2-8.5-1.9-12.8-2.4C2076.4,1100.2,2074.3,1117.4,2071.7,1131.5"/>
		<path clip-path="url(#SVGID_88_)" fill="#3784D1" d="M2027.1,1262c-12.6,13.4-39.2,34.9-48.7,16.6
			c-9.4-18.3-97.7-240.1-89.7-252.8c8-12.8,19.7-45.1,59.7-21.1C1971.3,1018.3,2039.7,1248.6,2027.1,1262"/>
		<path clip-path="url(#SVGID_88_)" fill="#FFFFFF" d="M1930.6,1023.6l-34.1,12.9c-0.4,0.2-0.8-0.1-1-0.5l-0.2-0.6
			c-0.2-0.4,0.1-0.9,0.5-1l34.1-12.9c0.4-0.2,0.8,0.1,1,0.5l0.2,0.6C1931.3,1023,1931,1023.4,1930.6,1023.6"/>
		<path clip-path="url(#SVGID_88_)" fill="#FFFFFF" d="M1915.5,1037.4l-16.3,6.2c-0.4,0.2-0.8-0.1-1-0.5l-0.2-0.6
			c-0.2-0.4,0.1-0.9,0.5-1l16.3-6.2c0.4-0.2,0.8,0.1,1,0.5l0.2,0.6C1916.1,1036.8,1915.9,1037.2,1915.5,1037.4"/>
		<path clip-path="url(#SVGID_88_)" fill="#FFFFFF" d="M1918.5,1045.3l-16.3,6.2c-0.4,0.1-0.8-0.1-1-0.5l-0.2-0.6
			c-0.2-0.4,0.1-0.9,0.5-1l16.3-6.2c0.4-0.2,0.8,0.1,1,0.5l0.2,0.6C1919.1,1044.7,1918.9,1045.2,1918.5,1045.3"/>
		<path clip-path="url(#SVGID_88_)" fill="#FFFFFF" d="M1921.5,1053.3l-16.3,6.2c-0.4,0.2-0.8-0.1-1-0.5l-0.2-0.6
			c-0.2-0.4,0.1-0.9,0.5-1l16.3-6.2c0.4-0.2,0.8,0.1,1,0.5l0.2,0.6C1922.1,1052.7,1921.9,1053.1,1921.5,1053.3"/>
		<path clip-path="url(#SVGID_88_)" fill="#FFFFFF" d="M1924.5,1061.2l-16.3,6.2c-0.4,0.2-0.8-0.1-1-0.5l-0.2-0.6
			c-0.2-0.4,0.1-0.9,0.5-1l16.3-6.2c0.4-0.2,0.8,0.1,1,0.5l0.2,0.6C1925.1,1060.6,1924.9,1061.1,1924.5,1061.2"/>
		<path clip-path="url(#SVGID_88_)" fill="#FFFFFF" d="M1927.4,1069.2l-16.3,6.2c-0.4,0.2-0.8-0.1-1-0.5l-0.2-0.6
			c-0.2-0.4,0.1-0.9,0.5-1l16.3-6.2c0.4-0.2,0.8,0.1,1,0.5l0.2,0.6C1928,1068.6,1927.8,1069,1927.4,1069.2"/>
		<path clip-path="url(#SVGID_88_)" fill="#FFFFFF" d="M1948.1,1070.3l-34.1,12.9c-0.4,0.2-0.8-0.1-1-0.5l-0.2-0.6
			c-0.2-0.4,0.1-0.9,0.5-1l34.1-12.9c0.4-0.2,0.8,0.1,1,0.5l0.2,0.6C1948.7,1069.7,1948.5,1070.2,1948.1,1070.3"/>
		<path clip-path="url(#SVGID_88_)" fill="#FFFFFF" d="M1933,1084.2l-16.3,6.2c-0.4,0.2-0.8-0.1-1-0.5l-0.2-0.6
			c-0.2-0.4,0.1-0.9,0.5-1l16.3-6.2c0.4-0.2,0.8,0.1,1,0.5l0.2,0.6C1933.6,1083.6,1933.4,1084,1933,1084.2"/>
		<path clip-path="url(#SVGID_88_)" fill="#FFFFFF" d="M1936,1092.1l-16.3,6.2c-0.4,0.1-0.8-0.1-1-0.5l-0.2-0.6
			c-0.2-0.4,0.1-0.9,0.5-1l16.3-6.2c0.4-0.2,0.8,0.1,1,0.5l0.2,0.6C1936.6,1091.5,1936.4,1092,1936,1092.1"/>
		<path clip-path="url(#SVGID_88_)" fill="#FFFFFF" d="M1939,1100.1l-16.3,6.2c-0.4,0.2-0.8-0.1-1-0.5l-0.2-0.6
			c-0.2-0.4,0.1-0.9,0.5-1l16.3-6.2c0.4-0.2,0.8,0.1,1,0.5l0.2,0.6C1939.6,1099.5,1939.4,1099.9,1939,1100.1"/>
		<path clip-path="url(#SVGID_88_)" fill="#FFFFFF" d="M1941.9,1108l-16.3,6.2c-0.4,0.2-0.8-0.1-1-0.5l-0.2-0.6
			c-0.2-0.4,0.1-0.9,0.5-1l16.3-6.2c0.4-0.2,0.8,0.1,1,0.5l0.2,0.6C1942.5,1107.4,1942.3,1107.9,1941.9,1108"/>
		<path clip-path="url(#SVGID_88_)" fill="#FFFFFF" d="M1944.9,1116l-16.3,6.2c-0.4,0.2-0.8-0.1-1-0.5l-0.2-0.6
			c-0.2-0.4,0.1-0.9,0.5-1l16.3-6.2c0.4-0.2,0.8,0.1,1,0.5l0.2,0.6C1945.5,1115.4,1945.3,1115.8,1944.9,1116"/>
		<path clip-path="url(#SVGID_88_)" fill="#FFFFFF" d="M1965.6,1117.1l-34.1,12.9c-0.4,0.2-0.8-0.1-1-0.5l-0.2-0.6
			c-0.2-0.4,0.1-0.9,0.5-1l34.1-12.9c0.4-0.2,0.8,0.1,1,0.5l0.2,0.6C1966.2,1116.5,1966,1117,1965.6,1117.1"/>
		<path clip-path="url(#SVGID_88_)" fill="#FFFFFF" d="M1950.5,1131l-16.3,6.2c-0.4,0.2-0.8-0.1-1-0.5l-0.2-0.6
			c-0.2-0.4,0.1-0.9,0.5-1l16.3-6.2c0.4-0.2,0.8,0.1,1,0.5l0.2,0.6C1951.1,1130.4,1950.9,1130.8,1950.5,1131"/>
		<path clip-path="url(#SVGID_88_)" fill="#FFFFFF" d="M1953.5,1138.9l-16.3,6.2c-0.4,0.2-0.8-0.1-1-0.5l-0.2-0.6
			c-0.2-0.4,0.1-0.9,0.5-1l16.3-6.2c0.4-0.2,0.8,0.1,1,0.5l0.2,0.6C1954.1,1138.3,1953.9,1138.8,1953.5,1138.9"/>
		<path clip-path="url(#SVGID_88_)" fill="#FFFFFF" d="M1956.4,1146.9l-16.3,6.2c-0.4,0.2-0.8-0.1-1-0.5l-0.2-0.6
			c-0.2-0.4,0.1-0.9,0.5-1l16.3-6.2c0.4-0.2,0.8,0.1,1,0.5l0.2,0.6C1957,1146.3,1956.8,1146.7,1956.4,1146.9"/>
		<path clip-path="url(#SVGID_88_)" fill="#FFFFFF" d="M1959.4,1154.8l-16.3,6.2c-0.4,0.2-0.8-0.1-1-0.5l-0.2-0.6
			c-0.2-0.4,0.1-0.9,0.5-1l16.3-6.2c0.4-0.2,0.8,0.1,1,0.5l0.2,0.6C1960,1154.2,1959.8,1154.7,1959.4,1154.8"/>
		<path clip-path="url(#SVGID_88_)" fill="#FFFFFF" d="M1962.4,1162.8l-16.3,6.2c-0.4,0.2-0.8-0.1-1-0.5l-0.2-0.6
			c-0.2-0.4,0.1-0.9,0.5-1l16.3-6.2c0.4-0.2,0.8,0.1,1,0.5l0.2,0.6C1963,1162.2,1962.8,1162.6,1962.4,1162.8"/>
		<path clip-path="url(#SVGID_88_)" fill="#FFFFFF" d="M1983.1,1163.9l-34.1,12.9c-0.4,0.2-0.8-0.1-1-0.5l-0.2-0.6
			c-0.2-0.4,0.1-0.9,0.5-1l34.1-12.9c0.4-0.2,0.8,0.1,1,0.5l0.2,0.6C1983.7,1163.3,1983.5,1163.8,1983.1,1163.9"/>
		<path clip-path="url(#SVGID_88_)" fill="#FFFFFF" d="M1968,1177.8l-16.3,6.2c-0.4,0.2-0.8-0.1-1-0.5l-0.2-0.6
			c-0.2-0.4,0.1-0.9,0.5-1l16.3-6.2c0.4-0.2,0.8,0.1,1,0.5l0.2,0.6C1968.6,1177.2,1968.4,1177.6,1968,1177.8"/>
		<path clip-path="url(#SVGID_88_)" fill="#FFFFFF" d="M1970.9,1185.7l-16.3,6.2c-0.4,0.1-0.8-0.1-1-0.5l-0.2-0.6
			c-0.2-0.4,0.1-0.9,0.5-1l16.3-6.2c0.4-0.2,0.8,0.1,1,0.5l0.2,0.6C1971.5,1185.1,1971.3,1185.6,1970.9,1185.7"/>
		<path clip-path="url(#SVGID_88_)" fill="#FFFFFF" d="M1973.9,1193.7l-16.3,6.2c-0.4,0.2-0.8-0.1-1-0.5l-0.2-0.6
			c-0.2-0.4,0.1-0.9,0.5-1l16.3-6.2c0.4-0.2,0.8,0.1,1,0.5l0.2,0.6C1974.5,1193.1,1974.3,1193.5,1973.9,1193.7"/>
		<path clip-path="url(#SVGID_88_)" fill="#FFFFFF" d="M1976.9,1201.6l-16.3,6.2c-0.4,0.2-0.8-0.1-1-0.5l-0.2-0.6
			c-0.2-0.4,0.1-0.9,0.5-1l16.3-6.2c0.4-0.2,0.8,0.1,1,0.5l0.2,0.6C1977.5,1201,1977.3,1201.5,1976.9,1201.6"/>
		<path clip-path="url(#SVGID_88_)" fill="#FFFFFF" d="M1979.9,1209.6l-16.3,6.2c-0.4,0.2-0.8-0.1-1-0.5l-0.2-0.6
			c-0.2-0.4,0.1-0.9,0.5-1l16.3-6.2c0.4-0.2,0.8,0.1,1,0.5l0.2,0.6C1980.5,1209,1980.3,1209.4,1979.9,1209.6"/>
		<path clip-path="url(#SVGID_88_)" fill="#FFFFFF" d="M2000.6,1210.7l-34.1,12.9c-0.4,0.2-0.8-0.1-1-0.5l-0.2-0.6
			c-0.2-0.4,0.1-0.9,0.5-1l34.1-12.9c0.4-0.2,0.8,0.1,1,0.5l0.2,0.6C2001.2,1210.1,2001,1210.6,2000.6,1210.7"/>
		<path clip-path="url(#SVGID_88_)" fill="#FFFFFF" d="M1985.4,1224.6l-16.3,6.2c-0.4,0.2-0.8-0.1-1-0.5l-0.2-0.6
			c-0.2-0.4,0.1-0.9,0.5-1l16.3-6.2c0.4-0.2,0.8,0.1,1,0.5l0.2,0.6C1986.1,1224,1985.9,1224.4,1985.4,1224.6"/>
		<path clip-path="url(#SVGID_88_)" fill="#FFFFFF" d="M1988.4,1232.5l-16.3,6.2c-0.4,0.2-0.8-0.1-1-0.5l-0.2-0.6
			c-0.2-0.4,0.1-0.9,0.5-1l16.3-6.2c0.4-0.2,0.8,0.1,1,0.5l0.2,0.6C1989,1231.9,1988.8,1232.4,1988.4,1232.5"/>
		<path clip-path="url(#SVGID_88_)" fill="#FFFFFF" d="M1991.4,1240.5l-16.3,6.2c-0.4,0.1-0.8-0.1-1-0.5l-0.2-0.6
			c-0.2-0.4,0.1-0.9,0.5-1l16.3-6.2c0.4-0.2,0.8,0.1,1,0.5l0.2,0.6C1992,1239.9,1991.8,1240.3,1991.4,1240.5"/>
		<path clip-path="url(#SVGID_88_)" fill="#FFFFFF" d="M1994.4,1248.4l-16.3,6.2c-0.4,0.2-0.8-0.1-1-0.5l-0.2-0.6
			c-0.2-0.4,0.1-0.9,0.5-1l16.3-6.2c0.4-0.2,0.8,0.1,1,0.5l0.2,0.6C1995,1247.8,1994.8,1248.3,1994.4,1248.4"/>
		<path clip-path="url(#SVGID_88_)" fill="#FFFFFF" d="M1997.3,1256.4l-16.3,6.2c-0.4,0.2-0.8-0.1-1-0.5l-0.2-0.6
			c-0.2-0.4,0.1-0.9,0.5-1l16.3-6.2c0.4-0.2,0.8,0.1,1,0.5l0.2,0.6C1997.9,1255.8,1997.7,1256.2,1997.3,1256.4"/>
		<path clip-path="url(#SVGID_88_)" fill="#152B3F" d="M1965.4,1221.1h-27.8c0,0,17.9,150.3,24.3,164.5c5,11.1,19.7,8.7,33.4,6.9
			C1979.7,1336.1,1964.9,1279.6,1965.4,1221.1"/>
		<path clip-path="url(#SVGID_88_)" fill="#75AFE8" d="M2007.9,1221.1h-42.5c-0.4,58.5,14.3,115,29.9,171.4c3.8-0.5,7.6-0.9,11.1-1
			c5.6-0.1,10.6,0.9,15.1,2c12.8-7.1,23-18.4,25.5-32.7c10.3-47.3,14.3-93.6,20.5-139.8H2007.9z"/>
		<path clip-path="url(#SVGID_88_)" fill="#87BCF1" d="M2067.5,1221.1c-6.2,46.2-10.2,92.5-20.5,139.8
			c-2.5,14.2-12.6,25.6-25.5,32.7c8.4,2,15.5,4.5,23.3,1.1c12-5.2,33.4-173.6,33.4-173.6H2067.5z"/>
		<path clip-path="url(#SVGID_88_)" fill="#FFFFFF" d="M2090.3,1236.1h-164.8c-4.4,0-8-3.6-8-8.1v-6.9c0-4.4,3.6-8.1,8-8.1h164.8
			c4.4,0,8,3.6,8,8.1v6.9C2098.3,1232.5,2094.7,1236.1,2090.3,1236.1"/>
		<path clip-path="url(#SVGID_88_)" fill="#AADAFF" d="M1427.5,1118c0,0-13.8,13.5,5.8,15.3c19.6,1.7,33.6,2.7,35.4-1.7
			c1.8-4.4,2.1-13.8-2.1-14.6C1462.5,1116.1,1428.9,1115.5,1427.5,1118"/>
		<path clip-path="url(#SVGID_88_)" fill="#AADAFF" d="M1494.4,1118c0,0-13.8,13.5,5.8,15.3c19.6,1.7,33.6,2.7,35.4-1.7
			c1.8-4.4,2.1-13.8-2.1-14.6C1529.4,1116.1,1495.8,1115.5,1494.4,1118"/>
		<path clip-path="url(#SVGID_88_)" fill="#AADAFF" d="M1554.7,1118c0,0-13.8,13.5,5.8,15.3c19.6,1.7,33.6,2.7,35.4-1.7
			c1.8-4.4,2.1-13.8-2.1-14.6C1589.7,1116.1,1556.1,1115.5,1554.7,1118"/>
		<path clip-path="url(#SVGID_88_)" fill="#AADAFF" d="M1613.3,1118c0,0-13.8,13.5,5.8,15.3c19.6,1.7,33.6,2.7,35.4-1.7
			c1.8-4.4,2.1-13.8-2.1-14.6C1648.3,1116.1,1614.7,1115.5,1613.3,1118"/>
		<path clip-path="url(#SVGID_88_)" fill="#AADAFF" d="M1668.6,1118c0,0-13.8,13.5,5.8,15.3c19.6,1.7,33.6,2.7,35.4-1.7
			c1.8-4.4,2.1-13.8-2.1-14.6C1703.5,1116.1,1670,1115.5,1668.6,1118"/>
		<path clip-path="url(#SVGID_88_)" fill="#619CD1" d="M1362.1,1309.1c0,0-6,9.5,2.9,10.4c8.8,0.8,367.1,7.3,370.7,4.2
			c3.6-3.1,1.9-4.4-4.3-4.2C1725.1,1319.7,1363.8,1304.8,1362.1,1309.1"/>
		<path clip-path="url(#SVGID_88_)" fill="#3784D1" d="M1526.8,1190.6c0,0-4,59.7,2.3,60.2c6.2,0.5,46.6-22.5,42.5-34.7
			C1567.4,1203.9,1527.6,1175.6,1526.8,1190.6"/>
		<path clip-path="url(#SVGID_88_)" fill="#3784D1" d="M1376.9,1301.4c0.2-6-0.1-7.7-1-5.2c-0.9,2.5-1.2,5.9-0.7,7.9
			C1375.6,1306,1376.8,1304.3,1376.9,1301.4"/>
		<path clip-path="url(#SVGID_88_)" fill="#3784D1" d="M1382.6,1301.4c0.2-6-0.1-7.7-1-5.2c-0.9,2.5-1.2,5.9-0.7,7.9
			C1381.3,1306,1382.5,1304.3,1382.6,1301.4"/>
		<path clip-path="url(#SVGID_88_)" fill="#3784D1" d="M1396.6,1297.9c0,0,6.9-7.2,8.6-4.9c1.7,2.2,1.6,14.5-0.9,13.1
			s-5.6-2.1-6.6-3.8C1396.6,1300.6,1396.6,1297.9,1396.6,1297.9"/>
		<path clip-path="url(#SVGID_88_)" fill="#3784D1" d="M1394.9,1297.5c0,0.1-0.2,5.6,0.6,5.4c0.8-0.2,0.8-6.1,0.4-6.1
			C1395.4,1296.9,1394.8,1296.4,1394.9,1297.5"/>
		<path clip-path="url(#SVGID_88_)" fill="#3784D1" d="M1534.4,1171.4c-28.5,0-41.4,20.9-41.4,47.2c0,10.1,2.7,19.1,7.8,26.4
			c8,11.5,21.7,18.6,39.3,18.6c18.1,0,33.5-6.3,42.4-17.5c5.1-6.5,8-14.7,8-24.3C1590.5,1195.4,1563,1171.4,1534.4,1171.4
			 M1576,1245.7c-7.8,9.1-20.1,14.7-34.6,14.7c-14.3,0-26-6-33.6-15.5c-5.7-7.2-9-16.4-9-26.4c0-23.2,17.4-40.4,42.5-40.4
			c25.1,0,43.7,19.3,43.7,42.4C1585,1230.4,1581.7,1239,1576,1245.7"/>
		<path clip-path="url(#SVGID_88_)" fill="#F7C9AA" d="M1390.7,765.5c0,11-5.9,16.9-20.7,16.9c-14.8,0-23.3-6-22.9-16.9
			c0.5-14.1,7.3-21.5,22-21.3C1383.9,744.4,1390.7,754.6,1390.7,765.5"/>
		<path clip-path="url(#SVGID_88_)" fill="#75AFE8" d="M1462.5,794c3.5-7.1-6.2-9.4-6.3-14.6c-2.6,2-3.9,5-3.9,8.5
			c0,4.3,2.1,8,6,9.7C1460.3,796.9,1461.9,795.8,1462.5,794"/>
		<path clip-path="url(#SVGID_88_)" fill="#75AFE8" d="M1465.2,777.3c-0.7,3,2.6,6.5,6,6.5c-5.6,4.7-1.1,6.9,2.5,10.6
			c1.7-1.8,2.7-4.1,2.7-6.5C1476.5,782.5,1471.5,778,1465.2,777.3"/>
		<path clip-path="url(#SVGID_88_)" fill="#3784D1" d="M1471.2,783.8c-3.4,0-6.8-3.6-6-6.5c-0.6-0.1-1.1-0.1-1.7-0.1
			c-3,0-5.4,0.8-7.2,2.2c0.1,5.2,9.8,7.6,6.3,14.6c-0.6,1.8-2.2,2.9-4.2,3.6c1.5,0.7,3.2,1,5.2,1c4.2,0,7.9-1.6,10.3-4.2
			C1470.1,790.7,1465.6,788.5,1471.2,783.8"/>
	</g>
</g>
</svg>
