<?xml version="1.0" encoding="utf-8"?>
<!-- Generator: Adobe Illustrator 21.1.0, SVG Export Plug-In . SVG Version: 6.00 Build 0)  -->
<svg version="1.1" id="Слой_1" xmlns="http://www.w3.org/2000/svg" xmlns:xlink="http://www.w3.org/1999/xlink" x="0px" y="0px"
	 viewBox="0 0 1600 1200" style="enable-background:new 0 0 1600 1200;" xml:space="preserve">
<style type="text/css">
	.st0{clip-path:url(#SVGID_2_);fill:#E9F7FF;}
	.st1{clip-path:url(#SVGID_2_);}
	.st2{clip-path:url(#SVGID_4_);fill:#AFD0F1;}
	.st3{clip-path:url(#SVGID_4_);fill:#B9D3EF;}
	.st4{clip-path:url(#SVGID_4_);fill:#9FC2EE;}
	.st5{clip-path:url(#SVGID_6_);fill:url(#SVGID_7_);}
	.st6{clip-path:url(#SVGID_9_);fill:#2D65AF;}
	.st7{clip-path:url(#SVGID_11_);fill:#80DBDA;}
	.st8{clip-path:url(#SVGID_13_);fill:url(#SVGID_14_);}
	.st9{clip-path:url(#SVGID_18_);fill:#2D65AF;}
	.st10{clip-path:url(#SVGID_20_);fill:#80DBDA;}
	.st11{clip-path:url(#SVGID_20_);fill:#4676B7;}
	.st12{clip-path:url(#SVGID_20_);fill:#75AFE8;}
	.st13{clip-path:url(#SVGID_20_);fill:#102538;}
	.st14{clip-path:url(#SVGID_20_);fill:#5093D7;}
	.st15{clip-path:url(#SVGID_20_);fill:#6197F1;}
	.st16{clip-path:url(#SVGID_20_);fill:#3784D1;}
	.st17{clip-path:url(#SVGID_20_);fill:#9BC6EE;}
	.st18{clip-path:url(#SVGID_20_);fill:#F2F2F2;}
	.st19{clip-path:url(#SVGID_20_);fill:#D6E7F7;}
	.st20{clip-path:url(#SVGID_20_);fill:#3B57B5;}
	.st21{clip-path:url(#SVGID_20_);fill:#AAACBE;}
	.st22{clip-path:url(#SVGID_20_);fill:#B4BDED;}
	.st23{clip-path:url(#SVGID_20_);fill:#AECFF1;}
	.st24{clip-path:url(#SVGID_20_);fill:#FFFFFF;}
	.st25{clip-path:url(#SVGID_20_);fill:#B5CAF6;}
	.st26{clip-path:url(#SVGID_20_);fill:#FF8B37;}
	.st27{clip-path:url(#SVGID_20_);fill:#F9B282;}
	.st28{clip-path:url(#SVGID_20_);fill:#87B6DD;}
	.st29{clip-path:url(#SVGID_20_);fill:#80DCDB;}
	.st30{clip-path:url(#SVGID_20_);fill:#A3E7E6;}
	.st31{clip-path:url(#SVGID_20_);fill:#2FA09F;}
	.st32{clip-path:url(#SVGID_20_);fill:#AADAFF;}
	.st33{clip-path:url(#SVGID_20_);fill:#C5DCEF;}
	.st34{clip-path:url(#SVGID_20_);fill:#AFD0F1;}
	.st35{opacity:0.8;clip-path:url(#SVGID_20_);}
	.st36{clip-path:url(#SVGID_22_);}
	.st37{clip-path:url(#SVGID_24_);fill:#3D5F93;}
	.st38{clip-path:url(#SVGID_26_);}
	.st39{clip-path:url(#SVGID_28_);fill:#3D5F93;}
	.st40{opacity:0.1;clip-path:url(#SVGID_20_);}
	.st41{clip-path:url(#SVGID_30_);}
	.st42{clip-path:url(#SVGID_20_);fill:#DCFFFE;}
	.st43{clip-path:url(#SVGID_20_);fill:#AFB5BA;}
	.st44{clip-path:url(#SVGID_20_);fill:#9ACAEF;}
	.st45{clip-path:url(#SVGID_20_);fill:#619CD1;}
	.st46{clip-path:url(#SVGID_34_);fill:url(#SVGID_35_);}
	.st47{clip-path:url(#SVGID_37_);fill:url(#SVGID_38_);}
	.st48{clip-path:url(#SVGID_40_);fill:#102535;}
	.st49{clip-path:url(#SVGID_40_);fill:#152B3F;}
	.st50{clip-path:url(#SVGID_40_);fill:#102538;}
	.st51{clip-path:url(#SVGID_42_);fill:url(#SVGID_43_);}
	.st52{clip-path:url(#SVGID_45_);fill:#FFD261;}
	.st53{clip-path:url(#SVGID_45_);fill:#FFA730;}
	.st54{clip-path:url(#SVGID_45_);fill:#D35470;}
	.st55{clip-path:url(#SVGID_45_);fill:#E65E75;}
	.st56{clip-path:url(#SVGID_45_);fill:#F97391;}
	.st57{clip-path:url(#SVGID_45_);fill:#F9BB32;}
	.st58{clip-path:url(#SVGID_47_);fill:url(#SVGID_48_);}
	.st59{clip-path:url(#SVGID_50_);fill:url(#SVGID_51_);}
	.st60{clip-path:url(#SVGID_53_);fill:#3F514E;}
	.st61{clip-path:url(#SVGID_53_);fill:#D9FBF5;}
	.st62{clip-path:url(#SVGID_53_);fill:#0D253A;}
	.st63{clip-path:url(#SVGID_55_);fill:url(#SVGID_56_);}
	.st64{clip-path:url(#SVGID_58_);fill:#FFE19F;}
	.st65{clip-path:url(#SVGID_58_);fill:#FFD261;}
	.st66{clip-path:url(#SVGID_58_);fill:#FFA730;}
	.st67{clip-path:url(#SVGID_58_);fill:#102538;}
	.st68{clip-path:url(#SVGID_58_);fill:#163047;}
	.st69{clip-path:url(#SVGID_58_);fill:#BC5B74;}
	.st70{clip-path:url(#SVGID_58_);fill:#FFFFFF;}
	.st71{clip-path:url(#SVGID_58_);fill:#4676B7;}
	.st72{clip-path:url(#SVGID_58_);fill:#AA7D0B;}
	.st73{clip-path:url(#SVGID_58_);fill:#F9BE13;}
	.st74{clip-path:url(#SVGID_58_);fill:#1A1383;}
	.st75{clip-path:url(#SVGID_58_);fill:#75AFE8;}
	.st76{clip-path:url(#SVGID_58_);fill:#E65E75;}
	.st77{clip-path:url(#SVGID_58_);fill:#224884;}
	.st78{clip-path:url(#SVGID_58_);fill:#5991CE;}
	.st79{clip-path:url(#SVGID_58_);fill:#215D9E;}
	.st80{clip-path:url(#SVGID_58_);fill:#3784D1;}
	.st81{clip-path:url(#SVGID_58_);fill:#152B3F;}
	.st82{clip-path:url(#SVGID_58_);fill:#87BCF1;}
	.st83{clip-path:url(#SVGID_58_);fill:#AADAFF;}
	.st84{clip-path:url(#SVGID_58_);fill:#619CD1;}
	.st85{clip-path:url(#SVGID_58_);fill:#F7C9AA;}
</style>
<g>
	<defs>
		<rect id="SVGID_1_" x="-640.8" y="-273.4" width="2381.2" height="1596"/>
	</defs>
	<clipPath id="SVGID_2_">
		<use xlink:href="#SVGID_1_"  style="overflow:visible;"/>
	</clipPath>
	<rect x="-640.8" y="-273.4" class="st0" width="2340" height="1560"/>
	<g class="st1">
		<defs>
			<rect id="SVGID_3_" x="-640.8" y="-273.4" width="2340" height="1560"/>
		</defs>
		<clipPath id="SVGID_4_">
			<use xlink:href="#SVGID_3_"  style="overflow:visible;"/>
		</clipPath>
		<path class="st2" d="M1699.2-167.1v1453.7H65C15.2,1111.1-42.6,736.9,394.7,797c5,0.7,9.9,1.3,14.8,2c13.2,1.8,26.1,3.4,38.7,4.9
			c14.2,1.7,28,3.3,41.4,4.7c17.4,1.8,34.2,3.4,50.4,4.7c15.8,1.3,30.9,2.4,45.6,3.2c1.1,0.1,2.2,0.1,3.3,0.2
			c4.7,0.3,9.3,0.5,13.8,0.7c20.8,1,40.4,1.6,59,1.7c5.4,0,10.7,0,15.9,0c7.3,0,14.4-0.1,21.3-0.3h0c3.8-0.1,7.6-0.2,11.3-0.3
			c72.1-2.6,125-12.4,164.5-27c0,0,0.1,0,0.1,0c8.7-3.2,16.8-6.7,24.2-10.3h0c1.1-0.5,2.2-1.1,3.3-1.7c0,0,0,0,0,0
			c41.7-21.3,64.2-49.1,79-78.3c1.7-3.3,3.3-6.6,4.8-10c4.1-9.2,7.6-18.4,10.9-27.5c0.6-1.8,1.3-3.6,1.9-5.4c0.3-1,0.7-2,1-3
			c2.6-7.7,5.1-15.2,7.7-22.5c0.6-1.7,1.2-3.3,1.8-5c0.4-1.1,0.8-2.2,1.2-3.3c2.6-7.1,5.5-14,8.5-20.7c1.2-2.7,2.5-5.3,3.8-7.9
			c11.7-23.9,26.2-44.5,44.4-60.4v0c9-7.9,19-14.7,29.9-20.1c5-2.5,10.3-4.7,15.8-6.7c12.7-4.5,26.6-7.4,41.8-8.5
			c4.2-0.3,8.4-0.5,12.8-0.5c17.3-0.2,36.3,1.8,57.1,6.1h0c18.4,3.8,38.2,9.6,59.6,17.3c0.3,0.1,0.7,0.2,1,0.3
			c15.6,5.3,30.7,3,45.5-5.4h0c2.2-1.2,4.3-2.6,6.5-4.1h0c8.7-6.1,17.3-14.4,25.8-24.5c1.5-1.8,3-3.6,4.5-5.6
			c20.8-26.4,40.8-63.4,60.3-106.7c0,0,0,0,0,0c7.4-16.4,14.7-33.6,21.9-51.5c0,0,0,0,0,0c8.9-22.1,17.8-45.2,26.6-68.8
			c0.6-1.6,1.2-3.3,1.8-4.9c5-13.5,10-27.2,14.9-40.9c0.2-0.6,0.4-1.1,0.6-1.7c16.1-44.8,32-90.4,47.7-133.6c2-5.5,4-10.9,6-16.3v0
			c1.8-4.8,3.6-9.6,5.3-14.3c2.4-6.4,4.8-12.7,7.1-18.9C1605.8-94.1,1651.3-184.2,1699.2-167.1"/>
		<path class="st3" d="M544.8,1283.8c3.6,0,6.8,1.3,9.7,2.8H427.6c-4.9-5.4-8.8-11.2-11.5-17.4c-60.7-139.8-277.9-37.5-262.9-129.2
			c3.2-19.7,0.1-35.3-5.6-47.9c4.3,3.4,8.6,6.9,13,10.3c1.4,1.4,7.1,4.3,7.1,4.3c27.1,50,71.4,72.9,122.9,77.1
			c64.3,5.7,130,4.3,185.7,40c21.4,14.3,35.7,40,61.4,50C534.8,1281,546.2,1278.1,544.8,1283.8"/>
		<path class="st3" d="M983.6,1286.6H797.4C859.1,1283.3,921,1281.1,983.6,1286.6"/>
		<path class="st3" d="M1455.1,1244.4c-50.9,15-109.9,29.3-173.4,42.2h-158.2c9.6-4.6,18.3-11.8,25.5-22.8
			c4.3-5.7,17.1-14.3,27.1-20c42.9-22.9,91.4-8.6,138.6-12.9c1.4-1.4,2.8-4.3,5.7-5.7c42.9-10,84.3-18.6,121.4-44.3
			c21.4-14.3,65.7,4.3,80-21.4c7.2-14.3-21.4-28.6-40-32.9c-14.3-2.9-17.1-24.3-8.6-30c7.6-6,15.5-10.7,23.6-14.6
			C1578.9,1120.7,1627.3,1193.8,1455.1,1244.4"/>
		<path class="st4" d="M1522,1159.5c-14.3,25.7-58.6,7.1-80,21.4c-37.2,25.7-78.6,34.3-121.4,44.3c-2.9,1.4-4.3,4.3-5.7,5.7
			c-47.2,4.3-95.7-10-138.6,12.9c-10,5.7-22.9,14.3-27.1,20c-7.2,11-15.9,18.2-25.5,22.8H983.6c-62.6-5.5-124.4-3.3-186.2,0H554.5
			c-2.9-1.5-6.1-2.8-9.7-2.8c1.4-5.7-10-2.8-7.1-10c-25.7-10-40-35.7-61.4-50c-55.7-35.7-121.4-34.3-185.7-40
			c-51.4-4.3-95.7-27.1-122.9-77.1c0,0-5.7-2.9-7.2-4.3c-4.4-3.4-8.7-6.9-13-10.3c-20.9-46.3-76.5-53.7,15.6-81.2
			c41.9-12.5,132.4-22.9,224.1-24.6c4.6-0.1,9.3-0.2,13.9-0.2c48-0.4,95.8,1.7,136.3,7.2c13.8,1.9,26.7,4.1,38.5,6.9
			c4.2,1,8.3,2,12.3,3.1c24,6.6,42.4,15.3,52.4,26.5c2.1,2.3,3.8,4.8,5.1,7.3c0.6,1.2,1.1,2.3,1.6,3.5v0c0.5,1.4,0.9,2.8,1.2,4.2
			c0.1,0.6,0.2,1.2,0.3,1.8c0.7,5.6-0.2,11.6-2.9,18.1c-0.7,1.8-1.6,3.6-2.6,5.4c-0.6,1.1-1.3,2.2-2,3.4c-1.9,3-4.1,6.2-6.8,9.4
			c-0.7,0.8-1.4,1.6-2.1,2.5l0,0c-4.1,4.7-8.9,9.6-14.7,14.8c-8.9,8-14.5,15.5-17.2,22.5c-6.9,17.7,4.9,32.2,29.8,43.8c0,0,0,0,0,0
			c141.9,66.1,711.1,36,700.6-66.3c-0.4-3.5-0.4-6.8,0-9.9c0.1-1.3,0.3-2.5,0.6-3.7c0.5-2.3,1.2-4.6,2.2-6.6
			c1.3-2.8,2.9-5.3,4.8-7.6c7-8.1,18.2-13.1,32-15.4c2.9-0.5,6-0.8,9.2-1.1c26.3-2,59.7,3.9,91.3,15.2c8.9,3.2,17.7,6.8,26.1,10.8
			c-8.1,3.9-16.1,8.7-23.6,14.6c-8.6,5.7-5.7,27.1,8.6,30C1500.6,1131,1529.1,1145.2,1522,1159.5"/>
	</g>
	<g class="st1">
		<defs>
			<path id="SVGID_5_" d="M627.8,240.6c-4.5,0-9.2,2-13.7,7.2c-15.1,16.9,2.5,66.7,1.8,80.8c-0.7,14.1-21.4-2.3-18.2,18.9
				c3.2,21.1,1.9,61,29.4,88.7c27.5,27.7,111.2,2.3,109.3-27.6c-1.9-29.9-20.7-11.2-35.9-24.9c-15.2-13.7,7.1-23.4-3.9-35.5
				c-11-12.1-18.4-3.4-18.4-3.4s2.2-3.4,2.4-12.6c0.2-9.2-7.8-19.5-21.8-23.7s-6.6-40.3-9.1-48.2C647,251.4,638.1,240.6,627.8,240.6
				C627.8,240.6,627.8,240.6,627.8,240.6"/>
		</defs>
		<clipPath id="SVGID_6_">
			<use xlink:href="#SVGID_5_"  style="overflow:visible;"/>
		</clipPath>
		
			<linearGradient id="SVGID_7_" gradientUnits="userSpaceOnUse" x1="-640.8443" y1="1322.5928" x2="-639.8443" y2="1322.5928" gradientTransform="matrix(157.8879 247.5902 -247.5902 157.8879 429215 -49949.5742)">
			<stop  offset="0" style="stop-color:#B6F2F0"/>
			<stop  offset="0.1298" style="stop-color:#B6F2F0"/>
			<stop  offset="0.259" style="stop-color:#90DBD9"/>
			<stop  offset="0.4025" style="stop-color:#6DC6C4"/>
			<stop  offset="0.5483" style="stop-color:#52B5B4"/>
			<stop  offset="0.6956" style="stop-color:#3EA9A8"/>
			<stop  offset="0.8451" style="stop-color:#33A2A1"/>
			<stop  offset="1" style="stop-color:#2FA09F"/>
		</linearGradient>
		<polygon class="st5" points="493.2,305.1 636,529 839.4,399.3 696.7,175.4 		"/>
	</g>
	<g class="st1">
		<defs>
			<path id="SVGID_8_" d="M628.2,241.3c-5,0-10,1.8-14.1,6.5c-15.1,16.9,2.5,66.7,1.8,80.8c-0.7,14.1-21.4-2.3-18.2,18.9
				c3.2,21.1,1.9,61,29.4,88.7c27.5,27.7,111.2,2.3,109.3-27.6c-1.9-29.9-20.7-11.2-35.9-24.9c-15.2-13.7,7.1-23.4-3.9-35.5
				c-11-12.1-18.4-3.4-18.4-3.4s2.2-3.4,2.4-12.6c0.2-9.2-7.8-19.5-21.8-23.7s-0.2-38.6-2.5-48.9C655,253.7,641.3,241.3,628.2,241.3
				C628.2,241.3,628.2,241.3,628.2,241.3"/>
		</defs>
		<clipPath id="SVGID_9_">
			<use xlink:href="#SVGID_8_"  style="overflow:visible;"/>
		</clipPath>
		<path class="st6" d="M711.4,414.6c-12.2,1.5-21.9-9.1-29.2-17.4c-7.2-8.1-13.8-16.7-19.9-25.6c-12.5-18.3-22.9-38.2-30.9-58.9
			c-4.5-11.7-8.3-23.8-11.3-36c-0.1-0.4-0.8-0.2-0.7,0.2c5.5,22.2,13.5,43.7,23.9,64c10.1,19.7,22.4,38.4,37,55.1
			c7.7,8.9,18,20.9,31.2,19.3C711.8,415.3,711.8,414.6,711.4,414.6"/>
		<path class="st6" d="M628.6,346.6c4.5,3.4,8.9,7.1,13,11c1,0.9,1.9,1.8,2.9,2.8c0.7,0.7,1.5,1.7,2.5,2.1c1,0.4,2,0,3-0.2
			c1.5-0.3,2.9-0.6,4.4-0.8c0.4-0.1,0.2-0.7-0.2-0.7c-1.2,0.2-2.5,0.5-3.7,0.7c-0.7,0.1-1.5,0.4-2.2,0.4c-1,0.1-1.6-0.4-2.3-1
			c-1.8-1.8-3.7-3.6-5.6-5.3c-3.7-3.3-7.5-6.5-11.5-9.5C628.6,345.8,628.3,346.4,628.6,346.6"/>
		<path class="st6" d="M665.8,376.1c-0.3-2.4,0.3-4.9,0.4-7.3c0.1-2.6,0.2-5.3,0-7.9c-0.2-5.1-0.9-10.1-2-15.1
			c-0.1-0.4-0.8-0.2-0.7,0.2c1.1,5,1.8,10.2,2,15.4c0.1,2.5,0.1,4.9-0.1,7.4c-0.1,2.4-0.7,4.9-0.4,7.3
			C665.2,376.5,665.8,376.5,665.8,376.1"/>
		<path class="st6" d="M649.9,381.4c4.6,1.6,9,3.6,13.2,6c1.8,1.1,3.6,2.5,5.5,3.3c2.2,0.9,4.6-0.2,6.8,0.7c0.4,0.2,0.6-0.5,0.2-0.7
			c-2.3-0.9-4.8,0.3-7.1-0.8c-2-1-3.9-2.4-5.8-3.6c-4-2.3-8.2-4.2-12.6-5.6C649.7,380.6,649.5,381.3,649.9,381.4"/>
		<path class="st6" d="M688.7,398.3c-1.4-8.4-4.6-16.4-7.7-24.3c-0.2-0.4-0.8-0.2-0.7,0.2c3.2,7.9,6.3,15.8,7.7,24.3
			C688.1,398.9,688.7,398.7,688.7,398.3"/>
		<path class="st6" d="M669.2,413.7c3.4,0.5,6.7,1.3,10,2.3c3.1,1,6.2,2.2,9.6,2.1c0.4,0,0.4-0.7,0-0.7c-3.4,0.1-6.6-1.2-9.7-2.2
			c-3.1-1-6.3-1.8-9.6-2.2C668.9,413,668.8,413.6,669.2,413.7"/>
		<path class="st6" d="M640.6,327.5c0.9-0.6,1.1-1.8,1.3-2.8c0.3-1.6,0.4-3.1,0.6-4.7c0.3-3.3,0.2-6.7,0-10c0-0.4-0.7-0.4-0.7,0
			c0.2,2.9,0.3,5.8,0.1,8.7c-0.1,1.4-0.2,2.9-0.4,4.3c-0.1,1.1-0.1,3.2-1.2,3.9C639.9,327.1,640.2,327.7,640.6,327.5"/>
	</g>
	<g class="st1">
		<defs>
			<rect id="SVGID_10_" x="-640.8" y="-273.4" width="2340" height="1560"/>
		</defs>
		<clipPath id="SVGID_11_">
			<use xlink:href="#SVGID_10_"  style="overflow:visible;"/>
		</clipPath>
		<path class="st7" d="M617.6,210.2c-2-3.9-2-17.1-6.8-18.3c-3.7-0.9-5,3.8-5.5,6.6C600.8,213.1,624.3,224.1,617.6,210.2"/>
	</g>
	<g class="st1">
		<defs>
			<path id="SVGID_12_" d="M1546.2,92.3c6,12.7,3.4,79.7-16.5,94.5c-20,14.8-26.9,35.8-21.3,50.3c5.6,14.6,10.9,18.7,10.9,18.7
				s-16.8-9.7-27.5,15.9c-10.8,25.6,30.4,28.5,13.9,59c-16.5,30.6-49.5,69.9-52.1,123.4c41.1,1,110.8-27.1,139-87.1
				c28.2-60,63.9-117,57-152.6c-3.8-19.6-12.7-16.9-21.4-14.2c-7.2,2.2-14.2,4.4-18.4-5.6c-9.2-22.2-9.3-111.8-43.1-130.3
				c-7-3.8-12.2-5.4-16.1-5.4C1535.8,58.9,1541.4,82.2,1546.2,92.3"/>
		</defs>
		<clipPath id="SVGID_13_">
			<use xlink:href="#SVGID_12_"  style="overflow:visible;"/>
		</clipPath>
		
			<linearGradient id="SVGID_14_" gradientUnits="userSpaceOnUse" x1="-640.8443" y1="1322.5928" x2="-639.8443" y2="1322.5928" gradientTransform="matrix(-151.9598 682.3311 -682.3311 -151.9598 806701.375 638133.8125)">
			<stop  offset="0" style="stop-color:#B6F2F0"/>
			<stop  offset="0.1941" style="stop-color:#B6F2F0"/>
			<stop  offset="0.3137" style="stop-color:#90DBD9"/>
			<stop  offset="0.4466" style="stop-color:#6DC6C4"/>
			<stop  offset="0.5817" style="stop-color:#52B5B4"/>
			<stop  offset="0.7181" style="stop-color:#3EA9A8"/>
			<stop  offset="0.8565" style="stop-color:#33A2A1"/>
			<stop  offset="1" style="stop-color:#2FA09F"/>
		</linearGradient>
		<polygon class="st8" points="1463.1,15.9 1369.4,436.5 1646.7,498.2 1740.4,77.7 		"/>
	</g>
	<g class="st1">
		<defs>
			<rect id="SVGID_15_" x="-640.8" y="-273.4" width="2340" height="1560"/>
		</defs>
		<clipPath id="SVGID_16_">
			<use xlink:href="#SVGID_15_"  style="overflow:visible;"/>
		</clipPath>
	</g>
	<g class="st1">
		<defs>
			<path id="SVGID_17_" d="M1546.2,92.3c6,12.7,3.4,79.7-16.5,94.5c-20,14.8-26.9,35.8-21.3,50.3c5.6,14.6,10.9,18.7,10.9,18.7
				s-16.8-9.7-27.5,15.9c-10.8,25.6,30.4,28.5,13.9,59c-16.5,30.6-59.6,84.5-45.6,133.3c14,48.8,104.2-37.1,132.4-97
				c28.2-60,63.9-117,57-152.6c-3.8-19.6-12.7-16.9-21.4-14.2c-7.2,2.2-14.2,4.4-18.4-5.6c-9.2-22.2-9.3-111.8-43.1-130.3
				c-7-3.8-12.2-5.4-16.1-5.4C1535.8,58.9,1541.4,82.2,1546.2,92.3"/>
		</defs>
		<clipPath id="SVGID_18_">
			<use xlink:href="#SVGID_17_"  style="overflow:visible;"/>
		</clipPath>
		<path class="st9" d="M1473.2,435.3c3.5-0.8,6.7-3.3,9.5-5.5c5.4-4.1,10.3-8.9,14.9-13.8c14.6-15.6,26.6-33.7,36.5-52.6
			c12.3-23.7,21.4-49.3,28.2-75.1c6.9-26.3,11.3-53.3,13.5-80.5c2.2-27.8,2.1-55.7-0.1-83.5c-0.3-3.4-0.6-6.9-0.9-10.3
			c-0.1-0.7-1.2-0.7-1.2,0c2.7,27.4,3.4,54.9,1.9,82.4c-1.6,27.3-5.3,54.4-11.6,81c-6.1,25.9-14.5,51.5-25.8,75.6
			c-9.6,20.4-21.6,39.9-36.4,56.9c-4.9,5.7-10.1,11.1-15.9,16c-3.4,2.9-7,6-11.2,7.7c-0.5,0.2-1.1,0.4-1.6,0.5
			C1472.1,434.4,1472.5,435.5,1473.2,435.3"/>
		<path class="st9" d="M1598.6,230c-4.8,7.3-9.3,14.9-13.4,22.7c-2,3.8-3.7,7.8-5.8,11.6c-0.6,1.1-1.4,1.8-2.7,2.1
			c-1.1,0.2-2.2,0.3-3.3,0.5c-2.3,0.4-4.6,0.7-6.9,1.1c-0.7,0.1-0.4,1.2,0.3,1.1c2.4-0.4,4.8-0.7,7.1-1.1c1.9-0.3,4.2-0.3,5.5-1.9
			c1.3-1.5,2.1-3.7,2.9-5.5c1-2,2-4.1,3.1-6.1c4.3-8.2,9-16.2,14-23.9C1600,230,1599,229.4,1598.6,230"/>
		<path class="st9" d="M1558,298.6c-0.9-4-3.2-7.7-4.8-11.4c-1.7-3.9-3.1-8-4.4-12.1c-2.6-8.3-4.4-16.9-5.4-25.5
			c-0.1-0.7-1.2-0.7-1.2,0c1,8.6,2.8,17.1,5.3,25.4c1.3,4.1,2.7,8.1,4.4,12.1c0.8,1.9,1.6,3.7,2.5,5.6c1,2.1,2,4.1,2.5,6.3
			C1557,299.6,1558.1,299.3,1558,298.6"/>
		<path class="st9" d="M1584.6,297.6c-6.5,5.1-12.5,10.9-17.8,17.3c-1.3,1.5-2.5,3.1-3.8,4.7c-1.3,1.7-2.5,3.5-4.4,4.6
			c-2.9,1.7-6.5,1.6-9.1,4c-0.6,0.5,0.3,1.3,0.8,0.8c2.7-2.4,6.7-2.1,9.5-4.2c1.5-1.1,2.5-2.5,3.6-3.9c1.3-1.8,2.7-3.5,4.1-5.2
			c5.3-6.3,11.3-12.1,17.8-17.3C1586,297.9,1585.1,297.1,1584.6,297.6"/>
		<path class="st9" d="M1532,351.2c-2.5-14.2-2-28.7-1.4-43.1c0-0.7-1.1-0.7-1.2,0c-0.6,14.5-1.1,29,1.4,43.4
			C1531,352.3,1532.1,351.9,1532,351.2"/>
		<path class="st9" d="M1555.2,369.5c-5.5,1.5-10.8,3.5-15.9,6c-5,2.4-10,5.2-15.7,5.8c-0.7,0.1-0.7,1.2,0,1.2
			c5.4-0.6,10.2-3,15.1-5.4c5.4-2.6,11-4.8,16.8-6.4C1556.3,370.5,1556,369.3,1555.2,369.5"/>
		<path class="st9" d="M1569.8,205.8c-2.1-0.6-3.2-3.8-4.1-5.6c-1.1-2.2-2.2-4.5-3.2-6.9c-1.9-4.5-3.4-9.1-4.7-13.9
			c-0.2-0.7-1.3-0.4-1.1,0.3c1.4,5.2,3.1,10.3,5.3,15.2c1.1,2.4,2.2,4.8,3.4,7.1c0.9,1.8,2,4.1,4.1,4.7
			C1570.3,207.1,1570.6,206,1569.8,205.8"/>
	</g>
	<g class="st1">
		<defs>
			<rect id="SVGID_19_" x="-640.8" y="-273.4" width="2340" height="1560"/>
		</defs>
		<clipPath id="SVGID_20_">
			<use xlink:href="#SVGID_19_"  style="overflow:visible;"/>
		</clipPath>
		<path class="st10" d="M1636.5,179.4c2.4-6.6,0.1-28.7,7.1-30.9c5.4-1.7,8.1,6.2,9.4,10.8C1662.3,183.5,1628.7,203,1636.5,179.4"/>
		<path class="st10" d="M1551.8,42.9c-1.6-5.7-13.6-18.1-10.1-24.1c2.7-4.6,8.3-1.4,11.3,0.7C1570.7,28.7,1558,62.9,1551.8,42.9"/>
		<path class="st11" d="M697.9,1056.8c0,13.3-89.4,24.1-199.7,24.1c-110.3,0-199.7-10.8-199.7-24.1c0-13.3,89.4-24.1,199.7-24.1
			C608.5,1032.6,697.9,1043.4,697.9,1056.8"/>
		<path class="st11" d="M1545.2,1055.1c0,16.4-207.1,29.6-462.5,29.6c-255.4,0-462.5-13.3-462.5-29.6c0-16.4,207.1-29.6,462.5-29.6
			C1338.1,1025.5,1545.2,1038.8,1545.2,1055.1"/>
		<path class="st12" d="M1074.5,1041.3c90.4,9.7,183.7,5.9,270.3-19.6c-4-3.5-9.4-5.8-13.8-5.4c-13.7,1.1-434.4,6.2-434.4,6.2v14.8
			C954.9,1029.1,1015.2,1034.7,1074.5,1041.3"/>
		<path class="st13" d="M1344.9,1021.7c-86.7,25.5-180,29.3-270.4,19.6c-59.3-6.6-119.6-12.2-177.9-4l10.7,20.7
			c0,0,395.9,10.3,433.2,2.9C1365.9,1056,1353.4,1029,1344.9,1021.7"/>
		<path class="st14" d="M1189.1,1002.4c6.6-68.8-22.3-140,5.2-204.7h-151v224.8c0,0,61.6,2.4,120.2,3.2
			C1172.6,1018.8,1181.2,1011.2,1189.1,1002.4"/>
		<path class="st15" d="M1247.2,1014.4c-97.9-19.7-24.2-216.7-24.2-216.7h-28.7c-27.5,64.6,1.4,135.9-5.2,204.7
			c-7.9,8.8-16.5,16.5-25.7,23.3C1234.4,1026.6,1300.9,1025.2,1247.2,1014.4"/>
		<path class="st16" d="M1504.1,826.7c-33.6,1.7-792.5,12.1-792.5,12.1s-42.2-559.9,0-608.8c38.7-44.8,684.5-38.6,809.8-15
			c11.3,2.1,15.5,12.8,17.6,15C1563.9,257,1561.5,823.7,1504.1,826.7"/>
		<path class="st17" d="M1497.7,819.6c-32.9,7.1-798.2,7.1-798.2,7.1s-42.2-559.9,0-608.8c42.2-48.8,802.6-26.9,827.4,0
			C1551.8,244.9,1530.7,812.6,1497.7,819.6"/>
		<path class="st11" d="M1478.1,789.4c-28.2,13.5-730.6,0-730.6,0s-37.3-494.4,0-537.6c37.3-43.1,708.7-23.8,730.6,0
			C1500,275.6,1506.3,775.9,1478.1,789.4"/>
		<path class="st18" d="M1478.3,789.5c-28,13.3-723.9,0-723.9,0s-37-488.7,0-531.3c37-42.6,702.2-23.5,723.9,0
			C1500,281.6,1506.2,776.1,1478.3,789.5"/>
		<path class="st19" d="M1432.8,770.5c-15.2,20.1-649.7,9.1-649.7,9.1s-19.3-439.4-14.9-444.8c4.4-5.4,681.7-28.9,681.7-28.9
			S1448,750.5,1432.8,770.5"/>
		<path class="st20" d="M1433.9,266.5c-16.8-2.7-654-0.5-661.6,14.2c-7.6,14.7-4.1,48.7-4.1,48.7l682.2-23.5
			C1450.4,305.8,1450.7,269.2,1433.9,266.5"/>
		<path class="st21" d="M851.9,400.8c0.1,3.7-2.7,6.8-6.3,6.9c-3.6,0.1-6.6-2.8-6.8-6.5c-0.1-3.7,2.7-6.8,6.3-6.9
			C848.8,394.1,851.8,397.1,851.9,400.8"/>
		<path class="st21" d="M852.7,424.6c0.1,3.7-2.7,6.8-6.3,6.9c-3.6,0.1-6.6-2.8-6.7-6.5c-0.1-3.7,2.7-6.8,6.3-6.9
			C849.5,418,852.5,420.9,852.7,424.6"/>
		<path class="st21" d="M854,467.9c0.1,3.6-2.7,6.7-6.3,6.8c-3.6,0.1-6.6-2.8-6.7-6.4c-0.1-3.6,2.7-6.7,6.3-6.8
			C850.9,461.4,853.9,464.2,854,467.9"/>
		<path class="st21" d="M854.7,490.9c0.1,3.6-2.7,6.6-6.3,6.7c-3.6,0.1-6.6-2.8-6.7-6.4c-0.1-3.6,2.7-6.6,6.3-6.7
			C851.6,484.3,854.6,487.2,854.7,490.9"/>
		<path class="st21" d="M855.4,513.7c0.1,3.6-2.7,6.6-6.2,6.7c-3.6,0.1-6.5-2.8-6.7-6.4c-0.1-3.6,2.7-6.6,6.2-6.7
			C852.3,507.2,855.3,510.1,855.4,513.7"/>
		<path class="st21" d="M856.1,536.4c0.1,3.6-2.7,6.5-6.2,6.6c-3.6,0.1-6.5-2.8-6.6-6.3c-0.1-3.6,2.7-6.6,6.2-6.6
			C853,529.9,856,532.8,856.1,536.4"/>
		<path class="st21" d="M856.8,558.9c0.1,3.6-2.7,6.5-6.2,6.6c-3.5,0.1-6.5-2.8-6.6-6.3c-0.1-3.6,2.7-6.5,6.2-6.6
			C853.7,552.5,856.7,555.3,856.8,558.9"/>
		<path class="st21" d="M857.5,581.3c0.1,3.5-2.7,6.5-6.2,6.5c-3.5,0.1-6.5-2.8-6.6-6.3c-0.1-3.5,2.7-6.5,6.2-6.5
			C854.4,574.9,857.4,577.8,857.5,581.3"/>
		<path class="st21" d="M858.2,603.6c0.1,3.5-2.7,6.4-6.2,6.5c-3.5,0.1-6.5-2.7-6.6-6.3c-0.1-3.5,2.6-6.4,6.2-6.5
			C855.1,597.3,858.1,600.1,858.2,603.6"/>
		<path class="st21" d="M858.9,625.8c0.1,3.5-2.7,6.4-6.2,6.4c-3.5,0.1-6.4-2.7-6.6-6.2c-0.1-3.5,2.6-6.4,6.2-6.4
			C855.8,619.5,858.8,622.3,858.9,625.8"/>
		<polygon class="st22" points="905.9,625 872.9,625.5 873,629.3 906,628.8 		"/>
		<polygon class="st22" points="905.3,602.1 872.3,602.7 872.4,606.4 905.4,605.9 		"/>
		<polygon class="st22" points="904.7,579.1 871.6,579.7 871.7,583.5 904.8,582.9 		"/>
		<polygon class="st22" points="904.2,556 870.9,556.6 871,560.4 904.3,559.8 		"/>
		<polygon class="st22" points="903.6,532.7 870.3,533.4 870.4,537.2 903.7,536.5 		"/>
		<polygon class="st22" points="903,509.2 869.6,510 869.7,513.8 903.1,513 		"/>
		<polygon class="st22" points="902.4,485.6 868.9,486.4 869,490.3 902.5,489.5 		"/>
		<path class="st23" d="M1154,372.6c-2.4,2.4-225.9,9.8-228.7,7.1c-2.8-2.7-7.3-38.1-0.9-40.5s226.8-10.3,229.9-7.7
			C1157.3,334.1,1156.4,370.2,1154,372.6"/>
		<polygon class="st22" points="901.9,461.9 868.2,462.7 868.3,466.6 901.9,465.8 		"/>
		<polygon class="st22" points="900.8,420.2 867,421.2 867.1,425.1 900.9,424.1 		"/>
		<polygon class="st22" points="900.3,397.7 866.3,398.7 866.5,402.7 900.4,401.7 		"/>
		<path class="st22" d="M912.2,357c-4-2.3-43.1,0.2-47,1.5c-3.9,1.3-2.6,4.6,0.2,5.5c2.8,0.9,44.8-1.8,47-1.5
			C914.5,362.8,916.2,359.4,912.2,357"/>
		<path class="st24" d="M1151.8,656.3l-220.5,2.9l-5.7-265.1c0,0,224.1-14.9,228.3-6.9C1158,395.3,1151.8,656.3,1151.8,656.3"/>
		<path class="st22" d="M1134.3,447c-3.5,3.9-197.9,5.2-197.9,5.2l-0.2-10.1c0,0,192.9-8.6,198.2-5.3S1137.8,443.1,1134.3,447"/>
		<path class="st24" d="M1076.9,310.7c-8,1.9-212.4,10.6-220.3,7.7c-7.9-2.9-7.2-15.1-0.5-18c6.6-2.9,214.8-13,220.8-8
			C1082.8,297.4,1084.9,308.8,1076.9,310.7"/>
		<path class="st25" d="M847.3,318.4c-4.8,2-14.5,1.8-16,0.4c-1.5-1.3-5-13.5,0.1-16.4c5.1-2.9,11.5-2.9,14.7-0.8
			C849.3,303.8,852.1,316.5,847.3,318.4"/>
		<path class="st24" d="M1357.9,296.6c0,0-33.6,2.3-37.6,1.3c-4.1-1-3.1-5.8,0.2-7.1c3.3-1.3,35.9-1.3,37.7-1.3
			C1359.9,289.4,1364.2,294.3,1357.9,296.6"/>
		<path class="st24" d="M1312,298.2c-2.6,1.3-35.8,2.9-37.4,1.3c-1.6-1.6-1.5-6.4,0.2-7.1c1.6-0.7,36.2-2.8,37.5-1.3
			C1313.5,292.5,1314.6,296.9,1312,298.2"/>
		<path class="st26" d="M1391.9,289.6c0.9,5.7-6.1,11.6-11.5,11.8c-5.4,0.2-11.1-4.8-11.2-10.5c0-5.6,9.4-10.5,12.9-10.5
			C1385.5,280.5,1391,283.9,1391.9,289.6"/>
		<path class="st26" d="M855.3,359c1.3,9.7-8.8,19.5-16.6,19.9c-7.8,0.3-16-8.1-16.1-17.7c-0.1-9.5,13.6-17.6,18.6-17.7
			C846.1,343.5,854,349.3,855.3,359"/>
		<path class="st27" d="M963.4,357.8c1.1,7.8-7.1,15.8-13.4,16c-6.3,0.3-12.9-6.6-13-14.2c-0.1-7.7,11-14.2,15-14.2
			C956.1,345.4,962.4,350,963.4,357.8"/>
		<path class="st28" d="M1429,307.9l-134.9,4.6c0,0-17.7,357.5-9.2,362.9c8.5,5.4,117.7,13.1,128.5-1.5
			C1424.2,659.2,1429,307.9,1429,307.9"/>
		<path class="st20" d="M963.5,417.5c0.1,8.3-6.4,15.3-14.6,15.5c-8.2,0.2-14.9-6.3-15.1-14.6c-0.2-8.3,6.3-15.3,14.5-15.5
			C956.6,402.6,963.4,409.1,963.5,417.5"/>
		<path class="st23" d="M1229.1,410.8c-2.3,3.3-56.6,6-60.3,1.7c-3.7-4.3-1.7-76.8,0.8-80c2.5-3.2,58.5-6.1,60.9-2
			C1232.9,334.6,1231.4,407.6,1229.1,410.8"/>
		<path class="st23" d="M1227.4,504.9c-3.4,2.9-58.3,3.6-59.5,1.3c-1.2-2.3,0.8-78,0.8-78s59.5-3.8,60.1-1.6
			C1229.4,428.7,1230.9,502,1227.4,504.9"/>
		<path class="st23" d="M1225.8,596.7c-4.3,3.7-56.9,4-58.8,1s-1.6-74,0.7-76.2c2.4-2.2,57.1-5.4,59.4-1.3
			C1229.4,524.3,1230.1,593,1225.8,596.7"/>
		<path class="st29" d="M1185.9,358.7c0.4-0.6,0.8-1.3,1.4-1.8c0.6-0.5,1.4-0.7,2.1-0.4c0.4,0.2,0.7,0.5,1,0.8
			c3.7,4.2,11.5,10.8,10.3,13.4c-1.2,2.5-7.7-0.2-11.5-0.4c-2.3-0.1-9.1,0.7-10.5-0.9C1180.7,365.8,1183.7,362.4,1185.9,358.7"/>
		<path class="st30" d="M1195.6,362.7c25.9-10.7,23.3,10.1,9.7,10.4C1191.6,373.3,1195.6,364.3,1195.6,362.7"/>
		<path class="st31" d="M1188.3,383.6c0.3,1,0.5,2.1-0.3,2.8c12.2-0.8,22.5,5.2,17.5-11.8C1199.1,377.3,1182.8,371.4,1188.3,383.6"
			/>
		<path class="st29" d="M1187.5,455.2c0.4-0.6,0.8-1.3,1.4-1.8c0.6-0.5,1.4-0.7,2.1-0.4c0.4,0.2,0.7,0.5,1,0.8
			c3.7,4.2,11.5,10.8,10.3,13.4c-1.2,2.5-7.7-0.2-11.5-0.4c-2.3-0.1-9.1,0.7-10.5-0.9C1182.3,462.2,1185.3,458.9,1187.5,455.2"/>
		<path class="st30" d="M1197.2,459.1c25.9-10.7,23.3,10.1,9.7,10.4C1193.2,469.7,1197.2,460.7,1197.2,459.1"/>
		<path class="st31" d="M1189.9,480c0.3,1,0.5,2.1-0.3,2.8c12.2-0.8,22.5,5.2,17.5-11.8C1200.7,473.7,1184.4,467.8,1189.9,480"/>
		<path class="st29" d="M1186.3,542.6c0.4-0.6,0.8-1.3,1.4-1.8c0.6-0.5,1.4-0.7,2.1-0.4c0.4,0.2,0.7,0.5,1,0.8
			c3.7,4.2,11.5,10.8,10.3,13.4c-1.2,2.5-7.7-0.2-11.5-0.4c-2.3-0.1-9.1,0.7-10.5-0.9C1181,549.6,1184,546.3,1186.3,542.6"/>
		<path class="st30" d="M1196,546.5c25.9-10.7,23.3,10.1,9.7,10.4C1192,557.1,1196,548.1,1196,546.5"/>
		<path class="st31" d="M1188.6,567.4c0.3,0.9,0.5,2.1-0.3,2.8c12.2-0.8,22.5,5.2,17.5-11.8C1199.5,561.1,1183.2,555.2,1188.6,567.4
			"/>
		<path class="st32" d="M1336.9,556.6c0.6-0.9,1.1-1.9,2-2.5c0.8-0.7,2-1,3-0.6c0.6,0.3,1,0.7,1.4,1.2c5.3,6.1,16.5,15.5,14.7,19.1
			c-1.7,3.6-11-0.3-16.5-0.5c-3.2-0.1-13.1,1-15.1-1.3C1329.4,566.6,1333.7,561.9,1336.9,556.6"/>
		<path class="st33" d="M1350.8,562.2c37.1-15.4,33.4,14.5,13.8,14.8C1345,577.4,1350.8,564.5,1350.8,562.2"/>
		<path class="st34" d="M1340.3,592.2c0.4,1.4,0.7,3.1-0.4,4c17.5-1.2,32.2,7.5,25-16.9C1355.8,583.1,1332.5,574.6,1340.3,592.2"/>
		<path class="st18" d="M1306.9,331.9c0,0-5.8,4.8,0.7,4.4c6.4-0.3,92.7,3.1,93.4,0c0.7-3.1-4.8-1.6-7.1-2.9
			C1391.4,332.3,1310.3,329.7,1306.9,331.9"/>
		<path class="st18" d="M1306.4,362.6c0,0-4.5,5.9,0.5,5.5c5-0.4,72.5,3.8,73.1,0c0.5-3.8-3.7-2-5.6-3.6
			C1372.5,363,1309,359.7,1306.4,362.6"/>
		<path class="st18" d="M1306.9,392.7c0,0-5.8,4.8,0.7,4.4c6.4-0.3,92.7,3.1,93.4,0c0.7-3.1-4.8-1.6-7.1-2.9
			C1391.4,393.1,1310.3,390.5,1306.9,392.7"/>
		<path class="st18" d="M1305.9,422.9c0,0-3.3,3.5,0.4,3.2c3.7-0.2,52.5,2.2,52.9,0c0.4-2.2-2.7-1.2-4-2.1
			C1353.8,423.1,1307.8,421.2,1305.9,422.9"/>
		<path class="st18" d="M1305.9,453.5c0,0-3.3,4.6,0.4,4.3c3.7-0.3,52.5,3,52.9,0c0.4-3-2.7-1.6-4-2.8
			C1353.8,453.8,1307.8,451.3,1305.9,453.5"/>
		<path class="st18" d="M1306.9,483.9c0,0-5.8,4.8,0.7,4.4c6.4-0.3,92.7,3.1,93.4,0c0.7-3.1-4.8-1.6-7.1-2.9
			C1391.4,484.2,1310.3,481.6,1306.9,483.9"/>
		<path class="st18" d="M1305.9,514c0,0-3.3,3.5,0.4,3.3c3.7-0.3,52.5,2.3,52.9,0c0.4-2.3-2.7-1.2-4-2.1
			C1353.8,514.3,1307.8,512.4,1305.9,514"/>
		<g class="st35">
			<g>
				<defs>
					<rect id="SVGID_21_" x="1064.7" y="407.3" width="132.3" height="418.5"/>
				</defs>
				<clipPath id="SVGID_22_">
					<use xlink:href="#SVGID_21_"  style="overflow:visible;"/>
				</clipPath>
				<g class="st36">
					<defs>
						<rect id="SVGID_23_" x="1064.7" y="407.3" width="132.3" height="418.5"/>
					</defs>
					<clipPath id="SVGID_24_">
						<use xlink:href="#SVGID_23_"  style="overflow:visible;"/>
					</clipPath>
					<path class="st37" d="M1139.8,407.3c0,0-58,70-5.5,172.5c52.5,102.5,62.7,245.4,62.7,245.4l-104.3,0.6c0,0-39.2-370.8-24.8-389
						C1082.2,418.6,1139.8,407.3,1139.8,407.3"/>
				</g>
			</g>
		</g>
		<g class="st35">
			<g>
				<defs>
					<rect id="SVGID_25_" x="1082.2" y="825.4" width="97.3" height="200.1"/>
				</defs>
				<clipPath id="SVGID_26_">
					<use xlink:href="#SVGID_25_"  style="overflow:visible;"/>
				</clipPath>
				<g class="st38">
					<defs>
						<rect id="SVGID_27_" x="1082.2" y="825.4" width="97.3" height="200.1"/>
					</defs>
					<clipPath id="SVGID_28_">
						<use xlink:href="#SVGID_27_"  style="overflow:visible;"/>
					</clipPath>
					<path class="st39" d="M1153.9,1025.5c0,0,39.2-77.4,20.5-200.1l-67.6-0.1l-24.7,198.5L1153.9,1025.5z"/>
				</g>
			</g>
		</g>
		<g class="st40">
			<g>
				<defs>
					<rect id="SVGID_29_" x="1167.2" y="788.6" width="170" height="273"/>
				</defs>
				<clipPath id="SVGID_30_">
					<use xlink:href="#SVGID_29_"  style="overflow:visible;"/>
				</clipPath>
				<g class="st41">
					<defs>
						<rect id="SVGID_31_" x="1167.2" y="788.6" width="170" height="273"/>
					</defs>
					<clipPath id="SVGID_32_">
						<use xlink:href="#SVGID_31_"  style="overflow:visible;"/>
					</clipPath>
					<g style="clip-path:url(#SVGID_32_);">
						
							<image style="overflow:visible;" width="170" height="273" xlink:href="9348E6AA.png"  transform="matrix(1 0 0 1 1167.1558 788.5928)">
						</image>
					</g>
				</g>
			</g>
		</g>
		<path class="st17" d="M641.9,516.6c-8.6-32.9,0-62.9,15.7-88.6c12-19.2,38.1-22.3,61.4-27.9c-100.3,3.7-100.9,83.6-66,225
			c15.8,64.2,12,171.4,2.9,270.4c13.6-31.9,20.3-66.9,25.9-101.9C694.8,698.1,663.4,610.9,641.9,516.6"/>
		<path class="st42" d="M1137.1,402.8c-24.9-14.2-308.2-4.1-413.3-2.7c-1.6,0-3.2,0.1-4.8,0.1c-23.3,5.6-49.4,8.6-61.4,27.9
			c-15.7,25.7-24.3,55.7-15.7,88.6c21.4,94.3,52.9,181.4,40,277.2c-5.5,35-12.2,70-25.9,101.9c-4.8,51.8-10.9,101.4-16.5,141.3
			c28.5,0.8,57.2,0.2,85.2-1.8c102.9-8.6,197.2-44.3,290-88.6c31.4-14.3,64.3-27.1,85.7-57.1c14.2-22.4,26.6-44.8,37.1-67.6
			c-10.9-116.2-31.9-232.5-39.1-292.5C1080.6,379.3,1162,417,1137.1,402.8"/>
		<path class="st42" d="M1100.5,889.5c-21.4,30-54.3,42.9-85.7,57.1c-92.9,44.3-187.2,80-290,88.6c-28,2-56.8,2.6-85.2,1.8
			c-7.6,54.8-14.1,91.6-14.1,91.6s233.9-0.5,414.4,25.8c108.2,15.8,114.2-158.3,97.8-332.5C1127.1,844.7,1114.7,867.1,1100.5,889.5"
			/>
		<path class="st43" d="M700.8,722.6c0,0-11.8,10.9,0,11.6c11.8,0.8,60.6-0.5,66.2-1.8c5.6-1.2,15.5-7.5,5-8.1
			C761.4,723.7,700.8,722.6,700.8,722.6"/>
		<path class="st43" d="M701.8,699.5c0,0-5.7,3.7,6.1,4.5c11.8,0.8,352.3-3.2,357.9-4.5c5.6-1.2,5.9-9.2-4.7-9.9
			C1050.5,689,701.8,699.5,701.8,699.5"/>
		<path class="st43" d="M724.3,601.5c0,0-11.8,9.2,0,9.9c11.8,0.7,328.3-8.1,333.9-9.1c5.6-1.1,15.5-6.3,5-6.9
			C1052.6,594.9,724.3,601.5,724.3,601.5"/>
		<path class="st43" d="M698.1,630.3c0,0-1.3,7.1,0,9.9c1.3,2.8,354.5-8.4,360.1-9.5c5.6-1.1,15.5-6.3,5-6.9
			C1052.6,623.3,698.1,630.3,698.1,630.3"/>
		<path class="st43" d="M698.1,660.9c0,0-1.3,7.1,0,9.9c1.3,2.8,354.5-8.4,360.1-9.5c5.6-1.1,15.5-6.3,5-6.9
			C1052.6,653.9,698.1,660.9,698.1,660.9"/>
		<path class="st43" d="M680.3,542.3c0,0-11.8,7.3,0,7.8c11.8,0.5,362.1-7,367.7-7.8c5.6-0.8,15.5-5,5-5.4
			C1042.4,536.5,680.3,542.3,680.3,542.3"/>
		<path class="st43" d="M682.1,569.4c0,0-11.8,7.3,0,7.8c11.8,0.5,134.8-3.1,140.4-3.9c5.6-0.8,15.5-5,5-5.4
			C817,567.5,682.1,569.4,682.1,569.4"/>
		<path class="st43" d="M742.1,490.4c0,0-1.4,10.9,0,11.6c1.4,0.8,26.6-0.2,27.3-1.4c0.7-1.2,1.8-7.5,0.6-8.1
			C768.7,491.9,742.1,490.4,742.1,490.4"/>
		<path class="st12" d="M749.1,455.4c0,0-17.1,10.9,0,11.6c17.1,0.8,87.8-1.3,95.9-2.5c8.1-1.2,22.5-7.5,7.2-8.1
			C836.8,455.8,749.1,455.4,749.1,455.4"/>
		<path class="st44" d="M986.2,1085.2c0.1,0,0.2,0,0.3,0c-1.8-3.5-3.4-6.8-5-9.6c-5.2-9.3-79.5-11.7-166.6-10.7
			c-129.3,1.5-287,10.4-288.8,15.3c-0.7,2-0.8,4.8-0.2,8.4C679.4,1076.9,832.8,1082.4,986.2,1085.2"/>
		<path class="st45" d="M986.2,1085.2c-153.4-2.8-306.8-8.3-460.2,3.4c0.3,1.8,0.8,3.7,1.6,5.9c1,3,2.5,6.5,4.4,10.4
			c41.9,24.3,97.3,16.7,145.7,20.3c108.6,7.1,218.6,8.6,327.2-1.4c1.4-0.1,2.7-0.3,4.1-0.4c-9.9-12.6-16.7-26.8-22.3-38.1
			C986.5,1085.3,986.4,1085.2,986.2,1085.2"/>
		<path class="st11" d="M1008.9,1123.4c-1.4,0.1-2.8,0.3-4.1,0.4c-108.6,10-218.6,8.6-327.2,1.4c-48.3-3.6-103.8,4-145.7-20.3
			c5.2,10.5,13.8,24.4,26.9,42.2c28.6,38.7,417.3,26.4,504.7,7.5C1038.2,1152.1,1021.2,1138.9,1008.9,1123.4"/>
		<path class="st17" d="M698.4,811.4c0,0-5.3-33.6,20.7-31.8c26,1.8,300.3,0.7,317.9-6.2c17.7-6.9,37.3,0.8,38,30.2
			c0.7,29.4,21.3,239.2-31.8,239c-53.1-0.2-365.6,20.9-358-19.6C692.8,982.4,701.3,824.4,698.4,811.4"/>
	</g>
	<g class="st1">
		<defs>
			<path id="SVGID_33_" d="M473.2,754.3c-25.8,25.8-91.9,251.7-91.9,251.7h6c0,0,95.8-131.9,107.5-223.5c5.7-44,6.8-58.2,3.7-58.2
				C495.1,724.4,486.6,740.9,473.2,754.3"/>
		</defs>
		<clipPath id="SVGID_34_">
			<use xlink:href="#SVGID_33_"  style="overflow:visible;"/>
		</clipPath>
		
			<linearGradient id="SVGID_35_" gradientUnits="userSpaceOnUse" x1="-640.8443" y1="1322.5928" x2="-639.8443" y2="1322.5928" gradientTransform="matrix(118.9576 0 0 118.9576 76614.5938 -156467.2344)">
			<stop  offset="0" style="stop-color:#FFC7D0"/>
			<stop  offset="1" style="stop-color:#E65E75"/>
		</linearGradient>
		<rect x="381.3" y="724.4" class="st46" width="120.4" height="281.7"/>
	</g>
	<g class="st1">
		<defs>
			<path id="SVGID_36_" d="M527.7,754.3c0,0,52.6,247.4,49.8,263.5c-3.1,17.5,5.9,32.8,9.7-3.6c3.8-36.4,15.6-209.6-13-247.7
				c-12.1-16.1-22.3-20.8-30-20.8C533.7,745.8,527.7,754.3,527.7,754.3"/>
		</defs>
		<clipPath id="SVGID_37_">
			<use xlink:href="#SVGID_36_"  style="overflow:visible;"/>
		</clipPath>
		
			<linearGradient id="SVGID_38_" gradientUnits="userSpaceOnUse" x1="-640.8443" y1="1322.5928" x2="-639.8443" y2="1322.5928" gradientTransform="matrix(109.9307 -60.1495 60.1495 109.9307 -8586.8994 -183015.9688)">
			<stop  offset="0" style="stop-color:#FFC7D0"/>
			<stop  offset="1" style="stop-color:#E65E75"/>
		</linearGradient>
		<polygon class="st47" points="545,1082.2 731.1,980.4 585.5,714.2 399.3,816 		"/>
	</g>
	<g class="st1">
		<defs>
			<rect id="SVGID_39_" x="-640.8" y="-273.4" width="2340" height="1560"/>
		</defs>
		<clipPath id="SVGID_40_">
			<use xlink:href="#SVGID_39_"  style="overflow:visible;"/>
		</clipPath>
		<path class="st48" d="M404.8,683.8c-1.4-28.6-48.6-20-74.3-37.1c-12.9-10-10-31.4,0-41.4c7.7-9.1,17.8-14.1,28.8-17.3
			c-55.7,6.4-107.4,14-101.9,57.1c4.1,41.1,116.8-7.7,105,77.9c-5.8,42,35.7,37.3,78.2,17.5C420.2,732.1,405.4,715.6,404.8,683.8"/>
		<path class="st49" d="M524.6,665.8c-1.3-4.2-2.1-7.6-2.4-10.5c-32.8,14.9-65.5,26.6-90.8-10.9c-10-15.7-5.7-35.7,7.1-45.7
			c22.9-20,57.1-35.7,51.4-71.4c2.9,0,2.9-4.3,5.7-4.3c1.1-14.1-0.3-27.3-5.4-39.1c-7.2,8.4-11.1,19.3-4.1,37.4
			c3.6,53.5-64.2,59.3-126.9,66.6c-11,3.2-21.1,8.2-28.8,17.3c-10,10-12.9,31.4,0,41.4c25.7,17.1,72.9,8.6,74.3,37.1
			c0.6,31.8,15.4,48.4,35.9,56.7C484.8,720,530,683.3,524.6,665.8"/>
		<path class="st50" d="M574.1,595c15.1-68.4-45.4-97.3-22.2-122.8c23.3-25.6,26.4-30.6,14.7-42.1c-11.7-11.4-46.8-8.1-47.8,18.8
			c-0.6,16-18.1,22.7-28.6,35c5.1,11.8,6.5,25.1,5.4,39.1c-2.9,0-2.9,4.3-5.7,4.3c5.7,35.7-28.6,51.4-51.4,71.4
			c-12.9,10-17.1,30-7.1,45.7c25.3,37.5,58,25.8,90.8,10.9C518.9,626.6,560.4,657.3,574.1,595"/>
	</g>
	<g class="st1">
		<defs>
			<path id="SVGID_41_" d="M606.7,591.5c-3.8,1-2.9,5.5-2.8,8.2c6.1-0.5,9.2-4,14.1,1.3c5.5,1.9,12.7-0.5,17.6-3.5
				c3.8-2.6-2.2-7.5-4.3-9.2c-2.2-1.4-4.5-1.9-7-1.9C618.4,586.4,612.1,589.5,606.7,591.5"/>
		</defs>
		<clipPath id="SVGID_42_">
			<use xlink:href="#SVGID_41_"  style="overflow:visible;"/>
		</clipPath>
		
			<linearGradient id="SVGID_43_" gradientUnits="userSpaceOnUse" x1="-640.8443" y1="1322.5928" x2="-639.8443" y2="1322.5928" gradientTransform="matrix(-105.8873 -42.8439 52.0021 -98.0562 -135980 102840.4531)">
			<stop  offset="0" style="stop-color:#FFC7D0"/>
			<stop  offset="1" style="stop-color:#E65E75"/>
		</linearGradient>
		<polygon class="st51" points="646.5,589.3 609.3,574.2 595.6,599.9 632.9,615 		"/>
	</g>
	<g class="st1">
		<defs>
			<rect id="SVGID_44_" x="-640.8" y="-273.4" width="2340" height="1560"/>
		</defs>
		<clipPath id="SVGID_45_">
			<use xlink:href="#SVGID_44_"  style="overflow:visible;"/>
		</clipPath>
		<path class="st52" d="M610.8,588.2c-3.1-3.8-40.2,6.5-53.2-7.6c-0.5-0.5-0.9-1.1-1.4-1.6c-1.1,15.7,9.9,25.5,23.8,30
			c14.4-3,26.1-9.7,26.1-9.7S614,592,610.8,588.2"/>
		<path class="st53" d="M556.2,579c-19.3-23.6-7-68.9-10.6-73.7c-3.7-4.9-5.5-9.8-22.6,5.7c-17,15.6-12.1,28.6-10.5,37.9
			c1.7,9.9,3.1,22.1,25.7,49.2c11.1,13.3,27.7,13.8,41.7,10.9C566.2,604.5,555.2,594.7,556.2,579"/>
		<path class="st54" d="M525.3,645c-22.1,0.6-47.9,6.5-52.7,10.1c-5.2,3.8-29.4,58.3-44.5,111C491.5,753.6,517.7,700.9,525.3,645"/>
		<path class="st55" d="M582.9,797.3c-2.7-27.2-2.6-53.8-4.6-80.2c-10.4-35.6-19.6-62.1-19.6-62.1c-2.7-8.2-17-10.5-33.3-10.1
			c-7.6,55.8-33.8,108.5-97.2,121c-9.4,32.8-37.6,37.6-30.5,85.8c7.1,48.2,63.2,31.5,88.7,57c25.5,25.5,85.8,1.8,109.1-8
			c10.4-4.3,13.4-21.5,12.1-44.8C592,840.8,583.9,819.5,582.9,797.3"/>
		<path class="st56" d="M607.6,856.1c-2.2-39.1-16.7-95.7-29.4-138.9c2.1,26.4,1.9,53,4.6,80.2C583.9,819.5,592,840.8,607.6,856.1"
			/>
		<path class="st57" d="M487.1,547.3c-6.7-19.1,0.6-36.4,8.3-53.4c-25.4,13.3-17,37.8-14.3,103.4c1.9,47.7-26.5,63.3-28.6,75.4
			c-1.5,9,9.2,14.4,21.4,15.7C513.3,651,502.2,593.9,487.1,547.3"/>
		<path class="st52" d="M568,666.8c-4.3-24-13.4-43.4-16.7-73.9c-3.2-30.5,16.2-19.6,9.7-53.7c-6.5-34.1-16.9-44.1-23.8-48.2
			c-6.9-4.1-6.4-8.1-24-3.5c-7.2,1.9-13.1,4-17.8,6.4c-7.6,16.9-15,34.3-8.3,53.4c15.1,46.6,26.2,103.7-13.3,141
			c7.3,0.8,15.2,0.1,21.3-2.1c16.3-6,25.3-19.7,39.3-11C548.4,683.9,572.3,690.9,568,666.8"/>
		<path class="st53" d="M525.3,559c0,0,7.1,12.9,14.6,10.5c7.5-2.4,8.9-3.2,11.1-1.4c2.1,1.9,4.6,2,4.8,1.6
			c-1.5,1.2-5.2,0.5-6.4-0.7c-1.3-1.2-5,0.1-6,0.8c-1,0.8-7.7,12.8-13.8,7.3C523.4,571.7,520.4,559.5,525.3,559"/>
		<path class="st53" d="M536.8,507c0.8-0.6,4.6-3.1,4.5-10.5c-0.1-7.4-2.7-7.6-3.2-7.7c-0.5-0.1-5.1,12.2-4.1,15.3
			C535.1,507.3,535.9,507.6,536.8,507"/>
	</g>
	<g class="st1">
		<defs>
			<path id="SVGID_46_" d="M536.3,460.5c-0.6,0-1.1,0.3-1.2,1c-0.5,3.8-5.2,13.1-19,33c-0.5,2.8,4.9,9.8,17.8,9.6
				c0.4-7.8,12.6-33,12.6-33C546.8,466.8,539.3,460.5,536.3,460.5L536.3,460.5"/>
		</defs>
		<clipPath id="SVGID_47_">
			<use xlink:href="#SVGID_46_"  style="overflow:visible;"/>
		</clipPath>
		
			<linearGradient id="SVGID_48_" gradientUnits="userSpaceOnUse" x1="-640.8443" y1="1322.5928" x2="-639.8443" y2="1322.5928" gradientTransform="matrix(23.5929 -41.5754 -41.5754 -23.5929 70619.9922 5074.502)">
			<stop  offset="0" style="stop-color:#FFC7D0"/>
			<stop  offset="1" style="stop-color:#E65E75"/>
		</linearGradient>
		<polygon class="st58" points="496.8,493.7 523.2,447.1 565.6,471.2 539.2,517.7 		"/>
	</g>
	<g class="st1">
		<defs>
			<path id="SVGID_49_" d="M525.9,452.3c0.3,14.7,16.3,36.5,30.5,33.5c15.8-9.2,4-46.6,4-46.6c-0.5-1.1-2.7-2.2-6.2-2.2
				C548.1,437,538,440.3,525.9,452.3"/>
		</defs>
		<clipPath id="SVGID_50_">
			<use xlink:href="#SVGID_49_"  style="overflow:visible;"/>
		</clipPath>
		
			<linearGradient id="SVGID_51_" gradientUnits="userSpaceOnUse" x1="-640.8443" y1="1322.5928" x2="-639.8443" y2="1322.5928" gradientTransform="matrix(3.2759 46.3141 46.3141 -3.2759 -58607.3008 34462.1914)">
			<stop  offset="0" style="stop-color:#FFC7D0"/>
			<stop  offset="1" style="stop-color:#E65E75"/>
		</linearGradient>
		<polygon class="st59" points="571.9,433.7 575.8,488.6 526.1,492.1 522.2,437.3 		"/>
	</g>
	<g class="st1">
		<defs>
			<rect id="SVGID_52_" x="-640.8" y="-273.4" width="2340" height="1560"/>
		</defs>
		<clipPath id="SVGID_53_">
			<use xlink:href="#SVGID_52_"  style="overflow:visible;"/>
		</clipPath>
		<path class="st60" d="M559.9,570.5l138.1,115.6c0,0,5.3-0.3,10.1-4.7c4.8-4.4,4.1-10.5,4.1-10.5L573,559.9c0,0-4.3-4.3-8.2,0.2
			C560.8,564.6,556.4,567.6,559.9,570.5"/>
		<path class="st61" d="M571,561.3c0,0-11-9.2-12.9-10.6c-1.8-1.4-3.7,1-3.7,1l-4.4,5.5c0,0-0.3,1.2,0.9,2.2
			c1.2,1,15.2,10.2,15.2,10.2S573.4,563.3,571,561.3"/>
		<path class="st62" d="M765.4,730c0,0-11.3-2-20-6.3c-8.7-4.2-47.5-37.6-47.5-37.6l14.2-15.2c0,0,40.5,33.6,44.2,38.5
			c3.7,4.9,10.6,19.1,10.6,19.1L765.4,730z"/>
		<path class="st62" d="M581.7,566.5c0,0,4.1-13.9,25.6,3.6c21.5,17.5,89.1,73.8,89.1,73.8s3.3,4.2,0,5.4
			c-3.3,1.2-94.7-72.8-95.7-72.8c-1,0-3.1-3.3-5.7,0.6c-2.6,3.9-4.3,3.4-8,0.3C583.3,574.4,576.9,570.1,581.7,566.5"/>
		<path class="st62" d="M766.3,730.8c-0.7-0.5,0.3-2.4,1.5-1.6c1.2,0.7,4.7,5.1,3.8,5C770.8,734.1,767,731.4,766.3,730.8"/>
	</g>
	<g class="st1">
		<defs>
			<path id="SVGID_54_" d="M622.6,622.1c-2.6,5-5.3,4.8-8.8,4.6c-1.4-0.1-3-0.1-4.7,0.1c0.5,2.9,0.5,8.1,4.5,8.2
				c8.1,1.3,18.4,4.5,24.7-2.3c1.7-2.4,6.4-9.1,2.2-11.1c-2.8-1.1-6.2-1.9-9.6-1.9C628,619.9,625,620.5,622.6,622.1"/>
		</defs>
		<clipPath id="SVGID_55_">
			<use xlink:href="#SVGID_54_"  style="overflow:visible;"/>
		</clipPath>
		
			<linearGradient id="SVGID_56_" gradientUnits="userSpaceOnUse" x1="-640.8443" y1="1322.5928" x2="-639.8443" y2="1322.5928" gradientTransform="matrix(-94.3718 71.642 71.642 94.3718 -154572.9531 -78297.7578)">
			<stop  offset="0" style="stop-color:#FFC7D0"/>
			<stop  offset="1" style="stop-color:#E65E75"/>
		</linearGradient>
		<polygon class="st63" points="654.3,632.4 622.2,656.8 599.6,627.1 631.7,602.7 		"/>
	</g>
	<g class="st1">
		<defs>
			<rect id="SVGID_57_" x="-640.8" y="-273.4" width="2340" height="1560"/>
		</defs>
		<clipPath id="SVGID_58_">
			<use xlink:href="#SVGID_57_"  style="overflow:visible;"/>
		</clipPath>
		<path class="st64" d="M528.6,601.6c29.2,6.4,57.3,18.4,86.3,27c0,0,0.3-1.9-2.1-3.4c-2.4-1.5-60.7-25.6-81.3-29.6
			c3.4-37.5-9.6-74.9-16.9-88c-0.9-1.7-2-3.1-3-4.3C522.9,534.7,530,568.9,528.6,601.6"/>
		<path class="st65" d="M528.6,601.6c1.4-32.8-5.7-66.9-17-98.3c-7.2-7.8-16.9-4.1-24.2,3.9c-3.2,3.5-4.9,8.8-5.7,15
			c1.4,31.8,11.9,63.9,37,83.7c27.9,22.8,63.6,23.1,97.2,28.9l-0.8-6.2C585.9,620,557.8,608,528.6,601.6"/>
		<path class="st66" d="M518.6,605.9c-25.1-19.8-35.5-51.9-37-83.7c-1.3,10.3,0,22.9,1.9,33.2c3,16.5,6.4,30.5,27.1,53.1
			c20.7,22.5,104,31.3,105.6,30.1c1.6-1.2-0.5-3.8-0.5-3.8C582.1,629,546.4,628.7,518.6,605.9"/>
		<path class="st66" d="M526.1,509.4c0,0,4.9-8.1,2.9-14.2c-1.9-6.1-6.9-12.5-8.8-11.1c-1.9,1.5-6.3,4.4-5.9,8.8
			C514.6,497.4,525.1,513.1,526.1,509.4"/>
		<path class="st67" d="M561.9,437.9c0,0-14.3,10.9-13.6,23.7c0.8,12.8-24.6,15.8-28.4,12c-3.8-3.8-2.3-27.1,5.9-32.3
			C534,436.2,560.4,435.2,561.9,437.9"/>
		<path class="st68" d="M370.6,1046.3c0,0-1.7-21.8,0-31c1.7-9.2,10.7-13.3,10.7-13.3s7.8,4.5,10.1,4.1c2.3-0.4,12.8,9.2-0.1,11
			c5.8,2,35.3,30.3,26.1,30.4c-9.2,0.1-37.1-11-38.8-19.5c-2.8,18.8-2.5,17.4-2.8,18.8C375.5,1048.3,374.5,1050.5,370.6,1046.3"/>
		<path class="st68" d="M576.3,1055c0,0-5.4-28.7-3-30.8c2.4-2.2,4.4-11.3,4.4-11.3s9.8-2.9,11.9-1.9c18.3,8.8-0.1,12.3-0.1,12.3
			s37.4,25.5,33.5,28.3c-3.8,2.8-38-7.3-40.5-15.5l-1,19C581.6,1055.1,580.7,1058.8,576.3,1055"/>
		<path class="st67" d="M552.2,433.2c0,0-10.5,15.9,0,23.8c10.5,7.9-3.3,23.4-3.3,23.4s12.2-8.8,8.5-21c-3.6-12.2-5.7-17.6-0.2-22.2
			C562.9,432.6,553.3,431.3,552.2,433.2"/>
		<path class="st69" d="M420.5,822.8c0,0,72.3,100.2,184,40.2c2.1-5.3-1-4.9-5.3-4.5c-61.7,51.8-157.1,1.1-175.6-35.7
			C421.5,818.5,420.4,822,420.5,822.8"/>
		<path class="st69" d="M430.4,850.9c-1,2.5-1.7,5.3-1.5,8c0,0.5,0.1,1,0.2,1.5c0.7-0.1,1.2-0.7,1.5-1.3c1-1.7,1.4-3.5,1.9-5.4
			c0.5-2.4,2.2-6.9,1.5-9.2C432.4,846.3,431.3,848.8,430.4,850.9"/>
		<path class="st69" d="M449.4,868.3c0,1.2,0.1,2.5,0.2,3.7c0.1,1.8,0.3,3.5,0.9,5.2c0.2,0.5,0.6,1,1.1,0.8c0.2-0.1,0.3-0.3,0.4-0.5
			c0.6-1.4,0.7-2.9,0.7-4.4c0.1-4.2-0.1-8.4-0.6-12.6c-0.1-0.8-0.2-1.7-0.6-2.4C449.9,858.4,449.4,866.7,449.4,868.3"/>
		<path class="st69" d="M575.7,890.6c0.2,1.2,0.4,2.4,0.7,3.6c0.4,1.7,0.9,3.4,1.7,5c0.2,0.4,0.8,0.9,1.2,0.6
			c0.2-0.1,0.2-0.3,0.3-0.5c0.3-1.5,0.2-3,0-4.5c-0.5-4.2-1.4-8.3-2.6-12.3c-0.2-0.8-0.5-1.6-1-2.3
			C574.6,880.8,575.4,889,575.7,890.6"/>
		<path class="st69" d="M592.7,885.8c-0.2,1.6-0.3,3.2-0.4,4.8c-0.1,2.3-0.2,4.7,0.1,6.9c0.1,0.6,0.5,1.4,0.9,1.2
			c0.2-0.1,0.3-0.4,0.4-0.6c0.8-1.8,1.1-3.8,1.4-5.7c0.8-5.5,1.2-11,1.3-16.5c0-1.1,0-2.3-0.3-3.3
			C594.7,872.9,593,883.7,592.7,885.8"/>
		<path class="st69" d="M473.5,886.7c0.1,0.9,0.6,2,1.5,1.9c0.1,0,0.3,0,0.4-0.1c0.2-0.2,0.2-0.4,0.2-0.7c0.2-2.4,0.3-4.8,0.4-7.1
			c0-1.3,0.8-5.6-0.4-6.4c-1.3,1.3-1.8,4.2-2.1,6C473.1,882.4,473.1,884.6,473.5,886.7"/>
		<path class="st69" d="M556,900.2c0.3,0.8,1,1.8,1.8,1.6c0.1,0,0.3-0.1,0.4-0.2c0.2-0.2,0.1-0.5,0.1-0.7c-0.3-2.4-0.6-4.7-1-7.1
			c-0.2-1.3-0.3-5.6-1.6-6.2c-1,1.5-1,4.5-0.9,6.3C554.9,896,555.3,898.2,556,900.2"/>
		<path class="st69" d="M489.3,888.6c-0.1,3,0.6,6.1,2.4,8.4c1.3-2.9,1.5-6.3,0.8-9.4c-0.5-2.1-1.5-4.1-1.9-6.2
			C489.8,883.5,489.4,886.3,489.3,888.6"/>
		<path class="st69" d="M510,891.4c-0.1,3,0.6,6.1,2.4,8.4c1.3-2.9,1.5-6.3,0.8-9.4c-0.5-2.1-1.5-4.1-1.9-6.2
			C510.5,886.3,510.1,889.1,510,891.4"/>
		<path class="st69" d="M533.2,894.8c-0.1,3,0.6,6.1,2.4,8.4c1.3-2.9,1.5-6.3,0.8-9.4c-0.5-2.1-1.5-4.1-1.9-6.2
			C533.6,889.7,533.2,892.5,533.2,894.8"/>
		<path class="st70" d="M533.1,512.8c1.9,0,1.9-3,0-3C531.2,509.8,531.2,512.8,533.1,512.8"/>
		<path class="st70" d="M536.3,521.4c1.9,0,1.9-3,0-3C534.4,518.4,534.4,521.4,536.3,521.4"/>
		<path class="st70" d="M540.2,530.9c1.9,0,1.9-3,0-3C538.3,527.9,538.3,530.9,540.2,530.9"/>
		<path class="st71" d="M1220.3,1075.1c0,0,42.7,15.5,75.9,14c33.2-1.5,85.2,9.6,76.9-2.9c-8.3-12.5-62.7-21.5-126.3-18.9
			C1240.7,1067.5,1216.2,1072,1220.3,1075.1"/>
		<path class="st72" d="M1354.8,928.1c-7.1-30-12.9-60-21.4-90c-4-13.3-6.8-27.9-12.9-41.4c-0.7,61.1,2.1,179.1,2.1,179.1h36.7
			C1359.9,959.8,1359.2,944,1354.8,928.1"/>
		<path class="st73" d="M1363.7,760.9c-4.6-4.8-36.1-3.9-41.1,0c-1.3,1-1.9,15.2-2.1,35.8c6.2,13.5,8.9,28.1,12.9,41.4
			c8.6,30,14.3,60,21.4,90c4.3,15.9,5,31.8,4.4,47.7h4.4C1363.7,975.7,1368.3,765.6,1363.7,760.9"/>
		<path class="st74" d="M1375.8,756.2c-4.4,1.8-55.1-0.1-59.6-0.7c-4.5-0.6-8.5-13.5-5.1-16.8c3.3-3.3,61.4-8.5,66.1-4.3
			C1381.9,738.6,1380.3,754.4,1375.8,756.2"/>
		<path class="st74" d="M1351,861.7L1351,861.7c3.7,0,8.3-4.6,8.3-8.3l-1.6-99.3c0-3.7-3-6.7-6.7-6.7c-3.7,0-6.7,3-6.7,6.7
			l-4.3,98.8C1340,856.6,1347.3,861.7,1351,861.7"/>
		<path class="st75" d="M1416.7,743.6c-5,0-5-0.3-9.7,5.5c4.7,1.1,9.5,1.8,14.2,2.2C1420.4,746.7,1419,743.6,1416.7,743.6"/>
		<path class="st76" d="M1407,749c-2.9,3.5-7.5,9.4-16.3,19c-0.1,0.2-0.3,0.4-0.5,0.6c10.5-1.4,21.2-1.9,31.8-1.3
			c0.1-5.6-0.1-11.5-0.9-16C1416.5,750.8,1411.7,750.1,1407,749"/>
		<path class="st77" d="M1390.2,768.6c-3.4,4-6.6,11.3-9.7,20.9c13.4-0.2,26.7-0.9,39.3,2.7c0.9-4.1,1.5-6.7,1.5-7.1
			c0-1.8,0.6-9.5,0.7-17.8C1411.5,766.7,1400.8,767.2,1390.2,768.6"/>
		<path class="st78" d="M1407.3,789.9c-8.7-0.9-17.7-0.5-26.7-0.4c-17.6,55-29.5,184-28.3,189.1c0.9,3.7,2.9,5.9,5.4,6.9
			c14.6-49.7,27.8-99.5,37.1-153.2C1397.4,818.6,1399.5,801.8,1407.3,789.9"/>
		<path class="st79" d="M1394.8,832.4c-9.4,53.7-22.6,103.6-37.1,153.2c3,1.2,6.6,0.8,9.7-0.7c5.2-2.4,44.3-157.3,52.4-192.7
			c-4.1-1.2-8.3-1.9-12.6-2.3C1399.5,801.8,1397.4,818.6,1394.8,832.4"/>
		<path class="st80" d="M1351,960c-12.4,13.1-38.6,34.1-47.8,16.2c-9.3-17.9-96-234.7-88.1-247.2c7.8-12.5,19.4-44.1,58.7-20.6
			C1296.2,721.7,1363.4,946.9,1351,960"/>
		<path class="st70" d="M1256.3,726.8l-33.5,12.6c-0.4,0.1-0.8-0.1-1-0.4l-0.2-0.6c-0.1-0.4,0.1-0.8,0.4-1l33.5-12.6
			c0.4-0.1,0.8,0.1,1,0.4l0.2,0.6C1256.9,726.2,1256.7,726.6,1256.3,726.8"/>
		<path class="st70" d="M1241.4,740.3l-16,6c-0.4,0.1-0.8-0.1-1-0.4l-0.2-0.6c-0.1-0.4,0.1-0.8,0.4-1l16-6c0.4-0.1,0.8,0.1,1,0.4
			l0.2,0.6C1242,739.7,1241.8,740.2,1241.4,740.3"/>
		<path class="st70" d="M1244.3,748.1l-16,6c-0.4,0.1-0.8-0.1-1-0.4l-0.2-0.6c-0.1-0.4,0.1-0.8,0.4-1l16-6c0.4-0.1,0.8,0.1,1,0.4
			l0.2,0.6C1244.9,747.5,1244.7,747.9,1244.3,748.1"/>
		<path class="st70" d="M1247.3,755.9l-16,6c-0.4,0.1-0.8-0.1-1-0.4l-0.2-0.6c-0.1-0.4,0.1-0.8,0.4-1l16-6c0.4-0.1,0.8,0.1,1,0.4
			l0.2,0.6C1247.8,755.3,1247.6,755.7,1247.3,755.9"/>
		<path class="st70" d="M1250.2,763.6l-16,6c-0.4,0.1-0.8-0.1-1-0.4l-0.2-0.6c-0.1-0.4,0.1-0.8,0.4-1l16-6c0.4-0.1,0.8,0.1,1,0.4
			l0.2,0.6C1250.8,763.1,1250.6,763.5,1250.2,763.6"/>
		<path class="st70" d="M1253.1,771.4l-16,6c-0.4,0.1-0.8-0.1-1-0.4l-0.2-0.6c-0.1-0.4,0.1-0.8,0.4-1l16-6c0.4-0.1,0.8,0.1,1,0.4
			l0.2,0.6C1253.7,770.8,1253.5,771.3,1253.1,771.4"/>
		<path class="st70" d="M1273.4,772.5l-33.5,12.6c-0.4,0.1-0.8,0-1-0.4l-0.2-0.6c-0.1-0.4,0.1-0.8,0.4-1l33.5-12.6
			c0.4-0.1,0.8,0.1,1,0.4l0.2,0.6C1274,772,1273.8,772.4,1273.4,772.5"/>
		<path class="st70" d="M1258.6,786.1l-16,6c-0.4,0.1-0.8-0.1-1-0.4l-0.2-0.6c-0.1-0.4,0.1-0.8,0.4-1l16-6c0.4-0.1,0.8,0.1,1,0.4
			l0.2,0.6C1259.2,785.5,1259,785.9,1258.6,786.1"/>
		<path class="st70" d="M1261.5,793.8l-16,6c-0.4,0.1-0.8-0.1-1-0.4l-0.2-0.6c-0.1-0.4,0.1-0.8,0.4-1l16-6c0.4-0.1,0.8,0.1,1,0.4
			l0.2,0.6C1262.1,793.3,1261.9,793.7,1261.5,793.8"/>
		<path class="st70" d="M1264.4,801.6l-16,6c-0.4,0.1-0.8-0.1-1-0.4l-0.2-0.6c-0.1-0.4,0.1-0.8,0.4-1l16-6c0.4-0.1,0.8,0.1,1,0.4
			l0.2,0.6C1265,801,1264.8,801.5,1264.4,801.6"/>
		<path class="st70" d="M1267.3,809.4l-16,6c-0.4,0.1-0.8-0.1-1-0.4l-0.2-0.6c-0.1-0.4,0.1-0.8,0.4-1l16-6c0.4-0.1,0.8,0.1,1,0.4
			l0.2,0.6C1267.9,808.8,1267.7,809.3,1267.3,809.4"/>
		<path class="st70" d="M1270.3,817.2l-16,6c-0.4,0.1-0.8-0.1-1-0.4l-0.2-0.6c-0.1-0.4,0.1-0.8,0.4-1l16-6c0.4-0.1,0.8,0.1,1,0.4
			l0.2,0.6C1270.9,816.6,1270.7,817,1270.3,817.2"/>
		<path class="st70" d="M1290.6,818.3l-33.5,12.6c-0.4,0.1-0.8,0-1-0.4l-0.2-0.6c-0.1-0.4,0.1-0.8,0.4-1l33.5-12.6
			c0.4-0.1,0.8,0.1,1,0.4l0.2,0.6C1291.2,817.7,1291,818.2,1290.6,818.3"/>
		<path class="st70" d="M1275.8,831.8l-16,6c-0.4,0.1-0.8-0.1-1-0.4l-0.2-0.6c-0.1-0.4,0.1-0.8,0.4-1l16-6c0.4-0.1,0.8,0.1,1,0.4
			l0.2,0.6C1276.4,831.2,1276.2,831.7,1275.8,831.8"/>
		<path class="st70" d="M1278.7,839.6l-16,6c-0.4,0.1-0.8-0.1-1-0.4l-0.2-0.6c-0.1-0.4,0.1-0.8,0.4-1l16-6c0.4-0.1,0.8,0.1,1,0.4
			l0.2,0.6C1279.3,839,1279.1,839.5,1278.7,839.6"/>
		<path class="st70" d="M1281.6,847.4l-16,6c-0.4,0.1-0.8-0.1-1-0.4l-0.2-0.6c-0.1-0.4,0.1-0.8,0.4-1l16-6c0.4-0.1,0.8,0.1,1,0.4
			l0.2,0.6C1282.2,846.8,1282,847.2,1281.6,847.4"/>
		<path class="st70" d="M1284.5,855.2l-16,6c-0.4,0.1-0.8-0.1-1-0.4l-0.2-0.6c-0.1-0.4,0.1-0.8,0.4-1l16-6c0.4-0.1,0.8,0.1,1,0.4
			l0.2,0.6C1285.1,854.6,1284.9,855,1284.5,855.2"/>
		<path class="st70" d="M1287.4,862.9l-16,6c-0.4,0.1-0.8-0.1-1-0.4l-0.2-0.6c-0.1-0.4,0.1-0.8,0.4-1l16-6c0.4-0.1,0.8,0.1,1,0.4
			l0.2,0.6C1288,862.3,1287.8,862.8,1287.4,862.9"/>
		<path class="st70" d="M1307.8,864.1l-33.5,12.6c-0.4,0.1-0.8,0-1-0.4l-0.2-0.6c-0.1-0.4,0.1-0.8,0.4-1L1307,862
			c0.4-0.1,0.8,0.1,1,0.4l0.2,0.6C1308.4,863.5,1308.2,863.9,1307.8,864.1"/>
		<path class="st70" d="M1292.9,877.6l-16,6c-0.4,0.1-0.8-0.1-1-0.4l-0.2-0.6c-0.1-0.4,0.1-0.8,0.4-1l16-6c0.4-0.1,0.8,0.1,1,0.4
			l0.2,0.6C1293.5,877,1293.3,877.4,1292.9,877.6"/>
		<path class="st70" d="M1295.9,885.4l-16,6c-0.4,0.1-0.8-0.1-1-0.4l-0.2-0.6c-0.1-0.4,0.1-0.8,0.4-1l16-6c0.4-0.1,0.8,0.1,1,0.4
			l0.2,0.6C1296.4,884.8,1296.2,885.2,1295.9,885.4"/>
		<path class="st70" d="M1298.8,893.1l-16,6c-0.4,0.1-0.8-0.1-1-0.4l-0.2-0.6c-0.1-0.4,0.1-0.8,0.4-1l16-6c0.4-0.1,0.8,0.1,1,0.4
			l0.2,0.6C1299.4,892.5,1299.2,893,1298.8,893.1"/>
		<path class="st70" d="M1301.7,900.9l-16,6c-0.4,0.1-0.8-0.1-1-0.4l-0.2-0.6c-0.1-0.4,0.1-0.8,0.4-1l16-6c0.4-0.1,0.8,0.1,1,0.4
			l0.2,0.6C1302.3,900.3,1302.1,900.8,1301.7,900.9"/>
		<path class="st70" d="M1304.6,908.7l-16,6c-0.4,0.1-0.8-0.1-1-0.4l-0.2-0.6c-0.1-0.4,0.1-0.8,0.4-1l16-6c0.4-0.1,0.8,0.1,1,0.4
			l0.2,0.6C1305.2,908.1,1305,908.5,1304.6,908.7"/>
		<path class="st70" d="M1325,909.8l-33.5,12.6c-0.4,0.1-0.8,0-1-0.4l-0.2-0.6c-0.1-0.4,0.1-0.8,0.4-1l33.5-12.6
			c0.4-0.1,0.8,0.1,1,0.4l0.2,0.6C1325.5,909.2,1325.3,909.7,1325,909.8"/>
		<path class="st70" d="M1310.1,923.3l-16,6c-0.4,0.1-0.8-0.1-1-0.4l-0.2-0.6c-0.2-0.4,0.1-0.8,0.4-1l16-6c0.4-0.1,0.8,0.1,1,0.4
			l0.2,0.6C1310.7,922.8,1310.5,923.2,1310.1,923.3"/>
		<path class="st70" d="M1313,931.1l-16,6c-0.4,0.1-0.8-0.1-1-0.4l-0.2-0.6c-0.1-0.4,0.1-0.8,0.4-1l16-6c0.4-0.1,0.8,0.1,1,0.4
			l0.2,0.6C1313.6,930.5,1313.4,931,1313,931.1"/>
		<path class="st70" d="M1315.9,938.9l-16,6c-0.4,0.1-0.8-0.1-1-0.4l-0.2-0.6c-0.1-0.4,0.1-0.8,0.4-1l16-6c0.4-0.1,0.8,0.1,1,0.4
			l0.2,0.6C1316.5,938.3,1316.3,938.7,1315.9,938.9"/>
		<path class="st70" d="M1318.9,946.7l-16,6c-0.4,0.1-0.8-0.1-1-0.4l-0.2-0.6c-0.1-0.4,0.1-0.8,0.4-1l16-6c0.4-0.1,0.8,0.1,1,0.4
			l0.2,0.6C1319.5,946.1,1319.3,946.5,1318.9,946.7"/>
		<path class="st70" d="M1321.8,954.4l-16,6c-0.4,0.1-0.8-0.1-1-0.4l-0.2-0.6c-0.1-0.4,0.1-0.8,0.4-1l16-6c0.4-0.1,0.8,0.1,1,0.4
			l0.2,0.6C1322.4,953.9,1322.2,954.3,1321.8,954.4"/>
		<path class="st81" d="M1290.4,920h-27.3c0,0,17.6,147,23.9,160.9c4.9,10.9,19.3,8.5,32.8,6.8C1304.5,1032.4,1290,977.2,1290.4,920
			"/>
		<path class="st75" d="M1332.2,920h-41.8c-0.4,57.2,14.1,112.5,29.4,167.6c3.8-0.5,7.5-0.9,10.9-1c5.5-0.1,10.4,0.9,14.9,2
			c12.6-6.9,22.6-18,25-31.9c10.1-46.2,14.1-91.6,20.2-136.7H1332.2z"/>
		<path class="st82" d="M1390.8,920c-6.1,45.1-10,90.5-20.2,136.7c-2.5,13.9-12.4,25-25,31.9c8.2,2,15.2,4.4,22.9,1.1
			c11.8-5.1,32.8-169.7,32.8-169.7H1390.8z"/>
		<path class="st70" d="M1413.1,934.6h-161.9c-4.3,0-7.9-3.5-7.9-7.9V920c0-4.3,3.5-7.9,7.9-7.9h161.9c4.3,0,7.9,3.5,7.9,7.9v6.8
			C1421,931.1,1417.5,934.6,1413.1,934.6"/>
		<path class="st83" d="M761.8,819.1c0,0-13.6,13.2,5.7,14.9c19.3,1.7,33,2.6,34.8-1.7c1.8-4.3,2-13.5-2-14.3
			C796.2,817.3,763.2,816.7,761.8,819.1"/>
		<path class="st83" d="M827.6,819.1c0,0-13.6,13.2,5.7,14.9c19.3,1.7,33,2.6,34.8-1.7c1.8-4.3,2-13.5-2-14.3
			C862,817.3,829,816.7,827.6,819.1"/>
		<path class="st83" d="M886.9,819.1c0,0-13.6,13.2,5.7,14.9c19.3,1.7,33,2.6,34.8-1.7c1.8-4.3,2-13.5-2-14.3
			C921.2,817.3,888.3,816.7,886.9,819.1"/>
		<path class="st83" d="M944.5,819.1c0,0-13.6,13.2,5.7,14.9c19.3,1.7,33,2.6,34.8-1.7c1.8-4.3,2-13.5-2-14.3
			C978.8,817.3,945.8,816.7,944.5,819.1"/>
		<path class="st83" d="M998.7,819.1c0,0-13.6,13.2,5.7,14.9c19.3,1.7,33,2.6,34.8-1.7c1.8-4.3,2-13.5-2-14.3
			C1033.1,817.3,1000.1,816.7,998.7,819.1"/>
		<path class="st84" d="M697.6,1006.1c0,0-5.9,9.3,2.8,10.1c8.7,0.8,360.7,7.1,364.3,4.1c3.6-3,1.9-4.3-4.2-4.1
			C1054.3,1016.4,699.3,1001.8,697.6,1006.1"/>
		<path class="st80" d="M859.4,890.1c0,0-3.9,58.4,2.2,58.9c6.1,0.5,45.8-22,41.8-33.9C899.3,903.1,860.2,875.5,859.4,890.1"/>
		<path class="st80" d="M712.1,998.5c0.2-5.8-0.1-7.6-1-5.1c-0.9,2.5-1.2,5.8-0.7,7.7C710.8,1003,712,1001.4,712.1,998.5"/>
		<path class="st80" d="M717.7,998.5c0.2-5.8-0.1-7.6-1-5.1c-0.9,2.5-1.2,5.8-0.7,7.7C716.4,1003,717.6,1001.4,717.7,998.5"/>
		<path class="st80" d="M731.5,995.1c0,0,6.7-7,8.4-4.8c1.7,2.2,1.5,14.1-0.9,12.9c-2.4-1.3-5.5-2-6.5-3.7
			C731.5,997.7,731.5,995.1,731.5,995.1"/>
		<path class="st80" d="M729.8,994.7c0,0.1-0.2,5.4,0.6,5.3c0.8-0.2,0.8-6,0.4-5.9C730.3,994.1,729.8,993.6,729.8,994.7"/>
		<path class="st80" d="M866.9,871.4c-28,0-40.7,20.4-40.7,46.1c0,9.9,2.7,18.7,7.6,25.8c7.8,11.3,21.3,18.1,38.6,18.1
			c17.8,0,32.9-6.1,41.6-17.2c5-6.4,7.9-14.4,7.9-23.8C922,894.8,895,871.4,866.9,871.4 M907.7,944.1c-7.7,8.9-19.8,14.4-34,14.4
			c-14,0-25.6-5.9-33-15.2c-5.6-7-8.8-16-8.8-25.8c0-22.6,17.1-39.5,41.8-39.5c24.7,0,42.9,18.9,42.9,41.5
			C916.7,929,913.4,937.5,907.7,944.1"/>
		<path class="st85" d="M725.7,474.4c0,10.7-5.8,16.6-20.4,16.6c-14.5,0-22.9-5.8-22.5-16.6c0.5-13.8,7.1-21,21.6-20.8
			C719,453.8,725.7,463.7,725.7,474.4"/>
		<path class="st75" d="M796.2,502.3c3.5-6.9-6.1-9.2-6.2-14.3c-2.5,1.9-3.9,4.9-3.9,8.3c0,4.2,2,7.8,5.9,9.5
			C794.1,505.1,795.6,504.1,796.2,502.3"/>
		<path class="st75" d="M798.9,486c-0.7,2.9,2.6,6.4,5.9,6.4c-5.5,4.6-1,6.8,2.5,10.4c1.7-1.8,2.7-4,2.7-6.4
			C810,491,805.1,486.6,798.9,486"/>
		<path class="st80" d="M804.8,492.3c-3.3,0-6.7-3.5-5.9-6.4c-0.6-0.1-1.1-0.1-1.7-0.1c-2.9,0-5.3,0.8-7.1,2.2
			c0.1,5.1,9.6,7.4,6.2,14.3c-0.6,1.8-2.2,2.8-4.2,3.5c1.5,0.6,3.1,1,5.1,1c4.1,0,7.8-1.6,10.1-4.1
			C803.8,499.1,799.3,496.9,804.8,492.3"/>
	</g>
</g>
</svg>
