<?xml version="1.0" encoding="utf-8"?>
<!-- Generator: Adobe Illustrator 21.1.0, SVG Export Plug-In . SVG Version: 6.00 Build 0)  -->
<svg version="1.1" id="Слой_1" xmlns="http://www.w3.org/2000/svg" xmlns:xlink="http://www.w3.org/1999/xlink" x="0px" y="0px"
	 viewBox="0 0 1440 1010" style="enable-background:new 0 0 1440 1010;" xml:space="preserve">
<style type="text/css">
	.st0{fill:#E9F7FF;}
	.st1{fill:#D5E6F6;}
	.st2{fill:#7DB3DB;}
	.st3{fill:#9BC6EE;}
	.st4{fill:url(#SVGID_1_);}
	.st5{clip-path:url(#SVGID_3_);}
	.st6{fill:#2D65AF;}
	.st7{fill:#80DBDA;}
	.st8{fill:url(#SVGID_4_);}
	.st9{clip-path:url(#SVGID_6_);}
	.st10{fill:#152B3F;}
	.st11{opacity:0.7;fill:#051123;enable-background:new    ;}
	.st12{fill:#4778B9;}
	.st13{fill:#DBEAF8;}
	.st14{fill:#D6E7F7;}
	.st15{fill:#3B57B5;}
	.st16{fill:#FFC261;}
	.st17{fill:#AAACBE;}
	.st18{fill:#B4BDED;}
	.st19{fill:#FFFFFF;}
	.st20{fill:#B5CAF6;}
	.st21{fill:#BBDEF9;}
	.st22{fill:#A0D5F9;}
	.st23{fill:#2C64AD;}
	.st24{fill:#80DCDB;}
	.st25{fill:#A3E7E6;}
	.st26{fill:#2FA09F;}
	.st27{fill:#2C63AD;}
	.st28{fill:#3A75B5;}
	.st29{fill:#6298D1;}
	.st30{fill:#172C51;}
	.st31{fill:#2F4B75;}
	.st32{fill:#C5DCEF;}
	.st33{fill:#A9C5D8;}
	.st34{fill:#E65E75;}
	.st35{opacity:0.5;fill:#F2F2F2;enable-background:new    ;}
	.st36{fill:#76A9D3;}
	.st37{fill:#3172A8;}
	.st38{fill:#E9E5FC;}
	.st39{fill:#C3BEE0;}
	.st40{fill:#102538;}
	.st41{fill:#75AFE8;}
	.st42{fill:#FF8333;}
	.st43{fill:url(#SVGID_7_);}
	.st44{opacity:0.9;}
	.st45{fill:#3D5F93;}
	.st46{fill:#1B2C49;}
	.st47{fill:#AECFF1;}
	.st48{fill:#051123;}
	.st49{opacity:0.15;}
	.st50{fill:#FFA730;}
	.st51{fill:#FF7116;}
	.st52{fill:#E24B00;}
	.st53{fill:url(#SVGID_8_);}
	.st54{fill:url(#SVGID_9_);}
	.st55{fill:#00000C;}
	.st56{fill:url(#SVGID_10_);}
	.st57{fill:#FFA829;}
	.st58{fill:url(#SVGID_11_);}
	.st59{fill:#FCFCFC;}
	.st60{fill:#E55C20;}
	.st61{fill:#2956B2;}
	.st62{fill:url(#SVGID_12_);}
	.st63{fill:url(#SVGID_13_);}
	.st64{fill:#633675;}
	.st65{fill:#8D53A1;}
	.st66{fill:#643877;}
	.st67{fill:url(#SVGID_14_);}
	.st68{fill:url(#SVGID_15_);}
	.st69{fill:#9374A3;}
	.st70{fill:url(#SVGID_16_);}
	.st71{fill:#B460D8;}
</style>
<g id="Layer_1">
	<rect x="-876.6" y="-335.9" class="st0" width="2340" height="1560"/>
	<path class="st1" d="M-46,1224.2c0,0-251.6-615.9,282.7-542.4s543.1-62.9,578-159.2s103-154.8,258.4-98.4s263.6-694.2,390.3-649
		v1449L-46,1224.2z"/>
	<path class="st2" d="M32.6,1056.2c220.3,6.7,440.7,5.4,661,1.3c36.3,0,69.9-8.1,106.1-16.1c8.1-1.3,17.5,1.3,25.5-1.3
		c33.6-9.4,65.8-6.7,100.8-14.8c104.3-24.8,200.6-57,301.7-81.9C920.1,888.2,321,901.2,176.1,928.2c-62.6,11.6-184.6,37-265.5,65
		c0.3,2.3,1.1,4.6,2.4,6.6C-61.5,1040.1-11.8,1054.9,32.6,1056.2z"/>
	<path class="st3" d="M1327.4,967.2c-27.8-9-61.5-17-99.6-23.8c-101.2,24.9-197.4,57-301.8,81.9c-34.9,8.1-67.2,5.4-100.8,14.8
		c-8.1,2.7-17.5,0-25.5,1.3c-36.3,8.1-69.9,16.1-106.1,16.1c-220.3,4-440.7,5.4-661-1.3c-44.3-1.3-94-16.1-119.6-56.4
		c-1.3-2-2.1-4.3-2.4-6.6c-129.5,44.8-154.2,96.3,336.6,109C1042.2,1122.8,1579,1049.2,1327.4,967.2z"/>
	
		<linearGradient id="SVGID_1_" gradientUnits="userSpaceOnUse" x1="2093.8291" y1="-799.2876" x2="1804.9591" y2="-827.7376" gradientTransform="matrix(0.86 -0.5 0.5 0.86 51.71 1883.59)">
		<stop  offset="0" style="stop-color:#B6F2F0"/>
		<stop  offset="4.000000e-02" style="stop-color:#B6F2F0"/>
		<stop  offset="0.3" style="stop-color:#B6F2F0"/>
		<stop  offset="0.41" style="stop-color:#90DBD9"/>
		<stop  offset="0.52" style="stop-color:#6DC6C4"/>
		<stop  offset="0.64" style="stop-color:#52B5B4"/>
		<stop  offset="0.76" style="stop-color:#3FA9A8"/>
		<stop  offset="0.88" style="stop-color:#33A2A1"/>
		<stop  offset="1" style="stop-color:#2FA09F"/>
	</linearGradient>
	<path class="st4" d="M1406.5,197.6c-5.4-33.7-28.8,1.4-36.8-19.7s-5.7-105.3-36.9-123.6s-25.3,13.6-20,25.7s1,75-18.1,88.3
		s-26.2,32.9-21.4,46.7s9.8,17.9,9.8,17.9s-15.5-9.6-26.3,14.2s27.8,27.6,11.4,55.8s-54.1,9.2-42.2,55.4s94.6,36.6,122.8-18.9
		S1411.9,231.2,1406.5,197.6z"/>
	<g>
		<defs>
			<path id="SVGID_2_" d="M1406.5,197.6c-5.4-33.7-28.8,1.4-36.8-19.7s-5.7-105.3-36.9-123.6s-25.3,13.6-20,25.7s1,75-18.1,88.3
				s-26.2,32.9-21.4,46.7s9.8,17.9,9.8,17.9s-15.5-9.6-26.3,14.2s27.8,27.6,11.4,55.8s-54.1,9.2-42.2,55.4s94.6,36.6,122.8-18.9
				S1411.9,231.2,1406.5,197.6z"/>
		</defs>
		<clipPath id="SVGID_3_">
			<use xlink:href="#SVGID_2_"  style="overflow:visible;"/>
		</clipPath>
		<g class="st5">
			<path class="st6" d="M1267.2,356.3c17-3.1,26.8-20.1,33.4-34.5c7.5-16.2,13.8-33,19.1-50.1c5.4-17.4,9.7-35.1,12.9-53
				c6.6-36.5,8.8-73.6,6.8-110.6c-0.1-2.4-0.3-4.7-0.4-7.1c0-0.7-1.2-0.8-1.2,0c1.3,18.4,1.5,36.8,0.7,55.2
				c-0.8,18.3-2.7,36.6-5.7,54.7c-2.9,17.8-6.9,35.3-11.9,52.6c-4.9,17-10.9,33.7-17.9,50c-3.5,8.1-7.2,16.3-12.2,23.7
				c-4.7,6.9-10.7,13.2-18.5,16.4c-1.8,0.7-3.6,1.2-5.5,1.6C1266.1,355.4,1266.4,356.5,1267.2,356.3L1267.2,356.3z"/>
			<path class="st6" d="M1358.2,210.8c-4.7,6.8-9.1,13.7-13.2,20.9c-2,3.5-3.7,7.1-5.7,10.6c-0.5,1-1.4,1.8-2.5,2
				c-1,0.2-2,0.3-3,0.4l-6.6,0.8c-0.7,0.1-0.7,1.3,0,1.2l6.8-0.9c1.7-0.2,3.7-0.1,5.1-1.4s2-3.1,2.8-4.7c1-2,2.1-3.9,3.2-5.8
				c4.3-7.7,9-15.3,14.1-22.6C1359.7,210.8,1358.7,210.2,1358.2,210.8L1358.2,210.8z"/>
			<path class="st6" d="M1318.3,274c-0.7-3.8-2.8-7.3-4.2-10.9c-1.5-3.7-2.7-7.6-3.8-11.4c-2.2-7.9-3.7-15.9-4.4-24.1
				c-0.1-0.7-1.2-0.8-1.2,0c0.7,8.1,2.2,16.1,4.3,24c1.1,3.9,2.3,7.7,3.8,11.5c0.7,1.8,1.4,3.5,2.1,5.3c1,1.9,1.7,3.9,2.2,6
				C1317.3,275,1318.4,274.7,1318.3,274L1318.3,274z"/>
			<path class="st6" d="M1343.3,273.7c-6.2,4.6-11.9,9.8-17.1,15.6c-1.3,1.5-2.6,2.9-3.8,4.5c-1.1,1.6-2.4,3-4,4.2
				c-2.8,1.8-6.4,1.4-9,3.7c-0.6,0.5,0.3,1.3,0.8,0.8c2.6-2.2,6.3-1.8,9.1-3.7c1.4-1.1,2.6-2.4,3.6-3.8c1.2-1.5,2.5-3,3.8-4.5
				c5.2-5.8,10.9-11.1,17.1-15.7C1344.5,274.3,1343.9,273.3,1343.3,273.7L1343.3,273.7z"/>
			<path class="st6" d="M1294.5,319.1c-2-13.4-1.1-27-0.1-40.5c0.1-0.7-1.1-0.7-1.2,0c-1,13.6-1.8,27.3,0.2,40.8
				C1293.4,320.2,1294.6,319.9,1294.5,319.1z"/>
			<path class="st6" d="M1329.9,332.1c-4.9,2.4-9.6,5.2-13.9,8.4c-4.1,3-8.3,6.3-13.3,7.8c-0.3,0.1-0.4,0.5-0.3,0.8
				c0.1,0.2,0.4,0.4,0.6,0.4c5-1.5,9.1-4.6,13.2-7.7c4.5-3.3,9.3-6.2,14.3-8.6C1331.2,332.8,1330.6,331.8,1329.9,332.1z"/>
			<path class="st6" d="M1331.9,187.1c-1.9-0.6-2.8-3.5-3.6-5.1c-1-2.2-2-4.4-2.8-6.6c-1.7-4.3-3-8.8-4.1-13.3
				c-0.2-0.7-1.3-0.4-1.1,0.3c1.2,5.1,2.8,10.1,4.8,15c0.9,2.2,1.9,4.4,3,6.6c0.8,1.6,1.7,3.6,3.6,4.2c0.3,0.1,0.6-0.2,0.7-0.5
				C1332.3,187.5,1332.2,187.3,1331.9,187.1L1331.9,187.1z"/>
		</g>
	</g>
	<path class="st7" d="M1272.1,17.3c-3.3-5.7-20.6-17.4-17.9-23.8c2-4.9,9.4-2.1,13.5-0.2C1290.7,1.4,1284.4,37.3,1272.1,17.3z"/>
	<path class="st7" d="M1252.7,77c-3.3-2.9-17.1-7-16.6-11.4c0.3-3.4,5.8-3,8.8-2.6C1261.7,63.7,1264.9,87,1252.7,77z"/>
	
		<linearGradient id="SVGID_4_" gradientUnits="userSpaceOnUse" x1="127.3732" y1="10.364" x2="369.4432" y2="280.104" gradientTransform="matrix(1 -3.000000e-02 3.000000e-02 1 -22.95 372.57)">
		<stop  offset="0" style="stop-color:#B6F2F0"/>
		<stop  offset="2.000000e-02" style="stop-color:#B6F2F0"/>
		<stop  offset="0.13" style="stop-color:#B6F2F0"/>
		<stop  offset="0.26" style="stop-color:#90DBD9"/>
		<stop  offset="0.4" style="stop-color:#6DC6C4"/>
		<stop  offset="0.55" style="stop-color:#52B5B4"/>
		<stop  offset="0.7" style="stop-color:#3FA9A8"/>
		<stop  offset="0.85" style="stop-color:#33A2A1"/>
		<stop  offset="1" style="stop-color:#2FA09F"/>
	</linearGradient>
	<path class="st8" d="M188.6,527.1c-8.9-24.9,20-9.8,17.6-27.1s-35.5-73.5-21.1-97.5s38.4-7.6,46.1,6.8c4.8,9,4.3,54.4,22.3,56.3
		s30,12.5,31.9,23.6s0.1,15.8,0.1,15.8s6.9-12.3,23.1-0.2s-8.5,29.1,13.1,42.1s40.1-14,49.3,21.8s-86.2,86.2-126,59
		S197.5,552,188.6,527.1z"/>
	<g>
		<defs>
			<path id="SVGID_5_" d="M188.6,527.1c-8.9-24.9,20-9.8,17.6-27.1s-35.5-73.5-21.1-97.5s49.8-5,53.9,4.4
				c5.2,11.9-3.5,56.8,14.5,58.6s30,12.5,31.9,23.6s0.1,15.8,0.1,15.8s6.9-12.3,23.1-0.2c16.2,12.1-8.5,29.1,13.1,42.1
				s40.1-14,49.3,21.8s-86.2,86.2-126,59S197.5,552,188.6,527.1z"/>
		</defs>
		<clipPath id="SVGID_6_">
			<use xlink:href="#SVGID_5_"  style="overflow:visible;"/>
		</clipPath>
		<g class="st9">
			<path class="st6" d="M342.1,581.8c-14.9,4.9-29.5-6.6-40.5-15.1c-10.4-8.1-20.4-16.9-29.8-26.2c-19.3-19.2-36.3-40.6-50.7-63.7
				c-8.2-13.1-15.5-26.7-22-40.7c-0.2-0.5-1-0.1-0.8,0.5c11.7,25.3,26.2,49.2,43.3,71.3c16.7,21.6,35.9,41.1,57.3,58.1
				c6.4,5,12.8,10.1,20.1,13.7c7.1,3.5,15.4,5.6,23.2,3.1c0.2-0.1,0.3-0.4,0.2-0.6C342.5,581.9,342.3,581.8,342.1,581.8L342.1,581.8
				z"/>
			<path class="st6" d="M225.8,518.8c6.1,3,12,6.3,17.8,9.9c1.4,0.9,2.8,1.8,4.2,2.7c1.1,0.9,2.4,1.7,3.7,2.2
				c1.4,0.4,2.7-0.3,3.9-0.8l5.1-2c0.5-0.2,0.3-1.1-0.2-0.9l-4.6,1.8c-0.7,0.3-1.5,0.6-2.2,0.9c-0.9,0.3-1.9,0.2-2.7-0.4
				c-2.7-1.6-5.3-3.5-8-5.1c-5.4-3.3-10.9-6.3-16.6-9.1C225.7,517.8,225.2,518.6,225.8,518.8L225.8,518.8z"/>
			<path class="st6" d="M277.9,545.8c-0.9-2.9-0.8-6.1-1.3-9.1s-1-6.3-1.8-9.4c-1.5-6.1-3.5-12.1-6-17.8c-0.2-0.5-1-0.1-0.8,0.5
				c2.6,5.8,4.6,11.8,6,18c0.7,3,1.2,6,1.7,9.1c0.4,3,0.3,6.1,1.2,9c0.1,0.2,0.4,0.3,0.6,0.2C277.8,546.2,277.9,546,277.9,545.8
				L277.9,545.8z"/>
			<path class="st6" d="M259.8,556c5.9,0.8,11.7,2.2,17.4,4.2c2.6,0.9,5.2,2.4,7.9,2.8s5.3-1.3,8-0.8c0.6,0.1,0.8-0.8,0.2-0.9
				c-2.6-0.5-4.9,1-7.5,0.9c-1.5-0.2-2.9-0.6-4.2-1.3c-1.4-0.6-2.8-1.1-4.3-1.6c-5.6-2-11.5-3.4-17.4-4.2
				C259.4,555.1,259.2,555.9,259.8,556L259.8,556z"/>
			<path class="st6" d="M310.8,567.5c-3.7-9.9-9.4-18.9-15.1-27.7c-0.3-0.5-1.1,0-0.8,0.5c5.7,8.8,11.4,17.7,15,27.5
				C310.1,568.2,311,568,310.8,567.5L310.8,567.5z"/>
			<path class="st6" d="M290.8,590.6c4.2-0.2,8.5-0.1,12.7,0.5c4,0.5,8,1.2,12,0.3c0.6-0.1,0.3-1-0.2-0.9c-4.1,0.9-8.2,0.1-12.3-0.4
				c-4-0.5-8.1-0.7-12.2-0.4C290.2,589.8,290.2,590.7,290.8,590.6L290.8,590.6z"/>
			<path class="st6" d="M235.9,492.9c1-1,0.9-2.4,0.9-3.7c-0.1-2.1-0.2-4.1-0.5-6.2c-0.5-4-1.2-7.9-2.3-11.8
				c-0.1-0.2-0.4-0.3-0.6-0.2c-0.2,0.1-0.3,0.3-0.3,0.5c1,3.5,1.7,7,2.2,10.6c0.2,1.8,0.4,3.5,0.5,5.3c0.1,1.4,0.6,3.8-0.5,4.9
				C234.9,492.6,235.5,493.2,235.9,492.9z"/>
		</g>
	</g>
	<path class="st7" d="M180.6,356.1c-3.4-4.3-6.4-20.3-12.5-20.6c-4.7-0.3-5.1,5.8-5.1,9.3C160.9,363.6,192,371.4,180.6,356.1z"/>
	<path class="st10" d="M1183,179.3c0,0,80.9,18.9,87.1,81.9c4,40.4-20.9,468.8-37.6,490s-60,36.8-105.3,34.1
		C1134.9,742.4,1183,179.3,1183,179.3z"/>
	<path class="st11" d="M497.5,913.7c0,0-112.1,0.2-67.6,17.3s566.6,35.9,638.8-8.7S497.5,913.7,497.5,913.7z"/>
	<path class="st12" d="M1133.2,171L432,189.8c-92.7,3.8-116.5,55.9-116.5,104L345,715.2c0,48,871.6,48,871.6,0l28.1-450.3
		C1244.7,193.5,1181.3,171,1133.2,171z"/>
	<path class="st13" d="M1137.1,186.8l-698.2,13.9c-90.7,3.7-110.6,47-110.6,94l21.5,417.6c0,47,863.7,46,863.7-1.1l15.2-443.3
		C1228.7,198,1184.2,186.8,1137.1,186.8z"/>
	<g id="Artwork_35">
		<polygon class="st14" points="1163,693.2 399.8,701.2 382.3,305.1 1183,279.4 		"/>
		<path class="st15" d="M1186.2,226.3c-9-6.2-802,23.3-806.2,28.1s-2.6,48.5,2.3,50.7s797.9-21.9,801.3-25.8
			S1195.2,232.5,1186.2,226.3z"/>
		<path class="st16" d="M485.6,343.3c-2.4,12.1-13.8,14.3-21.6,15s-14.4-7.9-14.5-14.6s8.6-22.9,21.2-19
			C483,328.5,488,331.1,485.6,343.3z"/>
		<path class="st17" d="M480.7,383.4c0.9,5.4-3.2,7.5-7.5,7.6s-8.8-3.4-7.9-7.1s3.2-7.5,7.4-7.6S479.8,378,480.7,383.4z"/>
		<path class="st17" d="M481.5,409.4c0.8,3.2-3.2,7.4-7.4,7.5s-6.9-1.8-7.9-7.1s4.2-6.5,7.4-7.5S480.7,406.2,481.5,409.4z"/>
		<path class="st17" d="M483.1,456.9c0,4.1-3.2,7.4-7.3,7.4c0,0,0,0,0,0h-0.1c-4.1,0.2-7.6-2.9-7.9-7c0-4.1,3.2-7.4,7.3-7.4
			c0,0,0,0,0,0h0.1C479.3,449.7,482.8,452.8,483.1,456.9z"/>
		<path class="st17" d="M483.9,482c0,4-3.2,7.3-7.2,7.4c0,0,0,0,0,0h-0.1c-4.1,0.2-7.6-2.9-7.9-7c0-4,3.2-7.3,7.2-7.3c0,0,0,0,0,0
			h0.1C480.2,474.8,483.7,477.9,483.9,482z"/>
		<path class="st17" d="M484.8,507c0,4-3.2,7.3-7.2,7.3c0,0,0,0,0,0h-0.1c-4.1,0.2-7.6-2.9-7.8-7c0-4,3.2-7.3,7.2-7.3c0,0,0,0,0,0
			h0.1C481,499.8,484.5,502.9,484.8,507z"/>
		<path class="st17" d="M485.6,531.8c0,4-3.2,7.2-7.2,7.3c0,0,0,0,0,0h-0.1c-4.1,0.2-7.5-2.9-7.8-7c0-4,3.2-7.2,7.2-7.3c0,0,0,0,0,0
			h0.1C481.9,524.6,485.3,527.8,485.6,531.8z"/>
		<path class="st17" d="M486.4,556.5c0,4-3.2,7.2-7.2,7.2c0,0,0,0,0,0h-0.1c-4,0.2-7.5-2.9-7.8-6.9c0-4,3.2-7.2,7.1-7.2c0,0,0,0,0,0
			h0.2C482.7,549.4,486.1,552.5,486.4,556.5z"/>
		<path class="st17" d="M487.2,581.1c0,3.9-3.2,7.1-7.1,7.2h0h-0.1c-4,0.2-7.5-2.9-7.8-6.9c0-3.9,3.2-7.1,7.1-7.2c0,0,0,0,0,0h0.2
			C483.5,574,486.9,577.1,487.2,581.1z"/>
		<path class="st17" d="M488,605.5c0,3.9-3.2,7.1-7.1,7.1h-0.2c-4,0.2-7.4-2.9-7.7-6.9c0-3.9,3.2-7.1,7.1-7.1h0.2
			C484.3,598.4,487.7,601.5,488,605.5z"/>
		<path class="st17" d="M488.8,629.8c0,3.9-3.1,7-7,7h-0.2c-4,0.2-7.4-2.8-7.7-6.8c0-3.9,3.1-7,7-7h0.2
			C485.1,622.7,488.5,625.8,488.8,629.8z"/>
		<polygon class="st18" points="544,629 505.4,629.5 505.5,633.6 544.2,633 		"/>
		<polygon class="st18" points="543.4,603.9 504.6,604.5 504.7,608.6 543.5,608 		"/>
		<polygon class="st18" points="542.7,578.7 503.8,579.3 503.9,583.5 542.8,582.8 		"/>
		<polygon class="st18" points="542,553.3 503,554 503.1,558.2 542.2,557.5 		"/>
		<path class="st18" d="M541.4,527.8c-1.9-1.7-39.2,0.8-39.2,0.8l0.1,4.2c0,0,37.4-0.3,39.1-0.8S543.3,529.5,541.4,527.8z"/>
		<path class="st18" d="M540.7,502.1c-2.4-1.7-39.3,0.8-39.3,0.8l0.1,4.2c0,0,37-1.2,39.3-0.8S543.1,503.8,540.7,502.1z"/>
		<path class="st18" d="M540,476.3c-2.4-1.3-37-0.6-39.4,0.9s-1.7,3.9,0.1,4.2s37.9-0.8,39.4-0.9S542.4,477.6,540,476.3z"/>
		<path class="st19" d="M835.5,352.5c-10.3,2.9-262.6,12.6-268.6,7.7s-8.3-38.6-1-44.3s264.7-15.9,270-8.4S845.7,349.6,835.5,352.5z
			"/>
		<path class="st18" d="M539.3,450.3c-1.9-1.9-39.5,1-39.5,1s-2.1,1.8,0.1,4.3s41.5-2,39.5-0.9C540.8,453.9,541.2,452.1,539.3,450.3
			z"/>
		<path class="st18" d="M538.1,404.6c0,0-36.9-0.6-39.7,1s0.1,4.3,0.1,4.3s33.5,1.5,39.7-1S538.1,404.6,538.1,404.6z"/>
		<path class="st18" d="M537.5,380c0,0-36.8,0.4-39.9,1.1s0.1,4.3,0.1,4.3s34.7,1.1,39.8-1.1S537.5,380,537.5,380z"/>
		<path class="st18" d="M551.5,335.5c-3.8-2.3-49.8-0.5-55.2,1.7s0.2,6,0.2,6s51.3,0.6,55.2-1.6S555.3,337.7,551.5,335.5z"/>
		<path class="st18" d="M679.1,331.1c-3.8-2.3-49.8-0.5-55.2,1.7s0.2,6,0.2,6s51.3,0.6,55.2-1.6S683,333.3,679.1,331.1z"/>
		<path class="st19" d="M832.9,663.2c-13.9,12.3-245.6,15.9-259,3.2s-15-283.1-6.7-290.3s261.9-20.3,268.1-7.5
			S846.8,650.9,832.9,663.2z"/>
		<path class="st18" d="M812.4,434c-3.9,1.9-228.7,7-232.5,5.7s-4.2-9.8-0.2-11.1s229.5-8.8,232.8-5.9S816.3,432.1,812.4,434z"/>
		<path class="st19" d="M744.9,284.7c-2.3,2.8-255.8,9.5-258.7,8.4s-2.8-18.4-0.6-19.8s256.8-10.7,259.3-8.7
			S747.2,281.9,744.9,284.7z"/>
		<path class="st20" d="M480.8,293c-0.5,2-17.6,2.2-20,0.7s-1.6-17.3-0.7-18.7s17.3-5.3,20-0.7S481.4,291,480.8,293z"/>
		<path class="st19" d="M1075,269.2c-1.6,1.5-40.8,3.3-44.2,1.5s-1-7.1,0.2-7.8s43-2.3,44.3-1.5S1076.6,267.8,1075,269.2z"/>
		<path class="st19" d="M1021.1,271c-1.8,0.1-40,3.3-44,1.5s-1-6.3,0.2-7.8s42-2.6,44-1.5S1022.9,270.9,1021.1,271z"/>
		<path class="st19" d="M1112.2,265c-2,6-4.5,9.3-10.8,9.5s-11.6-4.8-11-10.4s7-13,12.3-11.2S1114.2,259,1112.2,265z"/>
		<path class="st21" d="M1158.5,305c-5.4-11.7-149.8-1.1-157.8,7.6s-22,356.4-11.5,371.5s133.3,15.4,147.8,0.2
			S1164,316.7,1158.5,305z"/>
		<path class="st16" d="M610.6,338.1c1.1,7.9-7.6,17-17.2,17.3s-17.9-3.4-17.9-16.2s7.5-17,17.2-17.3S609.5,330.1,610.6,338.1z"/>
		<path class="st16" d="M611.8,401.7c3.6,8.3-1,15.3-14.5,15.3s-15.1-5.1-17.7-13.2s3.3-18,14.4-18.1S608.2,393.4,611.8,401.7z"/>
		<path class="st18" d="M679.1,392c-3.8-2.3-49.8-0.5-55.2,1.7s0.2,6,0.2,6s51.3,0.6,55.2-1.6S683,394.3,679.1,392z"/>
		<path class="st18" d="M1139.8,404.5c-3.8-2.3-49.8-0.5-55.2,1.7s0.2,6,0.2,6s51.3,0.6,55.2-1.6S1143.7,406.8,1139.8,404.5z"/>
		<path class="st18" d="M1139.8,441c-3.8-2.3-49.8-0.5-55.2,1.7s0.2,6,0.2,6s51.3,0.6,55.2-1.6S1143.7,443.3,1139.8,441z"/>
		<path class="st18" d="M1139.8,477.5c-3.8-2.3-49.8-0.5-55.2,1.7s0.2,6,0.2,6s51.3,0.6,55.2-1.6S1143.7,479.8,1139.8,477.5z"/>
		<path class="st18" d="M1139.5,515.5c-5.7-2.5-74.3-2.7-82.4-0.7s0.1,6,0.1,6s76.5,2.8,82.4,0.7S1145.2,517.9,1139.5,515.5z"/>
		<path class="st18" d="M1138.5,552c-5.7-2.4-74.3-2.7-82.4-0.7s0.1,6,0.1,6s76.5,2.8,82.4,0.7S1144.1,554.4,1138.5,552z"/>
		<path class="st18" d="M1137.4,588.4c-5.7-2.5-74.3-2.7-82.4-0.7s0.1,6,0.1,6s76.5,2.8,82.4,0.7S1143.1,590.9,1137.4,588.4z"/>
		<path class="st22" d="M944.3,395.3c-2.8,9.5-84,11.9-91.4,0.9c-11.9-17.5,0.6-81.1,0.9-87.6s82.5-22.9,92.1-1.3
			S947.1,385.8,944.3,395.3z"/>
		<path class="st19" d="M930.5,498.9c-9.3,4.7-78.7,0-78.7,0s-6.2-81.5,0.9-85.5s73.8-3.9,79.4-0.3S939.9,494.2,930.5,498.9z"/>
		<path class="st23" d="M872.2,358.7c-0.8-0.5-1.5-1.3-1.9-2.2c-0.5-1-0.7-2.2-0.7-3.4c0-2.2,0.5-4.3,1.5-6.2
			c0.9-1.9,2.4-3.5,4.2-4.6c2-1.2,4.3-1.8,6.7-1.7c0.7,0,1.5,0.1,2.2,0.1c0.7,0.1,1.4,0.2,2.1,0.5c0.4,0.1,0.7,0.5,0.6,0.9
			c0,0.4-0.2,0.8-0.4,1.1c-0.2,0.3-0.6,0.5-1,0.5c-0.1,0-0.2,0-0.3,0c-0.8-0.2-1.4-0.3-2-0.4c-0.6-0.1-1.1-0.1-1.7-0.1
			c-1.7-0.1-3.3,0.4-4.7,1.4c-1.3,0.9-2.3,2.1-2.9,3.6c-0.7,1.5-1,3.1-1,4.8c-0.1,1,0.2,2,0.7,2.9c0.4,0.6,1.2,1,1.9,1
			c0.9,0,1.8-0.4,2.3-1.1c0.8-1.1,1.5-2.3,1.8-3.6c0.7-2.2,1.2-4.4,1.7-6.7c0-0.3,0.2-0.6,0.5-0.8c0.3-0.2,0.7-0.2,1-0.2
			c1,0,1.6,0.3,1.6,1c0,0.1,0,0.3-0.1,0.4c-0.4,1.4-0.7,3-1,4.7c-0.3,1.3-0.4,2.6-0.5,3.9c0,0.6,0.1,1.2,0.3,1.7
			c0.2,0.4,0.6,0.6,1.1,0.5c0.5,0,1-0.2,1.3-0.5c0.6-0.5,1.1-1,1.6-1.6c0.1-0.2,0.4-0.3,0.6-0.3c0.2,0,0.4,0.1,0.5,0.3
			c0.1,0.2,0.2,0.5,0.2,0.7c0,0.5-0.1,1-0.4,1.4c-0.6,0.8-1.3,1.4-2.1,2c-0.8,0.5-1.6,0.7-2.5,0.7c-0.9,0-1.8-0.3-2.5-0.9
			c-0.7-0.7-1.1-1.6-1.2-2.5c-1.1,2.3-2.7,3.4-4.8,3.4C873.9,359.5,873,359.2,872.2,358.7z"/>
		<path class="st23" d="M891.7,359.3c-0.4,0-0.9-0.2-1.2-0.5c-0.2-0.3-0.3-0.7-0.3-1.1c0.2-1.8,0.4-3.6,0.7-5.4
			c0.4-2.1,0.8-4.2,1.4-6.2c0.1-0.3,0.3-0.6,0.6-0.8c0.4-0.2,0.8-0.2,1.2-0.2c0.9,0,1.3,0.3,1.3,0.8c0,0.2-0.1,0.5-0.1,0.7
			c-0.5,1.5-0.9,3.1-1.1,4.7c-0.4,1.9-0.6,3.7-0.8,5.6c0.4,0,0.9,0.1,1.5,0.1c2.6,0,4.5-0.8,5.8-2.3c1.3-1.8,2-4,1.9-6.2
			c0.1-1.5-0.5-2.9-1.5-4c-1.2-1-2.7-1.5-4.2-1.4c-1.2,0-2.4,0.2-3.5,0.5c-1.1,0.3-2.1,0.8-3.1,1.4c-0.2,0.1-0.4,0.2-0.6,0.2
			c-0.2,0-0.5-0.1-0.6-0.3c-0.2-0.2-0.2-0.5-0.2-0.8c0-0.3,0.1-0.6,0.2-0.9c0.1-0.3,0.3-0.5,0.6-0.6c1.1-0.7,2.3-1.3,3.6-1.6
			c1.3-0.3,2.6-0.5,3.9-0.5c1.6,0,3.2,0.3,4.6,0.9c1.3,0.6,2.3,1.5,3,2.7c0.7,1.3,1.1,2.8,1.1,4.4c0,2-0.4,4-1.3,5.8
			c-0.9,1.6-2.2,3-3.8,3.8c-1.9,0.9-3.9,1.4-6,1.4C893.6,359.5,892.6,359.4,891.7,359.3z"/>
		<path class="st23" d="M910.8,358.4c-1.2-0.7-1.8-2-1.8-3.4c0-0.6,0.1-1.3,0.4-1.9c0.3-0.4,0.7-0.7,1.2-0.6c0.4,0,0.7,0.1,1,0.3
			c0.2,0.2,0.4,0.5,0.4,0.8c0,0.3,0,0.5-0.1,0.8c0,0.1,0,0.2,0,0.3c0,0.2,0,0.3,0,0.5c0,0.6,0.4,1.2,1,1.5c0.9,0.4,1.8,0.5,2.8,0.5
			c1,0.1,2-0.2,2.9-0.7c0.7-0.4,1.1-1.1,1.1-1.9c0-0.5-0.2-0.9-0.5-1.3c-0.3-0.4-0.7-0.7-1.2-0.9c-0.5-0.2-1.2-0.5-2-0.9
			c-0.9-0.4-1.9-0.8-2.8-1.3c-0.7-0.4-1.3-0.9-1.8-1.6c-0.5-0.7-0.8-1.6-0.8-2.5c0-1,0.3-2,0.8-2.8c0.6-0.9,1.5-1.5,2.4-1.9
			c1.2-0.5,2.5-0.7,3.8-0.7c1,0,2,0.1,2.9,0.5c0.8,0.3,1.6,0.8,2.1,1.4c0.5,0.7,0.8,1.5,0.8,2.4c0,0.7-0.1,1.4-0.4,2.1
			c-0.2,0.4-0.7,0.7-1.2,0.7c-0.4,0-0.7-0.1-1-0.4c-0.2-0.2-0.4-0.5-0.4-0.8c0-0.3,0-0.5,0.1-0.8c0-0.3,0-0.6,0.1-0.8
			c0-0.6-0.3-1.2-0.9-1.4c-0.7-0.3-1.5-0.5-2.2-0.5c-1-0.1-2,0.2-2.9,0.7c-0.7,0.4-1.1,1.2-1,2c0,0.5,0.2,1,0.5,1.4
			c0.4,0.4,0.8,0.8,1.3,1c0.5,0.3,1.2,0.6,2.2,1c0.9,0.4,1.8,0.8,2.7,1.2c0.7,0.4,1.3,0.9,1.7,1.5c0.5,0.7,0.7,1.5,0.7,2.3
			c0.1,1.6-0.7,3.1-2,4c-1.6,1-3.4,1.5-5.3,1.4C913.9,359.7,912.3,359.3,910.8,358.4z"/>
		<path class="st19" d="M919.9,598l-69.1,1c0,0-7.2-82,0.9-83.4s69.8-1.4,69.8-1.4L919.9,598z"/>
		<path class="st24" d="M1073.8,349.5c0.3-0.6,0.8-1.2,1.3-1.7c0.5-0.5,1.3-0.6,2-0.4c0.4,0.2,0.7,0.5,0.9,0.8
			c3.5,4,10.8,10.2,9.7,12.6s-7.2-0.2-10.8-0.4c-2.1-0.1-8.6,0.7-9.9-0.9C1068.9,356.1,1071.7,352.9,1073.8,349.5z"/>
		<path class="st25" d="M1082.9,353.1c24.3-10.1,21.9,9.5,9.1,9.7S1082.9,354.6,1082.9,353.1z"/>
		<path class="st26" d="M1076,372.8c0.3,0.9,0.4,2-0.3,2.6c11.5-0.8,21.2,4.9,16.4-11.1C1086.3,366.9,1070.9,361.3,1076,372.8z"/>
		<path class="st24" d="M882.3,443.6c0.3-0.6,0.8-1.2,1.3-1.7c0.6-0.5,1.3-0.6,2-0.4c0.4,0.2,0.7,0.5,0.9,0.8
			c3.5,4,10.8,10.2,9.7,12.6s-7.2-0.2-10.8-0.4c-2.1-0.1-8.6,0.7-9.9-0.9C877.3,450.1,880.2,447,882.3,443.6z"/>
		<path class="st25" d="M891.4,447.3c24.3-10.1,21.9,9.5,9.1,9.8S891.4,448.8,891.4,447.3z"/>
		<path class="st26" d="M884.5,467c0.3,0.9,0.4,2-0.3,2.6c11.5-0.8,21.2,4.9,16.4-11.1C894.7,461,879.4,455.4,884.5,467z"/>
		<path class="st24" d="M873.1,544.5c0.3-0.6,0.8-1.2,1.3-1.7c0.5-0.5,1.3-0.6,2-0.4c0.4,0.2,0.7,0.5,0.9,0.8
			c3.5,4,10.8,10.2,9.7,12.5s-7.2-0.2-10.8-0.3c-2.1-0.1-8.6,0.7-9.9-0.8C868.1,551.2,871,548,873.1,544.5z"/>
		<path class="st25" d="M882.2,548.2c24.3-10.1,22,9.5,9.1,9.7S882.2,549.7,882.2,548.2z"/>
		<path class="st26" d="M875.3,567.9c0.3,0.9,0.4,2-0.3,2.6c11.5-0.8,21.2,4.9,16.4-11.1C885.5,562,870.2,556.4,875.3,567.9z"/>
	</g>
	<path class="st27" d="M345,711.2v23.3c0,37.4,59.2,73.9,96.6,73.9l44.4-1.5c65.4-27.5,134.8-54.3,192.2-95.7H345z"/>
	<path class="st28" d="M678.2,711.2c-57.4,41.4-126.8,68.3-192.2,95.7l52.1-1.7c63-20.1,114.1-55.3,167.4-94L678.2,711.2z"/>
	<path class="st27" d="M705.4,711.2C652.1,749.8,601,785,538,805.2l189.4-6.3c58.4-24,112.9-55.5,168.7-87.6L705.4,711.2z"/>
	<path class="st28" d="M1076.3,711.2H896.1c-55.8,32.1-110.3,63.7-168.7,87.6l251.4-8.4c15.4-8.8,30.9-18,46.6-28.4
		C1047.6,747.7,1059.6,728.3,1076.3,711.2z"/>
	<path class="st28" d="M1179.9,711.2c-17.4,27.6-38.5,52.7-62.6,74.6c37.7-0.7,99.2-14.9,99.2-51.3v-23.3H1179.9z"/>
	<path class="st27" d="M1179.9,711.2h-103.7c-16.6,17.1-28.7,36.5-50.8,50.8c-15.7,10.5-31.2,19.6-46.6,28.4l135.6-4.5h2.9
		C1141.4,763.9,1162.5,738.7,1179.9,711.2z"/>
	<path class="st29" d="M666.7,893.6c53.7,25.5,115.5,22.8,176,13.4c15-2.8,34.7-13.5,41.9-29.4c-67.1-1.1-152.8,0.6-217.7,3.7
		C664.5,887,663.6,892.2,666.7,893.6z"/>
	<path class="st27" d="M987.9,885.5c-12.1-4.6-52.3-7-103.3-7.8c-7.2,15.8-26.8,26.6-41.9,29.4c-60.5,9.4-122.3,12.1-176-13.4
		c-3.1-1.5-2.2-6.7,0.2-12.3c-50.4,2.4-88.2,5.7-94.9,9.1c-21.9,11.4,1.7,40.5,1.7,40.5h414.3C987.9,931,1028.3,900.9,987.9,885.5z"
		/>
	<path class="st30" d="M799.7,856c20.5-13.6,22.5-37,24.7-60.5l-119.1,4l5.7,71.8C741.8,874.5,774.3,872.2,799.7,856z"/>
	<path class="st31" d="M824.4,795.6c-2.2,23.4-4.3,46.8-24.7,60.4c-25.5,16.2-57.9,18.4-88.7,15.3l1.1,14.2h137.3l3.8-90.9
		L824.4,795.6z"/>
	<ellipse class="st19" cx="772.9" cy="749.4" rx="19.1" ry="16.3"/>
	<path class="st32" d="M816,586.7c1.1-43.6-2.6-111.2-3.8-124.9c-1.8-20-216-4.9-220.8-3.4s-4.8,5-4.8,5s0.7,84.5,2.1,132.5
		c13.5-7.9,28.8-10.1,43-11.3C693,581,756.4,572.8,816,586.7z"/>
	<path class="st33" d="M631.8,584.6c-14.2,1.2-29.5,3.4-43,11.3c0.5,17.5,1.2,30.2,1.9,32.1c2.8,7,209.2,2.5,219.9-3.8
		c3.4-2,5-17.2,5.5-37.5C756.4,572.8,693,581,631.8,584.6z"/>
	<path class="st34" d="M745.8,477.7c-0.9-0.3-1.8-0.6-2.5-1c-0.7-0.3-1.4-0.7-2-1.2c-0.5-0.5-1-1-1.3-1.7c-0.3-0.8-0.5-1.6-0.5-2.4
		c-0.1-1.7,0.7-3.3,2.1-4.3c1.7-1.2,3.8-1.8,5.9-1.6c0.9,0,1.7,0.1,2.6,0.2c0.7,0.1,1.4,0.3,2,0.6c0.5,0.2,1,0.6,1.3,1
		c0.3,0.4,0.5,0.9,0.5,1.5c0,0.5-0.1,1-0.4,1.4c-0.2,0.4-0.6,0.7-0.9,1c-0.6-0.3-1.2-0.6-1.9-0.8c-0.8-0.2-1.7-0.4-2.6-0.4
		c-0.7-0.1-1.5,0.1-2.1,0.4c-0.4,0.2-0.6,0.6-0.7,1c0,0.3,0.2,0.6,0.4,0.8c0.4,0.3,0.8,0.4,1.2,0.6l1.7,0.5c1.7,0.5,3.3,1.3,4.6,2.4
		c1.1,1,1.7,2.5,1.6,4c0,1.7-0.8,3.4-2.1,4.4c-1.4,1.1-3.5,1.7-6.3,1.7c-0.9,0-1.8-0.1-2.7-0.2c-0.8-0.1-1.5-0.4-2.2-0.7
		c-0.6-0.3-1.1-0.7-1.5-1.1c-0.3-0.5-0.5-1-0.5-1.6c0-0.6,0.2-1.1,0.5-1.6c0.3-0.4,0.7-0.7,1.2-1c0.7,0.5,1.4,0.9,2.2,1.2
		c0.9,0.3,1.9,0.5,2.8,0.5c0.8,0.1,1.5-0.1,2.2-0.5c0.4-0.2,0.6-0.7,0.6-1.1c0-0.4-0.2-0.8-0.5-1c-0.5-0.3-0.9-0.5-1.4-0.7
		L745.8,477.7z"/>
	<path class="st34" d="M764.2,469.4c1.1,0,2.1,0.1,3.2,0.4c0.9,0.2,1.7,0.6,2.4,1.1c0.7,0.5,1.2,1.1,1.5,1.8
		c0.4,0.8,0.6,1.7,0.5,2.6v7.1c0,0.5-0.1,1-0.5,1.4c-0.3,0.4-0.7,0.7-1.1,0.9c-1.8,0.9-3.8,1.4-5.8,1.3c-1,0-2-0.1-3-0.3
		c-0.8-0.2-1.6-0.5-2.3-1c-0.6-0.4-1.1-1-1.5-1.6c-0.4-0.7-0.5-1.5-0.5-2.3c-0.1-1.3,0.4-2.5,1.3-3.4c1.2-0.9,2.6-1.4,4.1-1.5
		l4.2-0.4v-0.2c0-0.6-0.3-1.1-0.8-1.3c-0.7-0.3-1.5-0.4-2.3-0.4c-0.8,0-1.6,0.1-2.4,0.3c-0.7,0.2-1.4,0.4-2.1,0.6
		c-0.3-0.2-0.5-0.5-0.7-0.9c-0.2-0.4-0.3-0.8-0.3-1.2c0-0.5,0.1-0.9,0.4-1.3c0.3-0.4,0.8-0.7,1.2-0.8c0.7-0.3,1.4-0.4,2.2-0.5
		C762.6,469.4,763.4,469.4,764.2,469.4z M764.4,482c0.4,0,0.8,0,1.2-0.1c0.3,0,0.7-0.1,1-0.3V479l-2.3,0.2c-0.5,0-1,0.1-1.5,0.4
		c-0.4,0.2-0.6,0.6-0.6,1c0,0.4,0.2,0.8,0.5,1C763.3,481.9,763.8,482,764.4,482L764.4,482z"/>
	<path class="st34" d="M780.7,485.4l-1,0.2c-0.5,0.1-0.9,0.1-1.4,0.1c-0.4,0-0.8,0-1.3-0.1c-0.3-0.1-0.7-0.2-1-0.4
		c-0.3-0.2-0.5-0.5-0.6-0.8c-0.2-0.4-0.2-0.9-0.2-1.3v-18.5l1-0.2c0.5-0.1,0.9-0.1,1.4-0.1c0.4,0,0.8,0,1.3,0.1c0.4,0,0.7,0.2,1,0.4
		c0.3,0.2,0.5,0.5,0.6,0.8c0.2,0.4,0.2,0.9,0.2,1.3L780.7,485.4z"/>
	<path class="st34" d="M792.3,485.9c-1.2,0-2.4-0.2-3.5-0.5c-1-0.3-2-0.9-2.8-1.6c-0.8-0.7-1.5-1.6-1.9-2.6
		c-0.5-1.2-0.7-2.5-0.7-3.7c0-1.2,0.2-2.5,0.7-3.6c0.8-1.9,2.4-3.3,4.4-3.9c1-0.3,2-0.5,3-0.5c1,0,2.1,0.2,3.1,0.5
		c0.9,0.3,1.7,0.8,2.4,1.4c0.7,0.6,1.2,1.3,1.6,2.1c0.4,0.9,0.6,1.8,0.6,2.7c0,0.6-0.2,1.2-0.6,1.7c-0.5,0.4-1.1,0.7-1.7,0.7
		l-7.9,1.2c0.2,0.7,0.8,1.3,1.4,1.6c0.8,0.4,1.6,0.5,2.5,0.5c0.8,0,1.7-0.1,2.5-0.3c0.7-0.2,1.3-0.4,1.9-0.8
		c0.4,0.2,0.7,0.5,0.9,0.9c0.7,1.1,0.3,2.5-0.8,3.2L797,485c-0.7,0.4-1.5,0.6-2.3,0.7C793.9,485.8,793.1,485.9,792.3,485.9z
		 M791.4,473.4c-0.5,0-0.9,0.1-1.3,0.3c-0.3,0.2-0.7,0.4-0.9,0.7c-0.2,0.3-0.4,0.6-0.5,0.9c-0.1,0.3-0.2,0.7-0.2,1l5.5-0.9
		c-0.1-0.5-0.3-0.9-0.7-1.3C792.7,473.5,792.1,473.3,791.4,473.4L791.4,473.4z"/>
	<polygon class="st35" points="340.3,514.3 621.5,197 673.4,197 340.3,554.3 	"/>
	<polygon class="st35" points="344.7,598.6 709.5,195.3 966.6,189.2 345.5,629 	"/>
	<path class="st36" d="M637.5,602.4c0,0,21.6-38,138.1-16c15,3.8,26.2,7.6,19.5,8.8s-41.9,18.1-97.3,13.9
		C664,609.7,623.8,607.6,637.5,602.4z"/>
	<path class="st37" d="M692,503.8c0,0-4.2-42,12.3-36.3s16.5,37.7,14.7,40.5c-4.2-1.1-5.5-1.6-5.5-1.6s3.8-22.6-7-29.4
		S696,492,696.2,498.1l-0.1,6.1L692,503.8z"/>
	<path class="st38" d="M708.4,520.3c-17.2,0.7-35.7-0.2-52.1-5.7c-7.4,21-27.7,81.5-17,90.2c7.5,6.1,41.6,4.9,69,1.8
		C712.9,577.6,716.5,549.5,708.4,520.3z"/>
	<path class="st39" d="M744.8,598.9c0.1-5.1-16.5-76.4-18.9-86.4s-66.4-11.2-67.1-5.1c0,0-1,2.7-2.6,7.1c16.5,5.5,34.9,6.5,52.1,5.7
		c8.2,29.2,4.5,57.2-0.1,86.2C728.3,604.3,744.8,601.1,744.8,598.9z"/>
	<path class="st40" d="M662.2,507.9c0,0,39.4,3.8,48.2,8.3c8.7,4.5,2.7-4.8,6.8-4s7.2,3,6,0.5s-45.3-8.4-48.8-7.2s-6.6,1.8-8.9,1.2
		S658.2,505.9,662.2,507.9z"/>
	<path class="st12" d="M723.4,515.1c0,0,20.7,82.2,17.3,82.4s-9.5-6.5-9.5-17.2S719.4,511.7,723.4,515.1z"/>
	<path class="st12" d="M714.7,520.7c0,0,6.1,75,3.4,78.8s6.8,3.8,9,0s2.9-8.1,2.5-14.9s-6.5-63.4-8.8-63.9S714.4,516.2,714.7,520.7z
		"/>
	<path class="st41" d="M670.3,522.3c0,0-7.2-53.7,9.7-54.9s29.1,33.2,24.4,54.9c-2.5,7.9-3.8,3.2-5.4,0s6.1-25.7-5.6-40.9
		s-19.2-4.7-19.2,3.2s4.3,37.9,3.2,40S670.8,527,670.3,522.3z"/>
	<path class="st42" d="M616.3,582.6c0,0-11.5-1.5-10.8,7.5s10.8,6.8,10.8,6.8s7.3,0,7.3,5.3s-11.7,6-15.2,3.3
		c-0.7-2,4.7-2.6,6.2-1.8s9.6-2.2,3.8-4.1s-10.1,0.2-12.8-3.6s-3.7-14.4,4-15.1S619.4,581.2,616.3,582.6z"/>
	<path class="st42" d="M611.3,576.8c0.5,5.1,1,43.5,3.2,43.3s0.1-43.4-1.1-44.7S611.2,575.1,611.3,576.8z"/>
	
		<linearGradient id="SVGID_7_" gradientUnits="userSpaceOnUse" x1="600.988" y1="153.2878" x2="418.088" y2="320.5178" gradientTransform="matrix(1 0 0 1 0 310)">
		<stop  offset="0" style="stop-color:#FFC7D0"/>
		<stop  offset="1" style="stop-color:#E65E75"/>
	</linearGradient>
	<path class="st43" d="M461.6,532.5c0,0,34.1,56.7,66.2,55.3s42.4-43.7,43.2-50.7c8.3-0.3,20-6.4,9.1-17.1c0-5.3,14.7,1.8,14.7-0.5
		s-12.9-9.9-20.3-6.6c-8.8,4-12.7,10.2-13.2,15.3c-0.7,6.7-37.3,70.3-61.1-14.4l-8.6-18.6C491.6,495.3,456.7,523,461.6,532.5z"/>
	<g class="st44">
		<path class="st45" d="M1136.4,1032.2c-2.2,31.2-127.8,30.8-165.1,32.1S754,1046.7,755.5,1026S1138.6,1001.1,1136.4,1032.2z"/>
	</g>
	<path class="st46" d="M857.7,1004.5c-0.6-8.7,7.5-14.2,16.6-16.5c12.2-3.1,33.2,9.7,33.2,9.7c7.2-0.6,8-11.1,8-11.1l16.2,2.9
		c0,0,2.3,24.3-2.8,35.6C903.6,1028.2,875.2,1022.1,857.7,1004.5z"/>
	<path class="st47" d="M928.8,1025.2c-1.6,3.5-3.8,5.8-7.1,5.8c-13.8-0.2-50.4-2.2-60.2-16.6c-2.1-2.9-3.5-6.2-3.9-9.8
		C875.2,1022.1,903.6,1028.2,928.8,1025.2z"/>
	<path class="st34" d="M897.1,986c0,0,2.7,17.5,0.6,13.2s-4.8-15.1-8.3-15.5s-2,12-5.7,10.9s0.6-13.4-2.7-13.6s-4.8,11-6.9,10.7
		c2.2,0.6,5-6.1,5.8-8.5s2.1-0.5,1.7,1.2s-2.3,11.1,2.1,11.3s4.9-8,5.1-8.7s1.6-2.1,2.5-0.3s4.9,15.1,7.3,14.9
		S899.3,989.4,897.1,986z"/>
	<path class="st30" d="M946.3,696.8c5.3-31.9,23.7-57.9,29.7-88.5c-22.5-4.4-38.8,4.4-39.7,16.6c0,0-24.2,43.8-28.3,108.8
		c-6.6,103.5,4.2,240.3,7.5,257.2c16,10.2,15.9,3.7,15.9,3.7s24.3-26,29.3-85.6c-7.6-14.4-14.4-29.2-18.8-45.1
		C925.4,808.7,935.9,753.5,946.3,696.8z"/>
	<path class="st48" d="M960.3,860.7c-0.8-9-2-18.6-3.7-28.6c1.8-3.7,3.8-8.2,6.1-13.3c23.4-53.7,67.2-176.4,62.2-196.3
		c-3.7-1.3-7.4-2.7-11.3-4c-5.5-1.9-11.2-3.6-16.9-5.2c-7-2-14-3.7-20.6-5c-6,30.6-24.4,56.6-29.7,88.5
		c-10.4,56.7-20.9,111.9-4.5,167c4.4,16,11.3,30.7,18.8,45.1C961.9,892.9,961.8,876.7,960.3,860.7z"/>
	<path class="st47" d="M1082.2,1003.2c2.6,5.6,3.4,10.7-0.1,13.5c-10.8,8.6-40.4,30.2-57.1,25.2c-5.7-1.7-9.2-4.4-11-7.6
		C1041,1034.2,1066.9,1027.1,1082.2,1003.2z"/>
	<path class="st46" d="M1018.2,1013.4c7.5-10.1,31.8-13.5,31.8-13.5c5.2-5.1-0.8-13.6-0.8-13.6l14.4-8c0,0,13.2,13.4,18.6,24.8
		c-15.3,23.9-41.2,31-68.2,31.1C1010.5,1028.2,1013.3,1020,1018.2,1013.4z"/>
	<path class="st48" d="M1023.8,728.2c-6,34.3-25.3,71.6-11.9,101.4c15.6,33.2,21.8,79.5,44.2,110.1
		c-12.3-42.6-30.8-105.2-35.8-113.9c10-49.7,37.3-181.3,12-201.1c-2.4-0.3-4.7-0.7-7-1.1C1026.2,657.9,1030.7,692.4,1023.8,728.2z"
		/>
	<path class="st30" d="M1011.9,829.6c-13.4-29.8,6-67.1,11.9-101.4c6.9-35.8,2.3-70.2,1.6-104.6c-42.1-7.4-53.9-27.5-58.9-10.8
		c0,0-23.3,204.4,4.5,249.3s74.5,126.4,74.5,126.4l21.9-9c0,0-4.8-17.1-11.4-39.9C1033.7,909.1,1027.5,862.8,1011.9,829.6z"/>
	<path class="st34" d="M1041,994.8c0,0,12.6,12.4,8.4,10.3s-12.9-9.2-15.9-7.4s5.5,10.8,1.9,12.2s-7.5-11.2-10.3-9.3
		s2.7,11.6,0.8,12.7c2.1-0.8,0.4-7.9-0.5-10.3s1.4-1.6,2.1-0.1s4.8,10.3,8.4,7.8s-0.8-9.3-1.1-10s0.1-2.6,1.8-1.8s13,9.1,14.7,7.6
		S1044.8,996.2,1041,994.8z"/>
	<path class="st50" d="M980.1,519.4c-0.5-6.8,0.1-25.5-17.8-25s-19.2,1-19.2,5.5s-6.2,10.8-29.1,22.5c-30,15.3-102-2.7-102-2.7
		s-1.7,12.6,3.5,13.4s70.7,33.2,104.6,18.8S980.5,526.2,980.1,519.4z"/>
	<path class="st51" d="M969.9,473.2c-0.6-0.2-1.1-0.2-1.7-0.1c-9.8,0-18.4,5-19.8,6.8s-10,5-11.5,38.2
		c-0.7,38.8-42.9,120.9-17.7,134.6c7.9,4.3,29.5,9.7,42.3,5.8s55.8,3.5,77.6-11.3c-2.7-12-7.3-23.4-13.8-33.8
		C998,568.9,980.5,523.1,969.9,473.2z"/>
	<path class="st52" d="M1035.1,618.5c0,0-46.4-139.5-65.2-145.3c10.6,49.8,28.2,95.7,55.4,140.1c6.5,10.4,11.1,21.9,13.8,33.8
		c1.3-0.8,2.5-1.7,3.7-2.7C1052.3,636.6,1035.1,618.5,1035.1,618.5z"/>
	
		<linearGradient id="SVGID_8_" gradientUnits="userSpaceOnUse" x1="4249.1411" y1="-38.3888" x2="4278.5234" y2="-38.3888" gradientTransform="matrix(-0.99 0.11 0.11 0.99 5186.7202 37.7)">
		<stop  offset="0" style="stop-color:#FFC7D0"/>
		<stop  offset="1" style="stop-color:#E65E75"/>
	</linearGradient>
	<path class="st53" d="M934.4,460.7c0,0,14.3,23,15.4,30.4c12.4-1.1,16.9-8.5,16.1-11c-15.2-17.7-20.7-26.2-21.5-29.7
		S933.7,455.8,934.4,460.7z"/>
	
		<linearGradient id="SVGID_9_" gradientUnits="userSpaceOnUse" x1="4438.6538" y1="-790.8557" x2="4474.5137" y2="-790.8557" gradientTransform="matrix(-0.9982 5.982891e-02 5.982891e-02 0.9982 5429.478 980.1052)">
		<stop  offset="0" style="stop-color:#FFC7D0"/>
		<stop  offset="1" style="stop-color:#E65E75"/>
	</linearGradient>
	<path class="st54" d="M912.4,441.5c0,0-2,32.6,15,36.4c13.9-0.7,23.7-21.8,20.4-33.6C925.3,433.4,913,438.7,912.4,441.5z"/>
	<path class="st55" d="M900.7,434.1c0,0,4.7,13.8,35.1,11.9c7.1,8.7,9.1,19.1,10.9,21.3s10.2,1.5,12.7-1.8s-8-13.5-4.9-22
		s-0.2-15.9-13.4-15.6S894.9,419.6,900.7,434.1z"/>
	<path class="st55" d="M930.5,444c0,0,3.8,19.5-2.4,23.1c-3.1,2-6.5,3.6-10,4.8c0,0,3.1,10.9,18.3,4.5c4.7-1.9,5.1-3.3,5.1-3.3
		c-5.3-4.3-8.3-10.8-7.9-17.6c0.4-11.9,3.3-13.2,3.3-13.2S929.9,436,930.5,444z"/>
	
		<linearGradient id="SVGID_10_" gradientUnits="userSpaceOnUse" x1="4257.6201" y1="131.1113" x2="4282.6602" y2="131.1113" gradientTransform="matrix(-0.76 0.65 0.65 0.76 3959.3254 -2365.6772)">
		<stop  offset="0" style="stop-color:#FFC7D0"/>
		<stop  offset="1" style="stop-color:#E65E75"/>
	</linearGradient>
	<path class="st56" d="M793.9,513.7c-16.6-2.4-21.8-13.6-22.3-9.3s16.3,11.1,13.7,18.8s9.2,11.6,18.7,8.7
		C824.3,525.8,810.5,516.1,793.9,513.7z"/>
	<path class="st19" d="M813.4,512.3l-9.8,2.6l1.5,19.2c0,0,9,5.1,9.8,2.3s-2.8-18.3-0.9-19.5S815,511.8,813.4,512.3z"/>
	<path class="st57" d="M905.5,656.6l0.5,2c0,0,59.1,13,72.2-10.6c17.6-31.7,15.2-81.2,11.4-106.4c-1-7.6-2.6-15.2-4.6-22.6
		c-13.7,32.5,3.4,73-8.1,108.8C967.2,659,933.9,657.7,905.5,656.6z"/>
	<path class="st16" d="M949.7,503.9c-29.3,19.6,8.2,59.2,0,105.6c-8.3,47.2-46.6,37-46.6,37l2.3,10.2c28.4,1.1,61.7,2.4,71.4-28.9
		c11.5-35.7-5.6-76.3,8.1-108.8C979.8,501.9,970.4,490,949.7,503.9z"/>
	
		<linearGradient id="SVGID_11_" gradientUnits="userSpaceOnUse" x1="3437.3135" y1="2199.98" x2="3461.3235" y2="2199.98" gradientTransform="matrix(-0.22 0.97 -0.97 -0.22 3782.74 -2229.2)">
		<stop  offset="0" style="stop-color:#FFC7D0"/>
		<stop  offset="1" style="stop-color:#E65E75"/>
	</linearGradient>
	<path class="st58" d="M902.4,659.8c0,0-32.7,1.9-34.9-13.2s16.2-10.5,22.9-4.5c0.8,0.7-5.1-6-1.8-6.9s12.7,10.5,13.7,12.1
		C903.5,649,906.8,658.9,902.4,659.8z"/>
	<path class="st19" d="M909.7,632.3l-13.4,9l9.3,30.5c0,0,15,3.9,15.1-1.1s-10.8-28.3-8.5-31.3S911.9,630.8,909.7,632.3z"/>
	<path class="st16" d="M942.1,502.1c0,0,0.3-7.2,7.3-8.1s20.7-4.6,20.5-7.8s1.7-9.3-3.8-11.3s-5.2,3.1-5.2,4.7s-5.5,7.9-13.8,8.8
		c-3.2,1.5-6.1,10.1-6.1,13.8C941.2,503.8,942.1,502.1,942.1,502.1z"/>
	<path class="st59" d="M1022.3,663c2.1,3.8,1.4,8.3,1.7,12.5c0,0.5,0.8,0.5,0.7,0c-0.3-4.3,0.4-8.9-1.8-12.9
		C1022.7,662.2,1022,662.7,1022.3,663z"/>
	<path class="st59" d="M1021.6,657.3v1.1c0,0.2,0.2,0.3,0.4,0.3c0.2,0,0.3-0.2,0.3-0.3v-1.1c0-0.2-0.2-0.3-0.4-0.3
		C1021.7,657,1021.6,657.1,1021.6,657.3z"/>
	<path class="st59" d="M1024.6,678.9v5.9c0,0.2,0.2,0.3,0.4,0.3c0.2,0,0.3-0.2,0.3-0.3v-5.9c0-0.2-0.2-0.3-0.4-0.3
		C1024.7,678.6,1024.6,678.8,1024.6,678.9z"/>
	<path class="st59" d="M1024.3,688l0.1,4.8c0,0.5,0.8,0.5,0.8,0l-0.1-4.8c0-0.2-0.2-0.3-0.4-0.3
		C1024.5,687.7,1024.4,687.8,1024.3,688z"/>
	<path class="st59" d="M1025.2,697v4.4c0,0.2,0.2,0.3,0.4,0.3c0.2,0,0.3-0.2,0.3-0.3V697c0-0.2-0.2-0.3-0.4-0.3
		C1025.3,696.7,1025.2,696.8,1025.2,697z"/>
	<path class="st59" d="M1023.5,705.5c0.1,1.7,0,3.3-0.1,5c0,0.2,0.2,0.3,0.4,0.3c0.2,0,0.3-0.2,0.3-0.3c0.1-1.7,0.1-3.3,0.1-5
		c0-0.2-0.2-0.3-0.4-0.3C1023.6,705.2,1023.5,705.3,1023.5,705.5z"/>
	<path class="st59" d="M1023.9,713.4c-0.2,1.7-0.6,3.3-1.2,4.9c-0.2,0.5,0.6,0.7,0.7,0.2c0.5-1.6,0.9-3.2,1.2-4.9
		c0-0.2-0.1-0.4-0.3-0.4C1024.2,713.2,1024,713.3,1023.9,713.4L1023.9,713.4z"/>
	<path class="st59" d="M1022.2,724.1c0,1.5-0.2,2.9-0.7,4.3c-0.2,0.5,0.6,0.7,0.7,0.2c0.5-1.5,0.7-3,0.7-4.5c0-0.2-0.2-0.3-0.4-0.3
		C1022.3,723.8,1022.2,723.9,1022.2,724.1L1022.2,724.1z"/>
	<path class="st59" d="M1020.4,733.8c0.1,1.4,0,2.8-0.2,4.2c-0.1,0.2,0.1,0.4,0.3,0.5c0.2,0.1,0.4-0.1,0.5-0.2c0,0,0,0,0,0l0,0
		c0.3-1.5,0.3-2.9,0.2-4.4C1021.2,733.3,1020.4,733.3,1020.4,733.8L1020.4,733.8z"/>
	<path class="st59" d="M1044.8,986.4c0.4,0.9,1.4,1.5,2.4,1.3c1.3-0.1,2.5-0.7,3.6-1.5c0.4-0.3-0.2-0.8-0.5-0.5
		c-0.8,0.7-1.8,1.1-2.8,1.3c-0.6,0.1-1.7,0.1-1.9-0.7c-0.1-0.2-0.3-0.3-0.5-0.3C1044.9,986,1044.7,986.2,1044.8,986.4L1044.8,986.4z
		"/>
	<path class="st59" d="M915.1,985.7c-0.3,1.2-0.2,2.5,0.1,3.7c0.5,1.1,1.5,2,2.7,2.3c3.3,1.2,6.8,2.1,10.2,2.7
		c0.5,0.1,0.7-0.6,0.2-0.7c-3-0.5-5.9-1.3-8.8-2.2c-1.2-0.4-2.8-0.7-3.5-1.9c-0.5-1.2-0.5-2.4-0.2-3.6
		C915.9,985.4,915.2,985.2,915.1,985.7z"/>
	<path class="st59" d="M1072.6,1006.6c1.4,0.3,2.6-0.7,3.3-1.8s1-2.4,2.1-3.2c0.2-0.1,0.2-0.3,0.1-0.5c-0.1-0.2-0.3-0.2-0.5-0.1
		c0,0,0,0,0,0l0,0c-0.9,0.8-1.6,1.9-2.1,3c-0.5,0.9-1.5,2.2-2.7,1.9C1072.3,1005.8,1072.1,1006.5,1072.6,1006.6L1072.6,1006.6z"/>
	<path class="st59" d="M940.1,502.3c-0.1,0.3,0,0.7,0.2,1c0.2,0.3,0.5,0.5,0.9,0.5c0.7,0,1.3-0.4,1.5-1.1c0.1-0.4,0.1-0.8,0-1.2
		c-0.1-0.2-0.3-0.3-0.5-0.3c-0.2,0.1-0.3,0.3-0.3,0.5v0.1l0,0v0.1c0,0.1,0,0.2,0,0.3c0,0,0,0.1,0,0.1l0,0c0,0.1,0,0.2-0.1,0.2l0,0
		c0,0,0,0,0,0.1l-0.1,0.1c0,0,0,0,0,0.1l0,0l-0.1,0.1l0,0l-0.1,0.1h-0.5l-0.1-0.1l0,0c0,0-0.1,0-0.1-0.1l0,0c0,0-0.1-0.1,0-0.1
		s0,0.1,0,0l0,0l0,0l0,0c0,0,0-0.1,0-0.1l0,0l0,0c0.1-0.2-0.1-0.4-0.3-0.5c-0.2-0.1-0.4,0.1-0.5,0.3L940.1,502.3z"/>
	<path class="st60" d="M1041.2,639.3c-5.4,8.5-17.1,8.5-25.3,12.5c-0.8,0.4-0.1,1.6,0.7,1.2c8.6-4.1,20.2-4.1,25.8-13
		C1042.8,639.2,1041.7,638.5,1041.2,639.3L1041.2,639.3z"/>
	<path class="st60" d="M974.1,500.3c2.8,0.8,5.8,1.6,7.9,3.7s3,5,3.9,7.7c0.3,0.9,1.6,0.5,1.3-0.4c-1-3-2-6.1-4.3-8.3
		s-5.5-3.2-8.5-4c-0.4-0.1-0.7,0.2-0.8,0.6C973.6,499.9,973.8,500.2,974.1,500.3L974.1,500.3z"/>
	<path class="st60" d="M966.6,474.1c0.6,0,1.3,0,1.9,0h0.3l0.4,0.1c0.2,0,0.3,0.1,0.4,0.3c0.1,0.2,0.2,0.4,0.3,0.6
		c0.1,0.3,0.2,0.6,0.3,0.9s0.2,0.6,0.2,0.9s0.1,0.6,0.1,0.8s0.3,0.7,0.7,0.7c0.4,0,0.7-0.3,0.7-0.6c0,0,0,0,0-0.1
		c-0.1-0.7-0.2-1.5-0.4-2.2c-0.1-0.7-0.4-1.4-0.9-2c-0.5-0.5-1.1-0.7-1.7-0.8c-0.7-0.1-1.5-0.1-2.3-0.1c-0.4,0-0.7,0.3-0.7,0.7
		C965.9,473.8,966.2,474.1,966.6,474.1L966.6,474.1z"/>
	<path class="st61" d="M988.8,667.6c1.8,11.6,9.2,21.6,19.8,26.7c1.6,0.7,3-1.7,1.4-2.4c-10-4.7-17-14.1-18.5-25
		C991.2,665.1,988.5,665.9,988.8,667.6z"/>
	<path class="st57" d="M956.3,527.5c1.3,1,2.1,2.9,2.9,4.5c1.5,3,2.8,6.2,3.9,9.4c3.3,9.2,5.8,18.6,7.5,28.2
		c2.2,11,2.9,22.2,2.2,33.4c-0.8,10.2-3.3,20.6-9.5,28.9c-6.6,8.9-16.8,13.6-27.6,14.9c-1.6,0.2-3.3,0.3-4.9,0.4
		c-0.3,0-0.5,0.3-0.5,0.6c0,0.3,0.2,0.4,0.5,0.5c11.4-0.5,22.8-4,30.8-12.5c7.1-7.6,10.5-17.8,11.9-28c1.5-11.2,0.8-22.7-0.9-33.8
		c-1.6-10.3-4-20.4-7.4-30.2c-1.2-3.6-2.6-7.1-4.1-10.5c-0.8-2.1-2-4.1-3.3-5.9c-0.2-0.2-0.4-0.4-0.6-0.6
		C956.5,526.3,955.7,527.1,956.3,527.5z"/>
	
		<linearGradient id="SVGID_12_" gradientUnits="userSpaceOnUse" x1="631.6171" y1="27.6975" x2="669.2142" y2="27.6975" gradientTransform="matrix(0.94 -0.34 0.34 0.94 -276.63 1174.83)">
		<stop  offset="0" style="stop-color:#FFC7D0"/>
		<stop  offset="1" style="stop-color:#E65E75"/>
	</linearGradient>
	<path class="st62" d="M328,989.2c1.9,1.5,15.9,8.7,15.9,8.7l17.5-26.9l-14.5-10.3L328,989.2z"/>
	
		<linearGradient id="SVGID_13_" gradientUnits="userSpaceOnUse" x1="496.11" y1="676.13" x2="512.2786" y2="676.13" gradientTransform="matrix(1 0 0 1 0 310)">
		<stop  offset="0" style="stop-color:#FFC7D0"/>
		<stop  offset="1" style="stop-color:#E65E75"/>
	</linearGradient>
	<path class="st63" d="M496.1,970.3l4.1,31.6c0,0,5.9-4.5,11.5-2.7c0.8,0.3,0.6-25.5,0.6-25.5L496.1,970.3z"/>
	<path class="st48" d="M513.6,676.4c-29.8,1.5-80.8,19.4-79,30.5c0.5,3,7.3,105.8,28.7,189.3c1.8-4.1,3.4-8.2,5-12.1
		C497,817.3,498.8,746.3,513.6,676.4z"/>
	<path class="st30" d="M517.9,979c0,0-0.5-289.2-3.9-302.6h-0.3c-14.8,69.9-16.6,140.8-45.4,207.5c-1.6,3.9-3.3,8-5,12.1
		c8.6,33.5,19.5,63.9,33.3,83.4L517.9,979z"/>
	<path class="st30" d="M399.4,696.5c0,0,8.2,111.6-17.3,172.7S337,966.4,337,966.4s18.1,13,19,11.8s118.3-127.5,138.6-231.7
		c20.4-104.2,6.6-99.8,6.6-99.8S394.1,646.5,399.4,696.5z"/>
	<path class="st64" d="M495.8,490l-2.8-0.9c11.7,13.5,12.9,34.7,23.1,47.8C512.8,512.2,506.8,493.5,495.8,490z"/>
	<path class="st65" d="M516.1,536.9c-10.1-13.1-11.4-34.3-23.1-47.8c-28.1-8.8-30.4-5.5-30.4-5.5s-15.5,3-30.6,16.4
		c-9.5,18.5-9.6,42.6-0.9,57.9c22.6,42.8,30.6,91.5,20.8,136.9c31.4,2.1,66.1-0.1,68-18.7C518.8,645,521.9,581.2,516.1,536.9z"/>
	<path class="st66" d="M431.1,557.8c-8.7-15.3-8.6-39.4,0.9-57.9c-15.5,13.7-30.5,38.1-28.5,81.2c4.1,85.3-16.5,93.4-12.3,108.8
		s35,3,60.7,4.8C461.7,649.3,453.7,600.6,431.1,557.8z"/>
	
		<linearGradient id="SVGID_14_" gradientUnits="userSpaceOnUse" x1="474.5663" y1="206.8497" x2="478.6463" y2="146.6998" gradientTransform="matrix(1 0 0 1 0 310)">
		<stop  offset="0" style="stop-color:#FFC7D0"/>
		<stop  offset="1" style="stop-color:#E65E75"/>
	</linearGradient>
	<path class="st67" d="M461.5,488.1l10.7-24.7c0,0,10.9-4.1,12,1.3c6.1,22.5,6.6,33.2,6.6,33.2S467.2,500.1,461.5,488.1z"/>
	
		<linearGradient id="SVGID_15_" gradientUnits="userSpaceOnUse" x1="534.6978" y1="160.5846" x2="425.6778" y2="107.9546" gradientTransform="matrix(1 0 0 1 0 310)">
		<stop  offset="0" style="stop-color:#FFC7D0"/>
		<stop  offset="1" style="stop-color:#E65E75"/>
	</linearGradient>
	<path class="st68" d="M493.8,427.9c0,0,18.3,41.8-14.7,37.7c-15-1.8-14.9-10.2-14.6-17.2S470.5,410.6,493.8,427.9z"/>
	<path class="st46" d="M507.7,428.1c-1.9,3.1-12.7,2.4-19-0.2c-0.8,4.9-8.4,8.9-12.5,5.5c0.5,3.1,0.8,6.2,0.7,9.3
		c-1.1-0.9-2.2-1.2-3-0.1c-1.7,2.4-2.4,8.6,1.2,8.9c-0.8,2.2-2.5,3.9-4.7,4.8c0,0-12.4,11.2-22.9-1.8s8.6-20,11.5-18.9
		c-9.7-5,0.1-23.2,11.5-16.3c3.9-6.5,19-6.7,18.2,2C500.1,418.9,509.6,422.1,507.7,428.1z"/>
	<path class="st46" d="M575,1004.2c-0.3-9-9.2-13.8-18.9-15.1c-12.9-1.8-33,13.5-33,13.5c-7.5,0.1-9.4-10.5-9.4-10.5l-16.4,4.7
		c0,0,0.3,25.2,6.7,36.3C530.4,1033.4,558.9,1024.2,575,1004.2z"/>
	<path class="st47" d="M504.2,1033.1c2,3.4,4.6,5.6,7.9,5.2c14.2-1.7,51.5-7.7,60.1-23.6c1.9-3.2,2.9-6.8,2.9-10.5
		C558.9,1024.2,530.4,1033.4,504.2,1033.1z"/>
	<path class="st34" d="M532.5,989.5c0,0-0.8,18.3,0.8,13.7s3.3-16,6.8-16.8s3.4,12.1,7.1,10.6s-2.1-13.7,1.3-14.3s6.1,10.7,8.3,10.2
		c-2.1,0.9-5.8-5.7-6.8-8.1s-2.2-0.3-1.6,1.4s3.6,11.2-0.9,11.8s-5.9-7.6-6.2-8.4s-1.9-1.9-2.6-0.1s-3.4,16-5.9,16.1
		S530.7,993.2,532.5,989.5z"/>
	<path class="st46" d="M372.8,1051.5c7.3-5.3,6.3-15.3,2-24.1c-5.7-11.7-29.7-19.8-29.7-19.8c-4.3-6.2,3.5-13.7,3.5-13.7l-17.1-11.3
		c0,0-16.7,14.7-22.3,26.3C323.6,1030.8,347.2,1049.3,372.8,1051.5z"/>
	<path class="st47" d="M309.2,1008.8c-1.7,3.6-2,6.9,0.1,9.4c9.3,10.8,35.2,38.5,53.1,36.6c3.7-0.2,7.2-1.4,10.3-3.4
		C347.2,1049.3,323.6,1030.8,309.2,1008.8z"/>
	<path class="st34" d="M361.2,1008c0,0-15.6,9.5-10.9,8.3s15.1-6.2,17.8-3.7s-8.1,9.6-4.8,11.8c3.3,2.2,10.2-9.4,12.6-6.9
		s-5.5,11-3.9,12.5c-1.9-1.3,1.5-8,2.9-10.2s-1-2-2.1-0.5s-7.3,9.2-10.3,5.8s3-9.2,3.5-9.8s0.5-2.7-1.4-2.2s-15.2,6.1-16.6,4.1
		S357.1,1008.5,361.2,1008z"/>
	<path class="st69" d="M397.9,691.8c3.3,3.8,9.3,3,13.8,2.7c6.1-0.4,12.3-1.1,18.4-1.4c3.5-0.2,6.9-0.2,10.4,0.1
		c0.8,0.1,0.8-1.1,0-1.2c-5.9-0.3-11.9-0.2-17.8,0.4c-3,0.3-5.9,0.5-8.9,0.8c-2.7,0.3-5.5,0.4-8.2,0.3c-2.5-0.1-5.1-0.6-6.8-2.6
		C398.2,690.3,397.4,691.2,397.9,691.8z"/>
	<path class="st59" d="M456.2,491.1c1.3,2.9,3.9,5.1,6.5,6.9c5.4,3.8,11.7,6.2,18.3,6.9c3.2,0.4,7,0.7,10-0.8s4.7-4.4,5.7-7.4
		c0.1-0.4-0.5-0.5-0.6-0.2c-0.8,2.8-2.6,5.1-5,6.7c-2.8,1.7-6.5,1.4-9.6,1.1c-6.3-0.6-12.4-2.8-17.7-6.2c-2.9-1.9-5.8-4.1-7.2-7.3
		C456.5,490.4,456,490.8,456.2,491.1L456.2,491.1z"/>
	<path class="st59" d="M489.3,514.1c1,0.1,1.9-0.7,1.9-1.7c0.1-1-0.7-1.9-1.7-1.9s-1.9,0.7-1.9,1.7c0,0.1,0,0.2,0,0.3
		C487.7,513.3,488.4,514,489.3,514.1z"/>
	<path class="st59" d="M492.8,523.6c1,0,1.8-0.8,1.8-1.8c0-1-0.8-1.8-1.8-1.8c-1,0-1.8,0.8-1.8,1.8c0,0,0,0,0,0
		C491,522.8,491.8,523.6,492.8,523.6z"/>
	<path class="st59" d="M495.6,532.5c1,0,1.8-0.8,1.8-1.8c0-1-0.8-1.8-1.8-1.8c-1,0-1.8,0.8-1.8,1.8c0,0,0,0,0,0
		C493.9,531.7,494.7,532.5,495.6,532.5z"/>
	
		<linearGradient id="SVGID_16_" gradientUnits="userSpaceOnUse" x1="-25.5945" y1="2333.7405" x2="-130.7045" y2="2400.6304" gradientTransform="matrix(0.87 0.5 -0.5 0.87 1699.76 -1450.9299)">
		<stop  offset="0" style="stop-color:#FFC7D0"/>
		<stop  offset="1" style="stop-color:#E65E75"/>
	</linearGradient>
	<path class="st70" d="M439.1,516.6c0,0-74.5,110.2,27.3,106.1c28.5,0.9,64.9-10.4,64.9-10.4s31.6,14.9,35.7,11.3
		s-18.6-16.7-20.9-16.2c4.9-2.5-1.2-9-7.8-8.3s-127.9,22.7-65.1-56.4c12.8-16.1,5.6-23.7-0.6-29.8S445.4,507.9,439.1,516.6z"/>
	<path class="st71" d="M479.4,539.2c12.5-21.8-4.4-31.6-25-34.2c-3.9,1.8-7.4,4.3-10.4,7.3c-11.1,11.6-15.6,26.5-21.4,41.1
		l38.3,15.3C460.9,568.6,466.4,561.8,479.4,539.2z"/>
	<path class="st66" d="M444,512.2c3-3,6.6-5.5,10.4-7.3c-0.8-0.1-1.6-0.2-2.4-0.3c-21.7-2.1-40.3,44.3-40.3,44.3l10.8,4.3
		C428.4,538.7,432.9,523.8,444,512.2z"/>
	<path class="st69" d="M432,518.6c0.8-0.9,1.4-1.9,2.1-2.8c1.1-1.4,2.2-2.7,3.5-3.8c1.6-1.4,3.5-2.5,5.5-3.2c1.9-0.8,4-1.5,6.1-1.9
		c2.3-0.4,4.7-0.4,7-0.2c0.8,0.1,0.8-1.1,0-1.2c-2.1-0.2-4.3-0.2-6.4,0.1c-2.1,0.3-4.1,0.9-6.1,1.7c-2.1,0.7-4.1,1.8-5.9,3.1
		c-1.5,1.1-2.8,2.5-3.9,3.9c-0.9,1.1-1.7,2.3-2.6,3.5C430.7,518.4,431.5,519.2,432,518.6L432,518.6z"/>
	<path class="st59" d="M417.9,538.9c-1,1.8-2.1,3.6-2.9,5.5c-0.6,1.4,0.2,2.4,1.5,3c1.5,0.8,3.1,1.4,4.5,2.3s3,1.9,4.5,2.8
		c1.4,0.9,3,1.7,4.6,2.3c1.9,0.8,3.8,1,5.8,1.6c3.8,1.1,7.3,3.3,11,4.9c4,1.9,8.2,3.3,12.5,4.1c0.4,0.1,0.5-0.5,0.2-0.6
		c-3.8-0.7-7.4-1.8-10.9-3.4c-3.4-1.5-6.7-3.3-10.1-4.8c-1.8-0.7-3.7-1.3-5.5-1.7c-1.7-0.4-3.3-1-4.9-1.8c-2.9-1.5-5.6-3.5-8.5-5
		c-0.8-0.4-1.7-0.8-2.5-1.2c-0.7-0.3-1.6-0.7-1.6-1.6c0.1-0.6,0.3-1.2,0.6-1.7l0.8-1.5l1.6-3C418.6,538.9,418.1,538.6,417.9,538.9
		L417.9,538.9z"/>
	<path class="st59" d="M443,734.3c11.4-0.6,22.1-6.1,29.2-15.1c2.1-2.5,3.5-5.6,3.8-8.9c0-0.2-0.1-0.3-0.3-0.3
		c-0.2,0-0.3,0.1-0.3,0.3l0,0c-0.3,2.9-1.4,5.7-3.3,8c-1.7,2.2-3.6,4.2-5.7,6c-4.2,3.6-9.1,6.2-14.4,7.8c-2.9,0.9-5.9,1.4-9,1.6
		C442.6,733.7,442.6,734.3,443,734.3L443,734.3z"/>
	<path class="st59" d="M501.7,694.4c-1.2,11.1-3.2,22.1-5.5,33c-1.1,5.5-2.3,10.9-3.5,16.3s-2.4,10.9-3.6,16.3
		c-1.4,6-3.2,12-5.4,17.8c-0.1,0.4,0.4,0.5,0.6,0.2c2-5.2,3.7-10.5,5-15.9c1.3-5.4,2.5-10.9,3.7-16.4c2.4-10.9,4.9-21.8,6.8-32.8
		c1.1-6.2,2-12.3,2.7-18.5c0-0.2-0.1-0.3-0.3-0.3C501.9,694.1,501.7,694.2,501.7,694.4L501.7,694.4z"/>
	<path class="st59" d="M482.1,784.5c-3.4,8.5-6.7,17-10.4,25.4c-3.6,8.3-7.6,16.5-12,24.4c-2.5,4.5-5.3,8.8-8.2,13
		c-0.2,0.3,0.3,0.6,0.5,0.3c5.2-7.5,9.8-15.4,13.9-23.6c4.1-8.2,7.7-16.5,11.1-25c1.9-4.8,3.8-9.6,5.7-14.3
		C482.9,784.3,482.3,784.1,482.1,784.5L482.1,784.5z"/>
	<path class="st59" d="M448.3,853.1c-2.3,2.8-3.4,6.3-4.9,9.5c-1.9,3.5-4.3,6.7-7,9.5c-0.3,0.3,0.2,0.7,0.4,0.4
		c2.7-2.8,5-5.9,6.9-9.3c1.6-3.3,2.6-6.9,5-9.7C448.9,853.2,448.5,852.8,448.3,853.1L448.3,853.1z"/>
	<path class="st59" d="M433.4,875.6c-2.4,3.9-5.1,7.5-8.2,10.9c-1.4,1.6-2.7,3.3-3.8,5c-1.1,1.7-2.1,3.5-3.2,5.2
		c-1.2,2-2.6,3.9-4.3,5.5c-0.3,0.3,0.1,0.7,0.4,0.4c3-2.8,4.8-6.4,7-9.8c2.4-3.8,5.5-7,8.3-10.5c1.6-2,3.1-4.1,4.4-6.4
		c0.1-0.1,0-0.3-0.1-0.4C433.7,875.4,433.5,875.4,433.4,875.6L433.4,875.6L433.4,875.6z"/>
	<path class="st59" d="M412.2,906.8l-7,7.1c-2.3,2.1-4.4,4.4-6.3,6.8c-0.8,1.3-1.6,2.6-2.2,4c-0.6,1.3-1.4,2.6-2.1,3.9
		c-1.6,2.5-3.4,4.8-5.4,7c-2.2,2.5-4.6,4.9-7,7.3c-0.1,0.1-0.1,0.3,0,0.4s0.3,0.1,0.4,0c4.1-4.1,8.3-8.3,11.6-13.2
		c0.8-1.2,1.6-2.4,2.3-3.7c0.7-1.3,1.3-2.7,2.1-4.1c1.5-2.7,3.9-4.8,6.1-7.1l8-8.1C412.9,906.9,412.5,906.5,412.2,906.8L412.2,906.8
		z"/>
	<path class="st59" d="M355.7,977.1c0.6-2.4,2.4-4.1,4-5.8c1.8-1.9,3.6-3.8,5.4-5.8c3.4-3.9,6.7-7.8,9.9-12c1.8-2.4,3.5-4.8,5.3-7.2
		c0.2-0.3-0.3-0.6-0.5-0.3c-6.1,8.7-12.8,17-20.2,24.7c-1.8,1.8-3.8,3.7-4.4,6.2C355,977.3,355.6,977.4,355.7,977.1L355.7,977.1z"/>
	<path class="st59" d="M440,701.5c-0.5,1.7-0.6,3.6-0.3,5.4c0.1,0.4,0.6,0.2,0.6-0.2c-0.3-1.7-0.2-3.4,0.3-5.1c0-0.2,0-0.3-0.2-0.4
		C440.2,701.2,440,701.3,440,701.5z"/>
	<path class="st59" d="M439.1,712.2c-0.5,2-0.8,4-0.9,6.1c0,0.2,0.1,0.3,0.3,0.3c0.2,0,0.3-0.1,0.3-0.3c0.1-2,0.4-4,0.9-6
		c0-0.2,0-0.3-0.2-0.4C439.3,711.8,439.2,711.9,439.1,712.2L439.1,712.2z"/>
	<path class="st59" d="M438,724.9v5.5c0,0.2,0.1,0.3,0.3,0.3c0.2,0,0.3-0.1,0.3-0.3v-5.5c0-0.2-0.1-0.3-0.3-0.3
		C438.1,724.6,438,724.7,438,724.9L438,724.9z"/>
	<path class="st59" d="M438.9,734.9l-0.8,5.3c-0.1,0.4,0.5,0.5,0.6,0.2l0.8-5.3C439.5,734.7,438.9,734.5,438.9,734.9z"/>
	<path class="st59" d="M438.3,744.5l-0.1,5.2c0,0.2,0.1,0.3,0.3,0.3c0.2,0,0.3-0.1,0.3-0.3l0.1-5.2c0-0.2-0.1-0.3-0.3-0.3
		C438.4,744.2,438.3,744.3,438.3,744.5z"/>
	<path class="st59" d="M437.5,754.2v3.6c0,0.2,0.1,0.3,0.3,0.3c0.2,0,0.3-0.1,0.3-0.3v-3.6c0-0.2-0.1-0.3-0.3-0.3
		C437.7,753.9,437.5,754,437.5,754.2L437.5,754.2z"/>
	<path class="st59" d="M436.4,762.5c0.1,1.7,0.1,3.3-0.1,5c0,0.4,0.5,0.4,0.6,0c0.2-1.7,0.2-3.3,0.1-5
		C437,762.1,436.4,762.1,436.4,762.5z"/>
	<path class="st59" d="M435.7,772.4c-0.5,1.8-0.8,3.7-0.9,5.6c0,0.2,0.1,0.3,0.3,0.3c0.2,0,0.3-0.1,0.3-0.3c0.1-1.8,0.4-3.6,0.9-5.4
		c0-0.2,0-0.3-0.2-0.4C435.9,772.2,435.8,772.3,435.7,772.4L435.7,772.4z"/>
	<path class="st59" d="M434,782.4l-2.1,6.2c-0.1,0.4,0.5,0.5,0.6,0.2l2.1-6.2C434.7,782.2,434.2,782,434,782.4z"/>
</g>
</svg>
