<?xml version="1.0" encoding="utf-8"?>
<!-- Generator: Adobe Illustrator 21.1.0, SVG Export Plug-In . SVG Version: 6.00 Build 0)  -->
<svg version="1.1" id="Слой_1" xmlns="http://www.w3.org/2000/svg" xmlns:xlink="http://www.w3.org/1999/xlink" x="0px" y="0px"
	 viewBox="0 0 1440 1010" style="enable-background:new 0 0 1440 1010;" xml:space="preserve">
<style type="text/css">
	.st0{fill:#E9F7FF;}
	.st1{fill:#AFD0F1;}
	.st2{fill:#91B9EC;}
	.st3{fill:#BFDAEF;}
	.st4{fill:url(#SVGID_1_);}
	.st5{clip-path:url(#SVGID_3_);}
	.st6{fill:#2D65AF;}
	.st7{fill:#80DBDA;}
	.st8{fill:url(#SVGID_4_);}
	.st9{clip-path:url(#SVGID_6_);}
	.st10{fill:#41ACAB;}
	.st11{fill:#143E6D;}
	.st12{fill:#AA7D0B;}
	.st13{fill:#F9BE13;}
	.st14{fill:#1A1383;}
	.st15{fill:#75AFE8;}
	.st16{fill:#E65E75;}
	.st17{fill:#224884;}
	.st18{fill:#5991CE;}
	.st19{fill:#215D9E;}
	.st20{fill:#3784D1;}
	.st21{fill:#FFFFFF;}
	.st22{fill:#152B3F;}
	.st23{fill:#87BCF1;}
	.st24{fill:#172C51;}
	.st25{fill:#304C6A;}
	.st26{fill:#DEE6EE;}
	.st27{fill:#FF7116;}
	.st28{fill:#FFC261;}
	.st29{fill:#5851BC;}
	.st30{fill:#FF9725;}
	.st31{fill:#AADAFF;}
	.st32{fill:#FCC677;}
	.st33{fill:#1B2C49;}
	.st34{fill:#22559F;}
	.st35{fill:#EEEEFF;}
	.st36{fill:#231F20;}
	.st37{fill:#BBE0FC;}
	.st38{fill:#5050D1;}
	.st39{fill:#6961DE;}
	.st40{fill:#643877;}
	.st41{fill:#391A49;}
	.st42{fill:#9BC6EE;}
	.st43{fill:#FC8D15;}
	.st44{fill:#D34262;}
	.st45{fill:none;stroke:#FFC261;stroke-width:3;stroke-linecap:round;stroke-linejoin:round;}
	.st46{fill:none;stroke:#FFC261;stroke-width:3;stroke-linecap:round;stroke-linejoin:round;stroke-dasharray:11.99,11.99;}
	.st47{fill:none;stroke:#FFC261;stroke-width:3;stroke-linecap:round;stroke-linejoin:round;stroke-dasharray:12;}
	.st48{fill:#4676B7;}
	.st49{fill:#AECFF1;}
	.st50{fill:#FFA829;}
	.st51{fill:#051123;}
	.st52{fill:#E24B00;}
	.st53{fill:url(#SVGID_7_);}
	.st54{fill:url(#SVGID_8_);}
	.st55{fill:#00000C;}
	.st56{fill:url(#SVGID_9_);}
	.st57{fill:url(#SVGID_10_);}
	.st58{fill:#F47F51;}
	.st59{fill:#4A627D;}
	.st60{fill:#FCFCFC;}
	.st61{fill:#E4493C;}
	.st62{fill:#206664;}
</style>
<g id="Layer_1">
	<rect x="-883.3" y="-383.9" class="st0" width="2340" height="1560"/>
	<path class="st1" d="M-31.9,1176.1c0,0-248.1-607.4,278.8-534.9s535.6-62,570.1-157s101.6-152.7,254.9-97.1s260-684.7,384.8-640
		v1429L-31.9,1176.1z"/>
	<path class="st2" d="M83.4,1062.1c45-1.3,90.1-23.8,133.8-11.9c92.8,25.2,182.9,29.1,275.6,4c51.7-13.3,107.3,14.6,157.7-2.7
		c33.1-11.9,66.3-29.2,99.4-18.6c79.5,25.2,159,17.2,239.8,19.9c8,0,17.2,5.3,25.2,6.6c34.4,4,66.3-9.3,98-8
		c29.2,1.3,58.3-8,83.5-19.9c13.3-6.6,35.8,4,54.3,0c9.3-2.7,21.2-9.3,22.5-17.2c1-13.7,2.8-27.3,5.4-40.7
		c-50.6-10.3-122-18.6-202.5-26.9c-438.6-45-1095.6-70.5-1139.4,34.8c-14.5,34.9,25.6,59.1,87.6,83.8
		C44.6,1065.3,65.1,1063.2,83.4,1062.1z"/>
	<path class="st3" d="M1356.2,1009.1c-1.8-14.5-30.8-25.8-77.5-35.3c-2.6,13.5-4.4,27.1-5.4,40.7c-1.3,8-13.3,14.6-22.5,17.2
		c-18.6,4-41.1-6.6-54.3,0c-25.2,11.9-54.3,21.2-83.5,19.9c-31.8-1.3-63.6,11.9-98,8c-8-1.3-17.2-6.6-25.2-6.6
		c-80.8-2.6-160.3,5.3-239.8-19.9c-33.1-10.6-66.3,6.6-99.4,18.6c-50.3,17.2-106-10.6-157.7,2.7c-92.8,25.2-182.9,21.2-275.6-4
		c-43.7-11.9-88.8,10.6-133.8,11.9c-18.3,1-38.9,3.2-59,3.3c10.3,4.1,21.2,8.2,32.5,12.3c38.4,14.1,72.9,16.9,89.7,18.1
		c179.3,13.1,344.6-11,475.8-15.6c228.7-7.9,233.9,48,431.9,27.2C1199.5,1092.3,1360.7,1044.9,1356.2,1009.1z"/>
	
		<linearGradient id="SVGID_1_" gradientUnits="userSpaceOnUse" x1="1616.1405" y1="602.507" x2="1834.7004" y2="846.0369" gradientTransform="matrix(0.91 0.36 -0.37 0.93 -1102.48 -534)">
		<stop  offset="0" style="stop-color:#B6F2F0"/>
		<stop  offset="2.000000e-02" style="stop-color:#B6F2F0"/>
		<stop  offset="0.13" style="stop-color:#B6F2F0"/>
		<stop  offset="0.26" style="stop-color:#90DBD9"/>
		<stop  offset="0.4" style="stop-color:#6DC6C4"/>
		<stop  offset="0.55" style="stop-color:#52B5B4"/>
		<stop  offset="0.7" style="stop-color:#3FA9A8"/>
		<stop  offset="0.85" style="stop-color:#33A2A1"/>
		<stop  offset="1" style="stop-color:#2FA09F"/>
	</linearGradient>
	<path class="st4" d="M160.1,760c1.5-23.7,19.8-1.2,23.9-16.4s-2.9-73.4,17.2-88.4s34,7,35.2,21.6c0.7,9.2-15.7,46.7-1.8,54.5
		s20.1,20.7,17.7,30.7s-5.5,13.1-5.5,13.1s10-7.8,18.9,7.8s-17.2,21.2-4.2,39.5s37.5,2.3,32.4,35.2s-100.5,41.8-123.4,5.4
		S158.6,783.7,160.1,760z"/>
	<g>
		<defs>
			<path id="SVGID_2_" d="M160.1,760c1.5-23.7,19.8-1.2,23.9-16.4s-2.9-73.4,17.2-88.4s42.3,13.1,42.3,22.3c0,11.7-22.9,46-8.9,53.8
				s20.1,20.7,17.7,30.7s-5.5,13.1-5.5,13.1s10-7.8,18.9,7.8s-17.2,21.2-4.2,39.5s37.5,2.3,32.4,35.2s-100.5,41.8-123.4,5.4
				S158.6,783.7,160.1,760z"/>
		</defs>
		<clipPath id="SVGID_3_">
			<use xlink:href="#SVGID_2_"  style="overflow:visible;"/>
		</clipPath>
		<g class="st5">
			<path class="st6" d="M265.7,858.7c-12.8-1-20.5-13.8-26.1-23.9c-5.9-10.6-11.2-21.6-15.7-32.9c-9.2-22.9-15.7-46.8-19.3-71.2
				c-2.1-14.1-3.4-28.3-3.7-42.6c0-0.2-0.2-0.4-0.5-0.3c-0.2,0-0.3,0.2-0.3,0.3c0.6,25.7,4.1,51.2,10.6,76
				c6.2,24.1,15.4,47.4,27.3,69.2c5.9,10.8,14,25,27.8,26.1c0.2,0,0.4-0.2,0.3-0.5C266,858.8,265.9,858.6,265.7,858.7L265.7,858.7z"
				/>
			<path class="st6" d="M193.4,766c4,4.8,7.8,9.8,11.4,15c0.8,1.2,1.7,2.5,2.5,3.7c0.5,1.1,1.2,2,2.1,2.7c1,0.4,2.1,0.6,3.2,0.5
				l4.9,0.1c0.2,0,0.4-0.2,0.3-0.5c0-0.2-0.2-0.3-0.3-0.3l-4.2-0.1c-1.6,0-3.2,0.2-4.3-1.2c-1.7-2.3-3.1-4.8-4.8-7.2
				c-3.2-4.6-6.6-9-10.2-13.3C193.6,765.1,193,765.7,193.4,766L193.4,766z"/>
			<path class="st6" d="M226.2,806.4c0.3-2.8,1.5-5.5,2.3-8.2s1.4-5.5,1.8-8.3c0.9-5.5,1.4-11.1,1.4-16.6c0-0.2-0.2-0.4-0.5-0.3
				c-0.2,0-0.3,0.2-0.3,0.3c0,5.8-0.5,11.6-1.5,17.4c-0.5,2.7-1.1,5.4-1.9,8.1s-1.8,5.1-2.1,7.8
				C225.3,806.9,226.1,806.9,226.2,806.4z"/>
			<path class="st6" d="M207.9,808.7c4.6,2.7,8.8,6,12.7,9.6c1.7,1.6,3.3,3.7,5.3,5s4.8,0.7,6.8,2.1c0.4,0.3,0.8-0.4,0.4-0.7
				c-2-1.4-4.6-0.8-6.6-2c-1.1-0.8-2.2-1.7-3.1-2.8c-0.9-0.9-1.9-1.9-2.9-2.8c-3.8-3.4-7.9-6.5-12.3-9.2c-0.2-0.1-0.4,0-0.5,0.2
				C207.7,808.4,207.7,808.6,207.9,808.7L207.9,808.7z"/>
			<path class="st6" d="M245.4,835.8c0.5-9.5-1-18.9-2.5-28.3c-0.1-0.5-0.9-0.3-0.8,0.2c1.5,9.3,3,18.6,2.5,28.1
				c0,0.2,0.2,0.4,0.5,0.3C245.2,836.1,245.3,836,245.4,835.8z"/>
			<path class="st6" d="M220.9,848.2c3.6,1.3,7.1,3,10.4,5c2.9,1.7,5.9,3.6,9.3,4.2c0.5,0.1,0.7-0.7,0.2-0.8
				c-3.6-0.7-6.6-2.7-9.7-4.5c-3.2-1.9-6.5-3.5-10-4.7C220.7,847.3,220.5,848,220.9,848.2L220.9,848.2z"/>
			<path class="st6" d="M210.8,747.9c1.2-0.5,1.7-2,2.1-3.1c0.6-1.7,1.2-3.4,1.7-5.2c1-3.4,1.7-6.9,2.2-10.5c0.1-0.5-0.7-0.5-0.8,0
				c-0.4,3.3-1.1,6.5-2,9.6c-0.4,1.5-0.9,3-1.4,4.5c-0.4,1.2-0.9,3.3-2.2,3.9C209.9,747.4,210.3,748.1,210.8,747.9L210.8,747.9z"/>
		</g>
	</g>
	<path class="st7" d="M213.9,615.1c-1.2-4.7,1.9-19-2.9-21.5c-3.7-1.8-6.2,3.1-7.4,6C195.3,614.5,217.8,631.8,213.9,615.1z"/>
	
		<linearGradient id="SVGID_4_" gradientUnits="userSpaceOnUse" x1="1857.1235" y1="-256.9724" x2="1597.9335" y2="-249.8024" gradientTransform="matrix(0.95 -0.31 0.31 0.95 -194.39 1450.78)">
		<stop  offset="0" style="stop-color:#B6F2F0"/>
		<stop  offset="4.000000e-02" style="stop-color:#B6F2F0"/>
		<stop  offset="0.3" style="stop-color:#B6F2F0"/>
		<stop  offset="0.41" style="stop-color:#90DBD9"/>
		<stop  offset="0.52" style="stop-color:#6DC6C4"/>
		<stop  offset="0.64" style="stop-color:#52B5B4"/>
		<stop  offset="0.76" style="stop-color:#3FA9A8"/>
		<stop  offset="0.88" style="stop-color:#33A2A1"/>
		<stop  offset="1" style="stop-color:#2FA09F"/>
	</linearGradient>
	<path class="st8" d="M1342.8,725.3c1.9-37.2-31.1-5.1-34.8-29.4s17.9-113.7-11.3-140.3s-30.1,8.7-27.2,22.9s-16,80.3-39.4,90.1
		s-35.5,29.1-33.5,45s6.3,21.3,6.3,21.3s-14.4-13.8-31.3,9.2s23.4,35.8-0.5,62.2s-59.8-2.5-57.7,49.5s92.7,60.7,135.4,7.8
		S1340.9,762.5,1342.8,725.3z"/>
	<g>
		<defs>
			<path id="SVGID_5_" d="M1342.8,725.3c1.9-37.2-31.1-5.1-34.8-29.4s17.9-113.7-11.3-140.3s-30.1,8.7-27.2,22.9s-16,80.3-39.4,90.1
				s-35.5,29.1-33.5,45s6.3,21.3,6.3,21.3s-14.4-13.8-31.3,9.2s23.4,35.8-0.5,62.2s-59.8-2.5-57.7,49.5s92.7,60.7,135.4,7.8
				S1340.9,762.5,1342.8,725.3z"/>
		</defs>
		<clipPath id="SVGID_6_">
			<use xlink:href="#SVGID_5_"  style="overflow:visible;"/>
		</clipPath>
		<g class="st9">
			<path class="st6" d="M1157.9,863.1c20.4,0.6,35.2-17.7,46.1-32.6c11.3-15.6,21.7-31.8,30.9-48.7c9.4-17.1,17.8-34.7,25.1-52.7
				c7.4-18.3,13.8-37,19-56.1c5.3-19.3,9.5-38.9,12.6-58.7c0.4-2.4,0.7-4.9,1.1-7.3c0.1-0.8-1.1-1.2-1.2-0.3
				c-5.4,39-15.3,77.2-29.4,113.9c-7,18.1-15,35.8-24.1,53c-8.9,16.8-18.7,33-29.6,48.6c-5.7,8.2-11.6,16.4-18.5,23.6
				s-15.2,13.4-25,15.4c-2.3,0.5-4.7,0.7-7,0.6c-0.4,0-0.6,0.3-0.6,0.6S1157.5,863.1,1157.9,863.1L1157.9,863.1L1157.9,863.1z"/>
			<path class="st6" d="M1288.3,728.4c-6.5,6.1-12.8,12.5-18.7,19.2c-2.9,3.3-5.6,6.8-8.6,10.1c-0.7,1-1.9,1.5-3.1,1.6
				c-1.1,0-2.2-0.2-3.3-0.3l-7.4-0.6c-0.8-0.1-0.8,1.2,0,1.3l7.4,0.6c2,0.2,4.2,0.7,6-0.5s2.9-3.1,4.2-4.7c1.6-1.9,3.2-3.7,4.8-5.5
				c6.2-7.1,12.8-13.8,19.7-20.2C1289.8,728.7,1288.9,727.8,1288.3,728.4L1288.3,728.4z"/>
			<path class="st6" d="M1231.2,786.9c0-2.1-0.3-4.2-0.8-6.3c-0.4-2.2-0.8-4.3-1.2-6.5c-0.7-4.4-1.2-8.8-1.4-13.3
				c-0.5-8.8-0.3-17.7,0.8-26.5c0.1-0.8-1.2-0.8-1.3,0c-1.1,8.8-1.4,17.6-0.8,26.5c0.3,4.2,0.7,8.5,1.3,12.7
				c0.3,2.2,0.7,4.4,1.2,6.5c0.6,2.2,0.9,4.6,1,6.9c0,0.4,0.3,0.6,0.6,0.6S1231.2,787.2,1231.2,786.9L1231.2,786.9z"/>
			<path class="st6" d="M1257.9,792.3c-7.6,3.5-14.7,7.7-21.4,12.5c-1.6,1.1-3.1,2.3-4.7,3.6c-1.6,1.4-3.3,2.7-5.2,3.7
				c-3.5,1.6-7.6,0.2-11.1,2.1c-0.7,0.4-0.1,1.5,0.7,1.1c3.4-1.8,7.5-0.5,11.1-2.1c1.7-0.9,3.3-2.1,4.7-3.4c1.7-1.3,3.4-2.7,5.1-3.9
				c6.7-4.9,13.9-9.1,21.4-12.5C1259.3,793,1258.6,791.9,1257.9,792.3z"/>
			<path class="st6" d="M1195.5,829.6c0.9-14.8,5-29.1,9.1-43.3c0.1-0.3-0.1-0.7-0.4-0.8c-0.3-0.1-0.7,0.1-0.8,0.4l0,0
				c-4.1,14.3-8.2,28.7-9.1,43.6C1194.2,830.4,1195.5,830.4,1195.5,829.6z"/>
			<path class="st6" d="M1230.4,851.5c-5.6,1.4-11,3.2-16.3,5.5c-5.3,2.3-10.6,5.1-16.4,5.6c-0.8,0.1-0.8,1.3,0,1.3
				c5.6-0.4,10.8-2.9,15.8-5.2c5.5-2.5,11.3-4.5,17.2-6C1231.5,852.6,1231.2,851.3,1230.4,851.5L1230.4,851.5z"/>
			<path class="st6" d="M1265.6,697.2c-1.9-1-2.2-4.2-2.7-6.1c-0.6-2.5-1.1-4.9-1.5-7.4c-0.8-5.1-1.3-10.3-1.4-15.5
				c0-0.4-0.3-0.6-0.6-0.6s-0.6,0.3-0.6,0.6c0.1,5.6,0.6,11.2,1.6,16.8c0.5,2.7,1.1,5.4,1.8,8.1c0.5,1.9,1,4.3,2.8,5.3
				C1265.7,698.7,1266.3,697.6,1265.6,697.2L1265.6,697.2z"/>
		</g>
	</g>
	<path class="st10" d="M1342,543.1c1.6-5-0.7-21.3,4.5-23.1c3.9-1.4,6.2,4.4,7.3,7.8C1361.3,545.5,1336.9,560.8,1342,543.1z"/>
	<path class="st10" d="M1370.7,663.1c0,0,16.5-46.1,37.3-49.2S1375,686.1,1370.7,663.1z"/>
	<path class="st11" d="M610,945.4c17.1,24.7,61.2,32.2,112.9,32.8c111.9-1,515.3,18.1,532.7,0s-14.1-49.2-73.8-49.2
		s-520.7-41.1-545.1-31.1S592.8,920.8,610,945.4z"/>
	<path class="st11" d="M550.8,933.3c0,0,39.6,14.4,70.4,13s79,8.9,71.4-2.7s-58.1-19.9-117.2-17.6
		C569.7,926.2,547,930.3,550.8,933.3z"/>
	<path class="st12" d="M675.6,796.9c-6.6-27.9-11.9-55.6-19.9-83.5c-3.7-12.4-6.3-25.9-12-38.4c-0.6,56.7,2,166.1,2,166.1h34
		C680.2,826.3,679.6,811.6,675.6,796.9z"/>
	<path class="st13" d="M683.8,641.8c-4.3-4.4-33.5-3.6-38.1,0c-1.2,0.9-1.7,14-2,33.2c5.7,12.5,8.3,26,12,38.4
		c8,27.8,13.3,55.7,19.9,83.5c4,14.7,4.7,29.5,4.1,44.2h4.1C683.8,841.1,688.1,646.2,683.8,641.8z"/>
	<path class="st14" d="M695,637.5c-4.1,1.7-51.1-0.1-55.3-0.6s-7.8-12.5-4.8-15.6s56.9-7.9,61.3-4S699.2,635.8,695,637.5z"/>
	<path class="st14" d="M672.1,735.3L672.1,735.3c3.5,0,7.7-4.3,7.7-7.7l-1.5-92.1c0-3.5-2.8-6.3-6.3-6.3l0,0c-3.5,0-6.3,2.8-6.3,6.3
		l-4,91.6C661.8,730.6,668.6,735.3,672.1,735.3z"/>
	<path class="st15" d="M732.9,625.7c-4.7,0-4.7-0.3-9,5.1c4.4,1,8.8,1.7,13.2,2.1C736.4,628.7,735.1,625.7,732.9,625.7z"/>
	<path class="st16" d="M723.9,630.8c-2.7,3.3-7,8.7-15.1,17.6c-0.1,0.2-0.3,0.3-0.4,0.5c9.8-1.3,19.7-1.7,29.5-1.2
		c0.2-5-0.1-9.9-0.8-14.9C732.7,632.5,728.3,631.8,723.9,630.8z"/>
	<path class="st17" d="M708.4,648.9c-3.1,3.7-6.1,10.5-9,19.4c12.5-0.2,24.8-0.8,36.5,2.5c0.9-3.8,1.4-6.2,1.4-6.6
		c0-1.7,0.6-8.8,0.7-16.5C728.1,647.2,718.2,647.6,708.4,648.9z"/>
	<path class="st18" d="M724.2,668.7c-8.1-0.8-16.4-0.5-24.8-0.3c-16.3,51-27.3,170.7-26.2,175.4c0.8,3.5,2.7,5.5,5,6.4
		c13.5-46.1,25.7-92.3,34.5-142.1C715.1,695.3,717,679.7,724.2,668.7z"/>
	<path class="st19" d="M712.7,708.1c-8.7,49.8-20.9,96-34.5,142.1c3,1,6.2,0.8,9-0.7c4.8-2.3,41.1-145.9,48.6-178.7
		c-3.8-1.1-7.7-1.8-11.7-2.1C717,679.7,715.1,695.3,712.7,708.1z"/>
	<path class="st20" d="M672,826.4c-11.5,12.1-35.8,31.7-44.4,15s-89-217.7-81.8-229.3s18-40.9,54.4-19.1
		C621.2,605.4,683.5,814.3,672,826.4z"/>
	<path class="st21" d="M552.4,620l31-11.6c0.4-0.1,0.8,0.1,1,0.4l0.2,0.5c0.1,0.4-0.1,0.8-0.4,1l-31,11.6c-0.4,0.1-0.8-0.1-1-0.4
		L552,621C551.8,620.6,552,620.1,552.4,620z"/>
	<path class="st21" d="M554.8,626.5l14.8-5.5c0.4-0.1,0.8,0.1,1,0.4l0.2,0.5c0.1,0.4-0.1,0.8-0.4,1l-14.8,5.5
		c-0.4,0.1-0.8-0.1-1-0.4l-0.2-0.5C554.3,627.1,554.5,626.6,554.8,626.5z"/>
	<path class="st21" d="M557.5,633.7l14.8-5.5c0.4-0.1,0.8,0.1,1,0.4l0.2,0.5c0.1,0.4-0.1,0.8-0.4,1l-14.8,5.5
		c-0.4,0.1-0.8-0.1-1-0.4l-0.2-0.5C556.9,634.3,557.1,633.8,557.5,633.7z"/>
	<path class="st21" d="M560.2,640.9l14.8-5.5c0.4-0.1,0.8,0.1,1,0.4l0.2,0.5c0.1,0.4-0.1,0.8-0.4,1l-14.8,5.5
		c-0.4,0.1-0.8-0.1-1-0.4l-0.2-0.5C559.7,641.5,559.9,641,560.2,640.9z"/>
	<path class="st21" d="M567,654l14.8-5.5c0.4-0.1,0.8,0.1,1,0.4l0.2,0.5c0.1,0.4-0.1,0.8-0.4,1l-14.8,5.5c-0.4,0.1-0.8-0.1-1-0.4
		l-0.2-0.5C566.4,654.6,566.6,654.1,567,654z"/>
	<path class="st21" d="M565.7,655.3l14.8-5.5c0.4-0.1,0.8,0.1,1,0.4l0.2,0.5c0.1,0.4-0.1,0.8-0.4,1l-14.8,5.5
		c-0.4,0.1-0.8-0.1-1-0.4l-0.2-0.5C565.1,655.9,565.3,655.5,565.7,655.3z"/>
	<path class="st21" d="M568.3,662.4l31-11.6c0.4-0.1,0.8,0.1,1,0.4l0.2,0.5c0.1,0.4-0.1,0.8-0.4,1l-31,11.6c-0.4,0.1-0.8-0.1-1-0.4
		l-0.2-0.5C567.7,663,567.9,662.6,568.3,662.4z"/>
	<path class="st21" d="M570.8,668.9l14.8-5.5c0.4-0.1,0.8,0.1,1,0.4l0.2,0.5c0.1,0.4-0.1,0.8-0.4,1l-14.8,5.5
		c-0.4,0.1-0.8-0.1-1-0.4l-0.2-0.5C570.2,669.5,570.4,669.1,570.8,668.9z"/>
	<path class="st21" d="M573.5,676.1l14.8-5.5c0.4-0.1,0.8,0.1,1,0.4l0.2,0.5c0.1,0.4-0.1,0.8-0.4,1l-14.8,5.5
		c-0.4,0.1-0.8-0.1-1-0.4l-0.2-0.5C572.9,676.7,573.1,676.3,573.5,676.1z"/>
	<path class="st21" d="M576.2,683.3l14.8-5.5c0.4-0.1,0.8,0.1,1,0.4l0.2,0.5c0.1,0.4-0.1,0.8-0.4,1l-14.8,5.5
		c-0.4,0.1-0.8-0.1-1-0.4l-0.2-0.5C575.6,683.9,575.8,683.5,576.2,683.3z"/>
	<path class="st21" d="M578.9,690.5l14.8-5.5c0.4-0.1,0.8,0.1,1,0.4l0.2,0.5c0.1,0.4-0.1,0.8-0.4,1l-14.8,5.5
		c-0.4,0.1-0.8-0.1-1-0.4l-0.2-0.5C578.3,691.1,578.5,690.7,578.9,690.5z"/>
	<path class="st21" d="M581.6,697.8l14.8-5.5c0.4-0.1,0.8,0.1,1,0.4l0.2,0.5c0.1,0.4-0.1,0.8-0.4,1l-14.8,5.5
		c-0.4,0.1-0.8-0.1-1-0.4l-0.2-0.5C581,698.3,581.2,697.9,581.6,697.8z"/>
	<path class="st21" d="M584.3,704.9l31-11.6c0.4-0.1,0.8,0.1,1,0.4l0.2,0.5c0.1,0.4-0.1,0.8-0.4,1l-31,11.6c-0.4,0.1-0.8-0.1-1-0.4
		l-0.2-0.5C583.7,705.5,583.9,705,584.3,704.9z"/>
	<path class="st21" d="M586.7,711.3l14.8-5.5c0.4-0.1,0.8,0.1,1,0.4l0.2,0.5c0.1,0.4-0.1,0.8-0.4,1l-14.8,5.5
		c-0.4,0.1-0.8-0.1-1-0.4l-0.2-0.5C586.1,711.9,586.3,711.5,586.7,711.3z"/>
	<path class="st21" d="M589.4,718.6l14.8-5.5c0.4-0.1,0.8,0.1,1,0.4l0.2,0.5c0.1,0.4-0.1,0.8-0.4,1l-14.8,5.5
		c-0.4,0.1-0.8-0.1-1-0.4l-0.2-0.5C588.8,719.1,589,718.7,589.4,718.6z"/>
	<path class="st21" d="M592.1,725.8l14.8-5.5c0.4-0.1,0.8,0.1,1,0.4l0.2,0.5c0.1,0.4-0.1,0.8-0.4,1l-14.8,5.5
		c-0.4,0.1-0.8-0.1-1-0.4l-0.2-0.5C591.5,726.4,591.7,725.9,592.1,725.8z"/>
	<path class="st21" d="M594.8,733l14.8-5.5c0.4-0.1,0.8,0.1,1,0.4l0.2,0.5c0.1,0.4-0.1,0.8-0.4,1l-14.8,5.5c-0.4,0.1-0.8-0.1-1-0.4
		l-0.2-0.5C594.2,733.6,594.4,733.1,594.8,733z"/>
	<path class="st21" d="M597.5,740.2l14.8-5.5c0.4-0.1,0.8,0.1,1,0.4l0.2,0.5c0.1,0.4-0.1,0.8-0.4,1l-14.8,5.5
		c-0.4,0.1-0.8-0.1-1-0.4l-0.2-0.5C596.9,740.8,597.1,740.3,597.5,740.2z"/>
	<path class="st21" d="M600.2,747.3l31-11.6c0.4-0.1,0.8,0.1,1,0.4l0.2,0.5c0.1,0.4-0.1,0.8-0.4,1l-31,11.6c-0.4,0.1-0.8-0.1-1-0.4
		l-0.2-0.5C599.6,747.9,599.8,747.5,600.2,747.3z"/>
	<path class="st21" d="M602.6,753.8l14.8-5.5c0.4-0.1,0.8,0.1,1,0.4l0.2,0.5c0.1,0.4-0.1,0.8-0.4,1l-14.8,5.5
		c-0.4,0.1-0.8-0.1-1-0.4l-0.2-0.5C602,754.4,602.2,753.9,602.6,753.8z"/>
	<path class="st21" d="M605.3,761l14.8-5.5c0.4-0.1,0.8,0.1,1,0.4l0.2,0.5c0.1,0.4-0.1,0.8-0.4,1l-14.8,5.5c-0.4,0.1-0.8-0.1-1-0.4
		l-0.2-0.5C604.7,761.6,604.9,761.1,605.3,761z"/>
	<path class="st21" d="M608,768.2l14.8-5.5c0.4-0.1,0.8,0.1,1,0.4l0.2,0.5c0.1,0.4-0.1,0.8-0.4,1l-14.8,5.5c-0.4,0.1-0.8-0.1-1-0.4
		l-0.2-0.5C607.4,768.8,607.6,768.4,608,768.2z"/>
	<path class="st21" d="M610.7,775.4l14.8-5.5c0.4-0.1,0.8,0.1,1,0.4l0.2,0.5c0.1,0.4-0.1,0.8-0.4,1l-14.8,5.5
		c-0.4,0.1-0.8-0.1-1-0.4l-0.2-0.5C610.1,776,610.3,775.6,610.7,775.4z"/>
	<path class="st21" d="M613.4,782.6l14.8-5.5c0.4-0.1,0.8,0.1,1,0.4l0.2,0.5c0.1,0.4-0.1,0.8-0.4,1l-14.8,5.5
		c-0.4,0.1-0.8-0.1-1-0.4l-0.2-0.5C612.8,783.2,613,782.8,613.4,782.6z"/>
	<path class="st21" d="M616.1,789.7l31-11.6c0.4-0.1,0.8,0.1,1,0.4l0.2,0.5c0.1,0.4-0.1,0.8-0.4,1l-31,11.6c-0.4,0.1-0.8-0.1-1-0.4
		l-0.2-0.5C615.5,790.3,615.7,789.9,616.1,789.7z"/>
	<path class="st21" d="M618.5,796.2l14.8-5.5c0.4-0.1,0.8,0.1,1,0.4l0.2,0.5c0.1,0.4-0.1,0.8-0.4,1l-14.8,5.5
		c-0.4,0.1-0.8-0.1-1-0.4l-0.2-0.5C618,796.8,618.2,796.4,618.5,796.2z"/>
	<path class="st21" d="M621.3,803.4l14.8-5.5c0.4-0.1,0.8,0.1,1,0.4l0.2,0.5c0.1,0.4-0.1,0.8-0.4,1l-14.8,5.5
		c-0.4,0.1-0.8-0.1-1-0.4l-0.2-0.5C620.7,804,620.9,803.6,621.3,803.4z"/>
	<path class="st21" d="M624,810.7l14.8-5.5c0.4-0.1,0.8,0.1,1,0.4l0.2,0.5c0.1,0.4-0.1,0.8-0.4,1l-14.8,5.5c-0.4,0.1-0.8-0.1-1-0.4
		l-0.2-0.5C623.4,811.2,623.6,810.8,624,810.7z"/>
	<path class="st21" d="M626.7,817.9l14.8-5.5c0.4-0.1,0.8,0.1,1,0.4l0.2,0.5c0.1,0.4-0.1,0.8-0.4,1l-14.8,5.5
		c-0.4,0.1-0.8-0.1-1-0.4l-0.2-0.5C626.1,818.4,626.3,818,626.7,817.9z"/>
	<path class="st21" d="M629.4,825.1l14.8-5.5c0.4-0.1,0.8,0.1,1,0.4l0.2,0.5c0.1,0.4-0.1,0.8-0.4,1l-14.8,5.5
		c-0.4,0.1-0.8-0.1-1-0.4l-0.2-0.5C628.8,825.7,629,825.2,629.4,825.1z"/>
	<path class="st22" d="M615.8,789.3h-25.3c0,0,16.3,136.3,22.1,149.2c4.6,10.1,17.9,7.9,30.5,6.3
		C628.8,893.6,615.4,842.4,615.8,789.3z"/>
	<path class="st15" d="M654.5,789.3h-38.8c-0.4,53.1,13.1,104.3,27.3,155.5c3.3-0.5,6.7-0.8,10.1-0.9c4.7,0,9.3,0.6,13.8,1.8
		c11.7-6.4,20.9-16.7,23.2-29.6c9.4-42.9,13-84.9,18.7-126.8L654.5,789.3z"/>
	<path class="st23" d="M708.9,789.3c-5.7,41.9-9.3,83.9-18.7,126.8c-2.3,12.9-11.5,23.2-23.2,29.6c7.6,1.9,14.1,4.1,21.2,1
		c11-4.7,30.4-157.4,30.4-157.4L708.9,789.3z"/>
	<path class="st21" d="M580,782h149c4.3,0,7.9,3.5,7.9,7.9v5.1c0,4.3-3.5,7.9-7.9,7.9H580c-4.3,0-7.9-3.5-7.9-7.9v-5.1
		C572.2,785.6,575.7,782,580,782z"/>
	<path class="st24" d="M909.5,741c-0.3-99,0-211.7,1.3-217.8c1.8-8.2-17.8-12.2-27-5.8c1.1,69.2,18.6,134.8,22.5,204.2
		C906.9,727.2,907.5,734.3,909.5,741z"/>
	<path class="st24" d="M1006.8,527.5c-7.5-0.5-21.4-8-22.4,13.7c-0.4,8.9-3.1,67.8-6.5,134.5c9.3-39,17.1-77.5,28.3-115
		C1007.9,540.3,1008.3,527.6,1006.8,527.5z"/>
	<path class="st25" d="M977.9,675.7c-4.9,95.3-11.2,206.8-14.3,212.6c-5.2,9.9-50.5,7.6-52.4,1.9c-0.8-2.5-1.5-71.6-1.7-149.3
		c-2-6.7-2.6-13.8-3.2-19.4c-3.8-69.4-21.4-135-22.5-204.2c-3,2-4.7,5.5-4.5,9.1c0,0,23.7,356.9,18.3,364.3c-3.9,7.4-47.6,6-47.6,6
		s-7.5-0.9-6.9,5.7s148.3,6.9,162.5,1.6s-6-5.3-12.9-5.7s-18.3-1.3-18.6-28.3c-0.3-21.7,25.7-227.6,32.2-309.4
		C995,598.2,987.2,636.7,977.9,675.7z"/>
	<path class="st25" d="M632,100.2c0,0-50.6,412.5,35,422.6s562.9,42.2,568.9-12.6s66.9-424.1-29.8-434.2S639.4,35.8,632,100.2z"/>
	<path class="st15" d="M620.7,100.2c0,0-50.6,412.5,35,422.6s562.9,42.2,568.9-12.6s66.9-424.1-29.8-434.2S628.2,35.8,620.7,100.2z"
		/>
	<path class="st20" d="M639.8,112.8c0,0-53.8,393.9,26.5,403.3c80.3,9.4,544.1,37.7,549.7-13.8s52.9-402.8-37.8-412.2
		S646.8,52.5,639.8,112.8z"/>
	<path class="st26" d="M646.4,117.4c0,0-53,387.7,26,397c79,9.3,535.6,37.1,541.2-13.5s52.1-396.5-37.2-405.8S653.3,58,646.4,117.4z
		"/>
	<g id="Artwork_126">
		<path class="st27" d="M958.5,152.9c5,5.3-18,43-43.3,36s-34.5-15.2-34.5-36.8s31.8-42.8,38.9-39s0,9.3,0,9.3
			c-16.4,0-29.6,13.3-29.6,29.6c0,16.4,13.3,29.6,29.6,29.6c16.1,0,29.2-12.8,29.6-28.9C949.2,152.9,953.5,147.7,958.5,152.9z"/>
		<path class="st15" d="M949.2,152.2v0.8c-0.2,16.3-13.6,29.4-30,29.2c-16.3-0.2-29.4-13.6-29.2-30s13.6-29.4,30-29.2
			C936,123.2,949,136.1,949.2,152.2z"/>
	</g>
	<path class="st28" d="M721.7,462.6c-1.6,4-15.2,4.8-19,0s-4.4-28.9,0-36.5s17.6-6.9,18.3-3.5S723.3,458.6,721.7,462.6z"/>
	<path class="st28" d="M755,462.6c-2.5,4.2-18,3.3-19,0s-2.3-80.9,0-85.5s19-7.6,19,0S757.5,458.4,755,462.6z"/>
	<path class="st28" d="M786,462.6c-1.9,5-15.1,6.6-19,0s-3-96.9,0-103.5s16-9.7,19,0S787.9,457.5,786,462.6z"/>
	<path class="st28" d="M817,462.6c-1.3,6.4-16.7,7.1-19,0s-5.2-141.2,0-147.9s14.5-4,20.8,1.1S818.4,456.2,817,462.6z"/>
	<g id="Artwork_131">
		<path class="st29" d="M958.7,266.4L954,270L958.7,266.4z"/>
		<path class="st15" d="M959.3,311.5c-14.3,26.9-53,31.3-73.1,8.8c-34.4-36,6.7-86.9,50.4-74.9c2.1,8.4-24.7,51.2-21.5,53.5
			s41.6-32.5,46.7-28.1S967.4,296.9,959.3,311.5z"/>
		<path class="st30" d="M991.3,236.6c0.7,6.6-45.3,34.6-68.3,51.6c13.4-25.7,34.4-74.5,40.5-76.8S990.5,230,991.3,236.6z"/>
	</g>
	<g id="Artwork_81">
		<path class="st31" d="M737.1,113.3c-33.6,0-60.9,25.7-60.9,57.4s27.3,61,60.9,61s60.9-29.4,60.9-61S770.7,113.3,737.1,113.3z
			 M737.1,216.2c-26.6,0-39.2-20.4-39.2-45.5s12.6-45.5,39.2-45.5s43.3,20.4,43.3,45.5S763.7,216.2,737.1,216.2z"/>
		<path class="st15" d="M737.1,125.2c-25.1,0-45.5,20.4-45.5,45.5s20.4,45.5,45.5,45.5c25.1,0,45.5-20.4,45.5-45.5v0l0,0
			C782.6,145.6,762.2,125.3,737.1,125.2z M737.1,203.9c-18.3,0-33.1-14.9-33.1-33.2l0,0c0-18.3,14.8-35.5,33.2-35.5
			s33.2,17.2,33.2,35.5C770.3,189,755.5,203.9,737.1,203.9C737.1,203.9,737.1,203.9,737.1,203.9z"/>
		<path class="st31" d="M737.1,135.2c-18.3,0-33.2,17.2-33.2,35.5c0.3,18.3,15.4,32.9,33.7,32.6c17.9-0.3,32.3-14.7,32.6-32.6
			C770.3,152.4,755.4,135.2,737.1,135.2z M737.1,191.6c-11.5,0-20.9-9.3-20.9-20.9s9.3-20.9,20.9-20.9c11.5,0,20.9,9.3,20.9,20.9
			S748.7,191.6,737.1,191.6L737.1,191.6z"/>
		<path class="st15" d="M737.1,149.8c-11.5,0-20.9,9.4-20.9,20.9c0,11.5,9.3,20.9,20.9,20.9c11.5,0,23.4-9.4,23.4-20.9
			S748.7,149.8,737.1,149.8z"/>
		<path class="st30" d="M737.1,160.3c-5.7,0-12.5,4.7-12.5,10.4s6.7,10.4,12.5,10.4s13-4.7,13-10.4S742.9,160.3,737.1,160.3z"/>
	</g>
	<path class="st32" d="M1158.1,423c3.2,24.2-18.3,55.2-52.1,54.3s-55.7-26.4-51-59.9s25.8-53.3,55.2-51.7S1154.9,398.8,1158.1,423z"
		/>
	<path class="st21" d="M1118.1,397.6v-1.3c-9.2,1.3-33.8-5.5-35.8,9c0.2,8-13.9,45.4-5.3,51.5c3.9,6.6,42,2.6,48.3,3.9
		c6.4,0,11.7-5.1,11.7-11.5c0-0.7-0.1-1.4-0.2-2.1C1133.2,439.2,1133.2,389.7,1118.1,397.6l-0.4,3.9c9.9,1.2,12.7,39,16.6,46
		c2,4.7-6.3,14-9.2,9c-7.3-2.4-49.9,9.1-46.3-8.6c1.8,0.3,5.8-40.6,6.1-42c1.6-12.9,25.5-3.8,32.8-4.3L1118.1,397.6z"/>
	<path class="st21" d="M1117.7,409.6c1.6-11.5,5.5-29.4-12.4-26.4c-15.3-3.7-9.8,18.2-11.4,26.1c0,0-1.3,2,2.8,1s-5.3-27.8,8.7-24.2
		c3.6,0.2,8.5-0.6,9.3,4.3l-0.7,19.3L1117.7,409.6z"/>
	<path class="st15" d="M1192,179c-10,5.1-192.2,5-204.7-4.4s-7.3-40.6,1.6-46.3s186.2-14.8,203.1-1.3S1201.9,173.9,1192,179z"/>
	<path class="st21" d="M1178.2,154.6c0,10-16,19.6-24.5,17.6s-13.1-9.3-13.1-19.3s7.5-18.3,18-19.4S1178.2,144.6,1178.2,154.6z"/>
	<path class="st21" d="M1010.5,160.6c0,0,138,2.8,142.3,0s0-15.4,0-15.4s-129.4-1.9-137.1-1s-12.9,4.4-12.9,8.6l0,0
		C1002.8,157.2,1006.2,160.6,1010.5,160.6C1010.4,160.6,1010.4,160.6,1010.5,160.6L1010.5,160.6z"/>
	<rect x="1012.5" y="146.7" class="st33" width="0.8" height="12.5"/>
	<g id="Artwork_29">
		
			<rect x="1159.6" y="151.5" transform="matrix(0.7051 -0.7091 0.7091 0.7051 233.9551 867.5106)" class="st34" width="0.9" height="1.9"/>
		<path class="st34" d="M1150.4,155c3.3,3.3,8.7,3.3,12,0c0,0,0,0,0,0l0,0c3.3-3.3,3.5-7.6,0.6-11.8s-9.3-3.4-12.6-0.1
			C1147.1,146.4,1147.2,151.7,1150.4,155z"/>
		<path class="st35" d="M1152.5,152.9c1.5,1.1,6,3,8.4,0.5s2.4-7.1-0.6-8.9s-6-2.5-8.4,0S1151,151.8,1152.5,152.9z"/>
		<path class="st34" d="M1161.9,153.2c-0.4,0-1.2,0.9-1.1,1.1c0,0,5.5,7.9,7.5,8.7s2.2-0.8,2-1.5L1161.9,153.2z"/>
	</g>
	<g id="Artwork_63">
		<path class="st15" d="M1082.5,262.8l5.3-0.3c4.5-0.3,8.5,3.1,8.7,7.7l1.9,29.7c0.3,4.5-3.1,8.5-7.7,8.7l-5.3,0.3
			c-4.5,0.3-8.5-3.1-8.7-7.7l-1.9-29.7C1074.5,267,1078,263.1,1082.5,262.8z"/>
		<path class="st15" d="M1156,269v0.1h-0.2L1156,269z"/>
		<path class="st15" d="M1157.7,294.5v0.1h-0.2L1157.7,294.5z"/>
		<path class="st15" d="M1156,269l-0.2,0.1L1156,269c2.1,0.8,3.5,2.6,3.7,4.8l0.3,4.4c0.1,1.9-0.8,3.7-2.4,4.8
			c-0.2-0.1-0.5-0.2-0.7-0.3v0.6c0.2-0.1,0.4-0.2,0.7-0.4c1.7,0.8,2.9,2.5,3,4.4l0.1,1.9c0.1,2.2-1,4.2-3,5.1l-0.2,0.1h0.2
			c2.6,0.7,4.2,3.4,3.5,6c-0.5,2-2.3,3.5-4.4,3.6l-39.8,2.6c-4.6,0.3-8.6-3.2-8.9-7.8c0,0,0,0,0,0l0,0l-0.9-14l-0.7-10.8
			c-0.3-4.5-0.8-8.9-0.8-13.4c-0.1-3,0.8-5.9,2.6-8.3c1.2-1.5,2.7-3.1,3.4-5c0.3-0.7,0.5-1.4,0.6-2.1c0-1-0.1-2.1-0.2-3.1
			c-0.1-2.1-0.1-4.2,0-6.3c0-0.8,0.1-1.6,0.3-2.4c0.9-2.6,3.8-2.6,6.1-2.1c1.9,0.4,3.6,1.3,5,2.6c3.6,3.2,4.4,8.5,3.3,13
			c-0.7,2.8-2.1,4.9-3.5,7.4c-0.1,0.2-0.7,2-0.8,2l30.6-2c2.9-0.2,5.4,2,5.6,4.9c0,0,0,0,0,0l0,0l0.3,4.4
			C1159.2,265.9,1158,268,1156,269z"/>
		<path class="st15" d="M1157.6,283c-0.2,0.1-0.4,0.3-0.7,0.4v-0.6C1157.1,282.8,1157.4,282.9,1157.6,283z"/>
		<path class="st15" d="M1157.6,283c-0.2,0.1-0.4,0.3-0.7,0.4v-0.6C1157.1,282.8,1157.4,282.9,1157.6,283z"/>
	</g>
	<path class="st20" d="M966.7,766.7l73.4-139c4.7-20.3,31.1-15.8,39.5-10.9c0,0,66.2,24.7,80.4,49.9s-96,162.5-96,162.5
		c-2.7,4.2-11.3,3.4-15.4,0.8l-79.2-50.9C965.3,776.4,964,770.8,966.7,766.7z"/>
	<path class="st36" d="M1031.3,812.6c-1.7-5.5,90.3-147.8,96.1-150.5s15.1,5.8,15.8,13.2s-91.8,141.6-95.5,145.7
		S1033.1,818.1,1031.3,812.6z"/>
	<path class="st21" d="M1035.3,753.1c0.6-6.4,58.9-96,62.8-97.8s17.6,5.1,16.4,10.5s-56.2,94.5-62.8,97.8S1034.7,759.4,1035.3,753.1
		z"/>
	<path class="st28" d="M1066.8,656.8c0,0,4.7-12,6.9-13.5c1.6-1.2,3.9-1.4,5.6-0.3l8.6,5.5c1.4,0.9,3.4,1.3,1,5.7
		c-2.5,4-5.2,7.8-8.2,11.4c-0.9,1.4-2.8,1.9-4.3,0.9l0,0l-8.6-5.5C1066.4,660.2,1065.9,658.3,1066.8,656.8L1066.8,656.8z"/>
	<path class="st37" d="M938.5,825v-6.5l-50.7-2.4h-82.7c1.4,2.2,2.7,4.5,3.9,6.9C852.2,827.3,895.3,824.5,938.5,825z"/>
	<path class="st37" d="M938.5,842.8v-11.9c-42.7,0.7-85.3,4.6-127.3-3c1.3,3,2.4,6.1,3.3,9.3C855.8,838,897.2,840.3,938.5,842.8z"/>
	<path class="st21" d="M938.5,843.2v-0.5c-41.3-2.5-82.7-4.7-124-5.7c0.5,1.7,0.9,3.4,1.2,5.2C856.7,843.1,897.6,841.1,938.5,843.2z
		"/>
	<path class="st21" d="M816.5,849c0.1,1.7,0.1,3.4-0.1,5.2h122.1v-4.3C897.8,850.1,856.9,850.4,816.5,849z"/>
	<path class="st37" d="M815.7,842.3c0.4,2.2,0.7,4.4,0.8,6.7c40.4,1.4,81.3,1.1,122,0.9v-6.7C897.6,841.1,856.7,843.1,815.7,842.3z"
		/>
	<path class="st37" d="M938.5,854.1H816.4c-0.1,1.8-0.4,3.6-0.8,5.3h122.9V854.1z"/>
	<path class="st21" d="M938.5,859.4H815.6c-0.6,2.3-1.4,4.5-2.5,6.6h125.4V859.4z"/>
	<path class="st21" d="M811.4,868.8c-1.7,2.5-3.8,4.8-6.3,6.7h133.4v-4.3C896.2,871.6,854.1,872.2,811.4,868.8z"/>
	<path class="st37" d="M813.1,866.1c-0.5,1-1.1,1.9-1.7,2.8c42.7,3.4,84.8,2.8,127.1,2.4v-5.2L813.1,866.1z"/>
	<path class="st21" d="M809,823c0.7,1.4,1.5,3.1,2.3,4.9c42,7.6,84.6,3.7,127.3,3V825C895.3,824.5,852.2,827.3,809,823z"/>
	<path class="st38" d="M961.9,863.4c-11.1,0.9-22.3-0.1-33.4,0.1c-2.1,3.9-5.2,7.1-9,9.3c0,0-104.9,0.3-119.9,0.3s-6.3,4.8-6.3,4.8
		s330.5,9.8,349.9,6.9s35.8-21,33.3-42c-0.4-2.9-1.1-5.8-2.2-8.5c-7.6,5-16.5,7.7-25.6,7.9C1085.1,842.2,1025.5,854.1,961.9,863.4z"
		/>
	<path class="st39" d="M1135.5,806.4c-17-2.6-330,7.3-337.1,7.9s3.2,4.5,3.2,4.5s106.1-0.3,110.8-0.3c2.5,0,8,1.7,12.6,6.4
		c1.7,1.8,3.2,3.9,4.3,6.1c1.7,3.6,2.8,7.4,3.1,11.4v0.5c0.1,0.8,0.1,1.6,0.2,2.5c0,1.5,0,3-0.2,4.5c-0.1,1.4-0.3,2.8-0.6,4.2
		c-0.3,1.8-0.8,3.6-1.5,5.3c-0.5,1.4-1.1,2.8-1.9,4.1c11.1-0.2,22.3,0.8,33.4-0.1c8.8-1.3,17.6-2.6,26.3-4
		c54-8.4,105.8-17.2,160.6-17.2c9.1-0.1,18-2.9,25.6-7.9C1167.9,818.4,1150.1,808.6,1135.5,806.4z"/>
	<path class="st21" d="M929.8,820.3c5.3,4.3,9.1,10.1,10.9,16.7c1.9,7.3,1.8,15-0.1,22.3c-1.1,4.4-2.6,8.6-4.5,12.7
		c-0.2,0.4,0.4,0.8,0.7,0.4c3.6-7.3,5.7-15.2,6.2-23.3c0.3-7.2-1.3-14.3-4.8-20.5c-1.9-3.4-4.5-6.4-7.6-8.8
		C930,819.5,929.5,820,929.8,820.3L929.8,820.3z"/>
	<path class="st21" d="M1142.9,817.9c7.2,4.2,10.9,12.5,12.2,20.4c1.4,8.5,0.4,17.8-3.8,25.3c-2.1,4-5.4,7.3-9.4,9.5
		c-0.4,0.2,0,0.9,0.4,0.7c7.6-4,11.8-12.3,13.4-20.5c1.6-8.7,0.7-18.1-3.3-26c-2-4.1-5.1-7.6-9-10c-0.2-0.1-0.4,0-0.5,0.2
		C1142.7,817.7,1142.8,817.9,1142.9,817.9L1142.9,817.9z"/>
	<path class="st21" d="M1045.3,820.8c5.3,5.1,8.6,11.9,9.4,19.2c0.5,4.2,0.4,8.4-0.3,12.6c-0.4,3.6-1.3,7.1-2.7,10.4
		c-1.4,3.1-3.5,6-6.9,6.9c-0.2,0.1-0.3,0.3-0.2,0.5c0.1,0.2,0.2,0.3,0.4,0.2c6.7-1.8,8.7-9.9,9.8-15.8c1.5-8.1,1.4-16.7-1.9-24.4
		c-1.6-3.9-4-7.3-7.1-10.2C1045.5,820,1044.9,820.5,1045.3,820.8L1045.3,820.8z"/>
	<path class="st21" d="M871.4,922.9c-41.1,0.1-82.1,0.1-122.9-1c0.5,3.5,0.8,6.9,0.9,10.4h122L871.4,922.9z"/>
	<path class="st37" d="M871.4,932.3h-122c0,1.8,0,3.5-0.1,5.3h122L871.4,932.3z"/>
	<path class="st21" d="M871.4,937.6h-122c-0.1,2.7-0.4,5.4-0.9,8h123L871.4,937.6z"/>
	<path class="st21" d="M871.4,949.5H747.5c-0.7,2.8-1.7,5.4-3,8c42.3,0.5,84.6,0.9,126.9,1L871.4,949.5z"/>
	<path class="st37" d="M744.5,957.5c-1.7,3.4-3.8,6.6-6.5,9.3h133.4v-8.3C829.1,958.4,786.8,958,744.5,957.5z"/>
	<path class="st37" d="M871.4,945.5h-123c-0.3,1.3-0.6,2.7-0.9,4h123.9L871.4,945.5z"/>
	<path class="st37" d="M747.7,916.8c0.3,1.7,0.6,3.3,0.9,5c40.8,1.1,81.8,1.1,122.9,1v-2.7C829.9,920.7,788.6,920.9,747.7,916.8z"/>
	<path class="st21" d="M744.2,903.5c1.4,4.4,2.5,8.8,3.4,13.3c40.9,4.1,82.3,3.9,123.8,3.4v-8.6
		C828.8,911.8,786.3,910.8,744.2,903.5z"/>
	<path class="st37" d="M743,900c0.4,1.1,0.8,2.3,1.2,3.6c42.1,7.3,84.5,8.3,127.2,8v-6.8C828.6,904.9,785.8,904.1,743,900z"/>
	<path class="st37" d="M871.4,890.9l-50.7-3.2H738c0,0,1.9,3.9,4.2,10.2h129.2V890.9z"/>
	<path class="st21" d="M742.3,897.8c0.3,0.7,0.5,1.4,0.8,2.1c42.8,4.2,85.6,4.9,128.4,4.8v-7L742.3,897.8z"/>
	<path class="st40" d="M1218.5,870.6c-30.8-12.6-480,13.9-487.1,14.7s3.2,5.9,3.2,5.9s106.1-0.4,110.8-0.4s19.8,7.9,20.2,35.8
		c0.2,11.5-2,19.7-4.7,25.4c13.8-0.3,27.6-2.6,41.5-2.6c92.8-2.7,182.8,1.3,278.3-18.5c29.2-6.4,50.3-22.9,71.8-40.3
		C1245.1,882.1,1233.9,877,1218.5,870.6z"/>
	<path class="st41" d="M902.3,949.5c-13.8,0-27.6,2.4-41.5,2.6c-3.8,8.2-8.4,11.2-8.4,11.2s-104.9,0.4-119.9,0.4s-6.3,6.4-6.3,6.4
		h505.2c2.4,0,31.7,2.4,31.7-38.4c0-20.3-3.4-32.4-10.7-41c-21.6,17.4-42.6,33.9-71.8,40.3C1085.1,950.8,995,946.9,902.3,949.5z"/>
	<path class="st21" d="M865,892.9c6.3,5.6,10.7,12.9,12.8,21.1c2.1,8.6,1.9,17.7-0.8,26.2c-1.5,4.9-3.7,9.6-6.5,13.9
		c-0.3,0.4,0.4,0.8,0.7,0.4c5.1-7.8,8.1-16.7,8.8-26c0.6-8.7-1.3-17.3-5.5-24.9c-2.3-4.2-5.3-8-8.9-11.1
		C865.2,892,864.7,892.6,865,892.9L865,892.9z"/>
	<path class="st21" d="M985.6,896.2c2.8,2.4,5.8,5,7.7,8.2c2.3,3.8,2.4,8.2,2.5,12.5c0.2,4.6,0.3,9.2,0.2,13.7
		c0.1,4.3-0.6,8.6-1.9,12.7c-1.5,4.1-4,7.8-7.3,10.7c-0.4,0.3,0.2,0.8,0.5,0.5c3-2.6,5.3-5.8,6.9-9.4c1.6-3.9,2.5-8.2,2.5-12.4
		c0.2-4.7,0-9.5-0.1-14.2c-0.1-4.3,0-9-1.9-12.9s-5.3-6.9-8.6-9.7C985.8,895.4,985.2,895.9,985.6,896.2z"/>
	<path class="st21" d="M1042.8,896.3c2.5,3.1,4.4,6.6,5.6,10.5c1.3,3.8,2.3,7.8,2.8,11.8c1.2,8.2,1.1,16.5-0.4,24.6
		c-0.8,4.5-2.1,8.9-3.8,13.2c-0.2,0.5,0.6,0.7,0.8,0.2c3-7.8,4.7-16,5-24.3c0.3-8.3-0.8-16.7-3.3-24.6c-1.2-4.3-3.3-8.4-6.2-11.8
		C1043,895.3,1042.5,895.9,1042.8,896.3L1042.8,896.3z"/>
	<path class="st21" d="M1237.2,892c4.8,2.1,8.7,5.9,11,10.6c2.8,5.4,3.8,11.5,4.4,17.4c0.9,10,0.2,20.5-3.4,30
		c-2,5.3-5.1,10-9.1,13.9c-0.3,0.3,0.2,0.9,0.5,0.5c7.5-7.2,11.3-17.3,12.6-27.4c0.6-5.2,0.8-10.5,0.3-15.8
		c-0.4-6-1.4-12.2-3.9-17.7c-2.5-5.3-6.6-10-12.1-12.2C1237,891.1,1236.8,891.9,1237.2,892L1237.2,892z"/>
	<path class="st42" d="M1096.9,909.7c6.7,7.9,2.8,31.4-2.3,42.4c-4.1,9,104.8,9.9,107.2-3.3s6.1-36.4-6.6-45.3
		C1181.7,893.9,1090.2,901.7,1096.9,909.7z"/>
	<path class="st20" d="M1119.7,911.2c0,0-0.6,36-3.5,39.3s2.7,2.1,2.8,1.6s4.4-33.7,3.1-41S1118.9,907.1,1119.7,911.2z"/>
	<path class="st20" d="M1137.6,911.2c0,0-0.6,36-3.5,39.3s2.7,2.1,2.8,1.6s4.4-33.7,3.2-41S1136.8,907.1,1137.6,911.2z"/>
	<path class="st20" d="M1155.6,911.2c0,0-0.6,36-3.5,39.3s2.7,2.1,2.8,1.6s4.4-33.7,3.2-41S1154.8,907.1,1155.6,911.2z"/>
	<path class="st20" d="M1173.5,911.2c0,0-0.6,36-3.5,39.3s2.7,2.1,2.8,1.6s4.4-33.7,3.1-41S1172.7,907.1,1173.5,911.2z"/>
	<path class="st20" d="M1191.4,911.2c0,0-0.6,36-3.5,39.3s2.7,2.1,2.8,1.6s4.4-33.7,3.2-41S1190.7,907.1,1191.4,911.2z"/>
	<path class="st43" d="M897.3,909.7c0,0,7.5,36.7-2,46.9c-0.9,7.3,19.4,3.6,19.4,3.6s6.1-1.7,6.1-3.7s7.5-42.4,0-48.6
		s-14.6-3.8-18.4-4.8S893.7,906,897.3,909.7z"/>
	<path class="st37" d="M974.5,764.3v-9.5l-36.1-2.3h-58.9c1.3,2.9,2.5,5.8,3.5,8.8C913.6,760.5,944.2,761.5,974.5,764.3z"/>
	<path class="st37" d="M974.5,778.3c-29.2,0.1-58.5,1.3-87.3-0.5c0.2,1.1,0.3,2.2,0.3,3.3h87L974.5,778.3z"/>
	<path class="st21" d="M974.5,786.2v-4.9h-87c0.1,1.8,0.2,3.6,0.2,5.4C916.7,787.2,945.6,785.5,974.5,786.2z"/>
	<path class="st37" d="M974.5,788.7v-2.5c-28.9-0.6-57.9,1-86.8,0.5c0,0.9-0.1,1.7-0.1,2.6C916.8,789.9,945.6,788.6,974.5,788.7z"/>
	<path class="st21" d="M974.5,803.7V799c-29.5-1.8-59.6,0.5-88.8-0.5c-0.6,1.8-1.4,3.6-2.4,5.2C913.5,803.7,944.2,803.1,974.5,803.7
		z"/>
	<path class="st37" d="M883.4,803.8c-1.1,1.8-2.3,3.6-3.8,5.1h94.9v-5.1C944.2,803.1,913.5,803.7,883.4,803.8z"/>
	<path class="st37" d="M974.5,799v-3c-29.3,0-58.7,0.8-87.8-1.1c-0.3,1.2-0.6,2.5-1,3.7C915,799.4,945,797.2,974.5,799z"/>
	<path class="st21" d="M887.6,789.3c-0.1,1.9-0.4,3.7-0.8,5.6c29,1.8,58.4,1.1,87.8,1.1v-7.2C945.6,788.6,916.8,789.9,887.6,789.3z"
		/>
	<path class="st21" d="M885.9,770.7c0.6,2.4,1,4.8,1.3,7.2c28.9,1.8,58.2,0.6,87.3,0.5v-6.6C945,772.2,915.4,773.5,885.9,770.7z"/>
	<path class="st37" d="M884.2,764.4c0.6,2,1.2,4.1,1.7,6.3c29.5,2.8,59.1,1.5,88.7,1.1v-2C944.5,769,913.9,770.7,884.2,764.4z"/>
	<path class="st21" d="M883.2,761.3c0.3,1,0.7,2,1,3.1c29.8,6.3,60.4,4.6,90.4,5.5v-5.6C944.2,761.5,913.6,760.5,883.2,761.3z"/>
	<path class="st16" d="M1004.3,789.2c23.9-6.6,46.4-22.5,70.2-13.3l0.6,0.2c-0.2-23.4-2.7-33-29.7-35.3
		c-29.8-2.5-165.5,9.3-170.5,9.9s2.3,4.2,2.3,4.2s75.5-0.3,78.9-0.3s14.1,5.6,14.4,25.5c0.1,3.2-0.2,6.4-0.7,9.6
		C981.2,790.8,992.7,792.1,1004.3,789.2z"/>
	<path class="st44" d="M1074.5,775.9c-23.8-9.3-46.4,6.6-70.2,13.3c-11.6,2.9-23.1,1.6-34.7,0.7c-2.2,12.3-8.6,16.5-8.6,16.5
		s-74.7,0.3-85.4,0.3s-4.5,4.5-4.5,4.5h181.4c1.7,0,22.5,1.7,22.5-27.3v-7.6L1074.5,775.9z"/>
	<path class="st21" d="M969.6,752.9c6.3,3.7,8,11.3,8.2,18.1c0.2,7.3-0.7,14.5-2.8,21.5c-1.2,3.9-2.8,7.7-4.8,11.3
		c-0.1,0.2-0.1,0.5,0.2,0.7s0.5,0.1,0.7-0.2c3.6-6.6,6-13.8,7-21.3c0.5-3.7,0.7-7.5,0.7-11.3c0.1-3.9-0.6-7.8-1.9-11.4
		c-1.3-3.4-3.7-6.3-6.8-8.2c-0.2-0.1-0.5-0.1-0.7,0.2C969.3,752.5,969.4,752.8,969.6,752.9L969.6,752.9z"/>
	<path class="st21" d="M1016.2,752.3c5.8,3,7.4,10.2,8.1,16.1c0.9,7.5,0.4,15.1-1.4,22.5c-1,4.2-2.5,8.2-4.3,12.1
		c-0.3,0.6,0.6,1.1,0.9,0.5c3.4-7.1,5.4-14.7,6.1-22.5c0.3-3.9,0.3-7.9-0.2-11.8c-0.3-3.4-1-6.7-2.2-9.9c-1.2-3.3-3.5-6-6.5-7.8
		C1016.2,751.1,1015.6,752,1016.2,752.3L1016.2,752.3z"/>
	<path class="st21" d="M1062.8,752.3c2.2,2.5,3.7,5.4,4.5,8.7c1,3.8,1.4,7.7,1.3,11.6c0,8.2-2,16.3-5.8,23.6
		c-1.7,3.4-4.3,6.4-7.4,8.5c-0.5,0.3,0,1.2,0.5,0.9c2.9-1.9,5.3-4.5,7-7.5c2.1-3.5,3.6-7.3,4.7-11.2c2.2-8,2.9-16.8,1-24.9
		c-0.7-3.8-2.5-7.4-5.1-10.3C1063,751.2,1062.3,751.9,1062.8,752.3L1062.8,752.3z"/>
	<path class="st45" d="M753.3,268.2c-0.4,2-0.6,4-0.8,6"/>
	<path class="st46" d="M753,286.1c0.8,6,2.9,11.7,6,16.8"/>
	<path class="st45" d="M762.7,307.7c1.3,1.5,2.8,2.9,4.3,4.1"/>
	<path class="st47" d="M823.4,319.8c0,0,53.8-10.4,25-92.4s9.4-95.7,19.4-90.5"/>
	<path class="st47" d="M940.5,197.5c0,0,9.3,14.5-11.3,23.6s-12.4,17-12.4,17"/>
	<path class="st47" d="M924.3,341.1c0,0-3.5,13,0,18"/>
	<path class="st47" d="M987.9,450.4c0,0,49.7,23.8,18.2-74s8.2-173,34-185.2"/>
	<path class="st47" d="M1142.8,191.1c0,0,23.6,9.1,10,36.7l-10,16.2"/>
	<path class="st47" d="M1109.4,319.8c0,0-9.8,16-3.7,26.7"/>
	<path class="st48" d="M164.3,980.6c0,38.9,156.2,49.6,202.4,54.5s271.8-2.7,271.8-28.6S164.3,941.7,164.3,980.6z"/>
	<path class="st33" d="M573.9,957.6c-0.4-10.8-11.1-16.6-22.8-18.3c-15.5-2.2-39.8,16.3-39.8,16.3c-9.1,0.2-11.3-12.7-11.3-12.7
		l-19.8,5.7c0,0,0.4,30.4,8.1,43.8C520.1,992.9,554.5,981.7,573.9,957.6z"/>
	<path class="st49" d="M488.4,992.5c2.4,4.2,5.5,6.7,9.5,6.2c17.1-2,62.2-9.3,72.5-28.4c2.6-4.8,3.6-9,3.5-12.6
		C554.5,981.7,520.1,992.9,488.4,992.5z"/>
	<path class="st50" d="M402.5,330.1c-3.5-2.7-8.8-1.9-23.3,11.5c-20.5,18.7-18.7,36-12.6,45.6c5.5,8.5,51.4,24.9,97.9,15.9
		C442.7,379.3,396.8,367,402.5,330.1z"/>
	<path class="st28" d="M585.4,306.9c0,0-67.8,55-117.6,54.3s-57-20.6-61.4-26.6c-1.1-1.7-2.4-3.2-3.8-4.5
		c-5.8,36.9,40.1,49.2,62,72.9c5.8-1.1,11.5-2.6,17.1-4.5c51.7-17.7,108.8-68.2,113.8-74.9S585.4,306.9,585.4,306.9z"/>
	<path class="st51" d="M330.2,499.6c-4.6,2.1-9.1,4.3-13.5,6.4c-3.7,25.2,66.7,171.7,102.8,235.1c-1-13.7-4.3-27.1-9.6-39.8
		C382.3,634.7,346.3,570.5,330.2,499.6z"/>
	<path class="st51" d="M394.7,620.9c1.3-9.3-1.3-21.2,10.6-17.2c3.6-42.6,4-85.2,9.1-127.7c-18.8-2.6-53.4,9.6-84.2,23.6
		c13,57.4,39.1,110.5,63.2,164C392.4,649.6,391.9,635.5,394.7,620.9z"/>
	<path class="st24" d="M476.1,628.6C462.5,548.6,428,487,428,487c-1.2-6.6-6.1-10-13.6-11c-5.1,42.6-5.5,85.2-9.1,127.7
		c-11.9-4-9.3,8-10.6,17.2c-2.8,14.6-2.3,28.7-1.3,42.6c5.7,12.6,11.2,25.1,16.5,37.8c5.3,12.6,8.6,26.1,9.6,39.8
		c3.4,6,6.5,11.3,9.2,15.7c-9.2,144.9,52.5,198.3,52.5,198.3s0.7,8.1,19.2-6.7C502.3,927.1,497.8,755.9,476.1,628.6z"/>
	<path class="st49" d="M188.5,956.5c-4.2,6.4-6,12.6-2.1,16.7c11.9,12.5,44.8,44.1,66.3,40.8c7.3-1.1,12.1-3.8,14.8-7.5
		C234.1,1001.8,203.3,988.6,188.5,956.5z"/>
	<path class="st33" d="M265.8,980c-7.6-13.7-37-22-37-22c-5.6-7.1,3.4-16.7,3.4-16.7L215.7,929c0,0-18.6,14.3-27.2,27.5
		c14.8,32.2,45.6,45.3,79,50C272.8,999.5,270.8,989.1,265.8,980z"/>
	<path class="st51" d="M305.9,736.2c-8-61,0-120.6,2.6-181.5c1.1-19.4,6.2-38.7,11.8-57.3c-2,0-4.1,0.1-6.2,0
		c-34.5,20.2-23.1,187.3-19.2,250.4c-11.8,15.3-84.3,181.9-84.3,181.9l8.8,5.1C247,885,278.3,837,301.9,785.2
		C308.5,769.3,307.2,753.4,305.9,736.2z"/>
	<path class="st24" d="M320.4,497.4c-5.6,18.5-10.7,37.9-11.8,57.3c-2.6,61-10.6,120.6-2.6,181.5c1.3,17.2,2.6,33.1-4,49
		c-23.7,51.8-55,99.8-82.5,149.7l16.8,9.7c0,0,71.6-92.7,113.5-143.5S397.4,494,397.4,494C394.1,472.1,375.7,496.1,320.4,497.4z"/>
	<path class="st52" d="M312.5,537.4c26.5-33.1,34.5-74.2,25.2-117.9c-2.4-11.9-3.1-24.2-2.3-36.3c-14.1,50.3-26.3,110.2-28.8,115
		c-4.4,8.5-28,22.4-8.8,37.5c3.2,2.4,6.6,4.5,10.2,6.2C309.6,540.6,311.2,539.1,312.5,537.4z"/>
	<path class="st52" d="M415.9,426.1c3.8,6.1,9.3,10.4,15.8,13.5c-8.5-26.9-17.1-54.7-19.6-74.5c-2.9-18.9-6.8-29.6-10.4-36
		C414.3,359.6,394.8,395.2,415.9,426.1z"/>
	<path class="st52" d="M389.4,359.9c10-23.6-17.5-28.6-36.2-29.1c-4.3,10-8.1,20.2-11.3,30.7c1.5,5.7,4.1,11,7.8,15.6
		C362.9,393,384.1,373.1,389.4,359.9z"/>
	<path class="st27" d="M431.7,439.6c-6.5-2.9-12-7.5-15.8-13.5c-21.1-31-1.6-66.6-14.1-97c-4.2-7.4-7.9-8.8-8.9-9.9
		c-2-2.2-13.2-7.2-25.4-5.9c-4.4-0.3-9.2,6.4-14.2,17.5c18.7,0.5,46.2,5.5,36.2,29.1c-5.3,13.3-26.5,33.1-39.8,17.2
		c-3.7-4.6-6.3-10-7.8-15.7c-2.2,6.9-4.3,14.2-6.5,21.8c-0.9,12.2-0.1,24.4,2.3,36.3c9.3,43.7,1.3,84.8-25.2,117.9
		c-1.4,1.6-2.9,3.1-4.5,4.5c47.5,23.2,128.2-4.5,139.8-18.8C455.3,514.1,443.7,477.8,431.7,439.6z"/>
	<path class="st28" d="M383.2,338.1c-5.3-6.2-10.9-9.5-16.4-10.8c-2.4-0.6-4.9-0.8-7.4-0.6c-6.5,0.5-12.9,3.5-18.8,7.9
		c-13.3,25.6-32.1,47-42.6,74.4c-13.4,32.9,6.8,63.6,27.7,87.9c1.1,0.8,1.8,1.3,1.8,1.3l23.9-3c0,0-49.7-22-25.9-64.3
		c7.1-12.7,17.2-23.9,27.1-33.9C375.8,373.4,398.5,355.9,383.2,338.1z"/>
	<path class="st50" d="M298,408.9c10.5-27.3,29.3-48.8,42.6-74.4c-7.6,5.6-14.4,13.5-19.6,21.5c-14.4,21.9-38.5,59.3-33.7,92.6
		c3.1,21.4,30.6,42.6,38.2,48l0.1,0.1C304.8,472.5,284.5,441.8,298,408.9z"/>
	
		<linearGradient id="SVGID_7_" gradientUnits="userSpaceOnUse" x1="370.9198" y1="-229.1255" x2="407.5634" y2="-229.1255" gradientTransform="matrix(1 0 0 1 0 536.19)">
		<stop  offset="0" style="stop-color:#FFC7D0"/>
		<stop  offset="1" style="stop-color:#E65E75"/>
	</linearGradient>
	<path class="st53" d="M407.6,293.6c0,0-14.7,30.3-15.2,39.7c-15.5,0.2-22.1-8.3-21.4-11.6c16.5-23.9,22.2-35.1,22.8-39.7
		S407.8,287.3,407.6,293.6z"/>
	
		<linearGradient id="SVGID_8_" gradientUnits="userSpaceOnUse" x1="390.5804" y1="-252.856" x2="435.3089" y2="-252.856" gradientTransform="matrix(1 0 0 1 0 536.19)">
		<stop  offset="0" style="stop-color:#FFC7D0"/>
		<stop  offset="1" style="stop-color:#E65E75"/>
	</linearGradient>
	<path class="st54" d="M434.8,262.1c0,0,4.9,40.4-15.9,46.5c-17.4,0.1-31.1-25.4-27.9-40.3C418.2,252.9,433.9,258.6,434.8,262.1z"/>
	<path class="st55" d="M448.9,252.1c0,0-4.8,17.5-42.8,17.4c-8.1,11.3-6.4,24.3-12,27.4s-10.7,5.7-16.5,0s9.5-18.6,5-29
		s-1-19.8,15.5-20.5S455,233.6,448.9,252.1z"/>
	<path class="st55" d="M412.5,266.5c0,0-3.2,24.5,4.7,28.6c4.1,2.2,8.4,4,12.8,5.2c0,0-3.1,13.8-22.4,7c-6-2-6.5-3.7-6.5-3.7
		c6.3-5.7,9.5-14.1,8.5-22.6c-1.4-14.8-5-16.1-5-16.1S412.6,256.5,412.5,266.5z"/>
	
		<linearGradient id="SVGID_9_" gradientUnits="userSpaceOnUse" x1="648.1215" y1="-275.9788" x2="556.5015" y2="-163.0988" gradientTransform="matrix(1 0 0 1 0 536.19)">
		<stop  offset="0" style="stop-color:#FFC7D0"/>
		<stop  offset="1" style="stop-color:#E65E75"/>
	</linearGradient>
	<path class="st56" d="M607.8,292.1c7.1-11,29.2-15.6,18.1,3.6c-0.3,0.9-0.2,1.8,0.3,2.6c1.8,7.2-5.2,14.3-10.5,18.2
		C586.4,328,592.9,307,607.8,292.1z"/>
	<path class="st52" d="M583.4,299.3l14.8-2.5l10,31.3c0,0-8.8,14.2-11.7,10.2s-7.8-30.7-11.1-31.4S580.9,299.8,583.4,299.3z"/>
	
		<linearGradient id="SVGID_10_" gradientUnits="userSpaceOnUse" x1="337.7317" y1="-41.4109" x2="405.7317" y2="87.0491" gradientTransform="matrix(1 0 0 1 0 536.19)">
		<stop  offset="0" style="stop-color:#FFC7D0"/>
		<stop  offset="1" style="stop-color:#E65E75"/>
	</linearGradient>
	<path class="st57" d="M354.9,499.9c0,0,15,22.7,0,26.9s-20.8-5.5-16.7-12.8s2.1-10.9,3.6-12.2S352.5,495.8,354.9,499.9z"/>
	<path class="st58" d="M358.9,487l0.7,15.4l-33.1,6.3c0,0-13.3-10.7-8.9-13.1s32.2-4.1,33.3-7.4S358.8,484.4,358.9,487z"/>
	<path class="st59" d="M616.4,296.9c0-1.4,108.6-105.3,108.6-105.3s3.2-1.4,0,2.5S624.4,305.7,618.5,302.9S616.4,296.9,616.4,296.9z
		"/>
	<path class="st16" d="M240.8,953.2c0,0-17.7,13.2-12.1,11.2s17.5-9.2,20.9-6.5s-8.7,12.4-4.4,14.7s11.2-12.5,14.4-9.7
		s-5.3,13.9-3.2,15.5c-2.5-1.3,0.8-9.8,2.3-12.6s-1.4-2.2-2.6-0.4s-7.7,11.9-11.7,8.2s2.6-11.4,3.1-12.1s0.4-3.3-1.9-2.5
		s-17.5,9-19.5,6.9S235.9,954.3,240.8,953.2z"/>
	<path class="st16" d="M522.7,939.9c0,0-1,22,1,16.5s4-19.3,8.3-20.3s4.1,14.6,8.5,12.8s-2.5-16.6,1.6-17.3s7.3,13,10,12.3
		c-2.6,1.1-7-6.9-8.3-9.8s-2.6-0.3-2,1.7s4.3,13.5-1.1,14.3s-7.1-9.2-7.4-10.1s-2.3-2.3-3.1-0.1s-4.1,19.3-7.1,19.4
		S520.4,944.3,522.7,939.9z"/>
	<path class="st60" d="M307.9,556.5c-0.8,3.2-1.2,6.5-1.1,9.8c0,0.3,0.2,0.5,0.5,0.5s0.5-0.2,0.5-0.5c-0.1-3.2,0.2-6.4,1-9.5
		c0.1-0.3,0-0.6-0.3-0.7C308.3,556,308,556.1,307.9,556.5C307.9,556.4,307.8,556.4,307.9,556.5L307.9,556.5z"/>
	<path class="st60" d="M307,571.5c0,2.7-0.1,5.4-0.5,8.2c0,0.3,0.2,0.5,0.5,0.5c0.3,0,0.5-0.2,0.5-0.5c0.4-2.7,0.5-5.4,0.5-8.2
		c0-0.3-0.2-0.5-0.5-0.5S307,571.3,307,571.5L307,571.5z"/>
	<path class="st60" d="M306.5,584.5c0,2.4-0.2,4.7-0.6,7.1c0,0.3,0.2,0.5,0.4,0.6c0.2,0,0.5-0.1,0.6-0.3c0.5-2.4,0.7-4.9,0.7-7.3
		c0-0.3-0.2-0.5-0.5-0.5S306.6,584.3,306.5,584.5L306.5,584.5z"/>
	<path class="st60" d="M305.9,596.6c-0.6,2.3-0.8,4.6-0.6,7c0,0.3,0.2,0.5,0.5,0.5s0.5-0.2,0.5-0.5c-0.2-2.3,0.1-4.5,0.6-6.7
		c0.1-0.3-0.1-0.5-0.3-0.6C306.2,596.2,305.9,596.4,305.9,596.6L305.9,596.6L305.9,596.6z"/>
	<path class="st60" d="M305.1,608.6c-0.4,2.5-0.6,5-0.6,7.6c0,0.3,0.2,0.5,0.5,0.5s0.5-0.2,0.5-0.5c0-2.4,0.2-4.9,0.6-7.3
		C306.2,608.3,305.2,608,305.1,608.6L305.1,608.6z"/>
	<path class="st60" d="M303.8,620.8c-0.1,2.1-0.4,4.2-0.8,6.2c0,0.3,0.2,0.5,0.4,0.6c0.2,0,0.5-0.1,0.6-0.3c0.4-2.1,0.7-4.3,0.8-6.5
		c0-0.3-0.2-0.5-0.5-0.5S303.8,620.5,303.8,620.8L303.8,620.8z"/>
	<path class="st60" d="M303.4,632.2l-0.6,6.3c0,0.3,0.2,0.5,0.5,0.5c0.3,0,0.5-0.2,0.5-0.5l0.6-6.3c0-0.3-0.2-0.5-0.5-0.5
		C303.6,631.8,303.4,632,303.4,632.2z"/>
	<path class="st60" d="M302.6,642.9l-0.4,6.8c0,0.3,0.2,0.5,0.5,0.5s0.5-0.2,0.5-0.5l0.4-6.8c0-0.3-0.2-0.5-0.5-0.5
		S302.6,642.6,302.6,642.9z"/>
	<path class="st60" d="M301.8,655.3c0.2,2.6,0.1,5.3-0.3,7.9c0,0.3,0.2,0.5,0.5,0.5c0.3,0,0.5-0.2,0.5-0.5c0.3-2.6,0.4-5.3,0.2-7.9
		c0-0.3-0.2-0.5-0.5-0.5S301.8,655.1,301.8,655.3L301.8,655.3z"/>
	<path class="st60" d="M301.4,668.6c0.7,2.8,0.9,5.8,0.6,8.7c-0.1,0.6,0.9,0.6,1,0c0.3-3,0.1-6-0.6-8.9
		C302.3,667.7,301.3,667.9,301.4,668.6L301.4,668.6z"/>
	<path class="st15" d="M315.3,582c6.2,1,12.6-0.8,17.3-5.1c2.5-2.5,4.5-5.4,6-8.6c1.8-3.2,3.1-6.7,3.7-10.3c0.2-1.4-2-2-2.2-0.6
		c-0.6,3.3-1.7,6.4-3.3,9.3c-1.3,2.9-3.1,5.6-5.3,8c-4.1,4.1-9.9,5.9-15.6,5C314.5,579.5,314,581.7,315.3,582L315.3,582z"/>
	<g id="Artwork_61">
		<path class="st42" d="M270.6,114.8c0-21.8,51.5-39.5,115.1-39.5S500.9,93,500.9,114.8s-51.5,39.5-115.1,39.5c-3,0-6.1,0-9-0.1
			l11.7,45c0.4,1.5-0.5,3.1-2,3.5c-1,0.3-2.1,0-2.8-0.8C369.2,186.2,339,151,339,151C298.7,144.8,270.6,131,270.6,114.8z"/>
		<circle class="st21" cx="431" cy="117.9" r="4.6"/>
		<circle class="st21" cx="402.9" cy="117.9" r="4.6"/>
		<circle class="st21" cx="374.9" cy="117.9" r="4.6"/>
	</g>
	<path class="st61" d="M377.4,492.8c1.2,8.1,5.5,16,4.3,24.3c-0.2,1.8-0.8,3.5-1.8,5c-1.2,1.6-3.1,2.3-4.9,3
		c-3.8,1.4-7.8,2.4-11.8,3c-1.1,0.1-1.1,1.9,0,1.7c4.3-0.5,8.6-1.6,12.7-3.1c1.8-0.6,3.5-1.5,4.9-2.9c1.1-1.4,1.9-3,2.3-4.7
		c2.2-9.1-2.7-17.8-4-26.7C378.9,491.2,377.2,491.7,377.4,492.8L377.4,492.8z"/>
	<path class="st61" d="M318.4,491.3c6.2,1.4,12.7,0.4,18.2-2.8c0.4-0.3,0.5-0.8,0.2-1.2c-0.2-0.4-0.7-0.5-1.1-0.3
		c-5.1,3-11.1,4-16.9,2.6C317.8,489.3,317.3,491,318.4,491.3z"/>
	<path class="st61" d="M407.6,341.8c2.7,10.3,4.7,20.8,5.9,31.4c0.1,1.1,1.9,1.1,1.7,0c-1.2-10.7-3.2-21.4-6-31.8
		c-0.1-0.5-0.6-0.7-1.1-0.6C407.7,340.9,407.5,341.4,407.6,341.8L407.6,341.8z"/>
	<path class="st61" d="M421.4,537.5c3.6-2.2,7.2-4.3,11-6.2c3.3-1.6,6.6-3,9.3-5.6c2.4-2.3,4.1-5.1,5.1-8.3
		c1.1-3.6,1.1-7.6,1.2-11.4c0.3-4.5-0.2-9-1.5-13.3c-0.4-1-2-0.6-1.7,0.5c1.5,4.6,1.6,9.4,1.4,14.2c-0.2,4.8-0.3,9.3-2.8,13.4
		c-2.3,3.9-5.8,6.2-9.8,8c-4.5,2.1-8.9,4.5-13.1,7.1c-0.4,0.2-0.6,0.8-0.3,1.2S421,537.7,421.4,537.5L421.4,537.5L421.4,537.5
		L421.4,537.5z"/>
	<path class="st61" d="M382.3,334.2c2.9,0.8,6,1.1,9,1c1.2-0.1,2.9,0,3.4-1.3c0.2-0.7,0.2-1.4,0.2-2.1c0.1-0.8,0.2-1.5,0.5-2.3
		c0.3-1.1-1.3-1.5-1.7-0.5c-0.4,1.2-0.6,2.5-0.5,3.8c0,0.1,0.1,0.4,0,0.5s-0.6,0.1-0.8,0.1c-0.6,0-1.3,0.1-1.9,0.1
		c-2.6,0-5.1-0.3-7.6-0.9c-0.5-0.1-0.9,0.2-1,0.7C381.7,333.7,382,334.1,382.3,334.2L382.3,334.2z"/>
	<path class="st61" d="M582,301.1c-0.3,1.5,0,3,0.8,4.2c1,1.4,2.3,1.8,3.8,2.3c0.8,0.2,1.3,0.8,1.4,1.6c0.2,1,0.4,2,0.5,3l1.2,6.4
		c0.2,1.1,1.9,0.6,1.7-0.5l-1.1-5.9c-0.2-1-0.3-2-0.5-2.9c-0.1-0.8-0.4-1.6-0.8-2.3c-1-1.1-2.5-1.1-3.7-1.8c-1.3-0.8-2-2.3-1.7-3.8
		C583.9,300.4,582.2,300,582,301.1L582,301.1z"/>
	<path class="st61" d="M307.4,497.6c-0.8,3.1-2.1,6.2-4.6,8.3c-1.3,1.1-2.7,2-3.9,3.1c-1.1,1.1-2.2,2.4-3.1,3.7
		c-1.7,2.3-4.1,5.1-4.5,8.1c-0.4,3.4,1.4,6.4,3.3,9c0.6,0.9,2.1,0,1.5-0.9c-1.9-2.7-4.1-6.1-2.6-9.5c0.7-1.3,1.5-2.6,2.4-3.8
		c0.9-1.3,1.8-2.6,2.9-3.8c1-1.2,2.2-2.3,3.5-3.3c1.2-0.8,2.3-1.8,3.3-2.9c1.7-2.2,2.9-4.8,3.5-7.5c0.1-0.5-0.1-0.9-0.6-1.1
		S307.6,497.2,307.4,497.6L307.4,497.6L307.4,497.6z"/>
	<path class="st61" d="M339.9,345.2c-14.8,14.6-27.5,31.4-36.6,50.1c-2.5,5.2-4.8,10.6-6.6,16.1c-0.4,1.1,1.3,1.5,1.7,0.5
		c6.7-19.5,17.8-37.3,31.1-53c3.7-4.3,7.6-8.5,11.7-12.5C342,345.6,340.7,344.4,339.9,345.2L339.9,345.2z"/>
	<path class="st62" d="M398.2,346.8c0.8,0,1.5-0.7,1.5-1.5s-0.7-1.5-1.5-1.5s-1.5,0.7-1.5,1.5S397.4,346.8,398.2,346.8z"/>
	<path class="st62" d="M401.3,355.3c0.8,0,1.5-0.7,1.5-1.5s-0.7-1.5-1.5-1.5s-1.5,0.7-1.5,1.5S400.5,355.3,401.3,355.3z"/>
	<path class="st62" d="M402.1,364.2c0.8,0,1.5-0.7,1.5-1.5s-0.7-1.5-1.5-1.5s-1.5,0.7-1.5,1.5S401.3,364.2,402.1,364.2z"/>
	<path class="st15" d="M847.2,242.5c0,0-1.4-8.3,2-12.9s14.5,10.7,14.5,10.7s1.1,4.5-1.7,2.7s-9.8-13.3-10.3-9.3
		S850.6,250.9,847.2,242.5z"/>
	<path class="st15" d="M843.3,141.1c0,0,6.8-4.9,12.5-3.8s-3.3,17.7-3.3,17.7s-3.6,2.9-3.2-0.3s7.7-14.6,3.9-13.3
		S837.3,147.9,843.3,141.1z"/>
	<path class="st15" d="M928.8,345.7c0,0,1.1,8.4-3.2,12.7s-16.3-11.8-16.3-11.8s-1-4.6,2.1-2.6s10.6,14.1,11.4,10.1
		S925.4,337.1,928.8,345.7z"/>
	<path class="st20" d="M932.9,227.1c0,0-7.6,3.6-13.1,0.8s6.3-19.1,6.3-19.1s4-2.3,3.1,1.2s-10.2,14.4-6.1,14S940,221.2,932.9,227.1
		z"/>
	<path class="st15" d="M989.1,340.1c0,0,0-8.4,4.8-12.2s14.7,13.8,14.7,13.8s0.4,4.6-2.4,2.3s-8.8-15.3-10.1-11.5
		S991.5,349.1,989.1,340.1z"/>
	<path class="st15" d="M1166.9,228.1c0,0-5.9,6-12,5.2s-0.6-20.1-0.6-20.1s3-3.5,3.3,0.1s-4.6,17-1,15.2S1171.7,220.1,1166.9,228.1z
		"/>
	<path class="st20" d="M1111.1,339.5c0,0-3.7,4.4-8.4,2.9s-3.3-17.7-3.3-17.7s1.8-2.7,2.6,0.5s-1.2,14.2,1.3,13.2
		S1113.5,333.1,1111.1,339.5z"/>
	<path class="st50" d="M917.8,436.7c3.6,2.3,7,4.9,10.2,7.7c2.5,2.3,4.4,5.1,5.6,8.3c1.2,3.3,1.1,7.2-0.2,11.7
		c-1,3.4-2.9,6.5-5.6,8.9c-2.8,2.5-6.3,4.2-10.1,4.8c-4.6,0.7-9.4,0.3-13.8-1.2l-0.2-0.1l-2.4,8l-3.4-1l2.5-8.2
		c-6.4-2.5-11.2-6.3-14.3-11.2c-3.1-4.7-4.1-10.5-2.8-16l12.2,3.7c-0.5,2.8-0.1,5.6,1.1,8.1c1.4,2.8,3.7,5.1,6.5,6.4l6.9-22.8
		c-3.9-2.5-7.6-5.2-11.2-8.1c-2.6-2.2-4.6-5.1-5.8-8.3c-1.4-3.4-1.4-7.4,0-12c1-3.6,3.1-6.7,6-9.1c3-2.3,6.5-3.8,10.3-4.2
		c4.3-0.5,8.8-0.1,12.9,1.3l2.6-8.5l3.4,1l-2.6,8.6c6.4,2.4,11,6,13.8,10.5c2.8,4.5,3.8,9.8,2.8,15l-12.3-3.7c0.3-2.5-0.1-5-1.3-7.2
		c-1.3-2.4-3.3-4.4-5.8-5.5l-6.7,22.1L917.8,436.7z M906.1,426.4c1.9,2.8,4.2,5.1,7,7l6.4-21.3c-3.5-1-6.5-0.9-9,0.2
		c-2.6,1.2-4.5,3.5-5.2,6.3C904.4,421.2,904.7,424.1,906.1,426.4L906.1,426.4z M915.7,467.6c2.6-1.3,4.5-3.7,5.3-6.6
		c1-2.7,0.7-5.7-0.8-8.1c-2-2.8-4.4-5.2-7.2-7.1l-6.7,22C909.9,469,913.1,468.9,915.7,467.6L915.7,467.6z"/>
</g>
</svg>
