<?xml version="1.0" encoding="utf-8"?>
<!-- Generator: Adobe Illustrator 21.1.0, SVG Export Plug-In . SVG Version: 6.00 Build 0)  -->
<svg version="1.1" id="Слой_1" xmlns="http://www.w3.org/2000/svg" xmlns:xlink="http://www.w3.org/1999/xlink" x="0px" y="0px"
	 viewBox="0 0 3470.4 2400" style="enable-background:new 0 0 3470.4 2400;" xml:space="preserve">
<style type="text/css">
	.st0{clip-path:url(#SVGID_2_);}
	.st1{clip-path:url(#SVGID_4_);fill:#EEF2F9;}
	.st2{clip-path:url(#SVGID_4_);fill:none;stroke:#8FC0FA;stroke-width:5;stroke-miterlimit:10;}
	.st3{clip-path:url(#SVGID_4_);fill:none;stroke:#8FC0FA;stroke-width:5;stroke-miterlimit:10;stroke-dasharray:27.891,27.891;}
	.st4{opacity:0.46;clip-path:url(#SVGID_4_);}
	.st5{clip-path:url(#SVGID_6_);fill:none;stroke:#8FC0FA;stroke-width:5;stroke-miterlimit:10;}
	.st6{clip-path:url(#SVGID_6_);fill:none;stroke:#8FC0FA;stroke-width:5;stroke-miterlimit:10;stroke-dasharray:28.046,28.046;}
	.st7{clip-path:url(#SVGID_4_);fill:#FFFFFF;}
	.st8{clip-path:url(#SVGID_4_);fill:#8FC0FA;}
	.st9{clip-path:url(#SVGID_4_);fill:#F3F6FC;}
	.st10{clip-path:url(#SVGID_4_);fill:#C7DEFE;}
	.st11{clip-path:url(#SVGID_4_);fill:#4E95E5;}
	.st12{clip-path:url(#SVGID_8_);fill:#F3F6FC;}
	.st13{clip-path:url(#SVGID_8_);fill:#4E95E5;}
	.st14{clip-path:url(#SVGID_8_);fill:#8FC0FA;}
	.st15{clip-path:url(#SVGID_8_);fill:#C7DEFE;}
	.st16{clip-path:url(#SVGID_10_);fill:#EEF2F9;}
	.st17{clip-path:url(#SVGID_10_);fill:#2946FB;}
	.st18{clip-path:url(#SVGID_10_);fill:#FFFFFF;}
	.st19{opacity:0.37;clip-path:url(#SVGID_10_);}
	.st20{clip-path:url(#SVGID_12_);fill:#FFFFFF;}
	.st21{clip-path:url(#SVGID_14_);fill:#FFFFFF;}
	.st22{clip-path:url(#SVGID_10_);fill:#627BF9;}
	.st23{clip-path:url(#SVGID_10_);fill:#C7DEFE;}
	.st24{clip-path:url(#SVGID_10_);fill:none;stroke:#89000A;stroke-width:3;stroke-miterlimit:10;}
	.st25{clip-path:url(#SVGID_10_);fill:#CA1017;}
	.st26{clip-path:url(#SVGID_10_);fill:#F47722;}
	.st27{clip-path:url(#SVGID_10_);fill:#F8BC3E;}
	.st28{clip-path:url(#SVGID_10_);fill:#F5B400;}
	.st29{clip-path:url(#SVGID_10_);fill:#F3F6FC;}
	.st30{opacity:0.7;clip-path:url(#SVGID_10_);}
	.st31{clip-path:url(#SVGID_16_);fill:#F47722;}
	.st32{clip-path:url(#SVGID_16_);fill:#F8BC3E;}
	.st33{clip-path:url(#SVGID_16_);fill:#F5B400;}
	.st34{clip-path:url(#SVGID_16_);fill:#F3F6FC;}
	.st35{clip-path:url(#SVGID_18_);fill:#F47722;}
	.st36{clip-path:url(#SVGID_18_);fill:#F8BC3E;}
	.st37{clip-path:url(#SVGID_18_);fill:#F5B400;}
	.st38{clip-path:url(#SVGID_18_);fill:#F3F6FC;}
	.st39{clip-path:url(#SVGID_20_);fill:#F47722;}
	.st40{clip-path:url(#SVGID_20_);fill:#F8BC3E;}
	.st41{clip-path:url(#SVGID_20_);fill:#F5B400;}
	.st42{clip-path:url(#SVGID_20_);fill:#F3F6FC;}
	.st43{opacity:0.2;clip-path:url(#SVGID_10_);}
	.st44{clip-path:url(#SVGID_22_);fill:#D92150;}
	.st45{clip-path:url(#SVGID_24_);fill:#4A0659;}
	.st46{clip-path:url(#SVGID_10_);fill:#1A2982;}
	.st47{clip-path:url(#SVGID_26_);fill:#4A0659;}
	.st48{clip-path:url(#SVGID_10_);fill:#003E61;}
	.st49{clip-path:url(#SVGID_10_);fill:#8FC0FA;}
	.st50{clip-path:url(#SVGID_28_);fill:#003E61;}
	.st51{clip-path:url(#SVGID_10_);fill:#F9C89A;}
	.st52{clip-path:url(#SVGID_10_);fill:#F39F5F;}
	.st53{clip-path:url(#SVGID_10_);fill:#F7A82D;}
	.st54{clip-path:url(#SVGID_10_);fill:#553130;}
	.st55{clip-path:url(#SVGID_10_);fill:#471515;}
	.st56{clip-path:url(#SVGID_10_);fill:#397CF2;}
	.st57{clip-path:url(#SVGID_10_);fill:#F6A538;}
	.st58{clip-path:url(#SVGID_10_);fill:#072351;}
	.st59{clip-path:url(#SVGID_10_);fill:#0E61DB;}
	.st60{clip-path:url(#SVGID_10_);fill:#07193D;}
	.st61{opacity:0.28;clip-path:url(#SVGID_10_);}
	.st62{clip-path:url(#SVGID_30_);fill:#587199;}
	.st63{clip-path:url(#SVGID_10_);fill:#00112B;}
	.st64{opacity:0.58;clip-path:url(#SVGID_10_);}
	.st65{clip-path:url(#SVGID_32_);fill:#C7DEFE;}
	.st66{clip-path:url(#SVGID_32_);fill:#397CF2;}
	.st67{clip-path:url(#SVGID_32_);fill:#8FC0FA;}
	.st68{clip-path:url(#SVGID_10_);fill:none;stroke:#BBC6FF;stroke-width:5;stroke-linejoin:round;stroke-miterlimit:10;}
	.st69{clip-path:url(#SVGID_10_);fill:none;stroke:#2946FB;stroke-width:4;stroke-miterlimit:10;}
	.st70{clip-path:url(#SVGID_10_);fill:#B0C8EA;}
	.st71{clip-path:url(#SVGID_10_);fill:#FEFEFE;}
	.st72{clip-path:url(#SVGID_10_);fill:#0F111E;}
</style>
<g>
	<defs>
		<rect id="SVGID_1_" width="3470.4" height="2400"/>
	</defs>
	<clipPath id="SVGID_2_">
		<use xlink:href="#SVGID_1_"  style="overflow:visible;"/>
	</clipPath>
	<g class="st0">
		<defs>
			<rect id="SVGID_3_" width="3470.4" height="2400"/>
		</defs>
		<clipPath id="SVGID_4_">
			<use xlink:href="#SVGID_3_"  style="overflow:visible;"/>
		</clipPath>
		<path class="st1" d="M1309.5,2375.6c0,0-1191.8-61.8-1097.2-1314.2C306.9-191,1538-179.2,1939.4,300.7
			c401.4,479.9,1325.8,231.3,1283.4,1118.5C3180.4,2306.4,1948.5,2472.4,1309.5,2375.6"/>
		<path class="st2" d="M1327.5,1602.3c0,0-3.2,3.9-9.4,10.4"/>
		<path class="st3" d="M1298.5,1632.5c-41.6,39.6-125.1,106.9-231.4,129.5c-204.9,43.5-482.4-30.7-589.2-318.4
			C290.7,939.1,871.5,157.3,1744.6,277.4c873.1,120,755.6,655.5,703.7,1085.6c-50.6,418.7,697.7,525.5,911.6,258.1"/>
		<path class="st2" d="M3368.2,1610c2.7-3.8,5.3-7.7,7.8-11.6"/>
		<g class="st4">
			<g>
				<defs>
					<rect id="SVGID_5_" x="91.6" y="566.9" width="2277.3" height="1317.5"/>
				</defs>
				<clipPath id="SVGID_6_">
					<use xlink:href="#SVGID_5_"  style="overflow:visible;"/>
				</clipPath>
				<path class="st5" d="M1731.8,693.6c0,0,0.2-5.4,2-13.8"/>
				<path class="st6" d="M1742.2,653.1c12.4-28.6,39.6-63.8,99-75.9c220.6-44.7,362.4,109.8,470.1,289.8
					c188.8,315.5-122.3,985.1-723.9,1013.6c-601.7,28.6-632.7-439.3-750.5-710.9c-191.3-440.7-618.4-364.4-731-160.4"/>
				<path class="st5" d="M99.5,1021.8c-2,4.2-3.9,8.5-5.6,12.8"/>
			</g>
		</g>
		<path class="st7" d="M3165.6,2041.7H1826.2c-52.2,0-94.4-42.3-94.4-94.4v-847.9c0-52.2,42.3-94.4,94.4-94.4h1339.3
			c52.2,0,94.4,42.3,94.4,94.4v847.9C3260,1999.4,3217.7,2041.7,3165.6,2041.7"/>
		<rect x="2812" y="1587.4" class="st8" width="338.1" height="262.7"/>
		<path class="st9" d="M3121.8,1363.2c0-26.1-7.1-50.5-19.4-71.4c-24.6-41.8-70-69.9-122-69.9c-36.5,0-69.7,13.8-94.7,36.5
			c-28.6,25.9-46.6,63.2-46.6,104.8c0,78.1,63.3,141.3,141.3,141.3c60,0,111.3-37.4,131.8-90.1
			C3118.4,1398.5,3121.8,1381.3,3121.8,1363.2 M3063.4,1363.2c0,10.7-2,21-5.8,30.5c-12.1,30.7-42.1,52.5-77.2,52.5
			c-0.7,0-1.4,0-2.1-0.1c-44.9-1.1-80.9-37.8-80.9-82.9c0-24.3,10.4-46.2,27.1-61.3c14.7-13.5,34.4-21.7,55.9-21.7
			c30.7,0,57.5,16.6,71.8,41.4C3059.4,1333.9,3063.4,1348.1,3063.4,1363.2"/>
		<path class="st10" d="M2980.4,1504.6v-58.3c-0.7,0-1.4,0-2.1-0.1c-44.9-1.1-80.9-37.8-80.9-82.9c0-24.3,10.4-46.2,27.1-61.3
			l-38.8-43.6c-28.6,25.9-46.6,63.2-46.6,104.8C2839.1,1441.3,2902.4,1504.6,2980.4,1504.6"/>
		<path class="st11" d="M3121.8,1363.2c0-26.1-7.1-50.5-19.4-71.4l-50.2,29.9c7.1,12.2,11.2,26.4,11.2,41.5c0,10.8-2,21-5.8,30.5
			l54.6,20.7C3118.4,1398.5,3121.8,1381.3,3121.8,1363.2"/>
		<path class="st8" d="M3102.4,1291.8c-24.6-41.8-70-69.9-122-69.9c-36.5,0-69.7,13.8-94.7,36.5l38.9,43.5
			c14.7-13.5,34.3-21.7,55.9-21.7c30.7,0,57.5,16.6,71.8,41.4L3102.4,1291.8z"/>
		<path class="st10" d="M1850.6,1575.3v-0.5c0-9.3,7.5-16.9,16.8-16.9h321.1c9.3,0,16.8,7.5,16.8,16.9v0.5c0,9.3-7.5,16.9-16.9,16.9
			h-321C1858.2,1592.2,1850.6,1584.6,1850.6,1575.3 M2188.5,1616.5h-321c-9.3,0-16.9,7.5-16.9,16.9v0.5c0,9.3,7.6,16.9,16.9,16.9
			h321c9.3,0,16.9-7.5,16.9-16.9v-0.5C2205.4,1624,2197.8,1616.5,2188.5,1616.5 M1850.6,1691.9v0.5c0,9.3,7.6,16.9,16.9,16.9h321
			c9.3,0,16.9-7.5,16.9-16.9v-0.5c0-9.3-7.5-16.9-16.9-16.9h-321C1858.2,1675,1850.6,1682.5,1850.6,1691.9 M1867.7,1767.7h320.5
			c9.5,0,17.1-7.7,17.1-17.1c0-9.5-7.7-17.1-17.1-17.1h-320.5c-9.5,0-17.1,7.7-17.1,17.1C1850.6,1760.1,1858.3,1767.7,1867.7,1767.7
			"/>
	</g>
	<g class="st0">
		<defs>
			<path id="SVGID_7_" d="M1856.3,1235.8c-3.1,0-5.7,2.5-5.7,5.7v277.7c0,3.1,2.5,5.7,5.7,5.7h343.4c3.1,0,5.7-2.5,5.7-5.7v-277.7
				c0-3.1-2.5-5.7-5.7-5.7H1856.3z"/>
		</defs>
		<clipPath id="SVGID_8_">
			<use xlink:href="#SVGID_7_"  style="overflow:visible;"/>
		</clipPath>
		<path class="st12" d="M2199.7,1524.8h-343.4c-3.1,0-5.7-2.5-5.7-5.7v-277.7c0-3.1,2.5-5.7,5.7-5.7h343.4c3.1,0,5.7,2.5,5.7,5.7
			v277.7C2205.4,1522.2,2202.8,1524.8,2199.7,1524.8"/>
		<path class="st13" d="M1948.4,1489.9l170.9-89.3c9.4-4.9,20.8-4.4,29.7,1.4l158.9,102.6v29.3h-360.8L1948.4,1489.9z"/>
		<path class="st14" d="M1834.6,1459.6l114.1-92.1c10.3-8.3,25-8.8,35.8-1l226.3,161.8h-383L1834.6,1459.6z"/>
		<path class="st15" d="M2104.6,1311.2c0,18.4-14.9,33.3-33.3,33.3s-33.3-14.9-33.3-33.3c0-18.4,14.9-33.3,33.3-33.3
			S2104.6,1292.8,2104.6,1311.2"/>
	</g>
	<g class="st0">
		<defs>
			<rect id="SVGID_9_" width="3470.4" height="2400"/>
		</defs>
		<clipPath id="SVGID_10_">
			<use xlink:href="#SVGID_9_"  style="overflow:visible;"/>
		</clipPath>
		<path class="st16" d="M2940.2,1773v-113.1c0-9.1,10.1-14.5,17.6-9.5l85,55.8c6.8,4.5,6.9,14.4,0.1,19l-85,57.3
			C2950.4,1787.5,2940.2,1782.1,2940.2,1773"/>
		<path class="st17" d="M3240.4,931.3c-10.5-8.3-24.2-13.3-39.1-13.3H1790.5c-33.2,0-60.2,24.8-60.2,55.3v1014.5
			c0,24.9,18,46,42.7,52.9c5.5,1.5,11.4,2.4,17.5,2.4h1410.8c33.2,0,60.2-24.8,60.2-55.3V973.3
			C3261.5,956.5,3253.3,941.4,3240.4,931.3 M3247.2,1987.8c0,23.3-20.6,42.2-45.9,42.2H1790.5c-2.8,0-5.5-0.2-8.2-0.7
			c-21.4-3.5-37.8-20.8-37.8-41.5v-915.9h1502.6V1987.8z"/>
		<path class="st18" d="M2923.3,1033.4h-646.5c-20.8,0-37.7-15.5-37.7-34.6c0-19.1,16.9-34.6,37.7-34.6h646.5
			c20.8,0,37.7,15.5,37.7,34.6C2961,1017.9,2944.1,1033.4,2923.3,1033.4"/>
		<path class="st18" d="M1790.2,1018.1c-1.8,0-3.7-0.6-5.1-1.9c-2.8-2.6-2.8-6.8,0-9.3l34.5-31.7c2.8-2.6,7.4-2.6,10.2,0
			c2.8,2.6,2.8,6.8,0,9.3l-34.5,31.7C1793.9,1017.4,1792.1,1018.1,1790.2,1018.1"/>
		<path class="st18" d="M1824.7,1018.1c-1.8,0-3.7-0.6-5.1-1.9l-34.5-31.7c-2.8-2.6-2.8-6.8,0-9.3c2.8-2.6,7.4-2.6,10.2,0l34.5,31.7
			c2.8,2.6,2.8,6.8,0,9.3C1828.4,1017.4,1826.6,1018.1,1824.7,1018.1"/>
		<path class="st18" d="M1971.6,973.2c-13.5,0-24.5,10.1-24.5,22.4c0,3.3,0.8,6.4,2.2,9.2c3.8,7.8,12.4,13.2,22.3,13.2
			c9.9,0,18.4-5.4,22.3-13.2c1.4-2.8,2.2-5.9,2.2-9.2C1996,983.3,1985,973.2,1971.6,973.2 M1961.5,995.6c0-5.1,4.5-9.2,10.1-9.2
			c5.5,0,10,4.1,10,9.2c0,5.1-4.5,9.2-10,9.2C1966,1004.9,1961.5,1000.7,1961.5,995.6"/>
		<path class="st18" d="M1905.8,1002.2h-37c-4,0-7.2-3-7.2-6.6c0-3.7,3.2-6.6,7.2-6.6h37c4,0,7.2,3,7.2,6.6
			C1913,999.3,1909.8,1002.2,1905.8,1002.2"/>
		<g class="st19">
			<g>
				<defs>
					<rect id="SVGID_11_" x="1773.1" y="918" width="1467.3" height="1125"/>
				</defs>
				<clipPath id="SVGID_12_">
					<use xlink:href="#SVGID_11_"  style="overflow:visible;"/>
				</clipPath>
				<path class="st20" d="M3240.4,931.3l-60.3,73.6l-54.9,67l-456.1,556.6l-33.2,40.5l-1.7,2.1l-33.2,40.5l-260.8,318.3l-9.6,11.7
					l-1.1,1.4h-538.9c-6.1,0-11.9-0.8-17.5-2.4l0.7-0.8l8.6-10.6l689.3-843.8l24-29.4l68.7-84.2l31.4-38.5l23.3-28.5l33.3-40.7
					l37.7-46.1h511.2C3216.2,918,3229.9,923,3240.4,931.3"/>
			</g>
		</g>
		<g class="st19">
			<g>
				<defs>
					<rect id="SVGID_13_" x="1730.3" y="918" width="512.3" height="546.1"/>
				</defs>
				<clipPath id="SVGID_14_">
					<use xlink:href="#SVGID_13_"  style="overflow:visible;"/>
				</clipPath>
				<polygon class="st21" points="2242.6,918 2161.2,1004.9 2098.3,1071.9 1744.6,1448.9 1731.8,1462.5 1730.3,1464.1 
					1730.3,1324.4 1731.8,1322.7 1744.6,1308.4 1955.7,1071.9 2015.5,1004.9 2093,918 				"/>
			</g>
		</g>
		<path class="st22" d="M1625.8,1685.1H638.2c-15.4,0-27.8-12.5-27.8-27.8v-486.4c0-15.4,12.5-27.8,27.8-27.8h987.5
			c15.4,0,27.8,12.5,27.8,27.8v486.4C1653.6,1672.7,1641.1,1685.1,1625.8,1685.1"/>
		<rect x="629.4" y="1247.1" class="st18" width="1004.6" height="417.5"/>
		<path class="st18" d="M679.4,1219.2c-1.8,0-3.6-0.6-5-1.9c-2.7-2.5-2.7-6.6,0-9.1l33.7-30.9c2.7-2.5,7.2-2.5,9.9,0
			c2.7,2.5,2.7,6.6,0,9.1l-33.7,30.9C683,1218.6,681.2,1219.2,679.4,1219.2"/>
		<path class="st18" d="M713,1219.2c-1.8,0-3.6-0.6-5-1.9l-33.7-30.9c-2.7-2.5-2.7-6.6,0-9.1c2.7-2.5,7.2-2.5,9.9,0l33.7,30.9
			c2.7,2.5,2.7,6.6,0,9.1C716.6,1218.6,714.8,1219.2,713,1219.2"/>
		<path class="st18" d="M856.3,1175.4c-13.2,0-23.9,9.8-23.9,21.9c0,3.2,0.8,6.3,2.1,9c3.7,7.6,12.1,12.9,21.7,12.9
			c9.7,0,18-5.3,21.7-12.9c1.4-2.7,2.1-5.8,2.1-9C880.1,1185.3,869.4,1175.4,856.3,1175.4 M846.4,1197.3c0-5,4.4-9,9.8-9
			c5.4,0,9.8,4,9.8,9c0,5-4.4,9-9.8,9C850.8,1206.3,846.4,1202.3,846.4,1197.3"/>
		<path class="st18" d="M792.1,1203.8H756c-3.9,0-7-2.9-7-6.4c0-3.6,3.1-6.4,7-6.4h36.1c3.9,0,7,2.9,7,6.4
			C799.1,1200.9,796,1203.8,792.1,1203.8"/>
		<rect x="1040.2" y="1338.3" class="st23" width="514.7" height="17.6"/>
		<rect x="1040.2" y="1386.3" class="st23" width="514.7" height="17.6"/>
		<rect x="1040.2" y="1434.3" class="st23" width="514.7" height="17.6"/>
		<rect x="1040.2" y="1482.2" class="st23" width="514.7" height="17.6"/>
		<rect x="1040.2" y="1530.2" class="st23" width="269.4" height="17.6"/>
		<circle class="st24" cx="824.7" cy="1473" r="106"/>
		<path class="st16" d="M685.4,1453.7c0-63.7,51.7-115.4,115.4-115.4c63.7,0,115.4,51.7,115.4,115.4s-51.7,115.4-115.4,115.4
			C737.1,1569.1,685.4,1517.4,685.4,1453.7"/>
		<path class="st25" d="M694.8,1453.7c0-58.5,47.4-106,106-106s106,47.4,106,106c0,58.5-47.4,106-106,106S694.8,1512.2,694.8,1453.7
			"/>
		<path class="st26" d="M1489.5,135.9c8.9,7.7,16.5,17,22.2,27.7l0,0c2.6,4.7,4.8,9.7,6.6,15c0.5,1.5,1,3.1,1.5,4.6
			c14.7,50.4-12.7,104-62.9,121.3c-2.3,0.8-4.6,1.5-6.9,2.1c-49.7,13.2-101.9-14.1-118.9-63.5c-5-14.4-6.4-29.2-4.8-43.3
			c3.9-34.5,25.9-65.6,59.4-79.9c2.2-0.9,4.5-1.8,6.8-2.6C1427,105.2,1463.7,113.6,1489.5,135.9"/>
		<path class="st27" d="M1504.6,183.2c1.1,3.1,2,6.2,2.7,9.3c11.2,46.7-13,95-57.3,114c-2.2,0.9-4.5,1.8-6.8,2.6
			c-51.7,17.8-108.1-9.7-125.9-61.4c-4.1-11.9-5.8-24.1-5.3-36c0,0,0,0,0,0c0.3-7.5,1.4-14.8,3.3-21.9c0-0.2,0.1-0.3,0.1-0.3
			c8.3-30.5,31.1-56.6,63.3-67.6c2.3-0.8,4.6-1.5,6.9-2.1C1435.4,106.5,1487.6,133.8,1504.6,183.2"/>
		<path class="st28" d="M1486.1,189.6c14.3,41.5-7.8,86.7-49.2,100.9c-41.5,14.3-86.7-7.8-100.9-49.2
			c-14.3-41.5,7.8-86.7,49.2-100.9C1426.6,126.1,1471.8,148.1,1486.1,189.6"/>
		<path class="st26" d="M1342.9,243.6c-14.3-41.5,7.8-86.7,49.2-100.9c15.5-5.3,31.6-5.6,46.3-1.6c-16.6-6.1-35.3-6.8-53.4-0.6
			c-41.5,14.3-63.5,59.5-49.2,100.9c8.1,23.5,26.1,40.7,47.7,48.7c-10.1-5-19.2-12.2-26.4-21.2
			C1351.1,261.5,1346.2,253.1,1342.9,243.6"/>
		<path class="st29" d="M1400.2,170.6l-2.9-8.6l-8.7,3l2.9,8.6c-13.9,5.6-16.6,12.1-11.5,26.9c4.4,12.9,7.2,17.2,13.1,18.8
			c6.7,2,19.1,1,25.1,3.7c2.5,1,3.2,2.2,4.3,5.2c0.2,0.4,0.3,0.9,0.5,1.4c2.8,8.2,2.9,10.6-3.2,12.7c-6.2,2.1-7.9-1.3-10.1-7.7
			c-0.6-1.8-1-3.2-1.2-4.4l-15.4,5.3c0.4,2.6,1.3,5.9,2.5,9.6c5,14.7,12.6,16.7,24.9,13.1l3.7,10.8l8.7-3l-3.8-10.9
			c13.7-5.8,15.9-13.3,10.8-30.1c-0.4-1.4-0.9-2.9-1.5-4.5c-4.9-14.2-9.5-14.2-16.8-15.1c-5.1-0.6-10.6-0.4-16.6-0.9
			c-5.4-0.5-6.1-1-8.5-8.2c-2.4-6.9-1.6-9.1,3.4-10.8c5.8-2,7.6,0.6,9.6,6.4c0.7,2.1,1.2,3.5,1.5,4.7l15.2-5.2
			c-0.4-2.2-1.1-4.9-2.3-8.6C1419.5,169.7,1413.4,166.7,1400.2,170.6"/>
		<path class="st26" d="M2823.2,754.8c1,10,0.3,20.2-2.4,30.2v0c-1.2,4.4-2.7,8.9-4.7,13.2c-0.6,1.3-1.2,2.5-1.8,3.7
			c-20.4,40-68.9,57.3-110.2,38.6c-1.9-0.9-3.7-1.8-5.6-2.8c-38.7-20.9-55.1-68.5-36.7-109.3c5.4-11.9,13.1-21.9,22.4-29.8
			c22.7-19.2,54.6-25.6,83.8-14.9c1.9,0.7,3.8,1.5,5.7,2.3C2802.3,699.1,2820.2,725.8,2823.2,754.8"/>
		<path class="st27" d="M2804.8,793.1c-1.1,2.5-2.4,5-3.8,7.4c-20.4,35.6-63.8,51.5-102.5,37.3c-1.9-0.7-3.8-1.5-5.7-2.3
			c-42.6-19.3-61.5-69.4-42.3-112c4.4-9.8,10.5-18.4,17.8-25.5c0,0,0,0,0,0c4.6-4.5,9.6-8.4,14.9-11.7c0.1-0.1,0.2-0.1,0.2-0.1
			c23.1-14.1,52.5-16.9,79.1-4.9c1.9,0.9,3.7,1.8,5.6,2.8C2806.7,704.8,2823.2,752.4,2804.8,793.1"/>
		<path class="st28" d="M2789.5,786.2c-15.4,34.2-55.7,49.4-89.8,33.9c-34.2-15.4-49.4-55.7-33.9-89.8
			c15.4-34.2,55.7-49.4,89.8-33.9C2789.8,711.8,2805,752.1,2789.5,786.2"/>
		<path class="st26" d="M2668.8,735.9c15.4-34.2,55.7-49.4,89.8-33.9c12.8,5.8,22.9,15,29.8,26.1c-6.7-13.6-18-25-32.8-31.7
			c-34.2-15.4-74.4-0.3-89.8,33.9c-8.7,19.4-7.7,40.6,1.1,58.3c-3.3-9.1-4.7-18.8-4-28.7C2663.4,751.8,2665.3,743.7,2668.8,735.9"/>
		<path class="st29" d="M2747.2,724l3.2-7.1l-7.2-3.2l-3.2,7.1c-11.9-4.7-17.4-2.2-22.9,10c-4.8,10.6-5.6,14.9-2.9,19.4
			c3,5.2,11.3,11.8,13.4,17.1c1,2.1,0.7,3.3-0.4,5.7c-0.2,0.4-0.3,0.7-0.5,1.1c-3,6.7-4.4,8.3-9.4,6c-5.1-2.3-4.1-5.4-1.8-10.7
			c0.7-1.5,1.3-2.6,1.8-3.4l-12.7-5.7c-1.3,1.9-2.7,4.4-4.1,7.5c-5.5,12.1-2,17.8,7.8,22.8l-4,8.9l7.2,3.2l4.1-9
			c11.9,4.4,17.7,1.1,24.3-12.4c0.6-1.2,1.2-2.4,1.7-3.7c5.3-11.7,2.4-14.4-1.6-19.2c-2.9-3.4-6.4-6.5-9.8-10.3
			c-3.1-3.5-3.2-4.2-0.5-10.1c2.6-5.7,4.3-6.6,8.4-4.7c4.8,2.2,4.4,4.9,2.2,9.7c-0.8,1.7-1.3,2.8-1.9,3.8l12.5,5.7
			c1-1.6,2.2-3.7,3.6-6.7C2759.8,734.8,2757.8,729.3,2747.2,724"/>
		<path class="st26" d="M514.8,1704c5.4,4.7,9.9,10.5,13.4,17v0c1.5,2.9,2.8,6,3.9,9.2c0.3,0.9,0.6,1.9,0.9,2.8
			c8.6,30.9-8.5,63.4-39.3,73.5c-1.4,0.5-2.8,0.9-4.2,1.2c-30.4,7.7-62.1-9.4-72.1-39.6c-2.9-8.8-3.7-17.8-2.6-26.5
			c2.6-21,16.3-39.8,36.9-48.3c1.4-0.6,2.7-1.1,4.1-1.5C476.9,1684.9,499.2,1690.2,514.8,1704"/>
		<path class="st27" d="M523.7,1733c0.6,1.9,1.2,3.8,1.6,5.7c6.5,28.6-8.6,57.9-35.8,69.1c-1.4,0.6-2.7,1.1-4.1,1.5
			c-31.7,10.5-65.9-6.7-76.4-38.4c-2.4-7.3-3.4-14.8-3-22c0,0,0,0,0,0c0.2-4.5,1-9,2.2-13.3c0-0.1,0-0.2,0-0.2
			c5.3-18.6,19.4-34.3,39.1-40.8c1.4-0.5,2.8-0.9,4.2-1.2C482,1685.7,513.7,1702.8,523.7,1733"/>
		<path class="st28" d="M512.3,1736.8c8.4,25.4-5.4,52.8-30.8,61.2c-25.4,8.4-52.8-5.4-61.2-30.8c-8.4-25.4,5.4-52.8,30.8-61.2
			C476.5,1697.6,503.9,1711.4,512.3,1736.8"/>
		<path class="st26" d="M424.6,1768.7c-8.4-25.4,5.4-52.8,30.8-61.2c9.5-3.1,19.3-3.2,28.3-0.7c-10.1-3.9-21.5-4.4-32.6-0.8
			c-25.4,8.4-39.2,35.8-30.8,61.2c4.8,14.4,15.6,25.1,28.8,30.1c-6.1-3.2-11.6-7.6-16-13.1C429.4,1779.7,426.5,1774.5,424.6,1768.7"
			/>
		<path class="st29" d="M460,1724.6l-1.7-5.2l-5.3,1.8l1.7,5.2c-8.5,3.3-10.2,7.2-7.2,16.3c2.6,7.9,4.2,10.5,7.9,11.6
			c4.1,1.3,11.6,0.8,15.3,2.5c1.5,0.6,1.9,1.4,2.6,3.2c0.1,0.3,0.2,0.5,0.3,0.9c1.7,5,1.7,6.5-2.1,7.7c-3.8,1.3-4.8-0.9-6.1-4.8
			c-0.4-1.1-0.6-2-0.7-2.7l-9.4,3.1c0.3,1.6,0.7,3.6,1.5,5.9c3,9,7.5,10.3,15.1,8.2l2.2,6.6l5.3-1.8l-2.2-6.7
			c8.4-3.5,9.8-8,6.8-18.3c-0.3-0.9-0.5-1.8-0.9-2.8c-2.9-8.7-5.7-8.7-10.1-9.3c-3.1-0.4-6.5-0.3-10.1-0.7c-3.3-0.3-3.7-0.7-5.2-5.1
			c-1.4-4.2-0.9-5.5,2.2-6.5c3.6-1.2,4.7,0.4,5.8,4c0.4,1.3,0.7,2.1,0.9,2.9l9.3-3.1c-0.3-1.3-0.6-3-1.4-5.3
			C471.8,1724.1,468.1,1722.3,460,1724.6"/>
		<g class="st30">
			<g>
				<defs>
					<rect id="SVGID_15_" x="2107.5" y="157.1" width="129.3" height="123.7"/>
				</defs>
				<clipPath id="SVGID_16_">
					<use xlink:href="#SVGID_15_"  style="overflow:visible;"/>
				</clipPath>
				<path class="st31" d="M2216.5,172.3c5.4,4.7,9.9,10.5,13.4,17l0,0c1.5,2.9,2.8,6,3.9,9.2c0.3,0.9,0.6,1.9,0.9,2.8
					c8.6,30.9-8.5,63.4-39.3,73.5c-1.4,0.5-2.8,0.9-4.2,1.2c-30.4,7.7-62.1-9.4-72.1-39.6c-2.9-8.8-3.7-17.8-2.6-26.5
					c2.6-21,16.3-39.8,36.9-48.3c1.4-0.6,2.7-1.1,4.1-1.5C2178.6,153.1,2200.9,158.5,2216.5,172.3"/>
				<path class="st32" d="M2225.3,201.3c0.6,1.9,1.2,3.8,1.6,5.7c6.5,28.6-8.6,57.9-35.8,69.1c-1.4,0.6-2.7,1.1-4.1,1.5
					c-31.7,10.5-65.9-6.7-76.4-38.4c-2.4-7.3-3.4-14.8-3-22c0,0,0,0,0,0c0.2-4.5,1-9,2.2-13.3c0-0.1,0-0.2,0-0.2
					c5.3-18.6,19.4-34.3,39.1-40.8c1.4-0.5,2.8-0.9,4.2-1.2C2183.7,154,2215.3,171,2225.3,201.3"/>
				<path class="st33" d="M2214,205.1c8.4,25.4-5.4,52.8-30.8,61.2s-52.8-5.4-61.2-30.8c-8.4-25.4,5.4-52.8,30.8-61.2
					C2178.2,165.9,2205.6,179.7,2214,205.1"/>
				<path class="st31" d="M2126.2,236.9c-8.4-25.4,5.4-52.8,30.8-61.2c9.5-3.1,19.3-3.2,28.3-0.7c-10.1-3.9-21.5-4.4-32.6-0.8
					c-25.4,8.4-39.2,35.8-30.8,61.2c4.8,14.4,15.6,25.1,28.8,30.1c-6.1-3.2-11.6-7.6-16-13.1C2131.1,248,2128.1,242.8,2126.2,236.9"
					/>
				<path class="st34" d="M2161.7,192.8l-1.7-5.2l-5.3,1.8l1.7,5.2c-8.5,3.3-10.2,7.2-7.2,16.3c2.6,7.9,4.2,10.5,7.9,11.6
					c4.1,1.3,11.6,0.8,15.3,2.5c1.5,0.6,1.9,1.4,2.6,3.2c0.1,0.3,0.2,0.5,0.3,0.9c1.7,5,1.7,6.5-2.1,7.7c-3.8,1.3-4.8-0.9-6.1-4.8
					c-0.4-1.1-0.6-2-0.7-2.7l-9.4,3.1c0.3,1.6,0.7,3.6,1.5,5.9c3,9,7.5,10.3,15.1,8.2l2.2,6.6l5.3-1.8l-2.2-6.7
					c8.4-3.5,9.8-8,6.8-18.3c-0.3-0.9-0.5-1.8-0.9-2.8c-2.9-8.7-5.7-8.7-10.1-9.3c-3.1-0.4-6.5-0.3-10.1-0.7
					c-3.3-0.3-3.7-0.7-5.2-5.1c-1.4-4.2-0.9-5.5,2.2-6.5c3.6-1.2,4.7,0.4,5.8,4c0.4,1.3,0.7,2.1,0.9,2.9l9.3-3.1
					c-0.3-1.3-0.6-3-1.4-5.3C2173.5,192.4,2169.8,190.5,2161.7,192.8"/>
			</g>
		</g>
		<g class="st30">
			<g>
				<defs>
					<rect id="SVGID_17_" x="372" y="594.1" width="196.9" height="185.3"/>
				</defs>
				<clipPath id="SVGID_18_">
					<use xlink:href="#SVGID_17_"  style="overflow:visible;"/>
				</clipPath>
				<path class="st35" d="M561.7,651.9c4.2,10,6.7,20.8,7.1,32.1l0,0c0.2,5,0,10.1-0.7,15.2c-0.2,1.5-0.4,2.9-0.7,4.4
					c-8.5,47.9-53.2,81.3-102,75c-2.2-0.3-4.4-0.6-6.6-1.1C412.2,768.1,380,724,386.1,676c1.8-14,6.6-26.9,13.8-38
					c17.4-27.1,48.4-43.9,82.2-42c2.2,0.1,4.4,0.3,6.7,0.6C522.4,600.8,549.4,622.8,561.7,651.9"/>
				<path class="st36" d="M554.9,697.5c-0.4,3-0.9,6-1.6,8.8c-9.9,43.4-49.8,73.6-94.4,71.2c-2.2-0.1-4.5-0.3-6.7-0.6
					c-50.3-6.4-85.8-52.4-79.4-102.7c1.5-11.6,5.1-22.4,10.3-32.1c0,0,0,0,0,0c3.3-6.1,7.3-11.7,11.8-16.8c0.1-0.1,0.2-0.2,0.2-0.2
					c19.5-22,49.1-34.2,80.4-30.2c2.2,0.3,4.5,0.6,6.6,1.1C528.8,605.4,561,649.5,554.9,697.5"/>
				<path class="st37" d="M536.9,695.2c-5.1,40.3-42,68.9-82.3,63.7c-40.3-5.1-68.9-42-63.7-82.3c5.1-40.3,42-68.9,82.3-63.7
					C513.5,618,542,654.9,536.9,695.2"/>
				<path class="st35" d="M395.7,681.4c5.1-40.3,42-68.9,82.3-63.7c15.1,1.9,28.5,8.3,39.2,17.6c-11.3-11.9-26.6-20.2-44.1-22.4
					c-40.3-5.1-77.2,23.4-82.3,63.7c-2.9,22.8,5,44.6,19.7,60c-6.3-8.3-10.9-18-13.3-28.5C395.2,699.6,394.5,690.6,395.7,681.4"/>
				<path class="st38" d="M473.3,644.2l1.1-8.3l-8.5-1.1l-1.1,8.3c-13.8-1.1-18.7,3.2-20.6,17.6c-1.6,12.5-1.1,17.2,3.2,21.1
					c4.8,4.4,15.4,8.7,19.3,13.4c1.7,1.9,1.8,3.2,1.4,6.1c0,0.4-0.1,0.9-0.2,1.4c-1,7.9-2,10-7.9,9.3c-6.1-0.8-6-4.3-5.2-10.5
					c0.2-1.7,0.5-3.1,0.8-4.1l-14.9-1.9c-0.7,2.4-1.4,5.4-1.8,9.1c-1.8,14.3,3.6,19,15.4,21.1l-1.3,10.5l8.5,1.1l1.4-10.6
					c13.8,0.7,18.7-4.5,21.3-20.6c0.2-1.4,0.4-2.8,0.6-4.4c1.8-13.9-2.1-15.7-7.8-19.4c-4-2.6-8.7-4.7-13.4-7.6
					c-4.3-2.6-4.6-3.3-3.7-10.3c0.9-6.7,2.4-8.2,7.3-7.6c5.6,0.7,6.1,3.6,5.4,9.3c-0.3,2-0.4,3.4-0.7,4.6l14.8,1.9
					c0.5-2,1.1-4.5,1.6-8.1C489.7,651.3,485.8,646.3,473.3,644.2"/>
			</g>
		</g>
		<g class="st30">
			<g>
				<defs>
					<rect id="SVGID_19_" x="1346.6" y="2043" width="196.9" height="185.3"/>
				</defs>
				<clipPath id="SVGID_20_">
					<use xlink:href="#SVGID_19_"  style="overflow:visible;"/>
				</clipPath>
				<path class="st39" d="M1536.3,2100.9c4.2,10,6.7,20.8,7.1,32.1v0c0.2,5,0,10-0.7,15.2c-0.2,1.5-0.4,2.9-0.7,4.4
					c-8.5,47.9-53.2,81.3-102,75c-2.2-0.3-4.4-0.6-6.6-1.1c-46.7-9.4-78.9-53.5-72.8-101.6c1.8-14,6.6-26.9,13.8-38
					c17.4-27.1,48.4-43.9,82.2-42c2.2,0.1,4.4,0.3,6.7,0.6C1496.9,2049.8,1523.9,2071.7,1536.3,2100.9"/>
				<path class="st40" d="M1529.4,2146.4c-0.4,3-0.9,6-1.6,8.8c-9.9,43.4-49.8,73.6-94.4,71.2c-2.2-0.1-4.5-0.3-6.7-0.6
					c-50.3-6.4-85.8-52.4-79.4-102.7c1.5-11.6,5.1-22.4,10.3-32.1c0,0,0,0,0,0c3.3-6.1,7.3-11.7,11.8-16.8c0.1-0.1,0.2-0.2,0.2-0.2
					c19.5-22,49.1-34.2,80.4-30.2c2.2,0.3,4.5,0.6,6.6,1.1C1503.3,2054.3,1535.5,2098.4,1529.4,2146.4"/>
				<path class="st41" d="M1511.4,2144.1c-5.1,40.3-42,68.9-82.3,63.7c-40.3-5.1-68.9-42-63.7-82.3c5.1-40.3,42-68.9,82.3-63.7
					C1488,2066.9,1516.5,2103.8,1511.4,2144.1"/>
				<path class="st39" d="M1370.2,2130.3c5.1-40.3,42-68.9,82.3-63.7c15.1,1.9,28.5,8.3,39.2,17.6c-11.3-11.9-26.6-20.2-44.1-22.4
					c-40.3-5.1-77.2,23.4-82.3,63.7c-2.9,22.8,5,44.6,19.7,60c-6.3-8.3-10.9-18-13.3-28.5
					C1369.7,2148.6,1369.1,2139.5,1370.2,2130.3"/>
				<path class="st42" d="M1447.8,2093.1l1.1-8.3l-8.5-1.1l-1.1,8.3c-13.8-1.1-18.7,3.2-20.6,17.6c-1.6,12.5-1.1,17.2,3.2,21.1
					c4.8,4.4,15.4,8.7,19.3,13.4c1.7,1.9,1.8,3.2,1.4,6.1c0,0.4-0.1,0.9-0.2,1.4c-1,7.9-2,10-7.9,9.3c-6.1-0.8-6-4.3-5.2-10.5
					c0.2-1.7,0.5-3.1,0.8-4.1l-14.9-1.9c-0.7,2.4-1.4,5.4-1.8,9.1c-1.8,14.3,3.6,19,15.4,21.1l-1.3,10.5l8.5,1.1l1.4-10.6
					c13.8,0.7,18.7-4.5,21.3-20.6c0.2-1.4,0.4-2.8,0.6-4.4c1.8-13.9-2.1-15.7-7.8-19.4c-4-2.6-8.7-4.7-13.4-7.6
					c-4.3-2.6-4.6-3.3-3.7-10.3c0.9-6.7,2.4-8.2,7.3-7.6c5.6,0.7,6.1,3.6,5.4,9.3c-0.3,2-0.4,3.4-0.7,4.6l14.8,1.9
					c0.5-2,1.1-4.5,1.6-8.1C1464.2,2100.3,1460.3,2095.2,1447.8,2093.1"/>
			</g>
		</g>
		<path class="st17" d="M2343.3,1153.6c-0.2,0.4-0.3,12.1-0.4,23.1c-0.1,12.7-4.2,26.5-11.7,39l-52.6,87.4
			c-8.6,14.4-6.8,30.4,3.9,34.8c9.3,3.8,22.3-2.5,30.3-14.7l95.1-143.1L2343.3,1153.6z"/>
		<g class="st43">
			<g>
				<defs>
					<rect id="SVGID_21_" x="2287" y="1153.6" width="120.9" height="185.4"/>
				</defs>
				<clipPath id="SVGID_22_">
					<use xlink:href="#SVGID_21_"  style="overflow:visible;"/>
				</clipPath>
				<path class="st44" d="M2343,1168.7c0.1-8,0.2-14.8,0.3-15.1l64.6,26.5l-95.1,143.1c-6.8,10.4-17.1,16.4-25.8,15.7
					c27.4-37.6,50.1-86.6,71.3-120.6C2380,1188,2355.6,1183.5,2343,1168.7"/>
			</g>
		</g>
		<path class="st18" d="M1983.5,1102.6c0,0,147.4-43.2,319.6,69.2l57.7-88.4c-172.2-112.4-192-264.7-192-264.7L1983.5,1102.6z"/>
		<g class="st43">
			<g>
				<defs>
					<rect id="SVGID_23_" x="1983.5" y="1021.6" width="349.2" height="150.2"/>
				</defs>
				<clipPath id="SVGID_24_">
					<use xlink:href="#SVGID_23_"  style="overflow:visible;"/>
				</clipPath>
				<path class="st45" d="M2036.3,1021.6c79.3,61.3,169.8,74.4,270.5,97.9c8.8,1.9,17.4,4.2,25.9,7l-29.6,45.3
					c-172.2-112.4-319.6-69.2-319.6-69.2L2036.3,1021.6z"/>
			</g>
		</g>
		<path class="st17" d="M2168.8,818.7c-31.9-20.8-99.3,25.8-150.5,104.2c-51.2,78.4-66.8,158.9-34.8,179.7
			c31.9,20.8,99.3-25.8,150.5-104.2C2185.1,920,2200.7,839.5,2168.8,818.7"/>
		<path class="st46" d="M2163.7,826.4c-27.1-17.7-88,27.4-135.9,100.9s-64.8,147.3-37.6,165c27.1,17.7,88-27.4,135.9-100.9
			C2174,918,2190.9,844.2,2163.7,826.4"/>
		<g class="st43">
			<g>
				<defs>
					<rect id="SVGID_25_" x="2036.4" y="881.8" width="136.7" height="194.1"/>
				</defs>
				<clipPath id="SVGID_26_">
					<use xlink:href="#SVGID_25_"  style="overflow:visible;"/>
				</clipPath>
				<path class="st47" d="M2173,888.2c-1.1-1.4-2.4-2.7-3.9-3.7c-19.3-12.6-62.6,19.5-96.7,71.8c-34.1,52.3-46.1,104.8-26.8,117.4
					c1.5,1,3.2,1.7,4.9,2.1c24.6-18.3,51.7-47.9,75.6-84.5C2150,954.8,2166.2,918.1,2173,888.2"/>
			</g>
		</g>
		<path class="st48" d="M2406.1,1112.2l-59.8-39.1l-1,3.6c-9.1,31.6-27.1,59.8-52.1,81.2l-5.1,4.4l59.8,39.1
			c19.2,12.5,44.5,7.7,56.5-10.8l14.6-22.4C2431,1149.9,2425.2,1124.7,2406.1,1112.2"/>
		<path class="st49" d="M2288,1162.4l19.9,13l15.2,9.9l24.8,16.2c19.2,12.5,44.5,7.7,56.5-10.8l14.6-22.4
			c12.1-18.4,6.3-43.6-12.9-56.1l-27.3-17.8l-13.7-8.9l-18.8-12.3l-1,3.6c-9.1,31.6-27.1,59.8-52.1,81.2L2288,1162.4z"/>
		<path class="st17" d="M2307.9,1175.4l15.2,9.9c25.3-25.7,44.3-56.7,55.7-91l-13.7-8.9C2353.1,1119.4,2333.5,1150.1,2307.9,1175.4"
			/>
		<path class="st25" d="M2064.1,950.9c-7.1,10.9-6.3,25.4,2,36.7l31.4,42.6c9.8-11.7,19.4-24.8,28.6-38.8
			c9.2-14.1,17.2-28.1,24-41.8l-51.6-11.6C2084.8,934.9,2071.2,940,2064.1,950.9"/>
		<path class="st18" d="M2080.7,961.8c-6.4,9.9-15.4,15.4-20,12.4c-4.6-3-3.1-13.4,3.4-23.3c6.4-9.9,15.4-15.4,20-12.4
			C2088.6,941.5,2087.1,951.9,2080.7,961.8"/>
		<g class="st43">
			<g>
				<defs>
					<rect id="SVGID_27_" x="2287.9" y="1124" width="134.1" height="84.4"/>
				</defs>
				<clipPath id="SVGID_28_">
					<use xlink:href="#SVGID_27_"  style="overflow:visible;"/>
				</clipPath>
				<path class="st50" d="M2293.1,1158c11.6-10,21.7-21.5,30.1-34c31.1,9.2,65.4,29.5,98.9,38.5c-0.9,2-1.9,3.9-3.1,5.8l-14.6,22.4
					c-12.1,18.5-37.4,23.3-56.5,10.8l-24.8-16.2l-15.2-9.9l-19.9-13L2293.1,1158z"/>
			</g>
		</g>
		<path class="st51" d="M2660.3,1272.6c-5.7,28.3-62.8,50.3-62.8,50.3s-6,28.5,3.4,59.6v0c0.5,1.6,1,3.1,1.5,4.7
			c1.7,4.9,3.8,9.8,6.4,14.6c2.1,4,4.6,8,7.5,11.8c29.5,39.9,27,107.1,9.4,146.7c-17.6,39.6-55.3,141.4-55.3,141.4
			c-63.5,40.2-177.8,0-177.8,0s-5-75.4-5.7-81.7c-0.6-6.3-22-25.1-22-25.1c22.6-8.2,74.1-41.5,74.1-41.5
			c67.2,18.2,121.7-62.4,101.2-123.2c-1.1-3.4-2.4-6.5-3.9-9.3c-12-23.6-32.8-26.5-50.7-23.5c-17.3,2.8-31.8,11.2-32.9,11.8
			c9.7-7.1,19.3-12.1,28.1-16c12.8-5.8,23.7-9.2,29.7-13.7c2-1.5,4-4.3,5.9-8c6.1-11.6,11.8-31.4,14-42.8c0.7-3.6,1.1-6.4,1-7.8
			c-0.2-3-8.6-9.1-18.8-17c-14.3-11-32-25.4-35.2-39.1c-5.4-23.5,10.1-54,10.9-60.3c0.8-6.3-10.7-14.7-11.1-25.6
			c-0.3-9,20.5,0.2,46.7-20.1c5.4-4.2,10.5-18.8,16.5-24.9c31.7-32.3,67.7-26.2,67.7-26.2s32.7,8.4,46.5,31.6
			C2668.4,1162.7,2665.9,1244.4,2660.3,1272.6"/>
		<path class="st52" d="M2564.5,1130.5c0,0,3.7,19.4,25.6,46.8c7.6,9.5,6.8,40.5-3.3,51l3.3,1.7c0,0,26-20.1,37.3-17.6
			c11.3,2.5,18.9,35.6,6.7,44.4c-12.1,8.8-15.2,2.7-15.2,2.7s-23.8,20.3-27.1,42.1c-3.4,21.8,3.9,37.2,3.9,37.2l1.7-16.1
			c0,0,83.4-24.5,67.4-91.1c-16-66.6-7.7-71.2-35.3-87.6C2601.8,1127.9,2564.5,1130.5,2564.5,1130.5"/>
		<path class="st52" d="M2608.8,1401.9c-0.9,2.1-2.1,3.9-3.8,5.2c-8.4,6.4-42.7,13.9-68.6,14.1c-12.6,0.1-23.2-1.6-28-6
			c-6-5.6-15.5-11.7-22.8-17.6c-1.8-1.4-3.4-2.8-4.8-4.2c12.8-5.8,23.7-9.2,29.7-13.7c2-1.5,4-4.3,5.9-8c0,0,78.8,38.4,84.4,10.9
			c0.5,1.6,1,3.1,1.5,4.7C2604.1,1392.1,2606.2,1397,2608.8,1401.9"/>
		<path class="st51" d="M2452.7,1409.4c0,0-39,36.4-74.6,67.9c0,0-13.2-86.5-5.7-122.3c7.5-35.8,2.5-109.2-3.2-116.7
			c0,0-1.5,3.3-7.5,11.2c-7.3,9.6-24.4,17.8-37.9-1c-9.5-13.3,1.5-23.1,1.5-23.1s-12.2-7.6-19.5-2c-7.3,5.6-21.6,35.7-27.7,48.5
			c-6.1,12.8,8.2,29.4,17,34.4c15.9,9,23.3,28,22.5,36.1c-0.8,8.1-26.9,216.9-10.5,247.7c16.3,30.8,57.8,5,57.8,5l147-17
			c0,0,50.9-72.3,55.9-110c5-37.7-44.6-80.4-44.6-80.4S2475.6,1394.6,2452.7,1409.4"/>
		<path class="st52" d="M2439.1,1553.5c0,0,51.2-35.6,56.5-39.2c5.3-3.6,13.9,15.4,26-3.1c12.2-18.4,31.2-51.3,0-107.5
			c0,0,50.1,2.3,51.3,40.9c1.3,38.6-23.9,117.8-37.3,128.3C2522.2,1583.3,2439.7,1587,2439.1,1553.5"/>
		<path class="st52" d="M2378.1,1477.3c0,0-31.4,23.6-38.7,46.5c0,0-5.9,14.5-1.7-10.9c4.2-25.4,39.2-43.8,39.2-43.8L2378.1,1477.3z
			"/>
		<path class="st25" d="M2392.6,1701.8c0,0-3.6,49.9,0,108.5c3.6,58.7-7.3,222.9-7.3,222.9h255.5c0,0,26.1-127.4,5.5-191.9
			c-20.6-64.5-68.3-103.9-75.9-139.5C2562.9,1666.2,2392.6,1701.8,2392.6,1701.8"/>
		<path class="st27" d="M2625.7,1560.4c-17.6,39.6-55.3,141.4-55.3,141.4c-63.5,40.2-177.8,0-177.8,0s-3.7-54.8-5.1-74.9
			c-0.3-3.5-0.4-5.9-0.5-6.8c-0.6-6.3-22-25.1-22-25.1c22.6-8.2,74.1-41.5,74.1-41.5c67.2,18.2,121.7-62.4,101.2-123.2
			c-2.4-7-5.3-12.6-8.8-17.2l0,0c-25.8-34.2-76.7-5-78.7-3.8c23.9-17.6,47.7-22.2,57.7-29.7c0,0,87.4,40.5,91.9,7.6
			c3.1,8.9,7.6,17.9,13.9,26.5C2645.8,1453.6,2643.3,1520.8,2625.7,1560.4"/>
		<path class="st53" d="M2443.5,1554.6c0,0-56.7,40.4-75.6,43.1l-3-2.7c0,0,33.2-13,74.1-41.5L2443.5,1554.6z"/>
		<path class="st52" d="M2530.5,1328.8c0.7-3.6,1.1-6.4,1-7.8c-0.2-3-8.6-9.1-18.8-17c0,0,31.8,17,42.3,17.8
			C2565.3,1322.7,2531.2,1328.7,2530.5,1328.8"/>
		<path class="st54" d="M2790.2,1240.4c-1.9,4.4-4.5,9.1-8.1,14c-32,44.6-71,10-71,10c-17.6,103.1-103.5,67-113.7,58.4
			c-10.3-8.6,15.7-62.6,25.3-66.4c9.6-3.8,16.8-14.7,13-26.6c-3.8-11.9-26.4-13.2-37.1-1.9c-10.7,11.3-32,7.5-17.6,3.1
			c14.5-4.4,42.1-37.1,14.5-59.3c-16-12.9-25.5-29-30.6-40.3l0,0c-3.7-8.2-5.2-13.9-5.2-13.9s-26.5-33.5,72.2-32.2
			c98.7,1.3,89.9,115.5,89.9,115.5C2769.4,1185.3,2805.5,1204.5,2790.2,1240.4"/>
		<path class="st55" d="M2790.2,1240.4c-1.9,4.4-4.5,9.1-8.1,14c-32,44.6-71,10-71,10c-17.6,103.1-103.5,67-113.7,58.4
			c-10.3-8.6,15.7-62.6,25.3-66.4c9.6-3.8,16.8-14.7,13-26.6c-3.8-11.9-26.4-13.2-37.1-1.9c-10.7,11.3-32,7.5-17.6,3.1
			c14.5-4.4,42.1-37.1,14.5-59.3c-16-12.9-25.5-29-30.6-40.3c0.8,1.2,24.2,35.4,54.5,53.9c30.8,18.8,34.3,54.6,48.2,71.4
			c6.7,8.2,31,21.5,44.2-4.9C2711.8,1251.9,2770.7,1274.8,2790.2,1240.4"/>
		<path class="st51" d="M1301.1,941.2c-7.9-3.7-406.8-121.4-405.2-133c0.6-4.2,4.1-19.1,8.8-37.5c8.4-32.7,20.3-76.3,25.3-89.1
			c2.1-5.2,9.1-10.2,18.9-15.1c12.3-6,29-11.7,45.7-16.8l0.1,0c21.1-6.5,42.1-12.1,54.1-16.4c2.1-0.7,3.9-1.9,5.6-3.4
			c21.7-19.2,11.8-96,19.6-137c8.4-44.2,39.4-15.8,78.3-46.8c38.9-31,81.5-12.1,81.5-12.1c38.5,22.6,12,90.6,8.1,107.9
			c-4,17.3-4.7,42.8-36.7,61.9c-32,19.2-50.8,6.3-50.8,6.3s-2.8,19.8,1.6,29.6c0.3,0.7,0.6,1.3,1,1.9c3.2,5,30.2,11.7,57.1,17.9
			l1.1,0.3c14,3.2,27.9,6.3,38.4,8.9l0,0c5.4,1.3,9.8,2.6,12.9,3.6c21.4,7.3,61.8,137.2,75,199.5c2.2,10.6,3.7,19.2,4.2,24.9
			C1347.4,916.4,1309,944.9,1301.1,941.2"/>
		<path class="st56" d="M1301.1,941.2c-7.9-3.7-406.8-121.4-405.2-133c0.6-4.2,4.1-19.1,8.8-37.5c8.4-32.7,20.3-76.3,25.3-89.1
			c2.1-5.2,9.1-10.2,18.9-15.1c12.3-6,29-11.7,45.7-16.8l0.1,0c21.1-6.5,42.1-12.1,54.1-16.4c2.1-0.7,3.9-1.9,5.6-3.4
			c0,0,41.8,26.2,101.7,9.9c0.3,0.7,0.6,1.3,1,1.9c3.2,5,30.2,11.7,57.1,17.9l1.1,0.3c14,3.2,27.9,6.3,38.4,8.9l0,0
			c5.4,1.3,9.8,2.6,12.9,3.6c21.4,7.3,61.8,137.2,75,199.5c2.2,10.6,3.7,19.2,4.2,24.9C1347.4,916.4,1309,944.9,1301.1,941.2"/>
		<path class="st52" d="M1109.6,487.7c0,0-24.6,0.2-27.2,12.8c-2.6,12.6,7.5,29.2,1.4,39.2c-6.1,10-14.1,25.5-14.1,25.5v-32
			c0,0,1.3-44.8,8.8-51.6C1085.9,474.8,1109.6,487.7,1109.6,487.7"/>
		<path class="st52" d="M1254.4,481.1c0,0-19.3-41.4-64-24.5c-14.9,5.6-27.6,16-36.3,29.4c-10.3,15.8-27.8,39-32.6,23.5
			c0,0,52-89.6,78.3-81.2C1226,436.6,1258.3,452.8,1254.4,481.1"/>
		<path class="st57" d="M1269.3,1006.7c0,0,31.5,6.3,6.3,51.9c-25.2,45.6-154.4,92.5-204.4,79.2c-50-13.3-130.6-90.4-99-114.9
			C1003.7,998.3,1269.3,1006.7,1269.3,1006.7"/>
		<path class="st58" d="M1101.7,399.1c-5.7,2.3-10.9,5.2-15.5,8.6c0,0,0,0,0,0s-52.9-46.3-108,4.6c-55.1,50.9,49.2,201,49.2,201
			s-38.6-163.8,39.3-183.6c-7.9,13.6-11.8,30-12.1,47.5c-0.3,15.6,2.3,32.1,7.5,48.3c5.8,18,1.9,27.8,1.9,27.8
			c10.9-0.7,17.2-19.6,17.2-19.6c-3.5-3.2-16.5-42,13-47c29.4-4.9,27.4,22.8,27.4,22.8c17.2,12.6,19.9-49.1,72.5-62.4
			c52.6-13.3,60.5,34,60.5,34c1.4-3.6,2.3-7.1,2.8-10.5C1266.4,412.8,1165.6,373.4,1101.7,399.1"/>
		<path class="st59" d="M895.9,808.2c-1.6,11.6,397.3,129.3,405.2,133c7.9,3.7,46.2-24.8,44.7-44.4c-0.5-5.8-1.9-14.4-4.2-24.9
			c-24.1-8.4-74.7-93-87.9-110.4c-13.2-17.3,0-92.8,0-92.8l0,0l-38.4-8.9l-1.1-0.3c0,0,2.3,45-21.4,83.6
			c-23.7,38.6-68.3,27.9-127.7,25.2c-59.4-2.6-70.4-118.6-70.4-118.6l-0.1,0L949,666.5c0,0,6.6,65.5,7.7,86.5
			c1,21-13.5,17.3-13.5,17.3c-12.2-1.6-25.9-2.4-38.5,0.3C900,789.1,896.5,804,895.9,808.2"/>
		<path class="st52" d="M1154.5,610.1c0,0-40.7-18.4-55.2-36.2c0,0-6.9-5.8-2.2,8.4c4.7,14.2,57.4,52,57.4,52
			S1153.3,620.5,1154.5,610.1"/>
		<path class="st27" d="M1221.4,659.5c0.3,0.1-0.5,82.4-37.6,108.5c-37.1,26.1-137.3,31.8-160.8-12
			c-23.5-43.8-32.6-108.1-32.6-108.1l-37.6,13.7c0,0,18.5,86.6,3.9,135.1c-14.6,48.5,280.8,30.3,280.8,30.3s-4-122.3,12.9-161.6
			L1221.4,659.5z"/>
		<path class="st60" d="M895.9,782.2v253c0,3.8,3.1,6.9,6.9,6.9h396.8c3.8,0,6.9-3.1,6.9-6.9v-253c0-3.8-3.1-6.9-6.9-6.9H902.8
			C899,775.4,895.9,778.5,895.9,782.2"/>
		<path class="st18" d="M1071.2,912.7c0,9.9,14.2,18,31.7,18c17.5,0,31.7-8.1,31.7-18c0-9.9-14.2-18-31.7-18
			C1085.4,894.7,1071.2,902.8,1071.2,912.7"/>
		<g class="st61">
			<g>
				<defs>
					<rect id="SVGID_29_" x="895.9" y="848.7" width="410.5" height="193.5"/>
				</defs>
				<clipPath id="SVGID_30_">
					<use xlink:href="#SVGID_29_"  style="overflow:visible;"/>
				</clipPath>
				<path class="st62" d="M895.9,848.7v186.6c0,3.8,3.1,6.9,6.9,6.9h396.8c3.8,0,6.9-3.1,6.9-6.9v-64.7L895.9,848.7z"/>
			</g>
		</g>
		<path class="st27" d="M946.8,1108.8c11.1,19.1,21.8,44.6,28.3,60.8c0.9-0.1,1.9-0.2,2.8-0.4c0.4,0,0.8-0.1,1.1-0.1
			c1.1-0.1,2.3-0.3,3.5-0.4c1.6-0.2,3.2-0.3,4.9-0.5c0.2,0,0.4,0,0.6-0.1c36.9-3.4,92.8-4.2,129.5-4.4c21.9-0.1,36.9,0.1,36.9,0.1
			c4,0.3,8,0.5,11.9,0.7c225.7,12.9,316-52.1,299.9-104.6c-0.9-3.1-2.3-6.2-4-9.2c-12.4-22-40.1-31.5-68.8-35.1
			c-42.3-5.3-85.3,2.8-123.2,22.5c-24.3,12.7-59.2,29.1-98.8,42.9c-2.3,0.8-4.6,1.6-6.9,2.4c-2.3,0.8-4.6,1.5-7,2.3
			c-9.8,3.1-20.6,5.9-32.3,8.2c-44.7,9.1-100.2,12.6-143.5,14c-0.2,0-0.5,0-0.7,0c-1,0-1.9,0.1-2.9,0.1h-0.1c-0.8,0-1.6,0-2.4,0.1
			c-1.2,0-2.3,0.1-3.5,0.1c-0.8,0-1.5,0-2.3,0.1c-1.9,0-3.7,0.1-5.5,0.1c-0.5,0-1,0-1.5,0c-1.7,0-3.3,0.1-4.9,0.1
			c-1.4,0-2.7,0-4,0.1c-0.7,0-1.4,0-2.1,0c-0.9,0-1.8,0-2.7,0c-0.4,0-0.8,0-1.2,0C947.8,1108.8,947.3,1108.8,946.8,1108.8"/>
		<path class="st27" d="M952.7,1119.6L952.7,1119.6c0,0,0,0.1,0.1,0.1c5.2,6.1,13.4,25.2,22.6,49.9c7,18.9,14.6,41,21.9,62.9
			c1.2,3.7,2.5,7.5,3.7,11.2c0.3,0.9,0.6,1.8,0.9,2.7c0.2,0.7,0.4,1.3,0.6,2c0.3,0.8,0.5,1.7,0.8,2.5c0.4,1.1,0.7,2.3,1.1,3.4
			c0.3,0.8,0.5,1.7,0.8,2.5c0.5,1.6,1,3.1,1.5,4.7c0.3,0.8,0.5,1.6,0.8,2.4c0.4,1.3,0.8,2.5,1.2,3.8c0.4,1.2,0.8,2.4,1.1,3.6
			c0.8,2.5,1.6,5,2.4,7.5c0.6,1.8,1.1,3.6,1.7,5.3c0.2,0.6,0.4,1.2,0.5,1.7c0.2,0.6,0.4,1.2,0.5,1.7c0.4,1.2,0.8,2.4,1.1,3.7
			c0.2,0.5,0.3,1,0.5,1.5c0.2,0.7,0.4,1.4,0.6,2.1v0c1.2,3.8,2.3,7.4,3.3,10.8c0.3,0.9,0.5,1.7,0.8,2.5c0.4,1.4,0.9,2.8,1.3,4.2
			c0.2,0.8,0.4,1.5,0.7,2.2c2,6.7,3.7,12.2,4.9,16.3c0.1,0.2,0.1,0.3,0.1,0.5c0.1,0.4,0.2,0.7,0.3,1c2.8,9.7,6.3,18.1,10.2,25.3
			c0.3,0.6,0.6,1.1,0.9,1.7c0.3,0.6,0.6,1.1,0.9,1.7c0.3,0.5,0.6,1.1,1,1.6c0.3,0.5,0.6,1.1,1,1.6c0.3,0.5,0.6,1,1,1.5
			c0.3,0.5,0.6,0.9,0.9,1.4c0.3,0.4,0.6,0.9,0.9,1.3c0.3,0.5,0.6,0.9,1,1.4c1,1.4,1.9,2.7,2.9,4c0.3,0.4,0.6,0.8,1,1.2
			c0.3,0.4,0.6,0.8,1,1.2c0.3,0.4,0.6,0.8,1,1.2c0.3,0.4,0.6,0.8,1,1.1c0.3,0.4,0.6,0.7,1,1.1c0.3,0.4,0.7,0.8,1,1.1
			c0.7,0.7,1.3,1.5,2,2.1c4.3,4.5,8.2,8,11.5,10.6c10.9,8.8,10.5,45.2,10.5,45.2c0.4,3.3,0.8,6.6,1.1,9.7c0.2,1.5,0.3,3,0.4,4.4
			c0.2,2.2,0.4,4.3,0.5,6.4c0.1,1.2,0.2,2.3,0.2,3.4c0,0.2,0,0.5,0,0.7c0,0.6,0.1,1.2,0.1,1.7c0,0.8,0.1,1.5,0.1,2.3
			c0,0.7,0.1,1.3,0.1,2c0,0.3,0,0.5,0,0.8c0,0.8,0.1,1.5,0.1,2.3c0,0.3,0,0.5,0,0.8c0,0.6,0,1.2,0,1.9c0,0.8,0,1.6,0,2.4
			c0,0.4,0,0.9,0,1.3c0.3,40.6-9.7,59-21.6,69.9c-0.5,0.5-1,0.9-1.5,1.3c-3.8,3.2-7.6,5.8-11.4,8.2c-1,0.6-2,1.1-3,1.6
			c-20.9,9.8-61.8,1-67.8-10.4c-6.3-11.9,4.5-23.5,4.5-23.5c2.6-4.3,4.9-8.9,6.9-13.8c10-25,11.2-58.3,3.6-111.6
			c-0.3-1.8-0.7-3.7-1.3-5.8h0c-3-10.5-10.4-24.7-20.5-41.5c-4.8-8.1-10.3-16.7-16.3-25.9c-3.5-5.4-7.3-11-11.1-16.8
			c-1-1.5-2-2.9-2.9-4.4c-0.9-1.3-1.8-2.7-2.7-4c-1.5-2.2-2.9-4.3-4.4-6.5c-1.9-2.8-3.8-5.5-5.7-8.3c-1-1.5-2-3-3.1-4.5
			c-1.2-1.7-2.4-3.5-3.6-5.2c-11.4-16.7-23.4-34-35.2-51.7c-1.2-1.8-2.4-3.5-3.6-5.3c-2.4-3.5-4.7-7.1-7.1-10.6
			c-2.3-3.5-4.6-7-6.9-10.5c-1.2-1.8-2.4-3.7-3.6-5.5c0,0,0,0,0,0c-52.7-81.2-96-162-69.5-197.6c16.5-22.2,55.4-21.6,101.8-9.9
			c28.2,7.1,59.2,18.2,89.5,30.9c19.2,8,38.1,16.5,56,25c12.2,5.8,24,11.6,34.9,17.2c26,13.1,47.4,24.9,60.7,32.3h0
			c9.3,5.2,14.6,8.3,14.6,8.3c-6,3.6-18.5,6.5-34.4,8.9c-24.9,3.8-58.1,6.3-88.3,7.9c-19.5,1.1-37.7,1.7-51.4,2.2
			C963,1119.4,953.5,1119.5,952.7,1119.6"/>
		<path class="st57" d="M864.4,1024.8c48.9,22.1,88.3,94.8,88.3,94.8s170.7-2.8,198.9-19.7c0,0,12.9,4.9-31.3-17.5
			c-106.3,29-155-19.3-209.6-48.7C856,1004.3,864.4,1024.8,864.4,1024.8"/>
		<path class="st51" d="M1166.4,1164.7c-3.9-0.2-7.9-0.5-11.9-0.8c0,0-12.7-0.1-31.7-0.1c-5.1,0-10.7,0-16.6,0.1c-1.1,0-2.2,0-3.2,0
			c-34.5,0.3-79.3,1.2-111.3,4c-6,0.5-11.5,1.1-16.5,1.7c-6.4-16.2-17.2-41.7-28.3-60.8c10.2-0.1,22.2-0.3,35.2-0.7
			c37.8-1.2,85-4.1,126.2-10.8c5.8-1,11.4-2,16.9-3.1c11.8-2.4,22.8-5.1,32.6-8.3c0.9-0.3,1.9-0.6,2.8-0.9c1.4-0.5,2.8-0.9,4.2-1.4
			C1161.8,1102.4,1158.6,1135.7,1166.4,1164.7"/>
		<path class="st52" d="M946.8,1108.8c11.1,19.1,21.8,44.6,28.3,60.8c0.9-0.1,1.9-0.2,2.8-0.4c0.4,0,0.8-0.1,1.1-0.1
			c1.1-0.1,2.3-0.3,3.5-0.4c1.6-0.2,3.2-0.3,4.9-0.5c0.2,0,0.4,0,0.6-0.1c1.1-0.1,2.3-0.2,3.5-0.3c-26.3-40.6-9.5-59.8-9.5-59.8
			c-0.2,0-0.5,0-0.7,0c-1,0-1.9,0.1-2.9,0.1h-0.1c-0.8,0-1.6,0-2.4,0.1c-1.2,0-2.3,0.1-3.5,0.1c-0.8,0-1.5,0-2.3,0.1
			c-1.9,0-3.7,0.1-5.5,0.1c-0.5,0-1,0-1.5,0c-1.7,0-3.3,0.1-4.9,0.1c-1.4,0-2.7,0-4,0.1c-0.7,0-1.4,0-2.1,0c-0.9,0-1.8,0-2.7,0
			c-0.4,0-0.8,0-1.2,0C947.8,1108.8,947.3,1108.8,946.8,1108.8L946.8,1108.8z"/>
		<path class="st51" d="M1081.9,1478.8c0.3,40.6-9.7,59-21.6,69.9c-0.5,0.5-1,0.9-1.5,1.3c-3.8,3.2-7.6,5.8-11.4,8.2
			c-1,0.6-2,1.1-3,1.6c-20.9,9.8-61.8,1-67.8-10.4c-6.3-11.9,4.5-23.5,4.5-23.5c2.6-4.3,4.9-8.9,6.9-13.8c10-25,11.2-58.3,3.6-111.6
			c-0.3-1.8-0.7-3.7-1.3-5.8h0c-3-10.5-10.4-24.7-20.5-41.5c-4.8-8.1-10.3-16.7-16.3-25.9c-3.5-5.4-7.3-11-11.1-16.8
			c-1-1.5-2-2.9-2.9-4.4c-0.9-1.3-1.8-2.7-2.7-4c-1.5-2.2-2.9-4.3-4.4-6.5c-1.9-2.8-3.8-5.5-5.7-8.3c-1-1.5-2-3-3.1-4.5
			c-0.3-0.4-0.6-0.9-0.9-1.3l-2.7-3.9c36.4,2,80-33.2,80.8-33.9l0,0c0.3,0.9,0.6,1.8,0.9,2.7c0.2,0.7,0.4,1.3,0.6,2
			c0.3,0.8,0.5,1.7,0.8,2.5c0.4,1.1,0.7,2.3,1.1,3.4c0.3,0.8,0.5,1.7,0.8,2.5c0.3,0.8,0.5,1.6,0.7,2.3l0.7,2.3
			c0.3,0.8,0.5,1.6,0.8,2.4c0.4,1.3,0.8,2.5,1.2,3.8c0.4,1.2,0.8,2.4,1.1,3.6c0.8,2.5,1.6,5,2.4,7.5c0.6,1.8,1.1,3.6,1.7,5.3
			c0.2,0.6,0.4,1.2,0.5,1.7c0.2,0.6,0.4,1.2,0.5,1.7c0.4,1.2,0.8,2.4,1.1,3.7c0.2,0.5,0.3,1,0.5,1.5c0.2,0.7,0.4,1.4,0.6,2.1v0
			c1.2,3.8,2.3,7.4,3.3,10.8c0.3,0.8,0.5,1.7,0.8,2.5c0.4,1.4,0.9,2.8,1.3,4.2c0.2,0.8,0.4,1.5,0.7,2.2c2,6.7,3.7,12.2,4.9,16.3
			c0.1,0.2,0.1,0.3,0.1,0.5c0.1,0.4,0.2,0.7,0.3,1c2.8,9.7,6.3,18.1,10.2,25.3c0.3,0.6,0.6,1.1,0.9,1.7c0.3,0.6,0.6,1.1,0.9,1.7
			c0.3,0.5,0.6,1.1,1,1.6c0.3,0.5,0.6,1.1,1,1.6c0.3,0.5,0.6,1,1,1.5c0.3,0.5,0.6,0.9,0.9,1.4c0.3,0.4,0.6,0.9,0.9,1.3
			c0.3,0.5,0.6,0.9,1,1.4c1,1.4,1.9,2.7,2.9,4c0.3,0.4,0.7,0.8,1,1.2c0.3,0.4,0.6,0.8,1,1.2c0.3,0.4,0.6,0.8,1,1.2
			c0.3,0.4,0.6,0.8,1,1.1c0.3,0.4,0.6,0.7,1,1.1c0.3,0.4,0.7,0.8,1,1.1c0.7,0.7,1.3,1.5,2,2.1c4.3,4.5,8.2,8,11.5,10.6
			c10.9,8.8,10.5,45.2,10.5,45.2c0.4,3.3,0.8,6.6,1.1,9.7c0.2,1.5,0.3,3,0.4,4.4c0.2,2.2,0.4,4.3,0.5,6.4c0.1,1.2,0.2,2.3,0.2,3.4
			c0,0.2,0,0.5,0,0.7c0,0.6,0.1,1.2,0.1,1.7c0,0.8,0.1,1.5,0.1,2.3c0,0.7,0.1,1.3,0.1,2c0,0.3,0,0.5,0,0.8c0,0.8,0.1,1.5,0.1,2.3
			c0,0.3,0,0.5,0,0.8c0,0.6,0,1.2,0,1.9c0,0.8,0,1.6,0,2.4C1081.9,1477.9,1081.9,1478.4,1081.9,1478.8"/>
		<path class="st63" d="M1062,525.4c5.8,18,1.9,27.9,1.9,27.9c10.9-0.7,17.2-19.6,17.2-19.6c-3.5-3.2-16.5-42,13-47
			c29.4-4.9,27.4,22.8,27.4,22.8c17.2,12.6,19.9-49.1,72.5-62.4c52.6-13.3,60.5,34,60.5,34c1.4-3.6,2.3-7.1,2.8-10.5
			c-3.3-8.4-21.5-46.9-69.2-28.4c-47.2,18.3-93.5,45.1-133.6,34.9C1054.2,492.8,1056.8,509.3,1062,525.4"/>
		<path class="st52" d="M1006.7,1261.4c0,0-9.7-5.3-35.6,7.7c-25.9,12.9-48.3,12.4-48.3,12.4l-2.7-3.9c36.4,2,80-33.2,80.8-33.9
			l5,15.5L1006.7,1261.4z"/>
		<path class="st52" d="M1166.4,1164.7c-3.9-0.2-7.9-0.5-11.9-0.8c0,0-12.7-0.1-31.7-0.1c-5.1,0-10.7,0-16.6,0.1c-1.1,0-2.2,0-3.2,0
			c0,0,32.1-13.8,39.3-30.7c7.2-17,18.4-48.2,18.4-48.2c1.4-0.5,2.8-0.9,4.2-1.4C1161.8,1102.4,1158.6,1135.7,1166.4,1164.7"/>
		<path class="st58" d="M1081.9,1478.8c0.3,40.6-9.7,59-21.6,69.9c-0.5,0.5-1,0.9-1.5,1.3c-3.8,3.2-7.6,5.8-11.4,8.2
			c-1,0.6-2,1.1-3,1.6c-20.9,9.8-61.8,1-67.8-10.4c-6.3-11.9,4.5-23.5,4.5-23.5c2.6-4.3,4.9-8.9,6.9-13.8c10-25,11.2-58.3,3.6-111.6
			c-0.3-1.8-0.7-3.7-1.3-5.8c24,15.4,54-27.7,54-27.7c0.3,0.4,0.6,0.9,0.9,1.3c0.3,0.5,0.6,0.9,1,1.4c1,1.4,1.9,2.7,2.9,4
			c0.3,0.4,0.7,0.8,1,1.2c0.3,0.4,0.6,0.8,1,1.2c0.3,0.4,0.6,0.8,1,1.2c0.3,0.4,0.6,0.8,1,1.1c0.3,0.4,0.6,0.7,1,1.1
			c0.3,0.4,0.7,0.8,1,1.1c0.7,0.7,1.3,1.5,2,2.1c4.3,4.5,8.2,8,11.5,10.6c10.9,8.8,10.5,45.2,10.5,45.2c0.4,3.3,0.8,6.6,1.1,9.7
			c0.2,1.5,0.3,3,0.4,4.4c0.2,2.2,0.4,4.3,0.5,6.4c0.1,1.2,0.2,2.3,0.2,3.4c0,0.2,0,0.5,0,0.7c0,0.6,0.1,1.2,0.1,1.7
			c0,0.8,0.1,1.5,0.1,2.3c0,0.7,0.1,1.3,0.1,2c0,0.3,0,0.5,0,0.8c0,0.8,0.1,1.5,0.1,2.3c0,0.3,0,0.5,0,0.8c0,0.6,0,1.2,0,1.9
			c0,0.8,0,1.6,0,2.4C1081.9,1477.9,1081.9,1478.4,1081.9,1478.8"/>
		<path class="st23" d="M3470.4,1609c-1.3-3.1-26.7-40.2-26.7-40.2l22-111L3470.4,1609z"/>
		<polygon class="st56" points="3396,1569.5 3443.7,1568.8 3465.7,1457.8 		"/>
		<polygon class="st49" points="3396,1569.5 3425.9,1538.7 3465.7,1457.8 		"/>
		<polygon class="st23" points="3425.9,1538.7 3395.7,1491.9 3465.7,1457.8 		"/>
		<g class="st64">
			<g>
				<defs>
					<rect id="SVGID_31_" x="23.4" y="1023.7" width="68.9" height="126.1"/>
				</defs>
				<clipPath id="SVGID_32_">
					<use xlink:href="#SVGID_31_"  style="overflow:visible;"/>
				</clipPath>
				<path class="st65" d="M23.4,1023.7c1.2,2.5,24.5,32.2,24.5,32.2l-12.3,93.9L23.4,1023.7z"/>
				<polygon class="st66" points="87.7,1052.6 47.9,1055.8 35.6,1149.8 				"/>
				<polygon class="st67" points="87.7,1052.6 64.5,1080 35.6,1149.8 				"/>
				<polygon class="st65" points="64.5,1080 92.3,1117.5 35.6,1149.8 				"/>
			</g>
		</g>
		<polyline class="st68" points="1557.3,1107.6 1557.3,822.6 1858.5,822.6 1858.5,890.7 		"/>
		<polyline class="st68" points="1707.9,1801.4 1340.8,1801.4 1340.8,1701.6 		"/>
		<path class="st18" d="M1741.4,727.3h-121.3c-29.1,0-52.9-23.8-52.9-52.9v-9.6c0-29.1,23.8-52.9,52.9-52.9h121.3
			c29.1,0,52.9,23.8,52.9,52.9v9.6C1794.3,703.5,1770.5,727.3,1741.4,727.3"/>
		<path class="st69" d="M1741.4,727.3h-121.3c-29.1,0-52.9-23.8-52.9-52.9v-9.6c0-29.1,23.8-52.9,52.9-52.9h121.3
			c29.1,0,52.9,23.8,52.9,52.9v9.6C1794.3,703.5,1770.5,727.3,1741.4,727.3z"/>
		<path class="st17" d="M1567.1,669.6c0-31.9,25.9-57.7,57.7-57.7c31.9,0,57.7,25.9,57.7,57.7c0,31.9-25.9,57.7-57.7,57.7
			C1593,727.3,1567.1,701.5,1567.1,669.6"/>
		<path class="st17" d="M939.2,1823.7h-292c-16.5,0-30-13.5-30-30v-18.5c0-16.5,13.5-30,30-30h292c16.5,0,30,13.5,30,30v18.5
			C969.3,1810.2,955.7,1823.7,939.2,1823.7"/>
		<polygon class="st18" points="658,1762.6 658,1806.4 694,1781.9 		"/>
		<rect x="711.4" y="1759.6" class="st18" width="4.8" height="52.8"/>
		<rect x="755.3" y="1762.1" class="st18" width="169.7" height="4.5"/>
		<rect x="755.3" y="1775.4" class="st18" width="169.7" height="4.5"/>
		<rect x="755.3" y="1788.6" class="st18" width="169.7" height="4.5"/>
		<rect x="755.3" y="1801.9" class="st18" width="107.5" height="4.5"/>
		<rect x="2.5" y="1271.7" class="st18" width="503.3" height="246.6"/>
		<rect x="2.5" y="1271.7" class="st68" width="503.3" height="246.6"/>
		<path class="st23" d="M218.6,1392c0.1,28.8-13.8,54.5-35.3,70.4c-3.1,2.3-6.5,4.5-9.9,6.4c-10.4,5.7-22,9.4-34.4,10.5
			c-2.5,0.2-5,0.3-7.6,0.3c-1.8,0-3.6,0-5.4-0.2c-12-0.7-23.4-3.8-33.6-8.9c-3.4-1.7-6.6-3.5-9.7-5.6
			c-23.4-15.6-38.9-42.3-38.9-72.5c-0.1-48.3,38.9-87.5,87.2-87.6S218.5,1343.7,218.6,1392"/>
		<path class="st70" d="M173.3,1468.8c0-2.9,0-5.9-0.3-8.9c-0.4-3.5-1.1-7-2.2-10.3c-1.9-5.3-5-9.6-10-12.4c-0.7-0.4-1.5-0.5-2-1.2
			c1.9,0.3,3.8,0.9,5.6,1.6c2,0.8,3.8,1.9,5.7,2.9c0.9,0.8,1.9,1.5,2.8,2.4c3.4,3,5.8,6.8,7.6,10.9c0.1,0.2,0.2,0.4,0.3,0.6
			c1,2.6,1.8,5.3,2.4,8.1C180.1,1464.8,176.8,1466.9,173.3,1468.8"/>
		<path class="st70" d="M104.5,1436.8c-0.1,0.4-0.4,0.4-0.6,0.6c-1.3,0.7-2.4,1.6-3.4,2.6c-3.2,3.2-5.1,7.1-6.3,11.4
			c-1.3,4.6-1.7,9.3-1.7,14c0,1.7,0,3.4,0.1,5.1c-3.4-1.7-6.6-3.5-9.7-5.6c0.5-3.4,1.4-6.8,2.7-10.1c0-0.1,0-0.2,0-0.3
			c1-2.2,2.1-4.4,3.4-6.4c1.8-2.7,4.1-5,6.7-7c0.1-0.1,0.3-0.2,0.4-0.3C98.6,1439.1,101.4,1437.7,104.5,1436.8"/>
		<path class="st16" d="M173.3,1468.8c-10.4,5.7-22,9.4-34.4,10.5c0-11.2-0.1-22.3-0.1-33.5c0-0.9,0-1.8,0-2.7
			c0.2-0.1,0.5-0.2,0.7-0.3c3.8-1.7,6.3-4.6,7.4-8.7c2,0.1,3.9,0.1,5.9,0.4c2.1,0.3,4,1.1,6,1.5c0.5,0.7,1.3,0.8,2,1.2
			c4.9,2.9,8.1,7.1,10,12.4c1.2,3.3,1.8,6.8,2.2,10.3C173.3,1462.9,173.4,1465.8,173.3,1468.8"/>
		<path class="st16" d="M125.9,1443.2c0,12.1,0.1,24.1,0.1,36.2c-12-0.7-23.4-3.8-33.6-8.9c-0.1-1.7-0.1-3.4-0.1-5.1
			c0-4.7,0.5-9.4,1.7-14c1.2-4.3,3.1-8.3,6.3-11.4c1-1,2.1-1.9,3.4-2.6c0.2-0.1,0.6-0.2,0.6-0.6c1-0.4,1.9-0.8,2.9-1.1
			c3.7-1.4,7.6-1.7,11.5-1.6c0.1,0.4,0.2,0.8,0.4,1.2c1.3,3.4,3.6,5.8,6.8,7.4C126,1442.9,125.9,1443.1,125.9,1443.2"/>
		<path class="st71" d="M139,1479.3c-2.5,0.2-5,0.3-7.6,0.3c-1.8,0-3.6,0-5.4-0.2c0-12.1-0.1-24.1-0.1-36.2c0-0.2,0-0.3,0-0.5
			c4.2,1.7,8.5,1.7,12.9,0.3c0,0.9,0,1.8,0,2.7C138.9,1456.9,138.9,1468.1,139,1479.3"/>
		<path class="st17" d="M118.8,1434.1c-3.9-0.1-7.8,0.2-11.5,1.6c-1,0.4-1.9,0.8-2.9,1.1c-3.1,0.8-5.8,2.2-8.4,4.1
			c-0.1,0.1-0.3,0.2-0.4,0.3c-0.1-5.5-0.3-11-0.3-16.5c-0.2-12.8-0.4-25.5-0.6-38.3c-0.1-7.7,0.7-15.3,3.3-22.7
			c2.7-7.7,6.9-14.3,13.6-19.1c4.9-3.5,10.5-5.5,16.5-6.2c7.4-0.8,14.5,0.1,21.3,3.2c4.6,2.1,8.3,5.4,11.3,9.5
			c6.4,8.6,9.1,18.3,9.8,28.8c0.5,7.6,0.2,15.1,0.1,22.7c-0.1,12.4-0.3,24.9-0.5,37.3c0,0.2,0,0.4,0,0.6c-1.8-1-3.7-2.2-5.7-2.9
			c-1.8-0.7-3.7-1.3-5.6-1.6c-2-0.4-4-1.2-6-1.5c-1.9-0.3-3.9-0.3-5.9-0.4c-1.1-4.5-1.4-9.1-0.5-13.7c0.1-0.5,0.3-0.9,0.7-1.2
			c2.6-2.3,4.8-4.9,6.7-7.7c2.9-4.3,5.1-9,6.8-13.9c0.1-0.3,0-0.7,0.5-0.7c1.9,0.2,3-0.9,4-2.3c1.3-1.8,2-3.8,2.5-6
			c0.6-2.8,0.7-5.6-0.3-8.4c-0.4-1-0.8-1.9-1.9-2.5c-0.1,0.7-0.1,1.3-0.2,2c-0.3,2.9-0.8,5.7-2.2,8.3c-0.8,1.6-1.9,3-3.6,3.8l0,0
			c-0.2-0.3,0-0.7,0.1-1c0.9-5.1,1.2-10.2,0.6-15.4c-0.4-3.3-1.2-6.4-2.9-9.2c-1-1.6-2.2-2.9-3.9-4c1.4,7.6,2.5,15.1,4.6,22.4
			c-0.2,0-0.4,0-0.5,0c-5,0.2-10-0.1-14.9-0.9c-5.9-0.9-11.6-2.4-16.8-5.3c-5.9-3.2-10.2-7.8-12-14.4c-0.6-2.1-0.8-4.2-0.9-6.4
			c-0.2,0.2-0.3,0.4-0.4,0.6c-1.8,3.8-3.3,7.7-4.5,11.7c-1,3.4-1.9,6.8-2.3,10.3c-0.5,4-0.5,7.9,1.1,11.8c-4.9-3.3-6.4-8.3-6.9-13.9
			c-1.1,0.8-1.6,1.9-1.9,3c-0.9,3.5-0.5,6.9,0.7,10.2c0.6,1.7,1.4,3.2,2.6,4.5c0.8,0.8,1.8,1.5,3,1.2c0.5-0.1,0.7,0,0.9,0.5
			c0.5,1.8,1.2,3.5,2,5.2c2.8,6.2,6.3,11.8,11.4,16.3c0.6,0.5,0.9,1,1,1.8C119.8,1425.3,119.4,1429.7,118.8,1434.1"/>
		<path class="st51" d="M159.4,1391.7c1.8-0.7,2.8-2.2,3.6-3.8c1.4-2.6,1.9-5.4,2.2-8.3c0.1-0.6,0.1-1.3,0.2-2
			c1.1,0.6,1.6,1.5,1.9,2.5c1,2.8,0.9,5.6,0.3,8.4c-0.4,2.1-1.2,4.2-2.5,6c-1,1.3-2.1,2.5-4,2.3c-0.5-0.1-0.4,0.4-0.5,0.7
			c-1.7,4.9-3.9,9.6-6.8,13.9c-1.9,2.8-4.1,5.5-6.7,7.7c-0.4,0.3-0.6,0.7-0.7,1.2c-0.9,4.6-0.7,9.1,0.5,13.7
			c-1.1,4.1-3.6,6.9-7.4,8.7c-0.2,0.1-0.5,0.2-0.7,0.3c-4.3,1.4-8.6,1.4-12.9-0.3c-3.3-1.6-5.6-4-6.8-7.4c-0.1-0.4-0.2-0.8-0.4-1.2
			c0.7-4.4,1-8.8,0.4-13.3c-0.1-0.7-0.4-1.3-1-1.8c-5.1-4.5-8.7-10.1-11.4-16.3c-0.8-1.7-1.5-3.5-2-5.2c-0.1-0.5-0.3-0.6-0.9-0.5
			c-1.3,0.3-2.2-0.4-3-1.2c-1.3-1.3-2.1-2.8-2.6-4.5c-1.1-3.3-1.6-6.7-0.7-10.2c0.3-1.1,0.8-2.2,1.9-3c0.5,5.6,2,10.6,6.9,13.9
			c-1.6-3.8-1.6-7.8-1.1-11.8c0.4-3.5,1.3-6.9,2.3-10.3c1.2-4,2.8-7.9,4.5-11.7c0.1-0.2,0.2-0.4,0.4-0.6c0.1,2.2,0.4,4.3,0.9,6.4
			c1.8,6.6,6.2,11.2,12,14.4c5.2,2.9,10.9,4.4,16.8,5.3c4.9,0.8,9.9,1.1,14.9,0.9c0.1,0,0.3,0,0.5,0c-2-7.3-3.2-14.8-4.6-22.4
			c1.7,1.1,2.9,2.4,3.9,4c1.7,2.8,2.5,6,2.9,9.2c0.6,5.2,0.3,10.3-0.6,15.4C159.4,1391.1,159.2,1391.4,159.4,1391.7
			C159.4,1391.8,159.3,1391.8,159.4,1391.7C159.3,1391.8,159.4,1391.8,159.4,1391.7C159.4,1391.8,159.4,1391.8,159.4,1391.7"/>
		<path class="st72" d="M159.4,1391.7C159.4,1391.8,159.4,1391.8,159.4,1391.7C159.4,1391.8,159.3,1391.8,159.4,1391.7
			C159.3,1391.8,159.4,1391.8,159.4,1391.7L159.4,1391.7z"/>
		<line class="st18" x1="246" y1="1296.5" x2="246" y2="1494.7"/>
		<line class="st68" x1="246" y1="1296.5" x2="246" y2="1494.7"/>
		<line class="st18" x1="277.7" y1="1341.8" x2="480.7" y2="1341.8"/>
		<line class="st68" x1="277.7" y1="1341.8" x2="480.7" y2="1341.8"/>
		<line class="st18" x1="277.7" y1="1361.5" x2="352.3" y2="1361.5"/>
		<line class="st68" x1="277.7" y1="1361.5" x2="352.3" y2="1361.5"/>
		<line class="st18" x1="277.7" y1="1381.1" x2="480.7" y2="1381.1"/>
		<line class="st68" x1="277.7" y1="1381.1" x2="480.7" y2="1381.1"/>
		<line class="st18" x1="277.7" y1="1400.8" x2="320.4" y2="1400.8"/>
		<line class="st68" x1="277.7" y1="1400.8" x2="320.4" y2="1400.8"/>
		<line class="st18" x1="333.4" y1="1400.8" x2="480.7" y2="1400.8"/>
		<line class="st68" x1="333.4" y1="1400.8" x2="480.7" y2="1400.8"/>
		<line class="st18" x1="277.7" y1="1420.4" x2="480.7" y2="1420.4"/>
		<line class="st68" x1="277.7" y1="1420.4" x2="480.7" y2="1420.4"/>
		<line class="st18" x1="277.7" y1="1440.1" x2="480.7" y2="1440.1"/>
		<line class="st68" x1="277.7" y1="1440.1" x2="480.7" y2="1440.1"/>
		<line class="st18" x1="277.7" y1="1459.7" x2="480.7" y2="1459.7"/>
		<line class="st68" x1="277.7" y1="1459.7" x2="480.7" y2="1459.7"/>
		<line class="st18" x1="376.2" y1="1361.5" x2="480.7" y2="1361.5"/>
		<line class="st68" x1="376.2" y1="1361.5" x2="480.7" y2="1361.5"/>
	</g>
</g>
</svg>
