<?xml version="1.0" encoding="utf-8"?>
<!-- Generator: Adobe Illustrator 21.1.0, SVG Export Plug-In . SVG Version: 6.00 Build 0)  -->
<svg version="1.1" id="Слой_1" xmlns="http://www.w3.org/2000/svg" xmlns:xlink="http://www.w3.org/1999/xlink" x="0px" y="0px"
	 viewBox="0 0 2937.2 2400" style="enable-background:new 0 0 2937.2 2400;" xml:space="preserve">
<style type="text/css">
	.st0{clip-path:url(#SVGID_2_);}
	.st1{clip-path:url(#SVGID_4_);fill:#F3F6FC;}
	.st2{clip-path:url(#SVGID_4_);fill:#8FC0FA;}
	.st3{clip-path:url(#SVGID_4_);fill:#FFFFFF;}
	.st4{clip-path:url(#SVGID_4_);fill:#C7DEFE;}
	.st5{clip-path:url(#SVGID_4_);fill:#4E95E5;}
	.st6{clip-path:url(#SVGID_6_);fill:#F3F6FC;}
	.st7{clip-path:url(#SVGID_6_);fill:#4E95E5;}
	.st8{clip-path:url(#SVGID_6_);fill:#8FC0FA;}
	.st9{clip-path:url(#SVGID_6_);fill:#C7DEFE;}
	.st10{clip-path:url(#SVGID_8_);fill:#8FC0FA;}
	.st11{clip-path:url(#SVGID_8_);fill:#FFFFFF;}
	.st12{clip-path:url(#SVGID_8_);fill:#2946FB;}
	.st13{opacity:0.37;clip-path:url(#SVGID_8_);}
	.st14{clip-path:url(#SVGID_10_);fill:#FFFFFF;}
	.st15{clip-path:url(#SVGID_12_);fill:#FFFFFF;}
	.st16{clip-path:url(#SVGID_8_);fill:#3F1C1C;}
	.st17{clip-path:url(#SVGID_8_);fill:#FAD08C;}
	.st18{clip-path:url(#SVGID_8_);fill:#F3A05C;}
	.st19{clip-path:url(#SVGID_8_);fill:#553130;}
	.st20{opacity:0.61;clip-path:url(#SVGID_8_);}
	.st21{clip-path:url(#SVGID_14_);fill:#F3A05C;}
	.st22{clip-path:url(#SVGID_8_);fill-rule:evenodd;clip-rule:evenodd;fill:#000F5B;}
	.st23{clip-path:url(#SVGID_8_);fill:#F8C799;}
	.st24{clip-path:url(#SVGID_8_);fill:#A7452D;}
	.st25{clip-path:url(#SVGID_8_);fill-rule:evenodd;clip-rule:evenodd;fill:#D8212A;}
	.st26{clip-path:url(#SVGID_8_);fill-rule:evenodd;clip-rule:evenodd;fill:#CA1017;}
	.st27{clip-path:url(#SVGID_8_);fill-rule:evenodd;clip-rule:evenodd;fill:#E33031;}
	.st28{clip-path:url(#SVGID_8_);fill:#F8BC40;}
	.st29{clip-path:url(#SVGID_8_);fill:#F6A538;}
	.st30{clip-path:url(#SVGID_8_);fill-rule:evenodd;clip-rule:evenodd;fill:#A3C5F7;}
	.st31{clip-path:url(#SVGID_8_);fill-rule:evenodd;clip-rule:evenodd;fill:#4E95E5;}
	.st32{clip-path:url(#SVGID_16_);fill:#F3A05C;}
	.st33{clip-path:url(#SVGID_18_);fill:#A55921;}
	.st34{clip-path:url(#SVGID_20_);fill:#A55921;}
	.st35{clip-path:url(#SVGID_22_);fill:#A55921;}
	.st36{clip-path:url(#SVGID_8_);fill:#1A2982;}
	.st37{clip-path:url(#SVGID_8_);fill:#EFF3F6;}
	.st38{clip-path:url(#SVGID_8_);fill:#397CF2;}
	.st39{clip-path:url(#SVGID_8_);fill:#C7DEFE;}
	.st40{clip-path:url(#SVGID_8_);fill-rule:evenodd;clip-rule:evenodd;fill:#16247F;}
	.st41{clip-path:url(#SVGID_8_);fill-rule:evenodd;clip-rule:evenodd;fill:#99BFF5;}
	.st42{clip-path:url(#SVGID_8_);fill-rule:evenodd;clip-rule:evenodd;fill:#397CF2;}
	.st43{opacity:0.28;clip-path:url(#SVGID_8_);}
	.st44{clip-path:url(#SVGID_24_);fill:#8FC0FA;}
	.st45{clip-path:url(#SVGID_8_);fill:#1F2A83;}
	.st46{clip-path:url(#SVGID_26_);fill:#8FC0FA;}
	.st47{clip-path:url(#SVGID_8_);fill:#F95F35;}
	.st48{clip-path:url(#SVGID_8_);fill:#DB3737;}
	.st49{clip-path:url(#SVGID_8_);fill:#BA1717;}
	.st50{opacity:0.23;clip-path:url(#SVGID_8_);}
	.st51{clip-path:url(#SVGID_28_);fill:#C7DEFE;}
	.st52{opacity:0.2;clip-path:url(#SVGID_8_);}
	.st53{clip-path:url(#SVGID_30_);fill:#D92150;}
	.st54{clip-path:url(#SVGID_32_);fill:#4A0659;}
	.st55{clip-path:url(#SVGID_34_);fill:#4A0659;}
	.st56{clip-path:url(#SVGID_8_);fill:#003E61;}
	.st57{clip-path:url(#SVGID_8_);fill:#D30F00;}
	.st58{clip-path:url(#SVGID_36_);fill:#003E61;}
	.st59{clip-path:url(#SVGID_8_);fill:none;stroke:#20288A;stroke-width:8;stroke-miterlimit:10;}
	.st60{clip-path:url(#SVGID_38_);fill:#8FC0FA;}
</style>
<g>
	<defs>
		<rect id="SVGID_1_" width="2937.2" height="2400"/>
	</defs>
	<clipPath id="SVGID_2_">
		<use xlink:href="#SVGID_1_"  style="overflow:visible;"/>
	</clipPath>
	<g class="st0">
		<defs>
			<rect id="SVGID_3_" width="2937.2" height="2400"/>
		</defs>
		<clipPath id="SVGID_4_">
			<use xlink:href="#SVGID_3_"  style="overflow:visible;"/>
		</clipPath>
		<path class="st1" d="M2781.7,963.6c-3.2,29.8-7.7,60.2-13.6,91.4c-1.4,7.3-2.8,14.6-4.3,21.9c-1,4.8-2,9.6-3.1,14.4
			c-28.8,131.7-81.9,275.3-164.6,430.6c-13,24.4-26.7,49.1-41.2,74.1c-4.6,8-9.3,16-14.1,24c-1,1.7-2,3.4-3.1,5.2
			c-56.8,95.1-117.5,178.8-181.2,251.8c-1.1,1.3-2.3,2.6-3.4,3.9c-2.7,3.1-5.5,6.2-8.2,9.3c-1.2,1.3-2.3,2.6-3.5,3.9
			c-2.9,3.3-5.9,6.5-8.9,9.7c-2.9,3.2-5.9,6.4-8.9,9.6c-1.2,1.2-2.3,2.5-3.5,3.7c-1.1,1.1-2.1,2.3-3.2,3.4c-1.2,1.3-2.5,2.6-3.7,3.9
			c-1,1-2,2.1-3,3.1c-1.2,1.3-2.5,2.6-3.7,3.9c-1.7,1.8-3.5,3.6-5.2,5.4c-2.1,2.1-4.1,4.2-6.2,6.3c-1.4,1.5-2.9,2.9-4.3,4.4
			c-8.5,8.6-17.1,16.9-25.7,25.1c-1.4,1.3-2.7,2.6-4.1,3.8c-9.6,9.1-19.3,17.9-29,26.6c-1.7,1.5-3.5,3.1-5.2,4.6
			c-2.1,1.9-4.2,3.7-6.4,5.6c-1.5,1.3-3,2.6-4.4,3.8c-1.6,1.4-3.1,2.7-4.7,4c-5.8,4.9-11.6,9.8-17.4,14.6c-1.5,1.2-3,2.5-4.5,3.7
			c-2.1,1.7-4.2,3.4-6.3,5.1c-1.7,1.4-3.4,2.8-5.2,4.1c-5.5,4.4-11,8.7-16.5,12.9c-1.8,1.4-3.7,2.8-5.5,4.2c-1.5,1.1-3,2.3-4.4,3.4
			c-7.2,5.4-14.5,10.8-21.7,16c-1.5,1.1-2.9,2.1-4.4,3.2c-9.7,6.9-19.4,13.6-29.2,20.1c-1.3,0.9-2.6,1.8-4,2.7
			c-2.9,2-5.9,3.9-8.9,5.8c-1.9,1.2-3.8,2.4-5.6,3.6c-1.9,1.2-3.8,2.4-5.6,3.6c-1.6,1-3.2,2.1-4.9,3.1c-3.2,2-6.5,4-9.7,6
			c-2.7,1.7-5.4,3.3-8.1,4.9c-0.1,0.1-0.2,0.2-0.4,0.2c-1.2,0.7-2.3,1.4-3.5,2.1c-2.5,1.5-5,3-7.5,4.5c-2.5,1.5-5.1,3-7.6,4.4
			c-1.2,0.7-2.5,1.4-3.8,2.2c-0.5,0.3-1,0.6-1.5,0.8c-2.1,1.2-4.2,2.4-6.3,3.6c-0.3,0.2-0.6,0.4-1,0.5c-2.8,1.6-5.6,3.1-8.4,4.7
			c-3.6,1.9-7.1,3.9-10.7,5.8c-3.2,1.7-6.5,3.4-9.7,5.1c-0.9,0.5-1.7,0.9-2.6,1.3c-2.5,1.3-4.9,2.5-7.4,3.8c0,0-0.1,0.1-0.2,0.1
			c-3.3,1.7-6.5,3.3-9.8,4.9c0,0,0,0,0,0c-2.8,1.4-5.6,2.8-8.4,4.1c-1,0.5-2.1,1-3.1,1.5c-1.9,0.9-3.9,1.9-5.9,2.8
			c-1.3,0.6-2.6,1.2-3.8,1.8c-2.6,1.2-5.2,2.4-7.8,3.6c-7.2,3.3-14.4,6.5-21.6,9.7c-2.5,1.1-5,2.2-7.5,3.2c0,0,0,0-0.1,0
			c-1.3,0.6-2.6,1.1-3.9,1.7c-2.6,1.1-5.1,2.2-7.7,3.2c-2.9,1.2-5.9,2.4-8.8,3.6c-1,0.4-2,0.8-3,1.2c-0.9,0.4-1.8,0.7-2.6,1
			c-1.5,0.6-3.1,1.2-4.6,1.8c-5.8,2.3-11.7,4.5-17.6,6.7c-1.4,0.5-2.8,1-4.3,1.6c-0.4,0.1-0.8,0.3-1.2,0.4c-2.7,1-5.4,2-8.1,2.9
			c-3.3,1.2-6.6,2.3-9.8,3.4c-5.6,1.9-11.3,3.8-17,5.7c-1.7,0.5-3.3,1.1-5,1.6c-0.1,0-0.1,0-0.2,0.1c-2.8,0.9-5.6,1.8-8.5,2.7
			c-2.3,0.7-4.7,1.4-7,2.1c-0.8,0.2-1.5,0.5-2.3,0.7c-0.3,0.1-0.6,0.2-0.8,0.2c-1.4,0.4-2.9,0.9-4.3,1.3c-5.6,1.7-11.2,3.3-16.9,4.8
			c-2.2,0.6-4.5,1.3-6.8,1.9c-0.3,0.1-0.6,0.2-0.9,0.2c-1.7,0.5-3.4,0.9-5.1,1.4c-0.7,0.2-1.4,0.4-2.1,0.6c0,0,0,0,0,0
			c-3.3,0.9-6.6,1.7-9.9,2.5c-0.4,0.1-0.8,0.2-1.2,0.3c-1.7,0.4-3.5,0.9-5.2,1.3c-2,0.5-4.1,1-6.2,1.5c-1.4,0.3-2.7,0.7-4.1,1
			c-2.1,0.5-4.2,1-6.3,1.5c-1.6,0.4-3.1,0.7-4.7,1.1c-2.5,0.6-5.1,1.1-7.7,1.7c-2.8,0.6-5.7,1.2-8.6,1.8c-1.3,0.3-2.6,0.5-3.8,0.8
			c-2.7,0.6-5.5,1.1-8.3,1.6c-3.1,0.6-6.1,1.2-9.2,1.8c-2.5,0.5-5.1,0.9-7.6,1.4c-1.8,0.3-3.5,0.6-5.3,0.9c-3.3,0.6-6.5,1.1-9.8,1.7
			c-2.6,0.4-5.2,0.8-7.8,1.3c-0.8,0.1-1.7,0.3-2.6,0.4c-3,0.5-5.9,0.9-8.9,1.3c-3,0.4-5.9,0.9-8.9,1.3c-1.8,0.3-3.6,0.5-5.4,0.7
			c-1.9,0.3-3.8,0.5-5.7,0.7c-7,0.9-14.1,1.7-21.1,2.5c-2.1,0.2-4.3,0.5-6.5,0.7c-1.8,0.2-3.5,0.4-5.3,0.5c-1.7,0.2-3.4,0.3-5.2,0.5
			c-1.7,0.2-3.4,0.3-5.2,0.5c-2.2,0.2-4.5,0.4-6.7,0.6c-1.3,0.1-2.7,0.2-4.1,0.3c-2.6,0.2-5.1,0.4-7.7,0.6c-0.2,0-0.5,0-0.7,0
			c-3.2,0.2-6.5,0.4-9.7,0.6c-6.8,0.4-13.7,0.8-20.5,1c-3.3,0.1-6.7,0.3-10,0.4c-0.1,0-0.2,0-0.3,0c-2.7,0.1-5.3,0.2-8,0.2
			c-1.2,0.1-2.5,0.1-3.7,0.1c-2.7,0.1-5.5,0.1-8.2,0.2c-0.4,0-0.7,0-1.1,0c-3.2,0.1-6.4,0.1-9.6,0.1c-6.8,0-13.6,0-20.4-0.1
			c-3.4,0-6.9-0.1-10.3-0.2c-3.4-0.1-6.8-0.2-10.2-0.3c-2.6-0.1-5.2-0.2-7.8-0.3c-1.6-0.1-3.3-0.1-4.9-0.2c-1.7-0.1-3.4-0.1-5.2-0.2
			c-1.8-0.1-3.5-0.1-5.2-0.3c-2.2-0.1-4.4-0.2-6.5-0.4c-1,0-1.9-0.1-2.8-0.2c-2.8-0.2-5.5-0.3-8.3-0.5c-6.8-0.4-13.6-1-20.3-1.5
			c-3.4-0.3-6.8-0.6-10.2-0.9c-2.8-0.3-5.6-0.5-8.4-0.8c-1-0.1-2.1-0.2-3.1-0.3c-2.8-0.3-5.6-0.6-8.3-0.9c-0.4,0-0.8-0.1-1.2-0.1
			c-2.9-0.3-5.7-0.6-8.6-1c-1.3-0.1-2.6-0.3-3.8-0.5c-2.3-0.3-4.5-0.5-6.8-0.8c-0.7-0.1-1.4-0.2-2.1-0.3c-4.1-0.5-8.1-1.1-12.2-1.6
			c-4.1-0.6-8.1-1.2-12.2-1.8l0,0c-6.1-0.9-12.2-1.9-18.2-2.9c-2-0.3-4.1-0.7-6.1-1c-6.7-1.1-13.4-2.3-20.1-3.6
			c-0.5-0.1-1-0.2-1.5-0.3c-9.5-1.8-19-3.7-28.5-5.7c-6.6-1.4-13.3-2.9-19.9-4.4c-3.3-0.8-6.6-1.5-9.9-2.3
			c-9.9-2.4-19.8-4.9-29.6-7.4c-3.3-0.9-6.6-1.8-9.8-2.6c-3.3-0.9-6.6-1.8-9.8-2.7c-3.3-0.9-6.5-1.9-9.8-2.8
			c-3.2-0.9-6.3-1.8-9.5-2.8c-0.2-0.1-0.4-0.1-0.6-0.2c-9.3-2.8-18.6-5.7-27.8-8.6c-3.6-1.2-7.1-2.3-10.7-3.5
			c-2.1-0.7-4.3-1.4-6.4-2.2c-2.2-0.7-4.3-1.4-6.4-2.2c-2-0.7-4-1.4-6.1-2.1c-0.4-0.1-0.7-0.2-1.1-0.4c-3.5-1.2-7-2.5-10.5-3.7
			c-0.9-0.3-1.8-0.6-2.7-1c-1.8-0.6-3.5-1.3-5.3-1.9c-2.3-0.9-4.7-1.7-7-2.6c-1.8-0.7-3.7-1.4-5.5-2.1c-3.3-1.2-6.5-2.5-9.8-3.7
			c-3.2-1.2-6.3-2.5-9.5-3.7c-2.2-0.9-4.4-1.7-6.5-2.6c-1.7-0.7-3.4-1.4-5-2c-2.5-1-4.9-2-7.4-3c-1-0.4-2-0.8-3-1.2c0,0,0,0,0,0
			c-0.2-0.1-0.3-0.1-0.5-0.2c-3.5-1.5-7-2.9-10.5-4.4c-0.1,0-0.2-0.1-0.4-0.2c-7.2-3.1-14.4-6.2-21.6-9.4c-3.6-1.6-7.3-3.2-10.9-4.9
			c-3.1-1.4-6.2-2.8-9.3-4.3c0,0-0.1,0-0.1,0c-1.1-0.5-2.2-1-3.3-1.6c-3-1.4-5.9-2.8-8.9-4.2c0,0,0,0,0,0c-3.1-1.5-6.2-3-9.3-4.5
			c-1.1-0.5-2.3-1.1-3.4-1.6c-2.4-1.1-4.7-2.3-7.1-3.5c-1.6-0.8-3.1-1.5-4.7-2.3c-3.1-1.5-6.1-3-9.1-4.6c-3-1.5-6.1-3.1-9.1-4.7
			c-2.9-1.5-5.9-3.1-8.8-4.6c-0.5-0.3-1.1-0.6-1.6-0.8c-0.1,0-0.1-0.1-0.1-0.1c-19.8-10.5-39.3-21.4-58.6-32.8l0,0
			c-2.3-1.3-4.6-2.7-6.8-4.1c-322.1-192.4-567-508-626-843.5C44.1,380.4,556.8,62.8,862.7,109.9c234.7,36.1,538.3,20,538.3,20
			c140.5-4.9,304.7-84.4,304.7-84.4c155.4-74.5,396-57.4,610.9,50.2l0,0C2594.2,234.7,2828.9,524.8,2781.7,963.6"/>
		<path class="st2" d="M1951.5,343.5c-3.7-3.1-7.5-6.1-11.2-9.1l5.9-7.5c3.8,3,7.6,6.1,11.3,9.2L1951.5,343.5z"/>
		<path class="st2" d="M1602.4,1951.7c-5.6,1.3-11.3,2.6-17,3.8l-2.2-9.4c5.6-1.2,11.2-2.5,16.8-3.8c3.6-0.8,7.2-1.7,10.8-2.6
			l2.5,9.3C1609.7,1949.9,1606,1950.8,1602.4,1951.7 M1641,1941.7l-2.8-9.2c9.1-2.6,18.1-5.3,27.2-8.1l3,9.2
			C1659.3,1936.3,1650.2,1939.1,1641,1941.7 M1557.2,1961.1c-9.4,1.7-18.8,3.3-28.3,4.7l-1.6-9.5c9.4-1.4,18.7-3,28-4.7
			L1557.2,1961.1z M1695.6,1924.4l-3.3-9.1c8.9-3.1,17.8-6.4,26.6-9.8l3.6,9C1713.6,1917.9,1704.6,1921.2,1695.6,1924.4
			 M1500.5,1969.7c-9.5,1.1-19,2.1-28.6,3l-1-9.6c9.4-0.8,18.9-1.8,28.3-3L1500.5,1969.7z M1749,1903.8l-3.9-8.9
			c8.7-3.7,17.3-7.5,25.9-11.4l4.1,8.7C1766.5,1896.2,1757.8,1900.1,1749,1903.8 M1443.2,1974.8c-9.6,0.6-19.1,1-28.7,1.2l-0.4-9.6
			c9.5-0.3,19-0.7,28.4-1.2L1443.2,1974.8z M1801,1879.8l-4.4-8.6c8.4-4.2,16.8-8.6,25.1-13l4.7,8.5
			C1817.9,1871.2,1809.5,1875.6,1801,1879.8 M1385.7,1976.4c-9.6,0-19.2-0.2-28.8-0.6l0.2-9.6c9.5,0.3,19,0.5,28.5,0.6
			L1385.7,1976.4z M1851.3,1852.7l-4.9-8.3c8.1-4.7,16.2-9.6,24.2-14.6l5.2,8.2C1867.6,1843,1859.5,1847.9,1851.3,1852.7
			 M1328.2,1974.4c-9.6-0.6-19.2-1.4-28.7-2.3l0.8-9.6c9.5,0.9,18.9,1.7,28.4,2.3L1328.2,1974.4z M1899.7,1822.4l-5.4-8
			c7.8-5.2,15.6-10.6,23.2-16.1l5.7,7.8C1915.5,1811.7,1907.6,1817.1,1899.7,1822.4 M1270.8,1968.8c-9.5-1.2-19-2.6-28.5-4.1
			l1.3-9.5c9.4,1.5,18.8,2.8,28.2,4.1L1270.8,1968.8z M1946.2,1789.1l-5.9-7.7c7.5-5.7,14.9-11.6,22.2-17.5l6.2,7.5
			C1961.2,1777.4,1953.7,1783.3,1946.2,1789.1 M1213.9,1959.7c-9.4-1.8-18.9-3.8-28.3-5.9l1.9-9.4c9.3,2.1,18.6,4,28,5.8
			L1213.9,1959.7z M1990.4,1753l-6.4-7.3c7.1-6.2,14.1-12.5,21-18.9l6.6,7.1C2004.6,1740.3,1997.5,1746.7,1990.4,1753
			 M1157.6,1947.2c-9.3-2.4-18.6-4.9-27.9-7.6l2.5-9.2c9.2,2.6,18.4,5.2,27.6,7.5L1157.6,1947.2z M2032.2,1714.1l-6.8-6.9
			c6.7-6.6,13.3-13.3,19.8-20.2l7,6.7C2045.6,1700.6,2038.9,1707.4,2032.2,1714.1 M1102.1,1931.1c-9.1-3-18.3-6.1-27.4-9.3l3.1-9
			c9,3.2,18,6.3,27.1,9.2L1102.1,1931.1z M2071.5,1672.6l-7.2-6.5c6.2-7,12.4-14.2,18.5-21.4l7.4,6.2
			C2084,1658.3,2077.8,1665.5,2071.5,1672.6 M1047.6,1911.7c-8.9-3.5-17.9-7.2-26.7-11l3.7-8.8c8.8,3.8,17.6,7.4,26.5,10.9
			L1047.6,1911.7z M2108.2,1628.8l-7.6-6c5.8-7.4,11.5-14.9,17.1-22.5l7.8,5.8C2119.8,1613.7,2114,1621.3,2108.2,1628.8
			 M994.5,1888.9c-8.7-4.1-17.4-8.3-26-12.6l4.2-8.6c8.5,4.3,17.1,8.5,25.8,12.5L994.5,1888.9z M2142,1582.8l-7.9-5.5
			c5.4-7.8,10.6-15.6,15.7-23.5l8.1,5.3C2152.7,1567.1,2147.4,1575,2142,1582.8 M942.8,1862.9c-8.5-4.6-16.9-9.3-25.2-14.2l4.7-8.3
			c8.3,4.8,16.6,9.5,24.9,14L942.8,1862.9z M2172.9,1534.8l-8.3-5c4.9-8.1,9.6-16.3,14.2-24.5l8.4,4.8
			C2182.6,1518.4,2177.8,1526.7,2172.9,1534.8 M892.8,1833.7c-8.2-5.1-16.3-10.4-24.4-15.7l5.2-8c8,5.3,16,10.5,24.1,15.6
			L892.8,1833.7z M2200.7,1485l-8.5-4.5c4.3-8.4,8.5-16.8,12.6-25.3l8.7,4.3C2209.3,1468,2205.1,1476.6,2200.7,1485 M844.5,1801.5
			c-7.9-5.6-15.6-11.3-23.4-17.2l5.7-7.6c7.7,5.8,15.4,11.5,23.1,17L844.5,1801.5z M2225.3,1433.5l-8.8-4c3.8-8.6,7.4-17.3,11-26
			l8.9,3.7C2232.8,1416.1,2229.1,1424.8,2225.3,1433.5 M798.3,1766.4c-7.6-6.1-15-12.3-22.3-18.6l6.2-7.2
			c7.3,6.2,14.6,12.4,22.1,18.4L798.3,1766.4z M2246.6,1380.6l-9-3.4c3.2-8.9,6.4-17.8,9.3-26.7l9.1,3.2
			C2253,1362.6,2249.9,1371.6,2246.6,1380.6 M754.1,1728.6c-7.2-6.5-14.2-13.2-21.2-19.9l6.6-6.8c6.9,6.7,13.9,13.2,21,19.7
			L754.1,1728.6z M2264.6,1326.3l-9.2-2.9c2.7-9.1,5.2-18.2,7.6-27.3l9.3,2.6C2269.9,1308,2267.3,1317.1,2264.6,1326.3
			 M712.4,1688.2c-6.8-7-13.4-14-19.9-21.1l7-6.4c6.4,7.1,13,14,19.7,20.9L712.4,1688.2z M2279.1,1270.9l-9.4-2.3
			c2.1-9.2,4.1-18.5,5.9-27.7l9.4,2C2283.3,1252.3,2281.3,1261.6,2279.1,1270.9 M673.2,1645.3c-6.3-7.4-12.5-14.8-18.6-22.3l7.4-6
			c6,7.4,12.1,14.8,18.4,22.1L673.2,1645.3z M2290.2,1214.7l-9.5-1.7c1.5-9.3,2.9-18.7,4.2-28.1l9.5,1.4
			C2293.1,1195.8,2291.7,1205.3,2290.2,1214.7 M636.7,1600.1c-5.9-7.7-11.6-15.5-17.2-23.4l7.8-5.5c5.5,7.8,11.2,15.5,17,23.2
			L636.7,1600.1z M2297.7,1157.8l-9.6-1.1c1-9.4,1.8-18.9,2.4-28.3l9.6,0.8C2299.5,1138.8,2298.7,1148.3,2297.7,1157.8
			 M603.1,1552.7c-5.4-8.1-10.6-16.2-15.7-24.4l8.1-5c5,8.1,10.2,16.2,15.5,24.2L603.1,1552.7z M2301.7,1100.5l-9.6-0.5
			c0.4-9.5,0.6-19,0.7-28.4l9.6,0.2C2302.3,1081.3,2302.1,1090.9,2301.7,1100.5 M572.4,1503.4c-4.9-8.4-9.6-16.8-14.2-25.3l8.4-4.4
			c4.5,8.4,9.2,16.8,14,25L572.4,1503.4z M2302.1,1043l-9.6,0c-0.2-9.5-0.6-19-1.1-28.5l9.6-0.4
			C2301.5,1023.8,2301.9,1033.4,2302.1,1043 M544.9,1452.4c-4.3-8.7-8.5-17.4-12.6-26.1l8.7-3.9c4,8.7,8.2,17.3,12.4,25.8
			L544.9,1452.4z M2299,985.5l-9.6,0.7c-0.8-9.5-1.8-18.9-2.9-28.4l9.5-0.9C2297.2,966.3,2298.2,975.9,2299,985.5 M520.5,1399.8
			c-3.8-8.9-7.4-17.8-10.9-26.8l8.9-3.4c3.5,8.9,7.1,17.7,10.8,26.5L520.5,1399.8z M2292.4,928.2l-9.5,1.2
			c-1.4-9.4-2.9-18.8-4.6-28.2l9.5-1.5C2289.4,909.2,2291,918.7,2292.4,928.2 M499.5,1345.9c-3.2-9.1-6.3-18.2-9.3-27.4l9.1-2.8
			c2.9,9.1,6,18.1,9.2,27.1L499.5,1345.9z M2282.2,871.4l-9.4,1.8c-2-9.3-4.1-18.6-6.3-27.9l9.3-2.1
			C2278.1,852.6,2280.2,862,2282.2,871.4 M481.8,1290.8c-2.7-9.3-5.2-18.6-7.6-27.9l9.3-2.2c2.3,9.2,4.8,18.4,7.5,27.6L481.8,1290.8
			z M2259.3,817.6c-2.5-9.2-5.2-18.3-8-27.5l9.2-2.7c2.8,9.2,5.5,18.5,8.1,27.8L2259.3,817.6z M476.9,1232.8l-9.4,1.9
			c-2.1-9.4-4-18.8-5.8-28.3l9.4-1.6C472.9,1214.2,474.8,1223.5,476.9,1232.8 M2242.4,762.9c-3.1-9-6.3-18-9.7-27l9-3.2
			c3.4,9,6.7,18.1,9.8,27.2L2242.4,762.9z M466.2,1176.7l-9.5,1.3c-1.5-9.5-2.9-19-4.1-28.6l9.5-1
			C463.4,1157.9,464.7,1167.3,466.2,1176.7 M2222.2,709.3c-3.6-8.8-7.4-17.6-11.3-26.3l8.8-3.8c4,8.8,7.8,17.7,11.5,26.6
			L2222.2,709.3z M459,1120.1l-9.6,0.8c-0.9-9.6-1.7-19.1-2.3-28.7l9.6-0.5C457.3,1101.1,458.1,1110.6,459,1120.1 M2198.7,657
			c-4.2-8.6-8.5-17.1-12.9-25.6l8.5-4.4c4.5,8.6,8.9,17.2,13.1,25.9L2198.7,657z M455.2,1063.2l-9.6,0.2c-0.3-9.6-0.5-19.2-0.6-28.8
			l9.6,0.1C454.7,1044.2,454.9,1053.7,455.2,1063.2 M2172,606.2c-4.7-8.3-9.5-16.6-14.5-24.8l8.2-4.9c5,8.3,9.9,16.6,14.7,25
			L2172,606.2z M455,1006.2l-9.6-0.4c0.3-9.6,0.7-19.1,1.2-28.7l9.6,0.7C455.7,987.3,455.3,996.8,455,1006.2 M2142.3,557.1
			c-5.2-8-10.5-16-16-23.9l7.9-5.4c5.5,8,10.9,16,16.2,24.1L2142.3,557.1z M458.3,949.5l-9.6-1c0.9-9.5,1.8-19.1,3-28.6l9.5,1.3
			C460.2,930.6,459.2,940,458.3,949.5 M2109.5,509.9c-5.7-7.7-11.5-15.3-17.4-22.8l7.5-5.9c6,7.6,11.9,15.3,17.6,23.1L2109.5,509.9z
			 M465.1,893.1l-9.5-1.6c1.4-9.4,3-18.9,4.8-28.3l9.4,1.9C468.1,874.4,466.6,883.7,465.1,893.1 M2073.9,464.8
			c-6.1-7.3-12.4-14.6-18.8-21.7l7.1-6.3c6.5,7.2,12.8,14.6,19,22L2073.9,464.8z M475.4,837.3l-9.4-2.2c2-9.3,4.2-18.6,6.5-27.9
			l9.3,2.5C479.6,818.9,477.4,828.1,475.4,837.3 M2035.6,421.9c-6.6-6.9-13.3-13.8-20.1-20.5l6.7-6.8c6.9,6.8,13.7,13.8,20.3,20.8
			L2035.6,421.9z M489.2,782.3l-9.2-2.8c2.6-9.2,5.3-18.3,8.2-27.4l9.2,3.1C494.5,764.2,491.8,773.3,489.2,782.3 M1994.8,381.4
			c-7-6.5-14.1-12.9-21.3-19.3l6.3-7.2c7.3,6.4,14.5,12.9,21.6,19.5L1994.8,381.4z M506.3,728.4l-9.1-3.3c3.2-9,6.5-17.9,10-26.8
			l9,3.6C512.8,710.7,509.5,719.5,506.3,728.4 M526.9,675.7l-8.8-3.9c3.7-8.7,7.6-17.4,11.6-26.1l8.7,4.2
			C534.4,658.5,530.5,667.1,526.9,675.7 M550.6,624.5l-8.6-4.4c4.3-8.5,8.7-16.9,13.2-25.3l8.5,4.7
			C559.2,607.8,554.8,616.1,550.6,624.5 M577.5,574.9l-8.3-5c4.8-8.2,9.7-16.3,14.8-24.4l8.2,5.2
			C587.2,558.7,582.3,566.8,577.5,574.9 M607.6,527l-8-5.4c5.3-7.9,10.7-15.7,16.3-23.4l7.8,5.7C618.2,511.5,612.8,519.3,607.6,527"
			/>
		<path class="st2" d="M641.4,480l-7.6-5.9c2.9-3.8,5.9-7.6,8.8-11.3l7.6,6.1C647.2,472.5,644.3,476.3,641.4,480"/>
		<path class="st2" d="M601,1229.3l-9.3,2.2c-1.2-4.7-2.3-9.4-3.4-14.1l9.4-2C598.7,1220,599.8,1224.6,601,1229.3"/>
		<path class="st2" d="M591.6,1187.4l-9.4,1.7c-1.9-9.5-3.5-18.9-5.1-28.4l9.5-1.4C588.1,1168.7,589.8,1178,591.6,1187.4
			 M2134.8,824.5c-2.8-9.1-5.8-18.2-8.9-27.2l9.1-3c3.2,9.1,6.2,18.2,9,27.5L2134.8,824.5z M582.6,1131.1l-9.5,1
			c-1.2-9.6-2.2-19.1-3-28.7l9.6-0.7C580.4,1112.2,581.4,1121.6,582.6,1131.1 M2116,770.5c-3.5-8.9-7.1-17.7-10.8-26.5l8.8-3.7
			c3.8,8.9,7.4,17.8,10.9,26.8L2116,770.5z M577.6,1074.4l-9.6,0.3c-0.5-9.6-0.8-19.2-1-28.8l9.6,0
			C576.8,1055.4,577.2,1064.9,577.6,1074.4 M2093.5,717.9c-4.1-8.7-8.3-17.2-12.7-25.7l8.5-4.3c4.4,8.6,8.7,17.2,12.8,26
			L2093.5,717.9z M576.7,1017.5l-9.6-0.4c0.2-9.6,0.6-19.2,1.1-28.7l9.6,0.7C577.3,998.5,576.9,1008,576.7,1017.5 M2067.2,667
			c-4.7-8.3-9.5-16.6-14.4-24.7l8.2-4.9c5,8.2,9.9,16.6,14.6,25L2067.2,667z M579.9,960.7l-9.6-1.1c0.9-9.6,1.9-19.1,3.2-28.6
			l9.5,1.4C581.9,941.8,580.8,951.2,579.9,960.7 M2037.5,618c-5.3-8-10.7-15.9-16.2-23.7l7.8-5.5c5.6,7.9,11.1,15.9,16.4,24
			L2037.5,618z M587.2,904.3l-9.5-1.7c1.6-9.5,3.3-18.9,5.2-28.3l9.4,2.1C590.5,885.6,588.8,894.9,587.2,904.3 M2004.3,571.3
			c-5.8-7.6-11.7-15.1-17.8-22.4l7.4-6c6.1,7.5,12.1,15,18,22.7L2004.3,571.3z M598.6,848.7l-9.3-2.4c2.3-9.3,4.7-18.6,7.2-27.8
			l9.2,2.7C603.2,830.3,600.8,839.5,598.6,848.7 M1968,527.1c-6.3-7.2-12.8-14.2-19.3-21.1l6.9-6.5c6.6,7,13.2,14.1,19.6,21.4
			L1968,527.1z M1928.6,485.5c-6.8-6.7-13.7-13.3-20.8-19.7l6.4-7c7.1,6.5,14.1,13.2,21,20L1928.6,485.5z M613.8,794.1l-9.2-3.1
			c2.9-9.1,6-18.2,9.2-27.1l9,3.4C619.7,776.2,616.7,785.1,613.8,794.1 M1886.4,446.8c-7.3-6.2-14.6-12.3-22.1-18.2l5.9-7.5
			c7.6,6,15,12.2,22.4,18.5L1886.4,446.8z M633,740.8l-8.9-3.7c3.6-8.9,7.3-17.6,11.1-26.4l8.8,4C640.2,723.4,636.5,732.1,633,740.8
			 M1841.6,411c-7.7-5.7-15.4-11.2-23.3-16.7l5.4-7.9c8,5.5,15.8,11.1,23.6,16.9L1841.6,411z M655.9,689.2l-8.6-4.3
			c4.2-8.6,8.5-17.1,13-25.5l8.5,4.6C664.3,672.3,660.1,680.7,655.9,689.2 M1794.4,378.5c-8-5.1-16.2-10.1-24.4-15l4.8-8.2
			c8.3,4.9,16.6,10,24.7,15.2L1794.4,378.5z M682.5,639.3l-8.3-4.9c4.8-8.2,9.7-16.4,14.8-24.4l8.2,5.2
			C692.1,623.1,687.2,631.2,682.5,639.3 M1745.1,349.4c-8.4-4.6-16.9-9-25.4-13.3l4.2-8.6c8.6,4.3,17.2,8.8,25.7,13.4L1745.1,349.4z
			 M712.5,591.6l-8-5.5c5.3-7.9,10.8-15.6,16.5-23.3l7.8,5.8C723.2,576.1,717.8,583.8,712.5,591.6 M1693.8,323.8
			c-8.7-4-17.4-7.8-26.3-11.4l3.5-8.9c8.9,3.7,17.8,7.6,26.6,11.6L1693.8,323.8z M745.9,546.1l-7.6-6c5.9-7.5,11.9-14.8,18.1-22
			l7.4,6.3C757.7,531.5,751.7,538.8,745.9,546.1 M1640.9,301.8c-8.9-3.3-17.9-6.5-27-9.6l2.9-9.1c9.2,3.1,18.3,6.3,27.3,9.7
			L1640.9,301.8z M782.4,503.3l-7.1-6.6c6.4-7,13-13.9,19.6-20.7l6.9,6.8C795.2,489.6,788.8,496.4,782.4,503.3 M1586.6,283.7
			c-9.1-2.7-18.3-5.2-27.6-7.6l2.2-9.3c9.4,2.4,18.7,5,27.9,7.7L1586.6,283.7z M821.9,463.2l-6.6-7c6.9-6.5,13.9-12.9,21.1-19.2
			l6.4,7.3C835.7,450.4,828.8,456.8,821.9,463.2 M864.3,426.1l-6.1-7.5c7.3-6,14.8-11.8,22.4-17.6l5.9,7.7
			C878.9,414.4,871.5,420.2,864.3,426.1 M1531.2,269.4c-9.3-2-18.6-3.9-28-5.6l1.6-9.4c9.5,1.7,19,3.6,28.4,5.7L1531.2,269.4z
			 M909.1,392.2l-5.6-7.9c7.8-5.4,15.7-10.8,23.7-15.9l5.3,8.1C924.6,381.5,916.8,386.8,909.1,392.2 M1475,259.2
			c-9.4-1.4-18.9-2.6-28.3-3.6l0.9-9.5c9.6,1,19.2,2.3,28.7,3.7L1475,259.2z M956.5,361.5l-5-8.3c8.2-4.9,16.4-9.6,24.8-14.2
			l4.7,8.4C972.7,352.1,964.5,356.7,956.5,361.5 M1418.2,253c-9.4-0.7-18.9-1.2-28.4-1.6l0.2-9.6c9.6,0.4,19.2,0.9,28.8,1.6
			L1418.2,253z M1006,334.4l-4.4-8.6c8.5-4.3,17.1-8.4,25.8-12.3l4.1,8.7C1022.9,326.1,1014.4,330.2,1006,334.4 M1361.3,250.8
			c-9.5,0-18.9,0.1-28.4,0.5l-0.5-9.6c9.6-0.3,19.2-0.5,28.8-0.5L1361.3,250.8z M1057.4,311l-3.8-8.9c8.8-3.6,17.7-7.1,26.6-10.4
			l3.5,9C1074.8,303.9,1066.1,307.4,1057.4,311 M1304.5,252.8c-9.4,0.7-18.8,1.5-28.3,2.5l-1.2-9.5c9.6-1,19.1-1.9,28.6-2.5
			L1304.5,252.8z M1110.4,291.3l-3.2-9.1c9-3,18.1-5.8,27.3-8.5l2.8,9.2C1128.3,285.5,1119.3,288.3,1110.4,291.3 M1248.1,258.9
			c-9.3,1.3-18.7,2.8-28,4.5l-1.9-9.5c9.5-1.7,18.9-3.2,28.3-4.6L1248.1,258.9z M1164.7,275.4l-2.5-9.3c4.7-1.2,9.4-2.4,14.2-3.5
			c4.6-1.1,9.1-2.1,13.7-3.1l2.2,9.4c-4.7,1-9.4,2.1-14.2,3.2C1173.6,273.2,1169.1,274.3,1164.7,275.4"/>
		<path class="st2" d="M2155.8,864.3l-9.3,2.2c-1.2-4.7-2.4-9.3-3.6-13.9l9.3-2.3C2153.4,854.9,2154.6,859.6,2155.8,864.3"/>
		<path class="st2" d="M1629.1,2064.2l-9.3,2.1l-2.3-9.4l9.2-2.1c6.2-1.5,12.4-3,18.5-4.5l2.5,9.3
			C1641.6,2061.2,1635.3,2062.7,1629.1,2064.2 M1591.6,2072.3c-9.5,1.9-18.9,3.6-28.4,5.2l-1.7-9.5c9.4-1.6,18.7-3.3,28.1-5.1
			L1591.6,2072.3z M1675.6,2052.1l-2.8-9.2c9.2-2.6,18.3-5.3,27.3-8.2l3,9.2C1694.1,2046.8,1684.9,2049.5,1675.6,2052.1
			 M1534.7,2081.8c-9.6,1.3-19.1,2.5-28.6,3.6l-1.2-9.5c9.5-1.1,18.9-2.2,28.4-3.6L1534.7,2081.8z M1730.5,2034.9l-3.3-9.1
			c9-3.1,18-6.3,26.8-9.7l3.5,9C1748.7,2028.5,1739.6,2031.8,1730.5,2034.9 M1477.3,2088.2c-9.6,0.8-19.2,1.5-28.8,2l-0.7-9.6
			c9.5-0.5,19-1.2,28.6-2L1477.3,2088.2z M1784.4,2014.6l-3.8-8.9c8.8-3.6,17.6-7.3,26.2-11.2l4,8.8
			C1802.1,2007.2,1793.3,2011,1784.4,2014.6 M1419.6,2091.4c-9.7,0.3-19.3,0.4-28.9,0.4l-0.2-9.6c9.5,0,19.1-0.1,28.7-0.4
			L1419.6,2091.4z M1837,1991.4l-4.3-8.7c8.6-4.1,17.1-8.3,25.5-12.6l4.5,8.6C1854.2,1983,1845.6,1987.3,1837,1991.4 M1361.7,2091.4
			c-9.7-0.3-19.3-0.7-28.9-1.2l0.4-9.6c9.5,0.5,19.1,0.9,28.7,1.2L1361.7,2091.4z M1888.1,1965.2l-4.7-8.4c8.3-4.6,16.6-9.2,24.8-14
			l5,8.3C1904.9,1955.9,1896.5,1960.6,1888.1,1965.2 M1303.9,2088.1c-9.7-0.8-19.3-1.8-28.9-2.8l0.9-9.5c9.5,1.1,19.1,2,28.7,2.8
			L1303.9,2088.1z M1937.7,1936.2l-5.2-8.2c8.1-5,16-10.2,23.9-15.4l5.4,8C1953.8,1926,1945.8,1931.1,1937.7,1936.2 M1246.1,2081.6
			c-9.6-1.4-19.2-2.8-28.8-4.5l1.4-9.5c9.5,1.6,19,3.1,28.5,4.4L1246.1,2081.6z M1985.5,1904.5l-5.6-7.9c7.7-5.5,15.4-11,22.9-16.7
			l5.8,7.7C2001,1893.4,1993.3,1899,1985.5,1904.5 M1188.7,2071.9c-9.5-1.9-19-3.9-28.5-6.1l2-9.4c9.4,2.1,18.8,4.1,28.2,6
			L1188.7,2071.9z M2031.3,1870.2l-6.1-7.6c7.4-5.9,14.7-11.9,22-17.9l6.3,7.4C2046.1,1858.2,2038.7,1864.2,2031.3,1870.2
			 M1132,2059c-9.4-2.4-18.8-5-28.1-7.6l2.5-9.2c9.2,2.6,18.5,5.2,27.8,7.6L1132,2059z M2075,1833.3l-6.5-7.2
			c7.1-6.3,14-12.7,20.9-19.2l6.7,7C2089.2,1820.6,2082.2,1827,2075,1833.3 M1076,2043c-9.3-2.9-18.5-6-27.7-9.2l3-9.1
			c9.1,3.2,18.2,6.2,27.4,9.1L1076,2043z M2116.7,1794.1l-6.8-6.9c6.7-6.7,13.3-13.5,19.8-20.3l7,6.7
			C2130.1,1780.5,2123.5,1787.3,2116.7,1794.1 M1020.9,2024c-9.1-3.4-18.1-7-27.1-10.7l3.5-8.9c8.9,3.6,17.9,7.2,26.9,10.6
			L1020.9,2024z M2156.1,1752.5l-7.2-6.5c6.3-7,12.5-14.2,18.6-21.4l7.4,6.3C2168.8,1738.2,2162.5,1745.4,2156.1,1752.5 M967,2001.9
			c-8.9-3.9-17.7-8-26.5-12.1l4-8.7c8.7,4.1,17.5,8.1,26.3,12L967,2001.9z M2193.1,1708.8l-7.5-6.1c5.9-7.4,11.7-14.9,17.4-22.4
			l7.7,5.9C2204.9,1693.8,2199.1,1701.3,2193.1,1708.8 M914.3,1976.9c-8.7-4.4-17.3-8.9-25.8-13.6l4.5-8.4c8.5,4.6,17,9.1,25.6,13.4
			L914.3,1976.9z M2227.7,1663l-7.9-5.6c5.5-7.7,10.9-15.5,16.1-23.4l8,5.4C2238.6,1647.4,2233.2,1655.2,2227.7,1663 M863.1,1949.1
			c-8.4-4.9-16.8-9.8-25-14.9l4.9-8.2c8.2,5.1,16.5,10,24.8,14.8L863.1,1949.1z M2259.6,1615.4l-8.1-5.2c5.1-8,10-16.1,14.8-24.3
			l8.3,5C2269.7,1599.1,2264.7,1607.3,2259.6,1615.4 M813.4,1918.6c-8.1-5.3-16.2-10.7-24.2-16.3l5.4-7.9c7.9,5.5,15.9,10.9,24,16.1
			L813.4,1918.6z M2288.8,1566l-8.4-4.8c4.6-8.3,9.1-16.7,13.5-25.1l8.5,4.5C2298,1549.2,2293.5,1557.6,2288.8,1566 M765.5,1885.4
			c-7.8-5.7-15.6-11.6-23.3-17.6l5.8-7.5c7.6,5.9,15.3,11.7,23.1,17.4L765.5,1885.4z M2315.3,1515l-8.7-4.3
			c4.1-8.5,8.2-17.2,12-25.8l8.8,4.1C2323.5,1497.7,2319.5,1506.3,2315.3,1515 M719.4,1849.6c-7.5-6.2-14.9-12.4-22.3-18.8l6.2-7.2
			c7.3,6.3,14.6,12.5,22.1,18.6L719.4,1849.6z M2338.9,1462.5l-8.9-3.8c3.7-8.8,7.2-17.6,10.6-26.5l9,3.6
			C2346.1,1444.8,2342.5,1453.7,2338.9,1462.5 M675.4,1811.5c-7.2-6.6-14.2-13.2-21.2-20l6.6-6.9c6.9,6.7,13.9,13.3,21,19.8
			L675.4,1811.5z M2359.5,1408.8l-9.1-3.3c3.2-9,6.2-18,9.1-27.1l9.2,3.1C2365.7,1390.6,2362.7,1399.7,2359.5,1408.8 M633.5,1771
			c-6.8-6.9-13.5-14-20.1-21.1l7-6.5c6.6,7.1,13.2,14,19.9,20.9L633.5,1771z M2377.1,1353.9l-9.2-2.8c2.7-9.1,5.2-18.3,7.6-27.6
			l9.3,2.6C2382.3,1335.4,2379.8,1344.7,2377.1,1353.9 M593.9,1728.3c-6.4-7.3-12.7-14.7-18.9-22.1l7.3-6.1
			c6.2,7.4,12.4,14.7,18.7,21.9L593.9,1728.3z M2391.6,1298l-9.4-2.3c2.1-9.3,4.2-18.6,6-28l9.4,2
			C2395.8,1279.2,2393.8,1288.6,2391.6,1298 M556.7,1683.5c-6-7.6-11.9-15.3-17.7-23.1l7.7-5.6c5.7,7.7,11.6,15.4,17.5,22.9
			L556.7,1683.5z M2403,1241.4l-9.5-1.8c1.6-9.4,3.1-18.8,4.5-28.3l9.5,1.5C2406.1,1222.3,2404.6,1231.9,2403,1241.4 M522,1636.8
			c-5.6-8-11-16-16.4-24.1l8-5.2c5.3,8.1,10.7,16,16.3,23.9L522,1636.8z M2411.2,1184.1l-9.5-1.3c1.1-9.5,2-19,2.9-28.6l9.6,1
			C2413.2,1164.9,2412.3,1174.5,2411.2,1184.1 M489.9,1588.2c-5.1-8.2-10.1-16.6-15.1-25l8.3-4.7c4.9,8.3,9.8,16.6,14.9,24.7
			L489.9,1588.2z M2416.1,1126.3l-9.6-0.7c0.6-9.5,1-19.1,1.3-28.6l9.6,0.5C2417.1,1107.1,2416.7,1116.7,2416.1,1126.3
			 M460.4,1537.8c-4.7-8.5-9.2-17.1-13.7-25.7l8.5-4.3c4.4,8.6,8.9,17.1,13.5,25.5L460.4,1537.8z M2417.9,1068.5l-9.6-0.2
			c0-9.5-0.1-19.1-0.4-28.7l9.6-0.1C2417.8,1049.3,2417.9,1058.9,2417.9,1068.5 M433.9,1486c-4.2-8.7-8.3-17.6-12.2-26.4l8.8-3.8
			c3.9,8.8,7.9,17.5,12.1,26.2L433.9,1486z M2416.3,1010.7l-9.6,0.4c-0.5-9.5-1.2-19.1-1.9-28.6l9.6-0.6
			C2415.2,991.4,2415.8,1001.1,2416.3,1010.7 M410.2,1432.8c-3.7-8.9-7.3-18-10.7-27.1l9-3.3c3.4,9,7,17.9,10.6,26.8L410.2,1432.8z
			 M2411.6,952.9l-9.5,0.9c-1-9.5-2.2-19-3.5-28.5l9.5-1.2C2409.4,933.8,2410.5,943.4,2411.6,952.9 M389.5,1378.4
			c-3.2-9.1-6.3-18.3-9.2-27.6l9.1-2.8c2.9,9.2,6,18.3,9.2,27.3L389.5,1378.4z M2403.7,895.5l-9.5,1.4c-1.6-9.4-3.3-18.9-5.1-28.3
			l9.4-1.7C2400.4,876.5,2402.1,886,2403.7,895.5 M371.7,1323c-2.7-9.3-5.3-18.6-7.7-28l9.3-2.3c2.4,9.3,5,18.6,7.6,27.7L371.7,1323
			z M2392.6,838.5l-9.4,1.9c-2.1-9.3-4.3-18.7-6.6-28l9.3-2.2C2388.3,819.7,2390.5,829.1,2392.6,838.5"/>
		<path class="st2" d="M706.8,450.1c7,27.9-9.8,55.8-37.6,62.3c-27.8,6.5-56-10.8-63-38.7c-7-27.9,9.8-55.8,37.6-62.3
			C671.6,404.9,699.8,422.2,706.8,450.1"/>
		<polygon class="st2" points="1933.7,378.2 1893.3,290.4 1988.9,300.6 		"/>
		<path class="st3" d="M1991.4,1579.8H787.4c-26.3,0-48-21.3-48.5-47.6l-13.7-786.3c-0.5-26.3,20.5-47.6,46.8-47.6H1976
			c26.3,0,48,21.3,48.5,47.6l13.7,786.3C2038.7,1558.5,2017.7,1579.8,1991.4,1579.8"/>
		<path class="st1" d="M1911.5,1003c-0.4-22.2-6.8-42.9-17.5-60.7c-21.5-35.6-60.6-59.4-104.8-59.4c-31,0-59.1,11.7-80,31.1
			c-24,22-38.7,53.8-38.1,89.1c1.2,66.4,55.9,120.2,122.2,120.2c51,0,94.1-31.8,110.7-76.6C1909.1,1033,1911.8,1018.3,1911.5,1003
			 M1861.9,1003c0.2,9.1-1.4,17.9-4.5,25.9c-9.8,26.1-35,44.6-64.8,44.6c-0.6,0-1.2,0-1.8-0.1c-38.2-0.9-69.3-32.1-70-70.5
			c-0.4-20.7,8.2-39.3,22.1-52.1c12.3-11.5,28.9-18.4,47.2-18.4c26.1,0,49.1,14.1,61.7,35.2C1858,978,1861.6,990.1,1861.9,1003"/>
		<path class="st4" d="M1793.4,1123.1l-0.9-49.6c-0.6,0-1.2,0-1.8-0.1c-38.2-0.9-69.3-32.1-70-70.5c-0.4-20.7,8.2-39.3,22.1-52.1
			l-33.7-37c-24,22-38.7,53.8-38.1,89.1C1672.3,1069.3,1727,1123.1,1793.4,1123.1"/>
		<path class="st5" d="M1911.5,1003c-0.4-22.2-6.8-42.9-17.5-60.7l-42.2,25.4c6.2,10.4,9.9,22.4,10.1,35.3
			c0.2,9.1-1.4,17.9-4.5,25.9l46.7,17.6C1909.1,1033,1911.7,1018.3,1911.5,1003"/>
		<path class="st2" d="M1894,942.2c-21.5-35.6-60.6-59.4-104.8-59.4c-31,0-59.1,11.7-80,31l33.7,37c12.3-11.4,28.9-18.4,47.2-18.4
			c26.1,0,49.1,14.2,61.7,35.2L1894,942.2z"/>
		<path class="st1" d="M1192.2,913.8h391.2c8,0,14.7,6.5,14.8,14.6c0.1,8-6.3,14.6-14.3,14.6h-391.2c-8,0-14.7-6.5-14.8-14.6
			C1177.7,920.3,1184.1,913.8,1192.2,913.8 M1193.6,992.6h391.2c8,0,14.4-6.5,14.3-14.6c-0.1-8-6.8-14.6-14.8-14.6H1193
			c-8,0-14.4,6.5-14.3,14.6C1178.9,986.1,1185.5,992.6,1193.6,992.6 M1194.4,1042.4h391.2c8,0,14.4-6.5,14.3-14.6
			c-0.1-8-6.8-14.6-14.8-14.6h-391.2c-8,0-14.4,6.5-14.3,14.6C1179.8,1035.9,1186.4,1042.4,1194.4,1042.4 M1195.3,1092.2h391.2
			c8,0,14.4-6.5,14.3-14.6v0c-0.1-8-6.8-14.6-14.8-14.6h-391.2c-8,0-14.4,6.5-14.3,14.6C1180.6,1085.6,1187.3,1092.2,1195.3,1092.2"
			/>
		<path class="st4" d="M833.8,1183.3l0-0.4c-0.1-7.9,6.1-14.3,14-14.3c50.8,0,222.2,0,273,0c7.9,0,14.4,6.4,14.5,14.3
			c0,0.1,0,0.3,0,0.4c0.1,7.9-6.2,14.3-14.1,14.3H848.4C840.5,1197.6,834,1191.2,833.8,1183.3 M1121.7,1218.3l-272.9,0
			c-7.9,0-14.2,6.4-14.1,14.3l0,0.4c0.1,7.9,6.7,14.3,14.6,14.3h272.9c7.9,0,14.2-6.4,14.1-14.3l0-0.4
			C1136.2,1224.7,1129.6,1218.3,1121.7,1218.3 M835.6,1282.4l0,0.4c0.1,7.9,6.7,14.3,14.6,14.3h272.9c7.9,0,14.2-6.4,14.1-14.3
			l0-0.4c-0.1-7.9-6.7-14.3-14.6-14.3H849.7C841.7,1268,835.4,1274.5,835.6,1282.4 M851.2,1346.9h272.5c8,0,14.4-6.5,14.3-14.6
			c-0.1-8-6.8-14.6-14.8-14.6H850.7c-8,0-14.4,6.5-14.3,14.6C836.6,1340.4,843.2,1346.9,851.2,1346.9"/>
	</g>
	<g class="st0">
		<defs>
			<path id="SVGID_5_" d="M835.2,894.6c-3.5,0-6.4,2.9-6.3,6.4l4.1,232.9c0.1,3.5,3,6.4,6.5,6.4h288.8c3.5,0,6.4-2.9,6.3-6.4
				l-4.1-232.9c-0.1-3.5-3-6.4-6.5-6.4H835.2z"/>
		</defs>
		<clipPath id="SVGID_6_">
			<use xlink:href="#SVGID_5_"  style="overflow:visible;"/>
		</clipPath>
		<path class="st6" d="M1128.3,1140.3H839.5c-3.5,0-6.5-2.9-6.5-6.4L828.9,901c-0.1-3.5,2.8-6.4,6.3-6.4H1124c3.5,0,6.5,2.9,6.5,6.4
			l4.1,232.9C1134.6,1137.4,1131.8,1140.3,1128.3,1140.3"/>
		<path class="st7" d="M915.7,1110.7l144-75.9c7.9-4.2,17.6-3.7,25.3,1.2l136.7,87.2l0.4,24.9H915.3L915.7,1110.7z"/>
		<path class="st8" d="M818.5,1084.9l95.6-78.3c8.7-7.1,21.1-7.5,30.4-0.9l194.8,137.6H813.6L818.5,1084.9z"/>
		<path class="st9" d="M1045.9,958.7c0.3,15.6-12.2,28.3-27.8,28.3c-15.6,0-28.5-12.7-28.8-28.3c-0.3-15.6,12.2-28.3,27.8-28.3
			S1045.6,943.1,1045.9,958.7"/>
	</g>
	<g class="st0">
		<defs>
			<rect id="SVGID_7_" width="2937.2" height="2400"/>
		</defs>
		<clipPath id="SVGID_8_">
			<use xlink:href="#SVGID_7_"  style="overflow:visible;"/>
		</clipPath>
		<path class="st10" d="M1414.3,1243h48.7c2,0,3.6,1.6,3.6,3.5l1.9,108.3c0,1.9-1.5,3.5-3.5,3.5h-48.7c-2,0-3.6-1.6-3.6-3.5
			l-1.9-108.3C1410.8,1244.6,1412.4,1243,1414.3,1243 M1498.6,1207.7h49c1.9,0,3.4,1.5,3.4,3.3l2.5,143.9c0,1.9-1.4,3.4-3.3,3.4h-49
			c-1.9,0-3.4-1.5-3.4-3.4l-2.5-143.9C1495.3,1209.2,1496.8,1207.7,1498.6,1207.7 M1322.6,1217.7l2.2,127.1
			c0.1,7.5,6.3,13.6,13.8,13.6h28.6c7.5,0,13.5-6.1,13.3-13.6l-2.2-127.1c-0.1-7.5-6.3-13.6-13.8-13.6H1336
			C1328.5,1204.1,1322.5,1210.2,1322.6,1217.7 M1275.8,1143.5h-28.6c-7.5,0-13.5,6.1-13.3,13.6l3.3,187.6
			c0.1,7.5,6.3,13.6,13.8,13.6h28.6c7.5,0,13.5-6.1,13.3-13.6l-3.3-187.6C1289.5,1149.6,1283.3,1143.5,1275.8,1143.5"/>
		<path class="st11" d="M1754.2,1307.5l-1.7-96.2c-0.1-7.7,8.3-12.3,14.9-8.1l73.1,47.5c5.8,3.8,6,12.3,0.4,16.1l-71.4,48.7
			C1763.1,1319.9,1754.4,1315.3,1754.2,1307.5"/>
		<path class="st12" d="M2005.9,635.7c-9.1-7-20.8-11.3-33.4-11.3H773c-28.2,0-50.8,21.1-50.4,47l15.1,862.6
			c0.4,21.2,16,39.1,37.1,45c4.7,1.3,9.7,2,14.9,2h1199.5c28.2,0,50.8-21.1,50.4-47l-15.1-862.6
			C2024.2,657.1,2017,644.3,2005.9,635.7 M2027.4,1534c0.3,19.8-16.9,35.8-38.4,35.8H789.5c-2.4,0-4.7-0.2-6.9-0.6
			c-18.3-3-32.4-17.7-32.7-35.3l-13.6-778.7h1277.6L2027.4,1534z"/>
		<path class="st11" d="M1737.8,722.5h-549.7c-17.7,0-32.3-13.2-32.6-29.5c-0.3-16.3,13.8-29.5,31.6-29.5h549.7
			c17.7,0,32.3,13.2,32.6,29.5C1769.6,709.3,1755.5,722.5,1737.8,722.5"/>
		<path class="st11" d="M774.2,709.5c-1.6,0-3.1-0.5-4.4-1.6c-2.4-2.2-2.5-5.8-0.1-7.9l28.9-26.9c2.3-2.2,6.2-2.2,8.7,0
			c2.4,2.2,2.5,5.8,0.1,7.9l-28.9,26.9C777.3,709,775.8,709.5,774.2,709.5"/>
		<path class="st11" d="M803.6,709.5c-1.6,0-3.1-0.5-4.4-1.6l-29.8-26.9c-2.4-2.2-2.5-5.8-0.1-7.9c2.3-2.2,6.2-2.2,8.7,0l29.8,26.9
			c2.4,2.2,2.5,5.8,0.1,7.9C806.7,709,805.1,709.5,803.6,709.5"/>
		<path class="st11" d="M927.7,671.3c-11.5,0-20.6,8.6-20.5,19.1c0,2.8,0.8,5.4,2,7.8c3.4,6.6,10.7,11.2,19.1,11.2
			c8.4,0,15.6-4.6,18.7-11.2c1.1-2.4,1.8-5.1,1.7-7.8C948.7,679.9,939.2,671.3,927.7,671.3 M919.5,690.4c-0.1-4.3,3.7-7.9,8.4-7.9
			c4.7,0,8.6,3.5,8.7,7.9c0.1,4.3-3.7,7.8-8.4,7.8C923.5,698.3,919.6,694.7,919.5,690.4"/>
		<path class="st11" d="M872.2,696h-31.4c-3.4,0-6.2-2.5-6.2-5.6c-0.1-3.1,2.6-5.6,6-5.6H872c3.4,0,6.2,2.5,6.2,5.6
			C878.3,693.5,875.6,696,872.2,696"/>
		<g class="st13">
			<g>
				<defs>
					<rect id="SVGID_9_" x="774.8" y="624.4" width="1231.1" height="956.5"/>
				</defs>
				<clipPath id="SVGID_10_">
					<use xlink:href="#SVGID_9_"  style="overflow:visible;"/>
				</clipPath>
				<path class="st14" d="M2005.9,635.7l-50.2,62.5l-45.7,57l-379.5,473.2l-27.6,34.5l-1.4,1.8l-27.6,34.5l-217,270.6l-8,10
					l-0.9,1.2H789.7c-5.2,0-10.2-0.7-14.9-2l0.6-0.7l7.2-9l573.5-717.4l20-25l57.2-71.5l26.1-32.7l19.4-24.3l27.7-34.6l31.3-39.2
					h434.6C1985.2,624.4,1996.8,628.7,2005.9,635.7"/>
			</g>
		</g>
		<g class="st13">
			<g>
				<defs>
					<rect id="SVGID_11_" x="727.8" y="624.4" width="429.6" height="464.3"/>
				</defs>
				<clipPath id="SVGID_12_">
					<use xlink:href="#SVGID_11_"  style="overflow:visible;"/>
				</clipPath>
				<polygon class="st15" points="1157.4,624.4 1089.4,698.3 1036.9,755.2 741.8,1075.8 731.1,1087.4 729.9,1088.7 727.8,969.9 
					729.1,968.5 739.7,956.3 915.7,755.2 965.6,698.3 1030.2,624.4 				"/>
			</g>
		</g>
		<path class="st10" d="M2157.2,2400H913.5c-17.1,0-31.4-14-31.7-31.1c-0.3-17.1,13.5-31.1,30.6-31.1h1243.6
			c17.1,0,31.4,14,31.7,31.1C2188,2386,2174.3,2400,2157.2,2400"/>
		<path class="st16" d="M1573.5,1231.7c0,0-11,109.6-2.6,132.7c8.3,23.1,128.3-38,126.2-74.5c-2.1-36.4,24.4-84.6-28.9-85.3
			C1614.9,1204,1573.5,1231.7,1573.5,1231.7"/>
		<path class="st17" d="M1605.6,1048.3c0,0-50.4,8.9-56.7,68.9c-0.9,8.2-0.5,16.4,0.9,24.6c1.4,8.8,2.6,23.7-3.6,32.4
			c-9.2,12.9-8.1,46.8,33.8,79.8c29.1,22.9,70,13.6,70,13.6s4,26.8,0.6,32.6c-3.4,5.7-27.1,12.3-27.1,12.3s9.4,61.8,78.2,30.8
			c68.8-31,55.9-49.5,55.9-49.5s-27.6,4.6-30.6-15.8c-3-20.5-4-42.2-4-42.2s60-66.7,32.6-113.5
			C1728.2,1075.3,1654.8,1033.1,1605.6,1048.3"/>
		<path class="st18" d="M1642.5,1305.7c0,0,1.8,29.5,21.1,30.7c19.4,1.2,71-39,71-39l12,19.5c0,0-73.6,69.4-97.8,59.1
			c-24.2-10.3-69.1-24.9-39.5-46.1c29.6-21.1,27.7-24.1,27.7-24.1L1642.5,1305.7z"/>
		<path class="st19" d="M1847,1352c0,0-54-4.9-89.6-30.3c-13.2-9.4-23.8-21.7-28.3-37.5c-16.5-58.7,2-94.9,2-94.9
			c10.1,0.9,33.9-23.3,12.9-42.7c-21-19.4-38,12.8-38,12.8s2.9-33-18.9-73.5c-12.5-23.2-42.6-30.2-66.1-32
			c-30-2.3-57.6,15.9-67,44.3c-4.9,14.9-5.5,27.3-5.5,27.3s-2.6-6.2-3.2-15.7c-1.1-18.4,5.1-49.4,51.6-73.1
			c70.6-36.1,146-6.2,183.5,29c37.6,35.2,58.6,79.2,59.8,147C1841.3,1280.4,1847,1352,1847,1352"/>
		<path class="st16" d="M1759.4,1316.9c-0.6,1.6-1.3,3.2-2.1,4.8c-13.2-9.4-23.8-21.7-28.3-37.5c-16.5-58.7,2-94.9,2-94.9
			c10.1,0.9,33.9-23.3,12.9-42.7c-21-19.4-38,12.8-38,12.8s2.9-33-18.9-73.5c-12.5-23.2-42.6-30.2-66.1-32
			c-30-2.3-57.6,15.9-67,44.3c-4.9,14.9-5.5,27.3-5.5,27.3s-2.6-6.2-3.2-15.7c0,0,21.1-103.7,123.1-52.2
			C1770.3,1109,1784.7,1248.3,1759.4,1316.9"/>
		<g class="st20">
			<g>
				<defs>
					<rect id="SVGID_13_" x="1650.1" y="1250.9" width="38.1" height="33.2"/>
				</defs>
				<clipPath id="SVGID_14_">
					<use xlink:href="#SVGID_13_"  style="overflow:visible;"/>
				</clipPath>
				<path class="st21" d="M1650.1,1267.6c0,0,22.8-4.8,35.8-16.3c0,0,5.9-4-1.3,11.4c-7.2,15.4-32.7,21.3-32.7,21.3L1650.1,1267.6z"
					/>
			</g>
		</g>
		<polygon class="st22" points="1646.4,1878.3 1593.1,2355.7 1604.4,2355.7 1675.7,1869.9 		"/>
		<polygon class="st22" points="1813.8,1878.3 1883.8,2355.7 1872.6,2355.7 1784.3,1869.9 		"/>
		<path class="st23" d="M1221.7,2179.2l-2.8,18.8c0,0,9.5,34,4,48.1c-5.5,14.1-53.7,98.1-72.6,100.8c-18.9,2.6-33.5-17.3-33.5-17.3
			s51.5-109,55.6-174.1C1176.6,2090.4,1221.7,2179.2,1221.7,2179.2"/>
		<path class="st23" d="M1395.5,2048.5l5.8,18.2c0,0,23.5,26.5,24.9,41.7c1.4,15.2-4.1,112.5-19.7,123.3
			c-15.6,10.8-37.4-0.8-37.4-0.8s-2.7-121.4-27.9-182C1315.9,1988.3,1395.5,2048.5,1395.5,2048.5"/>
		<path class="st24" d="M1215,2213.8c-1.4,5.6-2.8,11.2-5,16.6c-6.3,15.1-16.3,28.8-25,42.4c-9.4,14.8-18.1,30.1-27.7,44.8
			c-4.9,7.5-10.4,13.3-19.7,14.6c-4.2,0.6-8.7,0.5-12.9-0.2c-2.6-0.4-5.3-2.2-7.9-2.4c-2.2-0.2-4.3,1.2-6.1,2.2
			c-6.9,3.8-13.3,8.6-20.2,12.5c-6,3.4-12.5,5.5-18.8,8.5c-1.9,0.9-4.7,2.1-5.3,4.4c-0.9,3.4,2.7,6.9,5.3,8.3
			c8,4.4,19.9,2.6,28.5,2.7c18.3,0.2,37.5,1.8,55.7-0.4c6-0.7,12.1-2.1,16-6.9c7.3-9.1,9.6-22.7,13.7-33.3
			c3.4-8.9,7.5-18.2,14.4-25.1c4.9-5,11.3-8.8,17.8-11.1c2.3-0.8,3.4-1.5,4.5,0.9c1.9,4,0.4,10.6,0.6,14.9c0.3,8.6,1.3,51.9,1.3,55
			c0,1.2-0.5,4.4,0.1,5.5c0.8,1.4-0.2,0.6,2.1,1c1.2,0.2,6.9,0.7,7.9,0c1.5-1.1,0.6-9.8,0.6-12.3c0.1-8.6,0.5-17.1,1.1-25.7
			c1.1-16.4,1.8-33.4,5.8-49.4c3.3-13.1,7.1-24.2,6.2-38.1c-0.5-7.3-1.8-15.1-5.5-21.6c-5.3-9.4-15.7-16.5-23.7-23.4L1215,2213.8z"
			/>
		<path class="st25" d="M1847.3,1698.1c0,0-0.6,26.3-3.9,56.6c-3.6,33.3-10.4,71.6-23.1,85.4c-21.1,23.1-327.7,38.1-405,41.5
			c-11.2,0.5-17.6,0.7-17.6,0.7s-47.1,95.2-93.6,181.5c-27.4,50.8-54.6,98.6-71.8,122.1c0,0-56.3,0-69-20.2
			c0,0,38.1-263.3,75.5-365.1v0c7.8-21.4,15.7-35.6,23.1-38.8C1304.7,1743.2,1769,1673.1,1847.3,1698.1"/>
		<path class="st26" d="M1847.3,1698.1c0,0-0.6,26.3-3.9,56.6c0,0-136.3,0.9-183.9-5.3c-47.6-6.2-257.9,33.4-256,48.4
			c1.9,15,11.9,83.7,11.9,83.7c-11.2,0.5-17.6,0.7-17.6,0.7s-47.1,95.2-93.6,181.5l-65.3-263.2v0c7.8-21.4,15.7-35.6,23.1-38.8
			C1304.7,1743.2,1769,1673.1,1847.3,1698.1"/>
		<path class="st27" d="M1649.5,1698.1c0,0-216.1,61-264.6,83c0,0,31.5,251.7,22.9,268.4c0,0-44.6,24.6-78.1,21.1
			c0,0-108.9-342.1-88.2-366.9c20.7-24.8,423.6-83.2,423.6-83.2L1649.5,1698.1z"/>
		<path class="st24" d="M1404.9,2082.7c1.2,5.7,2.5,11.4,2.9,17.2c1.1,16.4-1.7,33.2-3.4,49.5c-1.8,17.6-2.7,35.3-4.7,52.8
			c-1,8.9-3.3,16.7-11,22c-3.5,2.4-7.5,4.3-11.6,5.5c-2.5,0.8-5.7,0.4-8,1.3c-2,0.8-3.3,3-4.4,4.7c-4.5,6.5-8,13.7-12.4,20.3
			c-3.8,5.7-8.7,10.5-12.9,16c-1.3,1.7-3.2,4-2.8,6.3c0.7,3.5,5.4,5.1,8.4,5.2c9,0.4,18.8-6.5,26.5-10.3c16.4-7.9,34.1-15,49.3-25.1
			c5-3.3,9.8-7.3,11.1-13.4c2.4-11.4-1.6-24.7-2.7-36.1c-0.9-9.6-1.4-19.8,1.6-29.1c2.1-6.7,6.1-12.9,10.9-18
			c1.7-1.8,2.3-2.9,4.4-1.2c3.4,2.7,5.1,9.4,7.1,13.2c4.1,7.7,24.2,46.4,25.6,49.1c0.6,1.1,1.5,4.2,2.6,4.9c1.4,0.9,0,0.6,2.3,0
			c1.1-0.3,6.4-2.4,7-3.5c0.9-1.6-3.9-9.1-4.9-11.3c-3.7-7.8-7.2-15.7-10.5-23.7c-6.3-15.3-13.3-31-16.8-47.2
			c-2.9-13.3-4.4-25.1-11.4-37.2c-3.7-6.4-8.3-12.8-14.5-17.1c-8.9-6.1-21.3-7.9-31.4-10.6L1404.9,2082.7z"/>
		<path class="st28" d="M1640.8,1306.5c0,0-9.6,32.6,28,34.3c37.6,1.8,72.3-46.6,72.9-47.7c0.6-1.1,0.5-4.2,7.4-2.9
			c6.8,1.3,91.9,23.2,105.9,34.1c14,10.9,30.6,41.1,36.6,95.6c5.9,54.6,10,203.3,5.4,211.2c-4.6,7.9-25.4,23.2-25.4,23.2
			s-4.2,29.6-10.7,43.7l-483.8-16.9l26.7-58.5c0,0,66.5-18.9,71.3-25.5c4.7-6.6,74.3-247,105.4-273.1
			C1593.1,1313.4,1644.9,1292.5,1640.8,1306.5"/>
		<path class="st29" d="M1588.6,1423.8c0,0,11.4,150-24,189.6c-35.4,39.6-58,55.4-125.3,55.9c-67.3,0.4-25.3-14.1-25.3-14.1
			s133-18.9,146.4-81.8C1573.9,1510.5,1580.1,1389,1588.6,1423.8"/>
		<path class="st29" d="M1882.7,1582c0,0-17,99.6-31.9,116.1c-14.9,16.5-267.8,3.4-267.7,0.7c0.1-1.3,8.2-9.9,4.6-43.4
			c-0.2-1.4-0.3-2.9-0.5-4.3c-1.9-17.5-14.4-34.5-15.9-47.4l30.8-7.6c22-5.4,44.2-10.4,66.4-14.8c36.3-7.2,109.3-26.6,111.6-67.2
			c3-54.1-10.6-118.1,4.2-99.7c0,0,28.3,133.3,21.8,141.7c-6.5,8.4-192,41.4-192,41.4s2.3,1.9,4.5,6.2h0c4,7.8,7.5,27.7-2.8,54
			c0,0,146,4.5,198.3,1.4C1814,1659.2,1846.6,1660.5,1882.7,1582"/>
		<path class="st17" d="M1616,1653.5c0,0-12.9-0.4-28.3,1.9c-1.4,0.2-2.8,0.4-4.2,0.7c-17.1,3.1-73.8,1.9-79.3-3.5
			c-4.9-4.9,31.9-35.8,47.9-44.7c1.6-0.9,3-1.6,4.1-2c4.7-1.7,14.9-2.4,25.8-2.6c12.5-0.3,25.9,0.1,32.5,0.3h0
			c2.6,0.1,4.2,0.2,4.2,0.2l0,0h0C1622.5,1611.5,1626.3,1627.1,1616,1653.5"/>
		<path class="st30" d="M1903.7,1849.7c-149.2,96.8-377.5,26.1-377.5,26.1c17.7-1.2,34.5-3.2,50.5-5.9c25.2-4.2,48.4-10,69.7-17.3
			c255.4-86.6,249.4-372.6,249.4-372.6c3.7-1.5,8-0.6,12.6,2.4c22.4,14.4,52.7,76.9,64.4,148.2
			C1986.1,1711.2,1975.7,1802.9,1903.7,1849.7"/>
		<path class="st31" d="M1903.7,1849.7c-149.2,96.8-377.5,26.1-377.5,26.1c17.7-1.2,34.5-3.2,50.5-5.9c0,0,311.1,1.2,331.7-387.5
			c22.4,14.4,52.7,76.9,64.4,148.2C1986.1,1711.2,1975.7,1802.9,1903.7,1849.7"/>
		<g class="st20">
			<g>
				<defs>
					<rect id="SVGID_15_" x="1503.7" y="1603.6" width="118.9" height="54.2"/>
				</defs>
				<clipPath id="SVGID_16_">
					<use xlink:href="#SVGID_15_"  style="overflow:visible;"/>
				</clipPath>
				<path class="st32" d="M1616,1653.5c0,0-12.9-0.4-28.3,1.9c-1.4,0.2-2.8,0.4-4.2,0.7c-17.1,3.1-73.8,1.9-79.3-3.5
					c-4.9-4.9,31.9-35.8,47.9-44.7c0,0,13.7,38.5,25.2,41.7c2.8,0.8,6.3,1.3,9.9,1.5c11.2,0.6,24.3-1.2,26.5-4.1
					c2.9-3.8,0.7-43.4,0.7-43.4h0c2.6,0.1,4.2,0.2,4.2,0.2l0,0h0C1622.5,1611.5,1626.3,1627.1,1616,1653.5"/>
			</g>
		</g>
		<g class="st20">
			<g>
				<defs>
					<rect id="SVGID_17_" x="1547.8" y="1649.2" width="19.8" height="8.5"/>
				</defs>
				<clipPath id="SVGID_18_">
					<use xlink:href="#SVGID_17_"  style="overflow:visible;"/>
				</clipPath>
				<path class="st33" d="M1547.8,1657.8c3.3-1.7,6.6-2.9,9.9-4.3l4.9-2l4.9-2.2c-1.2,1.4-2.7,2.6-4.2,3.6c-1.6,1-3.2,1.8-4.9,2.5
					c-1.7,0.7-3.4,1.2-5.2,1.7C1551.5,1657.4,1549.7,1657.7,1547.8,1657.8"/>
			</g>
		</g>
		<g class="st20">
			<g>
				<defs>
					<rect id="SVGID_19_" x="1530.2" y="1638.5" width="30.4" height="18.6"/>
				</defs>
				<clipPath id="SVGID_20_">
					<use xlink:href="#SVGID_19_"  style="overflow:visible;"/>
				</clipPath>
				<path class="st34" d="M1530.2,1657.1c2.4-1.8,4.8-3.5,7.3-5.1c2.5-1.6,5-3.2,7.5-4.7c2.5-1.5,5.1-3,7.7-4.5
					c2.6-1.5,5.2-2.9,7.8-4.2c-2.2,2-4.6,3.8-7,5.6c-2.4,1.7-4.9,3.3-7.5,4.9c-2.6,1.5-5.1,3-7.8,4.4
					C1535.6,1654.7,1533,1656,1530.2,1657.1"/>
			</g>
		</g>
		<g class="st20">
			<g>
				<defs>
					<rect id="SVGID_21_" x="1512.3" y="1631.7" width="35.1" height="23.6"/>
				</defs>
				<clipPath id="SVGID_22_">
					<use xlink:href="#SVGID_21_"  style="overflow:visible;"/>
				</clipPath>
				<path class="st35" d="M1512.3,1655.2c2.6-2.4,5.5-4.5,8.3-6.6c2.8-2.1,5.8-4.1,8.7-6c2.9-1.9,5.9-3.8,8.9-5.7
					c3-1.8,6.1-3.6,9.2-5.3c-2.6,2.4-5.5,4.5-8.3,6.6c-2.8,2.1-5.8,4.1-8.7,6c-2.9,1.9-5.9,3.8-8.9,5.6
					C1518.4,1651.8,1515.4,1653.5,1512.3,1655.2"/>
			</g>
		</g>
		<polygon class="st36" points="1689.9,1678.8 1440,1678.8 1439.6,1658.6 1689.5,1658.6 		"/>
		<polygon class="st37" points="1393.6,1421.7 1061.2,1421.7 1072.9,1407.5 1405.3,1407.5 		"/>
		<polygon class="st36" points="1453.7,1678.8 1127.5,1678.8 1393.6,1421.7 1405.3,1407.5 		"/>
		<polygon class="st38" points="1440,1678.8 1107.6,1678.8 1061.2,1421.7 1393.6,1421.7 		"/>
		<path class="st39" d="M1280.1,1544.6c3.9,18.7-6.2,36.3-22.5,39.4c-16.3,3.1-32.7-9.5-36.5-28.2c-3.9-18.7,6.2-36.3,22.5-39.4
			C1259.9,1513.4,1276.3,1526,1280.1,1544.6"/>
		<polygon class="st40" points="1345.4,1705 1395.1,2368.9 1378.2,2368.9 1315.9,1736.3 1028.8,1736.3 988.6,2368.9 971.7,2368.9 
			998.2,1705 		"/>
		<polygon class="st40" points="2035,1705 2084.7,2368.9 2067.8,2368.9 2005.5,1736.3 1718.4,1736.3 1678.1,2368.9 1661.2,2368.9 
			1687.8,1705 		"/>
		<path class="st41" d="M1897.3,1678.8H986.4c-8,0-14.5,6.6-14.4,14.6c0.1,8,6.8,14.6,14.9,14.6h910.9c8,0,14.5-6.6,14.3-14.6
			C1912,1685.4,1905.3,1678.8,1897.3,1678.8"/>
		<path class="st42" d="M2053.6,1678.8h-385.4c-8,0-14.5,6.6-14.3,14.6s6.8,14.6,14.9,14.6h385.4c8,0,14.5-6.6,14.3-14.6
			C2068.3,1685.4,2061.6,1678.8,2053.6,1678.8"/>
		<path class="st39" d="M600.3,1270.9c2.8,160.8-121.3,292-280,299.8c-4.9,0.2-9.9,0.4-14.9,0.4c-165.8,0-302.5-134.4-305.4-300.1
			c-2.3-129.2,77.5-239.4,191.3-281.6c32.2-12,67.1-18.5,103.6-18.5C460.7,970.8,597.4,1105.2,600.3,1270.9"/>
		<g class="st43">
			<g>
				<defs>
					<rect id="SVGID_23_" x="164.8" y="970.8" width="435.5" height="599.9"/>
				</defs>
				<clipPath id="SVGID_24_">
					<use xlink:href="#SVGID_23_"  style="overflow:visible;"/>
				</clipPath>
				<path class="st44" d="M320.3,1570.7C139.5,1380.4,147,1155,191.3,989.3c32.2-12,67.1-18.5,103.6-18.5
					c165.8,0,302.5,134.4,305.4,300.1C603.1,1431.7,479,1562.9,320.3,1570.7"/>
			</g>
		</g>
		<polygon class="st38" points="445.6,1385.9 401.1,1385.9 397.9,1199.9 442.4,1199.9 		"/>
		<polygon class="st38" points="294.4,1385.9 249.9,1385.9 248.2,1286.8 292.7,1286.8 		"/>
		<polygon class="st38" points="218.8,1385.9 174.3,1385.9 173.2,1320.5 217.7,1320.5 		"/>
		<polygon class="st38" points="370,1385.9 325.5,1385.9 323.1,1247.7 367.6,1247.7 		"/>
		<polygon class="st45" points="176,1278.1 168.6,1265 393.2,1139.8 400.6,1152.8 		"/>
		<polygon class="st45" points="428.7,1126.9 382.8,1129.4 408.6,1168 		"/>
		<polygon class="st12" points="446.3,1422.2 143.7,1422.2 138.8,1146.3 144.8,1146.3 149.5,1416.3 446.2,1416.3 		"/>
		<path class="st39" d="M720.4,457.2c0.7,38.9-8.9,75.4-26.4,106.9c-36.1,65.3-105.6,109.4-186.2,109.4
			c-119.5,0-218-96.8-220.1-216.3c-1-56.8,20-108.5,55.2-147.1c38.8-42.6,94.7-69.2,157.3-69.2C619.7,240.9,718.3,337.8,720.4,457.2
			"/>
		<g class="st43">
			<g>
				<defs>
					<rect id="SVGID_25_" x="287.7" y="310.1" width="406.3" height="363.4"/>
				</defs>
				<clipPath id="SVGID_26_">
					<use xlink:href="#SVGID_25_"  style="overflow:visible;"/>
				</clipPath>
				<path class="st46" d="M694,564.1c-36.1,65.3-105.6,109.4-186.2,109.4c-119.5,0-218-96.8-220.1-216.3
					c-1-56.8,20-108.5,55.2-147.1C361.7,512.8,565,556.8,694,564.1"/>
			</g>
		</g>
		<path class="st45" d="M452.8,463.1c-6.1,2.4-11.4,6.6-15.2,11.9c-29,40.6,10.6,90.7,57.1,72.2c6.1-2.4,11.4-6.6,15.2-11.9
			C538.9,494.6,499.3,444.5,452.8,463.1 M516.6,450.1c-5.6-4.4-11.9-8-18.7-10.6c0,0,0,0,0,0l2.2-20l-33.2-4.2l-2.2,20c0,0,0,0,0,0
			c-7.2,0.8-14.1,2.7-20.5,5.6c0,0,0,0,0,0l-12.6-16l-26,20.4c0,0,12.5,15.8,12.6,16c0,0,0,0,0,0c-4.3,5.5-7.8,11.8-10.3,18.6
			c0,0,0,0,0,0l-20.1-2.6l-3.7,33.1l20.1,2.6c0,0,0,0,0,0c0.9,7.2,3,14.2,6,20.6c0,0,0,0,0,0L394.3,546l20.9,26.4l15.8-12.3
			c0,0,0,0,0,0c5.6,4.4,11.9,8,18.7,10.6c0,0,0,0,0,0l-2.2,20l33.2,4.2l2.2-20c0,0,0,0,0,0c7.2-0.8,14.1-2.7,20.5-5.6c0,0,0,0,0,0
			l12.6,16l26-20.4c0,0-12.5-15.8-12.6-16c0,0,0,0,0,0c4.3-5.5,7.8-11.8,10.3-18.6c0,0,0,0,0,0l20.1,2.6l3.7-33.1l-20.1-2.6
			c0,0,0,0,0,0c-0.9-7.2-3-14.2-6-20.6c0,0,0,0,0,0l15.8-12.3l-20.9-26.4L516.6,450.1C516.6,450.2,516.6,450.2,516.6,450.1
			 M523.5,530.4c-13.5,27.2-46.8,38-74.3,24c-27.5-14-38.8-47.4-25.3-74.7c13.5-27.2,46.8-38,74.3-24
			C525.7,469.8,537.1,503.2,523.5,530.4"/>
		<path class="st45" d="M539.8,348.4c-4.4,0-8.8,1.2-12.5,3.6c-28.4,18-16,58.9,17.8,59c4.4,0,8.8-1.2,12.5-3.6
			C586.1,389.5,573.7,348.6,539.8,348.4 M583.1,356.4c-2.4-4.1-5.5-7.9-9.1-11.3c0,0,0,0,0,0l6.4-11.9l-19.8-10.9l-6.4,11.9
			c0,0,0,0,0,0c-4.7-1.3-9.5-1.8-14.3-1.7c0,0,0,0,0,0l-4-13l-21.5,6.1c0,0,3.9,12.9,4,13.1c0,0,0,0,0,0c-4.1,2.3-7.9,5.4-11.1,8.9
			c0,0,0,0,0,0l-12-6.6l-10.6,19.6l12,6.6c0,0,0,0,0,0c-1.2,4.7-1.7,9.5-1.4,14.3c0,0,0,0,0,0l-13,3.7l6.5,21.6l13-3.7c0,0,0,0,0,0
			c2.4,4.1,5.5,7.9,9.1,11.3c0,0,0,0,0,0l-6.4,11.9l19.8,10.9l6.4-11.9c0,0,0,0,0,0c4.7,1.3,9.6,1.8,14.3,1.7c0,0,0,0,0,0l3.9,13
			l21.5-6.2c0,0-3.9-12.9-4-13.1c0,0,0,0,0,0c4.1-2.3,7.9-5.4,11.1-8.9c0,0,0,0,0,0l12,6.6l10.6-19.6l-12-6.6c0,0,0,0,0,0
			c1.2-4.7,1.7-9.5,1.4-14.3c0,0,0,0,0,0l13-3.7l-6.5-21.6L583.1,356.4C583.2,356.4,583.1,356.4,583.1,356.4 M567.5,407.9
			c-15.3,13.5-38.9,11.9-52.7-3.7c-13.8-15.5-12.6-39.1,2.7-52.6c15.3-13.5,38.9-11.9,52.7,3.7C584,370.8,582.8,394.3,567.5,407.9"
			/>
		<path class="st10" d="M612.1,1920.1c0.3,19.8-5.1,38.4-14.9,54.2c-18.5,29.8-52.4,49.7-91.4,49.7c-59.7,0-109-46.5-110-103.8
			c-0.5-29.4,11.7-55.9,31.9-74.8c19.1-18,45.4-29,74.5-29C561.9,1816.3,611.1,1862.8,612.1,1920.1"/>
		<path class="st39" d="M612.2,1924.4c0.4,20.7-5.1,40-14.9,56.4c-92.3-18.3-142.4-76.2-169.6-134.3c19.1-18.7,45.3-30.2,74.5-30.2
			C561.9,1816.3,611.1,1864.7,612.2,1924.4"/>
		<path class="st47" d="M494,1940.6c0.6,0.5,1.2,1,1.8,1.4C495.2,1941.6,494.6,1941.1,494,1940.6"/>
		<path class="st48" d="M498.5,1943.9l-1.7,2.1l-2.5,3.1l-13.7,17l-2.3,2.9l-10,12.5l-1.4,1.7l-1.3,1.6c-0.8,1-1.9,1.6-3.1,1.7
			c-0.3,0-0.6,0-0.9,0c-0.9-0.1-1.8-0.4-2.5-1c-0.9-0.7-1.4-1.7-1.7-2.7c-0.1-0.7-0.1-1.4,0-2c0.1-0.3,0.2-0.6,0.3-0.9c0,0,0,0,0,0
			c0.2-0.3,0.3-0.7,0.6-0.9l13.8-17.2l2.9-3.6l13.8-17.1l2.5-3.1c0.9,0.9,1.9,1.8,2.8,2.6c0.6,0.5,1.2,1,1.8,1.4
			C496.7,1942.7,497.6,1943.3,498.5,1943.9"/>
		<path class="st49" d="M505.3,1943c0,0.1-0.8,1.7-1.9,3.6c-1.7-0.8-3.3-1.7-4.9-2.7l-1.7,2.1l-2.5,3.1c-1.9-2.7-4.1-5.7-5.6-8.1
			l2.5-3.1c-0.5-0.5-1-1-1.4-1.5C496,1936.3,505.3,1942.8,505.3,1943"/>
		<path class="st48" d="M539.3,1866.1c-5-2.2-10.3-3.5-15.6-3.8c-6.2-0.3-12.4,0.6-18.4,2.9c-10.5,4.1-18.7,11.8-23.5,21.8
			c-0.2,0.5-0.5,1-0.7,1.6c-3.7,8.6-4.4,17.8-2.5,26.4c1.7,8,5.5,15.4,11.1,21.5c0.5,0.5,0.9,1,1.4,1.5c0.9,0.9,1.9,1.8,2.8,2.6
			c0.6,0.5,1.2,1,1.8,1.4c0.9,0.7,1.8,1.3,2.7,1.9c1.6,1,3.2,1.9,4.9,2.7c0.4,0.2,0.9,0.4,1.3,0.6c2.6,1.1,5.2,2,7.8,2.6
			c8.7,2.1,17.7,1.5,26.1-1.8c5.7-2.2,10.7-5.5,14.9-9.6c3.9-3.9,7.1-8.6,9.3-13.8C572.4,1902.3,561.8,1876,539.3,1866.1
			 M553.9,1920.7c-2,4.6-4.9,8.7-8.5,11.9c-3,2.7-6.5,4.8-10.4,6.3c-6.8,2.7-14.2,3-21.2,1.2c-1.8-0.5-3.5-1.1-5.3-1.8
			c-8.5-3.7-15.1-10.6-18.6-19.2c-3.4-8.5-3.4-17.8,0.1-26.2c0-0.1,0.1-0.2,0.1-0.3c3.6-8.4,10.3-14.9,18.9-18.3
			c4.3-1.7,8.9-2.5,13.4-2.3c4.4,0.1,8.8,1.1,13,3c10.8,4.8,18.1,14.3,20.4,25.1C557.3,1906.8,556.7,1914,553.9,1920.7"/>
		<path class="st10" d="M2876.6,1743.4c2.5,145.3-113.2,263-258.4,263c-43.4,0-84.5-10.5-120.9-29.1
			c-85.5-43.7-144.9-132-146.7-233.9c-2.5-145.3,113.2-263,258.4-263c84.1,0,159.6,39.4,208.8,100.8
			C2853.7,1625.9,2875.5,1682.2,2876.6,1743.4"/>
		<g class="st50">
			<g>
				<defs>
					<rect id="SVGID_27_" x="2350.5" y="1480.4" width="467.3" height="496.9"/>
				</defs>
				<clipPath id="SVGID_28_">
					<use xlink:href="#SVGID_27_"  style="overflow:visible;"/>
				</clipPath>
				<path class="st51" d="M2817.8,1581.2c-44,255.6-188.4,357.7-320.5,396.1c-85.5-43.7-144.9-132-146.7-233.9
					c-2.5-145.3,113.2-263,258.4-263C2693.1,1480.4,2768.6,1519.8,2817.8,1581.2"/>
			</g>
		</g>
		<path class="st11" d="M2580.5,1622.7h-133.8c-11.6,0-21,15-20.8,26.6l1,55.3c0.2,11.6,9.9,15.6,21.6,15.6h1.5l18.8,31l17-31h96.5
			c11.6,0,18.9-3.9,18.7-15.6l-1-55.3C2599.8,1637.7,2592.2,1622.7,2580.5,1622.7 M2479.6,1687.5c-5.8,0-10.6-4.7-10.7-10.5
			c-0.1-5.8,4.5-10.5,10.4-10.5s10.6,4.7,10.7,10.5C2490.1,1682.8,2485.5,1687.5,2479.6,1687.5 M2514.8,1687.5
			c-5.8,0-10.6-4.7-10.7-10.5c-0.1-5.8,4.5-10.5,10.4-10.5c5.8,0,10.6,4.7,10.7,10.5C2525.2,1682.8,2520.6,1687.5,2514.8,1687.5
			 M2549.9,1687.5c-5.8,0-10.6-4.7-10.7-10.5c-0.1-5.8,4.5-10.5,10.4-10.5c5.8,0,10.6,4.7,10.7,10.5
			C2560.4,1682.8,2555.8,1687.5,2549.9,1687.5"/>
		<path class="st39" d="M2623.9,1771.7h133.8c11.6,0,21.5,15,21.7,26.6l1,55.3c0.2,11.6-9.4,15.6-21,15.6h-1.5l-17.7,31l-18.1-31
			h-96.5c-11.6,0-19.1-3.9-19.3-15.6l-1-55.3C2605.2,1786.7,2612.3,1771.7,2623.9,1771.7 M2727.1,1836.5c5.8,0,10.5-4.7,10.4-10.5
			c-0.1-5.8-4.9-10.5-10.7-10.5c-5.8,0-10.5,4.7-10.4,10.5C2716.4,1831.8,2721.2,1836.5,2727.1,1836.5 M2691.9,1836.5
			c5.8,0,10.5-4.7,10.4-10.5c-0.1-5.8-4.9-10.5-10.7-10.5c-5.8,0-10.5,4.7-10.4,10.5C2681.3,1831.8,2686.1,1836.5,2691.9,1836.5
			 M2656.8,1836.5c5.8,0,10.5-4.7,10.4-10.5c-0.1-5.8-4.9-10.5-10.7-10.5c-5.8,0-10.5,4.7-10.4,10.5
			C2646.1,1831.8,2651,1836.5,2656.8,1836.5"/>
		<path class="st39" d="M2937.2,763.9c1.7,97.4-39.8,184.7-106.9,244.1c-56,49.5-129.8,79.5-211.1,79.5
			c-178.7,0-326.1-144.9-329.2-323.6c-1.5-85,30-162.4,82.6-220.2c58-63.6,141.6-103.4,235.3-103.4
			C2786.7,440.3,2934.1,585.2,2937.2,763.9"/>
		<path class="st12" d="M2818.9,808.8c0,0.2,2,5.2,4,10c2.3,5.4,3,12.1,2.1,18.7l-6.6,46.5c-1.1,7.7,2.6,14.2,8,14.2
			c4.7,0,9-4.9,10.2-11.5l14.6-77.7L2818.9,808.8z"/>
		<g class="st52">
			<g>
				<defs>
					<rect id="SVGID_29_" x="2818.9" y="808.8" width="32.3" height="89.1"/>
				</defs>
				<clipPath id="SVGID_30_">
					<use xlink:href="#SVGID_29_"  style="overflow:visible;"/>
				</clipPath>
				<path class="st53" d="M2821.5,815.3c-1.4-3.5-2.6-6.4-2.6-6.5l32.2,0.2l-14.6,77.7c-1,5.6-4.3,10-8.1,11.2
					c4.9-20.8,5.7-45.8,8.5-64C2840.8,817.1,2829.5,819.5,2821.5,815.3"/>
			</g>
		</g>
		<path class="st11" d="M2574.7,872.7c0,0,78.8-63.3,213.3-37l12.3-68.8c-134.5-26.3-186.1-115.1-186.1-115.1L2574.7,872.7z"/>
		<g class="st52">
			<g>
				<defs>
					<rect id="SVGID_31_" x="2574.7" y="800.5" width="219.6" height="72.2"/>
				</defs>
				<clipPath id="SVGID_32_">
					<use xlink:href="#SVGID_31_"  style="overflow:visible;"/>
				</clipPath>
				<path class="st54" d="M2586,809.7c64.4,18,123.1,3.5,190.7-7.1c5.8-1,11.7-1.7,17.6-2.2l-6.3,35.2
					c-134.4-26.3-213.3,37-213.3,37L2586,809.7z"/>
			</g>
		</g>
		<path class="st12" d="M2614.2,651.8c-24.9-4.9-54,40.6-64.9,101.6c-10.9,61,0.5,114.4,25.4,119.3c24.9,4.9,54-40.6,64.9-101.6
			C2650.5,710.1,2639.2,656.7,2614.2,651.8"/>
		<path class="st36" d="M2613.2,657.9c-21.2-4.1-46.6,38.8-56.8,95.9c-10.2,57.1-1.3,106.8,19.9,110.9c21.2,4.1,46.6-38.8,56.8-95.9
			C2643.2,711.7,2634.3,662,2613.2,657.9"/>
		<g class="st52">
			<g>
				<defs>
					<rect id="SVGID_33_" x="2588.1" y="692.1" width="49.2" height="147.6"/>
				</defs>
				<clipPath id="SVGID_34_">
					<use xlink:href="#SVGID_33_"  style="overflow:visible;"/>
				</clipPath>
				<path class="st55" d="M2634.9,693.6c-1.1-0.6-2.2-1.1-3.3-1.3c-15.1-3-33.2,27.6-40.5,68.3c-7.3,40.7-0.9,76,14.1,78.9
					c1.2,0.2,2.4,0.2,3.6,0.1c10.3-17.4,19.1-42.3,24.2-70.8C2638.1,740.3,2638.5,713.6,2634.9,693.6"/>
			</g>
		</g>
		<path class="st56" d="M2835.5,773.4l-46.7-9.1l0.3,2.5c2.7,21.7-1,43.6-10.7,63l-2,4l46.7,9.1c15,2.9,29.2-6.3,31.8-20.7l3.1-17.4
			C2860.5,790.3,2850.4,776.3,2835.5,773.4"/>
		<path class="st10" d="M2776.3,833.7l15.5,3l11.9,2.3l19.3,3.8c15,2.9,29.2-6.3,31.7-20.7l3.1-17.4c2.6-14.4-7.5-28.4-22.4-31.3
			l-21.3-4.2l-10.7-2.1l-14.7-2.9l0.3,2.5c2.7,21.7-1,43.6-10.7,63L2776.3,833.7z"/>
		<path class="st12" d="M2791.9,836.8l11.9,2.3c8.8-22.1,12.3-45.9,10.4-69.9l-10.7-2.1C2804.9,791,2801,814.8,2791.9,836.8"/>
		<path class="st57" d="M2584.6,759.3c-1.5,8.5,2.7,17.2,10.8,22.1l30.2,18.4c2.9-9.7,5.5-20.1,7.4-31c2-10.9,3.2-21.6,3.8-31.7
			l-34.6,5.7C2593.1,744.3,2586.1,750.8,2584.6,759.3"/>
		<path class="st11" d="M2597.6,761.8c-1.4,7.7-5.4,13.3-9,12.6c-3.6-0.7-5.4-7.5-4-15.2c1.4-7.7,5.4-13.3,9-12.6
			C2597.1,747.4,2598.9,754.1,2597.6,761.8"/>
		<g class="st52">
			<g>
				<defs>
					<rect id="SVGID_35_" x="2776.3" y="800.4" width="81.9" height="43"/>
				</defs>
				<clipPath id="SVGID_36_">
					<use xlink:href="#SVGID_35_"  style="overflow:visible;"/>
				</clipPath>
				<path class="st58" d="M2778.3,829.7c4.5-9,7.7-18.6,9.6-28.4c21.4-2.1,47.6,1.9,70.4-0.9c0,1.4-0.1,2.9-0.4,4.4l-3.1,17.4
					c-2.6,14.4-16.8,23.6-31.7,20.7l-19.3-3.8l-11.9-2.3l-15.5-3L2778.3,829.7z"/>
			</g>
		</g>
		<line class="st59" x1="2432.9" y1="615.8" x2="2547.9" y2="690"/>
		<line class="st59" x1="2530.5" y1="745.2" x2="2383.7" y2="716.1"/>
		<line class="st59" x1="2526.9" y1="805.3" x2="2386.7" y2="819.2"/>
		<line class="st59" x1="2531.5" y1="851.3" x2="2424.3" y2="891.4"/>
		<g class="st43">
			<g>
				<defs>
					<rect id="SVGID_37_" x="2290" y="543.7" width="540.4" height="543.8"/>
				</defs>
				<clipPath id="SVGID_38_">
					<use xlink:href="#SVGID_37_"  style="overflow:visible;"/>
				</clipPath>
				<path class="st60" d="M2619.2,1087.5c-178.7,0-326.1-144.9-329.2-323.6c-1.5-85,30-162.4,82.6-220.2
					c15.4,263.2,304.8,406.6,457.7,464.2C2774.3,1057.5,2700.6,1087.5,2619.2,1087.5"/>
			</g>
		</g>
	</g>
</g>
</svg>
