<?xml version="1.0" encoding="utf-8"?>
<!-- Generator: Adobe Illustrator 21.1.0, SVG Export Plug-In . SVG Version: 6.00 Build 0)  -->
<svg version="1.1" id="Слой_1" xmlns="http://www.w3.org/2000/svg" xmlns:xlink="http://www.w3.org/1999/xlink" x="0px" y="0px"
	 viewBox="0 0 3017.3 2400" enable-background="new 0 0 3017.3 2400" xml:space="preserve">
<g>
	<defs>
		<rect id="SVGID_1_" width="3017.3" height="2400"/>
	</defs>
	<clipPath id="SVGID_2_">
		<use xlink:href="#SVGID_1_"  overflow="visible"/>
	</clipPath>
	<g clip-path="url(#SVGID_2_)">
		<defs>
			<rect id="SVGID_3_" width="3017.3" height="2400"/>
		</defs>
		<clipPath id="SVGID_4_">
			<use xlink:href="#SVGID_3_"  overflow="visible"/>
		</clipPath>
		<g opacity="0.6" clip-path="url(#SVGID_4_)">
			<g>
				<defs>
					<rect id="SVGID_5_" width="3017.3" height="2400"/>
				</defs>
				<clipPath id="SVGID_6_">
					<use xlink:href="#SVGID_5_"  overflow="visible"/>
				</clipPath>
				<path clip-path="url(#SVGID_6_)" fill="#DDF1FA" d="M1102.6,2375.6c0,0-1191.8-61.8-1097.2-1314.2S1331.1-179.2,1732.5,300.7
					c401.4,479.9,1325.8,231.3,1283.4,1118.5C2973.5,2306.4,1741.5,2472.4,1102.6,2375.6"/>
			</g>
		</g>
	</g>
	
		<line clip-path="url(#SVGID_2_)" fill="none" stroke="#8FC0FA" stroke-width="7" stroke-miterlimit="10" x1="663.7" y1="1398.2" x2="659.5" y2="1382.8"/>
	
		<line clip-path="url(#SVGID_2_)" fill="none" stroke="#8FC0FA" stroke-width="7" stroke-miterlimit="10" stroke-dasharray="31.126,31.126" x1="651.4" y1="1352.7" x2="525.1" y2="887.1"/>
	<polyline clip-path="url(#SVGID_2_)" fill="none" stroke="#8FC0FA" stroke-width="7" stroke-miterlimit="10" points="521,872.1 
		516.8,856.7 532.4,853.1 	"/>
	
		<line clip-path="url(#SVGID_2_)" fill="none" stroke="#8FC0FA" stroke-width="7" stroke-miterlimit="10" stroke-dasharray="31.951,31.951" x1="563.5" y1="845.9" x2="1855.7" y2="548.6"/>
	<polyline clip-path="url(#SVGID_2_)" fill="none" stroke="#8FC0FA" stroke-width="7" stroke-miterlimit="10" points="1871.3,545 
		1886.9,541.4 1899,551.9 	"/>
	
		<line clip-path="url(#SVGID_2_)" fill="none" stroke="#8FC0FA" stroke-width="7" stroke-miterlimit="10" stroke-dasharray="32.823,32.823" x1="1923.7" y1="573.5" x2="2554.2" y2="1123.9"/>
	<polyline clip-path="url(#SVGID_2_)" fill="none" stroke="#8FC0FA" stroke-width="7" stroke-miterlimit="10" points="
		2566.6,1134.7 2578.6,1145.2 2570.6,1159 	"/>
	
		<line clip-path="url(#SVGID_2_)" fill="none" stroke="#8FC0FA" stroke-width="7" stroke-miterlimit="10" stroke-dasharray="31.004,31.004" x1="2554.9" y1="1185.8" x2="2249.5" y2="1707.6"/>
	
		<line clip-path="url(#SVGID_2_)" fill="none" stroke="#8FC0FA" stroke-width="7" stroke-miterlimit="10" x1="2241.7" y1="1720.9" x2="2233.6" y2="1734.8"/>
	<g clip-path="url(#SVGID_2_)">
		<defs>
			<rect id="SVGID_7_" width="3017.3" height="2400"/>
		</defs>
		<clipPath id="SVGID_8_">
			<use xlink:href="#SVGID_7_"  overflow="visible"/>
		</clipPath>
		<path clip-path="url(#SVGID_8_)" fill="#FFFFFF" d="M2157.3,1719.9H881c-23.2,0-41.9-18.8-41.9-41.9V839
			c0-23.2,18.8-41.9,41.9-41.9h1276.3c23.2,0,41.9,18.8,41.9,41.9v838.9C2199.2,1701.1,2180.5,1719.9,2157.3,1719.9"/>
		<path clip-path="url(#SVGID_8_)" fill="#C7DEFE" d="M1254.9,1585.9H950.4c-3.1,0-5.7-2.5-5.7-5.7v-572.1c0-3.1,2.5-5.7,5.7-5.7
			h304.4c3.1,0,5.7,2.5,5.7,5.7v572.1C1260.5,1583.4,1258,1585.9,1254.9,1585.9"/>
	</g>
	<g clip-path="url(#SVGID_2_)">
		<defs>
			<path id="SVGID_9_" d="M950.4,1002.6c-3.1,0-5.7,2.5-5.7,5.7v572.1c0,3.1,2.5,5.7,5.7,5.7h304.4c3.1,0,5.7-2.5,5.7-5.7v-572.1
				c0-3.1-2.5-5.7-5.7-5.7H950.4z"/>
		</defs>
		<clipPath id="SVGID_10_">
			<use xlink:href="#SVGID_9_"  overflow="visible"/>
		</clipPath>
		<path clip-path="url(#SVGID_10_)" fill="#E2EAF7" d="M1254.9,1585.9H950.4c-3.1,0-5.7-2.5-5.7-5.7v-572.1c0-3.1,2.5-5.7,5.7-5.7
			h304.4c3.1,0,5.7,2.5,5.7,5.7v572.1C1260.5,1583.4,1258,1585.9,1254.9,1585.9"/>
	</g>
	<g clip-path="url(#SVGID_2_)">
		<defs>
			<rect id="SVGID_11_" width="3017.3" height="2400"/>
		</defs>
		<clipPath id="SVGID_12_">
			<use xlink:href="#SVGID_11_"  overflow="visible"/>
		</clipPath>
		<rect x="1302" y="1002.6" clip-path="url(#SVGID_12_)" fill="#F3F6FC" width="753.4" height="14.3"/>
		<rect x="1302" y="1032.3" clip-path="url(#SVGID_12_)" fill="#F3F6FC" width="753.4" height="14.3"/>
		<rect x="1302" y="1062" clip-path="url(#SVGID_12_)" fill="#F3F6FC" width="753.4" height="14.3"/>
		<rect x="1302" y="1091.6" clip-path="url(#SVGID_12_)" fill="#F3F6FC" width="753.4" height="14.3"/>
		<rect x="1302" y="1121.3" clip-path="url(#SVGID_12_)" fill="#F3F6FC" width="753.4" height="14.3"/>
		<rect x="1302" y="1151" clip-path="url(#SVGID_12_)" fill="#F3F6FC" width="753.4" height="14.3"/>
		<path clip-path="url(#SVGID_12_)" fill="#2946FB" d="M2181.8,731.5c-9.4-7.4-21.5-11.8-34.8-11.8H891.3
			c-29.5,0-53.6,22.1-53.6,49.2v903c0,22.2,16.1,40.9,38,47.1c4.9,1.4,10.1,2.1,15.5,2.1H2147c29.5,0,53.6-22.1,53.6-49.2v-903
			C2200.6,753.9,2193.3,740.5,2181.8,731.5 M2187.9,1671.9c0,20.7-18.3,37.5-40.9,37.5H891.3c-2.5,0-4.9-0.2-7.3-0.6
			c-19.1-3.2-33.6-18.5-33.6-36.9V856.7h1337.5V1671.9z"/>
		<path clip-path="url(#SVGID_12_)" fill="#FFFFFF" d="M1899.5,822.4H1324c-18.5,0-33.6-13.8-33.6-30.8c0-17,15-30.8,33.6-30.8
			h575.5c18.5,0,33.6,13.8,33.6,30.8C1933.1,808.6,1918.1,822.4,1899.5,822.4"/>
		<path clip-path="url(#SVGID_12_)" fill="#FFFFFF" d="M891,808.8c-1.6,0-3.3-0.6-4.5-1.7c-2.5-2.3-2.5-6,0-8.3l30.7-28.2
			c2.5-2.3,6.6-2.3,9.1,0c2.5,2.3,2.5,6,0,8.3l-30.7,28.2C894.3,808.2,892.6,808.8,891,808.8"/>
		<path clip-path="url(#SVGID_12_)" fill="#FFFFFF" d="M921.7,808.8c-1.6,0-3.3-0.6-4.5-1.7l-30.7-28.2c-2.5-2.3-2.5-6,0-8.3
			c2.5-2.3,6.6-2.3,9.1,0l30.7,28.2c2.5,2.3,2.5,6,0,8.3C925,808.2,923.4,808.8,921.7,808.8"/>
		<path clip-path="url(#SVGID_12_)" fill="#FFFFFF" d="M1052.4,768.8c-12,0-21.8,9-21.8,20c0,2.9,0.7,5.7,1.9,8.2
			c3.4,6.9,11,11.8,19.8,11.8c8.8,0,16.4-4.8,19.8-11.8c1.2-2.5,1.9-5.3,1.9-8.2C1074.2,777.8,1064.4,768.8,1052.4,768.8
			 M1043.5,788.8c0-4.5,4-8.2,9-8.2c4.9,0,8.9,3.7,8.9,8.2c0,4.5-4,8.2-8.9,8.2C1047.5,797,1043.5,793.3,1043.5,788.8"/>
		<path clip-path="url(#SVGID_12_)" fill="#FFFFFF" d="M993.9,794.7H961c-3.5,0-6.4-2.6-6.4-5.9c0-3.2,2.9-5.9,6.4-5.9h32.9
			c3.5,0,6.4,2.6,6.4,5.9C1000.3,792,997.4,794.7,993.9,794.7"/>
		<g opacity="0.37" clip-path="url(#SVGID_12_)">
			<g>
				<defs>
					<rect id="SVGID_13_" x="875.7" y="719.7" width="1306.1" height="1001.4"/>
				</defs>
				<clipPath id="SVGID_14_">
					<use xlink:href="#SVGID_13_"  overflow="visible"/>
				</clipPath>
				<path clip-path="url(#SVGID_14_)" fill="#FFFFFF" d="M2181.8,731.5l-53.7,65.5l-48.9,59.6l-405.9,495.4l-29.6,36.1l-1.5,1.9
					l-29.6,36.1l-232.1,283.3l-8.6,10.4l-1,1.2H891.3c-5.4,0-10.6-0.7-15.5-2.1l0.6-0.8l7.7-9.4l613.5-751.1l21.4-26.2l61.2-74.9
					l28-34.2l20.8-25.4l29.6-36.3l33.5-41h455C2160.3,719.7,2172.4,724.2,2181.8,731.5"/>
			</g>
		</g>
		<g opacity="0.37" clip-path="url(#SVGID_12_)">
			<g>
				<defs>
					<rect id="SVGID_15_" x="837.7" y="719.7" width="456" height="486.1"/>
				</defs>
				<clipPath id="SVGID_16_">
					<use xlink:href="#SVGID_15_"  overflow="visible"/>
				</clipPath>
				<polygon clip-path="url(#SVGID_16_)" fill="#FFFFFF" points="1293.7,719.7 1221.2,797 1165.2,856.7 850.4,1192.2 839,1204.4 
					837.7,1205.8 837.7,1081.4 839,1079.9 850.4,1067.2 1038.3,856.7 1091.5,797 1160.5,719.7 				"/>
			</g>
		</g>
		<rect x="1311.5" y="1212.8" clip-path="url(#SVGID_12_)" fill="#E2EAF7" width="743.9" height="373.2"/>
		<polygon clip-path="url(#SVGID_12_)" fill="#FFFFFF" points="1628.6,1305.2 1628.6,1480.3 1785.5,1392.7 		"/>
		<path clip-path="url(#SVGID_12_)" fill="#F9C89A" d="M1261.1,1322.7c-3.2,8.2-22.2-4.8-31.6,11.6c-9.5,16.4-23.4,44.5-39.8,47.2
			c-16.4,2.7-65.1-16.2-65.1-16.2c-1.9,7-12.6,30.4-8.9,39.8c2.2,5.4,9.2,11,14.8,14.8c4.2,2.9,7.7,4.8,7.7,4.8s25.6,17.1,16.8,31.6
			c-8.9,14.5-80.3,34.1-98.6,17.7c-18.3-16.4-41.7-75.3-41.7-75.3l8.9-11.1c0,0,1.5-0.9,3.9-2.7c6.4-5,19-16.6,23.7-34.8
			c2.2-8.7,2.6-18.8-0.3-30.4c-8.2-32.4,1.7-83.9,30.7-107c11.2-8.9,25.2-13.6,42.1-11.3c60.7,8.2,106.2,8.9,106.2,8.9
			s15.2,38.6,10.1,67C1234.5,1305.8,1264.3,1314.5,1261.1,1322.7"/>
		<path clip-path="url(#SVGID_12_)" fill="#F3A566" d="M1154.8,1456.3c-8.9,14.5-80.3,34.1-98.6,17.7
			c-18.3-16.4-41.7-75.3-41.7-75.3l8.9-11.1c0,0,1.5-0.9,3.9-2.7c40.9,62.1,87.5,69.4,100.2,62.2c12.6-7.3,3.1-27.2,3.1-27.2
			c4.2,2.9,7.7,4.8,7.7,4.8S1163.7,1441.8,1154.8,1456.3"/>
		<path clip-path="url(#SVGID_12_)" fill="#F9C89A" d="M2055,1443c-2.2,14.5-98.3,17.7-93.9-12c0.6-3.8,0.7-7.7,0.4-11.6
			c-1.6-27.5-19.6-58.3-20.7-63.3c-1.3-5.7-39.2,5.1-59.4,5.1c-20.2,0-34.2-46.2-36.4-55.4c-2.2-9.2-12-8.8-18-16.4
			c-6-7.6,25.9-26.6,27.8-54.1c1.9-27.5,19.3-62,19.3-62s111.6,6.3,143.2,25.9c31.6,19.6,7.9,69.2,9.5,111.9
			c1,27.9,10.6,65.5,17.1,88.2c3.4,12,6,19.9,6,19.9S2057.2,1428.5,2055,1443"/>
		<path clip-path="url(#SVGID_12_)" fill="#F3A566" d="M2055,1443c-2.2,14.5-98.3,17.7-93.9-12c0.6-3.8,0.7-7.7,0.4-11.6
			c0.6,0.2,31.1,13.1,54.6-2.3c9.7-6.4,19.6-12.6,27.8-17.7c3.4,12,6,19.9,6,19.9S2057.2,1428.5,2055,1443"/>
		<path clip-path="url(#SVGID_12_)" fill="#F3A566" d="M1865.9,1192.2c0,0,27.7,12.1,51.3,17.1c23.6,5.1,39.8,31,42.4,48.7
			c2.5,17.7,11,10.4,11,10.4s1.4-34.3,8.4-38.7c7-4.4,31-4.7,36,11.7c5.1,16.4,3.4,23.2,3.4,23.2s-11.6,53-4.7,65
			c7,12,16.6,12.1,16.6,12.1l-2.4-17.6c0,0,22.6-113.3-3.3-128.8c-25.9-15.5-97.1-30-120.1-27.2c-23.1,2.8-36.1,18.1-36.1,18.1
			L1865.9,1192.2z"/>
		<path clip-path="url(#SVGID_12_)" fill="#F47722" d="M1966.4,1263.1c0,0-1-40.8-25.6-54.7c-24.7-13.9-181.9-24.7-131.7-124.3
			c50.3-99.6,125.8-10.3,120.6,48.1c-5.2,58.3,103.2-18.2,137.8,70c34.6,88.2-38.9,129.3-38.9,129.3s-11.4,6.4-11.4-9.8
			c0-16.1,1.9-34.1,1.9-34.1s5.5-57.3-30.6-49.3c0,0-11.2,0.6-14.8,20.2C1970.3,1278.2,1966.4,1263.1,1966.4,1263.1"/>
		<path clip-path="url(#SVGID_12_)" fill="#397CF2" d="M2328.5,2048.8c0,0-4.9,1.4-13.6,2.7c-11.5,1.6-29.6,3-52.2,0.5h-338.3
			c0,0-19.6-261.8-19.6-290.9c0,0-30.2,38.3-91.4,37.8c-74.6-0.6-184.3-25.8-184.3-25.8s-2.5-50,4.4-65.8c0,0,148.6,0.6,160-13.3
			c11.4-13.9,117.6-185.9,139.7-203.6c22.1-17.7,11.5-74.9,28.4-67.2c0,0,30.9,27.8,85.1-14.3c0,0,5.4-9.6,13.7,1.4
			C2068.6,1421.3,2298.1,1606.8,2328.5,2048.8"/>
		<path clip-path="url(#SVGID_12_)" fill="#2C5BF3" d="M1904.8,1761.1c0,0,85-152.9,91.7-149.5c6.6,3.3-44.7,210.3-86.6,237.7
			L1904.8,1761.1z"/>
		<path clip-path="url(#SVGID_12_)" fill="#2C5BF3" d="M2314.9,2051.5c-11.5,1.6-29.6,3-52.2,0.5c0.6-221.6-74.6-426.2-74.6-426.2
			C2189.7,1539.7,2290.9,1952.3,2314.9,2051.5"/>
		<path clip-path="url(#SVGID_12_)" fill="#F9C89A" d="M1635.1,1767.6c-27.5-10-111.5,19.4-134.2,11.4c-3.7-1.3-7.2-3.2-10.3-5.4
			c-16-11.2-24.3-31.1-24.3-31.1l-4.3-9c0,0,56.9-41.3,76.4-44.1c16.3-2.4,70.7,17.1,87.8,23.4c3.3,1.2,5.2,2,5.2,2
			S1662.6,1777.5,1635.1,1767.6"/>
		<path clip-path="url(#SVGID_12_)" fill="#F3A566" d="M1557.1,1698.5c0,0,16.9,18.1,14.6,25.7c-2.3,7.6-20,6.8-33.7,1.8
			c-13.7-5-67.6,24.6-67.6,24.6l-4.2-5.6l74.3-36.6L1557.1,1698.5z"/>
		<path clip-path="url(#SVGID_12_)" fill="#F9C89A" d="M1567.8,1724.1c-15.6,5.9-30.9-2.6-31.3-2.8l0,0
			c-12.3-1.6-67.9,25.9-67.9,25.9c-1.2-1.3-2.6-2.5-4.1-3.7c-4.7-3.9-10.3-7.7-16-11.1c-15.6-9.2-32.1-15.8-32.1-15.8
			c-29.7-25,13.3-51.9,13.3-51.9s13.2,7.3,27.5,14.5c13.3,6.6,27.5,13.1,33.2,13.4c11.7,0.6,45.2-7.3,54.4-11.7
			c9.2-4.4,11.1,23.7,20.2,31.9C1574.1,1720.9,1567.8,1724.1,1567.8,1724.1"/>
		<path clip-path="url(#SVGID_12_)" fill="#F3A566" d="M1536.5,1721.3c-21.8,3.3-67.9,25.9-67.9,25.9c-1.2-1.3-2.6-2.5-4.1-3.7
			c3.6-2.6,8.9-5.5,17-8.7c31-12.1,40.2-35,43.3-28.8C1527.9,1712.1,1536.5,1721.3,1536.5,1721.3"/>
		<path clip-path="url(#SVGID_12_)" fill="#F3A566" d="M1635.1,1767.6c-27.5-10-111.5,19.4-134.2,11.4c-3.7-1.3-7.2-3.2-10.3-5.4
			c6.2,0.9,19.8,1.4,26.1-4.5c34.4-32.6,64.9-26.5,83.5-24c17.3,2.3,25.9-32.3,25.9-32.3c3.3,1.2,5.2,2,5.2,2
			S1662.6,1777.5,1635.1,1767.6"/>
		<path clip-path="url(#SVGID_12_)" fill="#F9C89A" d="M1522.3,1781c0,0,10.1,14.9,38.2,5.5c28.1-9.4,33.2-12.7,31.3-29.8
			C1589.9,1739.6,1509.4,1762.3,1522.3,1781"/>
		<path clip-path="url(#SVGID_12_)" fill="#F3A566" d="M1448.4,1732.4c-15.6-9.2-32.1-15.8-32.1-15.8c-29.7-25,13.3-51.9,13.3-51.9
			s13.2,7.3,27.5,14.5C1451.4,1687.8,1443.4,1705.6,1448.4,1732.4"/>
		<path clip-path="url(#SVGID_12_)" fill="#F8BC3F" d="M1447.2,1674.1c0,0-25.5,15.6-15.7,49.3c0,0,1.9,4.9-5.4,4.9
			c-7.3,0-86-31.3-123.9-50.3c-37.9-19-128.1-63.9-128.1-63.9s-34.5,378.5-28.1,431.6H774.8c0,0-6.6-268.3,9.5-310.9
			c16.1-42.6-19.8-100.1-19.8-100.1s87.1-202.4,139.3-225.1c52.2-22.8,119.5-21.8,119.5-21.8s15.2,42.2,52.2,62.6
			c37,20.4,80.6,0,62.6-25.6c0,0-1.4-8.1,8.1-1.9c9.5,6.2,78.9,56.9,116.8,109.4c31.6,43.8,152.8,111.6,180.4,134.3
			C1448.8,1671,1450.6,1673.7,1447.2,1674.1"/>
		<path clip-path="url(#SVGID_12_)" fill="#F6A438" d="M773.5,1917.6c0,0,59.3,10.3,82.1,30.2c22.7,19.9,77.8,29.9,111.4,19
			c33.6-10.9,90-25.6,109.2-25.1c19.2,0.5,18.3-109.1,18.3-109.1l-321,65.4V1917.6z"/>
		<path clip-path="url(#SVGID_12_)" fill="#F6A438" d="M961.7,1539.5c0,0-60.2,125.7-65.4,134.2c-5.2,8.5,65.4,1.9,65.4,1.9
			s-26.6-4.3-16.1-43.6C956,1592.6,983.5,1519.1,961.7,1539.5"/>
		<path clip-path="url(#SVGID_12_)" fill="#F6A438" d="M1447.2,1674.1c0,0-25.5,15.6-15.7,49.3c0,0,1.9,4.9-5.4,4.9
			c-7.3,0-86-31.3-123.9-50.3c-37.9-19-128.1-63.9-128.1-63.9s5.4-52.1,17.7-63.8c12.3-11.7-12.7,55,32.2,79s197.6,96.1,200,80
			c1.9-12.8,4.8-35.8,19.3-42.8C1448.8,1671,1450.6,1673.7,1447.2,1674.1"/>
		<path clip-path="url(#SVGID_12_)" fill="#C7DEFE" d="M1095.9,1788.9c0.9,21.8-2,51.6-5.5,78c-4.4,33.5-9.8,61.7-9.8,61.7
			l-68.4-6.3l4.6-13.3l55.9-160.5l12.4-35.6l5.9,1l15.8,2.7C1106.7,1716.7,1093.9,1739.6,1095.9,1788.9"/>
		<path clip-path="url(#SVGID_12_)" fill="#FFFFFF" d="M1094.5,1699.1c0,0-1.4,5.4-3.6,14.9c-4.5,19.8-12.2,57.2-16.6,98.8v0
			c-3.4,32.8-4.8,68.3-1,100c0,0-22.9-1.3-56.6-3.8c-84.6-6.1-237.6-19.2-269.4-35.4c-36.8-18.8-30.6-172.8-27.4-225.7
			c0.7-11.1,1.2-17.8,1.2-17.8S1032.7,1648.5,1094.5,1699.1"/>
		<g opacity="0.19" clip-path="url(#SVGID_12_)">
			<g>
				<defs>
					<rect id="SVGID_17_" x="717.5" y="1648" width="355.7" height="263.5"/>
				</defs>
				<clipPath id="SVGID_18_">
					<use xlink:href="#SVGID_17_"  overflow="visible"/>
				</clipPath>
				<path clip-path="url(#SVGID_18_)" fill="#133A60" d="M1059.4,1911.5c-84.6-6.1-280.3-21.6-312.1-37.9
					c-36.8-18.8-30.6-172.8-27.4-225.7c0,0,345,46.7,351.1,61.3c2.6,6.2,2.2,21.8,1.5,39.4
					C1071.7,1772.6,1059.4,1911.5,1059.4,1911.5"/>
			</g>
		</g>
		<path clip-path="url(#SVGID_12_)" fill="#E32B2C" d="M1061.6,1726.5l-15.8,184.6l-0.8,9.1c-0.7,7.8-6.8,13.5-13.7,12.7
			l-339.9-39.7c-6.9-0.8-11.9-7.9-11.1-15.8l22.1-208.9c0.8-7.9,7.2-13.4,14.1-12.3l172.3,28.2l162.1,26.6
			C1057.6,1712.2,1062.3,1719,1061.6,1726.5"/>
		<path clip-path="url(#SVGID_12_)" fill="#CA1017" d="M1045.8,1911.1l-0.8,9.1c-0.7,7.8-6.8,13.5-13.7,12.7l-131.1-15.3l-78.9-9.2
			l-129.9-15.2c-6.9-0.8-11.9-7.9-11.1-15.8l22.1-208.9c0.8-7.9,7.2-13.4,14.1-12.3l44.9,7.3l18.6,3l108.9,17.8
			C888.9,1684.5,925.5,1841.1,1045.8,1911.1"/>
		<path clip-path="url(#SVGID_12_)" fill="#AD000D" d="M900.3,1917.6l-78.9-9.2c0,0-58.5-137.2-66.3-180.2
			c-7.8-43,6.3-64.6,6.3-64.6l18.6,3C780,1666.7,892,1865.9,900.3,1917.6"/>
		<path clip-path="url(#SVGID_12_)" fill="#F9C89A" d="M996.9,1930.7c-0.7,6.8-15.4,9-15.4,9s0.9,0.4,2,1.1h0c1.6,1,3.8,2.6,4.7,4.6
			c1.4,3.3-15.7,10-15.7,10s-14.2,5.7-18.5,6.2c-4.3,0.5-28.5-1.4-35.6-5.7c-7.1-4.3-39.4-21.8-50.6-36.5
			c-6.9-9-33.2-50.6-52.5-81.3l0,0c0,0,0,0,0-0.1c-12-19.1-21.2-34-21.2-34c-3.4-30.4,49.9-63.5,68.8-47.4
			c6.3,5.4,10.4,15.6,13.3,27.7c5.9,24.1,7,55,11.8,66.7c7.1,17.5,78.7,29.4,84.9,46c6.2,16.6,18.5,20.9,23.2,30.3
			C996.9,1928.6,997.1,1929.7,996.9,1930.7"/>
		<path clip-path="url(#SVGID_12_)" fill="#F3A566" d="M981.6,1939.7c0,0-19.6-18.6-26.8-30.5c-6.6-10.8,18.1,18.8,42.1,21.5
			C996.2,1937.5,981.6,1939.7,981.6,1939.7"/>
		<path clip-path="url(#SVGID_12_)" fill="#F3A566" d="M876.4,1784.3c0,0-52.8-0.4-59.2,22.9c-6.1,22-2.2,29.9-1.8,30.7
			c-12-19.1-21.2-34-21.2-34c-3.4-30.4,49.9-63.5,68.8-47.4C869.3,1762,873.4,1772.3,876.4,1784.3"/>
		<path clip-path="url(#SVGID_12_)" fill="#F8BC3F" d="M764.5,1634.6c0,0-28.3,53.1-19.4,78.4c8.9,25.3,44.9,95.5,44.9,95.5
			s40.8-48.5,84.4-27.7c0,0,9.5,6.2,9.8,2.1c0.3-4.1-22.1-65.4-19.9-72.1c2.2-6.6,44.6-62.2,44.6-62.2S809.9,1616.3,764.5,1634.6"/>
		<path clip-path="url(#SVGID_12_)" fill="#F3A566" d="M972.6,1955.4c0,0-14.2,5.7-18.5,6.2c-4.3,0.5-28.5-1.4-35.6-5.7
			c22.6,1.6,63.1-16.1,63.1-16.1s0.9,0.4,2,1.1h0c1.6,1,3.8,2.6,4.7,4.6C989.6,1948.7,972.6,1955.4,972.6,1955.4"/>
		<path clip-path="url(#SVGID_12_)" fill="#F3A566" d="M1113.2,1313.8c-10.8-2-18.9-11.5-30-0.1c-11.1,11.4-13.8,30.8-32.4,36.4
			c2.2-8.7,2.6-18.8-0.3-30.4c-8.2-32.4,1.7-83.9,30.7-107c14.7,18.1,25.2,43.6,25.2,43.6s-15.6,6.4-5.2,33.6
			c10.3,27.2,24.9,17.9,24.9,17.9S1124.5,1315.9,1113.2,1313.8"/>
		<path clip-path="url(#SVGID_12_)" fill="#F3A566" d="M1124.5,1365.3c0,0-11.2-2.1-20.9-9.2c-10-7.4,11.3,45.6,11.3,45.6
			S1114.1,1391.2,1124.5,1365.3"/>
		<path clip-path="url(#SVGID_12_)" fill="#553130" d="M1240.1,1212.8L1240.1,1212.8c-1.4,3.1-3.3,6.1-5.5,8.9c-0.6,0.8-1,1.2-1,1.2
			c-18.8-11.2-66.8,23.6-80.1,40.6c-13.3,17.1-8.5,43.3-22.1,11.4c-15.2-35.4-53.6,1.4-58.3,27c-4.7,25.6-45.1,63.1-37.5,42.2
			c7.6-20.9-28-41.3-41.3-95.8c-4.3-17.8-2.2-34,4.5-48.3c13.8-29.4,47-50.7,82.2-61.3c64.9-19.4,115.2,1.1,141.1,16.7
			C1242.4,1167.5,1249.5,1192.5,1240.1,1212.8"/>
		<path clip-path="url(#SVGID_12_)" fill="#3A1616" d="M1240.1,1212.8c-1.4,3.1-3.3,6.1-5.5,8.9c-0.6,0.8-1,1.2-1,1.2
			c-18.8-11.2-66.8,23.6-80.1,40.6c-13.3,17.1-8.5,43.3-22.1,11.4c-15.2-35.4-53.6,1.4-58.3,27c-4.7,25.6-45.1,63.1-37.5,42.2
			c7.6-20.9-28-41.3-41.3-95.8c-4.3-17.8-2.2-34,4.6-48.3c25.7,33.8,115.3,61.1,153.4,40.5
			C1195.9,1216.9,1240.1,1212.8,1240.1,1212.8"/>
		<path clip-path="url(#SVGID_12_)" fill="#2E48FB" d="M2629.1,2053.4H350.5c-4.9,0-9-4.1-9-9V2023c0-4.9,4.1-9,9-9h2278.6
			c4.9,0,9,4.1,9,9v21.3C2638.1,2049.3,2634.1,2053.4,2629.1,2053.4"/>
		<path clip-path="url(#SVGID_12_)" fill="#8FC0FA" d="M744.1,1381.9c0,16.2-4.7,31.3-12.9,44.2c-15.5,24.3-43.4,40.5-75.2,40.5
			c-48.7,0-88.2-37.9-88.2-84.6c0-24,10.4-45.6,27-61c15.8-14.6,37.4-23.7,61.1-23.7C704.7,1297.3,744.1,1335.2,744.1,1381.9"/>
		<path clip-path="url(#SVGID_12_)" fill="#C7DEFE" d="M744.1,1385.4c0,16.8-4.7,32.6-12.9,46c-75-14.9-115-62.1-136.3-109.5
			c15.8-15.3,37.4-24.6,61.1-24.6C704.7,1297.3,744.1,1336.8,744.1,1385.4"/>
		<path clip-path="url(#SVGID_12_)" fill="#F95F35" d="M647.5,1398.6c0.5,0.4,1,0.8,1.5,1.2C648.5,1399.4,648,1399,647.5,1398.6"/>
		<path clip-path="url(#SVGID_12_)" fill="#DB3737" d="M651.2,1401.3l-1.4,1.7l-2.1,2.5l-11.4,13.9l-1.9,2.4l-8.4,10.2l-1.1,1.4
			l-1.1,1.3c-0.6,0.8-1.6,1.3-2.6,1.4c-0.3,0-0.5,0-0.8,0c-0.7-0.1-1.4-0.4-2-0.8c-0.7-0.6-1.2-1.4-1.3-2.2c-0.1-0.6-0.1-1.1,0-1.6
			c0.1-0.2,0.1-0.5,0.3-0.7c0,0,0,0,0,0c0.1-0.3,0.3-0.5,0.5-0.8l11.5-14l2.4-2.9l11.5-14l2.1-2.5c0.7,0.7,1.5,1.4,2.3,2.1
			c0.5,0.4,1,0.8,1.5,1.2C649.7,1400.3,650.4,1400.8,651.2,1401.3"/>
		<path clip-path="url(#SVGID_12_)" fill="#BA1717" d="M656.8,1400.6c0,0.1-0.7,1.4-1.6,3c-1.4-0.7-2.7-1.4-3.9-2.2l-1.4,1.7
			l-2.1,2.5c-1.5-2.2-3.3-4.7-4.5-6.6l2.1-2.5c-0.4-0.4-0.8-0.8-1.1-1.2C649.3,1395.1,656.8,1400.4,656.8,1400.6"/>
		<path clip-path="url(#SVGID_12_)" fill="#DB3737" d="M685.5,1337.8c-4.1-1.8-8.4-2.8-12.7-3.1c-5.1-0.3-10.2,0.5-15,2.4
			c-8.6,3.3-15.4,9.6-19.5,17.8c-0.2,0.4-0.4,0.9-0.6,1.3c-3.1,7-3.8,14.5-2.4,21.5c1.3,6.5,4.3,12.6,8.8,17.5
			c0.4,0.4,0.7,0.8,1.1,1.2c0.7,0.7,1.5,1.4,2.3,2.1c0.5,0.4,1,0.8,1.5,1.2c0.7,0.5,1.4,1.1,2.2,1.5c1.3,0.8,2.6,1.5,3.9,2.2
			c0.3,0.2,0.7,0.3,1.1,0.5c2.1,0.9,4.2,1.6,6.4,2.1c7,1.7,14.4,1.2,21.3-1.5c4.6-1.8,8.8-4.5,12.3-7.8c3.3-3.2,5.9-7,7.8-11.3
			C712,1367.4,703.8,1345.9,685.5,1337.8 M696.7,1382.4c-1.7,3.8-4.1,7.1-7.1,9.7c-2.5,2.2-5.4,3.9-8.5,5.2
			c-5.6,2.2-11.6,2.5-17.3,1c-1.4-0.4-2.9-0.9-4.3-1.5c-6.9-3.1-12.2-8.6-14.9-15.6c-2.7-6.9-2.5-14.5,0.4-21.3
			c0-0.1,0.1-0.2,0.1-0.3c3.1-6.9,8.6-12.2,15.6-14.9c3.6-1.4,7.3-2,11-1.9c3.6,0.1,7.2,0.9,10.6,2.4c8.7,3.9,14.6,11.7,16.3,20.4
			C699.6,1371.1,699.1,1376.9,696.7,1382.4"/>
		<path clip-path="url(#SVGID_12_)" fill="#C7DEFE" d="M779.6,905.4c0,131.1-103,238-232.5,244.4c-4,0.2-8.1,0.3-12.2,0.3
			c-135.1,0-244.7-109.5-244.7-244.7c0-105.3,66.6-195.1,159.9-229.6c26.4-9.8,55-15.1,84.7-15.1
			C670.1,660.8,779.6,770.3,779.6,905.4"/>
		<g opacity="0.28" clip-path="url(#SVGID_12_)">
			<g>
				<defs>
					<rect id="SVGID_19_" x="425.8" y="660.8" width="353.8" height="489.1"/>
				</defs>
				<clipPath id="SVGID_20_">
					<use xlink:href="#SVGID_19_"  overflow="visible"/>
				</clipPath>
				<path clip-path="url(#SVGID_20_)" fill="#8FC0FA" d="M547.1,1149.8c-144.7-155.2-135.4-338.9-96.9-474
					c26.4-9.8,55-15.1,84.8-15.1c135.1,0,244.7,109.5,244.7,244.7C779.6,1036.5,676.6,1143.5,547.1,1149.8"/>
			</g>
		</g>
		<rect x="615.6" y="847.5" clip-path="url(#SVGID_12_)" fill="#397CF2" width="36.3" height="151.6"/>
		<rect x="492.3" y="918.4" clip-path="url(#SVGID_12_)" fill="#397CF2" width="36.3" height="80.8"/>
		<rect x="430.7" y="945.8" clip-path="url(#SVGID_12_)" fill="#397CF2" width="36.3" height="53.4"/>
		<rect x="553.9" y="886.5" clip-path="url(#SVGID_12_)" fill="#397CF2" width="36.3" height="112.7"/>
		
			<rect x="417.5" y="848.8" transform="matrix(0.8754 -0.4834 0.4834 0.8754 -348.0877 359.4197)" clip-path="url(#SVGID_12_)" fill="#1F2A83" width="211.2" height="12.1"/>
		<polygon clip-path="url(#SVGID_12_)" fill="#1F2A83" points="641.8,788 604.3,790 624.8,821.5 		"/>
		<polygon clip-path="url(#SVGID_12_)" fill="#2946FB" points="651.9,1028.8 405.2,1028.8 405.2,803.9 410,803.9 410,1023.9 
			651.9,1023.9 		"/>
		<path clip-path="url(#SVGID_12_)" fill="#F47722" d="M1977.4,493.8c1.9,14,1.4,28.5-1.9,42.8v0c-1.5,6.3-3.5,12.6-6,18.8
			c-0.7,1.8-1.5,3.6-2.3,5.3c-26.9,57.4-94.5,84.2-153.8,59.7c-2.7-1.1-5.4-2.3-8-3.6c-55.6-27.7-81.1-94.2-57.1-152.6
			c7-17,17.5-31.5,30.3-43.1c31.1-28.1,75.9-38.8,117.7-25c2.8,0.9,5.5,1.9,8.2,3C1945.3,416.2,1971.9,453,1977.4,493.8"/>
		<path clip-path="url(#SVGID_12_)" fill="#F8BC3E" d="M1953.3,548.8c-1.5,3.6-3.2,7.2-5,10.6c-27.2,51.2-87.7,75.7-143,57.5
			c-2.8-0.9-5.5-1.9-8.2-3c-61.1-25.2-90.2-95.1-65.1-156.2c5.8-14.1,14-26.5,23.9-36.9c0,0,0,0,0,0c6.2-6.5,13.1-12.3,20.5-17.2
			c0.2-0.1,0.3-0.2,0.3-0.2c31.9-21,73.4-26.4,111.4-10.7c2.7,1.1,5.4,2.3,8,3.6C1951.8,424,1977.4,490.5,1953.3,548.8"/>
		<path clip-path="url(#SVGID_12_)" fill="#F5B400" d="M1931.4,539.8c-20.2,49-76.3,72.4-125.3,52.2c-49-20.2-72.4-76.3-52.2-125.3
			s76.3-72.4,125.3-52.2C1928.2,434.7,1951.6,490.8,1931.4,539.8"/>
		<path clip-path="url(#SVGID_12_)" fill="#F47722" d="M1758.5,474.4c20.2-49,76.3-72.4,125.3-52.2c18.3,7.6,33.1,20.1,43.3,35.5
			c-10.1-18.8-26.6-34.4-47.9-43.2c-49-20.2-105.1,3.2-125.3,52.2c-11.4,27.7-8.9,57.8,4.4,82.2c-5.1-12.7-7.6-26.4-7-40.3
			C1751.6,497.2,1753.9,485.6,1758.5,474.4"/>
		<path clip-path="url(#SVGID_12_)" fill="#F3F6FC" d="M1868.7,454l4.2-10.1l-10.3-4.2l-4.2,10.1c-17-6-24.7-2.3-31.9,15.2
			c-6.3,15.2-7.2,21.3-3.1,27.6c4.5,7.2,16.5,16.2,19.8,23.4c1.5,2.9,1.1,4.6-0.3,8.1c-0.2,0.5-0.4,1-0.7,1.6
			c-4,9.6-5.9,11.9-13.1,9c-7.4-3-6.1-7.5-3-15c0.9-2.1,1.7-3.7,2.4-4.9l-18.1-7.5c-1.7,2.7-3.6,6.4-5.4,10.8
			c-7.1,17.3-2,25.2,12.2,31.8l-5.2,12.7l10.3,4.2l5.3-12.9c17.1,5.6,25,0.7,33.8-18.7c0.8-1.7,1.5-3.4,2.3-5.3
			c6.9-16.8,2.7-20.5-3.2-27.1c-4.2-4.6-9.4-8.8-14.3-14.1c-4.5-4.7-4.7-5.8-1.2-14.3c3.4-8.2,5.8-9.5,11.7-7
			c6.9,2.8,6.4,6.7,3.6,13.5c-1,2.5-1.7,4.1-2.4,5.5l18,7.4c1.3-2.3,2.9-5.3,4.8-9.7C1887,468.6,1883.8,461,1868.7,454"/>
		<g opacity="0.48" clip-path="url(#SVGID_12_)">
			<g>
				<defs>
					<rect id="SVGID_21_" x="2432.1" y="1722.7" width="150.1" height="143.7"/>
				</defs>
				<clipPath id="SVGID_22_">
					<use xlink:href="#SVGID_21_"  overflow="visible"/>
				</clipPath>
				<path clip-path="url(#SVGID_22_)" fill="#F47722" d="M2558,1739.8c6.3,5.4,11.7,12,15.8,19.6l0,0c1.8,3.4,3.4,6.9,4.7,10.6
					c0.4,1.1,0.7,2.2,1,3.2c10.4,35.7-9,73.7-44.5,85.9c-1.6,0.6-3.3,1.1-4.9,1.5c-35.2,9.3-72.2-10-84.3-45
					c-3.5-10.2-4.5-20.7-3.4-30.7c2.8-24.4,18.4-46.5,42.1-56.6c1.6-0.7,3.2-1.3,4.8-1.8C2513.7,1718.1,2539.7,1724,2558,1739.8"/>
				<path clip-path="url(#SVGID_22_)" fill="#F8BC3E" d="M2568.7,1773.4c0.8,2.2,1.4,4.4,1.9,6.6c7.9,33.1-9.2,67.3-40.6,80.8
					c-1.6,0.7-3.2,1.3-4.8,1.8c-36.6,12.6-76.6-6.9-89.2-43.5c-2.9-8.5-4.1-17.1-3.8-25.5c0,0,0,0,0,0c0.2-5.3,1-10.5,2.4-15.5
					c0-0.1,0.1-0.2,0.1-0.2c5.9-21.6,22.1-40.1,44.9-47.9c1.6-0.6,3.3-1.1,4.9-1.5C2519.6,1719,2556.6,1738.4,2568.7,1773.4"/>
				<path clip-path="url(#SVGID_22_)" fill="#F5B400" d="M2555.5,1777.9c10.1,29.4-5.5,61.4-34.9,71.5
					c-29.4,10.1-61.4-5.5-71.5-34.9c-10.1-29.4,5.5-61.4,34.9-71.5C2513.4,1732.9,2545.4,1748.5,2555.5,1777.9"/>
				<path clip-path="url(#SVGID_22_)" fill="#F47722" d="M2454.1,1816.2c-10.1-29.4,5.5-61.4,34.9-71.5c11-3.8,22.4-4,32.8-1.2
					c-11.8-4.4-25-4.8-37.8-0.4c-29.4,10.1-45,42.1-34.9,71.5c5.7,16.6,18.5,28.9,33.8,34.5c-7.2-3.6-13.6-8.7-18.7-15
					C2459.9,1828.9,2456.4,1822.9,2454.1,1816.2"/>
				<path clip-path="url(#SVGID_22_)" fill="#F3F6FC" d="M2494.7,1764.4l-2.1-6.1l-6.2,2.1l2.1,6.1c-9.8,3.9-11.8,8.5-8.1,19
					c3.1,9.1,5.1,12.2,9.3,13.4c4.8,1.4,13.5,0.7,17.8,2.6c1.8,0.7,2.3,1.6,3,3.7c0.1,0.3,0.2,0.6,0.3,1c2,5.8,2,7.5-2.3,9
					c-4.4,1.5-5.6-0.9-7.1-5.4c-0.4-1.3-0.7-2.3-0.9-3.1l-10.9,3.7c0.3,1.9,0.9,4.2,1.8,6.8c3.6,10.4,8.9,11.8,17.7,9.3l2.6,7.6
					l6.2-2.1l-2.7-7.7c9.7-4.1,11.3-9.4,7.6-21.3c-0.3-1-0.7-2.1-1-3.2c-3.5-10.1-6.8-10.1-11.9-10.7c-3.6-0.4-7.5-0.3-11.7-0.7
					c-3.8-0.3-4.3-0.7-6.1-5.8c-1.7-4.9-1.1-6.4,2.4-7.6c4.1-1.4,5.4,0.4,6.8,4.6c0.5,1.5,0.8,2.5,1.1,3.4l10.8-3.7
					c-0.3-1.5-0.8-3.5-1.7-6.1C2508.4,1763.8,2504,1761.7,2494.7,1764.4"/>
			</g>
		</g>
		<g opacity="0.29" clip-path="url(#SVGID_12_)">
			<g>
				<defs>
					<rect id="SVGID_23_" x="169" y="1279.8" width="150.1" height="143.7"/>
				</defs>
				<clipPath id="SVGID_24_">
					<use xlink:href="#SVGID_23_"  overflow="visible"/>
				</clipPath>
				<path clip-path="url(#SVGID_24_)" fill="#F47722" d="M294.8,1296.9c6.3,5.4,11.7,12,15.8,19.6l0,0c1.8,3.4,3.4,6.9,4.7,10.6
					c0.4,1.1,0.7,2.2,1,3.2c10.4,35.7-9,73.7-44.5,85.9c-1.6,0.6-3.3,1.1-4.9,1.5c-35.2,9.3-72.2-10-84.3-45
					c-3.5-10.2-4.5-20.7-3.4-30.7c2.8-24.4,18.4-46.5,42.1-56.6c1.6-0.7,3.2-1.3,4.8-1.8C250.6,1275.2,276.5,1281.1,294.8,1296.9"/>
				<path clip-path="url(#SVGID_24_)" fill="#F8BC3E" d="M305.5,1330.5c0.8,2.2,1.4,4.4,1.9,6.6c7.9,33.1-9.2,67.3-40.6,80.8
					c-1.6,0.7-3.2,1.3-4.8,1.8c-36.6,12.6-76.6-6.9-89.2-43.5c-2.9-8.5-4.1-17.1-3.8-25.5c0,0,0,0,0,0c0.2-5.3,1-10.5,2.4-15.5
					c0-0.1,0-0.2,0-0.2c5.9-21.6,22.1-40.1,44.9-47.9c1.6-0.6,3.3-1.1,4.9-1.5C256.5,1276.1,293.5,1295.5,305.5,1330.5"/>
				<path clip-path="url(#SVGID_24_)" fill="#F5B400" d="M292.4,1335c10.1,29.4-5.5,61.4-34.9,71.5s-61.4-5.5-71.5-34.9
					c-10.1-29.4,5.5-61.4,34.9-71.5C250.3,1290,282.3,1305.6,292.4,1335"/>
				<path clip-path="url(#SVGID_24_)" fill="#F47722" d="M191,1373.3c-10.1-29.4,5.5-61.4,34.9-71.5c11-3.8,22.4-4,32.8-1.2
					c-11.8-4.4-25-4.8-37.8-0.4c-29.4,10.1-45,42.1-34.9,71.5c5.7,16.6,18.5,28.9,33.8,34.5c-7.2-3.6-13.6-8.7-18.7-15
					C196.8,1386,193.3,1380,191,1373.3"/>
				<path clip-path="url(#SVGID_24_)" fill="#F3F6FC" d="M231.5,1321.5l-2.1-6.1l-6.2,2.1l2.1,6.1c-9.8,3.9-11.8,8.5-8.1,19
					c3.1,9.1,5.1,12.2,9.3,13.4c4.8,1.4,13.5,0.7,17.8,2.6c1.8,0.7,2.3,1.6,3,3.7c0.1,0.3,0.2,0.6,0.3,1c2,5.8,2,7.5-2.3,9
					c-4.4,1.5-5.6-0.9-7.1-5.4c-0.4-1.3-0.7-2.3-0.9-3.1l-10.9,3.7c0.3,1.9,0.9,4.2,1.8,6.8c3.6,10.4,8.9,11.8,17.7,9.3l2.6,7.6
					l6.2-2.1l-2.7-7.7c9.7-4.1,11.3-9.4,7.6-21.3c-0.3-1-0.7-2.1-1-3.2c-3.5-10.1-6.8-10.1-11.9-10.7c-3.6-0.4-7.5-0.3-11.7-0.7
					c-3.8-0.3-4.3-0.7-6.1-5.8c-1.7-4.9-1.1-6.4,2.4-7.6c4.1-1.4,5.4,0.4,6.8,4.6c0.5,1.5,0.8,2.5,1.1,3.4l10.8-3.7
					c-0.3-1.5-0.8-3.5-1.7-6.1C245.2,1320.9,240.9,1318.8,231.5,1321.5"/>
			</g>
		</g>
		<path clip-path="url(#SVGID_12_)" fill="#F47722" d="M2746.3,1579.8c-2.5,11.4-7.1,22.5-13.8,32.6l0,0c-3,4.5-6.3,8.8-10.1,12.9
			c-1.1,1.2-2.2,2.3-3.3,3.4c-37.4,36.7-97.4,38-136.3,2.1c-1.8-1.7-3.5-3.3-5.1-5.1c-35.1-37.5-35.8-96.2-0.4-134.5
			c10.3-11.2,22.6-19.4,35.8-24.7c32.2-12.9,69.9-8.2,98.3,14.5c1.9,1.5,3.7,3.1,5.5,4.7C2743.7,1510.4,2753.7,1546.6,2746.3,1579.8
			"/>
		<path clip-path="url(#SVGID_12_)" fill="#F8BC3E" d="M2711.8,1615.5c-2.2,2.4-4.5,4.7-6.9,6.8c-35.7,31.9-89.6,33.5-127.2,3.4
			c-1.9-1.5-3.7-3.1-5.5-4.7c-40.1-37-42.5-99.6-5.5-139.6c8.6-9.3,18.5-16.5,29.1-21.7c0,0,0,0,0,0c6.7-3.3,13.7-5.7,20.8-7.4
			c0.2,0,0.3-0.1,0.3-0.1c30.8-7.1,64.4,0.6,89.4,23.7c1.8,1.6,3.5,3.4,5.1,5.1C2746.5,1518.4,2747.2,1577.2,2711.8,1615.5"/>
		<path clip-path="url(#SVGID_12_)" fill="#F5B400" d="M2697.5,1602.2c-29.7,32.1-79.8,34.1-112,4.4c-32.1-29.7-34.1-79.8-4.4-112
			c29.7-32.1,79.8-34.1,112-4.4C2725.2,1519.9,2727.2,1570,2697.5,1602.2"/>
		<path clip-path="url(#SVGID_12_)" fill="#F47722" d="M2582.4,1501.9c29.7-32.1,79.8-34.1,112-4.4c12,11.1,19.8,25.1,23.3,39.9
			c-2.4-17.5-10.7-34.3-24.7-47.2c-32.1-29.7-82.3-27.7-112,4.4c-16.8,18.2-23.5,42.2-20.3,64.9c-0.3-11.3,1.7-22.6,6.2-33.2
			C2570.5,1517.5,2575.6,1509.2,2582.4,1501.9"/>
		<path clip-path="url(#SVGID_12_)" fill="#F3F6FC" d="M2673.6,1517.7l6.1-6.6l-6.8-6.2l-6.1,6.6c-11.4-9.6-18.4-8.9-29,2.6
			c-9.2,10-11.7,14.4-10.4,20.5c1.4,6.9,8.1,17.2,8.6,23.8c0.3,2.7-0.4,3.9-2.5,6.2c-0.3,0.3-0.6,0.7-1,1.1c-5.8,6.3-8,7.5-12.7,3.2
			c-4.8-4.5-2.6-7.5,2-12.5c1.3-1.4,2.4-2.4,3.3-3.1l-11.9-11c-2.1,1.6-4.6,3.9-7.3,6.8c-10.5,11.4-8.8,18.9,0.3,28.1l-7.7,8.4
			l6.8,6.2l7.8-8.5c11.6,9.2,19.2,7.7,31.5-4.8c1.1-1.1,2.2-2.2,3.3-3.4c10.2-11,8-15.1,5.3-21.9c-1.9-4.8-4.7-9.5-7-15
			c-2.2-5-2-5.8,3.2-11.4c5-5.4,7.2-5.7,11.1-2.1c4.5,4.2,3.1,7-1.1,11.5c-1.5,1.6-2.5,2.7-3.5,3.5l11.8,10.9
			c1.7-1.4,3.8-3.2,6.5-6.1C2683.5,1534.3,2683.3,1527.5,2673.6,1517.7"/>
		<g opacity="0.54" clip-path="url(#SVGID_12_)">
			<g>
				<defs>
					<rect id="SVGID_25_" x="2298.6" y="544.1" width="208.2" height="207.4"/>
				</defs>
				<clipPath id="SVGID_26_">
					<use xlink:href="#SVGID_25_"  overflow="visible"/>
				</clipPath>
				<path clip-path="url(#SVGID_26_)" fill="#F47722" d="M2504.5,674.3c-2.5,11.4-7.1,22.5-13.8,32.6l0,0
					c-2.9,4.5-6.3,8.8-10.1,12.9c-1.1,1.2-2.2,2.3-3.3,3.4c-37.4,36.7-97.4,38-136.3,2.1c-1.8-1.7-3.5-3.3-5.1-5.1
					c-35.1-37.5-35.8-96.2-0.4-134.5c10.3-11.2,22.6-19.4,35.8-24.7c32.2-12.9,69.9-8.2,98.3,14.5c1.9,1.5,3.7,3.1,5.5,4.7
					C2501.9,604.9,2511.9,641.1,2504.5,674.3"/>
				<path clip-path="url(#SVGID_26_)" fill="#F8BC3E" d="M2470,710c-2.2,2.4-4.5,4.7-6.9,6.8c-35.7,31.9-89.6,33.5-127.2,3.4
					c-1.9-1.5-3.7-3.1-5.5-4.7c-40.1-37-42.5-99.6-5.5-139.6c8.6-9.3,18.5-16.5,29.1-21.7c0,0,0,0,0,0c6.7-3.3,13.7-5.7,20.8-7.4
					c0.2,0,0.3-0.1,0.3-0.1c30.8-7.1,64.4,0.6,89.4,23.7c1.8,1.6,3.5,3.4,5.1,5.1C2504.7,612.9,2505.4,671.7,2470,710"/>
				<path clip-path="url(#SVGID_26_)" fill="#F5B400" d="M2455.6,696.7c-29.7,32.1-79.8,34.1-112,4.4c-32.1-29.7-34.1-79.8-4.4-112
					c29.7-32.1,79.8-34.1,112-4.4C2483.3,614.4,2485.3,664.5,2455.6,696.7"/>
				<path clip-path="url(#SVGID_26_)" fill="#F47722" d="M2340.5,596.4c29.7-32.1,79.8-34.1,112-4.4c12,11.1,19.8,25.1,23.3,39.9
					c-2.4-17.5-10.7-34.3-24.7-47.2c-32.1-29.7-82.3-27.7-112,4.4c-16.8,18.2-23.5,42.2-20.3,64.9c-0.3-11.3,1.7-22.6,6.2-33.2
					C2328.6,612,2333.7,603.7,2340.5,596.4"/>
				<path clip-path="url(#SVGID_26_)" fill="#F3F6FC" d="M2431.7,612.2l6.1-6.6l-6.8-6.2l-6.1,6.6c-11.4-9.6-18.4-8.9-29,2.6
					c-9.2,10-11.7,14.4-10.4,20.5c1.4,6.9,8.1,17.2,8.6,23.8c0.3,2.7-0.4,3.9-2.5,6.2c-0.3,0.3-0.6,0.7-1,1.1
					c-5.8,6.3-8,7.5-12.7,3.2c-4.8-4.5-2.6-7.5,2-12.5c1.3-1.4,2.4-2.4,3.3-3.1l-11.9-11c-2.1,1.6-4.6,3.9-7.3,6.8
					c-10.5,11.4-8.8,18.9,0.3,28.1l-7.7,8.4l6.8,6.2l7.8-8.5c11.6,9.2,19.2,7.7,31.5-4.8c1.1-1.1,2.2-2.2,3.3-3.4
					c10.2-11,8-15.1,5.3-21.9c-1.9-4.8-4.7-9.5-7-15c-2.2-5-2-5.8,3.2-11.4c5-5.4,7.2-5.7,11.1-2.1c4.5,4.2,3.1,7-1.1,11.5
					c-1.5,1.6-2.5,2.7-3.5,3.5l11.8,10.9c1.7-1.4,3.8-3.2,6.5-6.1C2441.7,628.7,2441.4,621.9,2431.7,612.2"/>
			</g>
		</g>
		<g opacity="0.54" clip-path="url(#SVGID_12_)">
			<g>
				<defs>
					<rect id="SVGID_27_" x="941" y="417.1" width="146.9" height="141.3"/>
				</defs>
				<clipPath id="SVGID_28_">
					<use xlink:href="#SVGID_27_"  overflow="visible"/>
				</clipPath>
				<path clip-path="url(#SVGID_28_)" fill="#F47722" d="M1061.6,431.8c6.4,5,12,11.2,16.4,18.4l0,0c1.9,3.2,3.6,6.6,5.1,10.2
					c0.4,1,0.8,2.1,1.2,3.1c11.9,34.5-5.3,72.6-39.5,86.2c-1.6,0.6-3.2,1.2-4.7,1.7c-34,10.8-71.2-6.3-84.6-40
					c-3.9-9.8-5.4-20-4.8-29.9c1.6-24.1,15.8-46.4,38.5-57.4c1.5-0.7,3-1.4,4.6-2C1017.2,412.6,1042.9,417.2,1061.6,431.8"/>
				<path clip-path="url(#SVGID_28_)" fill="#F8BC3E" d="M1073.7,464.1c0.8,2.1,1.6,4.2,2.2,6.4c9.3,32-5.8,66.3-35.9,81
					c-1.5,0.7-3,1.4-4.6,2c-35.3,14.1-75.3-3.1-89.4-38.3c-3.3-8.1-4.8-16.5-4.9-24.8c0,0,0,0,0,0c-0.1-5.2,0.5-10.3,1.6-15.3
					c0-0.1,0-0.2,0-0.2c4.8-21.5,19.7-40.3,41.6-49c1.6-0.6,3.2-1.2,4.7-1.7C1023.1,413.2,1060.2,430.4,1073.7,464.1"/>
				<path clip-path="url(#SVGID_28_)" fill="#F5B400" d="M1061,469.1c11.3,28.3-2.5,60.4-30.8,71.7s-60.4-2.5-71.7-30.8
					c-11.3-28.3,2.5-60.4,30.8-71.7C1017.6,427.1,1049.7,440.9,1061,469.1"/>
				<path clip-path="url(#SVGID_28_)" fill="#F47722" d="M963.5,511.4c-11.3-28.3,2.5-60.4,30.8-71.7c10.6-4.2,21.7-4.9,32.1-2.7
					c-11.7-3.7-24.7-3.6-37,1.4c-28.3,11.3-42.1,43.4-30.8,71.7c6.4,16,19.5,27.4,34.7,32.2c-7.2-3.2-13.7-7.8-19-13.8
					C969.8,523.6,966.1,517.9,963.5,511.4"/>
				<path clip-path="url(#SVGID_28_)" fill="#F3F6FC" d="M1000.8,458.8l-2.3-5.8l-5.9,2.4l2.3,5.8c-9.4,4.3-11.1,8.9-7.1,19
					c3.5,8.8,5.5,11.7,9.7,12.6c4.7,1.2,13.3,0.1,17.5,1.7c1.8,0.6,2.3,1.4,3.1,3.4c0.1,0.3,0.2,0.6,0.4,0.9
					c2.2,5.6,2.4,7.3-1.8,8.9c-4.2,1.7-5.5-0.6-7.2-5c-0.5-1.2-0.8-2.2-1-3l-10.5,4.2c0.4,1.8,1.1,4.1,2.1,6.6
					c4,10,9.3,11.2,17.7,8.2l2.9,7.3l5.9-2.4l-3-7.4c9.3-4.5,10.6-9.7,6.5-21.2c-0.4-1-0.7-2-1.2-3.1c-3.9-9.7-7.1-9.5-12.2-9.9
					c-3.6-0.2-7.4,0.1-11.5-0.1c-3.8-0.1-4.2-0.5-6.2-5.4c-1.9-4.7-1.4-6.2,2-7.6c4-1.6,5.3,0.2,6.9,4.1c0.6,1.4,0.9,2.4,1.2,3.2
					l10.4-4.1c-0.4-1.5-0.9-3.4-1.9-5.9C1014.2,457.6,1009.8,455.7,1000.8,458.8"/>
			</g>
		</g>
		<path clip-path="url(#SVGID_12_)" fill="#F47722" d="M536.4,1632.4c10.9,9.4,20.2,20.8,27.3,33.9l0,0c3.1,5.8,5.9,12,8.1,18.4
			c0.6,1.9,1.2,3.7,1.8,5.6c18.1,61.9-15.5,127.6-77.1,148.9c-2.8,1-5.7,1.8-8.5,2.6c-61,16.2-125.1-17.3-146-78
			c-6.1-17.7-7.9-35.8-5.9-53.2c4.8-42.3,31.8-80.5,72.9-98.1c2.7-1.2,5.5-2.2,8.3-3.2C459.7,1594.7,504.7,1605,536.4,1632.4"/>
		<path clip-path="url(#SVGID_12_)" fill="#F8BC3E" d="M555,1690.5c1.3,3.8,2.4,7.6,3.3,11.4c13.7,57.3-16,116.6-70.4,139.9
			c-2.7,1.2-5.5,2.2-8.3,3.2c-63.5,21.8-132.6-11.9-154.5-75.4c-5-14.7-7.1-29.6-6.6-44.2c0,0,0,0,0,0c0.4-9.1,1.7-18.2,4.1-26.9
			c0.1-0.2,0.1-0.3,0.1-0.3c10.2-37.5,38.2-69.4,77.7-83c2.8-1,5.7-1.8,8.5-2.6C470,1596.3,534.1,1629.8,555,1690.5"/>
		<path clip-path="url(#SVGID_12_)" fill="#F5B400" d="M532.2,1698.3c17.5,50.9-9.5,106.4-60.4,123.9
			c-50.9,17.5-106.4-9.5-123.9-60.4c-17.5-50.9,9.5-106.4,60.4-123.9C459.2,1620.4,514.7,1647.4,532.2,1698.3"/>
		<path clip-path="url(#SVGID_12_)" fill="#F47722" d="M356.5,1764.6c-17.5-50.9,9.5-106.4,60.4-123.9c19.1-6.6,38.8-6.9,56.9-2
			c-20.4-7.5-43.4-8.4-65.5-0.8c-50.9,17.5-78,73-60.4,123.9c9.9,28.8,32,50,58.6,59.8c-12.4-6.2-23.5-15-32.4-26
			C366.5,1786.6,360.5,1776.2,356.5,1764.6"/>
		<path clip-path="url(#SVGID_12_)" fill="#F3F6FC" d="M426.8,1675l-3.6-10.5l-10.7,3.7l3.6,10.5c-17,6.8-20.4,14.8-14.1,33
			c5.4,15.8,8.8,21.1,16.1,23.1c8.3,2.5,23.4,1.2,30.8,4.6c3.1,1.3,3.9,2.7,5.2,6.4c0.2,0.5,0.4,1.1,0.6,1.7c3.4,10,3.5,13-3.9,15.6
			c-7.6,2.6-9.7-1.6-12.4-9.4c-0.8-2.2-1.2-4-1.5-5.4l-18.8,6.5c0.5,3.2,1.5,7.3,3.1,11.8c6.2,18,15.4,20.5,30.6,16.1l4.6,13.2
			l10.7-3.7l-4.6-13.4c16.8-7.2,19.5-16.3,13.2-36.9c-0.5-1.8-1.1-3.6-1.8-5.6c-6-17.5-11.7-17.4-20.6-18.5
			c-6.3-0.7-13.1-0.4-20.3-1.2c-6.7-0.6-7.5-1.2-10.5-10.1c-2.9-8.5-1.9-11.1,4.2-13.2c7.1-2.5,9.4,0.8,11.8,7.9
			c0.9,2.5,1.5,4.2,1.8,5.8l18.7-6.4c-0.5-2.7-1.3-6-2.9-10.6C450.5,1673.8,443,1670.2,426.8,1675"/>
		<path clip-path="url(#SVGID_12_)" fill="#C7DEFE" d="M2731.3,1143.9c-13.4,60.9-52.4,109.7-103.2,137.4
			c-42.4,23.2-93.1,31.7-143.9,20.4c-111.8-24.7-182.5-135.3-157.8-247.2c11.7-53.2,43-97.1,84.5-125.9
			c45.8-31.6,104.1-44.9,162.7-32C2685.3,921.4,2756,1032,2731.3,1143.9"/>
		<g opacity="0.3" clip-path="url(#SVGID_12_)">
			<g>
				<defs>
					<rect id="SVGID_29_" x="2321.4" y="928.7" width="306.7" height="378"/>
				</defs>
				<clipPath id="SVGID_30_">
					<use xlink:href="#SVGID_29_"  overflow="visible"/>
				</clipPath>
				<path clip-path="url(#SVGID_30_)" fill="#FFFFFF" d="M2484.1,1301.7c-111.8-24.7-182.5-135.3-157.8-247.2
					c11.7-53.2,43-97.1,84.5-125.9c-29.6,166.2,130.2,295.6,217.3,352.6C2585.6,1304.4,2535,1312.9,2484.1,1301.7"/>
			</g>
		</g>
		<path clip-path="url(#SVGID_12_)" fill="#2946FB" d="M2607.8,1167.5c-0.1,0.2-0.7,5.3-1.3,10.2c-0.6,5.6-3.1,11.4-7.1,16.6
			l-27.4,35.9c-4.5,5.9-4.5,13.1,0,15.5c3.9,2.1,9.9,0,14-5l48.8-58.4L2607.8,1167.5z"/>
		<g opacity="0.2" clip-path="url(#SVGID_12_)">
			<g>
				<defs>
					<rect id="SVGID_31_" x="2574" y="1167.5" width="60.9" height="79"/>
				</defs>
				<clipPath id="SVGID_32_">
					<use xlink:href="#SVGID_31_"  overflow="visible"/>
				</clipPath>
				<path clip-path="url(#SVGID_32_)" fill="#D92150" d="M2606.9,1174.1c0.4-3.5,0.8-6.5,0.9-6.6l27.2,14.8l-48.8,58.4
					c-3.5,4.3-8.3,6.4-12.1,5.7c13.9-15.2,26.3-35.7,37.2-49.6C2622.3,1184.4,2611.7,1181.2,2606.9,1174.1"/>
			</g>
		</g>
		<path clip-path="url(#SVGID_12_)" fill="#FFFFFF" d="M2371.6,1109.9c0,0,96.3-17.1,197.4,66l42.7-51.9
			c-101.2-83.1-103.1-180.9-103.1-180.9L2371.6,1109.9z"/>
		<g opacity="0.2" clip-path="url(#SVGID_12_)">
			<g>
				<defs>
					<rect id="SVGID_33_" x="2371.6" y="1062.4" width="219.3" height="113.6"/>
				</defs>
				<clipPath id="SVGID_34_">
					<use xlink:href="#SVGID_33_"  overflow="visible"/>
				</clipPath>
				<path clip-path="url(#SVGID_34_)" fill="#4A0659" d="M2410.7,1062.4c45.9,44.3,102.3,58.9,164.3,80.8c5.4,1.8,10.7,3.9,15.9,6.2
					L2569,1176c-101.2-83.1-197.4-66-197.4-66L2410.7,1062.4z"/>
			</g>
		</g>
		<path clip-path="url(#SVGID_12_)" fill="#2946FB" d="M2508.6,943.1c-18.8-15.4-64.6,9.4-102.5,55.5
			c-37.8,46.1-53.3,95.9-34.6,111.3c18.8,15.4,64.6-9.4,102.5-55.5C2511.9,1008.4,2527.4,958.6,2508.6,943.1"/>
		<path clip-path="url(#SVGID_12_)" fill="#1A2982" d="M2504.9,947.7c-15.9-13.1-57.6,11.2-93,54.4c-35.4,43.1-51.2,88.7-35.3,101.8
			c15.9,13.1,57.6-11.2,93-54.4C2505,1006.4,2520.8,960.8,2504.9,947.7"/>
		<g opacity="0.2" clip-path="url(#SVGID_12_)">
			<g>
				<defs>
					<rect id="SVGID_35_" x="2408.5" y="982.3" width="98" height="115.3"/>
				</defs>
				<clipPath id="SVGID_36_">
					<use xlink:href="#SVGID_35_"  overflow="visible"/>
				</clipPath>
				<path clip-path="url(#SVGID_36_)" fill="#4A0659" d="M2506.4,987.5c-0.6-1-1.3-1.9-2.2-2.6c-11.3-9.3-41,8-66.2,38.7
					c-25.2,30.7-36.5,63.1-25.1,72.5c0.9,0.7,1.9,1.3,3,1.7c16.8-9.8,36-26.7,53.7-48.2C2487.2,1028,2500,1005.9,2506.4,987.5"/>
			</g>
		</g>
		<path clip-path="url(#SVGID_12_)" fill="#003E61" d="M2638.3,1145.4l-35.1-28.9l-0.9,2.2c-7.9,19.4-21.3,36-38.6,47.8l-3.5,2.4
			l35.1,28.9c11.3,9.3,27.6,8,36.5-2.9l10.8-13.2C2651.5,1171,2649.6,1154.7,2638.3,1145.4"/>
		<path clip-path="url(#SVGID_12_)" fill="#8FC0FA" d="M2560.1,1169l11.7,9.6l8.9,7.3l14.6,12c11.3,9.2,27.6,8,36.5-2.9l10.8-13.2
			c8.9-10.8,7-27.1-4.2-36.4l-16.1-13.2l-8.1-6.6l-11.1-9.1l-0.9,2.2c-7.9,19.4-21.3,36-38.6,47.8L2560.1,1169z"/>
		<path clip-path="url(#SVGID_12_)" fill="#2946FB" d="M2571.8,1178.6l8.9,7.3c17.8-14.5,32-32.8,41.6-53.7l-8.1-6.6
			C2604.3,1146.3,2589.8,1164.4,2571.8,1178.6"/>
		<path clip-path="url(#SVGID_12_)" fill="#D30F00" d="M2433.1,1019.6c-5.3,6.4-5.8,15.6-1.3,23.4l16.9,29.1
			c7-6.7,14-14.3,20.8-22.6c6.8-8.3,12.8-16.6,18.1-24.8l-31.9-10.9C2447.4,1010.9,2438.4,1013.2,2433.1,1019.6"/>
		<path clip-path="url(#SVGID_12_)" fill="#FFFFFF" d="M2442.9,1027.6c-4.8,5.8-10.8,8.7-13.5,6.5c-2.7-2.2-1-8.7,3.7-14.5
			c4.8-5.8,10.8-8.7,13.5-6.5C2449.3,1015.3,2447.7,1021.8,2442.9,1027.6"/>
		<g opacity="0.2" clip-path="url(#SVGID_12_)">
			<g>
				<defs>
					<rect id="SVGID_37_" x="2560.1" y="1147.1" width="84.8" height="56.9"/>
				</defs>
				<clipPath id="SVGID_38_">
					<use xlink:href="#SVGID_37_"  overflow="visible"/>
				</clipPath>
				<path clip-path="url(#SVGID_38_)" fill="#003E61" d="M2563.6,1166.6c8-5.5,15.2-12.1,21.4-19.4c19.1,8,39.3,23.2,59.9,31.2
					c-0.7,1.2-1.4,2.4-2.4,3.5l-10.8,13.2c-8.9,10.9-25.3,12.1-36.5,2.9l-14.6-12l-8.9-7.3l-11.7-9.6L2563.6,1166.6z"/>
			</g>
		</g>
		<path clip-path="url(#SVGID_12_)" fill="#20288A" d="M2372.4,830.6c2.2,1.9,4.2,3.9,6.1,6c1.9,2,3.8,4.1,5.6,6.2
			c3.6,4.2,6.9,8.6,10.1,13c6.4,8.9,12.1,18.1,17.3,27.7c5.2,9.5,9.9,19.3,13.9,29.5c2,5.1,3.8,10.3,5.4,15.6
			c0.8,2.7,1.6,5.3,2.2,8.1c0.7,2.7,1.3,5.5,1.7,8.3c-2.2-1.9-4.2-3.9-6.1-5.9c-1.9-2-3.8-4.1-5.6-6.2c-3.6-4.2-6.9-8.6-10.1-13
			c-6.4-8.9-12.1-18.1-17.2-27.7c-5.2-9.5-9.9-19.3-13.9-29.5c-2-5.1-3.8-10.3-5.4-15.6c-0.8-2.7-1.6-5.3-2.2-8.1
			C2373.5,836.2,2372.9,833.4,2372.4,830.6"/>
		<path clip-path="url(#SVGID_12_)" fill="#20288A" d="M2394.1,983.2c-2.9-1.1-5.7-2.4-8.5-3.8c-2.8-1.3-5.4-2.8-8.1-4.2
			c-5.3-2.9-10.5-6.1-15.5-9.3c-10-6.6-19.6-13.7-28.8-21.3c-9.2-7.6-18-15.6-26.3-24.3c-4.2-4.3-8.2-8.8-12.1-13.4
			c-1.9-2.3-3.8-4.7-5.7-7.2c-1.8-2.5-3.6-5-5.3-7.6c2.9,1.1,5.7,2.4,8.5,3.8c2.8,1.3,5.4,2.8,8.1,4.2c5.3,2.9,10.5,6,15.5,9.3
			c10,6.6,19.6,13.7,28.8,21.3c9.2,7.6,18,15.6,26.3,24.3c4.2,4.3,8.2,8.8,12.1,13.4c1.9,2.3,3.8,4.7,5.7,7.2
			C2390.6,978,2392.4,980.5,2394.1,983.2"/>
		<path clip-path="url(#SVGID_12_)" fill="#20288A" d="M2362.9,1031.8c-3-0.2-5.9-0.5-8.8-1c-2.9-0.4-5.7-0.9-8.5-1.5
			c-5.6-1.1-11.2-2.5-16.6-4.1c-10.9-3.1-21.6-6.9-32-11.2c-10.4-4.3-20.6-9.2-30.5-14.8c-5-2.8-9.8-5.8-14.6-9
			c-2.4-1.6-4.7-3.3-7.1-5c-2.3-1.7-4.6-3.6-6.8-5.6c3,0.2,5.9,0.5,8.8,0.9c2.9,0.4,5.7,0.9,8.5,1.5c5.6,1.1,11.2,2.5,16.6,4.1
			c10.9,3.1,21.6,6.9,32,11.3c10.4,4.4,20.6,9.2,30.5,14.8c5,2.8,9.8,5.8,14.6,9c2.4,1.6,4.8,3.3,7.1,5
			C2358.3,1028,2360.6,1029.8,2362.9,1031.8"/>
	</g>
</g>
</svg>
