<?xml version="1.0" encoding="utf-8"?>
<!-- Generator: Adobe Illustrator 21.1.0, SVG Export Plug-In . SVG Version: 6.00 Build 0)  -->
<svg version="1.1" id="Слой_1" xmlns="http://www.w3.org/2000/svg" xmlns:xlink="http://www.w3.org/1999/xlink" x="0px" y="0px"
	 viewBox="0 0 3138.6 2400" style="enable-background:new 0 0 3138.6 2400;" xml:space="preserve">
<style type="text/css">
	.st0{clip-path:url(#SVGID_2_);}
	.st1{clip-path:url(#SVGID_4_);fill:#EEF2F9;}
	.st2{opacity:7.000730e-02;clip-path:url(#SVGID_4_);}
	.st3{clip-path:url(#SVGID_6_);}
	.st4{clip-path:url(#SVGID_4_);fill:#357EFC;}
	.st5{clip-path:url(#SVGID_4_);fill:#FFFFFF;}
	.st6{clip-path:url(#SVGID_4_);fill:none;stroke:#193EDD;stroke-width:10;stroke-miterlimit:10;}
	.st7{clip-path:url(#SVGID_4_);fill:none;stroke:#586ABA;stroke-miterlimit:10;}
	.st8{opacity:0.45;clip-path:url(#SVGID_4_);}
	.st9{clip-path:url(#SVGID_8_);fill:#357EFC;}
	.st10{opacity:0.26;clip-path:url(#SVGID_4_);}
	.st11{clip-path:url(#SVGID_10_);fill:#357EFC;}
	.st12{opacity:0.25;clip-path:url(#SVGID_4_);}
	.st13{clip-path:url(#SVGID_12_);fill:#357EFC;}
	.st14{clip-path:url(#SVGID_14_);fill:#357EFC;}
	.st15{clip-path:url(#SVGID_16_);fill:#357EFC;}
	.st16{clip-path:url(#SVGID_18_);fill:#357EFC;}
	.st17{clip-path:url(#SVGID_20_);fill:#357EFC;}
	.st18{clip-path:url(#SVGID_22_);}
	.st19{clip-path:url(#SVGID_4_);fill:#CECECE;}
	.st20{opacity:0.62;clip-path:url(#SVGID_4_);}
	.st21{clip-path:url(#SVGID_24_);fill:#357EFC;}
	.st22{clip-path:url(#SVGID_4_);fill:#E32B2C;}
	.st23{clip-path:url(#SVGID_4_);fill:#AE2020;}
	.st24{clip-path:url(#SVGID_4_);fill:#F6BA87;}
	.st25{clip-path:url(#SVGID_4_);fill:#F19655;}
	.st26{clip-path:url(#SVGID_4_);fill:#F8BC3E;}
	.st27{clip-path:url(#SVGID_4_);fill:#F9C89A;}
	.st28{opacity:0.85;clip-path:url(#SVGID_4_);}
	.st29{clip-path:url(#SVGID_26_);fill:#F19655;}
	.st30{clip-path:url(#SVGID_4_);fill:#553130;}
	.st31{clip-path:url(#SVGID_4_);fill:none;stroke:#FFFFFF;stroke-miterlimit:10;}
	.st32{clip-path:url(#SVGID_4_);fill:#F7A82D;}
	.st33{clip-path:url(#SVGID_4_);fill:#C1560C;}
	.st34{clip-path:url(#SVGID_4_);fill:#2946FB;}
	.st35{clip-path:url(#SVGID_4_);fill-rule:evenodd;clip-rule:evenodd;fill:#000D21;}
	.st36{clip-path:url(#SVGID_4_);fill-rule:evenodd;clip-rule:evenodd;fill:#001D43;}
	.st37{opacity:0.29;clip-path:url(#SVGID_4_);}
	.st38{clip-path:url(#SVGID_28_);fill-rule:evenodd;clip-rule:evenodd;fill:#70778E;}
	.st39{clip-path:url(#SVGID_30_);fill:#F19655;}
	.st40{clip-path:url(#SVGID_4_);fill:none;stroke:#193EDD;stroke-width:6;stroke-miterlimit:10;}
	.st41{clip-path:url(#SVGID_4_);fill:#F29214;}
	.st42{clip-path:url(#SVGID_4_);fill:#FFC45C;}
	.st43{opacity:0.2;clip-path:url(#SVGID_4_);}
	.st44{clip-path:url(#SVGID_32_);fill:#D92150;}
	.st45{clip-path:url(#SVGID_34_);fill:#4A0659;}
	.st46{clip-path:url(#SVGID_4_);fill:#1A2982;}
	.st47{clip-path:url(#SVGID_36_);fill:#4A0659;}
	.st48{clip-path:url(#SVGID_4_);fill:#003E61;}
	.st49{clip-path:url(#SVGID_4_);fill:#8FC0FA;}
	.st50{clip-path:url(#SVGID_4_);fill:#D30F00;}
	.st51{clip-path:url(#SVGID_38_);fill:#003E61;}
	.st52{clip-path:url(#SVGID_4_);fill:#B0C8EA;}
	.st53{clip-path:url(#SVGID_4_);fill:#FEFEFE;}
	.st54{clip-path:url(#SVGID_4_);fill:#001D43;}
	.st55{clip-path:url(#SVGID_4_);fill:#0F111E;}
	.st56{clip-path:url(#SVGID_40_);fill:#357EFC;}
	.st57{clip-path:url(#SVGID_42_);fill:#357EFC;}
	.st58{clip-path:url(#SVGID_44_);fill:#357EFC;}
	.st59{clip-path:url(#SVGID_4_);fill:#5E9DFD;}
</style>
<g>
	<defs>
		<rect id="SVGID_1_" width="3138.6" height="2400"/>
	</defs>
	<clipPath id="SVGID_2_">
		<use xlink:href="#SVGID_1_"  style="overflow:visible;"/>
	</clipPath>
	<g class="st0">
		<defs>
			<rect id="SVGID_3_" width="3138.6" height="2400"/>
		</defs>
		<clipPath id="SVGID_4_">
			<use xlink:href="#SVGID_3_"  style="overflow:visible;"/>
		</clipPath>
		<path class="st1" d="M723.3,558c0,0,433.6-27.4,550.1-274.6c116.5-247.2-718.2-455.8-830.6-70.6C330.5,598,723.3,558,723.3,558"/>
		<path class="st1" d="M1978.7,2376.6c0,0,1142.3-59.3,1051.6-1259.5C2939.6-83.2,1759.8-71.9,1375.1,388.1
			c-384.7,460-1270.6,221.7-1230,1072C185.7,2310.3,1366.4,2469.4,1978.7,2376.6"/>
		<g class="st2">
			<g>
				<defs>
					<rect id="SVGID_5_" x="951" y="347.3" width="705.2" height="366.8"/>
				</defs>
				<clipPath id="SVGID_6_">
					<use xlink:href="#SVGID_5_"  style="overflow:visible;"/>
				</clipPath>
				<path class="st3" d="M957.1,347.3c0,0-13.9,361.3,0,365.1c13.9,3.8,238,0,238,0s458.2-20,460.2-51.7c2-31.7,0-313.4,0-313.4
					H957.1z"/>
			</g>
		</g>
		<path class="st4" d="M2101.5,792.6h-366.3c-5,0-9-4-9-9V656.8c0-5,4-9,9-9h366.3c4.9,0,9,4,9,9v126.8
			C2110.5,788.5,2106.5,792.6,2101.5,792.6"/>
		<path class="st5" d="M2264,436.1v999.1c0,48.9-40,88.9-88.9,88.9h-396.6c-19.6,27.5-12.4,97.5-12.4,97.5
			c-30-42.4-48.6-97.5-48.6-97.5H612.6c-48.9,0-88.9-40-88.9-88.9V436.1c0-48.9,40-88.9,88.9-88.9h1562.4
			C2224,347.3,2264,387.3,2264,436.1"/>
		<path class="st6" d="M2264,436.1v999.1c0,48.9-40,88.9-88.9,88.9h-396.6c-19.6,27.5-12.4,97.5-12.4,97.5
			c-30-42.4-48.6-97.5-48.6-97.5H612.6c-48.9,0-88.9-40-88.9-88.9V436.1c0-48.9,40-88.9,88.9-88.9h1562.4
			C2224,347.3,2264,387.3,2264,436.1z"/>
		<rect x="984.9" y="271.9" class="st5" width="628.7" height="412.6"/>
		<rect x="984.9" y="271.9" class="st7" width="628.7" height="412.6"/>
		<g class="st8">
			<g>
				<defs>
					<rect id="SVGID_7_" x="1430.6" y="744.1" width="309.4" height="12.9"/>
				</defs>
				<clipPath id="SVGID_8_">
					<use xlink:href="#SVGID_7_"  style="overflow:visible;"/>
				</clipPath>
				<path class="st9" d="M1734.1,757h-297.6c-3.3,0-5.9-2.7-5.9-5.9V750c0-3.3,2.7-5.9,5.9-5.9h297.6c3.3,0,5.9,2.7,5.9,5.9v1.1
					C1740,754.4,1737.3,757,1734.1,757"/>
			</g>
		</g>
		<g class="st10">
			<g>
				<defs>
					<rect id="SVGID_9_" x="1430.6" y="768.4" width="309.4" height="12.9"/>
				</defs>
				<clipPath id="SVGID_10_">
					<use xlink:href="#SVGID_9_"  style="overflow:visible;"/>
				</clipPath>
				<path class="st11" d="M1734.1,781.3h-297.6c-3.3,0-5.9-2.7-5.9-5.9v-1.1c0-3.3,2.7-5.9,5.9-5.9h297.6c3.3,0,5.9,2.7,5.9,5.9v1.1
					C1740,778.7,1737.3,781.3,1734.1,781.3"/>
			</g>
		</g>
		<g class="st12">
			<g>
				<defs>
					<rect id="SVGID_11_" x="1430.6" y="792.7" width="217.5" height="12.9"/>
				</defs>
				<clipPath id="SVGID_12_">
					<use xlink:href="#SVGID_11_"  style="overflow:visible;"/>
				</clipPath>
				<path class="st13" d="M1642.2,805.6h-205.7c-3.3,0-5.9-2.7-5.9-5.9v-1.1c0-3.3,2.7-5.9,5.9-5.9h205.7c3.3,0,5.9,2.7,5.9,5.9v1.1
					C1648.1,803,1645.4,805.6,1642.2,805.6"/>
			</g>
		</g>
		<g class="st8">
			<g>
				<defs>
					<rect id="SVGID_13_" x="1334.2" y="326.3" width="234.3" height="12.9"/>
				</defs>
				<clipPath id="SVGID_14_">
					<use xlink:href="#SVGID_13_"  style="overflow:visible;"/>
				</clipPath>
				<path class="st14" d="M1562.6,339.1h-222.5c-3.3,0-5.9-2.7-5.9-5.9v-1.1c0-3.3,2.7-5.9,5.9-5.9h222.5c3.3,0,5.9,2.7,5.9,5.9v1.1
					C1568.5,336.5,1565.9,339.1,1562.6,339.1"/>
			</g>
		</g>
		<g class="st10">
			<g>
				<defs>
					<rect id="SVGID_15_" x="1334.2" y="350.6" width="234.3" height="12.9"/>
				</defs>
				<clipPath id="SVGID_16_">
					<use xlink:href="#SVGID_15_"  style="overflow:visible;"/>
				</clipPath>
				<path class="st15" d="M1562.6,363.4h-222.5c-3.3,0-5.9-2.7-5.9-5.9v-1.1c0-3.3,2.7-5.9,5.9-5.9h222.5c3.3,0,5.9,2.7,5.9,5.9v1.1
					C1568.5,360.8,1565.9,363.4,1562.6,363.4"/>
			</g>
		</g>
		<g class="st12">
			<g>
				<defs>
					<rect id="SVGID_17_" x="1334.2" y="374.8" width="164.7" height="12.9"/>
				</defs>
				<clipPath id="SVGID_18_">
					<use xlink:href="#SVGID_17_"  style="overflow:visible;"/>
				</clipPath>
				<path class="st16" d="M1493,387.7h-152.9c-3.3,0-5.9-2.7-5.9-5.9v-1.1c0-3.3,2.7-5.9,5.9-5.9H1493c3.3,0,5.9,2.7,5.9,5.9v1.1
					C1498.9,385.1,1496.3,387.7,1493,387.7"/>
			</g>
		</g>
		<g class="st12">
			<g>
				<defs>
					<rect id="SVGID_19_" x="1025.6" y="323.9" width="278" height="206.7"/>
				</defs>
				<clipPath id="SVGID_20_">
					<use xlink:href="#SVGID_19_"  style="overflow:visible;"/>
				</clipPath>
				<rect x="1025.6" y="323.9" class="st17" width="278" height="206.7"/>
			</g>
		</g>
		<g class="st2">
			<g>
				<defs>
					<rect id="SVGID_21_" x="1105.8" y="478.2" width="507.2" height="206.3"/>
				</defs>
				<clipPath id="SVGID_22_">
					<use xlink:href="#SVGID_21_"  style="overflow:visible;"/>
				</clipPath>
				<path class="st18" d="M1105.9,684.4V515.8c0,0-3-37.7,23.8-37.7c31.2,0.1,483.3,0,483.3,0v206.3H1105.9z"/>
			</g>
		</g>
		<rect x="1121.8" y="496" class="st5" width="751.7" height="815.6"/>
		<rect x="1121.8" y="496" class="st7" width="751.7" height="815.6"/>
		<path class="st19" d="M1121.8,944.3c0,0,176,153.2,256.4,196.4c80.3,43.1,230.6,13.4,299-40.9c68.4-54.3,196.4-172.2,196.4-172.2
			v265.2c0,0-409.7,167.1-488.3,139.3c-78.5-27.8-263.5-209.5-263.5-209.5V944.3z"/>
		<g class="st20">
			<g>
				<defs>
					<rect id="SVGID_23_" x="1195.2" y="922" width="365.9" height="177.8"/>
				</defs>
				<clipPath id="SVGID_24_">
					<use xlink:href="#SVGID_23_"  style="overflow:visible;"/>
				</clipPath>
				<path class="st21" d="M1557.4,933.1h-358.5c-2.1,0-3.7-1.7-3.7-3.7v-3.7c0-2.1,1.7-3.7,3.7-3.7h358.5c2.1,0,3.7,1.7,3.7,3.7v3.7
					C1561.1,931.4,1559.4,933.1,1557.4,933.1"/>
				<path class="st21" d="M1557.4,960.9h-358.5c-2.1,0-3.7-1.7-3.7-3.7v-3.7c0-2.1,1.7-3.7,3.7-3.7h358.5c2.1,0,3.7,1.7,3.7,3.7v3.7
					C1561.1,959.2,1559.4,960.9,1557.4,960.9"/>
				<path class="st21" d="M1557.4,988.6h-358.5c-2.1,0-3.7-1.7-3.7-3.7v-3.7c0-2.1,1.7-3.7,3.7-3.7h358.5c2.1,0,3.7,1.7,3.7,3.7v3.7
					C1561.1,987,1559.4,988.6,1557.4,988.6"/>
				<path class="st21" d="M1557.4,1016.4h-358.5c-2.1,0-3.7-1.7-3.7-3.7v-3.7c0-2.1,1.7-3.7,3.7-3.7h358.5c2.1,0,3.7,1.7,3.7,3.7
					v3.7C1561.1,1014.7,1559.4,1016.4,1557.4,1016.4"/>
				<path class="st21" d="M1557.4,1044.2h-358.5c-2.1,0-3.7-1.7-3.7-3.7v-3.7c0-2.1,1.7-3.7,3.7-3.7h358.5c2.1,0,3.7,1.7,3.7,3.7
					v3.7C1561.1,1042.5,1559.4,1044.2,1557.4,1044.2"/>
				<path class="st21" d="M1557.4,1072h-358.5c-2.1,0-3.7-1.7-3.7-3.7v-3.7c0-2.1,1.7-3.7,3.7-3.7h358.5c2.1,0,3.7,1.7,3.7,3.7v3.7
					C1561.1,1070.3,1559.4,1072,1557.4,1072"/>
				<path class="st21" d="M1557.4,1099.7h-358.5c-2.1,0-3.7-1.7-3.7-3.7v-3.7c0-2.1,1.7-3.7,3.7-3.7h358.5c2.1,0,3.7,1.7,3.7,3.7
					v3.7C1561.1,1098,1559.4,1099.7,1557.4,1099.7"/>
			</g>
		</g>
		<path class="st22" d="M2368.3,1419.6c-1.4,20.2-7.5,38.3-18.4,51.5c0,0-146.5-115.9-186.6-119.7c-0.2,0-0.3,0-0.5,0
			c-11.7-1.1-28.7-1.9-46.8-2.4c-44.6-1.4-96.5-1.5-96.5-1.5s0.4-1.5,1.4-4.2l0-0.1c6.8-18.1,41.5-86.5,174.3-92.9
			c114.1-5.5,172.1,85.5,173.3,157.8C2368.6,1411.9,2368.5,1415.8,2368.3,1419.6"/>
		<path class="st23" d="M2368.3,1419.6c-1.4,20.2-7.5,38.3-18.4,51.5c0,0-146.5-115.9-186.6-119.7c-0.2,0-0.3,0-0.5,0
			c-14.2-0.9-128.6,3.8-146.8,3.2l4.9-11.3l0-0.1l2.7-6.3c0,0,37.8-53.6,135.2-38.3C2228.5,1309.5,2326.2,1384.8,2368.3,1419.6"/>
		<path class="st24" d="M2372.3,1805.8c-24.5,42.4-180,43.1-165.1,6.7c6.9-16.9,3.2-54.3-2.7-89.5c0,0,0,0,0,0
			c-1.8-10.8-3.8-21.4-5.8-31.1c-5.5-27-10.8-47.4-10.8-47.4s110.8-122.7,110.8-78.1c0,17,9.4,45.8,21.1,74.8
			c8.9,22.2,19.2,44.6,27.5,62.1c9.3,19.5,16.2,32.7,16.2,32.7S2396.8,1763.4,2372.3,1805.8"/>
		<path class="st25" d="M2319.7,1641.1c-18.5,46.6-121.1,50.7-121.1,50.7c-5.5-27-10.8-47.4-10.8-47.4s110.8-122.7,110.8-78.1
			C2298.6,1583.3,2308.1,1612.1,2319.7,1641.1"/>
		<path class="st25" d="M2372.3,1805.8c-24.5,42.4-180,43.1-165.1,6.7c6.9-16.9,3.2-54.3-2.7-89.5c0.7,1.9,22.1,62.7,73.3,62.7
			c52.1,0,69.4-82.6,69.4-82.6c9.3,19.5,16.2,32.7,16.2,32.7S2396.8,1763.4,2372.3,1805.8"/>
		<path class="st26" d="M2206.3,1734.5c0,0,3.8,53.4,50.7,60.1c46.9,6.7,85.5-14.9,97.4-76.6c0,0-1.5-14.1,18.6-4.5
			c20.1,9.7,123.5-32.7,197.8,6.7c74.4,39.4,51.3,450,37.2,467.1c-14.1,17.1-217.9,0-217.9,0s2.3-15.6-1.4-26
			c-3.7-10.4-284.2,6.7-284.2,6.7l-135.4-44.6c0,0,104.1-324,132.6-358.8s59.5-23.3,96.4-36.2
			C2198.2,1728.4,2204.6,1724.3,2206.3,1734.5"/>
		<path class="st27" d="M2009.2,1378.4c-38.4,116,13.2,133.9,24.1,202.3c10.9,68.4,75.4,125,181.5,92.2
			c106.1-32.7,104.1-125,104.1-125s53.6-1,48.6-49.6c-5-48.6-45.6-38.7-65.5-22.8c0,0-43.6-88.3-82.3-88.3
			S2009.2,1378.4,2009.2,1378.4"/>
		<g class="st28">
			<g>
				<defs>
					<rect id="SVGID_25_" x="1995.3" y="1408.6" width="303.4" height="116.4"/>
				</defs>
				<clipPath id="SVGID_26_">
					<use xlink:href="#SVGID_25_"  style="overflow:visible;"/>
				</clipPath>
				<path class="st29" d="M1996,1467.2c0,0,21.9-24.9,52.7-19c30.7,5.9,114.5,13.6,139.1,9c24.5-4.6,87.6,19.7,96.7,49
					c9.1,29.3,14.1,15.5,14.1,15.5s-0.5-61.2-8-68.1c-7.4-6.9-102.4-45.6-134.7-44.6c-32.4,1-108.7-3-125.1,2.5
					c-16.4,5.5-35.6,36.2-35.6,36.2L1996,1467.2z"/>
			</g>
		</g>
		<path class="st30" d="M1998.8,1417.7c0,0-24.5,22.9-29.7,58.6c0,0,31.9-8,54.3-52.1c0,0,14.1,16.5,76.6,22.7c0,0-11.2-9.4-16.4-22
			c0,0,52.2,34.3,97.9,22c0,0-13.8-7.1-20.5-22c0,0,76.4,31.4,103.4,31.2c27-0.1,28.3,52.1,28.3,52.1s5,45.9,9.8-15.9
			c2.6-34.7,40.3-28.4,40.3-28.4c-6.8-16.6-89-80.6-89-80.6s-190.9-52.9-205.8-41.8c-14.9,11.2-38.7,36.7-38.7,36.7L1998.8,1417.7z"
			/>
		<path class="st22" d="M1998.8,1417.7c0,0,68.6-45.7,192.7-18.7c110.8,24,124.6,69.4,124.6,69.4c12.2-4,25.3-3.5,37.1,1.4
			c1.5,0.6,2.9,1.3,4.4,2c0,0-39.4-115.1-177.6-142.3c-128.5-25.3-163,13.8-171,33.9C2001.1,1383.3,1980.9,1435.6,1998.8,1417.7"/>
		<path class="st31" d="M2098.8,1904c0,0,22.1,11.2,17.6,54.3c-4.5,43.1-11.9,209.7-11.9,209.7l-77.3-25.5c0,0,52.7-124.8,58.7-182
			C2091.9,1903.2,2086.4,1904,2098.8,1904z"/>
		<path class="st32" d="M2494.5,1899c0,0-5,130.9,0,197.4c0,0-158.7-16.9-145.8,0l-167.1,54.5l-19.3,4c0,0,5-78.3,63.5-103.1
			c58.5-24.8,219.2,54.5,236-5C2478.6,1987.3,2473.7,1866.3,2494.5,1899"/>
		<path class="st27" d="M2390.1,2185.1h-31.5l15.9-19.2c0-10.1-8.2-18.3-18.3-18.3h-164.7c-9.4-12.5,34.3-64.3,54-76.3l0,0
			c1.9-1.1,3.5-1.9,4.9-2.2c15.9-4,98.2,27.3,98.2,27.3C2416.2,2107.3,2390.1,2185.1,2390.1,2185.1"/>
		<path class="st25" d="M2390.1,2185.1h-31.5l15.9-19.2c0-10.1-8.2-18.3-18.3-18.3h-164.7c-9.4-12.5,34.3-64.3,54-76.3
			c-0.4,0.6-10.8,17.8,33.7,50.8c19.2,14.2,39.2,15.4,65,19.3c25.8,4,43.1,6.4,43.1-4c0-10.4-38.7-41.2-38.7-41.2
			C2416.2,2107.3,2390.1,2185.1,2390.1,2185.1"/>
		<path class="st33" d="M2286.3,2137.7c-1.7,1.9-3.6,3.3-5.6,4.6c-2,1.3-4.1,2.3-6.3,3.1c-2.2,0.9-4.4,1.5-6.8,2
			c-2.3,0.5-4.7,0.7-7.2,0.5l-0.1-0.3l6.5-2.4c2.2-0.8,4.3-1.7,6.5-2.5c2.2-0.8,4.3-1.7,6.5-2.6l6.4-2.6L2286.3,2137.7z"/>
		<path class="st33" d="M2260.5,2120.8c-1.4,3.5-3.3,6.5-5.5,9.4c-1.1,1.5-2.3,2.8-3.5,4.1c-0.6,0.7-1.3,1.3-1.9,1.9
			c-0.7,0.6-1.3,1.3-2,1.9c-1.4,1.2-2.8,2.3-4.3,3.4c-0.7,0.5-1.5,1-2.3,1.5c-0.8,0.5-1.5,1-2.4,1.4c-3.2,1.8-6.7,3.1-10.3,3.7
			l-0.1-0.3c1.5-0.8,3.1-1.6,4.6-2.6c1.5-0.9,3-1.9,4.4-2.9c2.9-2,5.7-4.2,8.3-6.6c2.7-2.3,5.2-4.8,7.7-7.3c1.2-1.3,2.4-2.6,3.6-3.9
			c1.2-1.3,2.3-2.7,3.4-4L2260.5,2120.8z"/>
		<path class="st33" d="M2237.8,2105.4c-1.8,4.2-4.1,8-6.5,11.7c-1.2,1.9-2.5,3.7-3.7,5.5c-1.3,1.8-2.6,3.6-3.9,5.3
			c-1.4,1.7-2.7,3.5-4.1,5.2c-1.5,1.7-2.8,3.4-4.4,5c-3,3.3-6.1,6.4-9.6,9.3l-0.2-0.2l16-21.1l16.2-20.9L2237.8,2105.4z"/>
		<path class="st32" d="M2494.5,2096.4c1.9-0.6,3.8-1,5.8-1.3c1.9-0.3,3.9-0.5,5.9-0.7c4-0.2,7.9-0.1,11.9,0.3
			c7.9,0.9,15.8,3.1,23.1,6.8c3.6,1.9,7.1,4,10.3,6.5c3.2,2.6,6.1,5.4,8.7,8.5c5.1,6.2,8.9,13.5,10.8,21.1
			c-4.6-6.4-9.4-12.3-14.8-17.3c-2.7-2.5-5.6-4.8-8.6-6.9c-1.5-1-3-2.1-4.6-3c-0.8-0.5-1.6-1-2.4-1.4c-0.8-0.4-1.6-0.9-2.4-1.3
			c-6.6-3.3-13.6-5.8-20.8-7.6C2509.8,2098.3,2502.3,2097,2494.5,2096.4"/>
		<rect x="1107.1" y="2187.6" class="st34" width="1824.8" height="36.4"/>
		<path class="st35" d="M1640.9,2187.5h631.7c11,0,20.1-9,20.1-20.1c0-11-9-20.1-20.1-20.1h-631.7c-11,0-20.1,9-20.1,20.1
			C1620.8,2178.4,1629.9,2187.5,1640.9,2187.5"/>
		<path class="st35" d="M1625.3,2147.4h505.3c14.4,0,24.8-11.8,23-26.3l-40.3-327.3c-1.8-14.4-15-26.2-29.5-26.2h-505.3
			c-14.4,0-24.8,11.8-23,26.2l40.3,327.3C1597.6,2135.5,1610.9,2147.4,1625.3,2147.4"/>
		<path class="st36" d="M1625.3,2147.4h490.4c14.4,0,24.8-11.8,23-26.3l-40.3-327.3c-1.8-14.4-15-26.2-29.5-26.2h-490.4
			c-14.4,0-24.8,11.8-23,26.2l40.3,327.3C1597.6,2135.5,1610.9,2147.4,1625.3,2147.4"/>
		<g class="st37">
			<g>
				<defs>
					<rect id="SVGID_27_" x="1589.6" y="1767.6" width="511.2" height="379.8"/>
				</defs>
				<clipPath id="SVGID_28_">
					<use xlink:href="#SVGID_27_"  style="overflow:visible;"/>
				</clipPath>
				<path class="st38" d="M1652,2147.4h50.5l398.3-334.3l-2.4-19.2c-0.7-5.7-3.2-11.1-6.9-15.4L1652,2147.4z M2034.2,1767.6
					l-434.5,364.7c-2-3.4-3.4-7.2-3.9-11.2l-6.3-50.9l360.5-302.6H2034.2z"/>
			</g>
		</g>
		<path class="st36" d="M2360.4,2187.5h-200.1c-9.7,0-17.6-7.9-17.6-17.6v-5c0-9.7,7.9-17.6,17.6-17.6h200.1
			c9.7,0,17.6,7.9,17.6,17.6v5C2378,2179.6,2370.1,2187.5,2360.4,2187.5"/>
		<g class="st28">
			<g>
				<defs>
					<rect id="SVGID_29_" x="2315.6" y="1479.3" width="42.1" height="49.8"/>
				</defs>
				<clipPath id="SVGID_30_">
					<use xlink:href="#SVGID_29_"  style="overflow:visible;"/>
				</clipPath>
				<path class="st39" d="M2317.5,1496.9c0,0,15.1-27.3,34-13.9s-9.7,46.1-19.6,46.1C2321.9,1529.1,2311.3,1509.5,2317.5,1496.9"/>
			</g>
		</g>
		<path class="st26" d="M1904.7,925.9v459.5c0,1.8-0.7,3.5-1.9,4.7c-1.2,1.3-2.9,2-4.8,2h-818.2c-3.7,0-6.7-3-6.7-6.7V916.8
			l313.9,267h215.7L1904.7,925.9z"/>
		<path class="st32" d="M1902.8,1390c-1.2,1.3-2.9,2-4.8,2h-818.2c-3.7,0-6.7-3-6.7-6.7v-3.3l313.9-198.2h215.7L1902.8,1390z"/>
		<rect x="1195.2" y="635.8" class="st4" width="365.9" height="234"/>
		<polygon class="st5" points="1352.5,712.4 1352.5,803.6 1418,755.8 		"/>
		<path class="st5" d="M2071.2,761.8h-366.3c-4.9,0-9-4-9-9V626.1c0-5,4.1-9,9-9h366.3c4.9,0,9,4,9,9v126.8
			C2080.2,757.8,2076.2,761.8,2071.2,761.8"/>
		<path class="st40" d="M2071.2,761.8h-366.3c-4.9,0-9-4-9-9V626.1c0-5,4.1-9,9-9h366.3c4.9,0,9,4,9,9v126.8
			C2080.2,757.8,2076.2,761.8,2071.2,761.8z"/>
		<path class="st1" d="M1360.7,1729.9h-336.1c-5.4,0-9.7,4.4-9.7,9.7v188.8c0,5.4,4.4,9.7,9.7,9.7h194.9
			c7.3,18.6,23.6,47.4,58.7,65.5c0,0-14-35.9-19.7-65.5h102.2c5.4,0,9.7-4.4,9.7-9.7v-188.8
			C1370.4,1734.3,1366,1729.9,1360.7,1729.9"/>
		<path class="st6" d="M1360.7,1729.9h-336.1c-5.4,0-9.7,4.4-9.7,9.7v188.8c0,5.4,4.4,9.7,9.7,9.7h194.9
			c7.3,18.6,23.6,47.4,58.7,65.5c0,0-14-35.9-19.7-65.5h102.2c5.4,0,9.7-4.4,9.7-9.7v-188.8
			C1370.4,1734.3,1366,1729.9,1360.7,1729.9z"/>
		<path class="st26" d="M1284.7,1795.9v97.6c0,0.4-0.2,0.7-0.4,1c-0.3,0.3-0.6,0.4-1,0.4h-170.4c-0.8,0-1.4-0.6-1.4-1.4v-97.6
			l65.4,55.6h44.9L1284.7,1795.9z"/>
		<path class="st41" d="M1225.4,1854l59.3-58.1h-173.2l59.3,59.4l-59.3,37.5v0.7c0,0.8,0.6,1.4,1.4,1.4h170.4c0.4,0,0.7-0.2,1-0.4
			L1225.4,1854z"/>
		<polygon class="st42" points="1111.5,1795.9 1284.7,1795.9 1198.1,1873.2 		"/>
		<path class="st22" d="M1266.3,1798.4c0-9.3,7.5-16.9,16.9-16.9c9.3,0,16.9,7.5,16.9,16.9c0,9.3-7.5,16.9-16.9,16.9
			C1273.8,1815.2,1266.3,1807.7,1266.3,1798.4"/>
		<path class="st22" d="M2041.6,938.8c0-27.9,22.6-50.6,50.6-50.6c27.9,0,50.6,22.6,50.6,50.6c0,27.9-22.6,50.6-50.6,50.6
			C2064.2,989.4,2041.6,966.8,2041.6,938.8"/>
		<path class="st26" d="M1041.4,803.6c0-14,11.3-25.3,25.3-25.3c14,0,25.3,11.3,25.3,25.3c0,14-11.3,25.3-25.3,25.3
			C1052.8,828.9,1041.4,817.6,1041.4,803.6"/>
		<path class="st4" d="M811.4,1072c0-27.9,22.6-50.6,50.6-50.6c27.9,0,50.6,22.6,50.6,50.6c0,27.9-22.6,50.6-50.6,50.6
			C834,1122.5,811.4,1099.9,811.4,1072"/>
		<path class="st4" d="M2324.3,497.9c0-43.5,35.3-78.8,78.8-78.8c43.5,0,78.8,35.3,78.8,78.8c0,43.5-35.3,78.8-78.8,78.8
			C2359.5,576.7,2324.3,541.4,2324.3,497.9"/>
		<path class="st5" d="M5,1221.8c0-101.6,82.4-184,184-184s184,82.4,184,184c0,101.6-82.4,184-184,184S5,1323.4,5,1221.8"/>
		<circle class="st6" cx="189" cy="1221.8" r="184"/>
		<path class="st34" d="M89.1,1250.8c0,0.2-1.7,4.5-3.3,8.5c-1.8,4.6-2.4,10.3-1.5,16l6.3,39.7c1,6.5-2,12.1-6.6,12.1
			c-4,0-7.8-4.2-8.9-9.9l-13.6-66.3L89.1,1250.8z"/>
		<g class="st43">
			<g>
				<defs>
					<rect id="SVGID_31_" x="61.6" y="1250.8" width="27.5" height="76"/>
				</defs>
				<clipPath id="SVGID_32_">
					<use xlink:href="#SVGID_31_"  style="overflow:visible;"/>
				</clipPath>
				<path class="st44" d="M87,1256.4c1.2-2.9,2.1-5.4,2.1-5.6l-27.5,0.1l13.6,66.3c0.9,4.8,3.8,8.5,7.1,9.6
					c-4.5-17.8-5.5-39.1-8.2-54.6C70.6,1257.9,80.2,1259.9,87,1256.4"/>
			</g>
		</g>
		<path class="st1" d="M298.5,1305.3c0,0-68.2-54-182.6-31.6l-11.5-58.7c114.3-22.4,157.1-98.2,157.1-98.2L298.5,1305.3z"/>
		<g class="st43">
			<g>
				<defs>
					<rect id="SVGID_33_" x="110" y="1243.7" width="188.5" height="61.6"/>
				</defs>
				<clipPath id="SVGID_34_">
					<use xlink:href="#SVGID_33_"  style="overflow:visible;"/>
				</clipPath>
				<path class="st45" d="M287.9,1251.6c-54.7,15.4-105,3-162.9-6c-5-0.9-10-1.5-15.1-1.8l5.9,30.1
					c114.3-22.4,182.6,31.6,182.6,31.6L287.9,1251.6z"/>
			</g>
		</g>
		<path class="st34" d="M261.4,1116.8c21.2-4.2,46.7,34.7,56.9,86.7c10.2,52.1,1.3,97.6-19.9,101.8c-21.2,4.2-46.7-34.7-56.9-86.7
			C231.3,1166.6,240.2,1121,261.4,1116.8"/>
		<path class="st46" d="M262.5,1122c18-3.5,40.4,33.1,49.9,81.8c9.6,48.7,2.7,91.1-15.3,94.6c-18,3.5-40.4-33.1-49.9-81.8
			C237.6,1167.9,244.4,1125.5,262.5,1122"/>
		<g class="st43">
			<g>
				<defs>
					<rect id="SVGID_35_" x="242.8" y="1151.2" width="43.1" height="126"/>
				</defs>
				<clipPath id="SVGID_36_">
					<use xlink:href="#SVGID_35_"  style="overflow:visible;"/>
				</clipPath>
				<path class="st47" d="M244.5,1152.5c0.9-0.5,1.8-0.9,2.8-1.1c12.8-2.5,28.7,23.6,35.6,58.3c6.8,34.7,1.9,64.9-10.9,67.4
					c-1,0.2-2,0.2-3,0.1c-9-14.8-17-36.1-21.7-60.4C242.4,1192.3,241.7,1169.6,244.5,1152.5"/>
			</g>
		</g>
		<path class="st48" d="M74.5,1220.6l39.7-7.8l-0.2,2.1c-2,18.5,1.5,37.2,10.1,53.7l1.8,3.4l-39.7,7.8c-12.7,2.5-25-5.4-27.4-17.7
			l-2.9-14.9C53.4,1235.1,61.7,1223.1,74.5,1220.6"/>
		<path class="st49" d="M125.8,1272.1l-13.2,2.6l-10.1,2l-16.4,3.2c-12.7,2.5-25-5.4-27.4-17.7l-2.9-14.9
			c-2.4-12.2,6-24.2,18.7-26.7l18.1-3.6l9.1-1.8l12.5-2.4l-0.2,2.1c-1.9,18.5,1.5,37.2,10.1,53.7L125.8,1272.1z"/>
		<path class="st34" d="M112.6,1274.7l-10.1,2c-7.8-18.9-11.2-39.2-9.9-59.6l9.1-1.8C100.8,1235.6,104.5,1255.9,112.6,1274.7"/>
		<path class="st50" d="M288.3,1208.6c1.4,7.2-2.1,14.7-8.9,18.9l-25.5,15.7c-2.7-8.2-5-17.1-6.8-26.5c-1.8-9.3-3.1-18.4-3.7-27.1
			l29.6,4.9C280.9,1195.7,286.9,1201.3,288.3,1208.6"/>
		<path class="st5" d="M277.3,1210.7c1.3,6.6,4.8,11.4,7.8,10.8c3-0.6,4.5-6.4,3.2-12.9c-1.3-6.6-4.8-11.4-7.8-10.8
			C277.5,1198.4,276,1204.2,277.3,1210.7"/>
		<g class="st43">
			<g>
				<defs>
					<rect id="SVGID_37_" x="55.4" y="1243.6" width="70.4" height="36.7"/>
				</defs>
				<clipPath id="SVGID_38_">
					<use xlink:href="#SVGID_37_"  style="overflow:visible;"/>
				</clipPath>
				<path class="st51" d="M124.1,1268.7c-4-7.7-6.8-15.9-8.6-24.3c-18.3-1.8-40.6,1.6-60.1-0.8c0,1.2,0.1,2.5,0.4,3.7l2.9,14.9
					c2.4,12.3,14.7,20.2,27.4,17.7l16.4-3.2l10.1-2l13.2-2.6L124.1,1268.7z"/>
			</g>
		</g>
		<path class="st4" d="M3137.1,1005.3c-9,82.4-56.8,151.2-123.3,190c-9.7,5.7-19.9,10.7-30.3,15.1c-31.4,13-65.8,19.8-101.5,19
			c-7.2-0.2-14.4-0.6-21.7-1.4c-5.2-0.6-10.3-1.3-15.3-2.1c-34.1-5.8-65.5-18.3-93.1-36c-9.1-5.8-17.8-12.2-26-19.2
			c-61.9-52.1-97.6-133.1-88.2-219.6c15-137.9,138.9-237.6,276.9-222.6C3052.4,743.4,3152.1,867.4,3137.1,1005.3"/>
		<path class="st52" d="M2983.4,1210.4c1.1-8.4,1.9-16.8,1.8-25.4c0-10.2-0.8-20.2-3.1-30.1c-3.7-15.7-11.3-28.9-24.5-38.7
			c-1.8-1.3-4.1-2-5.3-4.1c5.5,1.4,10.6,3.6,15.5,6.2c5.4,2.8,10.3,6.6,15.2,10.1c2.4,2.5,5,5,7.3,7.6c8.7,9.8,14.5,21.2,18.4,33.6
			c0.2,0.6,0.5,1.2,0.7,1.8c1.9,7.9,3.5,15.8,4.3,23.9C3004,1201,2993.9,1206,2983.4,1210.4"/>
		<path class="st52" d="M2796.8,1097.2c-0.3,1-1.2,1.1-1.9,1.4c-3.8,1.6-7.3,3.8-10.5,6.3c-10.2,8.1-17,18.7-21.7,30.7
			c-5.1,12.7-7.9,25.9-9.4,39.5c-0.5,4.9-1,9.8-1.3,14.7c-9.1-5.8-17.8-12.2-26-19.2c2.7-9.7,6.2-19.1,11-28.1
			c0.1-0.2,0.1-0.5,0.2-0.7c3.7-5.9,7.3-11.8,11.9-17.2c6.1-7.2,13.3-13,21.3-18c0.4-0.2,0.9-0.4,1.3-0.6
			C2779.4,1101.8,2787.8,1098.6,2796.8,1097.2"/>
		<path class="st1" d="M2983.4,1210.4c-31.4,13-65.8,19.8-101.5,19c3.5-31.9,6.9-63.8,10.4-95.7c0.3-2.6,0.5-5.2,0.7-7.8
			c0.7-0.2,1.4-0.5,2.2-0.7c11.4-3.8,19.4-11.2,23.8-22.5c5.5,0.9,11.1,1.6,16.6,3.1c5.8,1.5,11.1,4.3,16.7,6.2
			c1.2,2,3.5,2.8,5.3,4.1c13.2,9.8,20.8,23,24.5,38.7c2.3,9.9,3.1,19.9,3.1,30.1C2985.3,1193.5,2984.5,1202,2983.4,1210.4"/>
		<path class="st1" d="M2856.2,1122.3c-3.7,34.5-7.5,69-11.2,103.5c-34.1-5.8-65.5-18.3-93.1-36c0.3-4.9,0.8-9.8,1.3-14.7
			c1.5-13.6,4.4-26.8,9.4-39.5c4.8-11.9,11.5-22.6,21.7-30.7c3.2-2.5,6.7-4.7,10.5-6.3c0.8-0.3,1.7-0.4,1.9-1.4
			c2.8-0.8,5.7-1.6,8.5-2.3c11-2.8,22.2-2.4,33.3-0.8c0.2,1.2,0.4,2.3,0.6,3.5c2.5,10.1,8.3,17.8,17.1,23.4
			C2856.3,1121.3,2856.2,1121.8,2856.2,1122.3"/>
		<path class="st53" d="M2881.9,1229.4c-7.2-0.2-14.4-0.6-21.7-1.4c-5.2-0.6-10.3-1.3-15.3-2.1c3.7-34.5,7.5-69,11.2-103.5
			c0.1-0.5,0.2-1,0.3-1.5c11.6,6.3,23.8,7.7,36.6,5c-0.2,2.6-0.5,5.2-0.7,7.8C2888.9,1165.6,2885.4,1197.5,2881.9,1229.4"/>
		<path class="st54" d="M2838.7,1094c-11.2-1.5-22.3-1.9-33.3,0.9c-2.9,0.7-5.7,1.6-8.5,2.3c-9,1.4-17.4,4.6-25.4,8.9
			c-0.4,0.2-0.9,0.4-1.3,0.6c1.4-15.8,2.8-31.6,4.3-47.3c3.5-36.5,6.9-73,10.5-109.5c2.2-22.1,7-43.6,16.5-63.8
			c10-21.1,24.3-38.6,44.9-50.2c15.3-8.6,31.8-12.4,49.2-12.4c21.3,0.1,41.4,4.9,59.8,15.9c12.6,7.5,21.9,18,29.3,30.7
			c15.5,26.5,20.2,55.2,18.8,85.3c-1,21.7-4.3,43.3-7,64.8c-4.3,35.5-8.8,70.9-13.2,106.4c-0.1,0.6-0.2,1.2-0.3,1.7
			c-4.9-3.6-9.8-7.3-15.2-10.1c-5-2.6-10.1-4.8-15.5-6.2c-5.6-1.9-10.9-4.7-16.7-6.2c-5.5-1.5-11-2.1-16.6-3.1
			c-1.8-13.3-1.1-26.4,3-39.2c0.4-1.4,1.1-2.3,2.3-3.1c8.2-5.6,15.3-12.4,21.7-20c9.7-11.4,17.5-24.1,23.8-37.6
			c0.3-0.7,0.2-2.1,1.6-1.8c5.3,1.3,8.8-1.8,12.1-5.2c4.3-4.7,7-10.3,8.9-16.2c2.5-7.9,3.8-15.9,1.9-24.1c-0.7-3-1.8-5.7-4.7-7.7
			c-0.4,2-0.7,3.8-1.1,5.6c-1.7,8.1-4.1,16-8.8,22.9c-2.9,4.3-6.3,8.1-11.6,9.6l0,0c-0.4-1.1,0.2-2,0.5-2.9
			c4.1-14.3,6.8-28.9,6.6-43.8c-0.1-9.4-1.4-18.6-5.5-27.3c-2.3-4.8-5.3-8.9-9.9-12.7c1.5,22.2,2.4,43.9,5.9,65.6
			c-0.6,0-1,0-1.4-0.1c-14.3-1.1-28.4-3.6-42.3-7.4c-16.5-4.5-32.3-10.7-46.4-20.6c-15.7-11.1-26.7-25.5-29.8-45
			c-1-6.1-1.1-12.3-0.6-18.6c-0.6,0.5-1,1.1-1.4,1.7c-6.2,10.3-11.8,21-16.6,32c-4.1,9.3-7.6,18.7-9.9,28.6
			c-2.7,11.2-4.1,22.5-0.7,33.9c-12.9-11-15.5-25.7-15.2-41.8c-3.4,2-5,4.9-6.3,8c-3.7,9.6-3.6,19.4-1.4,29.3
			c1.1,5,2.9,9.7,6.1,13.7c2.1,2.6,4.6,4.8,8.3,4.5c1.5-0.1,2,0.3,2.3,1.8c1,5.3,2.4,10.5,4.1,15.6c5.9,18.5,14.3,35.6,27.4,50.2
			c1.5,1.6,2.1,3.2,2.2,5.4C2844.4,1069.1,2841.9,1081.6,2838.7,1094"/>
		<path class="st27" d="M2968.1,985.8c5.3-1.5,8.6-5.3,11.6-9.6c4.7-6.9,7.1-14.8,8.8-22.9c0.4-1.8,0.7-3.6,1.1-5.6
			c2.8,2,4,4.8,4.7,7.7c1.9,8.2,0.7,16.2-1.8,24.1c-1.9,6-4.6,11.6-8.9,16.2c-3.2,3.5-6.7,6.5-12.1,5.2c-1.4-0.3-1.3,1.1-1.6,1.8
			c-6.3,13.6-14.1,26.2-23.8,37.6c-6.4,7.5-13.5,14.3-21.7,20c-1.2,0.8-1.9,1.8-2.3,3.1c-4.1,12.8-4.8,25.9-3,39.2
			c-4.4,11.3-12.4,18.7-23.8,22.5c-0.7,0.2-1.4,0.5-2.1,0.7c-12.8,2.6-25.1,1.3-36.6-5c-8.8-5.5-14.7-13.2-17.1-23.4
			c-0.3-1.1-0.4-2.3-0.6-3.5c3.3-12.4,5.7-24.9,5.4-37.9c-0.1-2.1-0.7-3.7-2.2-5.4c-13.1-14.5-21.5-31.7-27.4-50.2
			c-1.6-5.1-3.1-10.3-4.1-15.6c-0.3-1.4-0.7-1.9-2.3-1.8c-3.7,0.3-6.2-1.9-8.3-4.5c-3.2-4-5-8.8-6.1-13.7
			c-2.2-9.9-2.4-19.7,1.4-29.3c1.2-3.2,2.9-6.1,6.3-8c-0.3,16,2.4,30.8,15.2,41.8c-3.4-11.4-2-22.7,0.7-33.9
			c2.4-9.9,5.9-19.3,9.9-28.6c4.8-11,10.4-21.7,16.6-32c0.4-0.6,0.8-1.2,1.4-1.7c-0.4,6.3-0.3,12.4,0.6,18.6
			c3.1,19.5,14.1,33.9,29.8,45c14.1,10,29.9,16.1,46.4,20.6c13.8,3.8,27.9,6.3,42.3,7.4c0.4,0,0.8,0,1.4,0.1
			c-3.5-21.6-4.4-43.3-5.9-65.6c4.6,3.7,7.6,7.9,9.9,12.7c4.1,8.6,5.4,17.8,5.5,27.3c0.2,15-2.5,29.5-6.6,43.8
			C2968.3,983.9,2967.7,984.8,2968.1,985.8c-0.1,0.1-0.2,0.1-0.3,0.1c0,0,0.1,0.1,0.1,0.1C2968,986,2968.1,985.9,2968.1,985.8"/>
		<path class="st55" d="M2968.1,985.8c0,0.1-0.1,0.1-0.1,0.2c0,0-0.1,0-0.1-0.1C2967.9,985.9,2968,985.9,2968.1,985.8
			C2968.1,985.9,2968.1,985.8,2968.1,985.8"/>
		<g class="st8">
			<g>
				<defs>
					<rect id="SVGID_39_" x="1733.3" y="658.7" width="309.4" height="12.9"/>
				</defs>
				<clipPath id="SVGID_40_">
					<use xlink:href="#SVGID_39_"  style="overflow:visible;"/>
				</clipPath>
				<path class="st56" d="M2036.8,671.6h-297.6c-3.3,0-5.9-2.7-5.9-5.9v-1.1c0-3.3,2.7-5.9,5.9-5.9h297.6c3.3,0,5.9,2.7,5.9,5.9v1.1
					C2042.8,668.9,2040.1,671.6,2036.8,671.6"/>
			</g>
		</g>
		<g class="st10">
			<g>
				<defs>
					<rect id="SVGID_41_" x="1733.3" y="683" width="309.4" height="12.9"/>
				</defs>
				<clipPath id="SVGID_42_">
					<use xlink:href="#SVGID_41_"  style="overflow:visible;"/>
				</clipPath>
				<path class="st57" d="M2036.8,695.9h-297.6c-3.3,0-5.9-2.7-5.9-5.9v-1.1c0-3.3,2.7-5.9,5.9-5.9h297.6c3.3,0,5.9,2.7,5.9,5.9v1.1
					C2042.8,693.2,2040.1,695.9,2036.8,695.9"/>
			</g>
		</g>
		<g class="st12">
			<g>
				<defs>
					<rect id="SVGID_43_" x="1733.3" y="707.3" width="217.5" height="12.9"/>
				</defs>
				<clipPath id="SVGID_44_">
					<use xlink:href="#SVGID_43_"  style="overflow:visible;"/>
				</clipPath>
				<path class="st58" d="M1944.9,720.2h-205.7c-3.3,0-5.9-2.7-5.9-5.9v-1.1c0-3.3,2.7-5.9,5.9-5.9h205.7c3.3,0,5.9,2.7,5.9,5.9v1.1
					C1950.8,717.5,1948.2,720.2,1944.9,720.2"/>
			</g>
		</g>
		<path class="st59" d="M1739.3,300.1c38.6-21,87.1-7.3,108.8,32c21.5,39,7.2,88.2-32,109.5c-38.9,21.2-87.4,6.7-108.7-32
			C1685.7,370.2,1700.5,321,1739.3,300.1 M1801.1,396.9c6-3.3,12-6.5,17.9-9.8c4.3-2.4,4.6-7.5,0.6-10.2c-1.1-0.7-1.2-1.2-0.6-2.3
			c1.8-3.3,0.4-7-3.2-8.3c-1.1-0.4-1.6-0.6-0.9-1.9c2-3.6,0.6-7.3-3.2-9.1c-1.1-0.5-1.7-1-1.3-2.5c0.7-3.3-0.4-6.1-3.1-8
			c-2.6-1.8-5.4-1.7-8.2-0.1c-5.8,3.2-11.7,6.3-17.5,9.6c-1.5,0.8-1.8,0.6-1.8-1.1c-0.2-4-0.6-8-1.4-11.9
			c-1.2-5.7-4.1-10.3-8.9-13.6c-2.1-1.5-4.4-1.6-6.9-0.3c-2.1,1.2-3,2.8-3.1,5.1c0,1.4,0.6,2.6,1.4,3.7c2.3,3.3,2.4,6.7,1.5,10.5
			c-1.2,5.1-2.4,10.2-3.1,15.5c-0.8,6.3,0.7,11.9,3.4,17.3c4.2,8.5,9,16.7,13.5,25c1.8,3.3,3.8,3.9,7.1,2.1
			C1789.3,403.3,1795.2,400.1,1801.1,396.9 M1748.8,403.5C1748.8,403.5,1748.8,403.5,1748.8,403.5c3.1,5.8,6.3,11.5,9.4,17.3
			c0.9,1.7,2.1,2.5,4,1.5c3.8-2,7.6-4.1,11.3-6.2c2.2-1.2,2.5-2.4,1.3-4.6c-6.2-11.5-12.5-23-18.8-34.4c-1.3-2.3-2.2-2.5-4.6-1.2
			c-3.6,1.9-7.2,3.9-10.7,5.8c-2.5,1.4-2.7,2.2-1.3,4.7C1742.6,392.1,1745.7,397.8,1748.8,403.5"/>
		<path class="st53" d="M1801.1,396.9c-5.9,3.2-11.8,6.5-17.7,9.7c-3.3,1.8-5.3,1.2-7.1-2.1c-4.5-8.3-9.3-16.5-13.5-25
			c-2.7-5.3-4.3-11-3.4-17.3c0.7-5.2,1.9-10.4,3.1-15.5c0.9-3.8,0.8-7.2-1.5-10.5c-0.7-1-1.4-2.2-1.4-3.7c0-2.3,1-4,3.1-5.1
			c2.4-1.3,4.7-1.2,6.9,0.3c4.8,3.3,7.7,7.9,8.9,13.6c0.8,3.9,1.3,7.9,1.4,11.9c0.1,1.6,0.4,1.9,1.8,1.1c5.8-3.2,11.7-6.4,17.5-9.6
			c2.8-1.5,5.5-1.7,8.2,0.1c2.8,1.9,3.9,4.7,3.1,8c-0.3,1.4,0.2,2,1.3,2.5c3.8,1.8,5.1,5.5,3.2,9.1c-0.7,1.3-0.2,1.5,0.9,1.9
			c3.6,1.3,5.1,5,3.2,8.3c-0.6,1.2-0.5,1.6,0.6,2.3c4.1,2.8,3.8,7.8-0.6,10.2C1813.1,390.4,1807.1,393.6,1801.1,396.9"/>
		<path class="st53" d="M1748.8,403.5c-3.1-5.7-6.2-11.4-9.3-17.1c-1.4-2.5-1.1-3.3,1.3-4.7c3.6-2,7.1-3.9,10.7-5.8
			c2.4-1.3,3.3-1.1,4.6,1.2c6.3,11.5,12.5,22.9,18.8,34.4c1.2,2.2,0.9,3.4-1.3,4.6c-3.8,2.1-7.5,4.1-11.3,6.2c-1.9,1-3.1,0.2-4-1.5
			C1755.1,415,1751.9,409.3,1748.8,403.5C1748.8,403.5,1748.8,403.5,1748.8,403.5"/>
		<path class="st59" d="M953.5,1189.2c48.9,17,75.4,70.2,58.2,120.3c-17,49.7-71.3,76.1-121,58.8c-49.3-17.2-75.1-71-58.1-120.3
			C849.9,1198,904.5,1172,953.5,1189.2 M918,1319.9c7.6,2.6,15.1,5.3,22.7,7.9c5.5,1.9,10.2-1.9,9.4-7.6c-0.2-1.5,0-2,1.6-2.4
			c4.4-1,6.4-5.3,4.7-9.4c-0.5-1.2-0.8-1.8,1-2.3c4.7-1.1,6.9-5.3,5.4-10c-0.4-1.4-0.4-2.3,1.1-3.1c3.5-2,5-5.1,4.5-9
			c-0.5-3.7-2.8-6-6.4-7.2c-7.4-2.5-14.8-5.2-22.2-7.7c-1.9-0.6-1.9-1.1-0.5-2.4c3.4-3.3,6.5-6.8,9.2-10.6c4-5.6,5.7-11.7,4.8-18.5
			c-0.4-3-2.1-5.2-5.2-6.2c-2.7-0.9-4.8-0.4-6.9,1.4c-1.3,1.1-1.8,2.6-2.1,4.1c-1,4.6-4,7.4-8,9.7c-5.4,3-10.8,6.1-15.9,9.6
			c-6.2,4.2-9.9,10.1-12.4,16.7c-4,10.4-7.5,21-11.1,31.6c-1.5,4.2-0.4,6.4,3.8,7.9C903,1314.7,910.5,1317.3,918,1319.9
			 M870.8,1279.4C870.8,1279.4,870.8,1279.4,870.8,1279.4c-2.6,7.3-5.1,14.6-7.7,21.9c-0.8,2.1-0.5,3.8,1.9,4.7
			c4.8,1.7,9.6,3.4,14.4,5c2.8,0.9,4.1,0.3,5.1-2.5c5.1-14.5,10.1-29.1,15.2-43.7c1-2.9,0.5-3.9-2.5-5c-4.5-1.6-9.1-3.2-13.6-4.7
			c-3.1-1.1-4.1-0.6-5.2,2.5C875.8,1265,873.3,1272.2,870.8,1279.4"/>
		<path class="st53" d="M918,1319.9c-7.5-2.6-15-5.2-22.5-7.8c-4.2-1.5-5.3-3.7-3.8-7.9c3.6-10.5,7.1-21.2,11.1-31.6
			c2.5-6.6,6.2-12.4,12.4-16.7c5.1-3.5,10.5-6.6,15.9-9.6c4-2.2,7-5,8-9.7c0.3-1.5,0.8-3,2.1-4.1c2.1-1.8,4.2-2.3,6.9-1.4
			c3.1,1,4.8,3.2,5.2,6.2c0.9,6.8-0.9,13-4.8,18.5c-2.7,3.8-5.9,7.3-9.2,10.6c-1.4,1.3-1.3,1.8,0.5,2.4c7.4,2.5,14.8,5.1,22.2,7.7
			c3.6,1.2,5.9,3.5,6.4,7.2c0.5,3.9-1,7.1-4.4,9.1c-1.5,0.9-1.5,1.8-1.1,3.1c1.4,4.7-0.8,8.8-5.4,10c-1.7,0.4-1.5,1-1,2.3
			c1.7,4.2-0.3,8.4-4.7,9.4c-1.5,0.4-1.8,0.8-1.6,2.4c0.8,5.8-3.9,9.5-9.4,7.6C933.1,1325.2,925.5,1322.5,918,1319.9"/>
		<path class="st53" d="M870.8,1279.4c2.5-7.2,5-14.5,7.5-21.7c1.1-3.2,2-3.6,5.2-2.5c4.5,1.5,9.1,3.1,13.6,4.7c3,1.1,3.5,2,2.5,5
			c-5,14.6-10.1,29.1-15.2,43.7c-1,2.8-2.3,3.5-5.1,2.5c-4.8-1.6-9.6-3.3-14.4-5c-2.4-0.8-2.6-2.5-1.9-4.7
			C865.7,1294.1,868.2,1286.8,870.8,1279.4C870.8,1279.4,870.8,1279.4,870.8,1279.4"/>
	</g>
</g>
</svg>
