<?xml version="1.0" encoding="utf-8"?>
<!-- Generator: Adobe Illustrator 21.1.0, SVG Export Plug-In . SVG Version: 6.00 Build 0)  -->
<svg version="1.1" id="Слой_1" xmlns="http://www.w3.org/2000/svg" xmlns:xlink="http://www.w3.org/1999/xlink" x="0px" y="0px"
	 viewBox="0 0 3017.3 2400" style="enable-background:new 0 0 3017.3 2400;" xml:space="preserve">
<style type="text/css">
	.st0{clip-path:url(#SVGID_2_);}
	.st1{clip-path:url(#SVGID_4_);fill:#EEF2F9;}
	.st2{clip-path:url(#SVGID_4_);fill:#E3E9F6;}
	.st3{clip-path:url(#SVGID_4_);fill:#FFFFFF;}
	.st4{opacity:0.46;clip-path:url(#SVGID_4_);}
	.st5{clip-path:url(#SVGID_6_);fill:#E3E9F6;}
	.st6{clip-path:url(#SVGID_4_);fill:#9BCAFE;}
	.st7{clip-path:url(#SVGID_4_);fill:#81BCFD;}
	.st8{clip-path:url(#SVGID_4_);fill:#ED442E;}
	.st9{clip-path:url(#SVGID_4_);fill:#397CF2;}
	.st10{clip-path:url(#SVGID_4_);fill:#3694FC;}
	.st11{clip-path:url(#SVGID_4_);fill:#A1C6E5;}
	.st12{clip-path:url(#SVGID_4_);fill:#C3DFFE;}
	.st13{clip-path:url(#SVGID_4_);fill:#52A3FC;}
	.st14{clip-path:url(#SVGID_4_);fill:#F8BC3F;}
	.st15{clip-path:url(#SVGID_4_);fill:#D43D31;}
	.st16{clip-path:url(#SVGID_4_);fill:#85B4FD;}
	.st17{clip-path:url(#SVGID_4_);fill:#DBA78B;}
	.st18{clip-path:url(#SVGID_4_);fill:#B78B73;}
	.st19{clip-path:url(#SVGID_4_);fill:#011158;}
	.st20{opacity:0.42;clip-path:url(#SVGID_4_);}
	.st21{clip-path:url(#SVGID_8_);fill:#FFFFFF;}
	.st22{clip-path:url(#SVGID_10_);fill:#FFFFFF;}
	.st23{clip-path:url(#SVGID_4_);fill:#D8E2F3;}
	.st24{opacity:0.51;clip-path:url(#SVGID_4_);}
	.st25{clip-path:url(#SVGID_12_);fill:#D8E2F3;}
	.st26{opacity:0.54;clip-path:url(#SVGID_4_);}
	.st27{clip-path:url(#SVGID_14_);fill:#D8E2F3;}
	.st28{clip-path:url(#SVGID_16_);fill:#D8E2F3;}
	.st29{clip-path:url(#SVGID_18_);fill:#D8E2F3;}
	.st30{clip-path:url(#SVGID_20_);fill:#D8E2F3;}
	.st31{clip-path:url(#SVGID_22_);fill:#D8E2F3;}
	.st32{clip-path:url(#SVGID_24_);fill:#D8E2F3;}
	.st33{clip-path:url(#SVGID_26_);fill:#D8E2F3;}
	.st34{clip-path:url(#SVGID_28_);fill:#D8E2F3;}
	.st35{clip-path:url(#SVGID_30_);fill:#D8E2F3;}
	.st36{clip-path:url(#SVGID_32_);fill:#D8E2F3;}
	.st37{clip-path:url(#SVGID_34_);fill:#D8E2F3;}
	.st38{clip-path:url(#SVGID_36_);fill:#D8E2F3;}
	.st39{clip-path:url(#SVGID_38_);fill:#D8E2F3;}
	.st40{opacity:0.66;clip-path:url(#SVGID_4_);}
	.st41{clip-path:url(#SVGID_40_);fill:#D8E2F3;}
	.st42{clip-path:url(#SVGID_4_);fill:#071A6B;}
	.st43{clip-path:url(#SVGID_4_);fill:#1A2982;}
	.st44{clip-path:url(#SVGID_4_);fill:#77524E;}
	.st45{clip-path:url(#SVGID_4_);fill:#F6A438;}
	.st46{clip-path:url(#SVGID_4_);fill:#91645E;}
	.st47{opacity:0.92;clip-path:url(#SVGID_4_);}
	.st48{clip-path:url(#SVGID_42_);fill:#77524E;}
	.st49{clip-path:url(#SVGID_44_);fill:#77524E;}
	.st50{clip-path:url(#SVGID_4_);fill:#7F7F7F;}
	.st51{clip-path:url(#SVGID_4_);fill:#757575;}
	.st52{clip-path:url(#SVGID_4_);fill:#9C9C9C;}
	.st53{clip-path:url(#SVGID_4_);fill:#1D2A7C;}
	.st54{clip-path:url(#SVGID_4_);fill:#0F0F0F;}
	.st55{clip-path:url(#SVGID_4_);fill:#A08570;}
	.st56{clip-path:url(#SVGID_4_);fill:#4F2515;}
	.st57{clip-path:url(#SVGID_4_);fill:#9BC1E9;}
	.st58{clip-path:url(#SVGID_4_);fill:#021149;}
	.st59{clip-path:url(#SVGID_4_);fill:#E2B370;}
	.st60{clip-path:url(#SVGID_4_);fill:#0D5DBC;}
	.st61{clip-path:url(#SVGID_4_);fill:#116DDB;}
	.st62{clip-path:url(#SVGID_4_);fill:#1881EA;}
	.st63{clip-path:url(#SVGID_4_);fill:#132A7C;}
	.st64{opacity:0.6;clip-path:url(#SVGID_4_);}
	.st65{clip-path:url(#SVGID_46_);fill:#B78B73;}
	.st66{clip-path:url(#SVGID_4_);fill:#0D6ECE;}
	.st67{clip-path:url(#SVGID_48_);fill:#B78B73;}
	.st68{clip-path:url(#SVGID_4_);fill:#F5D89D;}
	.st69{clip-path:url(#SVGID_50_);fill:#B78B73;}
	.st70{clip-path:url(#SVGID_4_);fill:#2F80DB;}
</style>
<g>
	<defs>
		<rect id="SVGID_1_" width="3017.3" height="2400"/>
	</defs>
	<clipPath id="SVGID_2_">
		<use xlink:href="#SVGID_1_"  style="overflow:visible;"/>
	</clipPath>
	<g class="st0">
		<defs>
			<rect id="SVGID_3_" width="3017.3" height="2400"/>
		</defs>
		<clipPath id="SVGID_4_">
			<use xlink:href="#SVGID_3_"  style="overflow:visible;"/>
		</clipPath>
		<path class="st1" d="M1102.6,2375.6c0,0-1191.8-61.8-1097.2-1314.2S1331.1-179.2,1732.5,300.7
			c401.4,479.9,1325.8,231.3,1283.4,1118.5C2973.5,2306.4,1741.5,2472.4,1102.6,2375.6"/>
		<rect x="1388.3" y="151.3" class="st2" width="1374.4" height="756.1"/>
		<rect x="1415.4" y="179.6" class="st3" width="1317.5" height="704.7"/>
		<g class="st4">
			<g>
				<defs>
					<rect id="SVGID_5_" x="1415.4" y="179.6" width="1317.5" height="704.7"/>
				</defs>
				<clipPath id="SVGID_6_">
					<use xlink:href="#SVGID_5_"  style="overflow:visible;"/>
				</clipPath>
				<polygon class="st5" points="1415.4,884.3 2732.9,179.6 2732.9,884.3 				"/>
			</g>
		</g>
		<path class="st6" d="M1946.1,289.6h-450.8c-0.3,0-0.6-0.3-0.6-0.6c0-0.3,0.3-0.6,0.6-0.6h450.8c0.3,0,0.6,0.3,0.6,0.6
			C1946.7,289.3,1946.4,289.6,1946.1,289.6"/>
		<path class="st6" d="M1946.1,335.6h-450.8c-0.3,0-0.6-0.3-0.6-0.6s0.3-0.6,0.6-0.6h450.8c0.3,0,0.6,0.3,0.6,0.6
			S1946.4,335.6,1946.1,335.6"/>
		<path class="st6" d="M1946.1,381.5h-450.8c-0.3,0-0.6-0.3-0.6-0.6c0-0.3,0.3-0.6,0.6-0.6h450.8c0.3,0,0.6,0.3,0.6,0.6
			C1946.7,381.3,1946.4,381.5,1946.1,381.5"/>
		<path class="st6" d="M1946.1,427.5h-450.8c-0.3,0-0.6-0.3-0.6-0.6c0-0.3,0.3-0.6,0.6-0.6h450.8c0.3,0,0.6,0.3,0.6,0.6
			C1946.7,427.3,1946.4,427.5,1946.1,427.5"/>
		<path class="st6" d="M1946.1,473.5h-450.8c-0.3,0-0.6-0.3-0.6-0.6c0-0.3,0.3-0.6,0.6-0.6h450.8c0.3,0,0.6,0.3,0.6,0.6
			C1946.7,473.2,1946.4,473.5,1946.1,473.5"/>
		<path class="st6" d="M1946.1,519.5h-450.8c-0.3,0-0.6-0.3-0.6-0.6c0-0.3,0.3-0.6,0.6-0.6h450.8c0.3,0,0.6,0.3,0.6,0.6
			C1946.7,519.2,1946.4,519.5,1946.1,519.5"/>
		<path class="st6" d="M1946.1,565.4h-450.8c-0.3,0-0.6-0.3-0.6-0.6c0-0.3,0.3-0.6,0.6-0.6h450.8c0.3,0,0.6,0.3,0.6,0.6
			C1946.7,565.2,1946.4,565.4,1946.1,565.4"/>
		<path class="st6" d="M1946.1,611.4h-450.8c-0.3,0-0.6-0.3-0.6-0.6c0-0.3,0.3-0.6,0.6-0.6h450.8c0.3,0,0.6,0.3,0.6,0.6
			C1946.7,611.1,1946.4,611.4,1946.1,611.4"/>
		<path class="st6" d="M1536.1,665.1c-0.3,0-0.6-0.3-0.6-0.6V278.9c0-0.3,0.3-0.6,0.6-0.6c0.3,0,0.6,0.3,0.6,0.6v385.6
			C1536.7,664.8,1536.4,665.1,1536.1,665.1"/>
		<path class="st6" d="M1589.7,665.1c-0.3,0-0.6-0.3-0.6-0.6V278.9c0-0.3,0.3-0.6,0.6-0.6c0.3,0,0.6,0.3,0.6,0.6v385.6
			C1590.3,664.8,1590,665.1,1589.7,665.1"/>
		<path class="st6" d="M1643.3,665.1c-0.3,0-0.6-0.3-0.6-0.6V278.9c0-0.3,0.3-0.6,0.6-0.6c0.3,0,0.6,0.3,0.6,0.6v385.6
			C1643.9,664.8,1643.6,665.1,1643.3,665.1"/>
		<path class="st6" d="M1696.9,665.1c-0.3,0-0.6-0.3-0.6-0.6V278.9c0-0.3,0.3-0.6,0.6-0.6c0.3,0,0.6,0.3,0.6,0.6v385.6
			C1697.5,664.8,1697.2,665.1,1696.9,665.1"/>
		<path class="st6" d="M1750.5,665.1c-0.3,0-0.6-0.3-0.6-0.6V278.9c0-0.3,0.3-0.6,0.6-0.6c0.3,0,0.6,0.3,0.6,0.6v385.6
			C1751.1,664.8,1750.8,665.1,1750.5,665.1"/>
		<path class="st6" d="M1804.1,665.1c-0.3,0-0.6-0.3-0.6-0.6V278.9c0-0.3,0.3-0.6,0.6-0.6c0.3,0,0.6,0.3,0.6,0.6v385.6
			C1804.7,664.8,1804.4,665.1,1804.1,665.1"/>
		<path class="st6" d="M1857.7,665.1c-0.3,0-0.6-0.3-0.6-0.6V278.9c0-0.3,0.3-0.6,0.6-0.6c0.3,0,0.6,0.3,0.6,0.6v385.6
			C1858.3,664.8,1858,665.1,1857.7,665.1"/>
		<path class="st6" d="M1911.3,665.1c-0.3,0-0.6-0.3-0.6-0.6V278.9c0-0.3,0.3-0.6,0.6-0.6c0.3,0,0.6,0.3,0.6,0.6v385.6
			C1911.9,664.8,1911.7,665.1,1911.3,665.1"/>
		<polygon class="st6" points="1946.1,668.4 1491.4,668.4 1491.4,270.8 1499.2,270.8 1499.2,660.5 1946.1,660.5 		"/>
		<path class="st7" d="M1520.1,655.2c-1.3,0-2.6-0.4-3.7-1.3c-2.5-2-3-5.7-0.9-8.3l79.5-100.1l75,48.8l88.6-100.5l50.8,57.6
			l107.1-119.7c2.2-2.4,5.9-2.6,8.3-0.5c2.4,2.2,2.6,5.9,0.5,8.3l-116,129.6l-50.8-57.6l-86.4,98.1l-74.6-48.5l-72.9,91.7
			C1523.5,654.5,1521.8,655.2,1520.1,655.2"/>
		<path class="st7" d="M1930.4,445.1c4.9-5.5,4.4-13.9-1-18.7c-5.5-4.9-13.9-4.4-18.7,1c-4.9,5.5-4.4,13.9,1,18.7
			S1925.5,450.6,1930.4,445.1"/>
		<path class="st8" d="M1520.1,607.2c-1.3,0-2.5-0.4-3.6-1.2c-2.6-2-3-5.7-1.1-8.3l38.5-49.7c1.6-2,4.3-2.8,6.7-1.9l88.5,33.5
			c8.7-11.3,38.8-49.2,145.6-181.5c1.4-1.7,3.5-2.5,5.7-2.1l72,13.6l44.8-39.5c2.4-2.2,6.2-1.9,8.3,0.5c2.1,2.4,1.9,6.2-0.5,8.3
			l-47,41.4c-1.4,1.2-3.2,1.7-5,1.4l-71.3-13.5c-57.1,70.8-141.1,175.1-145.5,181.4c-0.6,1-1.5,1.8-2.6,2.3
			c-1.4,0.7-3.1,0.8-4.6,0.2l-88.5-33.5l-35.8,46.3C1523.6,606.4,1521.9,607.2,1520.1,607.2"/>
		<path class="st7" d="M1929.4,384.8c5.5-4.8,6-13.2,1.2-18.7c-4.8-5.5-13.2-6-18.7-1.2c-5.5,4.8-6,13.2-1.2,18.7
			C1915.5,389.1,1923.9,389.7,1929.4,384.8"/>
		<path class="st9" d="M1520.1,588.1c-0.7,0-1.3-0.1-2-0.4c-3.1-1.1-4.6-4.5-3.5-7.5l60.9-168.3c1.1-3,4.5-4.6,7.5-3.5l81.2,29
			c8.5-9.9,35.3-39.2,122.1-132.6c2-2.1,5.2-2.5,7.6-0.9l73.1,49.9l50.4-41.6c2.5-2.1,6.2-1.7,8.3,0.8c2.1,2.5,1.7,6.2-0.8,8.3
			l-53.8,44.4c-2,1.7-4.9,1.8-7.1,0.3l-72.6-49.5c-47.5,51.2-116.1,125.3-120.7,131c-0.5,0.8-1.2,1.5-2.1,1.9
			c-1.5,0.8-3.2,1-4.8,0.4l-79.3-28.3l-58.9,162.8C1524.8,586.6,1522.5,588.1,1520.1,588.1"/>
		<path class="st7" d="M1929.1,327.4c5.7-4.7,6.5-13,1.8-18.7c-4.7-5.7-13-6.5-18.7-1.8c-5.7,4.7-6.5,13-1.8,18.7
			C1915.1,331.3,1923.4,332.1,1929.1,327.4"/>
		<rect x="2066.5" y="286.4" class="st2" width="223.4" height="21.8"/>
		<rect x="2066.5" y="286.4" class="st10" width="135.5" height="21.8"/>
		<rect x="2066.5" y="341" class="st2" width="223.4" height="21.8"/>
		<rect x="2066.5" y="341" class="st10" width="159.1" height="21.8"/>
		<rect x="2066.5" y="395.6" class="st2" width="223.4" height="21.8"/>
		<rect x="2066.5" y="395.6" class="st10" width="106.3" height="21.8"/>
		<rect x="2066.5" y="450.2" class="st2" width="223.4" height="21.8"/>
		<rect x="2066.5" y="450.2" class="st10" width="168.2" height="21.8"/>
		<rect x="2066.5" y="504.8" class="st2" width="223.4" height="21.8"/>
		<rect x="2066.5" y="504.8" class="st10" width="148" height="21.8"/>
		<polyline class="st11" points="2044.9,515.8 2060.2,515.8 2060.2,514.5 2044.9,514.5 		"/>
		<polyline class="st11" points="2044.9,461.5 2060.2,461.5 2060.2,460.2 2044.9,460.2 		"/>
		<polyline class="st11" points="2044.9,407.2 2060.2,407.2 2060.2,405.9 2044.9,405.9 		"/>
		<polyline class="st11" points="2044.9,352.9 2060.2,352.9 2060.2,351.6 2044.9,351.6 		"/>
		<polyline class="st11" points="2044.9,298.6 2060.2,298.6 2060.2,297.3 2044.9,297.3 		"/>
		<rect x="2042.3" y="280.3" class="st12" width="5.2" height="252.5"/>
		<path class="st13" d="M1675.1,735.7h-181.8c-0.7,0-1.2-0.5-1.2-1.2v-6.1c0-0.7,0.5-1.2,1.2-1.2h181.8c0.7,0,1.2,0.5,1.2,1.2v6.1
			C1676.3,735.1,1675.8,735.7,1675.1,735.7"/>
		<path class="st13" d="M1675.1,754.5h-181.8c-0.7,0-1.2-0.5-1.2-1.2v-6.1c0-0.7,0.5-1.2,1.2-1.2h181.8c0.7,0,1.2,0.5,1.2,1.2v6.1
			C1676.3,753.9,1675.8,754.5,1675.1,754.5"/>
		<path class="st13" d="M1675.1,773.2h-181.8c-0.7,0-1.2-0.5-1.2-1.2v-6.1c0-0.7,0.5-1.2,1.2-1.2h181.8c0.7,0,1.2,0.5,1.2,1.2v6.1
			C1676.3,772.7,1675.8,773.2,1675.1,773.2"/>
		<path class="st13" d="M1583,792h-89.7c-0.7,0-1.2-0.5-1.2-1.2v-6.1c0-0.7,0.5-1.2,1.2-1.2h89.7c0.7,0,1.2,0.5,1.2,1.2v6.1
			C1584.2,791.5,1583.7,792,1583,792"/>
		
			<rect x="2386.1" y="301.3" transform="matrix(0.9972 -7.424057e-02 7.424057e-02 0.9972 -20.2332 181.3865)" class="st14" width="87.2" height="123.1"/>
		
			<rect x="2498" y="362.9" transform="matrix(0.299 -0.9542 0.9542 0.299 1406.298 2727.4473)" class="st7" width="123.1" height="87.2"/>
		
			<rect x="2400" y="603.5" transform="matrix(0.9972 -7.424057e-02 7.424057e-02 0.9972 -42.632 183.2525)" class="st14" width="87.2" height="123.1"/>
		
			<rect x="2344.9" y="472.4" transform="matrix(0.299 -0.9543 0.9543 0.299 1194.1155 2635.1528)" class="st13" width="91.5" height="64.8"/>
		
			<rect x="2477.3" y="487" transform="matrix(0.9576 -0.2881 0.2881 0.9576 -47.087 745.5475)" class="st7" width="64.8" height="91.5"/>
		<path class="st15" d="M2566.4,357.3c0,3.9-3.2,7.1-7.1,7.1c-3.9,0-7.1-3.2-7.1-7.1c0-3.9,3.2-7.1,7.1-7.1
			C2563.3,350.2,2566.4,353.4,2566.4,357.3"/>
		<path class="st15" d="M2508.9,506.6c0,3.9-3.2,7.1-7.1,7.1c-3.9,0-7.1-3.2-7.1-7.1c0-3.9,3.2-7.1,7.1-7.1
			C2505.7,499.6,2508.9,502.7,2508.9,506.6"/>
		<path class="st15" d="M2480.5,619c0,5.1-4.2,9.3-9.3,9.3c-5.1,0-9.3-4.2-9.3-9.3s4.2-9.3,9.3-9.3
			C2476.3,609.7,2480.5,613.9,2480.5,619"/>
		<path class="st15" d="M2464.3,313.2c0,3.9-3.2,7.1-7.1,7.1c-3.9,0-7.1-3.2-7.1-7.1c0-3.9,3.2-7.1,7.1-7.1
			C2461.1,306.1,2464.3,309.3,2464.3,313.2"/>
		<path class="st16" d="M1335.7,2174.5c0,15.8-97.9,28.6-218.7,28.6c-120.8,0-218.7-12.8-218.7-28.6c0-15.8,97.9-28.6,218.7-28.6
			C1237.8,2145.9,1335.7,2158.7,1335.7,2174.5"/>
		<path class="st16" d="M2503.2,2119.1c0,15.8-255.3,28.6-570.2,28.6c-314.9,0-570.2-12.8-570.2-28.6c0-15.8,255.3-28.6,570.2-28.6
			C2247.9,2090.4,2503.2,2103.3,2503.2,2119.1"/>
		<path class="st17" d="M1232.7,2164.3c0,0-22.7,6.1-48.3-2c-25.6-8.1-38.3-102.6-38.3-102.6s5.9-93.8-4.2-141.7
			c-10.1-47.9-3.4-149.2,1.3-166.7c1.4-5.2,1.6-14.9,1.2-26c-0.9-26.5-5.3-61.1-5.3-61.1s89.1-41.2,101.2,5.4
			c2.6,9.8,3.1,23.4,2.4,39.2c-2.9,59.4-24.7,149.2-32.7,180.2c-10.1,39.1-19.5,154.5-7.4,202.4
			C1214.8,2139.2,1232.7,2164.3,1232.7,2164.3"/>
		<path class="st18" d="M1240.4,1669.6c2.6,9.8,3.1,23.4,2.4,39.2c-19.1,6.5-69,21.9-98.3,16.5c-0.9-26.5-5.3-61.1-5.3-61.1
			S1228.3,1623,1240.4,1669.6"/>
		<polygon class="st19" points="1472.6,1318.8 1403.6,1060.5 1690.5,1060.5 1752.9,1318.8 		"/>
		<polygon class="st13" points="1735.8,1299.3 1479.4,1299.3 1475.1,1282.7 1471.2,1268 1419.8,1072.5 1677.4,1072.5 		"/>
		<g class="st20">
			<g>
				<defs>
					<rect id="SVGID_7_" x="1471.2" y="1072.5" width="117.4" height="210.2"/>
				</defs>
				<clipPath id="SVGID_8_">
					<use xlink:href="#SVGID_7_"  style="overflow:visible;"/>
				</clipPath>
				<polygon class="st21" points="1588.6,1072.5 1475.1,1282.7 1471.2,1268 1573.4,1072.5 				"/>
			</g>
		</g>
		<g class="st20">
			<g>
				<defs>
					<rect id="SVGID_9_" x="1508.1" y="1072.5" width="149.7" height="225.7"/>
				</defs>
				<clipPath id="SVGID_10_">
					<use xlink:href="#SVGID_9_"  style="overflow:visible;"/>
				</clipPath>
				<polygon class="st22" points="1657.8,1072.5 1547.8,1298.2 1508.1,1298.2 1621.9,1072.5 				"/>
			</g>
		</g>
		<polygon class="st19" points="1477.2,1291 1484.3,1318.8 1848.1,1318.8 1848.1,1291 		"/>
		<path class="st23" d="M646.9,989.3H488.3c-1.1,0-2.1-0.9-2.1-2.1v-24.4c0-1.1,0.9-2.1,2.1-2.1h158.6V989.3z"/>
		<path class="st23" d="M646.3,986H487.9c-0.9,0-1.6-0.7-1.6-1.6v-18.7c0-0.9,0.7-1.6,1.6-1.6h158.4c0.9,0,1.6,0.7,1.6,1.6v18.7
			C648,985.3,647.2,986,646.3,986"/>
		<path class="st23" d="M596.4,989.3H487.8c-0.8,0-1.5-0.7-1.5-1.5v-25.5c0-0.8,0.7-1.5,1.5-1.5h108.6c0.8,0,1.5,0.7,1.5,1.5v25.5
			C597.9,988.7,597.3,989.3,596.4,989.3"/>
		<path class="st23" d="M655.7,960.8H497.1c-1.1,0-2.1-0.9-2.1-2.1v-24.4c0-1.1,0.9-2.1,2.1-2.1h158.6V960.8z"/>
		<path class="st23" d="M655.1,957.5H496.7c-0.9,0-1.6-0.7-1.6-1.6v-18.7c0-0.9,0.7-1.6,1.6-1.6h158.4c0.9,0,1.6,0.7,1.6,1.6v18.7
			C656.7,956.8,656,957.5,655.1,957.5"/>
		<path class="st23" d="M605.2,960.8H496.6c-0.8,0-1.5-0.7-1.5-1.5v-25.5c0-0.8,0.7-1.5,1.5-1.5h108.6c0.8,0,1.5,0.7,1.5,1.5v25.5
			C606.7,960.1,606,960.8,605.2,960.8"/>
		<path class="st23" d="M649.1,932.3H490.5c-1.1,0-2.1-0.9-2.1-2.1v-24.4c0-1.1,0.9-2.1,2.1-2.1h158.6V932.3z"/>
		<path class="st23" d="M648.5,929H490c-0.9,0-1.6-0.7-1.6-1.6v-18.7c0-0.9,0.7-1.6,1.6-1.6h158.4c0.9,0,1.6,0.7,1.6,1.6v18.7
			C650.1,928.3,649.4,929,648.5,929"/>
		<path class="st23" d="M598.5,932.3H489.9c-0.8,0-1.5-0.7-1.5-1.5v-25.5c0-0.8,0.7-1.5,1.5-1.5h108.6c0.8,0,1.5,0.7,1.5,1.5v25.5
			C600.1,931.6,599.4,932.3,598.5,932.3"/>
		<g class="st24">
			<g>
				<defs>
					<rect id="SVGID_11_" x="517.1" y="875.3" width="161.7" height="28.5"/>
				</defs>
				<clipPath id="SVGID_12_">
					<use xlink:href="#SVGID_11_"  style="overflow:visible;"/>
				</clipPath>
				<path class="st25" d="M677.7,903.8H519.2c-1.1,0-2.1-0.9-2.1-2.1v-24.4c0-1.1,0.9-2.1,2.1-2.1h158.6V903.8z"/>
				<path class="st25" d="M677.2,900.5H518.7c-0.9,0-1.6-0.7-1.6-1.6v-18.7c0-0.9,0.7-1.6,1.6-1.6h158.4c0.9,0,1.6,0.7,1.6,1.6v18.7
					C678.8,899.7,678.1,900.5,677.2,900.5"/>
				<path class="st25" d="M627.2,903.8H518.6c-0.8,0-1.5-0.7-1.5-1.5v-25.5c0-0.8,0.7-1.5,1.5-1.5h108.6c0.8,0,1.5,0.7,1.5,1.5v25.5
					C628.8,903.1,628.1,903.8,627.2,903.8"/>
			</g>
		</g>
		<g class="st26">
			<g>
				<defs>
					<rect id="SVGID_13_" x="783.3" y="1123.6" width="161.7" height="28.5"/>
				</defs>
				<clipPath id="SVGID_14_">
					<use xlink:href="#SVGID_13_"  style="overflow:visible;"/>
				</clipPath>
				<path class="st27" d="M943.9,1152.1H785.3c-1.1,0-2.1-0.9-2.1-2.1v-24.4c0-1.1,0.9-2.1,2.1-2.1h158.6V1152.1z"/>
				<path class="st27" d="M943.3,1148.8H784.9c-0.9,0-1.6-0.7-1.6-1.6v-18.7c0-0.9,0.7-1.6,1.6-1.6h158.4c0.9,0,1.6,0.7,1.6,1.6
					v18.7C944.9,1148,944.2,1148.8,943.3,1148.8"/>
				<path class="st27" d="M893.4,1152.1H784.8c-0.8,0-1.5-0.7-1.5-1.5v-25.5c0-0.8,0.7-1.5,1.5-1.5h108.6c0.8,0,1.5,0.7,1.5,1.5
					v25.5C894.9,1151.4,894.2,1152.1,893.4,1152.1"/>
			</g>
		</g>
		<path class="st23" d="M716.7,1435.2H558.2c-1.1,0-2.1-0.9-2.1-2.1v-24.4c0-1.1,0.9-2.1,2.1-2.1h158.6V1435.2z"/>
		<path class="st23" d="M716.2,1431.9H557.7c-0.9,0-1.6-0.7-1.6-1.6v-18.7c0-0.9,0.7-1.6,1.6-1.6h158.4c0.9,0,1.6,0.7,1.6,1.6v18.7
			C717.8,1431.2,717.1,1431.9,716.2,1431.9"/>
		<path class="st23" d="M666.2,1435.2H557.6c-0.8,0-1.5-0.7-1.5-1.5v-25.5c0-0.8,0.7-1.5,1.5-1.5h108.6c0.8,0,1.5,0.7,1.5,1.5v25.5
			C667.8,1434.6,667.1,1435.2,666.2,1435.2"/>
		<path class="st23" d="M725.5,1406.7H566.9c-1.1,0-2.1-0.9-2.1-2.1v-24.4c0-1.1,0.9-2.1,2.1-2.1h158.6V1406.7z"/>
		<path class="st23" d="M724.9,1403.4H566.5c-0.9,0-1.6-0.7-1.6-1.6v-18.7c0-0.9,0.7-1.6,1.6-1.6h158.4c0.9,0,1.6,0.7,1.6,1.6v18.7
			C726.6,1402.7,725.8,1403.4,724.9,1403.4"/>
		<path class="st23" d="M675,1406.7H566.4c-0.8,0-1.5-0.7-1.5-1.5v-25.5c0-0.8,0.7-1.5,1.5-1.5H675c0.8,0,1.5,0.7,1.5,1.5v25.5
			C676.5,1406,675.9,1406.7,675,1406.7"/>
		<g class="st24">
			<g>
				<defs>
					<rect id="SVGID_15_" x="531.1" y="1349.7" width="161.7" height="28.5"/>
				</defs>
				<clipPath id="SVGID_16_">
					<use xlink:href="#SVGID_15_"  style="overflow:visible;"/>
				</clipPath>
				<path class="st28" d="M691.7,1378.2H533.2c-1.1,0-2.1-0.9-2.1-2.1v-24.4c0-1.1,0.9-2.1,2.1-2.1h158.6V1378.2z"/>
				<path class="st28" d="M691.2,1374.9H532.7c-0.9,0-1.6-0.7-1.6-1.6v-18.7c0-0.9,0.7-1.6,1.6-1.6h158.4c0.9,0,1.6,0.7,1.6,1.6
					v18.7C692.8,1374.2,692,1374.9,691.2,1374.9"/>
				<path class="st28" d="M641.2,1378.2H532.6c-0.8,0-1.5-0.7-1.5-1.5v-25.5c0-0.8,0.7-1.5,1.5-1.5h108.6c0.8,0,1.5,0.7,1.5,1.5
					v25.5C642.8,1377.5,642.1,1378.2,641.2,1378.2"/>
			</g>
		</g>
		<path class="st23" d="M951.2,987V813.9c0-0.3,0.3-0.6,0.6-0.6h27.4c0.3,0,0.6,0.3,0.6,0.6V987c0,0.3-0.3,0.6-0.6,0.6h-27.4
			C951.5,987.6,951.2,987.3,951.2,987"/>
		<path class="st23" d="M958.5,909.8v-84.2c0-0.3,0.3-0.6,0.6-0.6h12.8c0.3,0,0.6,0.3,0.6,0.6v84.2c0,0.3-0.3,0.6-0.6,0.6H959
			C958.7,910.4,958.5,910.2,958.5,909.8"/>
		<path class="st23" d="M919.5,987V813.9c0-0.3,0.3-0.6,0.6-0.6h27.4c0.3,0,0.6,0.3,0.6,0.6V987c0,0.3-0.3,0.6-0.6,0.6h-27.4
			C919.8,987.6,919.5,987.3,919.5,987"/>
		<path class="st23" d="M926.8,909.8v-84.2c0-0.3,0.3-0.6,0.6-0.6h12.8c0.3,0,0.6,0.3,0.6,0.6v84.2c0,0.3-0.3,0.6-0.6,0.6h-12.8
			C927,910.4,926.8,910.2,926.8,909.8"/>
		<g class="st24">
			<g>
				<defs>
					<rect id="SVGID_17_" x="887.8" y="813.3" width="28.5" height="174.3"/>
				</defs>
				<clipPath id="SVGID_18_">
					<use xlink:href="#SVGID_17_"  style="overflow:visible;"/>
				</clipPath>
				<path class="st29" d="M887.8,987V813.9c0-0.3,0.3-0.6,0.6-0.6h27.4c0.3,0,0.6,0.3,0.6,0.6V987c0,0.3-0.3,0.6-0.6,0.6h-27.4
					C888.1,987.6,887.8,987.3,887.8,987"/>
				<path class="st29" d="M895.1,909.8v-84.2c0-0.3,0.3-0.6,0.6-0.6h12.8c0.3,0,0.6,0.3,0.6,0.6v84.2c0,0.3-0.3,0.6-0.6,0.6h-12.8
					C895.4,910.4,895.1,910.2,895.1,909.8"/>
			</g>
		</g>
		<path class="st23" d="M863.8,987V860.7c0-0.3,0.3-0.6,0.6-0.6h19.7c0.3,0,0.6,0.3,0.6,0.6V987c0,0.3-0.3,0.6-0.6,0.6h-19.7
			C864,987.6,863.8,987.3,863.8,987"/>
		<path class="st23" d="M869.1,930.5v-61.3c0-0.3,0.3-0.6,0.6-0.6h9.1c0.3,0,0.6,0.3,0.6,0.6v61.3c0,0.3-0.3,0.6-0.6,0.6h-9.1
			C869.4,931.1,869.1,930.9,869.1,930.5"/>
		<path class="st23" d="M840.6,987V860.7c0-0.3,0.3-0.6,0.6-0.6h19.7c0.3,0,0.6,0.3,0.6,0.6V987c0,0.3-0.3,0.6-0.6,0.6h-19.7
			C840.8,987.6,840.6,987.3,840.6,987"/>
		<path class="st23" d="M845.9,930.5v-61.3c0-0.3,0.3-0.6,0.6-0.6h9.1c0.3,0,0.6,0.3,0.6,0.6v61.3c0,0.3-0.3,0.6-0.6,0.6h-9.1
			C846.2,931.1,845.9,930.9,845.9,930.5"/>
		<path class="st23" d="M555.9,680.4V507.3c0-0.3-0.3-0.6-0.6-0.6h-27.4c-0.3,0-0.6,0.3-0.6,0.6v173.1c0,0.3,0.3,0.6,0.6,0.6h27.4
			C555.6,681,555.9,680.7,555.9,680.4"/>
		<path class="st23" d="M548.6,603.2V519c0-0.3-0.3-0.6-0.6-0.6h-12.8c-0.3,0-0.6,0.3-0.6,0.6v84.2c0,0.3,0.3,0.6,0.6,0.6H548
			C548.3,603.8,548.6,603.5,548.6,603.2"/>
		<path class="st23" d="M587.5,680.4V507.3c0-0.3-0.3-0.6-0.6-0.6h-27.4c-0.3,0-0.6,0.3-0.6,0.6v173.1c0,0.3,0.3,0.6,0.6,0.6H587
			C587.3,681,587.5,680.7,587.5,680.4"/>
		<path class="st23" d="M580.3,603.2V519c0-0.3-0.3-0.6-0.6-0.6h-12.8c-0.3,0-0.6,0.3-0.6,0.6v84.2c0,0.3,0.3,0.6,0.6,0.6h12.8
			C580,603.8,580.3,603.5,580.3,603.2"/>
		<g class="st24">
			<g>
				<defs>
					<rect id="SVGID_19_" x="590.7" y="506.7" width="28.5" height="174.3"/>
				</defs>
				<clipPath id="SVGID_20_">
					<use xlink:href="#SVGID_19_"  style="overflow:visible;"/>
				</clipPath>
				<path class="st30" d="M619.2,680.4V507.3c0-0.3-0.3-0.6-0.6-0.6h-27.4c-0.3,0-0.6,0.3-0.6,0.6v173.1c0,0.3,0.3,0.6,0.6,0.6h27.4
					C619,681,619.2,680.7,619.2,680.4"/>
				<path class="st30" d="M612,603.2V519c0-0.3-0.3-0.6-0.6-0.6h-12.8c-0.3,0-0.6,0.3-0.6,0.6v84.2c0,0.3,0.3,0.6,0.6,0.6h12.8
					C611.7,603.8,612,603.5,612,603.2"/>
			</g>
		</g>
		<path class="st23" d="M643.3,680.4V554c0-0.3-0.3-0.6-0.6-0.6H623c-0.3,0-0.6,0.3-0.6,0.6v126.4c0,0.3,0.3,0.6,0.6,0.6h19.7
			C643,681,643.3,680.7,643.3,680.4"/>
		<path class="st23" d="M638,623.9v-61.3c0-0.3-0.3-0.6-0.6-0.6h-9.1c-0.3,0-0.6,0.3-0.6,0.6v61.3c0,0.3,0.3,0.6,0.6,0.6h9.1
			C637.7,624.5,638,624.2,638,623.9"/>
		<path class="st23" d="M710.6,672.1l-46.4-117.6c-0.1-0.3-0.5-0.4-0.7-0.3l-18.3,7.2c-0.3,0.1-0.4,0.4-0.3,0.7l46.4,117.6
			c0.1,0.3,0.5,0.4,0.7,0.3l18.3-7.2C710.6,672.8,710.7,672.4,710.6,672.1"/>
		<path class="st23" d="M685,621.6l-22.5-57c-0.1-0.3-0.5-0.4-0.7-0.3l-8.4,3.3c-0.3,0.1-0.4,0.4-0.3,0.7l22.5,57
			c0.1,0.3,0.5,0.4,0.7,0.3l8.4-3.3C684.9,622.2,685.1,621.9,685,621.6"/>
		<path class="st23" d="M918.6,1431.4v-173.1c0-0.3,0.3-0.6,0.6-0.6h27.4c0.3,0,0.6,0.3,0.6,0.6v173.1c0,0.3-0.3,0.6-0.6,0.6h-27.4
			C918.9,1431.9,918.6,1431.7,918.6,1431.4"/>
		<path class="st23" d="M925.9,1354.2V1270c0-0.3,0.3-0.6,0.6-0.6h12.8c0.3,0,0.6,0.3,0.6,0.6v84.2c0,0.3-0.3,0.6-0.6,0.6h-12.8
			C926.1,1354.7,925.9,1354.5,925.9,1354.2"/>
		<path class="st23" d="M892.8,1431.4v-131.8c0-0.3,0.3-0.6,0.6-0.6H914c0.3,0,0.6,0.3,0.6,0.6v131.8c0,0.3-0.3,0.6-0.6,0.6h-20.6
			C893,1431.9,892.8,1431.7,892.8,1431.4"/>
		<path class="st23" d="M898.3,1372.5v-64c0-0.3,0.3-0.6,0.6-0.6h9.5c0.3,0,0.6,0.3,0.6,0.6v64c0,0.3-0.3,0.6-0.6,0.6h-9.5
			C898.6,1373,898.3,1372.8,898.3,1372.5"/>
		<g class="st26">
			<g>
				<defs>
					<rect id="SVGID_21_" x="518" y="1036.4" width="28.5" height="174.3"/>
				</defs>
				<clipPath id="SVGID_22_">
					<use xlink:href="#SVGID_21_"  style="overflow:visible;"/>
				</clipPath>
				<path class="st31" d="M518,1210.1V1037c0-0.3,0.3-0.6,0.6-0.6h27.4c0.3,0,0.6,0.3,0.6,0.6v173.1c0,0.3-0.3,0.6-0.6,0.6h-27.4
					C518.2,1210.7,518,1210.4,518,1210.1"/>
				<path class="st31" d="M525.2,1132.9v-84.2c0-0.3,0.3-0.6,0.6-0.6h12.8c0.3,0,0.6,0.3,0.6,0.6v84.2c0,0.3-0.3,0.6-0.6,0.6h-12.8
					C525.5,1133.5,525.2,1133.2,525.2,1132.9"/>
			</g>
		</g>
		<path class="st23" d="M486.3,1210.1V1037c0-0.3,0.3-0.6,0.6-0.6h27.4c0.3,0,0.6,0.3,0.6,0.6v173.1c0,0.3-0.3,0.6-0.6,0.6h-27.4
			C486.5,1210.7,486.3,1210.4,486.3,1210.1"/>
		<path class="st23" d="M493.6,1132.9v-84.2c0-0.3,0.3-0.6,0.6-0.6h12.8c0.3,0,0.6,0.3,0.6,0.6v84.2c0,0.3-0.3,0.6-0.6,0.6h-12.8
			C493.8,1133.5,493.6,1133.2,493.6,1132.9"/>
		<g class="st26">
			<g>
				<defs>
					<rect id="SVGID_23_" x="581" y="1090.8" width="28.5" height="119.8"/>
				</defs>
				<clipPath id="SVGID_24_">
					<use xlink:href="#SVGID_23_"  style="overflow:visible;"/>
				</clipPath>
				<path class="st32" d="M581,1210.1v-118.7c0-0.3,0.3-0.6,0.6-0.6h27.4c0.3,0,0.6,0.3,0.6,0.6v118.7c0,0.3-0.3,0.6-0.6,0.6h-27.4
					C581.2,1210.7,581,1210.4,581,1210.1"/>
				<path class="st32" d="M588.2,1157v-57.5c0-0.3,0.3-0.6,0.6-0.6h12.8c0.3,0,0.6,0.3,0.6,0.6v57.5c0,0.3-0.3,0.6-0.6,0.6h-12.8
					C588.5,1157.6,588.2,1157.3,588.2,1157"/>
			</g>
		</g>
		<path class="st23" d="M549.3,1210.1v-118.7c0-0.3,0.3-0.6,0.6-0.6h27.4c0.3,0,0.6,0.3,0.6,0.6v118.7c0,0.3-0.3,0.6-0.6,0.6h-27.4
			C549.5,1210.7,549.3,1210.4,549.3,1210.1"/>
		<path class="st23" d="M556.6,1157v-57.5c0-0.3,0.3-0.6,0.6-0.6h12.8c0.3,0,0.6,0.3,0.6,0.6v57.5c0,0.3-0.3,0.6-0.6,0.6h-12.8
			C556.8,1157.6,556.6,1157.3,556.6,1157"/>
		<g class="st26">
			<g>
				<defs>
					<rect id="SVGID_25_" x="644.3" y="1090.8" width="28.5" height="119.8"/>
				</defs>
				<clipPath id="SVGID_26_">
					<use xlink:href="#SVGID_25_"  style="overflow:visible;"/>
				</clipPath>
				<path class="st33" d="M644.3,1210.1v-118.7c0-0.3,0.3-0.6,0.6-0.6h27.4c0.3,0,0.6,0.3,0.6,0.6v118.7c0,0.3-0.3,0.6-0.6,0.6
					h-27.4C644.6,1210.7,644.3,1210.4,644.3,1210.1"/>
				<path class="st33" d="M651.6,1157v-57.5c0-0.3,0.3-0.6,0.6-0.6H665c0.3,0,0.6,0.3,0.6,0.6v57.5c0,0.3-0.3,0.6-0.6,0.6h-12.8
					C651.9,1157.6,651.6,1157.3,651.6,1157"/>
			</g>
		</g>
		<path class="st23" d="M612.6,1210.1v-118.7c0-0.3,0.3-0.6,0.6-0.6h27.4c0.3,0,0.6,0.3,0.6,0.6v118.7c0,0.3-0.3,0.6-0.6,0.6h-27.4
			C612.9,1210.7,612.6,1210.4,612.6,1210.1"/>
		<path class="st23" d="M619.9,1157v-57.5c0-0.3,0.3-0.6,0.6-0.6h12.8c0.3,0,0.6,0.3,0.6,0.6v57.5c0,0.3-0.3,0.6-0.6,0.6h-12.8
			C620.2,1157.6,619.9,1157.3,619.9,1157"/>
		<g class="st26">
			<g>
				<defs>
					<rect id="SVGID_27_" x="707.7" y="1059.1" width="28.5" height="151.6"/>
				</defs>
				<clipPath id="SVGID_28_">
					<use xlink:href="#SVGID_27_"  style="overflow:visible;"/>
				</clipPath>
				<path class="st34" d="M707.7,1210.1v-150.5c0-0.3,0.3-0.6,0.6-0.6h27.4c0.3,0,0.6,0.3,0.6,0.6v150.5c0,0.3-0.3,0.6-0.6,0.6
					h-27.4C708,1210.7,707.7,1210.4,707.7,1210.1"/>
				<path class="st34" d="M715,1142.9v-73.1c0-0.3,0.3-0.6,0.6-0.6h12.8c0.3,0,0.6,0.3,0.6,0.6v73.1c0,0.3-0.3,0.6-0.6,0.6h-12.8
					C715.3,1143.5,715,1143.3,715,1142.9"/>
			</g>
		</g>
		<g class="st26">
			<g>
				<defs>
					<rect id="SVGID_29_" x="739.8" y="1059.1" width="28.5" height="151.6"/>
				</defs>
				<clipPath id="SVGID_30_">
					<use xlink:href="#SVGID_29_"  style="overflow:visible;"/>
				</clipPath>
				<path class="st35" d="M739.8,1210.1v-150.5c0-0.3,0.3-0.6,0.6-0.6h27.4c0.3,0,0.6,0.3,0.6,0.6v150.5c0,0.3-0.3,0.6-0.6,0.6
					h-27.4C740.1,1210.7,739.8,1210.4,739.8,1210.1"/>
				<path class="st35" d="M747.1,1142.9v-73.1c0-0.3,0.3-0.6,0.6-0.6h12.8c0.3,0,0.6,0.3,0.6,0.6v73.1c0,0.3-0.3,0.6-0.6,0.6h-12.8
					C747.4,1143.5,747.1,1143.3,747.1,1142.9"/>
			</g>
		</g>
		<path class="st23" d="M676,1210.1v-150.5c0-0.3,0.3-0.6,0.6-0.6H704c0.3,0,0.6,0.3,0.6,0.6v150.5c0,0.3-0.3,0.6-0.6,0.6h-27.4
			C676.3,1210.7,676,1210.4,676,1210.1"/>
		<path class="st23" d="M683.3,1142.9v-73.1c0-0.3,0.3-0.6,0.6-0.6h12.8c0.3,0,0.6,0.3,0.6,0.6v73.1c0,0.3-0.3,0.6-0.6,0.6h-12.8
			C683.6,1143.5,683.3,1143.3,683.3,1142.9"/>
		<g class="st26">
			<g>
				<defs>
					<rect id="SVGID_31_" x="803.5" y="1059.1" width="28.5" height="151.6"/>
				</defs>
				<clipPath id="SVGID_32_">
					<use xlink:href="#SVGID_31_"  style="overflow:visible;"/>
				</clipPath>
				<path class="st36" d="M803.5,1210.1v-150.5c0-0.3,0.3-0.6,0.6-0.6h27.4c0.3,0,0.6,0.3,0.6,0.6v150.5c0,0.3-0.3,0.6-0.6,0.6H804
					C803.7,1210.7,803.5,1210.4,803.5,1210.1"/>
				<path class="st36" d="M810.7,1142.9v-73.1c0-0.3,0.3-0.6,0.6-0.6h12.8c0.3,0,0.6,0.3,0.6,0.6v73.1c0,0.3-0.3,0.6-0.6,0.6h-12.8
					C811,1143.5,810.7,1143.3,810.7,1142.9"/>
			</g>
		</g>
		<g class="st26">
			<g>
				<defs>
					<rect id="SVGID_33_" x="835.6" y="1059.1" width="28.5" height="151.6"/>
				</defs>
				<clipPath id="SVGID_34_">
					<use xlink:href="#SVGID_33_"  style="overflow:visible;"/>
				</clipPath>
				<path class="st37" d="M835.6,1210.1v-150.5c0-0.3,0.3-0.6,0.6-0.6h27.4c0.3,0,0.6,0.3,0.6,0.6v150.5c0,0.3-0.3,0.6-0.6,0.6
					h-27.4C835.8,1210.7,835.6,1210.4,835.6,1210.1"/>
				<path class="st37" d="M842.8,1142.9v-73.1c0-0.3,0.3-0.6,0.6-0.6h12.8c0.3,0,0.6,0.3,0.6,0.6v73.1c0,0.3-0.3,0.6-0.6,0.6h-12.8
					C843.1,1143.5,842.8,1143.3,842.8,1142.9"/>
			</g>
		</g>
		<path class="st23" d="M771.8,1210.1v-150.5c0-0.3,0.3-0.6,0.6-0.6h27.4c0.3,0,0.6,0.3,0.6,0.6v150.5c0,0.3-0.3,0.6-0.6,0.6h-27.4
			C772,1210.7,771.8,1210.4,771.8,1210.1"/>
		<path class="st23" d="M779,1142.9v-73.1c0-0.3,0.3-0.6,0.6-0.6h12.8c0.3,0,0.6,0.3,0.6,0.6v73.1c0,0.3-0.3,0.6-0.6,0.6h-12.8
			C779.3,1143.5,779,1143.3,779,1142.9"/>
		<g class="st26">
			<g>
				<defs>
					<rect id="SVGID_35_" x="899.2" y="1059.1" width="28.5" height="151.6"/>
				</defs>
				<clipPath id="SVGID_36_">
					<use xlink:href="#SVGID_35_"  style="overflow:visible;"/>
				</clipPath>
				<path class="st38" d="M899.2,1210.1v-150.5c0-0.3,0.3-0.6,0.6-0.6h27.4c0.3,0,0.6,0.3,0.6,0.6v150.5c0,0.3-0.3,0.6-0.6,0.6
					h-27.4C899.5,1210.7,899.2,1210.4,899.2,1210.1"/>
				<path class="st38" d="M906.5,1142.9v-73.1c0-0.3,0.3-0.6,0.6-0.6h12.8c0.3,0,0.6,0.3,0.6,0.6v73.1c0,0.3-0.3,0.6-0.6,0.6h-12.8
					C906.7,1143.5,906.5,1143.3,906.5,1142.9"/>
			</g>
		</g>
		<g class="st26">
			<g>
				<defs>
					<rect id="SVGID_37_" x="931.3" y="1059.1" width="28.5" height="151.6"/>
				</defs>
				<clipPath id="SVGID_38_">
					<use xlink:href="#SVGID_37_"  style="overflow:visible;"/>
				</clipPath>
				<path class="st39" d="M931.3,1210.1v-150.5c0-0.3,0.3-0.6,0.6-0.6h27.4c0.3,0,0.6,0.3,0.6,0.6v150.5c0,0.3-0.3,0.6-0.6,0.6
					h-27.4C931.6,1210.7,931.3,1210.4,931.3,1210.1"/>
				<path class="st39" d="M938.6,1142.9v-73.1c0-0.3,0.3-0.6,0.6-0.6H952c0.3,0,0.6,0.3,0.6,0.6v73.1c0,0.3-0.3,0.6-0.6,0.6h-12.8
					C938.8,1143.5,938.6,1143.3,938.6,1142.9"/>
			</g>
		</g>
		<path class="st23" d="M867.5,1210.1v-150.5c0-0.3,0.3-0.6,0.6-0.6h27.4c0.3,0,0.6,0.3,0.6,0.6v150.5c0,0.3-0.3,0.6-0.6,0.6h-27.4
			C867.8,1210.7,867.5,1210.4,867.5,1210.1"/>
		<path class="st23" d="M874.8,1142.9v-73.1c0-0.3,0.3-0.6,0.6-0.6h12.8c0.3,0,0.6,0.3,0.6,0.6v73.1c0,0.3-0.3,0.6-0.6,0.6h-12.8
			C875,1143.5,874.8,1143.3,874.8,1142.9"/>
		<path class="st23" d="M782.8,987.5L665.7,860c-0.2-0.2-0.2-0.6,0-0.8l20.2-18.5c0.2-0.2,0.6-0.2,0.8,0l117.1,127.5
			c0.2,0.2,0.2,0.6,0,0.8l-20.2,18.5C783.4,987.8,783,987.8,782.8,987.5"/>
		<path class="st23" d="M736,925.7l-56.9-62c-0.2-0.2-0.2-0.6,0-0.8l9.4-8.7c0.2-0.2,0.6-0.2,0.8,0l56.9,62c0.2,0.2,0.2,0.6,0,0.8
			l-9.4,8.7C736.6,926,736.2,926,736,925.7"/>
		<path class="st23" d="M461.2,1848.5H1007V683H461.2V1848.5z M982.3,985.8h-500V707.7h500V985.8z M482.3,1228.8h500v200.7h-500
			V1228.8z M982.3,1651.3h-500v-197.2h500V1651.3z M482.3,1007h500v204.2h-500V1007z"/>
		<g class="st40">
			<g>
				<defs>
					<rect id="SVGID_39_" x="489.5" y="1461.7" width="505.4" height="182.2"/>
				</defs>
				<clipPath id="SVGID_40_">
					<use xlink:href="#SVGID_39_"  style="overflow:visible;"/>
				</clipPath>
				<rect x="489.5" y="1461.7" class="st41" width="505.4" height="182.2"/>
			</g>
		</g>
		<path class="st8" d="M1573.4,1945.4c0,0-18.5,66.8-21.2,75.2l-153.1-49.5c0,0-8.1-30,34.6-24.4c43.9,5.7,73.5,3.6,97.9-16.6
			C1556.1,1910,1573.4,1945.4,1573.4,1945.4"/>
		<path class="st42" d="M2072.4,1421.9c0,0-333.2,61.4-352.9,81.2c-19.7,19.8-204.8,428.6-204.8,428.6s19.9,29.3,55.7,42.2
			c0,0,39.9-71.7,82.2-125.4c42.3-53.8,91.3-107.5,140.9-208.1c49.7-100.5,226.4-113.5,228.6-113.5c2.2,0,64.9-81.6,67.9-83.6
			C2093.1,1441.3,2072.4,1421.9,2072.4,1421.9"/>
		<path class="st8" d="M1771.2,2030.8c0,0,3,69.7,3,78.6h-161.8c0,0-17-26.2,25.6-34.1c43.8-8.1,71.4-19.3,88.6-46.1
			C1743.7,2002.2,1771.2,2030.8,1771.2,2030.8"/>
		<path class="st43" d="M2301.1,1542.9c0,0-3.2,77.2-38.2,76.8c-35-0.4-358.5-3.2-394.6-11.3c0,0-58,265.9-90,406.3
			c0,0-5.5,18.4-27.2,18.5c-11.2,0.1-23.2-1.2-33.9-5.4c0,0-47.5-475.7,6.2-515.5c40.9-30.3,263.7-62.8,367.4-76.5
			c32.4-4.3,53.1-6.7,53.1-6.7L2301.1,1542.9z"/>
		<path class="st42" d="M2301.1,1542.9c0,0-3.2,77.2-38.2,76.8c-35-0.4-358.5-3.2-394.6-11.3c0,0,6.2,100.2-31,198.3
			c-32.9,86.6-31.9,160.4-45.8,221.2c0,0-18.7,5.2-40.4,5.4c23.5-119.6,83.8-422.6,98.1-450.4c17.9-34.8,318.6-42.9,317.4-67.8
			c-1.2-24.9-100.9-75.7-100.9-75.7l25.1-3.4c32.4-4.3,53.1-6.7,53.1-6.7L2301.1,1542.9z"/>
		<path class="st44" d="M2090.1,1251.1c0,0-124.2,0.8-179.1-7.2c-54.8-8-74.1-26.9-91.8-26.5c-17.7,0.4-29.3,11.7-29.3,11.7
			s250.4,96.8,309,51.8L2090.1,1251.1z"/>
		<path class="st45" d="M1890.7,1257.8c0,0-0.2-7.9,9.5-15.7c0,0,179.4,15.8,202.3,0c22.9-15.8-1,39.9-17.4,66.8
			c-16.4,26.9-146.8-5.9-165.8-16.1C1900.4,1282.5,1890.7,1257.8,1890.7,1257.8"/>
		<path class="st46" d="M2207.1,1073.7c-8.1,8.7-27.2,17.7-44.6,24.6c-18.3,7.3-32.5,7-32.5,7s-14.3-61.5-26.5-88.5
			c-9.2-20.4-46.1-6-68.1-9.7c-22-3.7-18.3-45.2-18.9-50.6c-0.5-5.4-42.2-7.8-24-20.7c5.8-4.1,10.1-10.1,13.2-16.3
			c0.7-1.3,1.3-2.7,1.9-4.1l0.1-0.2c0.6-1.4,1.1-2.8,1.6-4.2c3.7-10.5,4.6-19.7,4.6-19.7c0.6-7.1,1.6-13.4,2.7-19.2
			c0.3-1.7,0.7-3.4,1.1-5.1c0.6-2.6,1.2-5,1.9-7.3c0.5-1.7,1-3.3,1.5-4.8c0.6-1.6,1.2-3.2,1.8-4.7c10.9-26.7,26.9-28.7,26.9-28.7
			l53.4,14.7c0,0,47.8,26.9,79.6,71.5c31.8,44.6-13.2,70.7-13.2,70.7C2166,1027.4,2217.8,1062.2,2207.1,1073.7"/>
		<path class="st44" d="M2219.8,1066.6c-8.1,8.7-40,24.7-57.4,31.6c-0.7-0.3-1-0.4-1-0.4s-14.7-152.8-33.3-175.7
			c-18.5-22.9-76.7-28-76.7-28s0.7-29.6-33-29.4c5.7-30.9,31.5-43.1,31.5-43.1l53.4,14.7c0,0,47.8,26.9,79.6,71.5
			c31.8,44.6-0.6,62.8-0.6,62.8C2178.7,1019.5,2230.5,1055.2,2219.8,1066.6"/>
		<g class="st47">
			<g>
				<defs>
					<rect id="SVGID_41_" x="2005.7" y="863.7" width="50.8" height="67"/>
				</defs>
				<clipPath id="SVGID_42_">
					<use xlink:href="#SVGID_41_"  style="overflow:visible;"/>
				</clipPath>
				<path class="st48" d="M2056.5,895.7c-0.9-18.4-15-32.8-31.5-32c-2,0.1-4.8,0.5-6.6,1c-0.5,1.3-0.6,2.6-1,4
					c2.3-0.9,5.2-1.4,7.8-1.5c14.5-0.7,27,12.1,27.8,28.6c0.1,1.5,0,3-0.1,4.5c-0.3,3.2-1,6.3-2.1,9.2c-3.9,9.9-12.4,17-22.7,17.5
					c-8.1,0.4-15.6-3.4-20.7-9.8c-0.5,1.2-1,2.4-1.6,3.5c5.8,6.4,13.8,10.2,22.5,9.8c11.9-0.6,21.7-8.8,26-20.3
					c1.1-2.9,1.8-5.9,2.1-9.1C2056.6,899.5,2056.6,897.6,2056.5,895.7"/>
			</g>
		</g>
		<g class="st47">
			<g>
				<defs>
					<rect id="SVGID_43_" x="2055.5" y="897" width="95.9" height="18"/>
				</defs>
				<clipPath id="SVGID_44_">
					<use xlink:href="#SVGID_43_"  style="overflow:visible;"/>
				</clipPath>
				<path class="st49" d="M2151.4,906.4v8.6l-87.2-8.8l-8.7-0.9c0.7-2.9,0.9-4.9,0.7-8.1l8.8-0.1L2151.4,906.4z"/>
			</g>
		</g>
		<path class="st46" d="M2075.2,1274.8c0,0,43.8,57.5,48.6,77.8c4.8,20.4-136.1-7-191.8-35.9c-55.7-28.9-73.4-31.1-73.4-31.1
			s-3.2-2.1-8.3-1.3c-5.1,0.8-32.2,5.6-70.5-15.3c0,0-14.7,3.2-25.5,2.9c0,0-8,22.2-31.9,18c0,0-6.7-1.9,0-6.4
			c6.7-4.6,14.7-16.1,18.2-22.5c0,0,1.6-3.2,2.7-3.2c0,0-15.8-21.2,1.1-27.1c16.9-5.9,48-13.4,54.4-9.6c6.4,3.8,67.2,31.3,79,33.5
			C1889.7,1256.7,1982.6,1287,2075.2,1274.8"/>
		<path class="st14" d="M2305.9,1241.9c-17.8-131.4-78.3-187.4-84.6-196.1c-6.7-9.3-10.7-3.2-10.7-3.2
			c-18.6,34.5-86.6,51.3-86.6,51.3c-0.2,18.9-2.5,30.3-2.5,30.3c-23.7,49.8-46.2,150.7-46.2,150.7v0c0,0-80.4-0.4-192.5-19.1
			c0,0-9.5,8.9-9.6,34.2c-0.1,19,127,72.4,202.8,74.6l-10.2,57.4c0,0,16.3,12.1,45.3,32.2c20.4,14.2,47.2,32.3,78.9,52.9
			c76.8,49.8,116,42.3,116,42.3S2324.4,1378.1,2305.9,1241.9"/>
		<path class="st45" d="M2295.2,1194.8c0,0-6.6,287.8-145.4,264.4c0,0,52.3,31.5,74.2,47.3c21.8,15.8,59,42.3,81.9,42.8
			C2305.9,1549.3,2329.5,1263.3,2295.2,1194.8"/>
		<path class="st45" d="M2187.8,1204.3c0.4-1.4,2.5-0.8,2.2,0.6c-11.2,55.9-41.3,202.8-55.5,235.2c-4.9,11.1-13.5,14.7-23.5,14
			c-29-20.1-45.3-32.2-45.3-32.2l10.2-57.4l24.6-2.5c4.9-0.3,23.7-4.7,25.2-6.5C2146.4,1330.8,2175.1,1244.6,2187.8,1204.3"/>
		<path class="st44" d="M1743.4,1257.8l11-1.2c0,0-1.9-11.1,1.5-12.3c3.3-1.2,27.6-6.3,27.6-6.3s0.8-1.9-12.9-0.9
			c-13.7,0.9-25.8,1.8-27.2,10.3C1742,1255.8,1743.4,1257.8,1743.4,1257.8"/>
		<path class="st44" d="M1754.4,1256.6l24.4-1.7l-16.6,0.2C1759.5,1255,1756.9,1255.6,1754.4,1256.6"/>
		<path class="st19" d="M2051.1,892.6l104.5,13.5c0,0-3.1,3.2-4.5,6.7l-100-13C2051.1,899.7,2052,896.8,2051.1,892.6"/>
		<path class="st19" d="M2024.6,925.6c-15.4,0-27.9-13.3-27.9-29.6c0-16.3,12.5-29.6,27.9-29.6c15.4,0,27.9,13.3,27.9,29.6
			C2052.6,912.3,2040,925.6,2024.6,925.6 M2024.6,869.6c-13.6,0-24.6,11.9-24.6,26.4c0,14.6,11,26.4,24.6,26.4
			c13.6,0,24.6-11.9,24.6-26.4C2049.2,881.4,2038.2,869.6,2024.6,869.6"/>
		<rect x="2141.6" y="1629.8" class="st50" width="24" height="474.9"/>
		<path class="st51" d="M2165.7,2105.9h-24c-0.5,0-0.9-0.6-0.9-1.3v-474.9c0-0.7,0.4-1.3,0.9-1.3h24c0.5,0,0.9,0.6,0.9,1.3v474.9
			C2166.6,2105.4,2166.2,2105.9,2165.7,2105.9"/>
		<rect x="2122.4" y="1909.3" class="st52" width="62.4" height="117.7"/>
		<path class="st53" d="M1943.5,2107.6c28-18.6,105.6-64.9,214.6-63.6c103.8,1.2,177.5,44.8,205.7,63.6v-19.5
			c-29.7-18.9-103.3-60.1-205.7-61.2c-107.7-1.2-185.1,42.5-214.6,61.2V2107.6z"/>
		<path class="st51" d="M1943.5,2108.5c-0.1,0-0.3,0-0.4-0.1c-0.3-0.2-0.5-0.5-0.5-0.8v-19.5c0-0.3,0.2-0.6,0.4-0.8
			c36.3-23.1,111.5-61.4,210.8-61.4c1.5,0,2.9,0,4.4,0c92.3,1,163.1,33.9,206.2,61.4c0.3,0.2,0.4,0.5,0.4,0.8v19.5
			c0,0.3-0.2,0.6-0.5,0.8c-0.3,0.2-0.7,0.1-0.9,0c-34.9-23.2-107.9-62.3-205.2-63.4c-101.5-1.1-177.7,39.2-214.1,63.4
			C1943.8,2108.5,1943.6,2108.5,1943.5,2108.5"/>
		<path class="st54" d="M2337,2107.6c0-14.8,12-26.9,26.9-26.9c14.8,0,26.9,12,26.9,26.9c0,14.8-12,26.9-26.9,26.9
			C2349,2134.5,2337,2122.5,2337,2107.6"/>
		<path class="st54" d="M1916.6,2107.6c0-14.8,12-26.9,26.9-26.9c14.8,0,26.9,12,26.9,26.9c0,14.8-12,26.9-26.9,26.9
			C1928.6,2134.5,1916.6,2122.5,1916.6,2107.6"/>
		<path class="st54" d="M1943.5,2081.7c-14.3,0-26,11.6-26,26c0,14.3,11.6,26,26,26c14.3,0,26-11.6,26-26
			C1969.4,2093.3,1957.8,2081.7,1943.5,2081.7"/>
		<path class="st54" d="M2128.3,2107.6c0-14,11.4-25.4,25.4-25.4c14,0,25.4,11.4,25.4,25.4c0,14-11.4,25.4-25.4,25.4
			C2139.6,2133,2128.3,2121.7,2128.3,2107.6"/>
		<path class="st55" d="M1981.9,1674.4H2299c1.1,0,2-0.9,2-2v-38.8c0-10-8.1-18.1-18.1-18.1h-285c-10,0-18.1,8.1-18.1,18.1v38.8
			C1979.9,1673.5,1980.8,1674.4,1981.9,1674.4"/>
		<path class="st55" d="M2362.6,1428.6c0-50.2-1.3-99.7,0.6-149.7c1.3-33.1,1-66.3-3.8-99.1c-2.1-14.4-11.8-80.3-40.4-67.9
			c-5.5,2.4-8,10.2-8.9,13.9c1.3,100.9,2.5,201.8,3.8,302.7c0,13.2,8.8,23.8,19.7,23.8h9.3
			C2353.7,1452.5,2362.6,1441.8,2362.6,1428.6"/>
		<path class="st52" d="M2267.6,1680.2h-237c-4.7,0-8.4-3.8-8.4-8.4c0-4.7,3.8-8.4,8.4-8.4h237c23.4,0,45.5-9.1,62.1-25.7
			c16.6-16.6,25.7-38.6,25.7-62.1v-316.8c0-4.7,3.8-8.4,8.4-8.4c4.7,0,8.4,3.8,8.4,8.4v316.8c0,28-10.9,54.2-30.6,74
			C2321.9,1669.3,2295.6,1680.2,2267.6,1680.2"/>
		<path class="st56" d="M2023.1,854.4c0,0-25.6-30.4,4.8-58.2c30.4-27.9,186.2-35.5,162.8,48.8c0,0,19.3,6.1,26.9,39.5
			c7.5,33.3-1.6,79.2-34,104.6c0,0-26.2-15.2-23.2-26.1c0,0,20.4-8,22.9-37.3c2.5-29.3-28.2-16.4-31.7,0c0,0-1.2-23-17.2-22.3
			c-15.9,0.7-65.6-7.7-68.6-40.2C2065.7,863.1,2048.4,872.6,2023.1,854.4"/>
		<rect x="619.2" y="1318.8" class="st57" width="1259.8" height="35.6"/>
		<rect x="1774.2" y="1342.3" class="st57" width="31.3" height="821.9"/>
		<rect x="681.5" y="1342.3" class="st57" width="31.3" height="821.9"/>
		<path class="st17" d="M1078.6,2164.3c0,0-22.7,6.1-48.3-2c-25.6-8.1-38.3-102.6-38.3-102.6s5.9-93.8-4.2-141.7
			c-10.1-47.9-3.4-149.2,1.3-166.7c1.4-5.2,1.6-14.9,1.2-26c-0.9-26.5-5.3-61.1-5.3-61.1s89.1-41.2,101.2,5.4
			c2.6,9.8,3.1,23.4,2.4,39.2c-2.9,59.4-24.7,149.2-32.7,180.2c-10.1,39.1-19.5,154.5-7.4,202.4
			C1060.6,2139.2,1078.6,2164.3,1078.6,2164.3"/>
		<path class="st18" d="M1086.3,1669.6c2.6,9.8,3.1,23.4,2.4,39.2c-19.1,6.5-69,21.9-98.3,16.5c-0.9-26.5-5.3-61.1-5.3-61.1
			S1074.1,1623,1086.3,1669.6"/>
		<path class="st19" d="M1280.7,1672.2c0,0-27.7,6.2-120,19.2c-36.4,5.1-74.2,5.8-106.7,4.8c-49.9-1.5-87.1-7.1-87.1-7.1
			s16.9-135.7,15.4-235c-1.5-99.3,18.3-117.5,18.3-117.5s51.5-72.6,106.9-58.7c55.4,13.9,135.4,0,135.4,0l8.2,25l15.7,47.9
			C1264,1411,1280.7,1672.2,1280.7,1672.2"/>
		<path class="st58" d="M1251.1,1302.9c-16.8,6.2-28.4,9-28.4,9s-64.4-5.1-80.3,25.8c-15.9,30.9,1.6,49.8-25.1,75.7
			c-26.7,25.9-95.4-3-103.3,111.5c-4.7,67.8,19.5,131,40.1,171.3c-49.9-1.5-87.1-7.1-87.1-7.1s1.5-132.7,0-232
			c-1.5-99.3,29.9-114.7,29.9-114.7s55.3-78.3,110.7-64.4c55.4,13.9,135.4,0,135.4,0L1251.1,1302.9z"/>
		<path class="st59" d="M1075.3,809.3c0,0-46.6,31.9-13.3,84.5c33.4,52.6,25.2,91.5,72.7,56.9c47.5-34.6,67.6-64.6,69.7-85.6
			c2.1-21,10.9-121.5-3.5-118.1C1186.6,750.5,1075.3,809.3,1075.3,809.3"/>
		<path class="st17" d="M1134.4,841.2c0,0-6,45.3,8.6,79.6c14.5,34.2-94.1,27.4-101.8,5.1c-7.7-22.2,11.1-140.7,35.1-135.2
			C1100.2,796.3,1134.4,841.2,1134.4,841.2"/>
		<path class="st12" d="M1231,1288.9c-3.7,6.7-139.6,3.1-139.6,3.1s-0.1-10-0.2-26.6c-0.6-75.7-1.3-289.9,8.7-330.9
			c1-4,2.1-6.4,3.2-6.8c0,0,31,2.6,37.9-19.2c0,0,0.3-2.2,3.3-1.9c3,0.3,22.7,0,22.7,0s48.9,79.5,56.4,139.7
			C1230.9,1106.4,1234.7,1282.2,1231,1288.9"/>
		<path class="st57" d="M1231,1288.9c-3.7,6.7-139.6,3.1-139.6,3.1s-0.1-10-0.2-26.6c14.8,7.3,63,28.6,90.6,14
			c32.9-17.4,22.3-80,22.9-155.3c0.6-75.3-49.8-204-63.7-195.1c-10.3,6.7-31.1,6.2-41.1,5.5c1-4,2.1-6.4,3.2-6.8
			c0,0,31,2.6,37.9-19.2c0,0,0.3-2.2,3.3-1.9c3,0.3,22.7,0,22.7,0s48.9,79.5,56.4,139.7C1230.9,1106.4,1234.7,1282.2,1231,1288.9"/>
		<path class="st60" d="M1140.9,1134.6c0,0,5.5-2,9.1,14.9c3.6,16.9,21.2,52.6,9.8,57.2c-11.4,4.7-63.7-42.6-55.5-52.9
			C1112.5,1143.6,1140.9,1134.6,1140.9,1134.6"/>
		<path class="st61" d="M1268.3,1149.2c-6.3,2.9-11.9,4.8-11.9,4.8s18.9,207.1,24.4,225c0,0-30.9,12-63.7,13.9
			c0,0,13.9-130.2,3.4-250.8c-3.1-36-8.4-71.1-16.9-101.6c-36.8-132.9-50.8-136.9-50.8-136.9s-2.7-2,2.1-3.6c0,0,9.3-3.3,12.1,1
			c0.8,1.2,1.3,2,1.6,2.4c0.1,0.1,0.1,0.2,0.2,0.3c1.8,0.1,60.9,14.7,60.9,14.7c15.5,21.9,32.7,89.3,44.6,147.5
			c7.2,35.4,12.1,64.3,12.1,68C1286.3,1139.6,1276.6,1145.3,1268.3,1149.2"/>
		<path class="st60" d="M1286.3,1133.9c0,5.7-9.7,11.4-18.1,15.3c-3.9-3.7-6.3-8.6-5-13.2c4.7-17.2-16-131.4-16-131.4
			c-1.8-10.2,12.8,20.7,27,61.2C1281.4,1101.3,1286.3,1130.2,1286.3,1133.9"/>
		<path class="st62" d="M1242.9,1064.9l-22.5,77.2c-3.1-36-8.4-71.1-16.9-101.6c-36.8-132.9-50.8-136.9-50.8-136.9s-2.7-2,2.1-3.6
			c0,0,9.3-3.3,12.1,1c0.8,1.2,1.3,2,1.6,2.4c0,0.1,0.1,0.2,0.1,0.3l0,0c0,0,0,0,0.1,0.1c0,0,0.1,0.1,0.1,0.1c0,0,0,0,0.1,0.1
			c3.7,5.3,56.1,79.6,58.5,85.8l-11.1,24.9L1242.9,1064.9z"/>
		<polygon class="st58" points="1279.1,1070.9 1286.3,1079 1286.3,1079 1237.7,1169.9 1184,1145.8 1191.3,1133.4 1228,1070.9 		"/>
		<path class="st18" d="M1285.1,1113.9c0,0-18.8-4.6-25.5,13c-6.7,17.6-18,44.8-9,47.2c9.1,2.4,27.2,14.1,35.1-4.1
			c7.9-18.2,20.4-45.9,14.9-49.9C1295.1,1116,1285.1,1113.9,1285.1,1113.9"/>
		<path class="st63" d="M1279.1,1070.9l7.2,8.1l0,0h-52.1l-31.1,53.1c-4.6,1.9-8.6,2.3-11.8,1.3l36.7-62.5H1279.1z"/>
		<path class="st17" d="M1246.1,1178c-2.3,2.8-5.3,5.6-8.5,8.2c-9.6,7.9-21.5,14.1-27.3,13.7c-7.7-0.6-66.6-3-66.6-3l-13.5-31
			l-1.7-4c1.2,0.3,25-16.3,30.5-26.7c4.7-8.9,16.4-23.2,24.9-26.4c0,0,0,0,0,0s12.7-8.3,18.8-14.3c0,0,2.8-3,4.9,2.2
			c2,5.3-1.6,11.5-1.6,11.5l-8.2,13.9c5.7,7.3,20.9,13.7,31.1,10.9c10-2.7,26.4-10.6,32.4-8c0.9,0.4,1.5,1,1.9,1.9
			C1266.3,1133.7,1255.6,1166.7,1246.1,1178"/>
		<g class="st64">
			<g>
				<defs>
					<rect id="SVGID_45_" x="1130.3" y="1165.8" width="107.3" height="34.1"/>
				</defs>
				<clipPath id="SVGID_46_">
					<use xlink:href="#SVGID_45_"  style="overflow:visible;"/>
				</clipPath>
				<path class="st65" d="M1237.7,1186.2c-9.6,7.9-21.5,14.1-27.3,13.7c-7.7-0.6-66.6-3-66.6-3l-13.5-31v-0.1
					C1130.3,1165.8,1150.1,1197.4,1237.7,1186.2"/>
			</g>
		</g>
		<path class="st66" d="M1131.1,1234c-3.3,60.2-18.1,159-18.1,159c-68.7,15.9-171-15.9-171-15.9c9.8-16,19-60.5,24.9-93.9
			c4-22.8,6.5-40.5,6.5-40.5s150.8-82.9,157.3-47C1132.1,1203.4,1132,1217.2,1131.1,1234"/>
		<path class="st60" d="M1131.1,1234c-0.1,0.2-0.3,0.3-0.4,0.4c0,0-114.2,48.9-163.8,48.7c4-22.8,6.5-40.5,6.5-40.5
			s150.8-82.9,157.3-47C1132.1,1203.4,1132,1217.2,1131.1,1234"/>
		<path class="st17" d="M1199.4,775.4c-19.5,40.3-9,58.6-38.1,77.4c-21.3,13.8-39.3,10.1-69.2-7.2c-11-6.4-23.6-14.6-38.6-24.5
			c0,0,44.8-124,73.7-135.6c28.9-11.5,46-5.1,46-5.1s4.8,7.9,10.5,19.8C1193.4,720.4,1209.9,753.8,1199.4,775.4"/>
		<g class="st64">
			<g>
				<defs>
					<rect id="SVGID_47_" x="1053.5" y="678.6" width="130.2" height="256.4"/>
				</defs>
				<clipPath id="SVGID_48_">
					<use xlink:href="#SVGID_47_"  style="overflow:visible;"/>
				</clipPath>
				<path class="st67" d="M1173.3,680.4c0,0-17.1-6.4-46,5.1c-28.9,11.6-73.7,135.6-73.7,135.6c15,9.9-27.8,133.7,57.5,111.1
					c-1-4.6-9.1-29.8-15.2-56.5c0,0-2.7-13.4,10-13.1c12.7,0.2,27.4-1.4,27.4-1.4s-35.1-1-44-27.8c-0.2-3.9-0.2-7.5,0.1-10.8
					c4.1-48.6,57.1-90.5,65.2-103.3c8.1-12.8,23.1-10.7,23.1-10.7s3.4-3.3,6.2-8.4C1178.1,688.3,1173.3,680.4,1173.3,680.4"/>
			</g>
		</g>
		<path class="st61" d="M1159.8,1206.8c0,0-130.2,49.5-172.9,52.9c-27,2.1-28.4-9.5-28.4-9.5s-17.2-36.3-27.2-147.8
			c-10-111.5,17.2-165.4,24.2-175c0,0,22.6-11,39.7-17c4.6-1.6,14.8-3.8,14.8-3.8c13.8-6.1,16.5-12.2,26.9-11.5
			c31.8,2.3,47.6,28.4,47.6,28.4l41.8,105c9,30.9,4.2,108.5,4.2,108.5l10.2-2.5C1120.5,1185.9,1159.8,1206.8,1159.8,1206.8"/>
		<path class="st60" d="M1091.8,1091.8c0.9-50.8-33.3-97.1-59-118.7c-25.7-21.7-35.2-63.4-35.2-63.4c13.8-6.1,29-15.3,39.4-14.6
			c14.8,13.5,29.2,30.2,40.9,49.4C1117.5,1009.3,1091.8,1091.8,1091.8,1091.8"/>
		<path class="st60" d="M1003.5,1026.1c0,0,1.1,138,3.5,147.4c0,0,79.6-29.5,123.6-36.5c0,0-23.9,3.6-91.3,15c0,0-18,4.9-19.7-14.3
			C1018.2,1120.5,1003.5,1026.1,1003.5,1026.1"/>
		<path class="st19" d="M991,2042.5c0,0,13.7,67,29.8,90.7c16,23.7,22.9,27.2,55.5,23.5c0,0,10.2-2.4,14.4,6.5
			c4.2,8.9-0.8,17.6-7.4,18.4H1017c0,0-17.9-2.3-28.9-69.5C977.1,2044.8,983,2041.5,991,2042.5"/>
		<polygon class="st19" points="989.7,2187.5 982.1,2187.5 982.1,2063.5 997.3,2077.4 		"/>
		<path class="st19" d="M1145.1,2042.5c0,0,13.7,67,29.8,90.7c16,23.7,22.9,27.2,55.5,23.5c0,0,10.2-2.4,14.4,6.5
			c4.2,8.9-0.8,17.6-7.4,18.4h-66.2c0,0-17.9-2.3-28.9-69.5C1131.3,2044.8,1137.2,2041.5,1145.1,2042.5"/>
		<polygon class="st19" points="1143.9,2187.5 1136.2,2187.5 1136.2,2063.5 1151.5,2077.4 		"/>
		<path class="st68" d="M1177.6,708.6c0,0-12.4-15-24.8,1.7s-20.5,32.1-57.3,50.5c0,0-41.5,76.1-21.8,113.8
			c19.7,37.6,76.6,123.5,18.2,217.2c0,0,13.4-94-34.7-123.1c-48.2-29.1-26.7-41.1-56.4-66.5c0,0-23.1-7.1-9.6-70.6
			c13.5-63.5,44.3-154.6,94.3-170c50-15.4,75.1,6.4,75.1,6.4s13.3-8.1,35.2,29.5c22,37.6,43.4,154.3,0.5,212.9l-28.2-7.2
			c0,0,45.8-39.5,29.2-163c-1.1-7.8-3.5-15.4-7.3-22.3C1186.3,711.7,1181.8,706.1,1177.6,708.6"/>
		<g class="st64">
			<g>
				<defs>
					<rect id="SVGID_49_" x="1197.9" y="1122.1" width="63.5" height="17.4"/>
				</defs>
				<clipPath id="SVGID_50_">
					<use xlink:href="#SVGID_49_"  style="overflow:visible;"/>
				</clipPath>
				<path class="st69" d="M1261.4,1124.9c-16.6,17.7-50,16.3-57,11.1c-7.3-5.5-6.5-13.9-6.5-13.9c5.7,7.3,20.9,13.7,31.1,10.9
					C1239.1,1130.2,1255.4,1122.3,1261.4,1124.9"/>
			</g>
		</g>
		<path class="st15" d="M2386.5,463.6c0,3.1-2.5,5.6-5.6,5.6s-5.6-2.5-5.6-5.6c0-3.1,2.5-5.6,5.6-5.6S2386.5,460.6,2386.5,463.6"/>
		<path class="st10" d="M462.4,1233.8c6.5,25.6,8.7,50.3,9.5,74.7c1,24.4-0.2,48.5-2.5,72.2c-3.6,47.8-23.4,92.3-36.1,138.2
			c-12.7,45.9-26,91.7-40,137.4c-14.7,45.5-28.3,91.3-43.9,136.6l-7.8-1.6c3.2-47.8,8.5-95.3,12.6-142.9
			c4.9-47.5,10.4-94.9,16.5-142.1c6.1-47.3,5.2-95.9,20.5-141.3c7.1-22.8,15.3-45.4,25.8-67.5c10.2-22.2,21.8-44.1,37.8-65.1
			L462.4,1233.8z"/>
		<path class="st10" d="M122,1598.4c11.9,1,21.5,4,30.4,7.8c9,3.7,16.8,8.4,24,13.7c15,10,21.3,28,31.4,42.5
			c10.1,14.5,19.9,29.3,29.4,44.5c9.1,15.5,18.7,30.4,27.3,46.4l-4.2,3.8c-15.2-9.8-29.3-20.7-43.9-31c-14.3-10.7-28.3-21.7-41.9-33
			c-13.6-11.3-31-19.1-39.8-34.9c-4.7-7.6-8.7-15.8-11.6-25c-3-9.1-5.3-19-5.2-30.9L122,1598.4z"/>
		<path class="st70" d="M519.8,1490.2c3.3,17.2,2.8,32.2,1,46.5c-1.6,14.4-5.1,27.7-9.6,40.4c-8.1,26-30.5,43.6-46.7,64.9
			c-16.1,21.3-32.8,42.3-50.1,62.9c-17.9,20.3-34.8,41.1-53.6,60.9l-6.9-4c7.7-26.1,17.3-51.2,25.9-76.9c9.2-25.3,19-50.2,29.4-74.9
			c10.4-24.6,14.4-52.9,32.8-72.9c8.7-10.3,18.5-19.9,30.1-28.5c11.4-8.7,24.2-16.6,40.7-22.4L519.8,1490.2z"/>
		<path class="st10" d="M572.1,1633.1c-3,12.6-7.8,22.4-13.2,31.1c-5.4,8.9-11.6,16.3-18.5,23c-13.1,14.1-33.3,17.1-50.4,25
			c-17.1,7.9-34.5,15.4-52.1,22.4c-18,6.5-35.4,13.9-53.8,19.7l-3.4-5.3c12.9-14.3,26.8-27.2,40.2-40.9
			c13.7-13.2,27.6-25.9,41.9-38.2c14.2-12.3,25.4-29.4,43.6-35.6c8.9-3.5,18.2-6.1,28.5-7.3c10.2-1.4,21.1-1.7,33.8,0.8
			L572.1,1633.1z"/>
		<path class="st10" d="M298.8,1152.6c24.4,54.7,35.3,110.1,43,165.5c8.2,55.4,0.2,111.6-0.9,167.4c-1,55.8-2.6,111.7-4.9,167.6
			c-3,55.9-4.8,111.8-8.8,167.7l-8,0.3c-8.7-55.4-15.3-110.9-23.1-166.4c-7-55.5-13.4-111-19.1-166.5
			c-5.8-55.5-18.6-110.8-15.1-166.7c3-55.9,9.1-112,28.8-168.6L298.8,1152.6z"/>
		<path class="st70" d="M164.7,1366.2c16.3,13.4,28.6,28.1,39.3,43.3c11,15.1,19.9,30.9,27.6,47.1c16.5,32,17.4,69,25.1,103.9
			c7.7,34.8,14.9,69.9,21.3,105.1c5.8,35.5,12.7,70.6,17.5,106.4l-7.6,2.5c-17-31.9-31.9-64.4-47.9-96.5
			c-15.3-32.4-30.1-65-44.1-97.8c-14.1-32.8-35-63.4-40.3-99c-3.2-17.6-5.2-35.7-5.1-54.4c-0.2-18.6,1.1-37.7,6.6-58.1L164.7,1366.2
			z"/>
		<rect x="191.2" y="1740" class="st10" width="285.2" height="71"/>
		<rect x="213.3" y="1811" class="st70" width="240.9" height="215.2"/>
	</g>
</g>
</svg>
