<?xml version="1.0" encoding="utf-8"?>
<!-- Generator: Adobe Illustrator 21.1.0, SVG Export Plug-In . SVG Version: 6.00 Build 0)  -->
<svg version="1.1" id="Слой_1" xmlns="http://www.w3.org/2000/svg" xmlns:xlink="http://www.w3.org/1999/xlink" x="0px" y="0px"
	 viewBox="0 0 2858.7 2400" enable-background="new 0 0 2858.7 2400" xml:space="preserve">
<g>
	<defs>
		<rect id="SVGID_1_" width="2858.7" height="2400"/>
	</defs>
	<clipPath id="SVGID_2_">
		<use xlink:href="#SVGID_1_"  overflow="visible"/>
	</clipPath>
	<g clip-path="url(#SVGID_2_)">
		<defs>
			<rect id="SVGID_3_" width="2858.7" height="2400"/>
		</defs>
		<clipPath id="SVGID_4_">
			<use xlink:href="#SVGID_3_"  overflow="visible"/>
		</clipPath>
		<g opacity="0.6" clip-path="url(#SVGID_4_)">
			<g>
				<defs>
					<rect id="SVGID_5_" x="157.3" width="2701.5" height="2250.9"/>
				</defs>
				<clipPath id="SVGID_6_">
					<use xlink:href="#SVGID_5_"  overflow="visible"/>
				</clipPath>
				<path clip-path="url(#SVGID_6_)" fill="#DDF1FA" d="M2635.1,1699.6c0,0,367.2-457.8,160.7-982
					c-206.6-524.2-932.6-888.8-1479.9-635C768.4,336.4,775.6,827.4,435.9,1088.5c-339.7,261-436.4,776.8,99.1,1033
					C1070.6,2377.7,2164.6,2262,2635.1,1699.6"/>
			</g>
		</g>
		<g opacity="0.6" clip-path="url(#SVGID_4_)">
			<g>
				<defs>
					<rect id="SVGID_7_" x="44.4" y="264.8" width="678" height="726.4"/>
				</defs>
				<clipPath id="SVGID_8_">
					<use xlink:href="#SVGID_7_"  overflow="visible"/>
				</clipPath>
				<path clip-path="url(#SVGID_8_)" fill="#DDF1FA" d="M537.5,265c-55,1.7-166.9,24.1-274.9,125.7c-114.8,108-381,502.6-78.5,592.2
					c241.2,71.5,548.8-338.6,538.2-538.2C714.7,303.4,654.8,261.5,537.5,265"/>
			</g>
		</g>
	</g>
	
		<line clip-path="url(#SVGID_2_)" fill="none" stroke="#2946FB" stroke-width="12" stroke-miterlimit="10" x1="1968.6" y1="1062.6" x2="2578.7" y2="1062.6"/>
	
		<line clip-path="url(#SVGID_2_)" fill="none" stroke="#2946FB" stroke-width="12" stroke-miterlimit="10" x1="1968.6" y1="1121.2" x2="2578.7" y2="1121.2"/>
	
		<line clip-path="url(#SVGID_2_)" fill="none" stroke="#2946FB" stroke-width="12" stroke-miterlimit="10" x1="1968.6" y1="1179.7" x2="2578.7" y2="1179.7"/>
	
		<line clip-path="url(#SVGID_2_)" fill="none" stroke="#2946FB" stroke-width="12" stroke-miterlimit="10" x1="2328.8" y1="1238.2" x2="2578.7" y2="1238.2"/>
	
		<line clip-path="url(#SVGID_2_)" fill="none" stroke="#2946FB" stroke-width="12" stroke-miterlimit="10" x1="1968.6" y1="1238.2" x2="2273.7" y2="1238.2"/>
	<g clip-path="url(#SVGID_2_)">
		<defs>
			<rect id="SVGID_9_" width="2858.7" height="2400"/>
		</defs>
		<clipPath id="SVGID_10_">
			<use xlink:href="#SVGID_9_"  overflow="visible"/>
		</clipPath>
		<path clip-path="url(#SVGID_10_)" fill="none" stroke="#2946FB" stroke-width="3" stroke-miterlimit="10" d="M1725.8,1365.5h-1228
			c-30.9,0-56.1-25.3-56.1-56.1V473.2c0-30.9,25.3-56.1,56.1-56.1h1228c30.9,0,56.1,25.3,56.1,56.1v836.2
			C1781.9,1340.3,1756.6,1365.5,1725.8,1365.5z"/>
		<path clip-path="url(#SVGID_10_)" fill="#FFFFFF" d="M1811.2,1467h-1273c-23.2,0-41.9-18.8-41.9-41.9V588.4
			c0-23.2,18.8-41.9,41.9-41.9h1273c23.2,0,41.9,18.8,41.9,41.9v836.7C1853.1,1448.2,1834.3,1467,1811.2,1467"/>
		<path clip-path="url(#SVGID_10_)" fill="#F3F6FC" d="M1033.5,1204c0-20.6-5.6-39.9-15.3-56.4c-19.4-33-55.3-55.2-96.3-55.2
			c-28.8,0-55.1,10.9-74.8,28.8c-22.6,20.4-36.8,49.9-36.8,82.8c0,61.6,50,111.6,111.6,111.6c47.4,0,87.9-29.5,104.1-71.2
			C1030.8,1231.8,1033.5,1218.2,1033.5,1204 M987.4,1204c0,8.5-1.6,16.6-4.6,24.1c-9.5,24.3-33.2,41.4-60.9,41.4
			c-0.6,0-1.1,0-1.7-0.1c-35.4-0.8-63.9-29.8-63.9-65.5c0-19.2,8.3-36.5,21.4-48.4c11.6-10.6,27.1-17.1,44.1-17.1
			c24.3,0,45.4,13.1,56.7,32.7C984.2,1180.8,987.4,1192,987.4,1204"/>
		<path clip-path="url(#SVGID_10_)" fill="#C7DEFE" d="M921.9,1315.6v-46.1c-0.6,0-1.1,0-1.7-0.1c-35.4-0.8-63.9-29.8-63.9-65.5
			c0-19.2,8.2-36.5,21.4-48.4l-30.7-34.4c-22.6,20.4-36.8,49.9-36.8,82.8C810.3,1265.6,860.2,1315.6,921.9,1315.6"/>
		<path clip-path="url(#SVGID_10_)" fill="#4E95E5" d="M1033.5,1204c0-20.6-5.6-39.9-15.3-56.4l-39.6,23.6
			c5.6,9.6,8.8,20.8,8.8,32.8c0,8.5-1.6,16.6-4.6,24.1l43.1,16.3C1030.8,1231.8,1033.5,1218.2,1033.5,1204"/>
		<path clip-path="url(#SVGID_10_)" fill="#8FC0FA" d="M1018.2,1147.5c-19.4-33-55.3-55.2-96.3-55.2c-28.8,0-55,10.9-74.8,28.8
			l30.7,34.4c11.6-10.6,27.1-17.1,44.1-17.1c24.2,0,45.4,13.1,56.7,32.7L1018.2,1147.5z"/>
		<path clip-path="url(#SVGID_10_)" fill="#F3F6FC" d="M819,713.4H1053c4.8,0,8.7,3.9,8.7,8.7c0,4.8-3.9,8.7-8.7,8.7H819
			c-4.8,0-8.7-3.9-8.7-8.7C810.3,717.3,814.2,713.4,819,713.4 M819,760.6H1053c4.8,0,8.7-3.9,8.7-8.7c0-4.8-3.9-8.7-8.7-8.7H819
			c-4.8,0-8.7,3.9-8.7,8.7C810.3,756.7,814.2,760.6,819,760.6 M819,790.3H1053c4.8,0,8.7-3.9,8.7-8.7c0-4.8-3.9-8.7-8.7-8.7H819
			c-4.8,0-8.7,3.9-8.7,8.7C810.3,786.4,814.2,790.3,819,790.3 M819,820.1H1053c4.8,0,8.7-3.9,8.7-8.7c0-4.8-3.9-8.7-8.7-8.7H819
			c-4.8,0-8.7,3.9-8.7,8.7C810.3,816.2,814.2,820.1,819,820.1"/>
		<path clip-path="url(#SVGID_10_)" fill="#C7DEFE" d="M601.7,874.6v-0.3c0-4.7,3.8-8.6,8.6-8.6c30.4,0,133,0,163.4,0
			c4.7,0,8.6,3.8,8.6,8.6v0.3c0,4.7-3.8,8.6-8.6,8.6H610.3C605.6,883.2,601.7,879.4,601.7,874.6 M773.6,895.6H610.3
			c-4.7,0-8.6,3.8-8.6,8.6v0.3c0,4.7,3.8,8.6,8.6,8.6h163.3c4.7,0,8.6-3.8,8.6-8.6v-0.3C782.2,899.4,778.4,895.6,773.6,895.6
			 M601.7,933.9v0.3c0,4.7,3.8,8.6,8.6,8.6h163.3c4.7,0,8.6-3.8,8.6-8.6v-0.3c0-4.7-3.8-8.6-8.6-8.6H610.3
			C605.6,925.3,601.7,929.2,601.7,933.9 M610.4,972.5h163.1c4.8,0,8.7-3.9,8.7-8.7c0-4.8-3.9-8.7-8.7-8.7H610.4
			c-4.8,0-8.7,3.9-8.7,8.7C601.7,968.6,605.6,972.5,610.4,972.5"/>
	</g>
	<g clip-path="url(#SVGID_2_)">
		<defs>
			<path id="SVGID_11_" d="M607.4,701.9c-3.1,0-5.7,2.5-5.7,5.7v135.7c0,3.1,2.5,5.7,5.7,5.7h169.2c3.1,0,5.7-2.5,5.7-5.7V707.5
				c0-3.1-2.5-5.7-5.7-5.7H607.4z"/>
		</defs>
		<clipPath id="SVGID_12_">
			<use xlink:href="#SVGID_11_"  overflow="visible"/>
		</clipPath>
		<path clip-path="url(#SVGID_12_)" fill="#F3F6FC" d="M776.5,848.9H607.4c-3.1,0-5.7-2.5-5.7-5.7V707.5c0-3.1,2.5-5.7,5.7-5.7
			h169.2c3.1,0,5.7,2.5,5.7,5.7v135.7C782.2,846.4,779.7,848.9,776.5,848.9"/>
		<path clip-path="url(#SVGID_12_)" fill="#4E95E5" d="M651.5,831.2l87-45.4c4.8-2.5,10.6-2.2,15.1,0.7l80.9,52.2v14.9H650.9
			L651.5,831.2z"/>
		<path clip-path="url(#SVGID_12_)" fill="#8FC0FA" d="M593.5,815.7l58-46.9c5.3-4.2,12.7-4.5,18.2-0.5l115.1,82.3H590.1
			L593.5,815.7z"/>
		<path clip-path="url(#SVGID_12_)" fill="#C7DEFE" d="M730.9,740.2c0,9.3-7.6,16.9-16.9,16.9c-9.3,0-16.9-7.6-16.9-16.9
			c0-9.3,7.6-16.9,16.9-16.9C723.4,723.3,730.9,730.9,730.9,740.2"/>
	</g>
	<g clip-path="url(#SVGID_2_)">
		<defs>
			<rect id="SVGID_13_" width="2858.7" height="2400"/>
		</defs>
		<clipPath id="SVGID_14_">
			<use xlink:href="#SVGID_13_"  overflow="visible"/>
		</clipPath>
		<path clip-path="url(#SVGID_14_)" fill="#8FC0FA" d="M949.4,910.4h27.1c1.7,0,3.1,1.4,3.1,3.1v62.8c0,1.7-1.4,3.1-3.1,3.1h-27.1
			c-1.7,0-3.1-1.4-3.1-3.1v-62.8C946.3,911.7,947.7,910.4,949.4,910.4 M1000.2,889.3h27.4c1.6,0,3,1.3,3,3v84.2c0,1.6-1.3,3-3,3
			h-27.4c-1.6,0-3-1.3-3-3v-84.2C997.3,890.6,998.6,889.3,1000.2,889.3 M893.8,895.2v76.1c0,4.5,3.6,8.1,8.1,8.1h17.1
			c4.5,0,8.1-3.6,8.1-8.1l0-76.1c0-4.5-3.6-8.1-8.1-8.1H902C897.5,887.1,893.8,890.7,893.8,895.2 M866.6,850.8h-17.1
			c-4.5,0-8.1,3.6-8.1,8.1v112.3c0,4.5,3.6,8.1,8.1,8.1h17.1c4.5,0,8.1-3.6,8.1-8.1V859C874.7,854.5,871.1,850.8,866.6,850.8"/>
		<path clip-path="url(#SVGID_14_)" fill="#C7DEFE" d="M1411.2,751.5c0,36.9-18,69.7-45.6,90.1c-4,3-8.3,5.7-12.7,8.1
			c-13.3,7.3-28.2,11.9-44.1,13.3c-3.2,0.3-6.4,0.4-9.7,0.4c-2.3,0-4.6-0.1-6.9-0.2c-15.4-0.9-29.9-5-43-11.5
			c-4.3-2.2-8.5-4.6-12.4-7.2c-29.9-20.1-49.6-54.3-49.6-93.1c0.1-61.8,50.2-111.9,112.1-111.9
			C1361.2,639.5,1411.3,689.7,1411.2,751.5"/>
		<path clip-path="url(#SVGID_14_)" fill="#B0C8EA" d="M1352.9,849.7c0.1-3.8,0-7.6-0.4-11.3c-0.5-4.5-1.3-8.9-2.8-13.2
			c-2.4-6.8-6.4-12.3-12.7-16c-0.9-0.5-1.9-0.7-2.5-1.6c2.5,0.4,4.9,1.1,7.2,2c2.5,1,4.9,2.4,7.2,3.8c1.2,1,2.4,2,3.6,3
			c4.3,3.9,7.4,8.7,9.7,14c0.1,0.3,0.3,0.5,0.4,0.8c1.2,3.4,2.3,6.8,3,10.4C1361.6,844.6,1357.4,847.3,1352.9,849.7"/>
		<path clip-path="url(#SVGID_14_)" fill="#B0C8EA" d="M1264.8,808.5c-0.1,0.5-0.5,0.6-0.8,0.7c-1.6,0.9-3.1,2-4.4,3.3
			c-4.2,4.1-6.6,9.1-8.2,14.6c-1.6,5.9-2.3,11.9-2.3,17.9c0,2.2,0,4.4,0.1,6.6c-4.3-2.2-8.5-4.6-12.4-7.2c0.7-4.4,1.8-8.7,3.5-13
			c0-0.1,0-0.2,0-0.3c1.4-2.8,2.7-5.6,4.4-8.2c2.4-3.5,5.3-6.4,8.6-9c0.2-0.1,0.4-0.2,0.6-0.3
			C1257.4,811.3,1260.9,809.5,1264.8,808.5"/>
		<path clip-path="url(#SVGID_14_)" fill="#EEF2F9" d="M1352.9,849.7c-13.3,7.3-28.2,11.9-44.1,13.3c0-14.3,0-28.6,0-42.9
			c0-1.2,0-2.3,0-3.5c0.3-0.1,0.6-0.3,0.9-0.4c4.9-2.2,8.1-5.9,9.5-11.1c2.5,0.2,5,0.2,7.5,0.6c2.6,0.4,5.1,1.4,7.7,2
			c0.6,0.8,1.7,1.1,2.5,1.6c6.3,3.7,10.3,9.2,12.7,16c1.5,4.3,2.3,8.7,2.8,13.2C1352.9,842.2,1353,845.9,1352.9,849.7"/>
		<path clip-path="url(#SVGID_14_)" fill="#EEF2F9" d="M1292.3,816.8c0,15.5,0,30.9,0,46.4c-15.4-0.9-29.9-5-43-11.5
			c-0.1-2.2-0.1-4.4-0.1-6.6c0-6.1,0.7-12.1,2.3-17.9c1.5-5.5,4-10.6,8.2-14.6c1.3-1.3,2.8-2.4,4.4-3.3c0.3-0.2,0.7-0.3,0.8-0.7
			c1.2-0.5,2.4-1,3.7-1.4c4.8-1.7,9.7-2.1,14.7-2c0.1,0.5,0.3,1,0.4,1.5c1.6,4.4,4.5,7.5,8.7,9.5
			C1292.4,816.3,1292.3,816.5,1292.3,816.8"/>
		<path clip-path="url(#SVGID_14_)" fill="#FEFEFE" d="M1308.9,863c-3.2,0.3-6.4,0.4-9.7,0.4c-2.3,0-4.6-0.1-6.9-0.2
			c0-15.5,0-30.9,0-46.4c0-0.2,0-0.4,0-0.7c5.4,2.2,10.9,2.3,16.5,0.5c0,1.2,0,2.3,0,3.5C1308.9,834.4,1308.9,848.7,1308.9,863"/>
		<path clip-path="url(#SVGID_14_)" fill="#2946FB" d="M1283.2,805c-5-0.1-10,0.2-14.7,2c-1.2,0.5-2.4,1-3.7,1.4
			c-3.9,1-7.5,2.9-10.8,5.2c-0.2,0.1-0.4,0.2-0.6,0.3c-0.1-7.1-0.3-14.1-0.4-21.2c-0.2-16.3-0.4-32.7-0.6-49c-0.1-9.9,1-19.6,4.3-29
			c3.4-9.8,8.9-18.3,17.5-24.4c6.4-4.5,13.5-7,21.2-7.8c9.4-1,18.6,0.2,27.3,4.2c5.9,2.7,10.5,6.9,14.4,12.2
			c8.2,11,11.6,23.5,12.4,36.9c0.6,9.7,0.1,19.4,0,29.1c-0.2,15.9-0.5,31.8-0.8,47.8c0,0.3,0,0.5,0,0.8c-2.4-1.3-4.7-2.8-7.2-3.8
			c-2.3-0.9-4.7-1.7-7.2-2c-2.6-0.6-5.1-1.6-7.7-2c-2.5-0.4-5-0.4-7.5-0.6c-1.4-5.8-1.8-11.6-0.5-17.5c0.1-0.6,0.4-1.1,0.9-1.5
			c3.3-2.9,6.2-6.2,8.7-9.9c3.8-5.5,6.6-11.5,8.8-17.8c0.1-0.3,0-1,0.6-0.9c2.4,0.3,3.8-1.2,5.1-2.9c1.7-2.3,2.6-4.9,3.2-7.6
			c0.7-3.6,0.9-7.2-0.3-10.8c-0.5-1.3-1.1-2.5-2.4-3.2c-0.1,0.9-0.2,1.7-0.2,2.5c-0.4,3.7-1,7.3-2.8,10.6c-1.1,2-2.4,3.9-4.7,4.8
			l0,0c-0.2-0.4,0-0.9,0.1-1.3c1.1-6.5,1.6-13.1,0.8-19.7c-0.5-4.2-1.5-8.2-3.7-11.8c-1.2-2-2.8-3.7-5-5.1
			c1.7,9.8,3.2,19.3,5.7,28.8c-0.3,0-0.5,0-0.6,0c-6.4,0.2-12.8-0.2-19.1-1.2c-7.5-1.2-14.8-3.2-21.5-6.9c-7.5-4.2-13-10-15.4-18.5
			c-0.7-2.7-1.1-5.4-1.2-8.2c-0.2,0.3-0.4,0.5-0.5,0.8c-2.3,4.9-4.2,9.9-5.8,15c-1.4,4.3-2.5,8.7-3,13.1c-0.7,5.1-0.7,10.2,1.3,15.1
			c-6.2-4.2-8.1-10.7-8.7-17.8c-1.4,1-2,2.4-2.4,3.8c-1.2,4.4-0.6,8.8,0.8,13.1c0.7,2.2,1.7,4.2,3.4,5.8c1.1,1.1,2.3,1.9,3.9,1.6
			c0.7-0.1,0.9,0.1,1.1,0.7c0.7,2.3,1.6,4.5,2.5,6.7c3.5,7.9,8,15.1,14.5,20.9c0.7,0.7,1.1,1.3,1.2,2.3
			C1284.6,793.7,1284.1,799.4,1283.2,805"/>
		<path clip-path="url(#SVGID_14_)" fill="#F9C89A" d="M1335.4,751c2.3-0.9,3.6-2.8,4.7-4.8c1.8-3.3,2.4-6.9,2.8-10.6
			c0.1-0.8,0.2-1.6,0.2-2.5c1.4,0.7,2,1.9,2.4,3.2c1.3,3.6,1.1,7.2,0.3,10.8c-0.6,2.7-1.5,5.4-3.2,7.6c-1.3,1.7-2.7,3.2-5.1,2.9
			c-0.6-0.1-0.5,0.5-0.6,0.9c-2.1,6.3-5,12.3-8.8,17.8c-2.5,3.6-5.3,7-8.7,9.9c-0.5,0.4-0.7,0.9-0.9,1.5c-1.2,5.9-0.9,11.7,0.5,17.5
			c-1.4,5.2-4.6,8.9-9.5,11.1c-0.3,0.1-0.6,0.3-0.9,0.4c-5.5,1.8-11,1.8-16.5-0.5c-4.2-2-7.1-5.2-8.7-9.5c-0.2-0.5-0.3-1-0.4-1.5
			c0.9-5.7,1.4-11.3,0.6-17c-0.1-0.9-0.5-1.6-1.2-2.3c-6.5-5.8-11-13-14.5-20.9c-1-2.2-1.8-4.4-2.5-6.7c-0.2-0.6-0.4-0.8-1.1-0.7
			c-1.6,0.3-2.8-0.5-3.9-1.6c-1.6-1.6-2.6-3.6-3.4-5.8c-1.4-4.3-2-8.6-0.8-13.1c0.4-1.5,1-2.8,2.4-3.8c0.6,7.1,2.5,13.5,8.7,17.8
			c-2-4.9-2-9.9-1.3-15.1c0.6-4.5,1.7-8.8,3-13.1c1.6-5.1,3.6-10.1,5.8-15c0.1-0.3,0.3-0.6,0.5-0.8c0.1,2.8,0.4,5.5,1.2,8.2
			c2.3,8.5,7.9,14.3,15.4,18.5c6.7,3.7,14,5.7,21.5,6.9c6.3,1,12.7,1.5,19.1,1.2c0.2,0,0.4,0,0.6,0c-2.6-9.4-4-19-5.7-28.8
			c2.2,1.4,3.7,3.1,5,5.1c2.2,3.6,3.2,7.6,3.7,11.8c0.8,6.6,0.3,13.2-0.8,19.7C1335.4,750.1,1335.2,750.5,1335.4,751
			c0,0-0.1,0-0.1,0.1C1335.3,751,1335.4,751,1335.4,751C1335.4,751,1335.4,751,1335.4,751"/>
		<path clip-path="url(#SVGID_14_)" fill="#0F111E" d="M1335.4,751C1335.4,751,1335.4,751,1335.4,751c-0.1,0.1-0.1,0.1-0.1,0.1
			C1335.3,751,1335.4,751,1335.4,751L1335.4,751z"/>
		<path clip-path="url(#SVGID_14_)" fill="#2946FB" d="M1835.7,481.1c-9.3-7.4-21.5-11.8-34.7-11.8H548.3c-29.5,0-53.4,22-53.4,49.1
			v900.8c0,22.1,16,40.8,37.9,47c4.9,1.4,10.1,2.1,15.5,2.1H1801c29.5,0,53.4-22,53.4-49.1V518.4
			C1854.4,503.5,1847.2,490.1,1835.7,481.1 M1841.8,1419.2c0,20.6-18.3,37.4-40.8,37.4H548.3c-2.5,0-4.9-0.2-7.2-0.6
			c-19-3.1-33.5-18.5-33.5-36.8V606h1334.2V1419.2z"/>
		<path clip-path="url(#SVGID_14_)" fill="#FFFFFF" d="M1554.1,571.8H980.1c-18.5,0-33.5-13.8-33.5-30.8c0-17,15-30.8,33.5-30.8
			h574.1c18.5,0,33.5,13.8,33.5,30.8C1587.6,558,1572.6,571.8,1554.1,571.8"/>
		<path clip-path="url(#SVGID_14_)" fill="#FFFFFF" d="M548.1,558.2c-1.6,0-3.3-0.6-4.5-1.7c-2.5-2.3-2.5-6,0-8.3l30.6-28.1
			c2.5-2.3,6.5-2.3,9,0c2.5,2.3,2.5,6,0,8.3l-30.6,28.1C551.4,557.6,549.7,558.2,548.1,558.2"/>
		<path clip-path="url(#SVGID_14_)" fill="#FFFFFF" d="M578.7,558.2c-1.6,0-3.3-0.6-4.5-1.7l-30.6-28.1c-2.5-2.3-2.5-6,0-8.3
			c2.5-2.3,6.5-2.3,9,0l30.6,28.1c2.5,2.3,2.5,6,0,8.3C582,557.6,580.4,558.2,578.7,558.2"/>
		<path clip-path="url(#SVGID_14_)" fill="#FFFFFF" d="M709.1,518.3c-12,0-21.7,8.9-21.7,19.9c0,2.9,0.7,5.7,1.9,8.2
			c3.4,6.9,11,11.7,19.8,11.7c8.8,0,16.4-4.8,19.8-11.7c1.2-2.5,1.9-5.3,1.9-8.2C730.8,527.3,721.1,518.3,709.1,518.3 M700.2,538.3
			c0-4.5,4-8.2,8.9-8.2c4.9,0,8.9,3.7,8.9,8.2c0,4.5-4,8.2-8.9,8.2C704.2,546.5,700.2,542.8,700.2,538.3"/>
		<path clip-path="url(#SVGID_14_)" fill="#FFFFFF" d="M650.7,544.1h-32.8c-3.5,0-6.4-2.6-6.4-5.9c0-3.2,2.9-5.9,6.4-5.9h32.8
			c3.5,0,6.4,2.6,6.4,5.9C657.1,541.5,654.2,544.1,650.7,544.1"/>
		<g opacity="0.37" clip-path="url(#SVGID_14_)">
			<g>
				<defs>
					<rect id="SVGID_15_" x="532.8" y="469.3" width="1302.8" height="998.9"/>
				</defs>
				<clipPath id="SVGID_16_">
					<use xlink:href="#SVGID_15_"  overflow="visible"/>
				</clipPath>
				<path clip-path="url(#SVGID_16_)" fill="#FFFFFF" d="M1835.7,481.1l-53.5,65.3l-48.8,59.5l-404.9,494.2l-29.5,36l-1.5,1.9
					l-29.5,36l-231.5,282.6l-8.5,10.4l-1,1.2H548.3c-5.4,0-10.6-0.7-15.5-2.1l0.6-0.8l7.6-9.4l612-749.2l21.3-26.1l61-74.7
					l27.9-34.2l20.7-25.3l29.5-36.2l33.5-40.9H1801C1814.2,469.3,1826.3,473.8,1835.7,481.1"/>
			</g>
		</g>
		<g opacity="0.37" clip-path="url(#SVGID_14_)">
			<g>
				<defs>
					<rect id="SVGID_17_" x="494.9" y="469.3" width="454.9" height="484.9"/>
				</defs>
				<clipPath id="SVGID_18_">
					<use xlink:href="#SVGID_17_"  overflow="visible"/>
				</clipPath>
				<polygon clip-path="url(#SVGID_18_)" fill="#FFFFFF" points="949.8,469.3 877.5,546.5 821.6,606 507.6,940.7 496.2,952.8 
					494.9,954.2 494.9,830.1 496.2,828.7 507.6,815.9 695,606 748.1,546.5 816.9,469.3 				"/>
			</g>
		</g>
		<path clip-path="url(#SVGID_14_)" fill="#C7DEFE" d="M1755.7,1288h-195.9c-8.5,0-15.5-6.9-15.5-15.5V978.4
			c0-8.5,6.9-15.5,15.5-15.5h195.9c8.5,0,15.5,6.9,15.5,15.5v294.1C1771.2,1281.1,1764.3,1288,1755.7,1288"/>
		<path clip-path="url(#SVGID_14_)" fill="#FFFFFF" d="M1719,1089.2h-201.7c-5.1,0-9.3-4.2-9.3-9.3V943.3c0-5.1,4.2-9.3,9.3-9.3
			H1719c5.1,0,9.3,4.2,9.3,9.3v136.5C1728.3,1085,1724.1,1089.2,1719,1089.2"/>
		<path clip-path="url(#SVGID_14_)" fill="none" stroke="#617CFF" stroke-width="3" stroke-miterlimit="10" d="M1719,1089.2h-201.7
			c-5.1,0-9.3-4.2-9.3-9.3V943.3c0-5.1,4.2-9.3,9.3-9.3H1719c5.1,0,9.3,4.2,9.3,9.3v136.5C1728.3,1085,1724.1,1089.2,1719,1089.2z"
			/>
		<path clip-path="url(#SVGID_14_)" fill="#C7DEFE" d="M1530,979.6c0-7.9,6.4-14.4,14.4-14.4c7.9,0,14.4,6.4,14.4,14.4
			c0,7.9-6.4,14.4-14.4,14.4C1536.5,994,1530,987.6,1530,979.6"/>
		<path clip-path="url(#SVGID_14_)" fill="#2946FB" d="M1530,1040.8c0-7.9,6.4-14.4,14.4-14.4c7.9,0,14.4,6.4,14.4,14.4
			c0,7.9-6.4,14.4-14.4,14.4C1536.5,1055.2,1530,1048.7,1530,1040.8"/>
		<rect x="1581.6" y="979.6" clip-path="url(#SVGID_14_)" fill="#C7DEFE" width="106.3" height="5.2"/>
		<rect x="1581.6" y="1040.8" clip-path="url(#SVGID_14_)" fill="#C7DEFE" width="106.3" height="5.2"/>
		<rect x="1578.4" y="1135.4" clip-path="url(#SVGID_14_)" fill="#2946FB" width="158.7" height="5.6"/>
		<rect x="1578.4" y="1169.9" clip-path="url(#SVGID_14_)" fill="#2946FB" width="158.7" height="5.6"/>
		<rect x="1578.4" y="1204.4" clip-path="url(#SVGID_14_)" fill="#2946FB" width="158.7" height="5.6"/>
		<path clip-path="url(#SVGID_14_)" fill="#C7DEFE" d="M1372.4,1288h-164.6c-8.5,0-15.5-6.9-15.5-15.5v-249.2
			c0-8.5,6.9-15.5,15.5-15.5h164.6c8.5,0,15.5,6.9,15.5,15.5v249.2C1387.9,1281.1,1381,1288,1372.4,1288"/>
		<path clip-path="url(#SVGID_14_)" fill="#FFFFFF" d="M1341.6,1116.7h-171.3c-5.1,0-9.3-4.2-9.3-9.3V992.3c0-5.1,4.2-9.3,9.3-9.3
			h171.3c5.1,0,9.3,4.2,9.3,9.3v115.1C1350.9,1112.5,1346.8,1116.7,1341.6,1116.7"/>
		<path clip-path="url(#SVGID_14_)" fill="none" stroke="#617CFF" stroke-width="3" stroke-miterlimit="10" d="M1341.6,1116.7
			h-171.3c-5.1,0-9.3-4.2-9.3-9.3V992.3c0-5.1,4.2-9.3,9.3-9.3h171.3c5.1,0,9.3,4.2,9.3,9.3v115.1
			C1350.9,1112.5,1346.8,1116.7,1341.6,1116.7z"/>
		<path clip-path="url(#SVGID_14_)" fill="#C7DEFE" d="M1180.1,1022.3c0-6.8,5.5-12.4,12.4-12.4s12.4,5.5,12.4,12.4
			c0,6.8-5.5,12.4-12.4,12.4S1180.1,1029.1,1180.1,1022.3"/>
		<path clip-path="url(#SVGID_14_)" fill="#2946FB" d="M1180.1,1075c0-6.8,5.5-12.4,12.4-12.4s12.4,5.5,12.4,12.4
			c0,6.8-5.5,12.4-12.4,12.4S1180.1,1081.8,1180.1,1075"/>
		<rect x="1224.5" y="1022.3" clip-path="url(#SVGID_14_)" fill="#C7DEFE" width="91.6" height="4.5"/>
		<rect x="1224.5" y="1075" clip-path="url(#SVGID_14_)" fill="#C7DEFE" width="91.6" height="4.5"/>
		<rect x="1221.8" y="1156.5" clip-path="url(#SVGID_14_)" fill="#2946FB" width="136.7" height="4.8"/>
		<rect x="1221.8" y="1186.2" clip-path="url(#SVGID_14_)" fill="#2946FB" width="136.7" height="4.8"/>
		<rect x="1221.8" y="1215.9" clip-path="url(#SVGID_14_)" fill="#2946FB" width="136.7" height="4.8"/>
		<g opacity="0.62" clip-path="url(#SVGID_14_)">
			<g>
				<defs>
					<rect id="SVGID_19_" x="1319" y="806.2" width="788.8" height="788.8"/>
				</defs>
				<clipPath id="SVGID_20_">
					<use xlink:href="#SVGID_19_"  overflow="visible"/>
				</clipPath>
				<path clip-path="url(#SVGID_20_)" fill="#FFFFFF" d="M1319,1200.6c0-217.8,176.6-394.4,394.4-394.4s394.4,176.6,394.4,394.4
					S1931.2,1595,1713.3,1595S1319,1418.4,1319,1200.6"/>
			</g>
		</g>
		<path clip-path="url(#SVGID_14_)" fill="#F95F35" d="M1391.4,1535.3c5.8,5.5,11.7,11,17.7,16.2
			C1403.1,1546.2,1397.2,1540.8,1391.4,1535.3"/>
		<path clip-path="url(#SVGID_14_)" fill="#DB3737" d="M1435.9,1573.1l-19.7,21l-28.9,30.8l-157.7,168.3l-26.9,28.8l-115.6,123.4
			l-15.9,16.9l-14.8,15.8c-9,9.6-21.1,15.1-34.2,15.5c-3.3,0.1-6.6-0.1-9.8-0.6c-9.4-1.6-18.2-5.9-25.3-12.6
			c-8.3-7.8-13.7-18.3-15.1-29.6c-0.9-7.2-0.2-14.3,1.9-21c1-3.1,2.2-6.1,3.8-8.9c0.1-0.1,0.1-0.3,0.2-0.4c1.9-3.4,4.2-6.6,6.9-9.5
			l158.7-169.5l33.3-35.5l158.5-169.1l28.5-30.4c8.7,10,17.8,19.6,27.5,28.8c5.8,5.5,11.6,11,17.7,16.2
			C1417.8,1559,1426.7,1566.2,1435.9,1573.1"/>
		<path clip-path="url(#SVGID_14_)" fill="#BA1717" d="M1507.9,1568c-0.1,0.9-10.3,16.7-23.3,36.7c-17-9.6-33.2-20.2-48.6-31.6
			l-19.7,21l-28.9,30.8c-18-29.1-38.1-62.5-51.9-88l28.5-30.4c-4.6-5.3-9.1-10.7-13.5-16.2C1416.8,1491.6,1508,1565.8,1507.9,1568"
			/>
		<path clip-path="url(#SVGID_14_)" fill="#DB3737" d="M1929.2,789.4c-50.6-26.6-104.6-43.3-159.7-50c-64.4-7.9-130.4-2-194.3,17.9
			c-112.6,35.1-205.8,109.9-264.3,211.6c-3,5.3-5.9,10.6-8.8,16c-45.8,87.3-61,182.6-49.4,273.8c10.7,84.1,44.3,164.6,97.6,231.7
			c4.3,5.5,8.8,10.9,13.5,16.2c8.7,10,17.8,19.6,27.5,28.8c5.8,5.5,11.6,11,17.7,16.2c8.6,7.5,17.5,14.7,26.8,21.6
			c15.3,11.4,31.5,22,48.6,31.6c4.3,2.5,8.7,4.9,13.2,7.2c25.8,13.5,52.4,24.5,79.6,32.9c88.8,27.5,183.7,27.6,274.4-0.7
			c61-19,116.4-49.7,163.5-90c44.4-37.9,81.5-84.4,109.5-137.6C2243.7,1189.7,2156,908.4,1929.2,789.4 M2034.1,1368.9
			c-24.6,46.9-58.4,87-99.2,118.4c-33.6,26-72,46-113.7,59c-73.7,22.9-151,21.9-222.7-2.3c-18.1-6.1-35.9-13.7-53.2-22.8
			c-85.6-44.9-148.6-120.6-177.4-212.9c-28.5-91.2-20.1-187.9,23.5-272.8c0.5-1.1,1-2.1,1.6-3.1c44.9-85.6,120.5-148.6,212.9-177.4
			c46.8-14.6,95.1-19.5,142.4-14.9c46.1,4.5,91.3,17.8,133.6,40c108.7,57.1,176.4,162,190.8,275.4
			C2081.6,1226.5,2069.7,1300.8,2034.1,1368.9"/>
		<path clip-path="url(#SVGID_14_)" fill="#F9C89A" d="M1844.8,1649.7c-31.6,36-12.5,142.4-12.5,142.4s-132.9-0.7-112.3-21.3
			c4.2-4.2,7.4-10,10-16.7c10.1-26.6,9.1-67.6,9.1-75.8c0-10.3-74.2-51.4-77.8-79.3c-3.7-27.9,13.9-67.5,19.1-69.7
			c5.1-2.2-2.9-19.8-4.4-33.8c-1.5-13.9,49.2-2.2,80.8-25.7c31.6-23.5,75.6-23.7,75.6-23.7s1.2,1,3.3,3
			c11.3,10.3,48.1,45.4,59.8,75.8C1909.4,1560.9,1876.4,1613.7,1844.8,1649.7"/>
		<path clip-path="url(#SVGID_14_)" fill="#F29E5E" d="M1844.8,1649.7c-31.6,36-12.5,142.4-12.5,142.4s-132.9-0.7-112.3-21.3
			c4.2-4.2,7.4-10,10-16.7c0,0,16.5,7.2,55.5,7.2c39,0,30-49.9,33.7-65.3c3.7-15.4-14.7-32.3-8.9-45.5c5.8-13.2,36-52.8-7.3-92.9
			c-43.3-40.1,7.3-100.9,7.3-100.9s7-4.4,25.4-7.5c11.3,10.3,48.1,45.4,59.8,75.8C1909.4,1560.9,1876.4,1613.7,1844.8,1649.7"/>
		<path clip-path="url(#SVGID_14_)" fill="#F8BC3E" d="M1727.5,1759.9c0,0,43.8,26.8,101.1,3.8c0,0,2.1-2.3,3.5-1.2
			c1.3,1.1,38.6,20.5,66.7,26.7c28,6.2,74.5,13.9,86.3,68.3c11.7,54.3,101.3,392.8,154.2,502.9h-86.6c0,0-67.5-168.9-94-236.4
			c0,0-1.5,177.7,8.8,236.4h-447.8c0,0,5.9-143.9,25-233.5c19.1-89.6,11.7-141,11.7-141s-53.6,76.3-91.8,58
			c-38.2-18.4-203.4-185.7-212.9-202.6c0,0,16.2-52.1,53.6-63.1c0,0,159.3,130.7,169.6,126.3c10.3-4.4,97.9-114,114-123.3
			c16.2-9.3,118-18.7,127.3-21.2C1725.4,1757.4,1723.7,1757.9,1727.5,1759.9"/>
		<path clip-path="url(#SVGID_14_)" fill="#F6A338" d="M1556.3,1985.9c0,0,69-82.2,77.8-77.1c8.8,5.1-77.2,130.6-77.2,130.6
			L1556.3,1985.9z"/>
		<path clip-path="url(#SVGID_14_)" fill="#F6A338" d="M1958.6,2124c0,0,6.4-132.1,7.3-145.8c1-13.7,9.8-13.7,11.7,52.9
			c2,66.6,0,141.4,0,141.4L1958.6,2124z"/>
		<path clip-path="url(#SVGID_14_)" fill="#F9C89A" d="M1294.7,1782.6c0,0,0-39.7-10.3-48.7l-6.3,7.7c0,0-14-49.2-26.5-58.5
			c-12.5-9.3-64.2,2.4-75,12.2c-10.8,9.8,24.6,26.4,39.5,51.4c17.1,28.7,0.1,40.1,12.2,63.6c12.1,23.5,33.3,26.9,33.3,26.9
			L1294.7,1782.6z"/>
		<path clip-path="url(#SVGID_14_)" fill="#543030" d="M1809.9,1448.5c0,0,2.6,25.7-6.9,45.5c-9.5,19.8-3.6,55.4,18.4,63.5
			c38.9,14.3,24.7,61.3,10,73c-14.7,11.7-17.4,40.1-0.9,51.9c11.8,8.5,15.1-0.8,56.2-21.3c41.1-20.6,85.9-44.8,80.1-103.6
			c-5.9-58.8-58.7-156.7-106.5-149.4C1812.5,1415.5,1805.9,1426.5,1809.9,1448.5"/>
		<path clip-path="url(#SVGID_14_)" fill="none" stroke="#2946FB" stroke-width="3" stroke-miterlimit="10" d="M434.3,1432.2
			c14.9,65-3.3,129.9-43.6,176.9c-5.9,6.9-12.3,13.4-19.1,19.5c-20.4,18.2-44.7,32.4-72.1,41.2c-5.5,1.8-11.1,3.3-16.9,4.6
			c-4.1,0.9-8.1,1.7-12.2,2.4c-27.4,4.6-54.6,3.4-80.2-2.8c-8.5-2-16.7-4.6-24.8-7.7c-60.8-23.2-109.3-75.4-125-143.5
			c-25-108.8,42.9-217.2,151.6-242.2C300.9,1255.6,409.3,1323.5,434.3,1432.2z"/>
		<path clip-path="url(#SVGID_14_)" fill="#C7DEFE" d="M402.8,1422.5c15.1,65.6-3.3,131.1-44,178.6c-6,7-12.4,13.5-19.3,19.6
			c-20.6,18.3-45.2,32.7-72.8,41.6c-5.6,1.8-11.2,3.4-17,4.7c-4.1,0.9-8.2,1.8-12.3,2.4c-27.7,4.6-55.1,3.4-81-2.8
			c-8.5-2.1-16.9-4.7-25.1-7.8C70,1635.4,21.1,1582.8,5.2,1514c-25.3-109.8,43.3-219.2,153-244.5
			C268.1,1244.2,377.5,1312.8,402.8,1422.5"/>
		<path clip-path="url(#SVGID_14_)" fill="#B0C8EA" d="M339.5,1620.7c-1.4-6.7-3.1-13.4-5.4-20c-2.7-7.8-6-15.3-10.4-22.3
			c-7-11.1-16.4-19.2-29.1-23.2c-1.7-0.5-3.7-0.5-5.2-1.7c4.6-0.4,9.1,0,13.6,0.6c4.9,0.7,9.6,2.3,14.4,3.7c2.5,1.3,5.1,2.5,7.6,3.9
			c9.3,5.2,16.8,12.4,23,20.9c0.3,0.4,0.7,0.8,1.1,1.2c3.5,5.5,6.9,11.2,9.6,17.2C352.8,1608,346.4,1614.6,339.5,1620.7"/>
		<path clip-path="url(#SVGID_14_)" fill="#B0C8EA" d="M166.3,1583.6c0.1,0.8-0.6,1.2-1.1,1.6c-2.5,2.3-4.6,4.9-6.4,7.7
			c-5.7,8.9-8,18.9-8.5,29.3c-0.5,11.1,0.8,22,3.3,32.8c0.9,3.9,1.8,7.8,2.9,11.6c-8.5-2.1-16.9-4.7-25.1-7.8
			c-0.5-8.1-0.3-16.3,0.9-24.4c0-0.2,0-0.4-0.1-0.6c1.3-5.5,2.5-11,4.5-16.3c2.8-7.1,6.7-13.5,11.5-19.5c0.3-0.3,0.6-0.5,0.9-0.8
			C154.1,1591.8,159.7,1587.1,166.3,1583.6"/>
		<path clip-path="url(#SVGID_14_)" fill="#EEF2F9" d="M339.5,1620.7c-20.6,18.3-45.2,32.7-72.8,41.6c-5.8-25.4-11.7-50.8-17.5-76.2
			c-0.5-2.1-1-4.1-1.5-6.2c0.5-0.4,1-0.7,1.5-1.1c7.8-5.9,11.9-13.8,12.3-23.6c4.5-0.8,9-1.7,13.5-2.1c4.9-0.4,9.7,0.4,14.5,0.3
			c1.5,1.2,3.4,1.2,5.2,1.7c12.7,4,22.1,12.1,29.1,23.2c4.4,7,7.7,14.5,10.4,22.3C336.5,1607.3,338.1,1614,339.5,1620.7"/>
		<path clip-path="url(#SVGID_14_)" fill="#EEF2F9" d="M218.5,1587.1c6.3,27.5,12.6,54.9,19,82.4c-27.7,4.6-55.1,3.4-81-2.8
			c-1-3.8-2-7.7-2.9-11.6c-2.4-10.8-3.8-21.7-3.3-32.8c0.5-10.4,2.8-20.4,8.5-29.3c1.8-2.8,3.9-5.4,6.4-7.7c0.5-0.4,1.2-0.8,1.1-1.6
			c2-1.4,3.9-2.8,5.9-4.1c7.7-5.1,16.4-7.7,25.3-9.5c0.5,0.8,0.9,1.7,1.4,2.5c4.6,7.1,11.1,11.5,19.4,13.3
			C218.3,1586.3,218.4,1586.7,218.5,1587.1"/>
		<path clip-path="url(#SVGID_14_)" fill="#FEFEFE" d="M266.8,1662.3c-5.6,1.8-11.2,3.4-17,4.7c-4.1,0.9-8.2,1.8-12.3,2.4
			c-6.3-27.5-12.6-54.9-19-82.4c-0.1-0.4-0.1-0.8-0.2-1.2c10.6,1.8,20.3-0.5,29.4-5.9c0.5,2.1,1,4.1,1.5,6.2
			C255.1,1611.5,260.9,1636.9,266.8,1662.3"/>
		<path clip-path="url(#SVGID_14_)" fill="#2946FB" d="M197.5,1570c-9,1.8-17.6,4.5-25.3,9.5c-2,1.3-3.9,2.7-5.9,4.1
			c-6.5,3.5-12.1,8.1-17.1,13.6c-0.3,0.3-0.6,0.5-0.9,0.8c-3.1-12.5-6.3-24.9-9.3-37.4c-7.1-28.9-14.1-57.8-21.1-86.8
			c-4.2-17.5-6.3-35.3-4.3-53.3c2.1-18.9,8.3-36.1,21.1-50.5c9.4-10.6,21-18,34.4-22.6c16.4-5.6,33.1-7.3,50.1-3.8
			c11.6,2.4,21.6,8,30.6,15.7c19,16.2,30.2,37,37.1,60.4c5,16.9,8.2,34.3,11.9,51.6c6.1,28.4,12.2,56.7,18.2,85.1
			c0.1,0.5,0.2,0.9,0.3,1.4c-4.7-1.4-9.4-3-14.4-3.7c-4.5-0.7-9-1-13.6-0.6c-4.8,0-9.6-0.7-14.5-0.3c-4.6,0.3-9,1.3-13.5,2.1
			c-5-9.7-7.9-19.9-8.2-30.8c0-1.2,0.2-2.1,0.9-3c4.8-6.5,8.4-13.6,11.3-21.1c4.4-11.3,7-23.1,8.2-35.2c0.1-0.6-0.4-1.7,0.8-1.8
			c4.4-0.5,6.3-3.7,7.8-7.2c2.1-4.7,2.6-9.7,2.5-14.8c-0.2-6.7-1.3-13.2-5-19c-1.3-2.1-2.9-3.9-5.6-4.7c0.2,1.7,0.4,3.1,0.6,4.6
			c0.8,6.7,1.1,13.4-0.6,19.9c-1.1,4-2.7,7.9-6.3,10.4l0,0c-0.6-0.7-0.4-1.6-0.4-2.3c-0.6-12.1-2.5-23.9-6.6-35.4
			c-2.6-7.2-6-13.9-11.5-19.4c-3-3-6.4-5.4-10.9-7.1c7.1,16.6,13.6,33,22,48.7c-0.5,0.1-0.8,0.2-1.1,0.3c-11.3,3-22.7,4.8-34.4,5.6
			c-13.9,0.9-27.6,0.4-41-3.5c-15-4.4-27.3-12.5-34.9-26.6c-2.4-4.4-4.1-9.2-5.4-14.1c-0.3,0.6-0.5,1.1-0.6,1.7
			c-2,9.6-3.4,19.2-4.2,29c-0.6,8.2-0.8,16.4,0,24.6c0.9,9.3,2.9,18.3,8.5,26.2c-12.8-5-18.8-15.6-22.8-28c-2.1,2.4-2.6,5.1-2.7,7.8
			c-0.3,8.4,2.5,15.9,6.8,22.9c2.2,3.5,4.8,6.7,8.3,8.9c2.3,1.5,4.8,2.5,7.6,1.2c1.2-0.5,1.6-0.3,2.2,0.7c2.2,3.8,4.6,7.4,7.3,10.9
			c9.5,12.6,20.5,23.5,34.4,31.2c1.6,0.9,2.5,1.9,3.1,3.5C195.2,1549.4,196.7,1559.6,197.5,1570"/>
		<path clip-path="url(#SVGID_14_)" fill="#F9C89A" d="M268,1452.6c3.6-2.5,5.2-6.4,6.3-10.4c1.8-6.6,1.5-13.3,0.6-19.9
			c-0.2-1.5-0.4-2.9-0.6-4.6c2.7,0.8,4.3,2.6,5.6,4.7c3.7,5.8,4.8,12.3,5,19c0.1,5.1-0.5,10.1-2.5,14.8c-1.5,3.5-3.4,6.8-7.8,7.2
			c-1.2,0.1-0.7,1.2-0.8,1.8c-1.2,12.1-3.8,23.9-8.2,35.2c-2.9,7.5-6.6,14.6-11.3,21.1c-0.7,0.9-1,1.9-0.9,3
			c0.3,10.9,3.2,21.2,8.2,30.8c-0.3,9.8-4.5,17.6-12.3,23.6c-0.5,0.4-1,0.7-1.5,1.1c-9.1,5.4-18.9,7.6-29.4,5.9
			c-8.2-1.9-14.8-6.2-19.4-13.3c-0.5-0.8-0.9-1.7-1.4-2.5c-0.8-10.4-2.2-20.7-5.9-30.5c-0.6-1.6-1.6-2.7-3.1-3.5
			c-13.9-7.7-24.9-18.6-34.4-31.2c-2.6-3.5-5.1-7.1-7.3-10.9c-0.6-1-1.1-1.3-2.2-0.7c-2.7,1.2-5.2,0.2-7.6-1.2
			c-3.6-2.2-6.2-5.4-8.3-8.9c-4.3-7-7.1-14.5-6.8-22.9c0.1-2.7,0.6-5.4,2.7-7.8c4,12.4,10,23,22.8,28c-5.6-7.9-7.6-16.9-8.5-26.2
			c-0.8-8.2-0.6-16.4,0-24.6c0.8-9.8,2.2-19.4,4.2-29c0.1-0.6,0.3-1.1,0.6-1.7c1.3,4.9,3,9.6,5.4,14.1c7.6,14.1,19.8,22.2,34.9,26.6
			c13.4,3.9,27.2,4.4,41,3.5c11.6-0.8,23.1-2.6,34.4-5.6c0.3-0.1,0.6-0.2,1.1-0.3c-8.4-15.7-14.9-32.1-22-48.7
			c4.5,1.7,7.9,4,10.9,7.1c5.4,5.5,8.9,12.2,11.5,19.4c4.1,11.4,5.9,23.3,6.6,35.4C267.6,1451.1,267.4,1451.9,268,1452.6
			c-0.1,0.1-0.1,0.1-0.2,0.2c0,0,0.1,0,0.1,0C267.9,1452.7,267.9,1452.7,268,1452.6"/>
		<path clip-path="url(#SVGID_14_)" fill="#0F111E" d="M268,1452.6c0,0.1,0,0.1-0.1,0.2c0,0-0.1,0-0.1,0
			C267.8,1452.7,267.9,1452.7,268,1452.6L268,1452.6"/>
		<path clip-path="url(#SVGID_14_)" fill="#2946FB" d="M2773.3,2400H591.5c-5,0-9-4-9-9v-21.6c0-5,4-9,9-9h2181.8c4.9,0,9,4,9,9
			v21.6C2782.3,2396,2778.3,2400,2773.3,2400"/>
		<rect x="2312.6" y="397.9" clip-path="url(#SVGID_14_)" fill="#397CF2" width="56.2" height="234.7"/>
		<rect x="2121.7" y="507.6" clip-path="url(#SVGID_14_)" fill="#397CF2" width="56.2" height="125"/>
		<rect x="2026.3" y="550" clip-path="url(#SVGID_14_)" fill="#397CF2" width="56.2" height="82.6"/>
		<rect x="2217.2" y="458.2" clip-path="url(#SVGID_14_)" fill="#397CF2" width="56.2" height="174.4"/>
		
			<rect x="2006" y="399.9" transform="matrix(0.8754 -0.4834 0.4834 0.8754 72.4788 1099.7137)" clip-path="url(#SVGID_14_)" fill="#1F2A83" width="327" height="18.8"/>
		<polygon clip-path="url(#SVGID_14_)" fill="#1F2A83" points="2353.1,305.8 2295.1,308.9 2326.8,357.6 		"/>
		<polygon clip-path="url(#SVGID_14_)" fill="#2946FB" points="2368.7,678.4 1986.9,678.4 1986.9,330.2 1994.4,330.2 1994.4,670.9 
			2368.7,670.9 		"/>
		<path clip-path="url(#SVGID_14_)" fill="#397CF2" d="M2225.4,877.1c0-50.6,41-91.7,91.7-91.7c50.6,0,91.7,41,91.7,91.7
			c0,50.6-41,91.7-91.7,91.7C2266.5,968.8,2225.4,927.8,2225.4,877.1"/>
		<path clip-path="url(#SVGID_14_)" fill="#FFFFFF" d="M2202.7,863.4c0-50.6,41-91.7,91.7-91.7c50.6,0,91.7,41,91.7,91.7
			c0,50.6-41,91.7-91.7,91.7C2243.7,955,2202.7,914,2202.7,863.4"/>
		<polyline clip-path="url(#SVGID_14_)" fill="none" stroke="#2946FB" stroke-width="20" stroke-miterlimit="10" points="
			2233.8,836.6 2287.1,893.4 2414.4,758.4 		"/>
		<g opacity="0.79" clip-path="url(#SVGID_14_)">
			<g>
				<defs>
					<rect id="SVGID_21_" x="2474.2" y="2026.2" width="72.5" height="249.4"/>
				</defs>
				<clipPath id="SVGID_22_">
					<use xlink:href="#SVGID_21_"  overflow="visible"/>
				</clipPath>
				<path clip-path="url(#SVGID_22_)" fill="#397CF2" d="M2506.8,2275.6c15.3-37.4,30.8-75.2,37.1-115.1c6.3-39.9,2.8-82.7-18-117.4
					c-2.8-4.7-6.1-9.4-10.5-12.7c-4.4-3.3-10.2-5.2-15.6-3.7c-6.8,1.8-11.2,8.3-14.3,14.6c-16.8,34-12.3,74.5-2.9,111.2
					c9.4,36.7,23.2,72.9,24.2,110.7"/>
				<path clip-path="url(#SVGID_22_)" fill="#EEF2F9" d="M2511.9,2269.4c2,0,3.6-1.5,3.8-3.5c4.2-67.7,1.2-136-8.7-203.1
					c-0.3-2.1-2.3-3.5-4.3-3.2c-2.1,0.3-3.5,2.2-3.2,4.3c9.9,66.6,12.8,134.4,8.7,201.6c-0.1,2.1,1.5,3.9,3.5,4
					C2511.7,2269.4,2511.8,2269.4,2511.9,2269.4"/>
			</g>
		</g>
		<g opacity="0.66" clip-path="url(#SVGID_14_)">
			<g>
				<defs>
					<rect id="SVGID_23_" x="2429.9" y="2104.8" width="90.5" height="181.7"/>
				</defs>
				<clipPath id="SVGID_24_">
					<use xlink:href="#SVGID_23_"  overflow="visible"/>
				</clipPath>
				<path clip-path="url(#SVGID_24_)" fill="#397CF2" d="M2518.2,2276c-9.1-26.1-7-54.4-8-82c-1-27.6-6.2-57.1-25.9-76.5
					c-5.6-5.5-12.3-10-19.8-11.8c-7.6-1.9-16.1-0.8-22.3,3.8c-8.6,6.4-11.4,17.9-12,28.5c-1.6,30,10.4,59.5,27.8,83.9
					c17.4,24.5,40.1,44.7,62.6,64.6"/>
			</g>
		</g>
		<path clip-path="url(#SVGID_14_)" fill="#EEF2F9" d="M2516.7,2283.4c1.1,0.2,2.3,0,3.3-0.8c1.6-1.4,1.8-3.7,0.4-5.3
			c-34.3-40.1-56-91-61.2-143.5c-0.2-2.1-2.1-3.6-4.1-3.4c-2.1,0.2-3.6,2.1-3.4,4.1c5.4,54,27.8,106.5,63,147.7
			C2515.2,2282.8,2515.9,2283.2,2516.7,2283.4"/>
		<g opacity="0.66" clip-path="url(#SVGID_14_)">
			<g>
				<defs>
					<rect id="SVGID_25_" x="2514.2" y="2112.8" width="92.3" height="165.8"/>
				</defs>
				<clipPath id="SVGID_26_">
					<use xlink:href="#SVGID_25_"  overflow="visible"/>
				</clipPath>
				<path clip-path="url(#SVGID_26_)" fill="#397CF2" d="M2514.8,2278.5c14.8-4.5,27.1-14.9,37.8-26.1c20.7-21.7,37-47.6,47.5-75.7
					c3.4-9.1,6.3-18.6,6.3-28.3c0.1-9.7-2.8-19.8-9.7-26.7c-10.2-10.4-27.6-11.5-40.7-4.9c-13,6.6-22,19.5-27,33.2
					c-5,13.7-6.4,28.5-7.8,43c-2.4,25.3-4.8,50.5-7.2,75.8"/>
			</g>
		</g>
		<path clip-path="url(#SVGID_14_)" fill="#EEF2F9" d="M2511.6,2270.7c0.9,0,1.9-0.3,2.6-1c32.3-30.8,54.7-71.9,62.9-115.7
			c0.4-2.1-1-4-3-4.4c-2-0.4-4,1-4.4,3c-8,42.3-29.5,82-60.7,111.7c-1.5,1.4-1.6,3.8-0.1,5.3
			C2509.6,2270.3,2510.6,2270.7,2511.6,2270.7"/>
		<polygon clip-path="url(#SVGID_14_)" fill="#397CF2" points="2483.4,2358.6 2553.1,2358.6 2578.1,2263 2458.3,2263 		"/>
		<rect x="2453.2" y="2253" clip-path="url(#SVGID_14_)" fill="#8FC0FA" width="130" height="31.4"/>
	</g>
</g>
</svg>
