<?xml version="1.0" encoding="utf-8"?>
<!-- Generator: Adobe Illustrator 21.1.0, SVG Export Plug-In . SVG Version: 6.00 Build 0)  -->
<svg version="1.1" id="Слой_1" xmlns="http://www.w3.org/2000/svg" xmlns:xlink="http://www.w3.org/1999/xlink" x="0px" y="0px"
	 viewBox="0 0 2932 2705.7" style="enable-background:new 0 0 2932 2705.7;" xml:space="preserve">
<style type="text/css">
	.st0{clip-path:url(#SVGID_2_);}
	.st1{clip-path:url(#SVGID_4_);fill:#F3F6FC;}
	.st2{clip-path:url(#SVGID_6_);fill:#E3E9F6;}
	.st3{clip-path:url(#SVGID_8_);fill:#E3E9F6;}
	.st4{clip-path:url(#SVGID_8_);fill:#D8E2F3;}
	.st5{clip-path:url(#SVGID_8_);fill:#FFFFFF;}
	.st6{opacity:0.58;clip-path:url(#SVGID_8_);}
	.st7{clip-path:url(#SVGID_10_);fill:#E3E9F6;}
	.st8{opacity:0.67;clip-path:url(#SVGID_8_);}
	.st9{clip-path:url(#SVGID_12_);fill:#3694FC;}
	.st10{clip-path:url(#SVGID_12_);fill:#2D2E75;}
	.st11{clip-path:url(#SVGID_14_);fill:#F65B4D;}
	.st12{clip-path:url(#SVGID_14_);fill:#AE3229;}
	.st13{clip-path:url(#SVGID_16_);fill:#ABCBFD;}
	.st14{clip-path:url(#SVGID_16_);fill:#3694FC;}
	.st15{clip-path:url(#SVGID_16_);fill:#010D46;}
	.st16{clip-path:url(#SVGID_18_);fill:#1F2A83;}
	.st17{clip-path:url(#SVGID_20_);fill:#A1C6E5;}
	.st18{clip-path:url(#SVGID_22_);fill:#A1C6E5;}
	.st19{clip-path:url(#SVGID_24_);fill:#1F2A83;}
	.st20{clip-path:url(#SVGID_26_);fill:#A1C6E5;}
	.st21{clip-path:url(#SVGID_28_);fill:#A1C6E5;}
	.st22{clip-path:url(#SVGID_30_);fill:#ABCBFD;}
	.st23{clip-path:url(#SVGID_30_);fill:#3694FC;}
	.st24{clip-path:url(#SVGID_30_);fill:#1F2A83;}
	.st25{clip-path:url(#SVGID_30_);fill:#010D46;}
	.st26{clip-path:url(#SVGID_8_);fill:#85B4FD;}
	.st27{clip-path:url(#SVGID_8_);fill:#B2937D;}
	.st28{clip-path:url(#SVGID_8_);fill:#A08570;}
	.st29{clip-path:url(#SVGID_8_);fill:#8C6E5A;}
	.st30{clip-path:url(#SVGID_8_);fill:#B99D89;}
	.st31{opacity:0.71;clip-path:url(#SVGID_8_);}
	.st32{clip-path:url(#SVGID_32_);fill:#0D5DBC;}
	.st33{clip-path:url(#SVGID_8_);fill:#D43D31;}
	.st34{clip-path:url(#SVGID_8_);}
	.st35{clip-path:url(#SVGID_8_);fill:#424242;}
	.st36{opacity:0.53;clip-path:url(#SVGID_8_);}
	.st37{clip-path:url(#SVGID_34_);fill:#262626;}
	.st38{clip-path:url(#SVGID_8_);fill:#262626;}
	.st39{clip-path:url(#SVGID_8_);fill:#141615;}
	.st40{clip-path:url(#SVGID_8_);fill:#F6A538;}
	.st41{clip-path:url(#SVGID_8_);fill:#91645E;}
	.st42{clip-path:url(#SVGID_8_);fill:#815954;}
	.st43{clip-path:url(#SVGID_8_);fill:#2E150C;}
	.st44{clip-path:url(#SVGID_8_);fill:#190703;}
	.st45{clip-path:url(#SVGID_8_);fill:#F8BC40;}
	.st46{clip-path:url(#SVGID_8_);fill:#010D46;}
	.st47{clip-path:url(#SVGID_8_);fill:#3694FC;}
	.st48{clip-path:url(#SVGID_8_);fill:#2F80DB;}
	.st49{clip-path:url(#SVGID_8_);fill:#CE947A;}
	.st50{clip-path:url(#SVGID_8_);fill:#E2B370;}
	.st51{clip-path:url(#SVGID_8_);fill:#102166;}
	.st52{clip-path:url(#SVGID_8_);fill:#010E4A;}
	.st53{clip-path:url(#SVGID_8_);fill:#C18B71;}
	.st54{clip-path:url(#SVGID_8_);fill:#C3DFFE;}
	.st55{clip-path:url(#SVGID_8_);fill:#9BC1E9;}
	.st56{clip-path:url(#SVGID_8_);fill:#E32B2C;}
	.st57{clip-path:url(#SVGID_8_);fill:#CA1017;}
	.st58{clip-path:url(#SVGID_8_);fill:#6D0500;}
	.st59{clip-path:url(#SVGID_8_);fill:#F5D9A1;}
	.st60{clip-path:url(#SVGID_8_);fill:#63473A;}
	.st61{clip-path:url(#SVGID_8_);fill:#878787;}
	.st62{clip-path:url(#SVGID_8_);fill:#727272;}
	.st63{clip-path:url(#SVGID_8_);fill:#010A35;}
	.st64{clip-path:url(#SVGID_8_);fill:#011158;}
	.st65{clip-path:url(#SVGID_8_);fill:#DBA78B;}
	.st66{clip-path:url(#SVGID_8_);fill:#B78B73;}
	.st67{clip-path:url(#SVGID_8_);fill:#72351F;}
	.st68{clip-path:url(#SVGID_8_);fill:#54190C;}
	.st69{clip-path:url(#SVGID_8_);fill:#F5F9FF;}
	.st70{clip-path:url(#SVGID_8_);fill:#0B2470;}
	.st71{clip-path:url(#SVGID_8_);fill:none;stroke:#6A1100;stroke-miterlimit:10;}
	.st72{clip-path:url(#SVGID_8_);fill:#9C9C9C;}
	.st73{clip-path:url(#SVGID_8_);fill:#AE3229;}
	.st74{clip-path:url(#SVGID_8_);fill:#F65B4D;}
	.st75{clip-path:url(#SVGID_8_);fill:#F5CE7F;}
</style>
<g>
	<defs>
		<rect id="SVGID_1_" width="2932" height="2705.7"/>
	</defs>
	<clipPath id="SVGID_2_">
		<use xlink:href="#SVGID_1_"  style="overflow:visible;"/>
	</clipPath>
	<g class="st0">
		<defs>
			<rect id="SVGID_3_" y="0" width="2932" height="2705.7"/>
		</defs>
		<clipPath id="SVGID_4_">
			<use xlink:href="#SVGID_3_"  style="overflow:visible;"/>
		</clipPath>
		<path class="st1" d="M2224.7,2445.1c0,0,537.5-297.8,592.9-899.3c55.4-601.5-426-1261.8-1031-1239.6
			c-605,22.3-823.3,508.2-1246.2,623.9C117.5,1045.8-204.9,1513,156.1,1987.6C517.2,2462.1,1547.1,2802.9,2224.7,2445.1"/>
		<path class="st1" d="M2224.7,2445.1c0,0,537.5-297.8,592.9-899.3c55.4-601.5-426-1261.8-1031-1239.6
			c-605,22.3-823.3,508.2-1246.2,623.9C117.5,1045.8-204.9,1513,156.1,1987.6C517.2,2462.1,1547.1,2802.9,2224.7,2445.1"/>
	</g>
	<g class="st0">
		<defs>
			<path id="SVGID_5_" d="M1786.6,306.3c-605,22.3-823.3,508.2-1246.2,623.9C117.5,1045.8-204.9,1513,156.1,1987.6
				c361,474.6,1391,815.3,2068.5,457.5c0,0,537.5-297.8,592.9-899.3c54.5-591.6-410.4-1240.1-1001.3-1240.1
				C1806.4,305.7,1796.5,305.9,1786.6,306.3"/>
		</defs>
		<clipPath id="SVGID_6_">
			<use xlink:href="#SVGID_5_"  style="overflow:visible;"/>
		</clipPath>
		<path class="st2" d="M2144.8,1.1c3.7-2.4,7.4-0.1,11.1,0c-0.1,41.8-0.4,83.5-0.4,125.3c0,32.3,0.5,64.5,0.5,96.8
			c0.1,122.5,0.1,245-0.1,367.5c0,8.6,1.6,12.3,11.1,13.9c21.2,3.7,30.1,15.6,30.6,37.1c0.1,2.8,0.1,5.6,0.2,8.4
			c0.2,16.1,0,16.6,14.7,20.2c32.5,8.2,61.5,23.7,89.2,41.9c32.8,21.7,59.7,49,79.2,83.3c10.9,19.2,18.9,39.6,23.5,61.2
			c1,4.6,0.8,9.5,5.8,13.1c3.4,2.5,1.4,6.2-2.9,6.9c-3.3,0.5-6.7,0.2-10,0.2c-63.5,0-127,0-190.5,0c-62.8,0-125.5,0-188.3,0
			c-39.7,0-79.3,0-119-0.1c-3.4,0-7.7,1.7-9.8-2.5c-2.2-4.3,2.1-5.3,4.3-7.5c1.3-1.4,1.4-4.2,1.8-6.3
			c11.8-57.5,42.9-102.5,88.9-137.8c33.7-25.9,71.1-44.3,112.1-55.4c4.8-1.3,7-3.2,6.6-8.4c-0.5-5.5-0.1-11.1-0.1-16.7
			c0-22.1,8.8-33.7,30.8-37.7c9-1.6,11.2-4.8,11.1-13.7c-0.3-117-0.4-234-0.1-351c0.1-34.3,0.6-68.7,0.4-102.9
			C2145,91.7,2145.4,46.4,2144.8,1.1"/>
		<path class="st2" d="M1732.6,34.6c2-1.3,4-0.1,6.1,0c-0.1,22.7-0.2,45.4-0.2,68.1c0,17.5,0.2,35.1,0.3,52.6
			c0,66.6,0.1,133.2-0.1,199.8c0,4.6,0.9,6.7,6,7.6c11.5,2,16.4,8.5,16.6,20.2c0,1.5,0.1,3,0.1,4.5c0.1,8.7,0,9,8,11
			c17.7,4.4,33.4,12.9,48.5,22.8c17.8,11.8,32.4,26.7,43.1,45.3c5.9,10.4,10.3,21.5,12.8,33.3c0.5,2.5,0.4,5.2,3.2,7.1
			c1.9,1.3,0.8,3.4-1.6,3.7c-1.8,0.3-3.6,0.1-5.4,0.1c-34.5,0-69.1,0-103.6,0c-34.1,0-68.2,0-102.3,0c-21.6,0-43.1,0-64.7,0
			c-1.8,0-4.2,0.9-5.4-1.3c-1.2-2.3,1.2-2.9,2.3-4.1c0.7-0.8,0.7-2.3,1-3.4c6.4-31.2,23.3-55.7,48.3-74.9
			c18.3-14.1,38.7-24.1,61-30.1c2.6-0.7,3.8-1.7,3.6-4.6c-0.3-3-0.1-6.1-0.1-9.1c0-12,4.8-18.3,16.7-20.5c4.9-0.9,6.1-2.6,6.1-7.4
			c-0.2-63.6-0.2-127.2-0.1-190.8c0-18.7,0.3-37.3,0.2-56C1732.7,83.9,1732.9,59.3,1732.6,34.6"/>
	</g>
	<g class="st0">
		<defs>
			<rect id="SVGID_7_" y="0" width="2932" height="2705.7"/>
		</defs>
		<clipPath id="SVGID_8_">
			<use xlink:href="#SVGID_7_"  style="overflow:visible;"/>
		</clipPath>
		<rect x="397.6" y="1711.1" class="st3" width="1187.2" height="597.7"/>
		<rect x="485.7" y="1780.3" class="st4" width="995.2" height="472.4"/>
		<rect x="397.6" y="806.9" class="st3" width="1221.6" height="672.1"/>
		<rect x="421.7" y="832.1" class="st5" width="1171" height="626.4"/>
		<g class="st6">
			<g>
				<defs>
					<rect id="SVGID_9_" x="421.7" y="832.1" width="1171" height="626.4"/>
				</defs>
				<clipPath id="SVGID_10_">
					<use xlink:href="#SVGID_9_"  style="overflow:visible;"/>
				</clipPath>
				<polygon class="st7" points="421.7,1458.4 1592.7,832.1 1592.7,1458.4 				"/>
			</g>
		</g>
		<g class="st8">
			<g>
				<defs>
					<rect id="SVGID_11_" x="493.2" y="1096.9" width="434.2" height="293.6"/>
				</defs>
				<clipPath id="SVGID_12_">
					<use xlink:href="#SVGID_11_"  style="overflow:visible;"/>
				</clipPath>
				<rect x="558.9" y="1277.8" class="st9" width="56.8" height="76.2"/>
				<rect x="631.5" y="1198.3" class="st9" width="56.8" height="155.6"/>
				<rect x="704.2" y="1133.4" class="st9" width="56.8" height="220.6"/>
				<rect x="776.9" y="1232" class="st9" width="56.8" height="122"/>
				<polygon class="st10" points="901.1,1379 507.4,1379 507.4,1119.1 512.4,1119.1 512.4,1374 901.1,1374 				"/>
				<polygon class="st10" points="510.3,1096.9 518.9,1111.6 527.4,1126.4 510.3,1126.4 493.2,1126.4 501.8,1111.6 				"/>
				<polygon class="st10" points="927.5,1373.4 912.7,1381.9 897.9,1390.4 897.9,1373.4 897.9,1356.3 912.7,1364.8 				"/>
			</g>
		</g>
		<g class="st8">
			<g>
				<defs>
					<rect id="SVGID_13_" x="556.8" y="981.8" width="371.7" height="133"/>
				</defs>
				<clipPath id="SVGID_14_">
					<use xlink:href="#SVGID_13_"  style="overflow:visible;"/>
				</clipPath>
				<polygon class="st11" points="899.4,990.2 918.1,1010.3 928.5,981.8 				"/>
				<polygon class="st11" points="684.9,1112.4 603.4,1090.5 558.6,1114.8 556.8,1111.4 603.8,1085.9 684.3,1107.1 739.2,1041.3 
					844.8,1064.5 916.6,991.1 919.4,993.8 845.4,1069.4 740,1046.4 				"/>
				<path class="st12" d="M614,1087.5c0,5.2-4.2,9.4-9.4,9.4c-5.2,0-9.4-4.2-9.4-9.4c0-5.2,4.2-9.4,9.4-9.4
					C609.8,1078.1,614,1082.3,614,1087.5"/>
				<path class="st12" d="M748.7,1045.3c0,5.2-4.2,9.4-9.4,9.4c-5.2,0-9.4-4.2-9.4-9.4c0-5.2,4.2-9.4,9.4-9.4
					C744.5,1035.9,748.7,1040.1,748.7,1045.3"/>
				<path class="st12" d="M854.2,1065.1c0,5.2-4.2,9.4-9.4,9.4c-5.2,0-9.4-4.2-9.4-9.4c0-5.2,4.2-9.4,9.4-9.4
					C850,1055.7,854.2,1059.9,854.2,1065.1"/>
			</g>
		</g>
		<g class="st8">
			<g>
				<defs>
					<rect id="SVGID_15_" x="1071.8" y="999.6" width="124.4" height="126.8"/>
				</defs>
				<clipPath id="SVGID_16_">
					<use xlink:href="#SVGID_15_"  style="overflow:visible;"/>
				</clipPath>
				<path class="st13" d="M1137.1,1062.9l43,43c10-11,16.1-25.7,16.1-41.7c0-33.3-26.2-60.5-59.1-62.1V1062.9z"/>
				<path class="st14" d="M1131.7,1066.5l-43.9-43.9c-10,11-16.1,25.7-16.1,41.7c0,34.4,27.8,62.2,62.2,62.2
					c16,0,30.7-6.1,41.7-16.1L1131.7,1066.5z"/>
				<path class="st15" d="M1129.6,999.6c-14.8,0.7-28.3,6.7-38.6,16l38.6,38.6V999.6z"/>
			</g>
		</g>
		<g class="st8">
			<g>
				<defs>
					<rect id="SVGID_17_" x="1269.6" y="926.9" width="51" height="6.4"/>
				</defs>
				<clipPath id="SVGID_18_">
					<use xlink:href="#SVGID_17_"  style="overflow:visible;"/>
				</clipPath>
				<path class="st16" d="M1319.3,933.3h-48.4c-0.7,0-1.3-0.6-1.3-1.3v-3.9c0-0.7,0.6-1.3,1.3-1.3h48.4c0.7,0,1.3,0.6,1.3,1.3v3.9
					C1320.6,932.7,1320,933.3,1319.3,933.3"/>
			</g>
		</g>
		<g class="st8">
			<g>
				<defs>
					<rect id="SVGID_19_" x="1269.6" y="945.6" width="118.1" height="6.4"/>
				</defs>
				<clipPath id="SVGID_20_">
					<use xlink:href="#SVGID_19_"  style="overflow:visible;"/>
				</clipPath>
				<path class="st17" d="M1386.4,952h-115.6c-0.7,0-1.3-0.6-1.3-1.3v-3.9c0-0.7,0.6-1.3,1.3-1.3h115.6c0.7,0,1.3,0.6,1.3,1.3v3.9
					C1387.7,951.4,1387.1,952,1386.4,952"/>
			</g>
		</g>
		<g class="st8">
			<g>
				<defs>
					<rect id="SVGID_21_" x="1269.6" y="957.4" width="118.1" height="6.4"/>
				</defs>
				<clipPath id="SVGID_22_">
					<use xlink:href="#SVGID_21_"  style="overflow:visible;"/>
				</clipPath>
				<path class="st18" d="M1386.4,963.9h-115.6c-0.7,0-1.3-0.6-1.3-1.3v-3.9c0-0.7,0.6-1.3,1.3-1.3h115.6c0.7,0,1.3,0.6,1.3,1.3v3.9
					C1387.7,963.3,1387.1,963.9,1386.4,963.9"/>
			</g>
		</g>
		<g class="st8">
			<g>
				<defs>
					<rect id="SVGID_23_" x="1336.9" y="1386.1" width="90.4" height="6.4"/>
				</defs>
				<clipPath id="SVGID_24_">
					<use xlink:href="#SVGID_23_"  style="overflow:visible;"/>
				</clipPath>
				<path class="st19" d="M1426,1392.5h-87.8c-0.7,0-1.3-0.6-1.3-1.3v-3.9c0-0.7,0.6-1.3,1.3-1.3h87.8c0.7,0,1.3,0.6,1.3,1.3v3.9
					C1427.3,1391.9,1426.7,1392.5,1426,1392.5"/>
			</g>
		</g>
		<g class="st8">
			<g>
				<defs>
					<rect id="SVGID_25_" x="1336.9" y="1404.8" width="209.4" height="6.4"/>
				</defs>
				<clipPath id="SVGID_26_">
					<use xlink:href="#SVGID_25_"  style="overflow:visible;"/>
				</clipPath>
				<path class="st20" d="M1545,1411.2h-206.8c-0.7,0-1.3-0.6-1.3-1.3v-3.9c0-0.7,0.6-1.3,1.3-1.3H1545c0.7,0,1.3,0.6,1.3,1.3v3.9
					C1546.3,1410.6,1545.7,1411.2,1545,1411.2"/>
			</g>
		</g>
		<g class="st8">
			<g>
				<defs>
					<rect id="SVGID_27_" x="1336.9" y="1416.6" width="209.4" height="6.4"/>
				</defs>
				<clipPath id="SVGID_28_">
					<use xlink:href="#SVGID_27_"  style="overflow:visible;"/>
				</clipPath>
				<path class="st21" d="M1545,1423h-206.8c-0.7,0-1.3-0.6-1.3-1.3v-3.9c0-0.7,0.6-1.3,1.3-1.3H1545c0.7,0,1.3,0.6,1.3,1.3v3.9
					C1546.3,1422.5,1545.7,1423,1545,1423"/>
			</g>
		</g>
		<g class="st8">
			<g>
				<defs>
					<rect id="SVGID_29_" x="1041.5" y="875.2" width="185.9" height="92.7"/>
				</defs>
				<clipPath id="SVGID_30_">
					<use xlink:href="#SVGID_29_"  style="overflow:visible;"/>
				</clipPath>
				
					<rect x="1045.5" y="877.1" transform="matrix(0.9999 -1.093673e-02 1.093673e-02 0.9999 -9.9766 11.5773)" class="st22" width="16.1" height="81.8"/>
				
					<rect x="1045.7" y="909.2" transform="matrix(0.9999 -1.093747e-02 1.093747e-02 0.9999 -10.1533 11.5809)" class="st23" width="16.1" height="49.6"/>
				
					<rect x="1085.7" y="876.6" transform="matrix(0.9999 -1.093673e-02 1.093673e-02 0.9999 -9.9694 12.0169)" class="st22" width="16.1" height="81.8"/>
				
					<rect x="1085.8" y="900.2" transform="matrix(0.9999 -1.093058e-02 1.093058e-02 0.9999 -10.0925 12.0123)" class="st23" width="16.1" height="58.3"/>
				
					<rect x="1125.9" y="876.2" transform="matrix(0.9999 -1.093673e-02 1.093673e-02 0.9999 -9.9622 12.4566)" class="st22" width="16.1" height="81.8"/>
				
					<rect x="1126.1" y="919.1" transform="matrix(0.9999 -1.093703e-02 1.093703e-02 0.9999 -10.1969 12.4608)" class="st23" width="16.1" height="38.9"/>
				
					<rect x="1166.1" y="875.7" transform="matrix(0.9999 -1.093673e-02 1.093673e-02 0.9999 -9.955 12.8963)" class="st22" width="16.1" height="81.8"/>
				
					<rect x="1166.2" y="896" transform="matrix(0.9999 -1.093884e-02 1.093884e-02 0.9999 -10.0674 12.9006)" class="st23" width="16.1" height="61.6"/>
				
					<rect x="1206.3" y="875.3" transform="matrix(0.9999 -1.093673e-02 1.093673e-02 0.9999 -9.9478 13.336)" class="st22" width="16.1" height="81.8"/>
				
					<rect x="1206.5" y="902.9" transform="matrix(0.9999 -1.093755e-02 1.093755e-02 0.9999 -10.0995 13.3394)" class="st23" width="16.1" height="54.2"/>
				<polyline class="st24" points="1215,965 1214.9,959.4 1213.9,959.4 1214,965 				"/>
				<polyline class="st24" points="1175,965.5 1174.9,959.9 1174,959.9 1174,965.5 				"/>
				<polyline class="st24" points="1135,965.9 1134.9,960.3 1134,960.3 1134,965.9 				"/>
				<polyline class="st24" points="1095,966.3 1095,960.7 1094,960.7 1094.1,966.3 				"/>
				<polyline class="st24" points="1055,966.8 1055,961.2 1054,961.2 1054.1,966.8 				"/>
				
					<rect x="1041.5" y="965" transform="matrix(0.9999 -1.098624e-02 1.098624e-02 0.9999 -10.5432 12.5221)" class="st25" width="185.9" height="1.9"/>
			</g>
		</g>
		<path class="st26" d="M2210.5,2499.6c0,25.1-172.8,45.5-385.9,45.5s-385.9-20.4-385.9-45.5c0-25.1,172.8-45.5,385.9-45.5
			S2210.5,2474.5,2210.5,2499.6"/>
		<path class="st27" d="M1586,1617.9l-2.4,121.6l-7.5,373.4l-116.5,2.5l-13-134.8c-7.9-82.5-6.5-165.6,4.7-247.7
			c2.8-20.2,5.7-37.4,8.5-48.1c9.3-35.3,23.5-69.8,43.8-74.3c8-1.8,15.8-2.6,23.2-2.9C1559.9,1606.7,1586,1617.9,1586,1617.9"/>
		<rect x="1525.5" y="2158.2" class="st28" width="30.5" height="364.3"/>
		<path class="st29" d="M1586,1617.9l-2.4,121.6c-38.8,63,234.1,418.6-20,404.2c-59.6-3.4-82.9-77.4-82.8-267.8
			c0.1-148.9,45.9-268.2,45.9-268.2C1559.9,1606.7,1586,1617.9,1586,1617.9"/>
		<polygon class="st29" points="1569.2,2158.2 1569.2,2517.4 1556,2522.5 1556,2158.2 		"/>
		<rect x="1755.3" y="2158.2" class="st28" width="30.5" height="364.3"/>
		<polygon class="st29" points="1799,2158.2 1799,2517.4 1785.8,2522.5 1785.8,2158.2 		"/>
		<rect x="1609.5" y="2158.2" class="st28" width="25.9" height="309.3"/>
		<polygon class="st29" points="1646.6,2158.2 1646.6,2463.2 1635.4,2467.5 1635.4,2158.2 		"/>
		<path class="st30" d="M1848,2174.6h-385.6c-6.8,0-12.4-5.6-12.4-12.4v-36.8c0-6.8,5.6-12.4,12.4-12.4H1848
			c6.8,0,12.4,5.6,12.4,12.4v36.8C1860.4,2169,1854.8,2174.6,1848,2174.6"/>
		<g class="st31">
			<g>
				<defs>
					<rect id="SVGID_31_" x="1818" y="1668.4" width="116.9" height="223.8"/>
				</defs>
				<clipPath id="SVGID_32_">
					<use xlink:href="#SVGID_31_"  style="overflow:visible;"/>
				</clipPath>
				<path class="st32" d="M1934.9,1668.4l-93.1,223.8H1818l90-215.1c2.2-5.3,7.4-8.8,13.1-8.8H1934.9z"/>
			</g>
		</g>
		<path class="st33" d="M1417.4,1223.9c-33.7-17.2-54.5-56-62.6-88.6c-7.9-31.4-3-53.1-3-53.7l2.1-6.2c0,0,9.3-14.2,45.3,42.7
			C1435.3,1175.1,1435.9,1232.6,1417.4,1223.9"/>
		<path class="st34" d="M1897.7,2426.7c0,0-16.1,66.2-17.8,74.8l155.2,30.8c0,0,21.3-21.9-18.1-37.6c-40.5-16.1-64.8-32.1-76.2-61.1
			C1929.5,2404.5,1897.7,2426.7,1897.7,2426.7"/>
		<path class="st34" d="M2056.6,2391.9c0,0-16.1,66.2-17.8,74.8l155.2,30.8c0,0,21.3-21.9-18.1-37.6c-40.5-16.1-64.8-32.1-76.2-61.1
			C2088.4,2369.8,2056.6,2391.9,2056.6,2391.9"/>
		<path class="st35" d="M2105,2399.4c-11.9,6.4-11.9,6.4-27.5,9.9c-0.3,0.1-0.6,0.1-0.8,0.2c-15.4,3.2-32.3,1.9-32.3,1.9
			s-35.2-101-43.2-120.9c-8.1-20.2-46.5-101.4-47.2-103.3c0,0,0,0,0,0c-3.4,42.6-10,253.5-10,253.5s-15.4,5.1-35.4,5.9
			c-17.5,0.6-17.4,1.9-17.4,1.9s-30.8-97.9-42-152.6c-11.3-55-31.2-195-31.2-195s-83.2,27-192.8,21c-109.6-6-103-92.6-103-92.6
			c-20-33.5,90-47.4,173.3-66.8c1.6-0.4,3.2-0.9,4.8-1.1c13.8-2.1,32.5-2.3,51.8-1.6c42.7,1.6,87.9,7.7,87.9,7.7
			s129.8,10.4,153,14.6c23.2,4.1,52.8,88.9,68,182.6C2076.3,2258.3,2105,2399.4,2105,2399.4"/>
		<g class="st36">
			<g>
				<defs>
					<rect id="SVGID_33_" x="1752.2" y="1959.7" width="352.8" height="452"/>
				</defs>
				<clipPath id="SVGID_34_">
					<use xlink:href="#SVGID_33_"  style="overflow:visible;"/>
				</clipPath>
				<path class="st37" d="M2105,2399.4c-11.9,6.4-11.9,6.4-27.5,9.9c-0.3,0.1-0.6,0.1-0.8,0.2c-15.4,3.2-32.3,1.9-32.3,1.9
					s-35.2-101-43.2-120.9c-8.1-20.2-46.5-101.4-47.2-103.3c0,0,0,0,0,0s-14.4-162.8-26.4-178.6s-174.1-31.7-174.1-31.7
					c-1-2.8-1.4-9.2-1.2-17.2c42.7,1.6,87.9,7.7,87.9,7.7s129.8,10.4,153,14.6c23.2,4.1,52.8,88.9,68,182.6
					C2076.3,2258.3,2105,2399.4,2105,2399.4"/>
			</g>
		</g>
		<path class="st38" d="M1908.6,2446.5l-17.4,1.9c0,0-30.8-97.9-42-152.6c-11.3-55-29.4-182.8-29.4-182.8s-84.9,14.8-194.5,8.8
			c-109.6-6-109.1-89.6-109.1-89.6c-20-33.5,96.1-50.5,179.4-69.8c94.1-13.6,57.9,14.5,57.9,14.5s-143,52.3-145.9,77.4
			c-4.8,43,65,46.9,164,29.3c102.8-18.4,73.3,15.2,88.8,93.7C1867.4,2213.1,1900.5,2408.5,1908.6,2446.5"/>
		<path class="st39" d="M2077.5,2409.3c-0.3,0.1-0.6,0.1-0.8,0.2c-15.4,3.2-32.3,1.9-32.3,1.9s-35.2-101-43.2-120.9
			c-8.1-20.2-46.5-101.4-47.2-103.3c0,0,0,0,0,0s-14.4-162.8-26.4-178.6c-12-15.8-174.1-31.7-174.1-31.7
			c-4.5-12.2,33.9-5.2,33.9-5.2l99.6,12.9l36.6,9.6c36.6,9.6,46.9,94.3,61.9,171.9C2000.5,2243.6,2077.5,2409.3,2077.5,2409.3"/>
		<path class="st40" d="M1530.7,1872.7c0,0-31.9,168.4-13.6,168.4c0,0,8-9.8,13.8-12.4c43.2-19.3,95.8-6.4,177.9-41.4
			c70.7-30.1,108.9-22.6,108.9-22.6s-16-102.8-13.8-141.4C1805.9,1784.6,1530.7,1872.7,1530.7,1872.7"/>
		<path class="st41" d="M1826.7,1451.4c0,3.4-5.2,31-12.9,59.4c-7.7,28.4-23,64.7-67.5,66.9c0,0-0.8,11.5-1.1,22.1
			c-0.2,8.5-0.1,16.5,1.1,17.5c2.6,2.2-26.2,9.9-50.3,0c-24.1-9.9-36.4-25.6-36.4-25.6s28-29.1,27.5-54.9
			c-0.6-25.8-32.5-45.4-14.6-73.5c17.9-28,113.2-63.5,128.4-34c0,0,10.3,7.4,17.8,13.8C1823.2,1446.8,1826.7,1450.2,1826.7,1451.4"
			/>
		<path class="st42" d="M1818.8,1443.1c-4.5,7.4-8.7,12.6-8.7,12.6s-51.3-22.7-60.3-4.4c-9,18.3-2.6,36.3-30.3,53.1
			c-27.6,16.8-31.8,76.2-14.6,85.6c17,9.3,39.8,9.8,40.4,9.7c-0.2,8.5-0.1,16.5,1.1,17.5c2.6,2.2-26.2,9.9-50.3,0
			c-24.1-9.9-36.4-25.6-36.4-25.6s28-29.1,27.5-54.9c-0.6-25.8-32.5-45.4-14.6-73.5c17.9-28,113.2-63.5,128.4-34
			C1800.9,1429.4,1811.2,1436.8,1818.8,1443.1"/>
		<path class="st43" d="M1843.9,1462.6c-29.8-2.9-52.7-13.2-65.1-20.1c-2.1-1.1-3.8-2.2-5.3-3.1c-5.9-3.6-13-5.1-19.8-3.8
			c-25.4,5.1-19.7,43.9-22.3,49.7c-3,6.7-4.9,1.9-4.9,1.9c-0.8-29.5-38.9-43-45.2-19.4c-6.4,23.5,8.6,34.8,8.6,34.8
			c1.1,20.9-4.1,25.6-4.1,25.6c-14.2,8.1-38.9-5.8-38.9-5.8s-1.1-16.8,4.9-59.8c0.9-6.8,2.4-13.7,4.6-20.5
			c11.3-36.4,40.1-70.6,94.8-74.1c65-4.1,85.2,44.8,83.3,63.5C1832.7,1450.3,1843.9,1462.6,1843.9,1462.6"/>
		<path class="st44" d="M1778.8,1442.6L1778.8,1442.6c-2.1-1.1-3.8-2.2-5.3-3.1c-5.9-3.6-13-5.1-19.8-3.8
			c-25.4,5.1-19.7,43.9-22.3,49.7c-3,6.7-4.9,1.9-4.9,1.9c-0.8-29.5-38.9-43-45.2-19.4c-6.4,23.5,8.6,34.8,8.6,34.8
			c1.1,20.9-4.1,25.6-4.1,25.6c-14.2,8.1-38.9-5.8-38.9-5.8s-1.1-16.8,4.9-59.8c0.9-6.8,2.4-13.7,4.6-20.5
			c22.6,3.2,59.1,5.9,77.7-6.4C1762.1,1417,1778.8,1442.6,1778.8,1442.6"/>
		<path class="st44" d="M1647,1522.4c0,0-79.8,11.6-58.5,67.6c0,0,32.8-9,35.7-30.8C1627.2,1537.4,1647,1522.4,1647,1522.4"/>
		<path class="st45" d="M1863.7,1879.3h-120.5c-29.1,0-120.5-4.4-120.5-4.4c-21.3,16.8-92.3,28-92.3,28c-48.2,8.2-57.2-8.6-57.2-8.6
			c-23.2-66.5,57.5-246.3,81.8-272c24.3-25.7,58.3-23.6,81.1-28.9c10.2-2.3,16-5.3,19.4-8.2c4.3-3.6,5-7.2,6.2-9.6
			c3-6,8.5,3.2,8.5,3.2c24,24.6,47.4,31,59.3,29.9c12-1.1,15.7-8.9,15.7-8.9c6-4.8,8.2,1.5,8.2,1.5c0.8,5.7,3,9.3,6.9,12.3
			c6.7,5.2,18.5,8.3,36.8,16.8c28.8,13.5,36.2,47.6,40.7,86.9C1842.4,1756.5,1863.7,1879.3,1863.7,1879.3"/>
		<polygon class="st40" points="1803.7,1711.1 1808.9,1889.4 1840.7,1879.3 		"/>
		<path class="st40" d="M1808.9,1871.5c0,0-39,13-91.4,13.3c-52.3,0.3-94.9-10-94.9-10s45.6-16.5,51.6-19.5c6-3,3.7-7.5,3.7-7.5
			s0,0,0,0c-4,2.2-9.3-1-13.3-6.6c-3.9-5.4-6.5-13-5.4-20c2.2-13.7,11.6-12.5,12.3-12.3c0,0,0,0,0,0c0,0,3-10.8-26.5-1.1
			c-29.5,9.7-85.2,20.9-85.2,20.9c1.1-8.4,38.7-109.3,38.7-109.3s-11.8,78.7-14,86.9c-2.2,8.2,58.7-4.1,79.2-7.1
			c3.8-0.6,11.1,1.5,20.5,5.3C1726,1821.4,1808.9,1871.5,1808.9,1871.5"/>
		<path class="st41" d="M1808.9,1871.5l-66.9,1.2c0,0-2.2-1.8-5-6.1c0,0-16.2-3.5-29.9-12c0,0,0,0,0,0c-6.3-3.9-12.1-8.9-15.5-15.1
			l-13.6,8.4l0,0c-7.8,4.5-20.9-12.4-18.7-26.5c2.2-13.7,11.6-12.5,12.3-12.3c0,0,0,0,0,0c0,0,6-2.2,12.6-4.4
			c6.7-2.2,14.1-4.4,16.3-4.2c4.5,0.4,86.1,36.4,90.1,40.5c0.3,0.3,0.6,0.7,1,1.2C1796.5,1848.6,1808.9,1871.5,1808.9,1871.5"/>
		<path class="st42" d="M1691.6,1839.5l-13.6,8.4c0,0,0,0,0,0c-4,2.2-9.3-1-13.3-6.6c12.2-6.9,22-16.4,23-12.5
			C1689.2,1834.6,1691.6,1839.5,1691.6,1839.5"/>
		<path class="st42" d="M1808.9,1871.5l-66.9,1.2c0,0-2.2-1.8-5-6.1c0,0-16.2-3.5-29.9-12c0.7,0.3,26.7,11.4,50.3,4.5
			c14.2-4.1,26.5-11,34.2-17C1796.5,1848.6,1808.9,1871.5,1808.9,1871.5"/>
		<polygon class="st46" points="1622.7,1874.8 1622.7,1898.7 1844.1,1898.7 1844.1,1870.9 		"/>
		<path class="st42" d="M1746.4,1577.7c0,0-32.3-1.4-37.2-28.8c0,0-3.2,13.1,5,27.3c8.2,14.3,31.6,12.8,31.6,12.8L1746.4,1577.7z"/>
		<path class="st40" d="M1760.3,1613.6c0,0-56.9,19.6-104.8-28.3c4.3-3.6,5-7.2,6.2-9.6c3-6,8.5,3.2,8.5,3.2
			c24,24.6,47.4,31,59.3,29.9c12-1.1,15.7-8.9,15.7-8.9c6-4.8,8.2,1.5,8.2,1.5C1754.3,1607,1756.5,1610.6,1760.3,1613.6"/>
		<path class="st46" d="M2225.5,1688.9l-86.5,203.3H1818l89.8-214.8c2.3-5.5,7.7-9.1,13.6-9.1h290.5
			C2222.5,1668.4,2229.7,1679.2,2225.5,1688.9"/>
		<path class="st47" d="M610.5,1858.2c4.1,16.3,5.6,32.1,6,47.6c0.6,15.6-0.1,30.9-1.6,46.1c-2.3,30.5-14.9,58.8-23,88.1
			c-8.1,29.3-16.6,58.5-25.5,87.6c-9.4,29-18,58.2-28,87.1l-5-1c2-30.5,5.4-60.8,8.1-91.2c3.1-30.3,6.6-60.5,10.6-90.7
			c3.9-30.1,3.3-61.2,13-90.2c4.5-14.6,9.8-29,16.4-43.1c6.5-14.2,13.9-28.1,24.1-41.5L610.5,1858.2z"/>
		<path class="st47" d="M393.3,2090.8c7.6,0.6,13.7,2.6,19.4,5c5.7,2.3,10.7,5.3,15.3,8.7c9.6,6.4,13.6,17.9,20.1,27.1
			c6.5,9.2,12.7,18.7,18.7,28.4c5.8,9.9,12,19.4,17.4,29.6l-2.7,2.4c-9.7-6.3-18.7-13.2-28-19.8c-9.1-6.8-18-13.8-26.7-21
			c-8.7-7.2-19.8-12.2-25.4-22.2c-3-4.9-5.6-10.1-7.4-16c-1.9-5.8-3.4-12.1-3.3-19.7L393.3,2090.8z"/>
		<path class="st48" d="M647,2021.8c2.1,11,1.8,20.6,0.6,29.6c-1,9.2-3.2,17.7-6.1,25.7c-5.1,16.6-19.5,27.8-29.8,41.4
			c-10.3,13.6-21,27-32,40.1c-11.4,12.9-22.2,26.2-34.2,38.8l-4.4-2.5c4.9-16.7,11.1-32.7,16.5-49c5.9-16.1,12.1-32,18.7-47.8
			c6.6-15.7,9.2-33.7,21-46.5c5.6-6.6,11.8-12.7,19.2-18.2c7.3-5.6,15.4-10.6,26-14.3L647,2021.8z"/>
		<path class="st47" d="M680.4,2112.9c-1.9,8-5,14.3-8.4,19.8c-3.4,5.7-7.4,10.4-11.8,14.7c-8.4,9-21.3,10.9-32.2,16
			c-10.9,5-22,9.8-33.2,14.3c-11.5,4.2-22.6,8.8-34.3,12.6l-2.2-3.4c8.3-9.1,17.1-17.4,25.6-26.1c8.7-8.4,17.6-16.5,26.7-24.4
			c9.1-7.8,16.2-18.8,27.8-22.7c5.6-2.2,11.6-3.9,18.2-4.7c6.5-0.9,13.4-1.1,21.5,0.5L680.4,2112.9z"/>
		<path class="st47" d="M506.1,1806.4c15.6,34.9,22.5,70.2,27.4,105.6c5.2,35.4,0.1,71.2-0.6,106.8c-0.6,35.6-1.6,71.2-3.1,106.9
			c-1.9,35.7-3.1,71.3-5.6,107l-5.1,0.2c-5.6-35.3-9.8-70.7-14.7-106.1c-4.5-35.4-8.5-70.8-12.2-106.2
			c-3.7-35.4-11.8-70.7-9.6-106.3c1.9-35.7,5.8-71.4,18.4-107.5L506.1,1806.4z"/>
		<path class="st48" d="M420.6,1942.6c10.4,8.5,18.2,17.9,25.1,27.6c7,9.6,12.7,19.7,17.6,30c10.5,20.4,11.1,44,16,66.3
			c4.9,22.2,9.5,44.6,13.6,67.1c3.7,22.6,8.1,45,11.2,67.8l-4.8,1.6c-10.8-20.3-20.4-41.1-30.6-61.6c-9.8-20.7-19.2-41.4-28.2-62.4
			c-9-20.9-22.4-40.4-25.7-63.2c-2-11.3-3.3-22.8-3.3-34.7c-0.1-11.9,0.7-24,4.2-37.1L420.6,1942.6z"/>
		<rect x="437.4" y="2181.1" class="st47" width="182" height="45.3"/>
		<rect x="451.6" y="2226.4" class="st48" width="153.7" height="137.3"/>
		<path class="st49" d="M2361.8,2435c0,0,2.6,31-6.1,39.7c-8.8,8.7,39.1,10.9,42.1,8.7c3.1-2.2,2.2-51.9,2.2-51.9L2361.8,2435z"/>
		<path class="st49" d="M2584,2409.5c0,0,12.4,26.8,7.4,37.3c-5,10.6,36.4-1.8,38.4-4.8c2-2.9-11-47.5-11-47.5L2584,2409.5z"/>
		<path class="st50" d="M2278.6,1293.7l-19.5,125.7c0,0,20.9-5.6,39.4,5.8c18.6,11.3,101.6-3.8,112.3-26.7
			c10.7-23,27.7-110.7,15.4-120.8c-12.3-10.1-35.9-6.1-35.9-6.1L2278.6,1293.7z"/>
		<path class="st51" d="M2632,2411c-7.1,3.2-14.7,5.7-22.3,7.6c0,0,0,0,0,0c-25.6,6.4-37.7,5.8-37.7,5.8s-4.9-5.8-29.5-90.4
			c-24.6-84.5-49.4-138.1-48.3-178.8c1.1-40.8-29.2-119.7-46-203.8c-16.8-84.1-25.1-88.9-25.1-88.9s-18.7,186.5-8.1,272.9
			c10.6,86.4-2.1,306.9-2.1,306.9c-50.1,19.4-66.2,2-66.2,2c7.9-115.2-45.5-349.3-48.9-402c-1.3-20-5-59.5-9-101h0
			c-6.7-68.1-6.3-142.6-6.3-142.6c-3.1-29.2,163.5-103.2,190.4-108.8c26.9-5.6,59.7,88,85.3,121.2c25.6,33.2,25.8,330,54.6,384.4
			c0.3,0.5,0.5,1,0.8,1.6C2641.3,2252.6,2632.1,2409.6,2632,2411"/>
		<path class="st52" d="M2632,2411L2632,2411c-11.9,5.7-21.6,7.5-22.3,7.6c0,0,0,0,0,0c-12.4-86.5-59.7-407.1-95.8-521.2
			c-41.9-132.4-130.9-29.6-150.1,0c-19,29.4-74.3,43.5-75.1,43.8h0c-6.7-68.1-6.3-148.5-6.3-148.5c-3.1-29.2,163.5-97.3,190.4-102.9
			c26.9-5.6,59.7,88,85.3,121.2c25.6,33.2,25.8,330,54.6,384.4c0.3,0.5,0.5,1,0.8,1.6C2641.3,2252.6,2632.1,2409.6,2632,2411"/>
		<path class="st53" d="M2326.6,1358.2c0,0,8.6,34.5,1.8,57.9c-7.3,25.4,56.3,5.9,64.5,1.5c8.2-4.4-0.1-18.5-0.1-18.5
			s-11.8-33-15.3-67.6C2374,1296.9,2326.6,1358.2,2326.6,1358.2"/>
		<path class="st49" d="M2407.7,1283c-1.6,16.7-14.5,26.7-14.5,26.7c-6,26.4-14.2,37.2-24.5,46.5c-5.2,4.7-11.1,7.8-17.1,9.7
			c-17.1,5.2-35.7,0-45.5-7.5c-13.2-10.1-59.1-66-46.5-115.1c0.9-3.5,1.8-6.6,2.8-9.4c12.6-37,30.6-20.2,30.6-20.2l85.5-1.3
			C2378.4,1212.6,2409,1269.2,2407.7,1283"/>
		<path class="st53" d="M2407.7,1283c-1.6,16.7-14.5,26.7-14.5,26.7c-6,26.4-14.2,37.2-24.5,46.5c-5.2,4.7-11.1,7.8-17.1,9.7
			c0,0,0,0,0,0c20.3-11.6,46.9-75.7,9.2-76.9c-37.6-1.2-68.6-25.1-74-42.6c-5.4-17.6-19.1,0-19.1,0s-3.1-4.7-5.5-12.4
			c12.6-37,30.6-20.2,30.6-20.2l85.5-1.3C2378.4,1212.6,2409,1269.2,2407.7,1283"/>
		<path class="st54" d="M2504.3,1760.8c0,0-106.8,79.1-200.3,28l-0.6-19.2l-9.2-282.8l0-1.2c0,0,6.9-65.1,11.3-68.5
			c4.4-3.4,15.4-10.5,16-6.5c0,0-0.7,10.7,12.5,13.6c13.2,2.9,48.1-1.1,53.6-17.6l5.5-16.5c0,0,16.5-17.3,29.4-8.7
			c12.8,8.7,60,105.9,56.7,157.1S2504.3,1760.8,2504.3,1760.8"/>
		<path class="st55" d="M2504.3,1760.8c0,0-106.8,79.1-200.3,28l-0.6-19.2c35.6,25.9,98,28.5,123.2,3.2
			c31.5-31.8-10-265.8-21.4-303.4c-11.4-37.6-56.2-41.9-73.4-20.6c-10.4,13-7.3,73.1-7.3,73.1s-16.1-12.2-30.3-35l0-1.2
			c0,0,6.9-65.1,11.3-68.5c4.4-3.4,24.4-14.8,25-10.8c0,0-4.7,15.7,8.5,18.6c13.2,2.9,43.1-1.8,48.6-18.3l5.5-16.5
			c0,0,16.5-17.3,29.4-8.7c12.8,8.7,60,105.9,56.7,157.1S2504.3,1760.8,2504.3,1760.8"/>
		<path class="st56" d="M2321,1486.5c-5.1-52-1.4-77.8-1.4-77.8c-1.4-7.2-55.8,25-63.3,32.5c-7.5,7.6-67.7,415.4-67.7,415.4
			l49.1,35.5l94,10.4C2331.7,1902.6,2326.6,1543.2,2321,1486.5 M2275.5,1891.5l-37.7,0.7c0,0,31.5-132.7,34.2-274.7
			C2271.9,1617.5,2278,1852.3,2275.5,1891.5"/>
		<path class="st33" d="M2272,1620.1c0.2,7.7,0.8,32,1.5,63.3C2273,1661.5,2272.5,1640.1,2272,1620.1"/>
		<path class="st57" d="M2237.7,1892.2c0,0,31.5-132.7,34.2-274.7c0,0,0,0,0,0c-1.6-62.5-3.2-109.9-3.2-109.9
			c-7.2-7.2-10.8,38.9-12.5,98.8c-1.7,60-33,251.3-33,251.3s-17.1-15.7-31.2,0.2c-3.7,4.2,2,33.7,2,33.7L2237.7,1892.2z"/>
		<path class="st58" d="M2209.5,1858.7c0,0,7.7,1.7,12.1,11.2c4.4,9.5,7.8,21.8,7.8,21.8h-35.3L2209.5,1858.7z"/>
		<path class="st56" d="M2440.6,1378.9c0,0,74.1,2.1,93.9,51.9c19.8,49.8,21.3,106.8,36,161.6c14.7,54.8,34.1,194.6,44,237.3
			l-24.9,31.8c0,0-50.6,15.4-79.3,0c-28.6-15.4-84.6-453.2-89.2-467.8C2416.6,1379.1,2440.6,1378.9,2440.6,1378.9"/>
		<path class="st59" d="M2275.2,1242.9c0,0,3.9-19.3,16.4-0.3c7.1,10.9,9.1,59.3,87.1,37.5c0,0,18.7-6.2,21.1,31.5
			c2.4,37.8-16.4,89.8-32.7,99c0,0,43.1,8.3,68.7-19.3c25.6-27.6,13.7-118.6-44-177.5c-57.7-58.9-111.8-4.2-111.8-4.2
			s-16.7,0.9-23.4,28.1c-6.7,27.2,8.9,161-13.9,178.4c0,0,23.6,16.1,29.9-18.3c0,0,9.8-59.8-5.8-124.4
			C2266.8,1273.4,2262.7,1239.8,2275.2,1242.9"/>
		<path class="st57" d="M2496,1488.9c0,0,15.8,124.6,29.7,182.5c13.9,58,50.6,184.2,50.6,184.2s5.4-13.9,16.4-18.8
			c11-4.9,17.2,9.2,17.2,9.2l-20.4,15.5c0,0-15.7,5-30.3,5.9c0,0-51.8-148.3-63.2-278.2C2484.7,1459.4,2496,1488.9,2496,1488.9"/>
		<path class="st49" d="M2223.9,1875.2c0,0-13.3,7.4-20.7,13.5c-7.4,6.1-18.1,3.6-22.6-0.3c-4.5-3.9-26.9,9.6-36,1.2
			c-9.1-8.4,0.6-4,19.1-15.1c0,0-15.8-6.7-23.5-12.5l-7.6-5.8c0,0-10.9,9.5-20.7,12.7c0,0-10.3,23.7-18.7,23.2
			c-8.3-0.5-2-7.9-0.5-11.2c1.4-3.4,9.2-21.9,12.3-25.3c3-3.3,16.3-8.5,22.6-11.7c6.3-3.2,5.5-7.5,18.1-3.4
			c12.5,4.2,45.2,20,50.7,18.3c0.2-0.1,2.9-1.4,3.1-1.5C2212.7,1853.3,2221.9,1864.7,2223.9,1875.2"/>
		<path class="st26" d="M2740.8,2522.7c0,14.1-113.3,25.5-253.1,25.5c-139.8,0-253.1-11.4-253.1-25.5c0-14.1,113.3-25.5,253.1-25.5
			C2627.5,2497.2,2740.8,2508.7,2740.8,2522.7"/>
		<path class="st49" d="M2580.4,1848.2c0,0,3.9,5.5,4.7,16.2s12.1,17.8,19.5,18.7s14.3,29.7,29.6,31.1c15.3,1.5,3.1-3.4-2.6-27.1
			c0,0,9.2,5.8,20.9,7.9c11.7,2.1,13.9,0.2,13.9,0.2s-2.1,6.1,3.3,16.6c0,0-9.6,16-2.1,22.6c7.5,6.6,8.7-4.1,10.6-7.8
			c1.8-3.7,8.9-13.8,9.4-18.8c0.4-5-3.4-9.9-5.9-17.5c-2.5-7.6,2.1-10.2-12.4-17.7c-14.4-7.5-48.2-18.8-51.4-24.7
			c-3.3-5.9-6.7-13.8-6.7-13.8S2590.7,1829,2580.4,1848.2"/>
		<path class="st60" d="M2358.4,2470.6c0,0,21.7,13.7,38.4,0c0,0,2.4-2.6,4.8,0c2.3,2.6,6.7,52.8,4.1,59.2h-128.6
			c0,0-13.1-4.1-11.7-16c1.5-12,63.9-27.1,77.9-35.9C2357.3,2469.2,2358.4,2470.6,2358.4,2470.6"/>
		<path class="st60" d="M2592.5,2442.2c0,0,23.8,5.1,34.2-12.5c0,0,1.3-3.1,4.2-1.5c2.9,1.6,23.1,44.8,22.8,51.4l-114.5,41.7
			c0,0-13,0.6-15.6-10.5c-2.6-11.1,48-44.9,57.7-57.2C2591.1,2441.3,2592.5,2442.2,2592.5,2442.2"/>
		<path class="st52" d="M2402.5,1306.2c0,5.4-4.4,9.8-9.8,9.8s-9.8-4.4-9.8-9.8c0-5.4,4.4-9.8,9.8-9.8S2402.5,1300.8,2402.5,1306.2"
			/>
		<rect x="1189.8" y="1891.7" class="st61" width="1498" height="26.6"/>
		<rect x="2575.9" y="1918.1" class="st62" width="25.8" height="654.1"/>
		<rect x="1265.8" y="1918.1" class="st62" width="25.8" height="654.1"/>
		<rect x="2744.3" y="1195.6" class="st4" width="10.5" height="1060.2"/>
		<path class="st4" d="M2799.7,2280.3h-100.3c0-21.8,22.4-39.5,50.1-39.5C2777.3,2240.8,2799.7,2258.5,2799.7,2280.3"/>
		<path class="st4" d="M2675.1,2308.8h154.4c1.3,0,2.3-1,2.3-2.3v-24c0-1.3-1-2.3-2.3-2.3h-154.4c-1.3,0-2.3,1-2.3,2.3v24
			C2672.8,2307.8,2673.9,2308.8,2675.1,2308.8"/>
		<path class="st3" d="M2932,1177.6c0,0-24.9,22.5-181.8,22.5c-156.8,0-181.8-22.5-181.8-22.5l95.9-215.8H2836L2932,1177.6z"/>
		<path class="st4" d="M2836,961.8h-2.1c-9,144.4-123.8,223.7-246.4,172.9l-19.1,42.9c0,0,24.9,22.5,181.8,22.5
			c156.8,0,181.8-22.5,181.8-22.5L2836,961.8z"/>
		<path class="st26" d="M1323.7,2673.3c0,17.9-106.7,32.4-238.2,32.4c-131.6,0-238.2-14.5-238.2-32.4s106.7-32.4,238.2-32.4
			C1217,2640.9,1323.7,2655.4,1323.7,2673.3"/>
		<path class="st54" d="M1113.2,2565.2c0,0-3.1,73.2-3.1,82.6h170.1c0,0,17.9-27.6-26.9-35.8c-46-8.5-75.1-20.3-93.1-48.5
			C1142.1,2535.2,1113.2,2565.2,1113.2,2565.2"/>
		<path class="st54" d="M997.9,2585.9c0,0-3.9,16.4-17.1,28.8c-13.2,12.4-72.9,45.9-75,55.5c-2.1,9.6-2.1,15.7,19.2,18.5
			c21.3,2.8,126.3-28.5,128.8-34.1c2.5-5.7-7.4-50.1,6-76.5C1073.2,2551.7,997.9,2585.9,997.9,2585.9"/>
		<path class="st63" d="M1205.6,1698.4c0,0-19,53.9-19,95.8c0,41.9,26,116.1,26,116.1s74.3-27.4,74.3,26.9c0,0,28.5-38.4-10.2-134.8
			C1238,1706,1205.6,1698.4,1205.6,1698.4"/>
		<path class="st64" d="M1207.6,2300.7c-19.7,105.4-24.1,274.2-24.1,274.2c-31.6,12.9-53.5,11.8-66.9,8.3c-11-2.9-16.2-7.6-16.2-7.6
			c1.3-43.8-10.2-233.6-10.2-233.6c-3.2,32.4-17.8,251.9-17.8,251.9c-53.3,21-102.2,2.5-102.2,2.5s-9.5-326.2-7.6-380.8
			c1.2-34.7-4.1-141.1-8.1-213.9c-2.3-41.6-4.2-72.3-4.2-72.3c1.3-52.6,169.6-213.1,243.2-147.1c10.7,9.6,19,25.1,25.3,45v0
			C1256,1944.2,1224.4,2210.7,1207.6,2300.7"/>
		<path class="st63" d="M1153.6,1841.1c-1.3,10.3,14,30.6-16.5,63.6c-30.3,32.8-181,96.4-182.6,97c-2.3-41.6-4.2-72.3-4.2-72.3
			c1.3-52.6,169.6-213.1,243.2-147.1c10.7,9.6,19,25.1,25.3,45v0C1218.9,1827.4,1154.9,1830.9,1153.6,1841.1"/>
		<path class="st63" d="M1122.5,2376.4c4.7,82.2-4.6,165-6,206.7c-11-2.9-16.2-7.6-16.2-7.6c1.3-43.8-10.2-233.6-10.2-233.6
			s10.4-109.4,10.4-137.3c0-27.9,33.8-280.1,39.8-274.2C1146.2,1936.4,1116.1,2263.1,1122.5,2376.4"/>
		<path class="st65" d="M1099.2,1334.8c0,0-6.3,11.3-34.1,18.9c0,0-0.4,26.2,14.5,68.6c15,42.3-48.2,49.9-52.7,46.3
			c-1.5-1.2-5.4-5.9-10.1-11.7c-9.9-12.3-23.2-29.5-23.2-29.5s11-5.9,7.1-31c-3.9-25.1-31.3-64.6-37.2-67.4
			c-5.9-2.8-26-22.8-16.9-58.4c9-35.5,59.8-81.5,69.4-84.3c9.6-2.8,31.3-9.6,31.3-9.6s9.2,8.4,19,23c2.8,4.2,5.7,9,8.5,14.2
			l12.3,23.3C1087,1237,1125.9,1298,1099.2,1334.8"/>
		<path class="st66" d="M1010.8,1322.9c-19.5,40.6,39.8,131.2,39.8,131.2s-14.2,2.8-33.8,2.6c-9.9-12.3-23.2-29.5-23.2-29.5
			s11-5.9,7.1-31c-3.9-25.1-31.3-64.6-37.2-67.4c-5.9-2.8-26-22.8-16.9-58.4c9-35.5,59.8-81.5,69.4-84.3c9.6-2.8,31.3-9.6,31.3-9.6
			s9.2,8.4,19,23c0,0-20.7-3.2-31.3,13.3c-10.6,16.5-19.9,33-35.1,36.8C984.6,1253.5,1030.3,1282.3,1010.8,1322.9"/>
		<path class="st63" d="M1032.8,1828.4c0,0,75.6,5.4,123-4.5c47.4-9.9,56.5-14,56.5-14s-3.5-22.1-4.3-22.7
			C1207.1,1786.6,1051.4,1775.4,1032.8,1828.4"/>
		<path class="st4" d="M1222.8,1788.6c-2.8,6-21.3,12.4-46.8,17.7c-44.3,9.2-109.7,15.4-151,11.7c-53-4.8-40.2-229.7-33.7-312.9
			c1.5-19,2.7-30.6,2.7-30.6s37.7-34.4,64.8-13.8c0,0,25.4-23.7,45.8-8.2c20.5,15.5,96,203.1,96,203.1S1230.4,1772.1,1222.8,1788.6"
			/>
		<path class="st67" d="M1076,1215.3l-9.8-15.7c0,0-4.6-16-27.8-4.2c-5.2,2.7-8.6,6.1-11.3,10c0,0-0.1,0.1-0.1,0.1
			c-9.4,13.4-11.4,31.9-53.8,41.5c0,0,25.1,19.2,28.8,40.3c3.7,21.2-2.8,16.6-2.8,16.6s-10.2-18.1-26-14.9
			c-15.8,3.1-19.2,26.2-10.2,31.3c9,5.1,15,7.9,15,7.9s19.5,30.4,11.6,38.2c0,0-3.7,3.5-11.6,0c-7.9-3.5-18.1-22.4-45.7-43.6
			c-27.6-21.1-41.5-80.7,18.3-109.4c0,0-6.8-40.6,49.6-60.6c50.3-17.9,72,14.9,77.2,28.3c0,0,0,0,0,0.1c0.6,1.6,1,2.9,1.2,3.8
			C1080.8,1196,1076,1215.3,1076,1215.3"/>
		<path class="st68" d="M1076,1215.3l-9.8-15.7c0,0-4.6-16-27.8-4.2c-5.2,2.7-8.6,6.1-11.3,10c2.4-3.9,35.5-57.2,50.5-24.3
			c0,0,0,0,0,0.1c0.6,1.6,1,2.9,1.2,3.8C1080.8,1196,1076,1215.3,1076,1215.3"/>
		<path class="st66" d="M1065.1,1353.7c0,0-23.6,2.3-49.2-8.7c0,0-2.1,3.6,10.5,15.4c12.6,11.8,40.9,15,40.9,15
			S1065,1362.4,1065.1,1353.7"/>
		<path class="st69" d="M1075.9,1411.1c0,0,2.6,25.7-17.2,49.4c0,0,21.2-14.1,55.3,11C1114,1471.6,1079,1403.7,1075.9,1411.1"/>
		<path class="st55" d="M1200.6,1655.5c0,0-75.5-187.6-96-203.1c-20.5-15.5-45.8,8.2-45.8,8.2c-27.1-20.6-64.8,13.8-64.8,13.8
			s-1.2,11.6-2.7,30.6c11.5,12.4,27.1,14.3,27.1,14.3s5.4-18.9,18.2-33.5c0.1-0.1,7.1-6.3,11.7,4.7c4.6,11,45.6,54,37.5,327.4
			l18.8-1.4c0,0,5.2-82.3-11.3-183c-16.5-100.7-28.8-161.3-36.8-161.9c7.9-2.8,17.2-3.4,27.9,0c48.2,15.1,126.1,309.8,91.6,334.6
			l0,0c25.5-5.3,44-11.6,46.8-17.7C1230.4,1772.1,1200.6,1655.5,1200.6,1655.5"/>
		<path class="st57" d="M1037.5,1461.3c0,0,9.2,27.8,18.5,28.3c9.3,0.6,20.4-4.1,22.1-6.9c1.7-2.8,0.3-17.2-3.4-32.4
			c0,0-10.3,5.3-15.9,10.2C1058.8,1460.6,1052,1453.4,1037.5,1461.3"/>
		<path class="st56" d="M1076.5,1484.3c0,0,30.8,89.8,46,197c15.2,107.3,19,149.8,19,149.8s-8,32.9-23.3,48.1c0,0-17.6-35.3-25-45.7
			c0,0,8.7-238.6-35.1-344.6C1058.1,1488.8,1075.6,1481.8,1076.5,1484.3"/>
		<path class="st69" d="M1058.8,1460.6c0,0-6.2-7.1-24.8-15.2c-18.6-8.2-33.8-28.2-33.8-28.2s-8.5,2-8.8,16.9
			c-0.3,14.9,22,83.2,22,83.2S1033.9,1447,1058.8,1460.6"/>
		<path class="st64" d="M1035.6,1916.1l-107.3,40c0,0,20.3-185.3,12.7-285c0,0-41.6,64.5-41.6,72.6c0,8.2,9.6,27.4,15.2,59.8
			c5.6,32.4,11.3,54.7,11.3,54.7s-9.9,12.7-33,18.6c-23.1,5.9-30.2,5.9-30.2,5.9c-0.3-1.4-42.7-155.3-40.4-167.3
			c11.8-61.4,74.5-228.2,101.3-244c26.9-15.8,52.9-26.4,52.9-26.4s0,0,0,0c-0.2-0.3-1.6-2.8,2.8-10.6c4.7-8.2,12-14.5,13.5-9.4
			c0,0,15,52.1,27.5,84.9c7,18.3,22.2,62.5,28,142.8c0,0.2,0,0.5,0,0.7C1052.9,1717,1051.5,1802.8,1035.6,1916.1"/>
		<path class="st70" d="M1003.8,1584.1c3.1-5.6,11.6-46.3,11.6-46.3c-6.2-11-42-22.3-42-22.3l3.2-70.4c0,0,0,0,0,0
			c-0.2-0.3-1.6-2.8,2.8-10.6c4.7-8.2,12-14.5,13.5-9.4c0,0,15,52.1,27.5,84.9c7,18.3,22.2,62.5,28,142.8
			C1046.6,1630.5,1003.8,1584.1,1003.8,1584.1"/>
		<path class="st63" d="M979.2,1591.2l-38.2,80l1.7,52.3C942.7,1723.5,1001.5,1561.3,979.2,1591.2"/>
		<path class="st71" d="M866.4,1872.1l12.4,30.5c0,0,23.7,4.5,50.5-18.3l-8.7-32.4L866.4,1872.1z"/>
		<path class="st72" d="M1078.5,1904.7c0,0-25,13.6-41.3,14.5c-16.3,0.9-3.8,17,9.1,18C1059.3,1938.3,1088,1927.3,1078.5,1904.7"/>
		<path class="st5" d="M1062.9,1935.8c-31.1,11.4-82,25.7-82,25.7l-34.6,8.1l-33,7.7l-12.3,2.9c0,0-39.5,14.7-96.2,44.3
			c0,0-14.3-2.3-22.3-17.2c-4-7.5-6.4-18.1-4.8-33.1c0,0,48.3-9.5,106.8-25.2c5.5-1.5,11.1-3,16.8-4.6c16.1-4.5,32.8-9.5,49.1-14.8
			c12.4-4,24.6-8.3,36.3-12.7c27.5-10.3,52.4-21.7,70.7-33.7c0,0-4.7,18.2-2.1,30.3c1.3,5.9,4.2,10.3,10.3,10.5
			c18.3,0.6,13.1-18.5,12.9-19.2C1079,1905.3,1093.5,1924.5,1062.9,1935.8"/>
		<path class="st4" d="M913.3,1977.2l-12.3,2.9c0,0-39.5,14.7-96.2,44.3c0,0-14.3-2.3-22.3-17.2c28.2,4.1,92.4-22.4,99.8-28.5
			c8.5-7,2.3-29.8,2.3-29.8c5.5-1.5,11.1-3,16.8-4.6c4,5.8,6.9,17.5,11,22.8C913.9,1969.3,914.2,1972.8,913.3,1977.2"/>
		<path class="st4" d="M1062.9,1935.8c-31.1,11.4-82,25.7-82,25.7l-34.6,8.1c-2-4.3-2.8-10.2-1.9-18.1c1.1-9.5,3.2-16.6,6-22
			c12.4-4,24.6-8.3,36.3-12.7l0,0c0,0-17.7,11.6-12.7,28.4c3.4,11.5,50.2-12.7,81.3-31.8c1.3,5.9,4.2,10.3,10.3,10.5
			c18.3,0.6,13.1-18.5,12.9-19.2C1079,1905.3,1093.5,1924.5,1062.9,1935.8"/>
		<path class="st65" d="M980.2,1969.8c-8.2,10.9-16.9-3.4-20.1,1.7c-3.2,5.1-11.2,4.5-13.2,3.5c-2-1.1-3.9,3.6-7.8,6.8
			c-3.9,3.2-10.2,1.9-12.8,1.2c-2.6-0.7-4.9,2.4-10,4.9c-5.2,2.4-10.7-1.1-10.7-1.1c-11.7-13.2-14.4-40.5-14.6-59.1
			c-0.3-18.6-4.8-32.2-4.8-32.2l31.3-14.7c0,0,5.1,15.7,8.3,19.5c3.2,3.8,36.8,10.4,45,12.5c8.2,2.1,8.7,6.4,8.7,6.4
			s-11.1,5.4-13.3,10.8c-1.9,5-1.4,15.2,3.8,22.9c5.2,7.6,10.9,8.6,10.9,8.6c0.4,0.8,0.7,1.6,0.8,2.3
			C982.2,1967.1,980.2,1969.8,980.2,1969.8"/>
		<path class="st66" d="M981.7,1963.8c-16.7,8-29.4-19.4-24.6-31.6c5.1-12.9,22.4-13,22.4-13s-11.1,5.4-13.3,10.8
			c-1.9,5-1.4,15.2,3.8,22.9c5.2,7.6,10.9,8.6,10.9,8.6C981.3,1962.3,981.6,1963,981.7,1963.8"/>
		<path class="st64" d="M1255.1,1723.5c80.5,163.3,32.6,213,31.7,213.9c0.3-0.9,16.7-49.2-28.6-127.8c-33-57.3-64.3-121.4-86.6-176
			c0,0,0,0,0,0c-8.6-21-15.8-40.6-21.3-57.8c-19.7-62.1-70.9-162.9-70.9-162.9c-2.5-11.8,21,15.7,21.6,16.4c0,0,0,0,0,0
			s26,4.2,43.4,8c17.3,3.8,71.3,68,71.3,68c-5.4-16.9-5.7-81.8-5.7-81.8c30.5-14.8,51.4-10.7,51.4-10.7s28.6,67.4,38.1,125.4
			c5.4,32.9,2.2,66.9-3,90.7c-3.9,18.1-9.1,30.3-12.5,31.7c-6.3,2.5-57.5-15.4-57.5-15.4C1236.1,1691.4,1255.1,1723.5,1255.1,1723.5
			"/>
		<path class="st70" d="M1171.7,1633.5c-8.6-21-15.8-40.6-21.3-57.8c-19.7-62.1-70.9-162.9-70.9-162.9c-2.5-11.8,21,15.7,21.6,16.4
			c0,0,0,0,0,0s48.7,63.9,47.6,69c-1.1,5.1-6.8,20.7-6.8,20.7l26.7,21.2C1168.6,1540,1170.2,1625.9,1171.7,1633.5"/>
		<path class="st63" d="M1296.6,1628.9c-3.9,18.1-9.1,30.3-12.5,31.7c-6.3,2.5-57.5-15.4-57.5-15.4l-52-127.8
			c1.2,2.7,68,147.4,105.4,132.4C1285.1,1647.7,1296.6,1628.9,1296.6,1628.9"/>
		<path class="st63" d="M1215.8,1505.2c0,0,13,77.8,33.3,92.7c0,0-56-37.6-43.8-104.8L1215.8,1505.2z"/>
		<path class="st71" d="M1245.8,1426c-0.8,3.8-29,4.4-29,4.4l-4.6-23.9c0,0,1.5-0.8,3.7-1.9c4.2-2.1,11.2-5.3,16.1-5.6
			c1.5-0.1,2.9,0.1,3.9,0.6C1241.8,1402.7,1246.7,1422.2,1245.8,1426z"/>
		<path class="st33" d="M1184.5,1272.2l66.6,182.4c0,0,28.8-6.3,52.9-24.1c0,0-50.4-76.6-63.5-166.3
			C1240.5,1264.1,1188.1,1261.2,1184.5,1272.2"/>
		<path class="st73" d="M1244.3,1284.9c0,0-23.3,7-48.6,17.6l-11.1-30.4l56-8L1244.3,1284.9z"/>
		<path class="st65" d="M1208,1343c0,0,17.2,33,24.1,55.9c-4.9,0.4-11.9,3.5-16.1,5.6c-4-5.6-10.4-14.5-15.1-20.9
			c-7.4-9.9-20.3-21.8-15-42.3c5.3-20.5,17.1-40.2,23.1-38.5c5.9,1.7,29.4,1.5,31.3,4.9c1.9,3.4-2.1,16.3-24.5,18.4
			C1215.6,1326.1,1212.2,1340.5,1208,1343"/>
		<path class="st65" d="M1281.8,1356.8c0-0.1,0.1-0.2,0.1-0.4c0.8-4.3,0.4-13-6.2-14.2c1.8-1.6,3.1-3.4,3.8-5.2
			c2.6-6.1-1.9-14.8-5.3-14.9c0,0-1.2-0.3-3.4-0.2c0.6-2,1.1-5.9-1.7-11.5c0,0-5.9-8.3-16.4-2.5c-10.6,5.8-18.6,9.6-17.4,13.1
			c1.2,3.6,3.2,7.4,15.8,7c1.1,0,2.1-0.1,3-0.2c-3.3,2.1-5.5,4.1-10.1,6.8c-7,4.1,1.5,14.6,12.5,14.7c3.2,0,6.3-0.5,9.1-1.4
			c-3.5,3.2-7.9,7-10.8,8.4c-5.6,2.8-0.8,11.3,7.8,10.8c3.1-0.2,6.3-0.9,9.2-2.1c-0.1,0.8-0.1,1.8,0.1,2.7c1.2,7.6,9.3,8,12.9,5.1
			C1287.9,1370.3,1289.1,1359.1,1281.8,1356.8"/>
		<path class="st74" d="M1422,1225.1c0,0-151.8,32.3-253.4,67.8l-18.5-57.1c0,0,165.7-104.6,203.8-160.4
			C1353.9,1076.5,1354.1,1190.4,1422,1225.1"/>
		<polygon class="st75" points="1107.7,1263.1 1154.7,1226.7 1183.3,1293.1 1131.4,1308 		"/>
	</g>
</g>
</svg>
